<svg width="18" height="18" viewBox="0 0 18 18" fill="none" xmlns="http://www.w3.org/2000/svg">
<g clip-path="url(#clip0)">
<path d="M13.85 8.44L5.56 0.15C5.36 -0.05 5.05 -0.05 4.85 0.15L4.15 0.85C3.95 1.05 3.95 1.36 4.15 1.56L11.59 9L4.15 16.44C3.95 16.64 3.95 16.95 4.15 17.15L4.86 17.86C4.95 17.95 5.08 18 5.21 18C5.34 18 5.47 17.95 5.56 17.85L13.85 9.56C13.95 9.47 14 9.34 14 9.21V8.79C14 8.66 13.95 8.53 13.85 8.44Z" fill="#B9BDC5"/>
</g>
<defs>
<clipPath id="clip0">
<rect width="18" height="18" fill="white"/>
</clipPath>
</defs>
</svg>
