<svg width="18" height="18" viewBox="0 0 18 18" fill="none" xmlns="http://www.w3.org/2000/svg">
<g clip-path="url(#clip0)">
<path d="M4.15 8.44L12.44 0.15C12.64 -0.05 12.95 -0.05 13.15 0.15L13.86 0.86C14.06 1.06 14.06 1.37 13.86 1.57L6.41 9L13.85 16.44C14.05 16.64 14.05 16.95 13.85 17.15L13.14 17.86C13.04 17.96 12.91 18.01 12.79 18.01C12.67 18.01 12.53 17.96 12.44 17.86L4.15 9.56C4.05 9.47 4 9.34 4 9.21V8.79C4 8.66 4.05 8.53 4.15 8.44Z" fill="#B9BDC5"/>
</g>
<defs>
<clipPath id="clip0">
<rect width="18" height="18" fill="white"/>
</clipPath>
</defs>
</svg>
