<svg width="262" height="170" viewBox="0 0 262 170" fill="none" xmlns="http://www.w3.org/2000/svg">
<path d="M0 4C0 1.79086 1.79086 0 4 0H258C260.209 0 262 1.79086 262 4V166C262 168.209 260.209 170 258 170H4C1.79087 170 0 168.209 0 166V4Z" fill="white"/>
<rect x="22" y="26" width="37" height="6" rx="3" fill="#E6E8EC"/>
<rect x="22" y="41" width="5" height="4" rx="2" fill="#E6E8EC"/>
<rect x="33" y="41" width="13" height="4" rx="2" fill="#E6E8EC"/>
<rect x="52" y="41" width="13" height="4" rx="2" fill="#E6E8EC"/>
<rect x="71" y="41" width="24" height="4" rx="2" fill="#E6E8EC"/>
<rect x="101" y="41" width="12" height="4" rx="2" fill="#E6E8EC"/>
<rect x="119" y="41" width="11" height="4" rx="2" fill="#E6E8EC"/>
<rect x="136" y="41" width="13" height="4" rx="2" fill="#E6E8EC"/>
<rect x="172" y="25" width="17" height="3" rx="1.5" fill="#E6E8EC"/>
<rect x="191" y="25" width="5" height="3" rx="1.5" fill="#E6E8EC"/>
<rect x="201" y="25" width="17" height="3" rx="1.5" fill="#E6E8EC"/>
<rect x="223" y="25" width="17" height="3" rx="1.5" fill="#E6E8EC"/>
<rect x="224" y="39" width="16" height="6" rx="3" fill="#E6E8EC"/>
<path d="M22 68C22 65.7909 23.7909 64 26 64H69.5C71.7091 64 73.5 65.7909 73.5 68V141C73.5 143.209 71.7091 145 69.5 145H26C23.7909 145 22 143.209 22 141V68Z" fill="#E3EFFC"/>
<rect x="35.25" y="72" width="25" height="5" rx="2.5" fill="#CBDBED"/>
<rect x="36.75" y="85" width="22" height="3" rx="1.5" fill="#CBDBED"/>
<rect x="39.75" y="92" width="16" height="3" rx="1.5" fill="#CBDBED"/>
<rect x="34.75" y="99" width="26" height="3" rx="1.5" fill="#CBDBED"/>
<rect x="37.75" y="106" width="20" height="3" rx="1.5" fill="#CBDBED"/>
<rect x="29.75" y="113" width="36" height="3" rx="1.5" fill="#CBDBED"/>
<rect x="35.75" y="120" width="24" height="3" rx="1.5" fill="#CBDBED"/>
<rect x="32.25" y="131" width="31" height="8" rx="4" fill="#1062FE"/>
<path d="M77.5 68C77.5 65.7909 79.2909 64 81.5 64H125C127.209 64 129 65.7909 129 68V141C129 143.209 127.209 145 125 145H81.5C79.2909 145 77.5 143.209 77.5 141V68Z" fill="#E3EFFC"/>
<rect x="90.75" y="72" width="25" height="5" rx="2.5" fill="#CBDBED"/>
<rect x="92.25" y="85" width="22" height="3" rx="1.5" fill="#CBDBED"/>
<rect x="95.25" y="92" width="16" height="3" rx="1.5" fill="#CBDBED"/>
<rect x="90.25" y="99" width="26" height="3" rx="1.5" fill="#CBDBED"/>
<rect x="93.25" y="106" width="20" height="3" rx="1.5" fill="#CBDBED"/>
<rect x="85.25" y="113" width="36" height="3" rx="1.5" fill="#CBDBED"/>
<rect x="91.25" y="120" width="24" height="3" rx="1.5" fill="#CBDBED"/>
<rect x="87.75" y="131" width="31" height="8" rx="4" fill="#1062FE"/>
<path d="M133 68C133 65.7909 134.791 64 137 64H180.5C182.709 64 184.5 65.7909 184.5 68V141C184.5 143.209 182.709 145 180.5 145H137C134.791 145 133 143.209 133 141V68Z" fill="#E3EFFC"/>
<rect x="146.25" y="72" width="25" height="5" rx="2.5" fill="#CBDBED"/>
<rect x="147.75" y="85" width="22" height="3" rx="1.5" fill="#CBDBED"/>
<rect x="150.75" y="92" width="16" height="3" rx="1.5" fill="#CBDBED"/>
<rect x="145.75" y="99" width="26" height="3" rx="1.5" fill="#CBDBED"/>
<rect x="148.75" y="106" width="20" height="3" rx="1.5" fill="#CBDBED"/>
<rect x="140.75" y="113" width="36" height="3" rx="1.5" fill="#CBDBED"/>
<rect x="146.75" y="120" width="24" height="3" rx="1.5" fill="#CBDBED"/>
<rect x="143.25" y="131" width="31" height="8" rx="4" fill="#1062FE"/>
<path d="M188.5 68C188.5 65.7909 190.291 64 192.5 64H236C238.209 64 240 65.7909 240 68V141C240 143.209 238.209 145 236 145H192.5C190.291 145 188.5 143.209 188.5 141V68Z" fill="#E3EFFC"/>
<rect x="201.75" y="72" width="25" height="5" rx="2.5" fill="#CBDBED"/>
<rect x="203.25" y="85" width="22" height="3" rx="1.5" fill="#CBDBED"/>
<rect x="206.25" y="92" width="16" height="3" rx="1.5" fill="#CBDBED"/>
<rect x="201.25" y="99" width="26" height="3" rx="1.5" fill="#CBDBED"/>
<rect x="204.25" y="106" width="20" height="3" rx="1.5" fill="#CBDBED"/>
<rect x="196.25" y="113" width="36" height="3" rx="1.5" fill="#CBDBED"/>
<rect x="202.25" y="120" width="24" height="3" rx="1.5" fill="#CBDBED"/>
<rect x="198.75" y="131" width="31" height="8" rx="4" fill="#1062FE"/>
</svg>
