<svg width="262" height="170" viewBox="0 0 262 170" fill="none" xmlns="http://www.w3.org/2000/svg">
<path d="M0 4C0 1.79086 1.79086 0 4 0H258C260.209 0 262 1.79086 262 4V166C262 168.209 260.209 170 258 170H4C1.79087 170 0 168.209 0 166V4Z" fill="white"/>
<rect x="22" y="60" width="218" height="28" rx="4" fill="#E3EFFC"/>
<rect x="198" y="76" width="36" height="8" rx="4" fill="#1062FE"/>
<rect x="28" y="75" width="30" height="3" rx="1.5" fill="#CBDBED"/>
<rect x="28" y="81" width="22" height="3" rx="1.5" fill="#CBDBED"/>
<rect x="71" y="75" width="26" height="3" rx="1.5" fill="#CBDBED"/>
<rect x="71" y="81" width="31" height="3" rx="1.5" fill="#CBDBED"/>
<rect x="115" y="75" width="32" height="3" rx="1.5" fill="#CBDBED"/>
<rect x="115" y="81" width="29" height="3" rx="1.5" fill="#CBDBED"/>
<rect x="28" y="64" width="25" height="4" rx="2" fill="#CBDBED"/>
<rect x="213" y="66" width="21" height="5" rx="2.5" fill="#CBDBED"/>
<rect x="22" y="92" width="218" height="28" rx="4" fill="#E3EFFC"/>
<rect x="198" y="108" width="36" height="8" rx="4" fill="#1062FE"/>
<rect x="28" y="107" width="30" height="3" rx="1.5" fill="#CBDBED"/>
<rect x="28" y="113" width="22" height="3" rx="1.5" fill="#CBDBED"/>
<rect x="71" y="107" width="26" height="3" rx="1.5" fill="#CBDBED"/>
<rect x="71" y="113" width="31" height="3" rx="1.5" fill="#CBDBED"/>
<rect x="115" y="107" width="32" height="3" rx="1.5" fill="#CBDBED"/>
<rect x="115" y="113" width="29" height="3" rx="1.5" fill="#CBDBED"/>
<rect x="28" y="96" width="25" height="4" rx="2" fill="#CBDBED"/>
<rect x="213" y="98" width="21" height="5" rx="2.5" fill="#CBDBED"/>
<rect x="22" y="124" width="218" height="28" rx="4" fill="#E3EFFC"/>
<rect x="198" y="140" width="36" height="8" rx="4" fill="#1062FE"/>
<rect x="28" y="139" width="30" height="3" rx="1.5" fill="#CBDBED"/>
<rect x="28" y="145" width="22" height="3" rx="1.5" fill="#CBDBED"/>
<rect x="71" y="139" width="26" height="3" rx="1.5" fill="#CBDBED"/>
<rect x="71" y="145" width="31" height="3" rx="1.5" fill="#CBDBED"/>
<rect x="115" y="139" width="32" height="3" rx="1.5" fill="#CBDBED"/>
<rect x="115" y="145" width="29" height="3" rx="1.5" fill="#CBDBED"/>
<rect x="28" y="128" width="25" height="4" rx="2" fill="#CBDBED"/>
<rect x="213" y="130" width="21" height="5" rx="2.5" fill="#CBDBED"/>
<rect x="22" y="26" width="37" height="6" rx="3" fill="#E6E8EC"/>
<rect x="22" y="41" width="5" height="4" rx="2" fill="#E6E8EC"/>
<rect x="33" y="41" width="13" height="4" rx="2" fill="#E6E8EC"/>
<rect x="52" y="41" width="13" height="4" rx="2" fill="#E6E8EC"/>
<rect x="71" y="41" width="24" height="4" rx="2" fill="#E6E8EC"/>
<rect x="101" y="41" width="12" height="4" rx="2" fill="#E6E8EC"/>
<rect x="119" y="41" width="11" height="4" rx="2" fill="#E6E8EC"/>
<rect x="136" y="41" width="13" height="4" rx="2" fill="#E6E8EC"/>
<rect x="172" y="25" width="17" height="3" rx="1.5" fill="#E6E8EC"/>
<rect x="191" y="25" width="5" height="3" rx="1.5" fill="#E6E8EC"/>
<rect x="201" y="25" width="17" height="3" rx="1.5" fill="#E6E8EC"/>
<rect x="223" y="25" width="17" height="3" rx="1.5" fill="#E6E8EC"/>
<rect x="224" y="39" width="16" height="6" rx="3" fill="#E6E8EC"/>
</svg>
