<svg width="262" height="170" viewBox="0 0 262 170" fill="none" xmlns="http://www.w3.org/2000/svg">
<path d="M0 4C0 1.79086 1.79086 0 4 0H258C260.209 0 262 1.79086 262 4V166C262 168.209 260.209 170 258 170H4C1.79087 170 0 168.209 0 166V4Z" fill="white"/>
<path d="M181 25C181 22.7909 182.791 21 185 21H236C238.209 21 240 22.7909 240 25V113C240 115.209 238.209 117 236 117H185C182.791 117 181 115.209 181 113V25Z" fill="#E3EFFC"/>
<rect x="185" y="25" width="37" height="6" rx="3" fill="#CBDBED"/>
<rect x="185" y="36" width="27" height="3" rx="1.5" fill="#CBDBED"/>
<rect x="221" y="36" width="14" height="3" rx="1.5" fill="#CBDBED"/>
<rect x="185" y="41" width="12" height="3" rx="1.5" fill="#CBDBED"/>
<rect x="227" y="41" width="8" height="3" rx="1.5" fill="#CBDBED"/>
<rect x="185" y="49" width="11" height="3" rx="1.5" fill="#CBDBED"/>
<rect x="228" y="49" width="7" height="3" rx="1.5" fill="#CBDBED"/>
<rect x="185" y="54" width="18" height="3" rx="1.5" fill="#CBDBED"/>
<rect x="227" y="54" width="8" height="3" rx="1.5" fill="#CBDBED"/>
<rect x="185" y="62" width="12" height="3" rx="1.5" fill="#CBDBED"/>
<rect x="227" y="62" width="8" height="3" rx="1.5" fill="#CBDBED"/>
<rect x="185" y="67" width="11" height="3" rx="1.5" fill="#CBDBED"/>
<rect x="228" y="67" width="7" height="3" rx="1.5" fill="#CBDBED"/>
<rect x="185" y="75" width="37" height="3" rx="1.5" fill="#CBDBED"/>
<rect x="185" y="80" width="21" height="6" rx="3" fill="#CBDBED"/>
<rect x="185" y="91" width="51" height="10" rx="5" fill="#1062FE"/>
<rect x="185" y="106" width="49" height="3" rx="1.5" fill="#CBDBED"/>
<rect x="185" y="110" width="9" height="3" rx="1.5" fill="#CBDBED"/>
<rect x="198.5" y="121" width="24" height="3" rx="1.5" fill="#CBDBED"/>
<rect x="22" y="18" width="37" height="6" rx="3" fill="#CBDBED"/>
<rect x="22.5" y="30.5" width="46" height="66" rx="3.5" stroke="#DCDEE2"/>
<rect x="73" y="30" width="47" height="67" rx="4" fill="#E3EFFC"/>
<rect x="82" y="84" width="29" height="8" rx="4" fill="#1062FE"/>
<path d="M112 30H116C118.209 30 120 31.7909 120 34V38H114C112.895 38 112 37.1046 112 36V30Z" fill="#1062FE"/>
<rect x="124.5" y="30.5" width="46" height="66" rx="3.5" stroke="#DCDEE2"/>
<rect x="22" y="105" width="37" height="6" rx="3" fill="#CBDBED"/>
<path d="M22 121C22 118.791 23.7909 117 26 117H53C55.2091 117 57 118.791 57 121V148C57 150.209 55.2091 152 53 152H26C23.7909 152 22 150.209 22 148V121Z" fill="#E3EFFC"/>
<path d="M49 117H53C55.2091 117 57 118.791 57 121V125H51C49.8954 125 49 124.105 49 123V117Z" fill="#1062FE"/>
<path d="M60.5 121C60.5 119.067 62.067 117.5 64 117.5H91C92.933 117.5 94.5 119.067 94.5 121V148C94.5 149.933 92.933 151.5 91 151.5H64C62.067 151.5 60.5 149.933 60.5 148V121Z" stroke="#DCDEE2"/>
<path d="M98.5 121C98.5 119.067 100.067 117.5 102 117.5H129C130.933 117.5 132.5 119.067 132.5 121V148C132.5 149.933 130.933 151.5 129 151.5H102C100.067 151.5 98.5 149.933 98.5 148V121Z" stroke="#DCDEE2"/>
<path d="M136.5 121C136.5 119.067 138.067 117.5 140 117.5H167C168.933 117.5 170.5 119.067 170.5 121V148C170.5 149.933 168.933 151.5 167 151.5H140C138.067 151.5 136.5 149.933 136.5 148V121Z" stroke="#DCDEE2"/>
</svg>
