<svg width="262" height="170" viewBox="0 0 262 170" fill="none" xmlns="http://www.w3.org/2000/svg">
<g clip-path="url(#clip0)">
<path d="M0 4C0 1.79086 1.79086 0 4 0H258C260.209 0 262 1.79086 262 4V166C262 168.209 260.209 170 258 170H4C1.79087 170 0 168.209 0 166V4Z" fill="white"/>
<mask id="mask0" mask-type="alpha" maskUnits="userSpaceOnUse" x="0" y="0" width="155" height="170">
<path d="M107 170L155 0H0V170H107Z" fill="black"/>
</mask>
<g mask="url(#mask0)">
<rect x="22.5" y="62.5" width="50" height="83" rx="3.5" stroke="#DCDEE2"/>
<rect x="134.5" y="62.5" width="49" height="83" rx="3.5" stroke="#DCDEE2"/>
<rect x="78" y="62" width="51" height="84" rx="4" fill="#E3EFFC"/>
<rect x="93" y="86" width="22" height="3" rx="1.5" fill="#CBDBED"/>
<rect x="96" y="93" width="16" height="3" rx="1.5" fill="#CBDBED"/>
<rect x="91" y="100" width="26" height="3" rx="1.5" fill="#CBDBED"/>
<rect x="94" y="107" width="20" height="3" rx="1.5" fill="#CBDBED"/>
<rect x="86" y="114" width="36" height="3" rx="1.5" fill="#CBDBED"/>
<rect x="92" y="121" width="24" height="3" rx="1.5" fill="#CBDBED"/>
<rect x="88" y="132" width="31" height="8" rx="4" fill="#1062FE"/>
<path d="M121 62H125C127.209 62 129 63.7909 129 66V70H123C121.895 70 121 69.1046 121 68V62Z" fill="#1062FE"/>
<rect x="91" y="73" width="25" height="5" rx="2.5" fill="#CBDBED"/>
<rect x="22" y="25" width="37" height="6" rx="3" fill="#CBDBED"/>
<rect x="22" y="41" width="5" height="4" rx="2" fill="#CBDBED"/>
<rect x="33" y="41" width="13" height="4" rx="2" fill="#CED3DB"/>
<rect x="52" y="41" width="13" height="4" rx="2" fill="#CED3DB"/>
<rect x="71" y="41" width="24" height="4" rx="2" fill="#CED3DB"/>
<rect x="101" y="41" width="12" height="4" rx="2" fill="#CED3DB"/>
<rect x="119" y="41" width="11" height="4" rx="2" fill="#CED3DB"/>
<rect x="136" y="41" width="13" height="4" rx="2" fill="#CED3DB"/>
</g>
<mask id="mask1" mask-type="alpha" maskUnits="userSpaceOnUse" x="107" y="0" width="155" height="170">
<path d="M155 -9.35424e-06L107 170L262 170L262 0L155 -9.35424e-06Z" fill="black"/>
</mask>
<g mask="url(#mask1)">
<path d="M22 51C22 48.7909 23.7909 47 26 47H167C169.209 47 171 48.7909 171 51V78C171 80.2091 169.209 82 167 82H26C23.7909 82 22 80.2091 22 78V51Z" fill="#1062FE"/>
<rect x="28" y="52" width="137" height="13" rx="5" fill="white"/>
<rect x="138" y="54" width="24" height="9" rx="4" fill="#1062FE"/>
<path d="M181 22C181 19.7909 182.791 18 185 18H236C238.209 18 240 19.7909 240 22V110C240 112.209 238.209 114 236 114H185C182.791 114 181 112.209 181 110V22Z" fill="#E3EFFC"/>
<rect x="185" y="22" width="37" height="6" rx="3" fill="#CBDBED"/>
<rect x="185" y="33" width="27" height="3" rx="1.5" fill="#CBDBED"/>
<rect x="221" y="33" width="14" height="3" rx="1.5" fill="#CBDBED"/>
<rect x="185" y="38" width="12" height="3" rx="1.5" fill="#CBDBED"/>
<rect x="227" y="38" width="8" height="3" rx="1.5" fill="#CBDBED"/>
<rect x="185" y="46" width="11" height="3" rx="1.5" fill="#CBDBED"/>
<rect x="228" y="46" width="7" height="3" rx="1.5" fill="#CBDBED"/>
<rect x="185" y="51" width="18" height="3" rx="1.5" fill="#CBDBED"/>
<rect x="227" y="51" width="8" height="3" rx="1.5" fill="#CBDBED"/>
<rect x="185" y="59" width="12" height="3" rx="1.5" fill="#CBDBED"/>
<rect x="227" y="59" width="8" height="3" rx="1.5" fill="#CBDBED"/>
<rect x="185" y="64" width="11" height="3" rx="1.5" fill="#CBDBED"/>
<rect x="228" y="64" width="7" height="3" rx="1.5" fill="#CBDBED"/>
<rect x="185" y="72" width="37" height="3" rx="1.5" fill="#CBDBED"/>
<rect x="185" y="77" width="21" height="6" rx="3" fill="#CBDBED"/>
<rect x="185" y="88" width="51" height="10" rx="5" fill="#1062FE"/>
<rect x="185" y="103" width="49" height="3" rx="1.5" fill="#CBDBED"/>
<rect x="185" y="107" width="9" height="3" rx="1.5" fill="#CBDBED"/>
<rect x="198.5" y="118" width="24" height="3" rx="1.5" fill="#CBDBED"/>
<path d="M98.5 112C98.5 110.067 100.067 108.5 102 108.5H129C130.933 108.5 132.5 110.067 132.5 112V139C132.5 140.933 130.933 142.5 129 142.5H102C100.067 142.5 98.5 140.933 98.5 139V112Z" stroke="#DCDEE2"/>
<path d="M136.5 112C136.5 110.067 138.067 108.5 140 108.5H167C168.933 108.5 170.5 110.067 170.5 112V139C170.5 140.933 168.933 142.5 167 142.5H140C138.067 142.5 136.5 140.933 136.5 139V112Z" stroke="#DCDEE2"/>
</g>
</g>
<defs>
<clipPath id="clip0">
<path d="M0 4C0 1.79086 1.79086 0 4 0H258C260.209 0 262 1.79086 262 4V166C262 168.209 260.209 170 258 170H4C1.79087 170 0 168.209 0 166V4Z" fill="white"/>
</clipPath>
</defs>
</svg>
