<svg width="48" height="48" viewBox="0 0 48 48" fill="none" xmlns="http://www.w3.org/2000/svg">
<rect width="48" height="48" fill="white"/>
<g clip-path="url(#clip0_303_914)">
<path d="M40.6764 -14.151V21.8768L-20.7899 -14.151H40.6764Z" fill="#019BFF"/>
<path d="M55.9465 12.1047L40.6761 21.8768V-14.151H55.9465V12.1047Z" fill="url(#paint0_linear_303_914)"/>
<path d="M56.0001 30.2209L40.6967 21.9085L56.0001 12.1279V30.2209Z" fill="url(#paint1_linear_303_914)" fill-opacity="0.1"/>
<path d="M-8.90499 32.6553L8.61356 43.7793L9.1496 42.9351L-8.36894 31.8111L-8.90499 32.6553ZM8.65142 46.287L-3.17737 54.3091L-2.61608 55.1368L9.2127 47.1146L8.65142 46.287ZM8.61356 43.7793C9.52494 44.358 9.54492 45.681 8.65142 46.287L9.2127 47.1146C10.7019 46.1047 10.6686 43.8996 9.1496 42.9351L8.61356 43.7793Z" fill="#1062FE"/>
<path d="M5.04928 44.0883L10.2618 46.8086L7.07938 48.3077L1.8611 45.5858L5.04928 44.0883Z" fill="url(#paint2_linear_303_914)" fill-opacity="0.1"/>
<path d="M6.56623 44.9249C6.56623 44.9906 6.47688 45.4509 5.88719 45.7534C4.91291 46.2532 3.33341 46.3453 2.35914 45.8455C1.91628 45.6219 1.54724 45.1879 1.54724 45.0564V41.6369C1.59153 41.3476 1.82771 41.0582 2.27057 40.8346C3.24484 40.348 4.83911 40.348 5.82814 40.8346C6.27099 41.0582 6.52194 41.3476 6.55147 41.6369H6.56623V44.9249Z" fill="#D1D3D5"/>
<path d="M2.28541 40.7556C3.25969 40.2559 4.85395 40.2559 5.84299 40.7556C6.83202 41.2554 6.81726 42.0708 5.84299 42.5706C4.86871 43.0704 3.27445 43.0704 2.30017 42.5706C1.29638 42.0708 1.29638 41.2554 2.28541 40.7556Z" fill="#EFF0F3"/>
<path d="M2.59504 40.9396C3.40694 40.545 4.70597 40.545 5.51786 40.9396C6.32976 41.3341 6.32976 41.9786 5.51786 42.3731C4.70597 42.7677 3.40694 42.7677 2.59504 42.3731C1.79791 41.9917 1.79791 41.3473 2.59504 40.9396Z" fill="#1F5C3A"/>
<path d="M2.99389 41.3607C2.99389 41.3607 1.20772 40.4138 1.70962 39.5852C2.31485 38.5725 2.34438 38.783 1.70962 37.5467C1.28153 36.705 1.82772 35.8369 2.50676 35.5081C3.71722 34.9163 3.0677 35.7843 2.84628 36.5603C2.62485 37.3625 3.36294 37.2968 3.40722 38.3358C3.45151 39.4142 4.05674 39.3879 3.98293 40.0455C3.93864 40.6242 3.55484 41.1108 2.99389 41.3607Z" fill="#5BD682"/>
<path d="M4.16022 41.5448C4.16022 41.5448 3.40737 39.8219 4.35212 39.4405C5.53306 38.9671 4.67688 38.7698 5.60687 37.6913C6.31543 36.8891 7.14209 37.1127 7.43733 36.4945C7.80637 35.7186 8.39684 37.6782 7.54066 37.9938C6.50734 38.3884 6.81733 38.5988 6.19734 39.48C5.57735 40.3612 6.33019 40.5585 5.81353 41.0582C5.41497 41.4791 4.78021 41.6632 4.16022 41.5448Z" fill="#35B65E"/>
<path d="M3.98342 42.1496C2.96486 42.1496 2.58105 40.8476 2.89105 39.585C3.18628 38.4013 4.2196 38.4145 4.27865 37.3755C4.35246 35.9814 6.7291 38.638 5.65149 39.3088C4.60341 39.9664 6.02053 40.4662 5.47435 41.0843C5.20864 41.3736 5.40054 42.1496 3.98342 42.1496Z" fill="#31854C"/>
</g>
<rect x="10" y="11" width="27" height="24" rx="2" fill="white" stroke="#1062FE" stroke-width="2" stroke-linejoin="round"/>
<path d="M14.5 15.5H18.0001" stroke="#1062FE" stroke-linecap="round" stroke-linejoin="round"/>
<path d="M14.5 24.5H18.0001" stroke="#1062FE" stroke-linecap="round" stroke-linejoin="round"/>
<rect x="14" y="17" width="9" height="4" rx="1" fill="#DCDEE2"/>
<rect x="14" y="26" width="9" height="4" rx="1" fill="#DCDEE2"/>
<rect width="8" height="11" rx="1" transform="matrix(-1 0 0 1 33 15)" fill="#C6D9FF"/>
<path d="M27.5 23.5H30.5" stroke="#1265FF" stroke-linecap="round" stroke-linejoin="round"/>
<path d="M37.4424 39.1869C37.3527 39.6587 36.9402 40 36.46 40H24.54C24.0597 40 23.6473 39.6587 23.5576 39.1869L22.2258 32.1869C22.1086 31.5707 22.581 31 23.2082 31H37.7918C38.419 31 38.8914 31.5707 38.7742 32.1869L37.4424 39.1869Z" fill="#1062FE"/>
<path d="M29.2068 37.3142L30.8497 38.2823C30.8606 38.2888 30.872 38.2944 30.8838 38.299C30.9383 38.3221 30.9968 38.3337 31.0559 38.3333C31.1277 38.3346 31.1987 38.317 31.2621 38.2823L32.9044 37.3142C32.9325 37.3033 32.9567 37.284 32.9738 37.2588C32.9909 37.2336 33 37.2036 33 37.173C33 37.1423 32.9909 37.1124 32.9738 37.0872C32.9567 37.062 32.9325 37.0426 32.9044 37.0318L31.6315 36.2813C31.6042 36.2655 31.5733 36.2571 31.5419 36.257C31.4999 36.2568 31.4591 36.2718 31.4268 36.2993C31.3946 36.3269 31.3729 36.3652 31.3656 36.4075L31.089 37.9828V34.3636C31.0867 34.2903 31.0661 34.2189 31.0293 34.156C30.9945 34.0919 30.944 34.0381 30.8828 33.9998L29.24 33.0307C29.2159 33.0133 29.1877 33.0029 29.1583 33.0005C29.1289 32.9982 29.0994 33.004 29.073 33.0174C29.0484 33.0342 29.0288 33.0574 29.016 33.0846C29.0033 33.1119 28.998 33.1421 29.0007 33.1721V36.9494C29.0029 37.0229 29.0236 37.0946 29.0608 37.1575C29.0956 37.2216 29.1459 37.2756 29.2068 37.3142Z" fill="white"/>
<path d="M25.5 31.5L27.3672 27.5H33.4629L35.5 31.5" stroke="#1062FE" stroke-linecap="round" stroke-linejoin="round"/>
<defs>
<linearGradient id="paint0_linear_303_914" x1="40.6761" y1="3.81786" x2="55.9465" y2="3.81786" gradientUnits="userSpaceOnUse">
<stop stop-color="#1062FE"/>
<stop offset="1" stop-color="#009AFF"/>
</linearGradient>
<linearGradient id="paint1_linear_303_914" x1="40.997" y1="21.9416" x2="47.2858" y2="30.3663" gradientUnits="userSpaceOnUse">
<stop stop-color="#2B2D2F"/>
<stop offset="1" stop-color="#1B1D1F" stop-opacity="0"/>
</linearGradient>
<linearGradient id="paint2_linear_303_914" x1="2.37403" y1="45.8475" x2="5.11131" y2="51.2799" gradientUnits="userSpaceOnUse">
<stop/>
<stop offset="0.671875" stop-opacity="0"/>
</linearGradient>
<clipPath id="clip0_303_914">
<rect width="48" height="48" fill="white"/>
</clipPath>
</defs>
</svg>
