<svg width="72" height="72" viewBox="0 0 72 72" fill="none" xmlns="http://www.w3.org/2000/svg">
<path d="M18.648 36.144L17.64 35.136C14.4 31.896 13.464 27.36 14.616 23.256C11.376 22.536 9.00002 19.656 9.00002 16.2C9.00002 12.24 12.24 9 16.2 9C19.8 9 22.752 11.592 23.328 15.048C27.216 14.112 31.464 15.192 34.488 18.216L34.92 18.648L29.592 23.976L29.16 23.544C27.432 21.816 24.624 21.816 22.896 23.544C21.168 25.272 21.168 28.08 22.896 29.808L34.848 41.76L29.52 47.088L23.904 41.472L18.648 36.144Z" fill="#7AC143"/>
<path d="M24.6251 30.2396L36.5771 18.2876C39.7451 15.1196 44.3531 14.1116 48.3851 15.2636C48.8891 11.7356 51.9131 9.07159 55.5131 9.07159C59.4731 9.07159 62.7131 12.3116 62.7131 16.2716C62.7131 19.9436 59.9771 22.9676 56.4491 23.3996C57.6011 27.4316 56.5931 31.9676 53.4251 35.1356L52.9931 35.5676L47.8091 30.2396L48.2411 29.8076C49.9691 28.0796 49.9691 25.2716 48.2411 23.5436C46.5131 21.8156 43.7051 21.8156 41.9771 23.5436L30.0251 35.4956L24.6251 30.2396Z" fill="#F9A541"/>
<path d="M48.5999 57.0951C44.4959 58.3191 39.888 57.3831 36.648 54.1431L36.216 53.7111L41.544 48.3831L41.976 48.8151C43.704 50.5431 46.5119 50.5431 48.2399 48.8151C49.9679 47.0871 49.9679 44.2791 48.2399 42.5511L36.288 30.5991L41.616 25.2711L53.6399 37.2951C56.6639 40.3191 57.7439 44.6391 56.8079 48.5991C60.3359 49.1031 62.9999 52.1271 62.9999 55.7271C62.9999 59.6871 59.7599 62.9271 55.7999 62.9271C52.1999 62.8551 49.2479 60.3351 48.5999 57.0951Z" fill="#F44321"/>
<path d="M46.512 42.1215L34.56 54.0735C31.464 57.1695 27.144 58.1775 23.256 57.2415C22.536 60.4815 19.656 62.8575 16.2 62.8575C12.24 62.8575 9.00002 59.6175 9.00002 55.6575C9.00002 52.2735 11.376 49.3935 14.544 48.6735C13.536 44.6415 14.544 40.3215 17.64 37.2255L18.072 36.7935L23.4 42.1215L22.968 42.5535C21.24 44.2815 21.24 47.0895 22.968 48.8175C24.696 50.5455 27.504 50.5455 29.232 48.8175L41.184 36.8655L46.512 42.1215Z" fill="#5091CD"/>
</svg>
