<svg width="72" height="72" viewBox="0 0 72 72" fill="none" xmlns="http://www.w3.org/2000/svg">
<path d="M34.3061 21.9834C33.2252 22.106 32.2206 22.4756 31.2276 22.9002C30.9384 23.0325 30.626 23.1065 30.3083 23.1179C24.6288 23.1315 18.9493 23.1348 13.2698 23.1277H12.6487C12.7374 22.5315 12.8199 21.9727 12.9149 21.4246C13.1891 19.8414 13.4722 18.26 13.749 16.6769C13.9011 15.8145 14.049 14.9513 14.1928 14.0872C14.2442 13.7807 14.4359 13.6714 14.7252 13.6243C15.9348 13.4271 17.1425 13.2147 18.3503 13.0024C19.5146 12.799 20.6771 12.5893 21.8414 12.3805C23.0483 12.1673 24.2558 11.9553 25.4638 11.7444C26.8136 11.509 28.1651 11.2771 29.5149 11.0399C30.8647 10.8027 32.1887 10.5628 33.5251 10.3229L38.4042 9.44607C41.0179 8.9764 43.6316 8.50643 46.2454 8.03616C47.8685 7.74298 49.488 7.43204 51.1138 7.14774C53.2711 6.7755 55.4328 6.42457 57.5919 6.06299C57.7445 6.03723 57.8963 6.0008 58.1004 5.95905L51.6222 30.1444C51.0401 29.2728 50.5307 28.428 49.9361 27.6453C49.0283 26.4336 47.9295 25.378 46.6829 24.5198C45.6978 23.8384 44.6782 23.2289 43.568 22.7723C42.4206 22.3032 41.2519 21.867 40.0104 21.7622C38.7689 21.6573 37.5256 21.6573 36.2832 21.6191C36.1732 21.6191 36.0614 21.6733 35.9496 21.7018V16.8954L35.8227 16.8839C35.3174 18.5843 34.8119 20.2841 34.3061 21.9834Z" fill="#51DFC8"/>
<path d="M12.439 25.5586H27.2432C27.0731 25.7353 26.9671 25.8617 26.8459 25.9713C25.5486 27.1613 24.4779 28.5734 23.6852 30.1399C22.7959 31.8523 22.2412 33.7162 22.0504 35.6332C21.8503 37.5186 21.9921 39.4242 22.4691 41.26C22.5315 41.4942 22.4504 41.7832 22.38 42.0324C21.6389 44.7932 20.8852 47.5513 20.1378 50.3104L16.9307 62.1525C16.7109 62.9767 16.4906 63.7992 16.2697 64.6199C15.9053 64.649 15.5392 64.6588 15.1784 64.7083C14.5031 64.809 13.8314 64.9354 13.1579 65.0511C12.3989 65.1395 11.6434 65.2279 10.88 65.3163C9.97486 65.4258 9.07153 65.5443 8.16642 65.653C7.17846 65.7714 6.18872 65.8845 5.14285 66.0065C5.27648 65.2862 5.41011 64.6049 5.52948 63.9226C5.87692 61.969 6.22287 60.0144 6.56733 58.059C6.58782 57.9441 6.62257 57.831 6.65018 57.7179C6.68535 57.6732 6.7133 57.6234 6.73303 57.5703C6.9112 56.6265 7.08938 55.6844 7.25062 54.7379C7.39049 53.9063 7.50362 53.0694 7.62834 52.2352L7.71743 52.1468L8.43012 48.0816L8.96463 45.1652C8.96541 45.0766 8.97166 44.988 8.98334 44.9001C9.27198 43.3388 9.56269 41.7776 9.85549 40.2163C9.93151 39.745 10.0069 39.2736 10.0818 38.8023C10.2148 37.9722 10.3466 37.1424 10.4773 36.3128C10.4738 36.2915 10.4738 36.2697 10.4773 36.2483C10.5367 35.9184 10.5961 35.589 10.6555 35.2603L11.0118 33.1481C11.1312 32.6126 11.2639 32.0788 11.3682 31.5406C11.4501 31.1102 11.4938 30.6719 11.5535 30.238L11.7316 28.9928C11.7904 28.8859 11.8813 28.7834 11.9018 28.6694C12.0871 27.6407 12.2608 26.6014 12.439 25.5586Z" fill="#C6E7F6"/>
<path d="M40.9577 52.3311C41.3318 52.2499 41.7236 52.2164 42.0755 52.0795C43.1418 51.6637 44.192 51.2064 45.2503 50.7703C45.3783 50.7082 45.517 50.671 45.6591 50.6609C50.6942 50.6556 55.7277 50.6556 60.7593 50.6609C60.8321 50.6609 60.9041 50.6688 61.0187 50.6759L59.9525 59.316L18.4859 64.3374C20.2471 57.8046 21.9958 51.3177 23.7702 44.739C24.1558 45.3384 24.458 45.8592 24.8107 46.343C25.1857 46.8795 25.6016 47.3865 26.0547 47.8597C26.6422 48.446 27.2673 48.9939 27.926 49.5C28.9221 50.2662 29.9777 50.9513 31.1719 51.3883C32.1023 51.7291 33.0219 52.1175 33.978 52.3673C34.7457 52.5677 35.5579 52.6322 36.3549 52.6825C37.1751 52.7319 38.0014 52.6887 38.8251 52.6825C38.8814 54.1568 38.938 55.6308 38.9948 57.1045H39.0739C39.674 55.5361 40.2735 53.9673 40.8724 52.3982L40.9683 52.3179L40.9577 52.3311Z" fill="#51DFC8"/>
<path d="M64.6071 23.1491V23.3308C64.6088 23.3541 64.6088 23.3775 64.6071 23.4008C64.6017 23.4965 64.5973 23.5931 64.5928 23.6889C64.5376 23.8147 64.4511 23.9361 64.4333 24.0673C64.2836 25.1982 64.1366 26.3301 64.0092 27.4637C63.9486 27.9999 63.9308 28.5405 63.8943 29.0785C63.8943 29.1725 63.8872 29.2664 63.8845 29.3604C63.7687 30.0233 63.6466 30.6854 63.5424 31.3501C63.5281 31.5404 63.5281 31.7315 63.5424 31.9218C63.5424 32.0725 63.5343 32.2231 63.5308 32.3738C63.4755 32.5192 63.39 32.6601 63.3686 32.8099C63.2475 33.6581 63.1299 34.5072 63.0336 35.358C62.9757 35.8668 62.9597 36.3808 62.9249 36.8922C62.9276 36.9179 62.9276 36.9437 62.9249 36.9693C62.894 37.2335 62.8644 37.4976 62.8358 37.7617L62.8251 38.2226C62.769 38.3538 62.6799 38.4805 62.663 38.617C62.4688 40.0776 62.2906 41.5409 62.1124 43.0025C62.0331 43.6087 61.9413 44.2132 61.8772 44.8212C61.8228 45.3352 61.7988 45.8528 61.7613 46.3687C61.7244 46.4732 61.6946 46.5801 61.6723 46.6886C61.5832 47.2887 61.4941 47.8905 61.405 48.4923H48.9262C49.0356 48.3274 49.1546 48.1691 49.2826 48.0181C51.51 45.7004 52.809 42.9165 53.3561 39.7843C53.6739 37.9536 53.634 36.0791 53.2385 34.2634C53.1895 34.0339 53.2447 33.7653 53.3079 33.5305C54.7608 28.1062 56.219 22.6838 57.6825 17.2631C58.6573 13.6434 59.6326 10.024 60.6084 6.4049C60.7929 5.72155 60.8187 5.71623 61.5056 5.60013C63.1094 5.33423 64.6997 5.03998 66.2972 4.76167C66.4522 4.7342 66.6108 4.73154 66.8567 4.7085C66.7819 5.38564 66.7195 6.00606 66.6429 6.62559C66.5333 7.5119 66.413 8.39821 66.2999 9.28452C66.1841 10.1859 66.0682 11.0873 65.9595 11.9887C65.9346 12.1934 65.9399 12.4017 65.931 12.6091C65.8758 12.7695 65.7894 12.9273 65.7689 13.0921C65.6628 13.966 65.5818 14.8417 65.4775 15.7156C65.343 16.835 65.1933 17.9526 65.0508 19.0712C64.9474 19.8689 64.8334 20.6665 64.7434 21.4642C64.6828 22.0252 64.6525 22.5889 64.6071 23.1491Z" fill="#C6E7F6"/>
<path d="M40.7359 52.5037C40.1373 54.0851 39.538 55.6669 38.9382 57.2489H38.8591C38.7999 55.7624 38.7433 54.2762 38.6895 52.7903L38.5242 49.1684V48.9904L38.4354 44.8682C38.407 43.6274 38.3795 42.3866 38.3377 41.1467C38.3235 40.739 38.2658 40.3322 38.2223 39.8667L28.911 39.6753L34.14 21.9076C34.6457 20.2051 35.1514 18.5029 35.6571 16.801L35.7841 16.8126V21.6308C35.7788 24.0769 35.7731 26.5226 35.7672 28.9681C35.7637 31.1316 35.7619 33.2958 35.7619 35.4606V35.8611H46.8415C46.5618 36.6293 46.3086 37.3307 46.051 38.0312C44.4327 42.4278 42.8141 46.8244 41.1951 51.221C41.0503 51.6153 40.9482 52.0221 40.8256 52.428H40.8327L40.7359 52.5037Z" fill="#FDD02A"/>
<path d="M64.7716 18.8861C64.9067 17.8035 65.0485 16.7217 65.176 15.6382C65.2747 14.7923 65.3515 13.9447 65.452 13.0988C65.4714 12.9393 65.5533 12.7866 65.6056 12.6313C65.461 13.9198 65.3169 15.2081 65.1734 16.4961C65.0963 17.1703 65.0164 17.8438 64.9337 18.5164C64.9185 18.6408 64.8814 18.7626 64.8544 18.8861H64.7716Z" fill="#C2D6E0"/>
<path d="M63.5211 28.894C63.5647 28.3529 63.586 27.8091 63.6583 27.2698C63.8104 26.1296 63.986 24.9913 64.1647 23.8538C64.1859 23.7219 64.2891 23.5997 64.3551 23.4731C64.1647 24.8344 63.9806 26.1965 63.7817 27.5568C63.7158 28.0097 63.6094 28.4483 63.5211 28.894Z" fill="#C3D6DF"/>
<path d="M7.64547 52.2448C7.53933 53.0701 7.44304 53.8981 7.32401 54.7209C7.1883 55.6573 7.03288 56.5893 6.88352 57.5231C6.86598 57.5746 6.84168 57.6226 6.81149 57.6656C6.91536 56.8114 7.00407 55.9537 7.12765 55.1029C7.25729 54.2085 7.41878 53.3202 7.56965 52.4301C7.58894 52.3653 7.61437 52.3031 7.64547 52.2448Z" fill="#C5D8E2"/>
<path d="M9.72973 40.1531C9.48206 41.7314 9.23465 43.3098 8.98749 44.8881C8.97755 44.9769 8.97223 45.0664 8.97157 45.1561H8.89575C8.99735 44.3672 9.0906 43.5775 9.19902 42.7913C9.31577 41.9747 9.44845 41.1617 9.5781 40.3479C9.59708 40.2795 9.62251 40.2139 9.65391 40.1522L9.72973 40.1531Z" fill="#C4D7E0"/>
<path d="M62.2705 43.0718C62.3764 41.5413 62.4822 40.0088 62.5912 38.481C62.6013 38.3381 62.6542 38.2026 62.6875 38.068C62.5662 39.7387 62.4452 41.4067 62.3245 43.0718H62.2705Z" fill="#C2D5DF"/>
<path d="M63.1042 36.8165C63.1281 36.2974 63.1392 35.7755 63.179 35.259C63.2453 34.3953 63.3262 33.5333 63.4096 32.6723C63.4243 32.5202 63.4832 32.3772 63.5212 32.2296C63.4599 33.0394 63.3986 33.8563 63.3293 34.6679C63.2772 35.3031 63.2195 35.9366 63.1606 36.57C63.1471 36.6545 63.1282 36.7371 63.1042 36.8165Z" fill="#C0D5DF"/>
<path d="M8.47918 48.0768L7.73787 52.2449H7.6452C7.75084 51.5082 7.83887 50.768 7.96767 50.0349C8.08258 49.378 8.24567 48.7274 8.38466 48.075L8.47918 48.0768Z" fill="#C4D7E0"/>
<path d="M64.7019 18.8865H64.7718C64.6935 19.779 64.6216 20.6725 64.5357 21.5632C64.4868 22.0624 64.4156 22.5599 64.3548 23.0564C64.3897 22.482 64.4135 21.9057 64.4624 21.3348C64.5315 20.5175 64.6209 19.702 64.7019 18.8865Z" fill="#C2D5E0"/>
<path d="M9.83384 40.1522H9.72946C9.92047 39.1686 10.1052 38.1849 10.3088 37.2038C10.3651 36.9311 10.4768 36.6669 10.5634 36.3994C10.409 37.1961 10.2545 37.9935 10.1 38.7914C10.0095 39.2456 9.92082 39.6992 9.83384 40.1522Z" fill="#C4D7E1"/>
<path d="M12.232 25.5586C12.1265 26.5669 12.0242 27.5744 11.9156 28.581C11.9035 28.6915 11.8498 28.7908 11.815 28.8945C11.9251 27.8305 12.0337 26.7657 12.1481 25.7025C12.1518 25.6511 12.2019 25.6091 12.232 25.5586Z" fill="#C5D7E1"/>
<path d="M62.1854 43.0714H62.2695L61.9029 46.4073H61.8524C61.8878 45.8964 61.9105 45.3837 61.9617 44.8746C62.024 44.2706 62.1106 43.6719 62.1854 43.0714Z" fill="#C2D5DF"/>
<path d="M8.53847 48.0747H8.4789L8.83632 45.1558H8.89589L8.53847 48.0747Z" fill="#C2D6DF"/>
<path d="M13.0656 65.1712C13.6974 65.0592 14.3274 64.937 14.9609 64.8396C15.2951 64.7875 15.6428 64.7781 15.9845 64.7542C15.722 64.8339 15.4553 64.8984 15.1857 64.9473C14.4862 65.0336 13.7759 65.0968 13.0656 65.1712Z" fill="#C3D6E0"/>
<path d="M11.3982 30.1441C11.3523 30.5793 11.3187 31.019 11.2556 31.4507C11.1774 31.9905 11.0752 32.5259 10.9812 33.063C11.1212 32.0898 11.2602 31.1168 11.3982 30.1441Z" fill="#C4D7E0"/>
<path d="M63.5337 31.8123C63.5169 31.6264 63.5169 31.4398 63.5337 31.2539C63.6569 30.6046 63.8012 29.9553 63.9381 29.3104C63.8047 30.1443 63.6699 30.9783 63.5337 31.8123Z" fill="#C1D5DF"/>
<path d="M61.3814 46.4076H61.4357C61.3552 47.0347 61.2792 47.6627 61.1879 48.289C61.177 48.3629 61.0766 48.4247 61.0187 48.4925C61.1092 47.9019 61.1933 47.3113 61.2901 46.7225C61.313 46.6156 61.3436 46.5104 61.3814 46.4076Z" fill="#C6D8E1"/>
<path d="M62.6874 37.6501C62.8292 37.3721 62.9682 37.0942 63.1044 36.8162C62.9709 37.0942 62.8319 37.3721 62.6874 37.6501Z" fill="#C0D5DF"/>
</svg>
