<svg width="72" height="72" viewBox="0 0 72 72" fill="none" xmlns="http://www.w3.org/2000/svg">
<g clip-path="url(#clip0_201_78)">
<path d="M46.0102 18.2877C41.5238 13.9472 37.2433 9.80946 35.9694 5.14288C34.6954 9.80946 30.4143 13.9472 25.9286 18.2877C19.2002 24.7964 11.5714 32.173 11.5714 43.2366C11.5704 46.3386 12.2007 49.4104 13.4264 52.2766C14.6521 55.1427 16.4491 57.7471 18.7148 59.9409C20.9806 62.1347 23.6706 63.875 26.6313 65.0623C29.592 66.2496 32.7654 66.8608 35.9701 66.8608C39.1749 66.8608 42.3482 66.2496 45.3089 65.0623C48.2696 63.875 50.9597 62.1347 53.2254 59.9409C55.4911 57.7471 57.2882 55.1427 58.5138 52.2766C59.7395 49.4104 60.3698 46.3386 60.3688 43.2366C60.3688 32.1737 52.7407 24.7963 46.0102 18.2877V18.2877ZM21.9416 48.7396C20.4456 48.6904 14.9244 39.4789 25.1672 29.671L31.9452 36.8375C32.0034 36.8931 32.0487 36.96 32.0783 37.0338C32.1078 37.1077 32.1209 37.1867 32.1166 37.2657C32.1123 37.3448 32.0908 37.4221 32.0535 37.4925C32.0161 37.5629 31.9638 37.6249 31.8999 37.6743C30.2825 39.28 23.3887 45.9715 22.5319 48.2852C22.355 48.7628 22.0967 48.7447 21.9416 48.7396H21.9416ZM35.9701 60.8801C34.8682 60.8801 33.777 60.67 32.7589 60.2618C31.7408 59.8536 30.8158 59.2554 30.0366 58.5011C29.2574 57.7469 28.6393 56.8515 28.2176 55.8661C27.7959 54.8806 27.5788 53.8244 27.5788 52.7578C27.6098 50.7883 28.3495 48.8911 29.6703 47.3928C31.1834 45.6019 35.969 40.5649 35.969 40.5649C35.969 40.5649 40.6814 45.6758 42.2564 47.3757C43.6285 48.8519 44.3795 50.7721 44.3615 52.7578C44.3615 54.9119 43.4774 56.9779 41.9037 58.5011C40.33 60.0243 38.1957 60.8801 35.9701 60.8801ZM52.0311 47.7086C51.8503 48.0914 51.44 48.7306 50.8863 48.7501C49.8992 48.7849 49.7938 48.2953 49.0642 47.2503C47.4626 44.956 33.4848 30.816 30.8704 28.0813C28.5707 25.676 30.5465 23.9803 31.463 23.0917C32.6129 21.9767 35.9693 18.7299 35.9693 18.7299C35.9693 18.7299 45.9772 27.921 50.1461 34.201C54.315 40.4811 52.8783 45.9153 52.0311 47.7086" fill="#009CDE"/>
</g>
<defs>
<clipPath id="clip0_201_78">
<rect width="48.7973" height="61.7143" fill="white" transform="translate(11.5714 5.14288)"/>
</clipPath>
</defs>
</svg>
