<svg width="72" height="72" viewBox="0 0 72 72" fill="none" xmlns="http://www.w3.org/2000/svg">
<g clip-path="url(#clip0_201_3)">
<path d="M52.5931 19.0008C50.8808 17.8611 43.802 13.431 34.4395 14.9441C32.1703 15.3103 24.7181 16.6378 19.4834 23.4361C17.6165 25.861 13.9002 31.7496 15.0482 39.1832C16.7542 50.2425 27.7113 54.9263 29.2472 55.5833C31.8712 56.7055 37.2203 58.4353 43.6875 57.0614C47.2213 56.3021 50.5365 54.7503 53.3832 52.523C51.9216 53.3306 44.0722 57.474 34.9552 54.4828C34.061 54.1909 21.8774 49.9712 20.3426 38.6335C19.0905 29.3834 25.9383 22.8523 26.8748 21.992C33.5215 15.8642 41.9206 16.5511 44.1351 16.7316C47.0671 16.9781 49.9315 17.7466 52.5931 19.0008Z" fill="#0B51A0"/>
<path d="M20.3099 20.4201C21.6374 19.0411 28.9988 11.6652 40.7553 11.5723C53.6248 11.4692 61.4875 20.1767 62.6221 21.4743H58.2209C56.5417 19.7744 50.8006 14.3913 41.6723 13.4062C29.8529 12.1314 21.6384 19.2329 20.3099 20.4201Z" fill="#103D67"/>
<path d="M13.1802 25.762H9.51233V28.6728H13.1802V25.762Z" fill="#103D67"/>
<path d="M16.1818 17.2366H12.514V20.1474H16.1818V17.2366Z" fill="#103D67"/>
<path d="M11.2094 19.8457H9.37549V21.3011H11.2094V19.8457Z" fill="#103D67"/>
<path d="M12.8351 22.5075H11.0012V23.9629H12.8351V22.5075Z" fill="#103D67"/>
<path d="M17.3514 22.7335H15.5175V24.1889H17.3514V22.7335Z" fill="#103D67"/>
<path d="M6.11932 24.8692H4.2854V26.3246H6.11932V24.8692Z" fill="#103D67"/>
<path d="M2.05249 29.9644H0.218567V31.4198H2.05249V29.9644Z" fill="#103D67"/>
<path d="M13.7521 32.5573H11.9182V34.0126H13.7521V32.5573Z" fill="#103D67"/>
<path d="M5.61578 47.8665H3.78186V49.3219H5.61578V47.8665Z" fill="#103D67"/>
<path d="M9.44409 47.3893H7.61017V48.8447H9.44409V47.3893Z" fill="#103D67"/>
<path d="M9.67395 51.7939H7.84003V53.2493H9.67395V51.7939Z" fill="#103D67"/>
<path d="M14.0283 52.8436H12.1943V54.299H14.0283V52.8436Z" fill="#103D67"/>
<path d="M8.06872 28.5117H4.40088V31.4224H8.06872V28.5117Z" fill="#103D67"/>
<path d="M11.0031 34.8134H7.33521V37.7242H11.0031V34.8134Z" fill="#103D67"/>
<path d="M16.1137 47.7422H12.4459V50.653H16.1137V47.7422Z" fill="#103D67"/>
<path d="M20.4464 53.0847H16.7786V55.9955H20.4464V53.0847Z" fill="#103D67"/>
<path d="M5.36355 35.2303H0V39.4871H5.36355V35.2303Z" fill="#103D67"/>
<path d="M13.4306 40.7724H8.06702V45.0292H13.4306V40.7724Z" fill="#103D67"/>
<path d="M3.39241 42.0154H0.710632V44.1443H3.39241V42.0154Z" fill="#103D67"/>
<path d="M25.1446 45.1758C25.9201 46.2974 26.8452 47.3076 27.8944 48.1784H40.9939L39.49 52.4022L34.9259 52.3331C39.6393 53.9446 44.7483 53.9837 49.4858 52.4445L43.1682 52.4961C43.6674 51.0727 44.166 49.6489 44.6638 48.2248C52.1934 48.1454 57.6168 48.1124 59.821 48.1784C60.3858 48.2036 60.9511 48.1417 61.4971 47.9948C63.5414 47.443 64.7534 45.8122 65.133 45.3017C65.6372 44.6214 66.0345 43.868 66.3109 43.0675L62.9411 43.0325C62.3945 43.9961 61.4993 44.7137 60.4399 45.0376L25.1446 45.1758Z" fill="#103D67"/>
<path d="M26.588 28.6721C26.8128 28.0089 27.9288 24.9589 30.9314 23.7675C31.6441 23.4869 32.3999 23.3316 33.1655 23.3085H69.026C69.5119 23.3085 70.73 23.357 71.4788 24.1915C71.7759 24.5226 72.5103 25.5478 71.4324 29.7262C70.8517 31.9717 70.0094 34.1412 68.9229 36.1904C69.1488 35.5065 69.6274 33.7355 68.9342 31.7438C68.6843 31.0308 68.3142 30.3659 67.8399 29.7778L69.2839 27.0104C69.3437 26.8351 69.3705 26.6412 69.2839 26.4947C69.1096 26.2079 68.598 26.2296 68.4587 26.2327C67.6336 26.2513 53.2799 26.2451 33.4925 26.2327C32.7342 26.2467 31.9973 26.4864 31.3758 26.921C30.7543 27.3557 30.2764 27.9657 30.0031 28.6731L26.588 28.6721Z" fill="#103D67"/>
<path d="M37.4306 29.584H40.4558L41.3718 39.8068C42.7312 36.3989 44.091 32.9913 45.4512 29.584H48.2247L49.577 39.6923L53.841 29.584H56.3165C54.2976 34.3824 52.277 39.1807 50.2546 43.979H47.4501L46.0484 33.6645L41.8194 43.979H39.0417C38.5047 39.1807 37.9676 34.3824 37.4306 29.584Z" fill="#B61F24"/>
<path d="M32.5954 34.9783H35.598C35.6175 34.4729 35.6423 32.3522 34.1075 30.8298C32.1838 28.9206 29.1668 29.3001 27.3917 30.1418C23.4062 32.0325 23.466 37.3063 23.4722 37.5683C23.4908 38.2356 23.6042 42.3614 26.7275 43.8715C29.1607 45.0494 31.6568 43.7869 31.9301 43.6425C34.4716 42.3016 35.0451 39.7085 35.1163 39.3568L32.2282 39.3785C32.1642 39.5394 31.2504 41.7312 29.3401 41.9468C28.7774 42.0112 28.2087 41.8991 27.7125 41.626C25.7527 40.477 25.2484 36.1964 27.1854 33.8323C27.4278 33.5363 28.876 31.7694 30.5552 32.2511C31.6031 32.5513 32.3943 33.6281 32.5954 34.9783Z" fill="#B61F24"/>
<path d="M67.3194 30.8218C66.0611 29.5407 64.2498 29.5995 63.8362 29.6232L58.2199 29.584L55.8589 43.9553H59.1163C59.3597 42.1447 59.6035 40.3342 59.8476 38.5237C60.3117 38.5185 61.0152 38.5133 61.8754 38.5164C63.4164 38.5164 63.6083 38.5237 63.994 38.5092C64.5201 38.4896 65.9662 38.3658 67.0832 37.2797C68.8738 35.5397 68.7975 32.3257 67.3194 30.8218ZM63.1028 36.3463L60.0993 36.3246C60.2897 34.9411 60.4809 33.5575 60.6727 32.174H63.6753C64.7913 32.3287 65.6351 33.1137 65.7382 33.9615C65.8774 35.0838 64.7418 36.4071 63.1028 36.3463Z" fill="#B61F24"/>
<path d="M64.6094 48.2407C63.8654 48.8521 63.0043 49.3047 62.0788 49.5708C61.1534 49.8369 60.1833 49.9108 59.2283 49.7879C57.6739 51.4475 51.183 58.0034 41.0407 58.6068C32.6632 59.106 26.2424 55.6084 21.767 52.3366C21.2224 51.9385 20.0651 51.0473 20.0671 51.0432C20.0692 51.0391 24.4797 55.2422 29.4534 57.6445C38.9334 62.2231 48.7539 59.4196 49.6017 59.1638C58.4031 56.5099 63.1633 50.3005 64.6094 48.2407Z" fill="#103D67"/>
</g>
<defs>
<clipPath id="clip0_201_3">
<rect width="72" height="72" fill="white"/>
</clipPath>
</defs>
</svg>
