<svg width="72" height="72" viewBox="0 0 72 72" fill="none" xmlns="http://www.w3.org/2000/svg">
<path d="M25.1322 52.4968C25.6253 52.2708 26.1183 52.0859 26.6319 51.8805C27.2071 51.6751 27.7824 51.4696 28.3576 51.2847C29.0767 51.0587 29.8162 50.8738 30.5558 50.7095C31.5625 50.504 32.5691 50.3397 33.5758 50.237C33.0006 52.0243 32.3842 53.8116 31.6857 55.5784C31.7063 55.9277 31.7268 56.2564 31.7474 56.6056C33.1238 56.3386 34.5414 56.1947 36 56.1947C37.4586 56.1947 38.8762 56.3386 40.2526 56.6056C40.2526 56.2564 40.2731 55.9071 40.3142 55.5784C39.6363 53.8116 38.9994 52.0243 38.4242 50.237C39.4308 50.3397 40.458 50.4835 41.4442 50.7095C42.1837 50.8738 42.9028 51.0587 43.6424 51.2847C44.2176 51.4696 44.7928 51.6545 45.3681 51.8805C45.8817 52.0654 46.3747 52.2708 46.8678 52.4968C50.3603 54.0582 53.5446 56.3591 56.1537 59.3585C62.7072 53.7089 66.8571 45.3475 66.8571 36C66.8571 18.969 53.0515 5.14282 36 5.14282C18.969 5.14282 5.14285 18.9484 5.14285 36C5.14285 45.327 9.29275 53.6884 15.8463 59.3585C18.4554 56.3591 21.6397 54.0582 25.1322 52.4968Z" fill="#A0DBE8"/>
<path d="M27.1661 58.0852C28.6042 57.4483 30.145 56.9553 31.7269 56.6471C31.7269 56.2979 31.7063 55.9486 31.6652 55.6199C32.3432 53.8531 32.98 52.0658 33.5553 50.2784C32.5486 50.3812 31.5214 50.525 30.5353 50.751C29.7957 50.9153 29.0767 51.1002 28.3371 51.3262C27.7619 51.5111 27.1866 51.696 26.6114 51.922L28.8507 52.4767L27.1661 58.0852Z" fill="#525353"/>
<path d="M21.8665 61.3906C21.9282 60.8154 21.9487 60.2401 21.9487 59.6444C21.9487 59.2951 22.2363 59.0075 22.5856 59.0075H23.1403L25.1125 52.4745C21.62 54.0358 18.4357 56.3368 15.8266 59.3362C17.2647 60.5894 18.826 61.6988 20.4695 62.6643C20.942 62.2329 21.394 61.8015 21.8665 61.3906Z" fill="#525353"/>
<path d="M46.847 52.4983L48.8192 59.0313H49.3739C49.7232 59.0313 50.0108 59.3189 50.0108 59.6682C50.0108 60.2639 50.0519 60.8392 50.0929 61.4144C50.5655 61.8253 51.038 62.2362 51.4694 62.6881C53.1335 61.7226 54.6743 60.6132 56.1123 59.36C53.5238 56.3606 50.3395 54.0596 46.847 52.4983Z" fill="#525353"/>
<path d="M43.0877 52.4327L45.327 51.878C44.7517 51.6726 44.1765 51.4671 43.6013 51.2822C42.8822 51.0563 42.1426 50.8714 41.4031 50.707C40.3964 50.5016 39.3897 50.3372 38.3831 50.2345C38.9583 52.0218 39.5746 53.8092 40.2731 55.5759C40.2526 55.9252 40.232 56.2539 40.2115 56.6031C41.8139 56.9113 43.3342 57.4044 44.7723 58.0412L43.0877 52.4327Z" fill="#525353"/>
<path d="M35.9796 59.0301H40.335C40.2528 58.2289 40.2117 57.4276 40.2323 56.647C38.8558 56.3799 37.4383 56.2361 35.9796 56.2361C34.521 56.2361 33.1034 56.3799 31.727 56.647C31.7475 57.4482 31.7064 58.2289 31.6243 59.0301H35.9796Z" fill="black"/>
<path d="M20.4892 62.6679C20.8384 62.8733 21.2082 63.0788 21.578 63.2842C21.7013 62.6679 21.804 62.031 21.8657 61.3942C21.3931 61.805 20.9412 62.2365 20.4892 62.6679Z" fill="black"/>
<path d="M26.8782 59.0298H31.6445C31.7266 58.2286 31.7677 57.4274 31.7472 56.6467C30.1447 56.9549 28.6245 57.4479 27.1864 58.0848L26.8782 59.0298Z" fill="black"/>
<path d="M50.1134 61.3942C50.175 62.031 50.2777 62.6679 50.401 63.2842C50.7708 63.0993 51.12 62.8939 51.4898 62.6679C51.0379 62.2365 50.5859 61.805 50.1134 61.3942Z" fill="black"/>
<path d="M45.1012 59.0298L44.8136 58.0848C43.3755 57.4479 41.8347 56.9549 40.2529 56.6467C40.2323 57.4479 40.2734 58.2286 40.3556 59.0298H45.1012Z" fill="black"/>
<path d="M26.8783 59.0274L27.1659 58.0823L28.871 52.4327L26.6317 51.8781C26.1181 52.0629 25.6251 52.2684 25.132 52.4944L23.1598 59.0274H25.2758H26.8783Z" fill="#AA9678"/>
<path d="M44.813 58.0823L45.1006 59.0274H46.703H48.8191L46.8468 52.4944C46.3538 52.2684 45.8607 52.0835 45.3471 51.8781L43.1078 52.4327L44.813 58.0823Z" fill="#AA9678"/>
<path d="M23.2213 60.3453C23.2419 60.3247 23.2624 60.3247 23.283 60.3042H23.2213C23.2213 60.3042 23.2213 60.3247 23.2213 60.3453Z" fill="#C0B098"/>
<path d="M35.9796 60.3042H31.4393H26.4882H23.2834C23.2628 60.3247 23.2423 60.3247 23.2217 60.3453C23.1806 61.5574 23.0163 62.7284 22.7492 63.8789C26.7553 65.7895 31.2339 66.8578 35.9796 66.8578V60.3042Z" fill="#C0B098"/>
<path d="M48.7581 60.3042H48.6964C48.717 60.3247 48.7375 60.3247 48.7581 60.3453C48.7581 60.3247 48.7581 60.3042 48.7581 60.3042Z" fill="#AA9678"/>
<path d="M48.696 60.3042H45.4912H40.5195H35.9793V66.8578C40.7044 66.8578 45.2035 65.7895 49.2096 63.8789C48.9425 62.7284 48.7782 61.5368 48.7371 60.3453C48.7371 60.3247 48.7166 60.3042 48.696 60.3042Z" fill="#AA9678"/>
<path d="M50.1139 61.3941C50.0522 60.8189 50.0317 60.2436 50.0317 59.6479C50.0317 59.2986 49.7441 59.011 49.3948 59.011H48.8401H46.683H45.0806H40.3143H35.959H31.6037H26.8375H25.235H23.119H22.5643C22.2151 59.011 21.9274 59.2986 21.9274 59.6479C21.9274 60.2436 21.8864 60.8189 21.8453 61.3941C21.7836 62.031 21.6809 62.6678 21.5576 63.2842C21.948 63.4896 22.3383 63.695 22.7287 63.8799C22.9957 62.7295 23.1601 61.5379 23.2012 60.3463C23.2012 60.3258 23.2012 60.3258 23.2012 60.3053H23.2628H26.4677H31.4188H35.959H40.5198H45.4709H48.6758H48.7374C48.7374 60.3258 48.7374 60.3258 48.7374 60.3463C48.7785 61.5584 48.9428 62.7295 49.2099 63.8799C49.6002 63.695 49.9906 63.4896 50.3809 63.2842C50.2577 62.6678 50.1755 62.031 50.1139 61.3941Z" fill="#8B7460"/>
<path d="M44.8131 54.6128C44.7103 54.5101 44.6282 54.3868 44.5254 54.2635C44.6282 54.4074 44.7309 54.5101 44.8131 54.6128Z" fill="#525353"/>
<path d="M45.5332 55.3337C45.5332 55.3337 45.225 55.0872 44.8141 54.6353C45.225 55.0872 45.5332 55.3337 45.5332 55.3337Z" fill="#AA9678"/>
<path d="M56.5231 29.1357C56.5231 29.1152 56.5231 29.1357 56.5231 29.1357C56.256 28.7659 55.989 28.4372 55.7219 28.1496C55.5986 28.0058 55.4754 27.8825 55.3521 27.7592C55.311 27.7182 55.2494 27.6771 55.2083 27.636C55.1261 27.5538 55.0439 27.4922 54.9618 27.4305V30.3067L56.0506 35.34C56.0711 35.3811 56.0711 35.4222 56.0917 35.4633L56.8518 36.3261H57.653C57.653 36.2439 57.653 36.1823 57.653 36.1001C57.653 33.717 57.2627 31.4366 56.5642 29.3001C56.5437 29.2179 56.5437 29.1768 56.5231 29.1357Z" fill="#BBBCBD"/>
<path d="M56.1742 35.8157V35.8362C56.1742 35.8362 56.1742 35.8362 56.1742 35.8568C56.1947 35.98 56.1947 36.1033 56.1947 36.2265C56.1947 36.2471 56.1947 36.2676 56.1947 36.2882C56.1947 36.3087 56.1947 36.3293 56.1947 36.3498C56.1947 36.4731 56.1947 36.5963 56.1742 36.6991V36.7196V36.7401C56.1536 36.8634 56.1331 36.9867 56.1125 37.1099L56.8727 36.2676L56.1125 35.4048C56.1331 35.5486 56.1536 35.6719 56.1742 35.8157Z" fill="#676A6A"/>
<path d="M56.1536 36.781C56.1536 36.7604 56.1536 36.7604 56.1536 36.7399C56.1742 36.6166 56.1742 36.4934 56.1742 36.3906C56.1742 36.3701 56.1742 36.329 56.1742 36.3085C56.1742 36.2879 56.1742 36.2674 56.1742 36.2263C56.1742 36.103 56.1742 35.9798 56.1536 35.8565C56.1536 35.8359 56.1536 35.8359 56.1536 35.8154C56.1331 35.6921 56.1125 35.5689 56.092 35.4456C56.0714 35.4045 56.0714 35.3634 56.0509 35.3223C55.9687 35.0758 55.8865 34.8704 55.7633 34.6855C55.7427 34.6649 55.7222 34.6444 55.7222 34.6238C55.6811 34.5828 55.6606 34.5417 55.6195 34.5006C55.5784 34.4389 55.5167 34.3979 55.4551 34.3568C55.4346 34.3362 55.414 34.3362 55.3935 34.3157C55.3524 34.2746 55.2908 34.2541 55.2497 34.2335C55.2291 34.2335 55.2086 34.213 55.188 34.213C55.1264 34.1924 55.0442 34.1719 54.9621 34.1719C54.8799 34.1719 54.8182 34.1924 54.7361 34.213C54.7155 34.213 54.695 34.2335 54.6744 34.2335C54.6333 34.2541 54.5717 34.2746 54.5306 34.3157C54.5101 34.3362 54.4895 34.3362 54.469 34.3568C54.4074 34.3979 54.3663 34.4595 54.3046 34.5006C54.2636 34.5417 54.243 34.5828 54.2019 34.6238C54.1814 34.6444 54.1608 34.6649 54.1608 34.6855C54.0376 34.8704 53.9348 35.0758 53.8732 35.3223V35.3429C53.8321 35.4456 53.8116 35.5689 53.791 35.6921C53.791 35.7332 53.7705 35.7538 53.7705 35.7949C53.7499 35.9387 53.7499 36.0619 53.7294 36.2057C53.7294 36.2263 53.7294 36.2468 53.7294 36.2674C53.7294 37.4384 54.2841 38.404 54.9621 38.404C55.0853 38.404 55.188 38.3629 55.3113 38.3218C55.3318 38.3218 55.3524 38.3012 55.3729 38.3012C55.414 38.2807 55.4551 38.2396 55.4962 38.2191C55.5167 38.1985 55.5373 38.178 55.5578 38.1574C55.6195 38.1163 55.6606 38.0547 55.7222 37.9931C55.7633 37.952 55.7838 37.9109 55.8249 37.8493C55.8455 37.8082 55.866 37.7876 55.8865 37.7466C55.9276 37.6849 55.9482 37.6233 55.9893 37.5411C56.0098 37.5206 56.0098 37.5 56.0304 37.4589C56.0714 37.3562 56.092 37.2535 56.1331 37.1508C56.1331 37.0275 56.1536 36.9042 56.1536 36.781ZM55.0031 36.0003C54.7361 36.0003 54.5306 35.6511 54.5306 35.1991C54.5306 34.7677 54.7361 34.3979 55.0031 34.3979C55.2702 34.3979 55.4757 34.7471 55.4757 35.1991C55.4757 35.6511 55.2497 36.0003 55.0031 36.0003Z" fill="black"/>
<path d="M55.0042 36.0027C55.2652 36.0027 55.4767 35.644 55.4767 35.2015C55.4767 34.759 55.2652 34.4003 55.0042 34.4003C54.7433 34.4003 54.5317 34.759 54.5317 35.2015C54.5317 35.644 54.7433 36.0027 55.0042 36.0027Z" fill="white"/>
<path d="M53.8525 35.3216C53.9347 35.0751 54.0168 34.8697 54.1401 34.6848C54.1606 34.6642 54.1812 34.6437 54.1812 34.6231C54.2223 34.582 54.2428 34.5409 54.2839 34.4999C54.325 34.4382 54.3866 34.3971 54.4483 34.356C54.4688 34.3355 54.4893 34.3355 54.5099 34.315C54.551 34.2739 54.6126 34.2533 54.6537 34.2328C54.6742 34.2328 54.6948 34.2122 54.7153 34.2122C54.777 34.1917 54.8591 34.1712 54.9413 34.1712C55.0235 34.1712 55.0851 34.1917 55.1673 34.2122C55.1878 34.2122 55.2084 34.2328 55.2289 34.2328C55.27 34.2533 55.3317 34.2739 55.3727 34.315C55.3933 34.3355 55.4138 34.3355 55.4344 34.356C55.496 34.3971 55.5371 34.4588 55.5987 34.4999C55.6398 34.5409 55.6604 34.582 55.7014 34.6231C55.722 34.6437 55.7425 34.6642 55.7425 34.6848C55.8658 34.8697 55.9685 35.0751 56.0302 35.3216L54.9413 30.2883L53.8525 35.3216Z" fill="#909393"/>
<path d="M40.3974 36.2451C40.3974 36.1424 40.3974 36.0397 40.3769 35.937C40.3564 35.8343 40.3564 35.7521 40.3358 35.6494C40.3153 35.5466 40.2947 35.4645 40.2536 35.3823C40.2331 35.3001 40.192 35.1974 40.1509 35.1152C40.1098 35.033 40.0687 34.9509 40.0277 34.8687C39.8839 34.6222 39.7195 34.3962 39.5141 34.2113C39.247 33.9648 38.9388 33.7593 38.6101 33.6155C38.4458 33.5539 38.2609 33.4922 38.0965 33.4512C38.0965 33.4512 38.0965 33.4512 38.076 33.4512C37.8911 33.4101 37.7062 33.3895 37.5213 33.3895C37.3364 33.3895 37.1515 33.4101 36.9666 33.4512H36.9461C36.7612 33.4922 36.5968 33.5333 36.4325 33.595C36.4325 33.595 36.4325 33.595 36.4119 33.595C36.2476 33.6566 36.0832 33.7388 35.9394 33.8415C35.7956 33.9442 35.6518 34.0469 35.5285 34.1702H35.508C35.3025 34.3756 35.1176 34.6016 34.9738 34.8482C34.9327 34.9303 34.8917 35.0125 34.8506 35.0947C34.8506 35.0947 34.8506 35.1152 34.83 35.1152C34.7889 35.1974 34.7684 35.259 34.7479 35.3412C34.7479 35.3617 34.7273 35.3617 34.7273 35.3823C34.7068 35.4645 34.6862 35.5261 34.6657 35.6083C34.6657 35.6288 34.6451 35.6494 34.6451 35.6699C34.6246 35.7521 34.6246 35.8137 34.604 35.8959C34.604 35.9164 34.604 35.937 34.5835 35.9575C34.5835 36.0602 34.563 36.163 34.563 36.2657C34.563 36.4506 34.5835 36.6355 34.6246 36.8204C34.6246 36.8204 34.6246 36.8204 34.6246 36.8409C34.6657 37.0258 34.7068 37.1902 34.7889 37.3751C34.9328 37.7038 35.1382 38.0119 35.3847 38.279C35.5902 38.4844 35.8161 38.6693 36.0627 38.8131C36.1448 38.8542 36.227 38.8953 36.3092 38.9364H36.3297C36.4119 38.9775 36.4941 38.998 36.5557 39.0186C36.5763 39.0186 36.5763 39.0186 36.5968 39.0391C36.679 39.0597 36.7406 39.0802 36.8228 39.1008C36.8433 39.1008 36.8639 39.1213 36.8844 39.1213C36.9666 39.1418 37.0282 39.1418 37.1104 39.1624C37.131 39.1624 37.1515 39.1624 37.172 39.1829C37.2748 39.1829 37.3775 39.2035 37.4802 39.2035C37.8911 39.2035 38.2609 39.1213 38.6101 38.9775C38.7745 38.8953 38.9388 38.8131 39.1032 38.7104C39.4113 38.505 39.6784 38.2379 39.8838 37.9297C39.9866 37.7654 40.0687 37.601 40.1509 37.4367C40.2947 37.0874 40.3769 36.6971 40.3769 36.3068V36.2862C40.3974 36.2451 40.3974 36.2451 40.3974 36.2451ZM37.5007 35.8959C36.905 35.8959 36.4119 35.4028 36.4119 34.8071C36.4119 34.2113 36.905 33.7182 37.5007 33.7182C38.0965 33.7182 38.5896 34.2113 38.5896 34.8071C38.5896 35.4028 38.0965 35.8959 37.5007 35.8959Z" fill="black"/>
<path d="M37.5 35.8963C38.1013 35.8963 38.5888 35.4088 38.5888 34.8075C38.5888 34.2061 38.1013 33.7186 37.5 33.7186C36.8987 33.7186 36.4112 34.2061 36.4112 34.8075C36.4112 35.4088 36.8987 35.8963 37.5 35.8963Z" fill="white"/>
<path d="M35.487 34.1679L37.5003 28.0253C37.5003 28.0253 37.5003 27.6555 37.5003 27.3062C37.5003 27.2035 37.5003 27.1008 37.5003 27.0186C37.5003 26.9775 37.5003 26.957 37.5003 26.9364C37.5003 26.8953 37.5003 26.8542 37.5003 26.8131C37.5003 26.7926 37.5003 26.7515 37.5003 26.731C37.5003 26.7104 37.5003 26.6693 37.5003 26.6488C37.5003 26.6283 37.5003 26.6077 37.5003 26.6077C37.5003 26.5872 37.5003 26.5872 37.5003 26.5872C36.391 26.3612 35.2405 26.2379 34.0695 26.2379C33.6791 26.2379 33.2888 26.2585 32.8985 26.279C32.8368 26.279 32.7958 26.279 32.7341 26.2995C30.7208 26.4434 28.7486 26.9775 26.9202 27.8198C25.3588 28.5389 23.8796 29.4839 22.5854 30.5933C22.2361 30.9014 21.8869 31.2096 21.5582 31.5383C21.4965 31.5999 21.4349 31.6616 21.3733 31.7232C21.0651 32.0314 20.7569 32.3601 20.4693 32.6888C20.4077 32.7709 20.3461 32.8326 20.2844 32.9147C19.9968 33.264 19.7092 33.6132 19.4421 33.9625C19.4216 33.983 19.401 34.0241 19.3805 34.0447C19.134 34.3939 18.8874 34.7432 18.6409 35.113C18.5998 35.1746 18.5382 35.2568 18.4971 35.3184C18.3122 35.6266 18.1273 35.9347 17.963 36.2429H27.064H27.0845L35.487 34.1679Z" fill="#BBBCBD"/>
<path d="M43.1902 33.4939C43.2108 33.2474 43.2313 33.0214 43.2313 32.7748C43.2519 32.4461 43.2519 32.138 43.2724 31.8093C43.2724 31.5627 43.2724 31.3162 43.2724 31.0491C43.2724 30.967 43.2724 30.9053 43.2724 30.8232C43.2724 30.1658 43.2313 29.5289 43.2108 28.8715C43.2108 28.8715 43.1902 28.8715 43.1902 28.8509C43.1902 28.8509 43.1697 28.8509 43.1697 28.8304C43.0464 28.7688 42.7588 28.6044 42.4917 28.4401H42.4712C42.4095 28.399 42.3479 28.3579 42.2863 28.3373C42.2452 28.3168 42.2041 28.2757 42.163 28.2552L42.1425 28.2346C42.1014 28.2141 42.0603 28.1935 42.0398 28.173C41.6289 27.947 41.1974 27.7621 40.766 27.5772C39.7388 27.1458 38.3418 26.7555 37.5406 26.5706V27.1252V27.2485V27.2896C37.5406 27.6594 37.5406 28.0086 37.5406 28.0086L39.5334 34.1307C39.7388 34.3156 39.9237 34.5416 40.047 34.7881C40.0881 34.8703 40.1291 34.9525 40.1702 35.0347C40.2113 35.1169 40.2524 35.199 40.273 35.3017C40.2935 35.3839 40.3346 35.4866 40.3551 35.5688C40.3757 35.6715 40.3962 35.7537 40.3962 35.8564C40.4168 35.9592 40.4168 36.0619 40.4168 36.1646V36.1851H42.841C43.0053 35.3017 43.1286 34.3978 43.1902 33.4939C43.1902 33.535 43.1902 33.5144 43.1902 33.4939Z" fill="#E2DDDB"/>
<path d="M40.417 44.9986C40.9717 44.4439 41.4853 43.9303 41.9784 43.4167C42.266 43.1085 42.5536 42.8004 42.8412 42.5128C44.8751 40.3146 46.3543 38.2396 47.2582 35.5894C47.2787 35.5278 47.2993 35.4456 47.3198 35.3429C47.3198 35.3224 47.3198 35.3224 47.3198 35.3018C47.3404 35.1991 47.3609 35.0964 47.3815 34.9731C47.3815 34.8909 47.402 34.8088 47.402 34.7266C47.176 33.5761 46.7446 32.4462 46.3543 31.3368C46.3543 31.3368 46.3543 31.3368 46.3543 31.3574C46.3543 31.3574 46.3543 31.3574 46.3337 31.3368C46.2515 31.2752 46.1899 31.193 46.1077 31.1314C45.8817 30.9259 45.6558 30.7205 45.4092 30.5151C44.6902 29.9193 43.9506 29.3646 43.1699 28.8921C43.211 29.5495 43.2316 30.1864 43.2316 30.8438C43.2316 30.9259 43.2316 30.9876 43.2316 31.0698C43.2316 31.3163 43.2316 31.5628 43.2316 31.8299C43.2316 32.1586 43.211 32.4873 43.1905 32.7955C43.1699 33.042 43.1699 33.268 43.1494 33.5145C43.1494 33.535 43.1494 33.5556 43.1494 33.5967C43.0672 34.5006 42.9645 35.4045 42.8001 36.2879L42.5125 37.6438C41.9168 40.068 40.7047 42.2457 39.7185 44.5055C39.4515 45.1013 39.2049 45.7176 38.979 46.334C38.9584 46.3956 38.9379 46.4572 38.9173 46.5189C39.2255 46.1902 39.5131 45.9025 39.7185 45.6971C39.9856 45.43 40.1911 45.204 40.417 44.9986Z" fill="#FBB040"/>
<path d="M35.5078 34.1733C35.631 34.0501 35.7749 33.9473 35.9187 33.8446C36.0625 33.7419 36.2268 33.6597 36.3912 33.5981C36.3912 33.5981 36.3912 33.5981 36.4117 33.5981C36.5761 33.5365 36.7404 33.4748 36.9253 33.4543H36.9459C37.1308 33.4132 37.3157 33.3926 37.5006 33.3926C37.6855 33.3926 37.8703 33.4132 38.0552 33.4543C38.0552 33.4543 38.0552 33.4543 38.0758 33.4543C38.2607 33.4954 38.425 33.5365 38.5894 33.6186C38.9181 33.7624 39.2263 33.9473 39.4933 34.2144L37.5006 28.0923L35.5078 34.1733Z" fill="#909393"/>
<path d="M34.8081 37.3767C34.7465 37.2124 34.6848 37.0275 34.6437 36.8426C34.6437 36.8426 34.6437 36.8426 34.6437 36.8221C34.6026 36.6372 34.5821 36.4523 34.5821 36.2674C34.5821 36.1646 34.5821 36.0619 34.6026 35.9592C34.6026 35.9387 34.6026 35.9181 34.6232 35.8976C34.6232 35.8154 34.6437 35.7538 34.6643 35.6716C34.6643 35.651 34.6848 35.6305 34.6848 35.61C34.7054 35.5278 34.7259 35.4661 34.7465 35.384C34.7465 35.3634 34.767 35.3634 34.767 35.3429C34.7875 35.2607 34.8286 35.1785 34.8492 35.1169C34.8492 35.1169 34.8492 35.0964 34.8697 35.0964C34.9108 35.0142 34.9519 34.932 34.993 34.8498C35.1368 34.6033 35.3217 34.3773 35.5271 34.1719L27.1041 36.2468H27.0835L35.4244 38.2807C35.1573 38.0342 34.9519 37.726 34.8081 37.3767Z" fill="#676A6A"/>
<path d="M53.7506 35.7909C53.7506 35.7498 53.7712 35.7087 53.7712 35.6882C53.7917 35.5649 53.8123 35.4416 53.8534 35.3389C53.8534 35.3184 53.8534 35.3184 53.8534 35.2978L54.9422 30.2645V27.3884C54.0383 26.6488 53.0932 26.2379 52.0866 26.2379C50.8128 26.2379 49.6418 26.9364 48.7584 27.7993C47.7929 28.7443 47.0533 29.9358 46.437 31.1274C46.4164 31.189 46.3753 31.2301 46.3548 31.2917C46.5397 31.4561 46.7246 31.6204 46.9095 31.7848C47.3204 32.1546 47.7312 32.5449 48.1216 32.9353C48.3065 33.1202 48.4914 33.3051 48.6763 33.49C48.8612 33.6954 49.0666 33.8803 49.2515 34.0857C49.498 34.3528 49.7446 34.5993 49.9705 34.8664C50.0733 34.9691 50.176 35.0924 50.2787 35.1951C50.5663 35.5238 50.8539 35.832 51.1416 36.1607C51.1826 36.2018 51.2237 36.2429 51.2443 36.2634H53.7301C53.7301 36.2429 53.7301 36.2223 53.7301 36.2018C53.7301 36.0785 53.7301 35.9347 53.7506 35.7909Z" fill="#E2DDDB"/>
<path d="M16.4626 39.4279C16.4626 39.4074 16.4832 39.3868 16.4832 39.3663C16.6475 38.9554 16.8119 38.5445 16.9968 38.1336C17.0378 38.0104 17.0995 37.9077 17.1611 37.8049C17.3049 37.4762 17.4693 37.1681 17.6336 36.8599C17.6953 36.7367 17.7569 36.6134 17.8391 36.4696C17.8802 36.4079 17.9212 36.3258 17.9623 36.2641C18.1472 35.956 18.3116 35.6478 18.4965 35.3397C18.5376 35.278 18.5992 35.1958 18.6403 35.1342C18.8663 34.7644 19.1128 34.4152 19.3799 34.0659C19.4004 34.0454 19.421 34.0043 19.4415 33.9837C19.7086 33.614 19.9962 33.2647 20.2838 32.936C20.3454 32.8538 20.4071 32.7922 20.4687 32.71C20.7563 32.3813 21.0645 32.0526 21.3726 31.7444C21.4343 31.6828 21.4959 31.6212 21.5575 31.5596C21.8862 31.2308 22.2149 30.9227 22.5847 30.6145C23.9612 25.9716 28.2138 22.5818 33.2266 22.5818C35.2399 22.5818 37.2532 23.157 38.9789 24.2253C40.7457 25.3142 42.1838 26.8961 43.1082 28.7245C43.1082 28.7245 43.1082 28.745 43.1288 28.745C43.1493 28.7861 43.1699 28.8272 43.211 28.8888C43.9916 29.3613 44.7312 29.916 45.4503 30.5118C45.6968 30.7172 45.9228 30.9227 46.1488 31.1281C46.2309 31.1898 46.2926 31.2719 46.3747 31.3336C46.3953 31.2719 46.4158 31.2308 46.4569 31.1692C47.1554 26.7112 49.1276 23.4857 51.4491 23.4857C53.1954 23.4857 54.7567 25.3142 55.7017 28.1287V28.1492C55.9688 28.4369 56.2359 28.7656 56.5029 29.1148C56.5029 29.1148 56.503 29.1354 56.5235 29.1354C56.544 29.1764 56.544 29.2175 56.5646 29.2586L56.5235 29.1148C53.6268 20.5685 45.553 14.4053 36.0205 14.4053C24.0639 14.4053 14.3877 24.0815 14.3877 36.0382C14.3877 38.4007 14.7575 40.6606 15.456 42.7766C15.456 42.7766 15.456 42.7766 15.456 42.7561C15.5998 42.1192 15.7641 41.4823 15.949 40.866C16.1134 40.3729 16.2777 39.9004 16.4626 39.4279Z" fill="#525353"/>
<path d="M56.8528 36.285L56.0926 37.1273C56.0721 37.2301 56.031 37.3328 55.9899 37.4355C55.9899 37.456 55.9694 37.4766 55.9488 37.5177C55.9283 37.5793 55.8872 37.6615 55.8461 37.7231C55.8256 37.7642 55.805 37.7847 55.7845 37.8258C55.7434 37.8669 55.7229 37.9286 55.6818 37.9696C55.6407 38.0313 55.5791 38.0929 55.5174 38.134C55.4969 38.1545 55.4763 38.1751 55.4558 38.1956C55.4147 38.2367 55.3736 38.2573 55.3325 38.2778C55.312 38.2778 55.2914 38.2983 55.2709 38.2983C55.1682 38.36 55.0449 38.3805 54.9216 38.3805C54.2437 38.3805 53.689 37.4355 53.689 36.2439H51.2032C51.6757 36.7781 52.1277 37.3122 52.5591 37.8669L52.5796 37.8875C53.0111 38.4216 53.4425 38.9558 53.8739 39.4899C53.8944 39.5105 53.915 39.5515 53.9355 39.5721C54.3464 40.0857 54.7368 40.5993 55.1271 41.1129C55.1682 41.154 55.2093 41.2156 55.2504 41.2567C55.6612 41.8114 56.0721 42.3661 56.483 42.9002C56.483 42.9002 56.483 42.9002 56.483 42.9208C57.202 40.8047 57.5924 38.5654 57.6129 36.2234L56.8528 36.285Z" fill="white"/>
<path d="M32.7332 26.285C32.7948 26.285 32.8359 26.285 32.8975 26.2645C33.2878 26.2439 33.6782 26.2234 34.0685 26.2234C35.2395 26.2234 36.39 26.3466 37.4994 26.5726C37.4994 26.5726 37.4994 26.5726 37.4994 26.5932C37.4994 26.5932 37.4994 26.6137 37.4994 26.6342C37.4994 26.6548 37.4994 26.6753 37.4994 26.7164C37.4994 26.737 37.4994 26.7575 37.4994 26.7986C37.4994 26.8397 37.4994 26.8808 37.4994 26.9219C37.4994 26.9424 37.4994 26.9835 37.4994 27.004C37.4994 27.0451 37.4994 27.0862 37.4994 27.1273V26.5726C38.28 26.7575 39.677 27.1478 40.7248 27.5793C41.1562 27.7642 41.5876 27.9696 41.9985 28.175C42.0191 28.175 42.0601 28.1956 42.1012 28.2367C42.1012 28.2367 42.1218 28.2367 42.1218 28.2572C42.1629 28.2778 42.204 28.2983 42.245 28.3394C42.3067 28.3805 42.3683 28.401 42.4299 28.4421H42.4505C42.7176 28.5859 43.0052 28.7708 43.1284 28.8325C43.149 28.8325 43.149 28.853 43.149 28.853L43.1695 28.8735C43.149 28.8325 43.1284 28.7914 43.0873 28.7297C43.0873 28.7297 43.0873 28.7092 43.0668 28.7092C42.1423 26.8602 40.6837 25.2783 38.9374 24.21C37.2117 23.1623 35.1984 22.5665 33.1851 22.5665C28.1724 22.5665 23.9198 25.9563 22.5433 30.5992C23.8581 29.4693 25.3168 28.5243 26.8781 27.8258C28.7476 26.9629 30.7404 26.4493 32.7332 26.285Z" fill="black"/>
<path d="M48.7788 27.8258C49.6622 26.9629 50.8332 26.2644 52.1069 26.2644C53.1136 26.2644 54.0791 26.6753 54.9625 27.4149C55.0447 27.4765 55.1269 27.5587 55.2091 27.6204C55.2502 27.6614 55.3118 27.7025 55.3529 27.7436C55.4761 27.8669 55.5994 27.9901 55.7227 28.134V28.1134C54.7571 25.2989 53.2163 23.4705 51.47 23.4705C49.1486 23.4705 47.1763 26.6753 46.4778 31.1539C47.0531 29.9624 47.8132 28.7708 48.7788 27.8258Z" fill="black"/>
<path d="M28.2752 56.2362C28.4807 56.3184 28.6656 56.38 28.871 56.4417C31.1103 57.2224 33.5139 57.6538 36.0203 57.6538C38.8759 57.6538 41.6083 57.0991 44.0941 56.0924C44.2174 56.0308 44.3612 55.9897 44.4844 55.9281C44.6899 55.8459 44.9159 55.7432 45.1213 55.6405C45.3062 55.5583 45.4911 55.4761 45.676 55.3734C45.6349 55.3734 45.5938 55.3939 45.5527 55.3939C44.7721 55.4761 44.0119 55.4967 43.2518 55.3734C38.7938 54.7365 37.8076 52.5794 37.9514 50.3607C37.6227 50.1758 37.3146 49.9703 36.9653 49.7238C33.5345 47.238 31.5006 44.5878 31.5006 44.5878C31.5006 44.5878 34.1508 46.6216 38.0953 48.1624C38.1774 48.2035 38.2596 48.2241 38.3418 48.2652C38.5267 47.6283 38.7527 47.012 38.9376 46.4778C38.9581 46.4162 38.9787 46.3546 38.9992 46.2929C39.2252 45.6766 39.4717 45.0603 39.7388 44.4645C40.7249 42.2047 41.937 40.0065 42.5328 37.6028L42.8204 36.2469H40.3962V36.2674C40.3962 36.6783 40.314 37.0481 40.1702 37.3974C40.088 37.5617 40.0059 37.7466 39.9031 37.8904C39.6977 38.1986 39.4306 38.4657 39.1225 38.6711C38.9581 38.7738 38.7938 38.856 38.6294 38.9382C38.2802 39.082 37.8898 39.1642 37.4995 39.1642C37.3968 39.1642 37.294 39.1642 37.1913 39.1436C37.1708 39.1436 37.1502 39.1436 37.1297 39.1231C37.0475 39.1231 36.9859 39.1025 36.9037 39.082C36.8832 39.082 36.8626 39.0614 36.8421 39.0614C36.7599 39.0409 36.6983 39.0203 36.6161 38.9998C36.5955 38.9998 36.5955 38.9998 36.575 38.9793C36.4928 38.9587 36.4107 38.9176 36.349 38.8971H36.3285C36.2463 38.856 36.1641 38.8149 36.0819 38.7738C35.8354 38.63 35.6094 38.4657 35.404 38.2397L27.0631 36.2058H17.9621C17.921 36.2674 17.8799 36.3496 17.8389 36.4113C17.7772 36.5345 17.695 36.6578 17.6334 36.8016C17.4691 37.1097 17.3047 37.4385 17.1609 37.7466C17.0993 37.8493 17.0582 37.9726 16.9965 38.0753C16.8116 38.4862 16.6473 38.8971 16.4829 39.308C16.4829 39.3285 16.4624 39.349 16.4624 39.3696C16.2775 39.8421 16.1132 40.3352 15.9693 40.8282C15.7844 41.4445 15.6201 42.0814 15.4763 42.7183C16.9144 47.0941 19.6878 50.8537 23.3446 53.4833C23.4474 53.5655 23.5706 53.6272 23.6734 53.7093C24.2897 54.1408 24.9265 54.5516 25.5839 54.9009C26.4468 55.435 27.3507 55.8664 28.2752 56.2362Z" fill="white"/>
<path d="M43.2112 49.5002C43.1701 49.7262 43.1496 49.9522 43.1496 50.1782C43.129 50.5685 43.1701 50.9589 43.2318 51.3081C43.2728 51.5546 43.3139 51.7806 43.3756 52.0066C43.4783 52.3353 43.581 52.6435 43.7248 52.9311C43.8686 53.2187 44.0124 53.4858 44.1562 53.7118C44.1973 53.7939 44.2589 53.8761 44.3 53.9377C44.3822 54.0405 44.4438 54.1432 44.526 54.2459C44.6287 54.3692 44.7315 54.4924 44.8136 54.5951C45.204 55.0471 45.5327 55.2936 45.5327 55.2936C45.5327 55.2936 45.5327 55.2936 45.5327 55.3142C45.5327 55.3347 45.5327 55.3553 45.5532 55.3758C45.5943 55.3758 45.6354 55.3553 45.6765 55.3553C46.6421 55.232 47.6076 54.9649 48.5732 54.6362C49.0662 54.4513 49.5593 54.2664 50.0318 54.061C50.1756 53.9994 50.3194 53.9172 50.4632 53.8556C55.4143 51.4519 59.5642 47.2198 59.5642 47.2198C53.3599 50.2809 47.2584 50.1576 43.2112 49.5002Z" fill="#9F2255"/>
<path d="M55.1676 41.1597C54.7772 40.6461 54.3663 40.1325 53.976 39.6189C53.9555 39.5983 53.9349 39.5573 53.9144 39.5367C53.483 39.0026 53.0515 38.4684 52.6201 37.9343L52.5996 37.9137C52.1476 37.359 51.6956 36.8249 51.2437 36.2907C51.2231 36.2497 51.182 36.2291 51.1615 36.188C50.8739 35.8593 50.5862 35.5512 50.2986 35.2225C50.1959 35.1197 50.0932 34.9965 49.9905 34.8938C49.7439 34.6267 49.518 34.3802 49.2714 34.1131C49.0865 33.9076 48.8811 33.7227 48.6962 33.5173C48.5113 33.3324 48.3264 33.1475 48.1415 32.9626C47.7512 32.5723 47.3403 32.1819 46.9294 31.8121C46.7445 31.6478 46.5596 31.4834 46.3747 31.3191C46.765 32.449 47.217 33.5789 47.443 34.7499C47.5046 35.0581 47.5457 35.3457 47.5868 35.6333C48.1415 39.6805 46.8267 42.3307 44.7723 45.8232C44.6285 46.0697 44.4641 46.3368 44.3203 46.5833C43.8478 47.364 43.5396 48.1241 43.3753 48.8226C43.3136 49.0486 43.2726 49.2746 43.2315 49.5006C47.2787 50.158 53.3597 50.2812 59.5845 47.2202C59.5845 47.2202 58.3724 45.4328 56.5235 42.9676C56.1126 42.4129 55.7017 41.8582 55.2908 41.324C55.2497 41.2624 55.2086 41.2008 55.1676 41.1597Z" fill="#E2066F"/>
<path d="M45.5322 55.3298C45.5322 55.3298 45.224 55.0833 44.8132 54.6313C44.7104 54.5286 44.6283 54.4053 44.5255 54.2821C44.4434 54.1793 44.3817 54.0766 44.2996 53.9739C44.2585 53.8917 44.1968 53.8301 44.1558 53.7479C44.012 53.5014 43.8681 53.2549 43.7243 52.9672C43.6011 52.6796 43.4778 52.3715 43.3751 52.0428C43.3135 51.8168 43.2518 51.5908 43.2313 51.3443C43.1696 50.995 43.1491 50.6047 43.1491 50.2143C43.1491 49.9884 43.1696 49.7624 43.2107 49.5364C43.2518 49.3104 43.2929 49.0844 43.3545 48.8584C43.5394 48.1599 43.8271 47.4204 44.2996 46.6191C44.4434 46.3521 44.6077 46.1055 44.7515 45.859C46.8059 42.3665 48.1208 39.7369 47.5661 35.6692C47.525 35.3815 47.4839 35.0734 47.4223 34.7858C47.4017 34.9912 47.3606 35.1761 47.3195 35.3199C47.3195 35.3405 47.3195 35.3405 47.3195 35.361C47.299 35.4637 47.2784 35.5459 47.2579 35.6075C46.354 38.2577 44.8748 40.3327 42.8409 42.5309C42.5739 42.839 42.2863 43.1266 41.9781 43.4348C41.485 43.9484 40.9509 44.4826 40.4167 45.0167C40.1908 45.2427 39.9648 45.4481 39.7388 45.6741C39.5334 45.8795 39.2457 46.1672 38.9376 46.4959C38.7527 47.03 38.5267 47.6463 38.3418 48.2832C38.2596 48.2421 38.1774 48.2216 38.0953 48.1805C34.1508 46.6602 31.5006 44.6058 31.5006 44.6058C31.5006 44.6058 33.5345 47.256 36.9654 49.7418C37.2941 49.9884 37.6228 50.1938 37.9515 50.3787C37.8077 52.618 38.7938 54.7546 43.2518 55.3914C44.0119 55.4942 44.7721 55.4942 45.5528 55.412C45.5528 55.3709 45.5322 55.3503 45.5322 55.3298Z" fill="black"/>
</svg>
