<svg width="72" height="72" viewBox="0 0 72 72" fill="none" xmlns="http://www.w3.org/2000/svg">
<path d="M57.3676 32.604C55.5703 31.1171 54.143 29.9028 52.2497 28.3474C51.8116 25.8731 51.384 23.442 50.9583 21.0645C50.2374 16.9999 46.7196 12.7229 43.0051 11.5417C41.3038 10.9985 39.7201 11.1676 38.2072 12.0687C36.3726 10.1257 34.4545 8.81828 32.364 8.14981C27.4026 6.56228 23.3345 9.43588 23.7905 14.7999C24.0509 17.787 24.3077 21.0287 24.5212 23.6008C21.7131 24.7663 18.8207 25.9932 16.4436 26.9996C13.4847 28.2617 11.4413 30.7923 10.6539 33.7981C9.85218 36.8663 10.3332 40.4188 12.3579 43.5643C14.1578 46.3819 16.7326 48.2927 20.0274 49.3284C19.7546 53.0429 20.4211 56.2515 22.0859 58.8814C23.9676 61.8714 26.7503 63.6631 29.5902 64.1494C32.382 64.6286 35.2003 63.8446 37.3548 61.7967C39.6648 59.5676 41.8495 57.4647 43.932 55.4702C46.3983 56.9526 48.777 58.3829 51.0905 59.7764C54.8734 62.0322 58.7361 59.5792 59.648 54.7919C60.0292 52.7965 59.8613 50.5665 59.1504 48.045C60.4969 47.2157 61.3333 45.9207 61.6736 44.1075C62.3928 40.2571 60.4871 35.1925 57.3674 32.6035L57.3676 32.604ZM57.9978 41.2477C57.7926 42.1738 57.1943 42.7277 56.4461 42.6395C55.8309 42.5657 55.3164 42.316 54.2676 41.5445C52.5379 40.2486 50.7711 38.9208 48.9427 37.5741C48.781 37.4612 48.6015 37.3359 48.4371 37.216C46.9173 36.0952 45.5893 36.3093 45.0818 37.8427C44.5556 39.4122 45.2951 41.2565 46.8604 42.3542C47.0275 42.4689 47.2194 42.6048 47.383 42.7248C49.2904 44.0615 51.1676 45.3653 52.994 46.6365C53.7682 47.1768 54.3449 47.6827 54.7255 48.1403C55.5672 49.1038 55.9671 50.6893 55.6774 52.0129C55.3646 53.4092 54.4642 54.1372 53.371 53.8884C52.818 53.7711 52.4021 53.5463 51.4093 52.9036C49.4841 51.6557 47.5047 50.3617 45.4622 49.0463C45.2747 48.9263 45.0872 48.8019 44.9048 48.6713C44.2603 48.2785 43.64 48.0996 43.0924 48.121H43.0898C42.4782 48.0808 41.8375 48.3023 41.2232 48.7948C41.0526 48.9352 40.8802 49.0694 40.7211 49.2204C38.8155 50.7884 36.8396 52.461 34.7455 54.2201C33.6141 55.1658 33.1047 55.5346 32.3494 55.8005C30.8278 56.3817 29.1461 55.7294 28.0937 54.0557C27.1027 52.4264 27.1453 50.3119 28.1719 48.9787C28.6082 48.3858 29.346 47.7078 30.3628 46.9869C32.5786 45.402 34.678 43.9098 36.6716 42.4789C36.8529 42.3553 37.0271 42.2336 37.2086 42.1054C38.7204 41.0317 39.0103 39.1332 37.9437 37.3637C36.9047 35.5984 35.1865 35.0626 33.5557 36.0474C33.3717 36.1585 33.1887 36.2696 33.0054 36.3913C30.8953 37.6845 28.6822 39.0507 26.3491 40.4897C24.8445 41.3972 24.0498 41.6904 22.9263 41.742C21.5381 41.8139 20.0847 40.9589 19.2388 39.6124C18.2806 38.1121 18.2486 36.2482 19.1686 35.0919C19.6857 34.4119 20.2396 33.9996 21.8289 33.1845C24.2908 31.91 26.6517 30.7119 28.8915 29.5875C29.0825 29.4711 29.2754 29.3911 29.4738 29.2943C29.6106 29.2267 29.7368 29.1468 29.8479 29.0659C30.8505 28.6234 31.3383 27.5168 31.1819 26.0181C31.1553 25.7666 31.1375 25.524 31.0957 25.2839C30.8229 22.6236 30.5517 20.0168 30.2682 17.4686C30.1038 15.9115 30.1198 15.3639 30.3171 14.7461C30.6316 13.7648 31.7427 13.3374 32.989 13.6733C34.0866 13.9692 35.1372 14.8296 35.7097 15.8722C36.1771 16.7397 36.3924 17.4544 36.5817 18.9324C36.8918 21.3588 37.211 23.8219 37.5327 26.3425C37.5647 26.5726 37.5967 26.7992 37.6251 27.0305C37.8962 29.1263 39.1423 30.6337 40.7573 30.8472C42.3135 31.0542 43.1393 29.8348 42.8558 27.8758C42.8301 27.6608 42.7972 27.4342 42.7679 27.2233C42.416 24.812 42.0683 22.4494 41.7288 20.1367C41.5804 19.1368 41.5289 18.3706 41.6098 17.8765C41.7306 16.7797 42.6044 16.2081 43.7216 16.5096C44.8495 16.8188 45.9063 17.8587 46.3944 19.0977C46.6441 19.7244 46.7578 20.2096 46.9509 21.3695C47.3205 23.5879 47.6424 25.8144 48.021 28.1173L48.1534 28.7582C48.2707 29.3254 48.3178 29.4382 48.42 29.7457L48.3951 29.6444L48.3889 29.6284L48.3809 29.6124L48.3773 29.5822V29.5775L48.388 29.5749C48.5835 30.4477 49.1587 31.309 50.0457 32.0048C50.2003 32.1283 50.3727 32.2483 50.5283 32.3816C52.2491 33.7334 53.9279 35.0677 55.5768 36.3573C56.5687 37.1369 56.9259 37.4985 57.318 38.0479C57.9536 38.9421 58.2202 40.2468 57.999 41.2477H57.9978Z" fill="#97BEEF" fill-opacity="0.94"/>
</svg>
