<svg width="72" height="72" viewBox="0 0 72 72" fill="none" xmlns="http://www.w3.org/2000/svg">
<g clip-path="url(#clip0_201_1116)">
<path d="M2.18335 50.4484H-3.05176e-05V27.5831C1.73636 27.033 3.55871 26.7407 5.39824 26.7235C6.58449 26.7063 7.77074 26.9126 8.88821 27.3252C9.88535 27.6863 10.8137 28.2536 11.5873 28.9929C12.3438 29.7149 12.9283 30.5745 13.3065 31.5545C13.7192 32.5688 13.9083 33.6691 13.9083 34.7694C13.9083 36.1791 13.6676 37.3825 13.1862 38.3969C12.7392 39.3596 12.0859 40.202 11.2779 40.8897C10.4871 41.543 9.57589 42.0244 8.57876 42.3166C7.58162 42.6261 6.53291 42.7808 5.4842 42.7808C4.91687 42.7808 4.36673 42.7464 3.81658 42.6605C3.26644 42.5745 2.7163 42.4542 2.18335 42.3166V50.4484ZM11.4154 34.7178C11.4154 32.8954 10.8997 31.4169 9.88535 30.2823C8.87102 29.1648 7.4269 28.5975 5.58736 28.5975C5.00283 28.5975 4.43549 28.6318 3.85097 28.7006C3.28363 28.7694 2.7163 28.9069 2.18335 29.096V40.2536C2.69911 40.4255 3.21487 40.5631 3.74782 40.6834C4.26358 40.8037 4.77933 40.8553 5.31228 40.8553C7.18621 40.8553 8.66472 40.3224 9.765 39.2565C10.8653 38.2078 11.4154 36.6949 11.4154 34.7178Z" fill="black"/>
<path d="M18.3101 42.6287V20.5714H20.5107V42.6115H18.3101V42.6287Z" fill="black"/>
<path d="M38.5446 40.3206C37.8398 41.0942 36.963 41.7132 36.0002 42.1258C35.0375 42.5384 33.8684 42.7447 32.5102 42.7447C31.3756 42.7619 30.2409 42.5556 29.1922 42.0914C28.281 41.696 27.473 41.0942 26.8369 40.3378C26.2008 39.5985 25.7194 38.7389 25.4272 37.8106C25.1005 36.8478 24.9458 35.8335 24.9458 34.8192C24.9114 33.5985 25.1177 32.3607 25.5131 31.2089C25.8398 30.2633 26.3727 29.4037 27.0604 28.6645C27.6965 28.0112 28.4701 27.4954 29.3297 27.1688C30.2065 26.8421 31.1349 26.6874 32.0633 26.6874C34.367 26.6874 36.1206 27.3923 37.2896 28.8192C38.4587 30.2289 39.026 32.292 38.9916 35.0083H27.1807C27.2495 36.7963 27.7653 38.206 28.728 39.2547C29.6908 40.3034 31.0145 40.8364 32.665 40.8364C33.5246 40.8536 34.3842 40.6988 35.1922 40.3722C35.983 40.0455 36.6707 39.547 37.238 38.9109L38.5446 40.3206ZM36.7739 33.1687C36.7739 32.5498 36.6707 31.9309 36.4816 31.3464C36.2925 30.8135 36.0174 30.3149 35.6392 29.9023C35.2438 29.4725 34.7452 29.1458 34.2123 28.9395C32.8885 28.4582 31.4272 28.4582 30.1034 28.9395C29.5876 29.1458 29.1062 29.4553 28.728 29.8679C28.3498 30.2977 28.0403 30.7791 27.7996 31.2948C27.5074 31.8794 27.3355 32.5155 27.2495 33.1687H36.7739Z" fill="black"/>
<path d="M53.4159 30.5958C52.9345 29.9597 52.3328 29.444 51.6279 29.0657C50.923 28.7219 50.1322 28.55 49.3586 28.5844C48.2411 28.5844 47.4503 28.7907 47.0033 29.1861C46.5563 29.5643 46.3156 30.1144 46.3328 30.699C46.3156 31.0772 46.4359 31.4554 46.6422 31.7649C46.8657 32.0743 47.1408 32.3322 47.4675 32.5213C47.8457 32.7448 48.2411 32.9339 48.6537 33.0715C49.1007 33.2262 49.5649 33.3809 50.0634 33.5356C50.6652 33.7248 51.2497 33.9311 51.8514 34.1546C52.4359 34.3609 52.9861 34.6531 53.4846 35.0142C53.966 35.358 54.3786 35.805 54.6881 36.3207C55.0147 36.9053 55.1695 37.5758 55.1523 38.2634C55.1695 38.9339 54.9975 39.5872 54.6881 40.1889C54.3786 40.7563 53.9488 41.2377 53.4331 41.6159C52.8657 42.0285 52.2296 42.3207 51.5591 42.4927C49.7024 42.974 47.7253 42.8709 45.9374 42.1832C44.8887 41.719 43.9431 41.0142 43.2039 40.1546L44.9231 38.6417C46.0749 40.1202 47.5534 40.8422 49.3758 40.8422C50.562 40.8422 51.4388 40.6187 52.0233 40.1718C52.5907 39.7248 52.8829 39.1918 52.8829 38.5729C52.9001 38.1431 52.797 37.7305 52.5735 37.3523C52.35 37.0084 52.0577 36.7334 51.7139 36.5099C51.3185 36.2692 50.9059 36.0629 50.4589 35.9253C49.9775 35.7706 49.4789 35.6159 48.9632 35.4611C48.3614 35.2892 47.7769 35.1001 47.1924 34.8938C46.6422 34.7047 46.1093 34.4296 45.6279 34.0858C45.1637 33.7591 44.7683 33.3293 44.4933 32.848C44.1838 32.2634 44.0291 31.593 44.0463 30.9225C44.0463 29.5299 44.5448 28.464 45.5592 27.7076C46.5735 26.9511 47.8801 26.5729 49.4961 26.5729C50.5448 26.5557 51.5763 26.762 52.5391 27.1574C53.4331 27.5356 54.2755 28.2061 55.1007 29.1517L53.4846 30.6302L53.4159 30.5958Z" fill="black"/>
<path d="M59.2609 42.6307V20.6078H61.4614V42.6307H59.2609ZM61.4786 34.4989L69.0431 26.8657H72.0001L64.2465 34.4301L71.9657 42.6135H68.9056L61.4786 34.4989Z" fill="black"/>
<path d="M25.978 50.4502H12.7058V48.37H25.978V50.4502Z" fill="#53BCE6"/>
</g>
<defs>
<clipPath id="clip0_201_1116">
<rect width="72" height="72" fill="white"/>
</clipPath>
</defs>
</svg>
