<svg width="72" height="72" viewBox="0 0 72 72" fill="none" xmlns="http://www.w3.org/2000/svg">
<g clip-path="url(#clip0_201_32)">
<path d="M20.049 51.1598C20.1543 50.9493 20.2596 50.6334 20.1543 50.4228C20.049 50.0017 19.8384 50.107 19.4173 50.3175C17.9432 51.2651 16.2587 51.6863 14.5741 52.1074C12.5736 52.5286 10.5732 52.5286 8.57272 52.318C8.25686 52.318 7.62514 52.0021 7.51985 51.7916C5.62469 49.2647 4.78239 46.3166 4.15067 43.2633C3.72953 41.2629 3.51895 39.0519 3.51895 36.9461C3.51895 35.8932 4.25596 35.4721 5.30883 35.4721C19.6278 35.4721 34.0521 35.4721 48.3711 35.4721C50.2663 35.4721 51.8456 34.9457 53.5302 34.2087C53.6355 34.2087 53.6355 34.1034 53.7408 34.1034C55.0042 33.4717 55.0042 33.6822 54.2672 32.4188C53.0038 30.313 52.6879 27.9967 53.3196 25.6804C53.6355 24.6276 54.0566 23.5747 54.5831 22.6271C54.6884 22.4165 55.1095 22.3113 55.4254 22.5218C57.5311 24.1011 59.2157 25.891 59.5315 28.5232C59.6368 29.6813 59.4263 29.7866 60.5844 29.576C62.9007 29.1549 65.1117 29.1549 67.3228 30.1025C68.0598 30.4183 68.2704 30.4183 67.9545 31.1553C66.6911 33.4717 64.48 34.9457 61.8479 35.4721C60.9003 35.6827 59.8474 35.5774 58.8998 35.5774C58.584 35.5774 58.4787 35.5774 58.2681 35.8932C57.11 38.8413 55.7412 41.7893 53.9513 44.4215C51.7403 47.8959 49.0029 50.9493 45.5284 53.2656C42.0539 55.5819 38.3689 56.8453 34.368 57.6876C32.5781 58.0035 30.7882 58.2141 28.9984 58.2141C27.7349 57.6876 26.3662 56.9506 25.3133 56.2136C23.2076 54.9502 21.4177 53.3709 20.049 51.1598ZM23.9446 44.3162C22.6812 44.3162 21.7336 45.2638 21.7336 46.5272C21.7336 47.7907 22.6812 48.7382 23.9446 48.7382C25.1028 48.7382 26.1556 47.7907 26.1556 46.5272C26.1556 45.2638 25.1028 44.3162 23.9446 44.3162Z" fill="#2495EC"/>
<path d="M19.6279 27.3641C20.4702 27.3641 21.4178 27.3641 22.2601 27.3641C22.8918 27.3641 23.4182 27.4694 23.5235 28.1011C23.6288 29.6804 23.6288 31.9968 23.313 33.4708C23.2077 33.9972 22.9971 34.3131 22.4707 34.3131C20.6808 34.3131 18.8909 34.3131 17.101 34.3131C16.5746 34.3131 15.9429 33.9972 15.9429 33.4708C15.9429 31.9968 15.8376 30.4175 15.8376 28.9434C15.8376 28.3117 16.364 27.5747 17.101 27.5747C17.9433 27.3641 18.7856 27.3641 19.6279 27.3641Z" fill="#2493EA"/>
<path d="M28.0508 27.7856C28.8931 27.7856 29.8406 27.7856 30.7882 27.7856C31.4199 27.7856 31.6305 27.9962 31.6305 28.6279C31.6305 30.1019 31.6305 32.2076 31.6305 33.6816C31.6305 34.2081 31.3147 34.5239 30.7882 34.5239C28.9983 34.5239 27.2085 34.5239 25.4186 34.5239C24.7869 34.5239 23.9446 34.2081 23.9446 33.5764C23.9446 32.1023 23.9446 30.1019 23.9446 28.5226C23.9446 27.7856 24.7869 27.575 25.5239 27.575C26.2609 27.7856 27.2085 27.7856 28.0508 27.7856Z" fill="#2493EA"/>
<path d="M28.0509 20.3102C28.8931 20.3102 29.946 20.3102 30.7883 20.3102C31.42 20.3102 31.6306 20.5208 31.6306 21.1525C31.6306 22.7318 31.6306 24.2059 31.6306 25.7852C31.6306 26.4169 31.42 26.6274 30.7883 26.6274C28.8931 26.6274 27.1033 26.6274 25.2081 26.6274C24.6817 26.6274 24.3658 26.3116 24.3658 25.7852C24.3658 24.2059 24.3658 22.6266 24.3658 21.1525C24.3658 20.6261 24.6817 20.3102 25.2081 20.3102C26.3663 20.3102 27.2086 20.3102 28.0509 20.3102Z" fill="#2493EA"/>
<path d="M36.1579 26.8378C35.3156 26.8378 33.9469 26.8378 33.1046 26.8378C32.4729 26.8378 32.3676 26.4167 32.3676 25.785C32.3676 24.2057 32.3676 22.7317 32.3676 21.1524C32.3676 20.5206 32.5782 20.3101 33.2099 20.3101C34.9998 20.3101 37.1055 20.2048 38.8954 20.2048C39.5271 20.2048 39.7377 20.6259 39.7377 21.2576C39.7377 22.7317 39.7377 24.311 39.7377 25.785C39.7377 26.522 39.5271 26.9431 38.7901 26.9431C37.8425 26.8378 37.0002 26.8378 36.1579 26.8378Z" fill="#2495EB"/>
<path d="M36.158 12.7301C37.0003 12.7301 37.8426 12.7301 38.6849 12.7301C39.4219 12.7301 39.6325 12.9407 39.6325 13.5724C39.6325 15.0464 39.6325 17.0469 39.6325 18.5209C39.6325 19.1526 39.4219 19.3632 38.7902 19.3632C37.0003 19.3632 35.3157 19.3632 33.5259 19.3632C32.8941 19.3632 32.6836 19.1526 32.6836 18.5209C32.6836 16.9416 32.6836 14.9411 32.6836 13.4671C32.6836 12.8354 32.8941 12.6248 33.5259 12.6248C34.3682 12.7301 35.3157 12.7301 36.158 12.7301Z" fill="#2495EB"/>
<path d="M36.158 27.8914C37.0003 27.8914 37.8426 27.8914 38.6849 27.8914C39.4219 27.8914 39.6325 28.102 39.6325 28.7337C39.6325 30.2077 39.6325 31.787 39.6325 33.261C39.6325 33.9981 39.4219 34.2086 38.6849 34.2086C37.0003 34.2086 35.3157 34.2086 33.6311 34.2086C32.8941 34.2086 32.6836 33.9981 32.6836 33.261C32.6836 31.787 32.6836 30.2077 32.6836 28.7337C32.6836 28.102 32.8941 27.8914 33.5259 27.8914C34.3682 27.8914 35.3157 27.8914 36.158 27.8914Z" fill="#2495EB"/>
<path d="M44.3703 27.8914C45.2126 27.8914 46.0549 27.8914 46.8972 27.8914C47.6342 27.8914 47.8448 28.102 47.8448 28.7337C47.8448 30.2077 47.8448 31.787 47.8448 33.261C47.8448 33.9981 47.6342 34.2086 46.8972 34.2086C45.2126 34.2086 43.528 34.2086 41.8434 34.2086C41.1064 34.2086 40.8958 33.9981 40.8958 33.261C40.8958 31.787 40.8958 30.2077 40.8958 28.7337C40.8958 28.102 41.1064 27.8914 41.7381 27.8914C42.6857 27.8914 43.528 27.8914 44.3703 27.8914Z" fill="#2495EB"/>
<path d="M23.9447 44.3156C25.2081 44.3156 26.1557 45.2632 26.1557 46.5266C26.1557 47.6848 25.2081 48.7377 23.9447 48.7377C22.6812 48.7377 21.7336 47.7901 21.7336 46.5266C21.7336 45.2632 22.6812 44.3156 23.9447 44.3156ZM25.1028 46.2108C24.4711 46.3161 24.05 46.1055 24.05 45.6843C24.1552 45.1579 23.8394 45.2632 23.5235 45.2632C22.8918 45.4738 22.4707 46.0002 22.5759 46.7372C22.6812 47.3689 23.3129 47.7901 23.9447 47.6848C24.787 47.6848 25.2081 47.0531 25.1028 46.2108Z" fill="#FDFDFE"/>
<path d="M18.1539 31.0499C18.1539 31.5763 18.1539 31.9975 18.1539 32.5239C18.1539 32.7345 18.1539 32.8398 17.9433 32.8398C17.7327 32.8398 17.6274 32.7345 17.6274 32.5239C17.6274 31.5763 17.6274 30.5235 17.6274 29.5759C17.6274 29.3653 17.6274 29.26 17.838 29.26C18.0486 29.26 18.1539 29.3653 18.1539 29.5759C18.1539 29.997 18.1539 30.5235 18.1539 31.0499Z" fill="#2A56A2"/>
<path d="M21.3124 30.9445C21.3124 30.418 21.3124 29.9969 21.3124 29.4705C21.3124 29.2599 21.4177 29.1546 21.6283 29.1546C21.8388 29.1546 21.8388 29.2599 21.8388 29.4705C21.8388 30.418 21.8388 31.4709 21.8388 32.4185C21.8388 32.6291 21.7336 32.7343 21.523 32.7343C21.3124 32.7343 21.3124 32.6291 21.3124 32.4185C21.3124 31.9973 21.3124 31.4709 21.3124 30.9445Z" fill="#2A56A2"/>
<path d="M20.0491 31.0495C20.0491 31.5759 20.0491 31.9971 20.0491 32.5235C20.0491 32.7341 20.0491 32.9447 19.7333 32.8394C19.4174 32.8394 19.4174 32.6288 19.4174 32.4182C19.4174 31.4707 19.4174 30.4178 19.4174 29.4702C19.4174 29.2596 19.4174 29.0491 19.7333 29.0491C20.0491 29.0491 20.0491 29.2596 20.0491 29.4702C20.0491 30.1019 20.0491 30.5231 20.0491 31.0495Z" fill="#2A56A2"/>
<path d="M25.8398 30.9442C25.8398 30.4178 25.8398 29.9967 25.8398 29.4702C25.8398 29.2596 25.9451 29.0491 26.1557 29.0491C26.3663 29.0491 26.4716 29.2596 26.4716 29.4702C26.4716 30.4178 26.4716 31.4707 26.4716 32.4182C26.4716 32.6288 26.3663 32.8394 26.1557 32.8394C25.8398 32.8394 25.8398 32.6288 25.8398 32.4182C25.8398 31.9971 25.8398 31.4707 25.8398 30.9442Z" fill="#2A56A2"/>
<path d="M28.3667 30.9442C28.3667 31.4707 28.3667 31.8918 28.3667 32.4183C28.3667 32.7341 28.2614 32.9447 27.9456 32.8394C27.6297 32.8394 27.6297 32.6288 27.6297 32.4183C27.6297 31.4707 27.6297 30.5231 27.6297 29.5755C27.6297 29.3649 27.6297 29.0491 27.9456 29.0491C28.2614 29.0491 28.2614 29.3649 28.2614 29.5755C28.3667 30.1019 28.3667 30.5231 28.3667 30.9442Z" fill="#2A56A2"/>
<path d="M29.6301 30.9442C29.6301 30.4178 29.6301 29.9967 29.6301 29.4702C29.6301 29.2596 29.6301 29.0491 29.946 29.0491C30.2619 29.0491 30.2619 29.2596 30.2619 29.4702C30.2619 30.4178 30.2619 31.3654 30.2619 32.313C30.2619 32.5235 30.2619 32.7341 29.946 32.7341C29.6301 32.7341 29.6301 32.5235 29.6301 32.313C29.6301 31.8918 29.6301 31.4707 29.6301 30.9442Z" fill="#2A56A2"/>
<path d="M38.369 23.4687C38.369 23.9951 38.369 24.4163 38.369 24.9427C38.369 25.1533 38.2637 25.3639 38.0531 25.3639C37.7373 25.3639 37.7373 25.1533 37.7373 24.9427C37.7373 23.9951 37.7373 23.0476 37.7373 22.1C37.7373 21.8894 37.7373 21.6788 38.0531 21.6788C38.369 21.6788 38.369 21.8894 38.369 22.1C38.369 22.5211 38.369 23.0476 38.369 23.4687Z" fill="#2A56A2"/>
<path d="M35.8421 23.4687C35.8421 23.0476 35.8421 22.5211 35.8421 22.1C35.8421 21.8894 35.8421 21.6788 36.158 21.6788C36.4739 21.6788 36.4739 21.8894 36.4739 22.1C36.4739 23.0476 36.4739 23.9951 36.4739 24.9427C36.4739 25.1533 36.4739 25.3639 36.158 25.3639C35.8421 25.3639 35.8421 25.1533 35.8421 24.9427C35.8421 24.4163 35.8421 23.8899 35.8421 23.4687Z" fill="#2A56A2"/>
<path d="M33.947 23.3632C33.947 22.9421 33.947 22.4157 33.947 21.9945C33.947 21.7839 33.947 21.5734 34.2628 21.5734C34.5787 21.5734 34.5787 21.6787 34.5787 21.9945C34.5787 22.9421 34.5787 23.995 34.5787 24.9425C34.5787 25.1531 34.4734 25.3637 34.2628 25.3637C33.947 25.3637 33.947 25.1531 33.947 24.9425C33.947 24.4161 33.947 23.8897 33.947 23.3632Z" fill="#2A56A2"/>
<path d="M30.2619 23.4686C30.2619 23.9951 30.2619 24.4162 30.2619 24.9427C30.2619 25.1532 30.1566 25.3638 29.946 25.3638C29.6301 25.3638 29.6301 25.1532 29.6301 24.9427C29.6301 23.9951 29.6301 23.0475 29.6301 22.0999C29.6301 21.8893 29.6301 21.6788 29.946 21.6788C30.2619 21.6788 30.2619 21.8893 30.2619 22.0999C30.2619 22.5211 30.2619 23.0475 30.2619 23.4686Z" fill="#2A56A2"/>
<path d="M27.735 23.4686C27.735 23.0475 27.735 22.5211 27.735 22.0999C27.735 21.8893 27.735 21.6788 28.0508 21.6788C28.3667 21.6788 28.3667 21.8893 28.3667 22.0999C28.3667 23.0475 28.3667 23.9951 28.3667 24.9427C28.3667 25.1532 28.3667 25.3638 28.0508 25.3638C27.735 25.3638 27.735 25.1532 27.735 24.9427C27.735 24.4162 27.735 23.8898 27.735 23.4686Z" fill="#2A56A2"/>
<path d="M25.8398 23.3632C25.8398 22.9421 25.8398 22.4157 25.8398 21.9945C25.8398 21.7839 25.8398 21.5734 26.1557 21.5734C26.4716 21.5734 26.4716 21.6787 26.4716 21.9945C26.4716 22.9421 26.4716 23.995 26.4716 24.9425C26.4716 25.1531 26.3663 25.3637 26.1557 25.3637C25.8398 25.3637 25.8398 25.1531 25.8398 24.9425C25.8398 24.4161 25.8398 23.8897 25.8398 23.3632Z" fill="#2A56A2"/>
<path d="M19.7333 20.3102C20.5756 20.3102 21.6284 20.3102 22.4707 20.3102C23.1024 20.3102 23.313 20.5208 23.313 21.1525C23.313 22.7318 23.313 24.2059 23.313 25.7852C23.313 26.4169 23.1024 26.6274 22.4707 26.6274C20.5756 26.6274 18.7857 26.6274 16.8905 26.6274C16.3641 26.6274 16.0482 26.3116 16.0482 25.7852C16.0482 24.2059 16.0482 22.6266 16.0482 21.1525C16.0482 20.6261 16.3641 20.3102 16.8905 20.3102C18.0487 20.3102 18.891 20.3102 19.7333 20.3102Z" fill="#2493EA"/>
<path d="M21.9444 23.4686C21.9444 23.9951 21.9444 24.4162 21.9444 24.9427C21.9444 25.1532 21.8391 25.3638 21.6285 25.3638C21.3127 25.3638 21.3127 25.1532 21.3127 24.9427C21.3127 23.9951 21.3127 23.0475 21.3127 22.0999C21.3127 21.8893 21.3127 21.6788 21.6285 21.6788C21.9444 21.6788 21.9444 21.8893 21.9444 22.0999C21.9444 22.5211 21.9444 23.0475 21.9444 23.4686Z" fill="#2A56A2"/>
<path d="M19.4174 23.4686C19.4174 23.0475 19.4174 22.5211 19.4174 22.0999C19.4174 21.8893 19.4174 21.6788 19.7332 21.6788C20.0491 21.6788 20.0491 21.8893 20.0491 22.0999C20.0491 23.0475 20.0491 23.9951 20.0491 24.9427C20.0491 25.1532 20.0491 25.3638 19.7332 25.3638C19.4174 25.3638 19.4174 25.1532 19.4174 24.9427C19.4174 24.4162 19.4174 23.8898 19.4174 23.4686Z" fill="#2A56A2"/>
<path d="M17.5222 23.3632C17.5222 22.9421 17.5222 22.4157 17.5222 21.9945C17.5222 21.7839 17.5222 21.5734 17.8381 21.5734C18.154 21.5734 18.154 21.6787 18.154 21.9945C18.154 22.9421 18.154 23.995 18.154 24.9425C18.154 25.1531 18.0487 25.3637 17.8381 25.3637C17.5222 25.3637 17.5222 25.1531 17.5222 24.9425C17.5222 24.4161 17.5222 23.8897 17.5222 23.3632Z" fill="#2A56A2"/>
<path d="M11.8367 27.6793C12.679 27.6793 13.6266 27.8899 14.4689 27.8899C15.1006 27.8899 15.3112 28.1005 15.3112 28.7322C15.3112 30.3115 15.3112 31.7855 15.3112 33.3648C15.3112 33.9965 15.1006 34.2071 14.4689 34.2071C12.5737 34.2071 10.7838 34.2071 8.88868 34.2071C8.36225 34.2071 8.04639 33.8912 8.04639 33.3648C8.04639 31.7855 8.04639 30.2062 8.04639 28.7322C8.04639 28.2058 8.36225 27.8899 8.88868 27.8899C10.0468 27.8899 10.9944 27.6793 11.8367 27.6793Z" fill="#2493EA"/>
<path d="M13.8371 31.0499C13.8371 31.5763 13.8371 31.9975 13.8371 32.5239C13.8371 32.7345 13.7319 32.945 13.5213 32.945C13.2054 32.945 13.2054 32.7345 13.2054 32.5239C13.2054 31.5763 13.2054 30.6287 13.2054 29.6812C13.2054 29.4706 13.2054 29.26 13.5213 29.26C13.8371 29.26 13.8371 29.4706 13.8371 29.6812C13.8371 30.1023 13.8371 30.6287 13.8371 31.0499Z" fill="#2A56A2"/>
<path d="M11.3103 31.0499C11.3103 30.6287 11.3103 30.1023 11.3103 29.6812C11.3103 29.4706 11.3103 29.26 11.6261 29.26C11.942 29.26 11.942 29.4706 11.942 29.6812C11.942 30.6287 11.942 31.5763 11.942 32.5239C11.942 32.7345 11.942 32.945 11.6261 32.945C11.3103 32.945 11.3103 32.7345 11.3103 32.5239C11.3103 31.9975 11.3103 31.471 11.3103 31.0499Z" fill="#2A56A2"/>
<path d="M9.41513 30.9445C9.41513 30.5233 9.41513 29.9969 9.41513 29.5758C9.41513 29.3652 9.41513 29.1546 9.73099 29.1546C10.0469 29.1546 10.0469 29.2599 10.0469 29.5758C10.0469 30.5233 10.0469 31.5762 10.0469 32.5238C10.0469 32.7344 9.94156 32.9449 9.73099 32.9449C9.41513 32.9449 9.41513 32.7344 9.41513 32.5238C9.41513 31.9974 9.41513 31.4709 9.41513 30.9445Z" fill="#2A56A2"/>
<path d="M33.947 15.8886C33.947 15.3621 33.947 14.941 33.947 14.4146C33.947 14.204 33.947 13.9934 34.2628 13.9934C34.5787 13.9934 34.5787 14.0987 34.5787 14.4146C34.5787 15.3621 34.5787 16.415 34.5787 17.3626C34.5787 17.5732 34.4734 17.7837 34.2628 17.7837C33.947 17.7837 33.947 17.5732 33.947 17.3626C33.947 16.9414 33.947 16.415 33.947 15.8886Z" fill="#2A56A2"/>
<path d="M35.8421 15.994C35.8421 15.4676 35.8421 15.0465 35.8421 14.52C35.8421 14.3095 35.8421 14.0989 36.158 14.0989C36.4739 14.0989 36.4739 14.2042 36.4739 14.52C36.4739 15.4676 36.4739 16.5205 36.4739 17.4681C36.4739 17.6786 36.4739 17.8892 36.158 17.8892C35.8421 17.8892 35.8421 17.6786 35.8421 17.4681C35.8421 16.9416 35.8421 16.4152 35.8421 15.994Z" fill="#2A56A2"/>
<path d="M38.369 15.994C38.369 16.5205 38.369 16.9416 38.369 17.4681C38.369 17.6786 38.369 17.8892 38.0531 17.8892C37.7373 17.8892 37.7373 17.6786 37.7373 17.4681C37.7373 16.5205 37.7373 15.4676 37.7373 14.52C37.7373 14.3095 37.8426 14.0989 38.0531 14.0989C38.369 14.0989 38.369 14.3095 38.369 14.52C38.369 14.9412 38.369 15.4676 38.369 15.994Z" fill="#2A56A2"/>
<path d="M36.4739 31.0498C36.4739 31.5762 36.4739 31.9974 36.4739 32.5238C36.4739 32.7344 36.4739 32.9449 36.158 32.9449C35.8421 32.9449 35.8421 32.8397 35.8421 32.5238C35.8421 31.5762 35.8421 30.5233 35.8421 29.5758C35.8421 29.3652 35.8421 29.1546 36.158 29.1546C36.4739 29.1546 36.4739 29.3652 36.4739 29.681C36.4739 30.1022 36.4739 30.5233 36.4739 31.0498Z" fill="#2A56A2"/>
<path d="M34.5787 30.9442C34.5787 31.4707 34.5787 31.8918 34.5787 32.4182C34.5787 32.6288 34.5787 32.8394 34.2628 32.8394C33.947 32.8394 33.947 32.7341 33.947 32.4182C33.947 31.4707 33.947 30.4178 33.947 29.4702C33.947 29.2596 33.947 29.0491 34.2628 29.0491C34.5787 29.0491 34.5787 29.2596 34.5787 29.4702C34.5787 29.9967 34.5787 30.5231 34.5787 30.9442Z" fill="#2A56A2"/>
<path d="M38.369 31.0498C38.369 31.5762 38.369 31.9974 38.369 32.5238C38.369 32.7344 38.369 32.9449 38.0531 32.9449C37.7373 32.9449 37.7373 32.8397 37.7373 32.5238C37.7373 31.5762 37.7373 30.5233 37.7373 29.5758C37.7373 29.3652 37.7373 29.1546 38.0531 29.1546C38.369 29.1546 38.369 29.3652 38.369 29.5758C38.369 29.9969 38.369 30.5233 38.369 31.0498Z" fill="#2A56A2"/>
<path d="M42.1593 31.0498C42.1593 30.5233 42.1593 30.1022 42.1593 29.5757C42.1593 29.3652 42.2646 29.1546 42.4751 29.1546C42.791 29.1546 42.791 29.3652 42.791 29.5757C42.791 30.5233 42.791 31.5762 42.791 32.5238C42.791 32.7343 42.6857 32.8396 42.4751 32.8396C42.1593 32.8396 42.1593 32.7343 42.1593 32.5238C42.1593 31.9973 42.1593 31.4709 42.1593 31.0498Z" fill="#2A56A2"/>
<path d="M44.6863 31.0498C44.6863 31.5762 44.6863 31.9974 44.6863 32.5238C44.6863 32.7344 44.6863 32.9449 44.3704 32.9449C44.0546 32.9449 44.0546 32.8397 44.0546 32.5238C44.0546 31.5762 44.0546 30.5233 44.0546 29.5758C44.0546 29.3652 44.0546 29.1546 44.3704 29.1546C44.6863 29.1546 44.6863 29.3652 44.6863 29.5758C44.6863 29.9969 44.6863 30.5233 44.6863 31.0498Z" fill="#2A56A2"/>
<path d="M45.9496 30.9442C45.9496 30.4178 45.9496 29.9967 45.9496 29.4702C45.9496 29.2596 45.9496 29.0491 46.2654 29.0491C46.5813 29.0491 46.5813 29.2596 46.5813 29.4702C46.5813 30.4178 46.5813 31.4707 46.5813 32.4182C46.5813 32.6288 46.5813 32.8394 46.2654 32.8394C45.9496 32.8394 45.9496 32.7341 45.9496 32.4182C45.9496 31.9971 45.9496 31.4707 45.9496 30.9442Z" fill="#2A56A2"/>
<path d="M22.4707 59.3716C20.3649 59.1611 18.2592 58.8452 16.2587 58.3188C11.6261 57.1606 8.15164 54.6337 5.83533 50.4223C4.25603 47.4742 3.41374 44.4209 2.8873 41.157C2.78202 40.42 2.78202 39.683 2.57144 38.946C2.57144 37.9984 2.57144 37.0508 2.57144 36.2085C2.67673 36.2085 2.67673 36.1032 2.67673 35.998C3.20316 34.8398 4.04546 34.2081 5.3089 34.2081C5.73005 34.2081 6.04591 34.2081 6.46706 34.2081C6.8882 34.2081 6.99349 34.1028 6.99349 33.6816C6.99349 31.8918 6.99349 30.1019 6.99349 28.312C6.99349 27.1539 7.51992 26.6274 8.67808 26.6274C10.6785 26.6274 12.679 26.6274 14.6794 26.6274C14.9953 26.6274 15.1006 26.5221 15.1006 26.2063C15.1006 24.4164 15.1006 22.6265 15.1006 20.8367C15.1006 19.5732 15.627 19.0468 16.8905 19.0468C21.5231 19.0468 26.261 19.0468 30.8936 19.0468C31.42 19.0468 31.5253 18.8362 31.5253 18.4151C31.5253 16.8358 31.5253 15.1512 31.5253 13.5719C31.5253 12.7296 31.5253 11.5714 32.4729 11.5714C34.9998 11.5714 37.4214 11.5714 39.9483 11.5714C40.7906 11.8873 41.0011 12.6243 41.0011 13.4666C41.0011 17.678 41.0011 21.8895 41.0011 26.101C41.0011 26.6274 41.1064 26.7327 41.6329 26.7327C43.6333 26.7327 45.6338 26.7327 47.6342 26.7327C48.7924 26.7327 49.3188 27.2591 49.3188 28.4173C49.3188 30.2072 49.3188 31.8918 49.3188 33.6816C49.3188 34.2081 49.4241 34.4187 49.9505 34.3134C51.1087 34.1028 52.1615 33.8922 53.2144 33.4711C53.425 33.3658 53.5303 33.2605 53.425 33.0499C51.3193 29.1543 52.0563 25.4693 54.162 21.9948C54.6884 21.0472 54.7937 21.0472 55.7413 21.6789C58.1629 23.2583 59.8475 25.4693 60.4792 28.312C60.5845 28.7332 60.7951 28.8385 61.1109 28.7332C63.1114 28.4173 65.0065 28.5226 67.007 29.049C67.9546 29.3649 68.6916 29.8913 69.4286 30.4178C69.3233 30.2072 69.3233 30.3125 69.3233 30.4178C69.218 30.4178 69.218 30.523 69.218 30.6283C67.8493 34.1028 65.2171 35.8927 61.6374 36.5244C60.9004 36.6297 60.2686 36.735 59.5316 36.6297C59.1105 36.6297 59.0052 36.735 58.8999 37.0508C57.7417 39.8936 56.373 42.7363 54.6884 45.3685C50.0558 52.2121 43.6333 56.4236 35.7368 58.3188C33.5258 58.8452 30.9989 59.2663 29.209 59.3716C27.4191 59.4769 22.4707 59.3716 22.4707 59.3716ZM20.0491 51.1593C19.8385 51.1593 19.6279 51.2645 19.5226 51.3698C17.2063 52.6333 14.6794 53.3703 12.0473 53.4756C11.205 53.4756 10.3627 53.4756 9.52037 53.4756C10.5732 54.5284 12.1525 55.5813 13.8371 56.213C16.4693 57.2659 19.2068 57.687 22.0495 58.0029C24.2605 58.2135 26.5768 58.2135 28.7879 58.0029C30.5777 57.8976 32.2623 57.687 34.0522 57.3712C38.0531 56.5289 41.8434 55.1602 45.3179 52.8439C48.7924 50.6328 51.5298 47.6848 53.7408 44.2103C55.4254 41.5782 56.7942 38.7354 57.9523 35.7874C58.0576 35.4715 58.2682 35.3662 58.6893 35.3662C59.6369 35.3662 60.6898 35.4715 61.6374 35.261C64.2695 34.7345 66.27 33.4711 67.6387 31.1548C68.0599 30.523 67.9546 30.4178 67.2176 30.1019C65.0065 29.1543 62.7955 29.2596 60.4792 29.5755C59.3211 29.786 59.4263 29.786 59.2158 28.6279C58.8999 25.9957 57.4259 23.9953 55.3202 22.5212C55.1096 22.3107 55.0043 22.416 54.7937 22.6265C54.2673 23.5741 53.8461 24.627 53.5303 25.6798C52.8986 27.9962 53.1091 30.2072 54.3726 32.3129C55.1096 33.4711 55.1096 33.5764 53.8461 34.2081C53.7409 34.2081 53.7408 34.3134 53.6356 34.3134C51.951 35.0504 50.1611 35.4715 48.2659 35.4715C33.9469 35.4715 19.5226 35.4715 5.20361 35.4715C4.15074 35.4715 3.62431 35.998 3.62431 37.0508C3.62431 39.1566 3.83488 41.2623 4.25603 43.2627C4.88775 46.3161 5.94062 49.1588 7.83578 51.791C8.04636 51.8963 8.25693 52.2121 8.57279 52.2121C10.5732 52.4227 12.4684 52.4227 14.4689 52.0016C16.1534 51.5804 17.838 51.054 19.312 50.1064C19.7332 49.8958 20.1543 50.0011 20.2596 50.4223C20.3649 50.7381 20.1543 50.9487 20.0491 51.1593ZM19.7332 20.3102C18.8909 20.3102 17.9433 20.3102 17.101 20.3102C16.5746 20.3102 16.2587 20.5208 16.2587 21.1525C16.2587 22.7318 16.2587 24.3111 16.2587 25.7851C16.2587 26.4169 16.4693 26.6274 17.101 26.6274C18.8909 26.6274 20.5755 26.6274 22.3654 26.6274C22.9971 26.6274 23.313 26.3116 23.313 25.7851C23.313 24.3111 23.313 22.7318 23.313 21.2578C23.313 20.6261 22.9971 20.3102 22.4707 20.3102C21.9442 20.3102 20.5755 20.3102 19.7332 20.3102ZM19.7332 27.8909C18.8909 27.8909 17.9433 27.8909 17.101 27.8909C16.4693 27.8909 16.1534 28.1014 16.1534 28.7332C16.1534 30.2072 16.1534 31.7865 16.1534 33.2605C16.1534 33.7869 16.4693 34.1028 16.9957 34.1028C18.7856 34.1028 20.5755 34.1028 22.3654 34.1028C22.8918 34.1028 23.2077 33.7869 23.2077 33.2605C23.2077 31.6812 23.2077 30.1019 23.2077 28.5226C23.2077 27.8909 22.3654 27.7856 22.3654 27.7856C22.3654 27.7856 20.6808 27.8909 19.7332 27.8909ZM27.9456 27.8909C27.1033 27.8909 26.261 27.8909 25.4187 27.8909C24.6817 27.8909 24.4711 28.1014 24.4711 28.8385C24.4711 30.3125 24.4711 31.7865 24.4711 33.3658C24.4711 33.9975 24.787 34.3134 25.3134 34.3134C27.1033 34.3134 28.7879 34.3134 30.5777 34.3134C31.2095 34.3134 31.42 33.9975 31.42 33.4711C31.42 31.9971 31.42 30.4178 31.42 28.9437C31.42 28.312 31.42 27.8909 30.683 27.8909C30.0513 27.8909 28.8932 27.8909 27.9456 27.8909ZM11.6261 27.8909C10.7838 27.8909 9.94152 27.8909 9.09923 27.8909C8.36222 27.8909 8.15164 28.1014 8.15164 28.8385C8.15164 30.3125 8.15164 31.7865 8.15164 33.2605C8.15164 33.9975 8.46751 34.2081 9.20451 34.2081C10.8891 34.2081 12.4684 34.2081 14.153 34.2081C14.89 34.2081 15.2059 33.9975 15.2059 33.2605C15.2059 31.7865 15.2059 30.3125 15.2059 28.8385C15.2059 28.2067 14.9953 27.8909 14.3636 27.8909C13.7318 27.8909 12.4684 27.8909 11.6261 27.8909ZM27.9456 20.3102C27.1033 20.3102 26.1557 20.3102 25.3134 20.3102C24.787 20.3102 24.4711 20.6261 24.4711 21.1525C24.4711 22.7318 24.4711 24.3111 24.4711 25.7851C24.4711 26.3116 24.787 26.6274 25.3134 26.6274C27.1033 26.6274 28.8932 26.6274 30.683 26.6274C31.3148 26.6274 31.5253 26.4169 31.5253 25.7851C31.5253 24.2058 31.5253 22.7318 31.5253 21.1525C31.5253 20.5208 31.3148 20.3102 30.683 20.3102C29.7354 20.3102 28.8932 20.3102 27.9456 20.3102ZM36.1579 26.6274C37.0002 26.6274 37.8425 26.6274 38.6848 26.6274C39.4218 26.6274 39.6324 26.4169 39.6324 25.6798C39.6324 24.2058 39.6324 22.6265 39.6324 21.1525C39.6324 20.5208 39.4218 20.3102 38.7901 20.3102C37.0002 20.3102 35.3157 20.3102 33.5258 20.3102C32.8941 20.3102 32.6835 20.5208 32.6835 21.1525C32.6835 22.7318 32.6835 24.2058 32.6835 25.7851C32.6835 26.4169 32.8941 26.6274 33.5258 26.6274C34.4734 26.6274 35.3157 26.6274 36.1579 26.6274ZM36.1579 12.7296C35.3157 12.7296 34.3681 12.7296 33.5258 12.7296C32.8941 12.7296 32.6835 12.9401 32.6835 13.5719C32.6835 15.1512 32.6835 16.7305 32.6835 18.2045C32.6835 18.8362 32.8941 19.0468 33.5258 19.0468C35.3157 19.0468 37.0002 19.0468 38.7901 19.0468C39.4218 19.0468 39.6324 18.8362 39.6324 18.2045C39.6324 16.7305 39.6324 15.1512 39.6324 13.6771C39.6324 13.0454 39.4218 12.8349 38.6848 12.8349C37.8425 12.7296 37.0002 12.7296 36.1579 12.7296ZM36.1579 27.8909C35.3157 27.8909 34.3681 27.8909 33.5258 27.8909C32.8941 27.8909 32.6835 28.1014 32.6835 28.7332C32.6835 30.2072 32.6835 31.7865 32.6835 33.2605C32.6835 33.9975 32.8941 34.2081 33.6311 34.2081C35.3157 34.2081 37.0002 34.2081 38.6848 34.2081C39.4218 34.2081 39.6324 33.9975 39.6324 33.2605C39.6324 31.7865 39.6324 30.2072 39.6324 28.7332C39.6324 28.1014 39.4218 27.8909 38.6848 27.8909C37.8425 27.8909 37.0002 27.8909 36.1579 27.8909ZM44.3703 27.8909C43.528 27.8909 42.5804 27.8909 41.7382 27.8909C41.1064 27.8909 40.8959 28.1014 40.8959 28.7332C40.8959 30.2072 40.8959 31.7865 40.8959 33.2605C40.8959 33.9975 41.1064 34.2081 41.8434 34.2081C43.528 34.2081 45.2126 34.2081 46.8972 34.2081C47.6342 34.2081 47.8448 33.9975 47.8448 33.2605C47.8448 31.7865 47.8448 30.2072 47.8448 28.7332C47.8448 28.1014 47.6342 27.8909 46.8972 27.8909C46.0549 27.8909 45.2126 27.8909 44.3703 27.8909Z" fill="#2A56A2"/>
<path d="M25.1029 46.2106C25.2082 47.0529 24.787 47.6847 24.05 47.79C23.4183 47.8952 22.7866 47.4741 22.6813 46.8424C22.576 46.1054 22.8918 45.4736 23.6289 45.3683C23.9447 45.2631 24.2606 45.1578 24.1553 45.7895C24.05 46.1054 24.4712 46.4212 25.1029 46.2106Z" fill="#2A56A2"/>
</g>
<defs>
<clipPath id="clip0_201_32">
<rect width="66.8571" height="47.8002" fill="white" transform="translate(2.57144 11.5714)"/>
</clipPath>
</defs>
</svg>
