<?xml version="1.0" encoding="UTF-8"?><svg width="150" height="250" id="Layer_2" xmlns="http://www.w3.org/2000/svg" viewBox="0 0 791 300"><defs><style>.cls-1{fill:#fff;}.cls-2{fill:#ccced8;}.cls-3{fill:#d2d3db;}</style></defs><g id="LOGO"><rect class="cls-2" width="300" height="300"/><path class="cls-1" d="m81.44,199.82v4.24c0,5.19-1.23,8.52-3.84,11.22-3.23,3.34-9.54,5.93-22.31,5.93-14.57,0-20.41-3.12-23.8-6.62-2.92-3.02-4.67-7.31-4.67-12.76,0-5.08,1.54-9.58,4.67-12.81,3.38-3.49,10.15-6.56,23.8-6.56,10.87,0,19.28,1.96,23.64,4.24v7.52c-5.18-2.91-13.75-5.14-23.64-5.14s-15.23,1.85-17.59,4.29c-1.9,1.96-2.87,4.66-2.87,8.47,0,4.03,1.08,6.67,2.87,8.52,2.36,2.44,6.72,4.45,17.59,4.45,8.61,0,14.05-1.59,16.1-3.7,1.39-1.43,1.9-2.86,1.9-4.71h-22.05v-6.56h30.21Z"/><path class="cls-1" d="m126.94,212.47c.72-.74.97-1.64.97-2.59,0-1.11-.26-1.96-.87-2.59-1.13-1.16-3.23-1.64-15.9-2.33-14.31-.74-18.67-1.96-21.13-4.5-1.43-1.48-2.05-3.55-2.05-6.19s.56-5.24,2.51-7.25c2.51-2.59,7.44-4.39,20.05-4.39,10,0,17.54,1.48,22.31,3.44v6.93c-5.44-2.38-14.46-4.13-22.31-4.13-9.8,0-12.61.95-13.8,2.17-.61.64-.87,1.48-.87,2.49,0,.95.26,1.75.77,2.28,1.08,1.11,3.49,1.75,15.18,2.33,15.13.79,19.33,1.96,21.79,4.5,1.44,1.48,2.21,3.76,2.21,6.4s-.57,5.3-2.51,7.31c-2.56,2.65-7.64,4.71-21.08,4.71-9.95,0-19.69-1.64-25.23-4.13v-6.93c5.34,2.65,16.67,4.81,25.23,4.81,10.05,0,13.28-.84,14.72-2.33Z"/><path class="cls-1" d="m205.22,220.36h-7.31v-31.02l-19.16,31.02h-9.91l-19.16-31.02v31.02h-7.27v-37.05h11.94l19.58,31.97,19.63-31.97h11.65v37.05Z"/><path class="cls-1" d="m244.47,183.09l24.22,37.27h-8.86l-5.57-8.73h-30.39l-5.57,8.73h-8.51l24.23-37.27h10.45Zm-16.42,21.97h22.04l-11.04-17.31-10.99,17.31Z"/><path class="cls-1" d="m260.2,184.42h-2.43v-1.35h6.21v1.35h-2.43v6.97h-1.36v-6.97Z"/><path class="cls-1" d="m265.41,183.07h1.43l2.33,3.93,2.33-3.93h1.43v8.32h-1.35v-5.97l-2.42,3.92h-.04l-2.39-3.9v5.95h-1.33v-8.32Z"/><rect class="cls-1" x="27.96" y="133.86" width="25.82" height="30.46"/><rect class="cls-1" x="63.5" y="118.64" width="38.72" height="45.68"/><rect class="cls-1" x="111.93" y="95.81" width="58.03" height="68.51"/><rect class="cls-1" x="180.85" y="61.56" width="85.89" height="102.76"/><path class="cls-3" d="m346.96,47.59v88.97h-11.48V47.59h11.48Z"/><path class="cls-3" d="m367.94,89.96c0-6.6-.13-12.01-.53-17.29h10.3l.66,10.56h.26c3.17-6.07,10.56-12.01,21.12-12.01,8.84,0,22.57,5.28,22.57,27.19v38.15h-11.62v-36.83c0-10.3-3.83-18.88-14.78-18.88-7.66,0-13.6,5.41-15.58,11.88-.53,1.45-.79,3.43-.79,5.41v38.41h-11.62v-46.6Z"/><path class="cls-3" d="m496.38,42.84v77.22c0,5.68.13,12.14.53,16.5h-10.43l-.53-11.09h-.26c-3.56,7.13-11.35,12.54-21.78,12.54-15.44,0-27.32-13.07-27.32-32.47-.13-21.25,13.07-34.32,28.65-34.32,9.77,0,16.37,4.62,19.27,9.77h.26v-38.15h11.62Zm-11.62,55.84c0-1.45-.13-3.43-.53-4.88-1.72-7.39-8.05-13.46-16.76-13.46-12.01,0-19.14,10.56-19.14,24.68,0,12.94,6.34,23.63,18.88,23.63,7.79,0,14.92-5.15,17.03-13.86.4-1.58.53-3.17.53-5.02v-11.09Z"/><path class="cls-3" d="m569.11,119.13c0,6.6.13,12.41.53,17.42h-10.3l-.66-10.43h-.26c-3.04,5.15-9.77,11.88-21.12,11.88-10.03,0-22.04-5.54-22.04-27.99v-37.36h11.62v35.38c0,12.14,3.7,20.33,14.26,20.33,7.79,0,13.2-5.41,15.31-10.56.66-1.72,1.06-3.83,1.06-5.94v-39.21h11.62v46.46Z"/><path class="cls-3" d="m586.8,124.68c3.43,2.24,9.5,4.62,15.31,4.62,8.45,0,12.41-4.22,12.41-9.5,0-5.54-3.3-8.58-11.88-11.75-11.48-4.09-16.9-10.43-16.9-18.08,0-10.3,8.32-18.74,22.04-18.74,6.47,0,12.14,1.85,15.71,3.96l-2.9,8.45c-2.51-1.58-7.13-3.7-13.07-3.7-6.86,0-10.69,3.96-10.69,8.71,0,5.28,3.83,7.66,12.14,10.82,11.09,4.22,16.76,9.77,16.76,19.27,0,11.22-8.71,19.14-23.89,19.14-7,0-13.46-1.72-17.95-4.36l2.9-8.84Z"/><path class="cls-3" d="m654.65,54.32v18.35h16.63v8.84h-16.63v34.45c0,7.92,2.24,12.41,8.71,12.41,3.04,0,5.28-.4,6.73-.79l.53,8.71c-2.24.92-5.81,1.58-10.3,1.58-5.41,0-9.77-1.72-12.54-4.88-3.3-3.43-4.49-9.11-4.49-16.63v-34.85h-9.9v-8.84h9.9v-15.31l11.35-3.04Z"/><path class="cls-3" d="m684.35,92.6c0-7.52-.13-13.99-.53-19.93h10.16l.4,12.54h.53c2.9-8.58,9.9-13.99,17.69-13.99,1.32,0,2.24.13,3.3.4v10.96c-1.19-.26-2.38-.4-3.96-.4-8.18,0-13.99,6.2-15.58,14.92-.26,1.58-.53,3.43-.53,5.41v34.06h-11.48v-43.96Z"/><path class="cls-3" d="m735.03,72.67l13.99,37.75c1.45,4.22,3.04,9.24,4.09,13.07h.26c1.19-3.83,2.51-8.71,4.09-13.33l12.67-37.49h12.28l-17.42,45.54c-8.32,21.91-13.99,33.13-21.91,40-5.68,5.02-11.35,7-14.26,7.52l-2.9-9.77c2.9-.92,6.73-2.77,10.16-5.68,3.17-2.51,7.13-7,9.77-12.94.53-1.19.92-2.11.92-2.77s-.26-1.58-.79-3.04l-23.63-58.87h12.67Z"/><path class="cls-3" d="m410.45,219.68c-.66-12.41-1.45-27.32-1.32-38.41h-.4c-3.04,10.43-6.73,21.52-11.22,33.79l-15.71,43.17h-8.71l-14.39-42.37c-4.22-12.54-7.79-24.02-10.3-34.58h-.26c-.26,11.09-.92,26-1.72,39.34l-2.38,38.15h-10.96l6.2-88.97h14.65l15.18,43.03c3.7,10.96,6.73,20.72,8.98,29.96h.4c2.24-8.98,5.41-18.74,9.37-29.96l15.84-43.03h14.65l5.54,88.97h-11.22l-2.24-39.07Z"/><path class="cls-3" d="m448.46,228.92c.26,15.71,10.3,22.18,21.91,22.18,8.32,0,13.33-1.45,17.69-3.3l1.98,8.32c-4.09,1.85-11.09,3.96-21.25,3.96-19.67,0-31.42-12.94-31.42-32.21s11.35-34.45,29.96-34.45c20.86,0,26.4,18.35,26.4,30.1,0,2.38-.26,4.22-.4,5.41h-44.88Zm34.06-8.32c.13-7.39-3.04-18.88-16.1-18.88-11.75,0-16.9,10.82-17.82,18.88h33.93Z"/><path class="cls-3" d="m508.13,212.15c0-6.6-.13-12.01-.53-17.29h10.16l.53,10.3h.4c3.56-6.07,9.5-11.75,20.06-11.75,8.71,0,15.31,5.28,18.08,12.8h.26c1.98-3.56,4.49-6.34,7.13-8.32,3.83-2.9,8.05-4.49,14.12-4.49,8.45,0,20.99,5.54,20.99,27.72v37.62h-11.35v-36.17c0-12.28-4.49-19.67-13.86-19.67-6.6,0-11.75,4.88-13.73,10.56-.53,1.58-.92,3.7-.92,5.81v39.47h-11.35v-38.28c0-10.16-4.49-17.56-13.33-17.56-7.26,0-12.54,5.81-14.39,11.62-.66,1.72-.92,3.7-.92,5.68v38.54h-11.35v-46.6Z"/><path class="cls-3" d="m617.69,258.75c.26-4.36.53-10.82.53-16.5v-77.22h11.48v40.13h.26c4.09-7.13,11.48-11.75,21.78-11.75,15.84,0,27.06,13.2,26.93,32.6,0,22.84-14.39,34.19-28.65,34.19-9.24,0-16.63-3.56-21.38-12.01h-.4l-.53,10.56h-10.03Zm12.01-25.61c0,1.45.26,2.9.53,4.22,2.24,8.05,8.98,13.6,17.42,13.6,12.14,0,19.4-9.9,19.4-24.55,0-12.8-6.6-23.76-19.01-23.76-7.92,0-15.31,5.41-17.69,14.26-.26,1.32-.66,2.9-.66,4.75v11.48Z"/><path class="cls-3" d="m699.79,228.92c.26,15.71,10.3,22.18,21.91,22.18,8.32,0,13.33-1.45,17.69-3.3l1.98,8.32c-4.09,1.85-11.09,3.96-21.25,3.96-19.67,0-31.42-12.94-31.42-32.21s11.35-34.45,29.96-34.45c20.86,0,26.4,18.35,26.4,30.1,0,2.38-.26,4.22-.4,5.41h-44.88Zm34.06-8.32c.13-7.39-3.04-18.88-16.1-18.88-11.75,0-16.9,10.82-17.82,18.88h33.93Z"/><path class="cls-3" d="m759.45,214.79c0-7.52-.13-13.99-.53-19.93h10.16l.4,12.54h.53c2.9-8.58,9.9-13.99,17.69-13.99,1.32,0,2.24.13,3.3.4v10.96c-1.19-.26-2.38-.4-3.96-.4-8.18,0-13.99,6.2-15.58,14.92-.26,1.58-.53,3.43-.53,5.41v34.06h-11.48v-43.96Z"/></g></svg>