<svg width="80" height="54" xmlns="http://www.w3.org/2000/svg">
    <g fill="#cccdd8" fill-rule="evenodd">
        <path d="M41.323 17.274l17.37 1.308-.783-10.533-16.986 6.43c-1.442.545-1.137 2.68.399 2.795M61.594 18.8l11.741.884L79.83 2.317c.435-1.163-.696-2.3-1.852-1.863L60.715 6.988l.879 11.812M65.89 39.593l6.39-17.087-10.47-.789 1.3 17.475c.115 1.545 2.237 1.852 2.78.401M7.124 54H0l5.235-29.857h7.085l-1.771 10.295a8.536 8.536 0 0 1 2.755-2.811c1.128-.713 2.493-1.068 4.094-1.068 2.65 0 4.486.89 5.51 2.672 1.023 1.782 1.286 4.138.787 7.068L21.294 54h-7.242l2.204-12.552c.262-1.478.23-2.632-.099-3.464-.328-.832-1.147-1.247-2.46-1.247-1.364 0-2.388.5-3.07 1.505-.682 1.002-1.167 2.322-1.456 3.959L7.124 54M30.035 24H37l-5.035 30H25l5.035-30M35 54l4.013-22.687h5.743l.157 4.655c.682-1.774 1.645-3.045 2.891-3.814C49.05 31.384 50.71 31 52.781 31H54l-1.298 7.471h-2.44c-.681 0-1.298.046-1.848.137a6.222 6.222 0 0 0-1.455.41c-.813.34-1.43.907-1.85 1.702-.42.796-.76 1.872-1.022 3.228L42.317 54H35"></path>
    </g>
</svg>