<?xml version="1.0" encoding="UTF-8"?><svg width="150" height="250" id="Layer_2" xmlns="http://www.w3.org/2000/svg" viewBox="0 0 134.06 46.57"><defs><style>.cls-1{fill:#cccdd7;}</style></defs><g id="Layer_1-2"><g><g><path class="cls-1" d="m130.8,0H42.89c1.26.15,2.47.43,3.62.85.86.32,1.67.71,2.43,1.15h81.85c.7,0,1.27.57,1.27,1.27v22.16c0,.7-.57,1.27-1.27,1.27H50.02c-1.05.76-2.2,1.4-3.46,1.88-.12.04-.24.08-.36.12h84.59c1.8,0,3.27-1.47,3.27-3.27V3.27c0-1.8-1.47-3.27-3.27-3.27Z"/><g><path class="cls-1" d="m0,24.59V4.88h4.79v19.71H0Z"/><path class="cls-1" d="m22.05,10c-.41-.52-.94-.93-1.6-1.24-.66-.31-1.29-.46-1.91-.46-.32,0-.64.03-.96.08-.32.06-.62.16-.88.32-.26.16-.48.36-.65.61-.18.25-.26.57-.26.96,0,.33.07.61.21.84.14.22.34.42.61.58.27.17.59.32.96.46.37.14.79.28,1.25.43.67.22,1.36.47,2.09.74s1.38.63,1.98,1.07,1.09,1,1.48,1.66.58,1.48.58,2.46c0,1.13-.21,2.11-.63,2.94-.42.83-.98,1.51-1.68,2.05-.71.54-1.51.94-2.42,1.2-.91.26-1.85.39-2.81.39-1.41,0-2.77-.25-4.09-.74-1.32-.49-2.41-1.19-3.28-2.1l3.12-3.17c.48.59,1.12,1.09,1.91,1.49.79.4,1.57.6,2.35.6.35,0,.7-.04,1.03-.11.33-.07.63-.19.88-.36.25-.17.45-.39.6-.67.15-.28.22-.61.22-1s-.09-.69-.28-.95-.45-.5-.79-.71-.77-.41-1.28-.58-1.09-.37-1.74-.57c-.63-.2-1.25-.45-1.85-.72s-1.14-.64-1.61-1.07c-.47-.44-.85-.96-1.14-1.59-.29-.62-.43-1.38-.43-2.27,0-1.09.22-2.03.67-2.81s1.03-1.42,1.75-1.92c.72-.5,1.54-.87,2.45-1.1.91-.23,1.83-.35,2.76-.35,1.11,0,2.25.2,3.41.61,1.16.41,2.18,1.01,3.05,1.81l-3.03,3.2Z"/><path class="cls-1" d="m51.42,14.65c0,1.56-.27,2.98-.81,4.27-.54,1.29-1.29,2.39-2.24,3.31-.96.92-2.09,1.63-3.41,2.13-1.32.5-2.75.75-4.29.75s-2.96-.25-4.27-.75c-1.31-.5-2.44-1.21-3.4-2.13-.96-.92-1.7-2.02-2.24-3.31-.54-1.29-.81-2.71-.81-4.27s.27-3,.81-4.27c.54-1.27,1.28-2.35,2.24-3.24s2.09-1.58,3.4-2.06c1.31-.48,2.73-.72,4.27-.72s2.97.24,4.29.72c1.32.48,2.45,1.17,3.41,2.06s1.7,1.97,2.24,3.24c.54,1.27.81,2.7.81,4.27Zm-5.09,0c0-.85-.14-1.65-.42-2.39-.28-.74-.66-1.38-1.16-1.91-.49-.53-1.09-.95-1.78-1.25-.7-.31-1.46-.46-2.3-.46s-1.6.15-2.28.46c-.69.31-1.28.72-1.78,1.25s-.89,1.16-1.16,1.91c-.27.74-.4,1.54-.4,2.39s.14,1.71.42,2.46c.28.75.66,1.4,1.16,1.94.49.54,1.08.96,1.77,1.27s1.45.46,2.28.46,1.6-.15,2.28-.46c.69-.31,1.28-.73,1.78-1.27.5-.54.89-1.18,1.17-1.94.28-.75.42-1.57.42-2.46Z"/></g><g><g><path class="cls-1" d="m63.03,22.98c-.37.51-.86.92-1.46,1.24-.6.32-1.32.48-2.15.48-.72,0-1.39-.12-2-.37-.61-.25-1.14-.59-1.58-1.03-.44-.44-.79-.97-1.04-1.58-.25-.61-.37-1.28-.37-2.01s.13-1.42.38-2.03c.25-.61.61-1.13,1.06-1.57.45-.43.98-.77,1.6-1.01.62-.24,1.28-.36,2.01-.36.32,0,.65.03.98.09.33.06.65.16.95.28.3.13.58.28.83.46.25.18.46.39.64.64l-1.04.8c-.23-.32-.56-.59-.98-.8s-.88-.31-1.37-.31c-.55,0-1.05.1-1.49.3-.44.2-.82.48-1.13.82s-.55.75-.72,1.21c-.17.46-.25.95-.25,1.47s.08,1.03.25,1.5.4.87.71,1.21c.31.34.68.61,1.12.81.44.2.93.29,1.48.29s1.02-.11,1.46-.32c.44-.21.8-.53,1.08-.94l1.06.72Z"/><path class="cls-1" d="m67.04,23.27h4.95v1.18h-6.28v-9.48h6.08v1.16h-4.75v2.84h4.47v1.14h-4.47v3.16Z"/><path class="cls-1" d="m76.42,24.45h-1.32v-9.48h3.04c.46,0,.89.05,1.3.14.41.09.77.24,1.08.45.31.21.55.48.73.81.18.34.27.74.27,1.22,0,.7-.21,1.26-.64,1.69s-.98.7-1.66.82l2.65,4.35h-1.61l-2.41-4.22h-1.42v4.22Zm0-5.33h1.53c.31,0,.6-.03.87-.08s.5-.14.7-.26c.2-.12.36-.28.48-.47.12-.19.17-.43.17-.72s-.06-.52-.17-.72c-.12-.19-.27-.35-.46-.46-.19-.12-.42-.2-.68-.25-.26-.05-.53-.07-.82-.07h-1.62v3.02Z"/><path class="cls-1" d="m87.81,24.45h-1.32v-8.31h-3.04v-1.16h7.4v1.16h-3.04v8.31Z"/><path class="cls-1" d="m94.77,24.45h-1.32v-9.48h1.32v9.48Z"/><path class="cls-1" d="m99.74,24.45h-1.32v-9.48h5.92v1.16h-4.59v2.94h4.3v1.14h-4.3v4.23Z"/><path class="cls-1" d="m108.68,24.45h-1.32v-9.48h1.32v9.48Z"/><path class="cls-1" d="m113.64,23.27h4.95v1.18h-6.28v-9.48h6.08v1.16h-4.75v2.84h4.47v1.14h-4.47v3.16Z"/><path class="cls-1" d="m121.7,14.98h3.25c.61,0,1.21.09,1.82.27.61.18,1.15.46,1.65.84s.89.87,1.19,1.47c.3.6.46,1.32.46,2.15s-.15,1.51-.46,2.11c-.3.59-.7,1.08-1.19,1.47-.49.39-1.04.68-1.65.87-.61.19-1.21.29-1.82.29h-3.25v-9.48Zm1.33,8.31h1.66c.57,0,1.1-.08,1.59-.24.49-.16.91-.39,1.26-.7.35-.3.63-.68.82-1.12.2-.45.29-.95.29-1.51s-.1-1.11-.29-1.55c-.2-.45-.47-.82-.82-1.12-.35-.3-.77-.53-1.26-.68s-1.01-.23-1.59-.23h-1.66v7.16Z"/></g><g><path class="cls-1" d="m60.11,6.58c0,.43-.07.82-.23,1.17-.15.35-.34.71-.58,1.07l-1.74,2.6h-2.07l1.8-2.49.02-.03c-.07.03-.16.05-.25.06-.09.01-.18.02-.26.02-.32,0-.62-.06-.91-.17-.28-.11-.54-.27-.75-.48-.22-.21-.39-.45-.52-.74s-.19-.61-.19-.96c0-.41.07-.78.22-1.1.15-.33.35-.6.61-.83.26-.22.56-.4.91-.51.35-.12.71-.18,1.1-.18s.76.06,1.11.18c.35.12.65.29.9.51.25.22.46.5.61.82.15.32.22.68.22,1.07Zm-1.71-.02c0-.31-.1-.58-.3-.81-.2-.23-.48-.34-.82-.34s-.63.11-.84.32c-.21.21-.31.49-.31.84,0,.33.1.6.31.81.21.21.48.32.82.32s.62-.11.83-.32c.21-.21.32-.49.32-.83Z"/><path class="cls-1" d="m67.7,7.79c0,.51-.05,1-.15,1.46-.1.46-.27.87-.49,1.22s-.51.63-.87.84-.79.31-1.3.31-.95-.1-1.31-.31-.65-.48-.88-.84c-.23-.35-.39-.76-.49-1.22-.1-.46-.15-.95-.15-1.46s.05-.99.15-1.45c.1-.46.27-.86.49-1.2.23-.34.52-.62.88-.82s.8-.31,1.31-.31.94.1,1.3.31.65.48.87.82.39.75.49,1.2c.1.46.15.94.15,1.45Zm-1.75,0c0-.22-.01-.47-.04-.75s-.08-.52-.15-.76c-.07-.23-.18-.43-.32-.59s-.32-.24-.54-.24-.41.08-.55.24-.25.36-.33.59c-.08.24-.13.49-.16.76s-.04.52-.04.75.01.48.04.76c.03.28.08.53.16.77.08.24.19.43.33.59.14.16.33.24.55.24s.41-.08.54-.24c.14-.16.25-.36.32-.59.07-.23.13-.49.15-.77.03-.27.04-.53.04-.76Z"/><path class="cls-1" d="m75.31,7.79c0,.51-.05,1-.15,1.46-.1.46-.27.87-.49,1.22s-.51.63-.87.84-.79.31-1.3.31-.95-.1-1.31-.31-.65-.48-.88-.84c-.23-.35-.39-.76-.49-1.22-.1-.46-.15-.95-.15-1.46s.05-.99.15-1.45c.1-.46.27-.86.49-1.2.23-.34.52-.62.88-.82s.8-.31,1.31-.31.94.1,1.3.31.65.48.87.82.39.75.49,1.2c.1.46.15.94.15,1.45Zm-1.75,0c0-.22-.01-.47-.04-.75s-.08-.52-.15-.76c-.07-.23-.18-.43-.32-.59s-.32-.24-.54-.24-.41.08-.55.24-.25.36-.33.59c-.08.24-.13.49-.16.76s-.04.52-.04.75.01.48.04.76c.03.28.08.53.16.77.08.24.19.43.33.59.14.16.33.24.55.24s.41-.08.54-.24c.14-.16.25-.36.32-.59.07-.23.13-.49.15-.77.03-.27.04-.53.04-.76Z"/><path class="cls-1" d="m79.69,11.42v-5.3l-1.35,1.04-.89-1.21,2.38-1.75h1.56v7.22h-1.7Z"/><path class="cls-1" d="m88.56,11.61v-7.55s1.33,0,1.33,0v7.55h-1.33Z"/><path class="cls-1" d="m95.73,11.42v-1.43l2.82-2.55c.18-.17.32-.34.43-.52.11-.18.16-.37.16-.59,0-.26-.08-.47-.25-.63-.16-.16-.38-.24-.65-.24s-.52.1-.7.3c-.18.2-.29.46-.32.79l-1.64-.22c.04-.37.14-.69.3-.98.16-.29.36-.53.61-.73.25-.2.53-.36.84-.46.32-.11.65-.16,1.01-.16.33,0,.66.04.97.13.31.09.59.22.84.41s.44.42.59.69.22.6.22.98c0,.26-.03.49-.1.7-.07.21-.16.4-.28.58-.12.18-.26.34-.41.49-.15.15-.31.3-.47.45l-1.67,1.49h2.95v1.49h-5.22Z"/><path class="cls-1" d="m105.77,11.42h-1.99l2.93-5.75h-3.42v-1.47h5.24v1.37l-2.76,5.86Z"/><path class="cls-1" d="m116.38,7.79c0,.51-.05,1-.15,1.46-.1.46-.27.87-.49,1.22s-.51.63-.87.84-.79.31-1.3.31-.95-.1-1.31-.31-.65-.48-.88-.84c-.23-.35-.39-.76-.49-1.22-.1-.46-.15-.95-.15-1.46s.05-.99.15-1.45c.1-.46.27-.86.49-1.2.23-.34.52-.62.88-.82s.8-.31,1.31-.31.94.1,1.3.31.65.48.87.82.39.75.49,1.2c.1.46.15.94.15,1.45Zm-1.75,0c0-.22-.01-.47-.04-.75s-.08-.52-.15-.76c-.07-.23-.18-.43-.32-.59s-.32-.24-.54-.24-.41.08-.55.24-.25.36-.33.59c-.08.24-.13.49-.16.76s-.04.52-.04.75.01.48.04.76c.03.28.08.53.16.77.08.24.19.43.33.59.14.16.33.24.55.24s.41-.08.54-.24c.14-.16.25-.36.32-.59.07-.23.13-.49.15-.77.03-.27.04-.53.04-.76Z"/><path class="cls-1" d="m123.98,7.79c0,.51-.05,1-.15,1.46-.1.46-.27.87-.49,1.22s-.51.63-.87.84-.79.31-1.3.31-.95-.1-1.31-.31-.65-.48-.88-.84c-.23-.35-.39-.76-.49-1.22-.1-.46-.15-.95-.15-1.46s.05-.99.15-1.45c.1-.46.27-.86.49-1.2.23-.34.52-.62.88-.82s.8-.31,1.31-.31.94.1,1.3.31.65.48.87.82.39.75.49,1.2c.1.46.15.94.15,1.45Zm-1.75,0c0-.22-.01-.47-.04-.75s-.08-.52-.15-.76c-.07-.23-.18-.43-.32-.59s-.32-.24-.54-.24-.41.08-.55.24-.25.36-.33.59c-.08.24-.13.49-.16.76s-.04.52-.04.75.01.48.04.76c.03.28.08.53.16.77.08.24.19.43.33.59.14.16.33.24.55.24s.41-.08.54-.24c.14-.16.25-.36.32-.59.07-.23.13-.49.15-.77.03-.27.04-.53.04-.76Z"/><path class="cls-1" d="m128.36,11.42v-5.3l-1.35,1.04-.89-1.21,2.38-1.75h1.56v7.22h-1.7Z"/></g></g></g><g><path class="cls-1" d="m12.71,37.8h-2.6c-.35,0-.66-.05-.94-.15-.28-.1-.52-.24-.72-.43-.2-.19-.36-.42-.47-.69-.11-.27-.16-.59-.16-.93,0-.33.06-.63.17-.9.12-.27.28-.5.48-.7s.45-.35.73-.45c.28-.11.59-.16.92-.16s.63.05.91.16c.28.11.52.26.73.45.2.2.36.43.48.7.11.27.17.57.17.9,0,.19-.02.37-.07.54-.04.16-.1.31-.17.44-.07.13-.15.25-.24.35-.09.1-.19.18-.28.25h0s1.07.01,1.07.01v.62Zm-2.59-3.73c-.21,0-.4.04-.58.11-.18.08-.34.18-.47.32s-.23.29-.31.48c-.08.19-.11.39-.11.61,0,.23.04.44.11.63.07.19.17.35.3.48s.28.24.46.31c.18.08.37.11.59.11s.41-.04.59-.11c.18-.07.34-.18.47-.31.13-.13.23-.3.3-.48.07-.19.11-.4.11-.63,0-.22-.03-.42-.1-.61-.07-.19-.17-.35-.3-.48s-.28-.24-.46-.32c-.18-.08-.38-.11-.6-.11Z"/><path class="cls-1" d="m16.49,37.8h-.69v-.47h-.01c-.07.15-.18.27-.34.39s-.35.17-.57.17c-.19,0-.35-.03-.49-.1-.14-.07-.25-.16-.34-.27-.09-.11-.15-.23-.19-.38-.04-.14-.06-.29-.06-.44v-1.83h.73v1.62c0,.09,0,.17.02.27.01.09.04.18.08.25.04.08.1.14.17.19.07.05.17.07.28.07s.21-.02.3-.07.16-.11.21-.18c.05-.07.1-.16.12-.25s.04-.19.04-.29v-1.61h.73v2.92Z"/><path class="cls-1" d="m19.79,37.42h-.02c-.07.13-.19.24-.35.32-.16.08-.35.12-.55.12-.12,0-.24-.02-.37-.05-.13-.03-.25-.08-.35-.15-.11-.07-.2-.16-.27-.28-.07-.11-.11-.26-.11-.43,0-.22.06-.39.19-.52s.28-.23.48-.3c.2-.07.41-.11.65-.14.24-.02.47-.03.7-.03v-.07c0-.18-.07-.32-.2-.41-.13-.09-.29-.13-.47-.13-.15,0-.3.03-.44.1-.14.06-.26.14-.35.24l-.38-.44c.17-.15.36-.27.58-.35.22-.08.44-.12.66-.12.26,0,.47.04.64.11.17.07.3.17.4.29.1.12.17.25.2.4.04.15.06.29.06.44v1.78h-.68v-.37Zm-.01-.96h-.16c-.12,0-.24,0-.37.02s-.25.03-.36.07c-.11.03-.2.08-.27.15-.07.06-.11.15-.11.26,0,.07.01.13.05.17s.07.08.12.11c.05.03.1.05.16.06.06.01.12.02.18.02.25,0,.44-.07.57-.2s.2-.32.2-.55v-.1Z"/><path class="cls-1" d="m21.95,33.19h.73v4.6h-.73v-4.6Z"/><path class="cls-1" d="m24.09,33.88c0-.12.04-.22.13-.31s.2-.13.33-.13.25.04.34.12.14.19.14.31-.05.23-.14.31-.2.12-.34.12-.24-.04-.33-.13-.13-.19-.13-.31Zm.1.99h.73v2.92h-.73v-2.92Z"/><path class="cls-1" d="m26,35.46v-.58h.51v-.85h.72v.85h.73v.58h-.73v1.36c0,.13.02.24.07.32s.15.13.31.13c.05,0,.1,0,.16-.01.06,0,.11-.02.15-.05l.02.57c-.07.02-.14.04-.23.06s-.17.02-.26.02c-.2,0-.35-.03-.47-.08-.12-.05-.22-.13-.29-.23s-.12-.21-.15-.33c-.03-.12-.04-.26-.04-.4v-1.36h-.51Z"/><path class="cls-1" d="m28.66,34.87h.81l.82,2.13h.01l.72-2.13h.76l-1.38,3.55c-.05.13-.11.25-.17.36-.06.1-.13.19-.22.26-.09.07-.19.12-.3.16s-.25.06-.42.06c-.06,0-.12,0-.19,0-.06,0-.13-.02-.19-.03l.06-.63s.1.03.14.03c.05,0,.09,0,.13,0,.08,0,.14,0,.2-.03.05-.02.1-.05.13-.09s.07-.09.1-.14c.03-.06.06-.12.09-.2l.15-.37-1.26-2.92Z"/><path class="cls-1" d="m35,33.48h1.2l1.12,3.06h.02l1.11-3.06h1.21v4.31h-.76v-3.47h-.01l-1.31,3.47h-.54l-1.29-3.47h-.01v3.47h-.73v-4.31Z"/><path class="cls-1" d="m42.99,37.42h-.02c-.07.13-.19.24-.35.32-.16.08-.35.12-.55.12-.12,0-.24-.02-.37-.05-.13-.03-.25-.08-.35-.15-.11-.07-.2-.16-.27-.28-.07-.11-.11-.26-.11-.43,0-.22.06-.39.19-.52s.28-.23.48-.3c.2-.07.41-.11.65-.14.24-.02.47-.03.7-.03v-.07c0-.18-.07-.32-.2-.41-.13-.09-.29-.13-.47-.13-.15,0-.3.03-.44.1-.14.06-.26.14-.35.24l-.38-.44c.17-.15.36-.27.58-.35.22-.08.44-.12.66-.12.26,0,.47.04.64.11.17.07.3.17.4.29.1.12.17.25.2.4.04.15.06.29.06.44v1.78h-.68v-.37Zm-.01-.96h-.16c-.12,0-.24,0-.37.02s-.25.03-.36.07c-.11.03-.2.08-.27.15-.07.06-.11.15-.11.26,0,.07.01.13.05.17s.07.08.12.11c.05.03.1.05.16.06.06.01.12.02.18.02.25,0,.44-.07.57-.2s.2-.32.2-.55v-.1Z"/><path class="cls-1" d="m45.14,34.87h.69v.47h.01c.07-.15.18-.27.34-.39s.35-.17.57-.17c.19,0,.35.03.49.1.14.07.25.16.34.27.09.11.15.23.19.38.04.14.06.29.06.44v1.83h-.73v-1.62c0-.09,0-.17-.02-.27-.01-.09-.04-.18-.08-.25-.04-.07-.1-.14-.17-.19-.07-.05-.16-.07-.28-.07s-.22.02-.3.07-.16.11-.21.18c-.06.07-.1.16-.12.25-.03.1-.04.19-.04.29v1.61h-.73v-2.92Z"/><path class="cls-1" d="m51.11,37.42h-.02c-.07.13-.19.24-.35.32-.16.08-.35.12-.55.12-.12,0-.24-.02-.37-.05-.13-.03-.25-.08-.35-.15-.11-.07-.2-.16-.27-.28-.07-.11-.11-.26-.11-.43,0-.22.06-.39.19-.52s.28-.23.48-.3c.2-.07.41-.11.65-.14.24-.02.47-.03.7-.03v-.07c0-.18-.07-.32-.2-.41-.13-.09-.29-.13-.47-.13-.15,0-.3.03-.44.1-.14.06-.26.14-.35.24l-.38-.44c.17-.15.36-.27.58-.35.22-.08.44-.12.66-.12.26,0,.47.04.64.11.17.07.3.17.4.29.1.12.17.25.2.4.04.15.06.29.06.44v1.78h-.68v-.37Zm-.01-.96h-.16c-.12,0-.24,0-.37.02s-.25.03-.36.07c-.11.03-.2.08-.27.15-.07.06-.11.15-.11.26,0,.07.01.13.05.17s.07.08.12.11c.05.03.1.05.16.06.06.01.12.02.18.02.25,0,.44-.07.57-.2s.2-.32.2-.55v-.1Z"/><path class="cls-1" d="m56.22,34.87v2.66c0,.26-.03.5-.1.72-.06.21-.17.39-.3.54-.14.15-.31.26-.51.34s-.45.12-.74.12c-.12,0-.24-.01-.37-.03-.13-.02-.26-.05-.39-.09s-.25-.09-.37-.15c-.12-.06-.22-.13-.32-.21l.42-.57c.14.13.3.24.48.31.18.07.36.11.54.11s.32-.03.44-.08c.12-.05.22-.12.29-.21.07-.09.12-.2.15-.32.03-.12.05-.26.05-.4v-.21h-.01c-.11.14-.24.25-.41.33-.16.08-.35.11-.55.11-.22,0-.42-.04-.6-.12-.18-.08-.33-.19-.45-.33-.12-.14-.22-.3-.29-.48-.07-.18-.1-.38-.1-.59s.03-.41.1-.6c.07-.19.16-.35.29-.49.12-.14.27-.25.45-.33s.37-.12.59-.12c.21,0,.4.04.58.13s.32.22.43.4h.01v-.44h.69Zm-1.56.51c-.13,0-.25.02-.36.07-.1.05-.19.11-.26.2-.07.08-.13.18-.16.29-.04.11-.06.23-.06.36,0,.12.02.23.06.34s.09.21.16.29.16.16.26.21c.1.05.22.08.35.08s.25-.03.36-.08c.11-.05.2-.12.27-.2.07-.09.13-.18.17-.29s.06-.23.06-.35-.02-.24-.06-.36c-.04-.11-.1-.21-.17-.3-.08-.09-.17-.15-.27-.2-.11-.05-.23-.07-.36-.07Z"/><path class="cls-1" d="m60.5,36.37v.1s0,.06,0,.1h-2.22c0,.11.03.2.08.29.05.09.11.16.19.23.08.06.16.11.26.15.1.04.2.05.3.05.18,0,.34-.03.46-.1.13-.07.23-.16.31-.28l.49.39c-.29.39-.71.58-1.26.58-.23,0-.44-.04-.63-.11-.19-.07-.36-.17-.5-.3-.14-.13-.25-.29-.33-.48-.08-.19-.12-.4-.12-.64s.04-.45.12-.64c.08-.19.19-.36.33-.49s.3-.24.49-.32c.19-.08.39-.11.61-.11.2,0,.39.03.56.1.17.07.32.17.45.3s.22.3.3.49c.07.2.11.43.11.69Zm-.73-.33c0-.09-.01-.18-.04-.27s-.07-.16-.12-.23c-.06-.07-.13-.12-.22-.16s-.19-.06-.31-.06c-.22,0-.41.07-.56.2-.15.13-.24.3-.25.51h1.5Z"/><path class="cls-1" d="m65.31,34.79c.19,0,.35.03.49.1.14.07.25.16.34.27.09.11.15.23.19.38.04.14.06.29.06.44v1.83h-.73v-1.62c0-.09,0-.17-.02-.27-.01-.09-.04-.18-.08-.25-.04-.07-.1-.14-.17-.19-.07-.05-.17-.07-.28-.07s-.21.02-.29.07-.15.11-.2.19c-.05.08-.09.16-.11.26-.02.1-.04.19-.04.28v1.6h-.73v-1.77c0-.18-.04-.33-.13-.45-.09-.12-.22-.18-.41-.18-.11,0-.21.02-.29.07s-.15.11-.2.18-.09.16-.11.25c-.03.1-.04.19-.04.29v1.61h-.73v-2.92h.69v.47h.01c.03-.07.08-.14.13-.21.05-.06.12-.12.2-.18s.16-.09.26-.12.21-.05.32-.05c.23,0,.42.05.57.15.15.1.27.24.35.4.1-.18.23-.32.39-.41.16-.1.35-.14.57-.14Z"/><path class="cls-1" d="m70.63,36.37v.1s0,.06,0,.1h-2.22c0,.11.03.2.08.29.05.09.11.16.19.23.08.06.16.11.26.15.1.04.2.05.3.05.18,0,.34-.03.46-.1.13-.07.23-.16.31-.28l.49.39c-.29.39-.71.58-1.26.58-.23,0-.44-.04-.63-.11-.19-.07-.36-.17-.5-.3-.14-.13-.25-.29-.33-.48-.08-.19-.12-.4-.12-.64s.04-.45.12-.64c.08-.19.19-.36.33-.49s.3-.24.49-.32c.19-.08.39-.11.61-.11.2,0,.39.03.56.1.17.07.32.17.45.3s.22.3.3.49c.07.2.11.43.11.69Zm-.73-.33c0-.09-.01-.18-.04-.27s-.07-.16-.12-.23c-.06-.07-.13-.12-.22-.16s-.19-.06-.31-.06c-.22,0-.41.07-.56.2-.15.13-.24.3-.25.51h1.5Z"/><path class="cls-1" d="m71.95,34.87h.69v.47h.01c.07-.15.18-.27.34-.39s.35-.17.57-.17c.19,0,.35.03.49.1.14.07.25.16.34.27.09.11.15.23.19.38.04.14.06.29.06.44v1.83h-.73v-1.62c0-.09,0-.17-.02-.27-.01-.09-.04-.18-.08-.25-.04-.07-.1-.14-.17-.19-.07-.05-.16-.07-.28-.07s-.22.02-.3.07-.16.11-.21.18c-.06.07-.1.16-.12.25-.03.1-.04.19-.04.29v1.61h-.73v-2.92Z"/><path class="cls-1" d="m75.68,35.46v-.58h.51v-.85h.72v.85h.73v.58h-.73v1.36c0,.13.02.24.07.32s.15.13.31.13c.05,0,.1,0,.16-.01.06,0,.11-.02.15-.05l.02.57c-.07.02-.14.04-.23.06s-.17.02-.26.02c-.2,0-.35-.03-.47-.08-.12-.05-.22-.13-.29-.23s-.12-.21-.15-.33c-.03-.12-.04-.26-.04-.4v-1.36h-.51Z"/><path class="cls-1" d="m83.95,36.77l1.01,1.03h-.97l-.47-.49c-.14.17-.32.31-.52.41-.2.11-.46.16-.77.16-.19,0-.37-.03-.55-.08s-.33-.13-.46-.24c-.13-.11-.24-.24-.32-.39-.08-.16-.12-.34-.12-.55,0-.16.03-.3.08-.43.05-.13.12-.24.21-.34.09-.1.19-.19.3-.26s.23-.14.35-.19c-.14-.15-.26-.3-.34-.45-.08-.16-.13-.33-.13-.51s.04-.34.11-.48c.07-.13.16-.24.28-.33.12-.09.25-.15.39-.19.14-.04.29-.06.44-.06s.3.02.45.06c.14.04.27.11.38.2.11.09.2.2.26.33.07.13.1.29.1.46,0,.14-.02.26-.07.38-.05.12-.11.22-.19.32s-.17.18-.28.25c-.11.07-.22.14-.34.19l.71.74.5-.79h.83l-.87,1.25Zm-1.83-.9c-.08.03-.16.06-.23.1-.07.04-.13.09-.19.15-.05.06-.1.12-.13.2s-.05.17-.05.27.02.2.06.29.1.16.17.21c.07.06.15.1.23.13.09.03.17.05.25.05.18,0,.33-.04.46-.12s.24-.19.35-.33l-.92-.96Zm.36-1.91c-.14,0-.26.05-.36.13s-.15.2-.15.35c0,.12.03.24.1.35.07.11.16.23.28.34.09-.04.16-.08.24-.12.08-.04.14-.1.2-.15.06-.06.1-.12.13-.19.03-.07.05-.14.05-.23,0-.13-.05-.24-.14-.34-.09-.1-.21-.14-.36-.14Z"/><path class="cls-1" d="m88.21,33.48h.77v4.31h-.77v-4.31Z"/><path class="cls-1" d="m90.5,34.87h.69v.47h.01c.07-.15.18-.27.34-.39s.35-.17.57-.17c.19,0,.35.03.49.1.14.07.25.16.34.27.09.11.15.23.19.38.04.14.06.29.06.44v1.83h-.73v-1.62c0-.09,0-.17-.02-.27-.01-.09-.04-.18-.08-.25-.04-.07-.1-.14-.17-.19-.07-.05-.16-.07-.28-.07s-.22.02-.3.07-.16.11-.21.18c-.06.07-.1.16-.12.25-.03.1-.04.19-.04.29v1.61h-.73v-2.92Z"/><path class="cls-1" d="m94.77,35.46h-.55v-.58h.55v-.43c0-.17.02-.34.06-.5s.1-.3.2-.42.21-.22.36-.29c.15-.07.34-.11.57-.11.08,0,.15,0,.2,0,.05,0,.11.02.17.03l-.05.62s-.08-.02-.13-.03c-.05,0-.1-.01-.15-.01-.11,0-.19.02-.26.06-.07.04-.11.09-.15.16-.03.07-.06.14-.07.21-.01.08-.02.15-.02.23v.47h.68v.58h-.68v2.34h-.73v-2.34Z"/><path class="cls-1" d="m97.07,36.32c0-.23.04-.44.12-.63.08-.19.2-.35.34-.48.14-.13.31-.24.51-.31.2-.07.4-.11.62-.11s.43.04.62.11c.19.07.36.18.51.31.14.13.25.3.34.48.08.19.12.4.12.63s-.04.44-.12.63c-.08.19-.2.35-.34.49-.14.14-.31.24-.51.32-.2.08-.4.12-.62.12s-.43-.04-.62-.12c-.19-.08-.36-.18-.51-.32-.14-.14-.25-.3-.34-.49-.08-.19-.12-.4-.12-.63Zm.74,0c0,.11.02.23.05.34.03.11.09.22.16.3.07.09.16.16.26.22.11.06.23.09.38.09s.27-.03.38-.09c.11-.06.19-.13.26-.22.07-.09.12-.19.16-.3.03-.11.05-.23.05-.34s-.02-.23-.05-.34c-.03-.11-.09-.21-.16-.3s-.16-.16-.26-.22c-.11-.05-.23-.08-.38-.08s-.27.03-.38.08c-.11.05-.19.13-.26.22-.07.09-.12.19-.16.3-.03.11-.05.23-.05.34Z"/><path class="cls-1" d="m101.56,34.87h.7v.49h.01c.08-.17.2-.31.34-.41.15-.11.32-.16.51-.16.03,0,.06,0,.09,0,.03,0,.06,0,.09.01v.67s-.09-.02-.12-.02c-.03,0-.07,0-.1,0-.17,0-.3.03-.4.09-.1.06-.18.13-.24.22s-.1.17-.12.26c-.02.09-.03.16-.03.21v1.57h-.73v-2.92Z"/><path class="cls-1" d="m107.88,34.79c.19,0,.35.03.49.1.14.07.25.16.34.27.09.11.15.23.19.38.04.14.06.29.06.44v1.83h-.73v-1.62c0-.09,0-.17-.02-.27-.01-.09-.04-.18-.08-.25-.04-.07-.1-.14-.17-.19-.07-.05-.17-.07-.28-.07s-.21.02-.29.07-.15.11-.2.19c-.05.08-.09.16-.11.26-.02.1-.04.19-.04.28v1.6h-.73v-1.77c0-.18-.04-.33-.13-.45-.09-.12-.22-.18-.41-.18-.11,0-.21.02-.29.07s-.15.11-.2.18-.09.16-.11.25c-.03.1-.04.19-.04.29v1.61h-.73v-2.92h.69v.47h.01c.03-.07.08-.14.13-.21.05-.06.12-.12.2-.18s.16-.09.26-.12.21-.05.32-.05c.23,0,.42.05.57.15.15.1.27.24.35.4.1-.18.23-.32.39-.41.16-.1.35-.14.57-.14Z"/><path class="cls-1" d="m112.23,37.42h-.02c-.07.13-.19.24-.35.32-.16.08-.35.12-.55.12-.12,0-.24-.02-.37-.05-.13-.03-.25-.08-.35-.15-.11-.07-.2-.16-.27-.28-.07-.11-.11-.26-.11-.43,0-.22.06-.39.19-.52s.28-.23.48-.3c.2-.07.41-.11.65-.14.24-.02.47-.03.7-.03v-.07c0-.18-.07-.32-.2-.41-.13-.09-.29-.13-.47-.13-.15,0-.3.03-.44.1-.14.06-.26.14-.35.24l-.38-.44c.17-.15.36-.27.58-.35.22-.08.44-.12.66-.12.26,0,.47.04.64.11.17.07.3.17.4.29.1.12.17.25.2.4.04.15.06.29.06.44v1.78h-.68v-.37Zm-.01-.96h-.16c-.12,0-.24,0-.37.02s-.25.03-.36.07c-.11.03-.2.08-.27.15-.07.06-.11.15-.11.26,0,.07.01.13.05.17s.07.08.12.11c.05.03.1.05.16.06.06.01.12.02.18.02.25,0,.44-.07.57-.2s.2-.32.2-.55v-.1Z"/><path class="cls-1" d="m113.89,35.46v-.58h.51v-.85h.72v.85h.73v.58h-.73v1.36c0,.13.02.24.07.32s.15.13.31.13c.05,0,.1,0,.16-.01.06,0,.11-.02.15-.05l.02.57c-.07.02-.14.04-.23.06s-.17.02-.26.02c-.2,0-.35-.03-.47-.08-.12-.05-.22-.13-.29-.23s-.12-.21-.15-.33c-.03-.12-.04-.26-.04-.4v-1.36h-.51Z"/><path class="cls-1" d="m116.9,33.88c0-.12.04-.22.13-.31s.2-.13.33-.13.25.04.34.12.14.19.14.31-.05.23-.14.31-.2.12-.34.12-.24-.04-.33-.13-.13-.19-.13-.31Zm.1.99h.73v2.92h-.73v-2.92Z"/><path class="cls-1" d="m119.07,36.32c0-.23.04-.44.12-.63.08-.19.2-.35.34-.48.14-.13.31-.24.51-.31.2-.07.4-.11.62-.11s.43.04.62.11c.19.07.36.18.51.31.14.13.25.3.34.48.08.19.12.4.12.63s-.04.44-.12.63c-.08.19-.2.35-.34.49-.14.14-.31.24-.51.32-.2.08-.4.12-.62.12s-.43-.04-.62-.12c-.19-.08-.36-.18-.51-.32-.14-.14-.25-.3-.34-.49-.08-.19-.12-.4-.12-.63Zm.74,0c0,.11.02.23.05.34.03.11.09.22.16.3.07.09.16.16.26.22.11.06.23.09.38.09s.27-.03.38-.09c.11-.06.19-.13.26-.22.07-.09.12-.19.16-.3.03-.11.05-.23.05-.34s-.02-.23-.05-.34c-.03-.11-.09-.21-.16-.3s-.16-.16-.26-.22c-.11-.05-.23-.08-.38-.08s-.27.03-.38.08c-.11.05-.19.13-.26.22-.07.09-.12.19-.16.3-.03.11-.05.23-.05.34Z"/><path class="cls-1" d="m123.56,34.87h.69v.47h.01c.07-.15.18-.27.34-.39s.35-.17.57-.17c.19,0,.35.03.49.1.14.07.25.16.34.27.09.11.15.23.19.38.04.14.06.29.06.44v1.83h-.73v-1.62c0-.09,0-.17-.02-.27-.01-.09-.04-.18-.08-.25-.04-.07-.1-.14-.17-.19-.07-.05-.16-.07-.28-.07s-.22.02-.3.07-.16.11-.21.18c-.06.07-.1.16-.12.25-.03.1-.04.19-.04.29v1.61h-.73v-2.92Z"/><path class="cls-1" d="m33.41,41.69c-.08-.11-.2-.19-.34-.26-.15-.07-.3-.11-.45-.11-.09,0-.18.01-.27.03-.09.02-.17.06-.24.1-.07.05-.13.11-.18.18s-.07.17-.07.27c0,.1.02.18.06.25.04.07.1.13.17.18.07.05.16.09.26.13s.21.07.34.11c.14.04.28.1.43.15.15.06.28.13.41.23s.23.21.3.35c.08.14.12.32.12.53,0,.23-.04.43-.13.61-.09.17-.2.32-.34.43-.14.11-.31.2-.5.26-.19.06-.39.09-.6.09-.28,0-.56-.05-.82-.16-.27-.1-.49-.26-.66-.46l.55-.51c.11.15.25.26.42.35.18.09.35.13.52.13.09,0,.18-.01.27-.03.09-.02.18-.06.25-.11s.14-.12.18-.2.07-.18.07-.3-.03-.21-.08-.28c-.05-.07-.12-.14-.21-.19-.09-.06-.19-.1-.32-.14l-.38-.13c-.13-.04-.26-.09-.39-.15-.13-.06-.25-.13-.35-.23-.1-.09-.19-.21-.25-.34-.06-.14-.1-.31-.1-.51,0-.22.05-.41.14-.57s.21-.29.36-.39c.15-.1.32-.18.51-.23.19-.05.38-.08.57-.08.22,0,.44.04.67.12s.42.19.59.35l-.5.55Z"/><path class="cls-1" d="m38.07,43.68v.1s0,.06,0,.1h-2.22c0,.11.03.2.08.29.05.09.11.16.19.23.08.06.16.11.26.15.1.04.2.05.3.05.18,0,.34-.03.46-.1.13-.07.23-.16.31-.28l.49.39c-.29.39-.71.58-1.26.58-.23,0-.44-.04-.63-.11-.19-.07-.36-.17-.5-.3-.14-.13-.25-.29-.33-.48-.08-.19-.12-.4-.12-.64s.04-.45.12-.64c.08-.19.19-.36.33-.49s.3-.24.49-.32c.19-.08.39-.11.61-.11.2,0,.39.03.56.1.17.07.32.17.45.3s.22.3.3.49c.07.2.11.43.11.69Zm-.73-.33c0-.09-.01-.18-.04-.27s-.07-.16-.12-.23c-.06-.07-.13-.12-.22-.16s-.19-.06-.31-.06c-.22,0-.41.07-.56.2-.15.13-.24.3-.25.51h1.5Z"/><path class="cls-1" d="m41.39,42.99c-.06-.08-.14-.15-.26-.2-.11-.05-.23-.08-.35-.08-.13,0-.25.03-.35.08-.1.06-.19.13-.25.22s-.12.19-.15.3c-.03.11-.05.23-.05.34s.02.23.05.34c.03.11.09.21.15.3.07.09.16.16.26.22.1.05.23.08.36.08.11,0,.23-.02.34-.07s.21-.11.27-.2l.46.46c-.12.13-.28.23-.47.3-.19.07-.39.11-.61.11s-.42-.03-.61-.1c-.19-.07-.36-.17-.51-.31-.14-.13-.26-.3-.34-.49-.08-.19-.12-.41-.12-.65s.04-.45.12-.64c.08-.19.2-.35.34-.49.14-.13.31-.24.5-.31.19-.07.39-.11.61-.11s.42.04.62.12.36.19.48.34l-.5.44Z"/><path class="cls-1" d="m45.64,45.11h-.69v-.47h-.01c-.07.15-.18.27-.34.39s-.35.17-.57.17c-.19,0-.35-.03-.49-.1-.14-.07-.25-.16-.34-.27-.09-.11-.15-.23-.19-.38-.04-.14-.06-.29-.06-.44v-1.83h.73v1.62c0,.09,0,.17.02.27.01.09.04.18.08.25.04.08.1.14.17.19.07.05.17.07.28.07s.21-.02.3-.07.16-.11.21-.18c.05-.07.1-.16.12-.25s.04-.19.04-.29v-1.61h.73v2.92Z"/><path class="cls-1" d="m47.13,42.18h.7v.49h.01c.08-.17.2-.31.34-.41.15-.11.32-.16.51-.16.03,0,.06,0,.09,0,.03,0,.06,0,.09.01v.67s-.09-.02-.12-.02c-.03,0-.07,0-.1,0-.17,0-.3.03-.4.09-.1.06-.18.13-.24.22s-.1.17-.12.26c-.02.09-.03.16-.03.21v1.57h-.73v-2.92Z"/><path class="cls-1" d="m49.86,41.19c0-.12.04-.22.13-.31s.2-.13.33-.13.25.04.34.12.14.19.14.31-.05.23-.14.31-.2.12-.34.12-.24-.04-.33-.13-.13-.19-.13-.31Zm.1.99h.73v2.92h-.73v-2.92Z"/><path class="cls-1" d="m51.77,42.77v-.58h.51v-.85h.72v.85h.73v.58h-.73v1.36c0,.13.02.24.07.32s.15.13.31.13c.05,0,.1,0,.16-.01.06,0,.11-.02.15-.05l.02.57c-.07.02-.14.04-.23.06s-.17.02-.26.02c-.2,0-.35-.03-.47-.08-.12-.05-.22-.13-.29-.23s-.12-.21-.15-.33c-.03-.12-.04-.26-.04-.4v-1.36h-.51Z"/><path class="cls-1" d="m54.44,42.18h.81l.82,2.13h.01l.72-2.13h.76l-1.38,3.55c-.05.13-.11.25-.17.36-.06.1-.13.19-.22.26-.09.07-.19.12-.3.16s-.25.06-.42.06c-.06,0-.12,0-.19,0-.06,0-.13-.02-.19-.03l.06-.63s.1.03.14.03c.05,0,.09,0,.13,0,.08,0,.14,0,.2-.03.05-.02.1-.05.13-.09s.07-.09.1-.14c.03-.06.06-.12.09-.2l.15-.37-1.26-2.92Z"/><path class="cls-1" d="m60.78,40.79h1.2l1.12,3.06h.02l1.11-3.06h1.21v4.31h-.76v-3.47h-.01l-1.31,3.47h-.54l-1.29-3.47h-.01v3.47h-.73v-4.31Z"/><path class="cls-1" d="m68.77,44.73h-.02c-.07.13-.19.24-.35.32-.16.08-.35.12-.55.12-.12,0-.24-.02-.37-.05-.13-.03-.25-.08-.35-.15-.11-.07-.2-.16-.27-.28-.07-.11-.11-.26-.11-.43,0-.22.06-.39.19-.52s.28-.23.48-.3c.2-.07.41-.11.65-.14.24-.02.47-.03.7-.03v-.07c0-.18-.07-.32-.2-.41-.13-.09-.29-.13-.47-.13-.15,0-.3.03-.44.1-.14.06-.26.14-.35.24l-.38-.44c.17-.15.36-.27.58-.35.22-.08.44-.12.66-.12.26,0,.47.04.64.11.17.07.3.17.4.29.1.12.17.25.2.4.04.15.06.29.06.44v1.78h-.68v-.37Zm-.01-.96h-.16c-.12,0-.24,0-.37.02s-.25.03-.36.07c-.11.03-.2.08-.27.15-.07.06-.11.15-.11.26,0,.07.01.13.05.17s.07.08.12.11c.05.03.1.05.16.06.06.01.12.02.18.02.25,0,.44-.07.57-.2s.2-.32.2-.55v-.1Z"/><path class="cls-1" d="m70.91,42.18h.69v.47h.01c.07-.15.18-.27.34-.39s.35-.17.57-.17c.19,0,.35.03.49.1.14.07.25.16.34.27.09.11.15.23.19.38.04.14.06.29.06.44v1.83h-.73v-1.62c0-.09,0-.17-.02-.27-.01-.09-.04-.18-.08-.25-.04-.07-.1-.14-.17-.19-.07-.05-.16-.07-.28-.07s-.22.02-.3.07-.16.11-.21.18c-.06.07-.1.16-.12.25-.03.1-.04.19-.04.29v1.61h-.73v-2.92Z"/><path class="cls-1" d="m76.88,44.73h-.02c-.07.13-.19.24-.35.32-.16.08-.35.12-.55.12-.12,0-.24-.02-.37-.05-.13-.03-.25-.08-.35-.15-.11-.07-.2-.16-.27-.28-.07-.11-.11-.26-.11-.43,0-.22.06-.39.19-.52s.28-.23.48-.3c.2-.07.41-.11.65-.14.24-.02.47-.03.7-.03v-.07c0-.18-.07-.32-.2-.41-.13-.09-.29-.13-.47-.13-.15,0-.3.03-.44.1-.14.06-.26.14-.35.24l-.38-.44c.17-.15.36-.27.58-.35.22-.08.44-.12.66-.12.26,0,.47.04.64.11.17.07.3.17.4.29.1.12.17.25.2.4.04.15.06.29.06.44v1.78h-.68v-.37Zm-.01-.96h-.16c-.12,0-.24,0-.37.02s-.25.03-.36.07c-.11.03-.2.08-.27.15-.07.06-.11.15-.11.26,0,.07.01.13.05.17s.07.08.12.11c.05.03.1.05.16.06.06.01.12.02.18.02.25,0,.44-.07.57-.2s.2-.32.2-.55v-.1Z"/><path class="cls-1" d="m82,42.18v2.66c0,.26-.03.5-.1.72-.06.21-.17.39-.3.54-.14.15-.31.26-.51.34s-.45.12-.74.12c-.12,0-.24-.01-.37-.03-.13-.02-.26-.05-.39-.09s-.25-.09-.37-.15c-.12-.06-.22-.13-.32-.21l.42-.57c.14.13.3.24.48.31.18.07.36.11.54.11s.32-.03.44-.08c.12-.05.22-.12.29-.21.07-.09.12-.2.15-.32.03-.12.05-.26.05-.4v-.21h-.01c-.11.14-.24.25-.41.33-.16.08-.35.11-.55.11-.22,0-.42-.04-.6-.12-.18-.08-.33-.19-.45-.33-.12-.14-.22-.3-.29-.48-.07-.18-.1-.38-.1-.59s.03-.41.1-.6c.07-.19.16-.35.29-.49.12-.14.27-.25.45-.33s.37-.12.59-.12c.21,0,.4.04.58.13s.32.22.43.4h.01v-.44h.69Zm-1.56.51c-.13,0-.25.02-.36.07-.1.05-.19.11-.26.2-.07.08-.13.18-.16.29-.04.11-.06.23-.06.36,0,.12.02.23.06.34s.09.21.16.29.16.16.26.21c.1.05.22.08.35.08s.25-.03.36-.08c.11-.05.2-.12.27-.2.07-.09.13-.18.17-.29s.06-.23.06-.35-.02-.24-.06-.36c-.04-.11-.1-.21-.17-.3-.08-.09-.17-.15-.27-.2-.11-.05-.23-.07-.36-.07Z"/><path class="cls-1" d="m86.27,43.68v.1s0,.06,0,.1h-2.22c0,.11.03.2.08.29.05.09.11.16.19.23.08.06.16.11.26.15.1.04.2.05.3.05.18,0,.34-.03.46-.1.13-.07.23-.16.31-.28l.49.39c-.29.39-.71.58-1.26.58-.23,0-.44-.04-.63-.11-.19-.07-.36-.17-.5-.3-.14-.13-.25-.29-.33-.48-.08-.19-.12-.4-.12-.64s.04-.45.12-.64c.08-.19.19-.36.33-.49s.3-.24.49-.32c.19-.08.39-.11.61-.11.2,0,.39.03.56.1.17.07.32.17.45.3s.22.3.3.49c.07.2.11.43.11.69Zm-.73-.33c0-.09-.01-.18-.04-.27s-.07-.16-.12-.23c-.06-.07-.13-.12-.22-.16s-.19-.06-.31-.06c-.22,0-.41.07-.56.2-.15.13-.24.3-.25.51h1.5Z"/><path class="cls-1" d="m91.08,42.1c.19,0,.35.03.49.1.14.07.25.16.34.27.09.11.15.23.19.38.04.14.06.29.06.44v1.83h-.73v-1.62c0-.09,0-.17-.02-.27-.01-.09-.04-.18-.08-.25-.04-.07-.1-.14-.17-.19-.07-.05-.17-.07-.28-.07s-.21.02-.29.07-.15.11-.2.19c-.05.08-.09.16-.11.26-.02.1-.04.19-.04.28v1.6h-.73v-1.77c0-.18-.04-.33-.13-.45-.09-.12-.22-.18-.41-.18-.11,0-.21.02-.29.07s-.15.11-.2.18-.09.16-.11.25c-.03.1-.04.19-.04.29v1.61h-.73v-2.92h.69v.47h.01c.03-.07.08-.14.13-.21.05-.06.12-.12.2-.18s.16-.09.26-.12.21-.05.32-.05c.23,0,.42.05.57.15.15.1.27.24.35.4.1-.18.23-.32.39-.41.16-.1.35-.14.57-.14Z"/><path class="cls-1" d="m96.41,43.68v.1s0,.06,0,.1h-2.22c0,.11.03.2.08.29.05.09.11.16.19.23.08.06.16.11.26.15.1.04.2.05.3.05.18,0,.34-.03.46-.1.13-.07.23-.16.31-.28l.49.39c-.29.39-.71.58-1.26.58-.23,0-.44-.04-.63-.11-.19-.07-.36-.17-.5-.3-.14-.13-.25-.29-.33-.48-.08-.19-.12-.4-.12-.64s.04-.45.12-.64c.08-.19.19-.36.33-.49s.3-.24.49-.32c.19-.08.39-.11.61-.11.2,0,.39.03.56.1.17.07.32.17.45.3s.22.3.3.49c.07.2.11.43.11.69Zm-.73-.33c0-.09-.01-.18-.04-.27s-.07-.16-.12-.23c-.06-.07-.13-.12-.22-.16s-.19-.06-.31-.06c-.22,0-.41.07-.56.2-.15.13-.24.3-.25.51h1.5Z"/><path class="cls-1" d="m97.72,42.18h.69v.47h.01c.07-.15.18-.27.34-.39s.35-.17.57-.17c.19,0,.35.03.49.1.14.07.25.16.34.27.09.11.15.23.19.38.04.14.06.29.06.44v1.83h-.73v-1.62c0-.09,0-.17-.02-.27-.01-.09-.04-.18-.08-.25-.04-.07-.1-.14-.17-.19-.07-.05-.16-.07-.28-.07s-.22.02-.3.07-.16.11-.21.18c-.06.07-.1.16-.12.25-.03.1-.04.19-.04.29v1.61h-.73v-2.92Z"/><path class="cls-1" d="m101.46,42.77v-.58h.51v-.85h.72v.85h.73v.58h-.73v1.36c0,.13.02.24.07.32s.15.13.31.13c.05,0,.1,0,.16-.01.06,0,.11-.02.15-.05l.02.57c-.07.02-.14.04-.23.06s-.17.02-.26.02c-.2,0-.35-.03-.47-.08-.12-.05-.22-.13-.29-.23s-.12-.21-.15-.33c-.03-.12-.04-.26-.04-.4v-1.36h-.51Z"/></g></g></g></svg>