<svg width="1920" height="800" viewBox="0 0 1920 800" fill="none" xmlns="http://www.w3.org/2000/svg">
<g clip-path="url(#clip0_1336_592729)">
<g opacity="0.5">
<mask id="mask0_1336_592729" style="mask-type:luminance" maskUnits="userSpaceOnUse" x="-1" y="-3" width="1921" height="1080">
<path d="M1919.5 -3H-0.5V1077H1919.5V-3Z" fill="white"/>
</mask>
<g mask="url(#mask0_1336_592729)">
<path d="M1919.5 357.4C1808 367.4 1780.2 601.4 1643.2 581.4C1506.2 561.4 1511.6 391.7 1336.3 359.5C1157 326.5 925.6 511.4 732.9 511.4C538 511.4 412.3 339.4 278.8 327.4C145.3 315.4 59.8 449.4 -9.5 603.4" stroke="#F1F1F2" stroke-miterlimit="10"/>
<path d="M-9.5 591C59 439.4 143.2 306.5 276 318.5C408.8 330.4 533.1 503.2 723.2 510.5C911 517.7 1137.2 341.9 1316.6 374.1C1495.6 405.7 1493 558.6 1629.9 577.7C1766.8 596.8 1792.8 386.1 1919.5 377.2" stroke="#EEEEEF" stroke-miterlimit="10"/>
<path d="M-9.5 578.599C58.3 429.399 141.3 297.699 273.3 309.499C405.3 321.299 528.3 494.899 713.6 509.499C896.4 523.899 1117.5 357.799 1296.9 388.699C1479.6 420.199 1479.8 555.799 1616.6 573.999C1753.4 592.199 1777.6 404.899 1919.5 396.999" stroke="#ECECED" stroke-miterlimit="10"/>
<path d="M-9.5 566.2C57.6 419.4 139.2 288.9 270.5 300.6C401.8 312.3 523.3 486.7 703.9 508.5C881.7 530 1097.7 373.3 1277.2 403.2C1463.6 434.3 1466.7 552.9 1603.3 570.2C1739.9 587.5 1762.4 423.5 1919.5 416.7" stroke="#E9E9EA" stroke-miterlimit="10"/>
<path d="M-9.5 553.699C56.8 409.299 137.1 279.999 267.7 291.599C398.3 303.299 518.3 478.299 694.2 507.499C866.9 536.199 1078 388.799 1257.5 417.799C1447.6 448.499 1453.6 550.099 1590 566.599C1726.5 583.099 1747.2 442.299 1919.5 436.499" stroke="#E6E7E8" stroke-miterlimit="10"/>
<path d="M-9.5 541.3C56 399.2 135.1 271.1 264.9 282.7C394.7 294.3 513.2 470 684.4 506.6C852 542.4 1058.1 404.4 1237.7 432.5C1431.6 462.7 1440.3 547.4 1576.7 563C1713 578.5 1732 461 1919.5 456.3" stroke="#E4E4E5" stroke-miterlimit="10"/>
<path d="M-9.5 528.9C55.3 389.2 133.1 262.2 262.2 273.7C391.3 285.2 508.2 461.6 674.8 505.6C837.2 548.4 1038.4 419.9 1218.1 447C1415.7 476.8 1427.3 544.5 1563.5 559.2C1699.7 573.9 1717 479.8 1919.6 476.1" stroke="#E1E1E3" stroke-miterlimit="10"/>
<path d="M-9.5 516.5C54.5 379.2 131.1 253.4 259.4 264.8C387.7 276.2 503 453.3 665.1 504.7C822.3 554.5 1018.7 435.5 1198.3 461.7C1399.6 491 1414 541.8 1550.1 555.6C1686.2 569.4 1701.7 498.6 1919.5 496" stroke="#DFDFE0" stroke-miterlimit="10"/>
<path d="M-9.5 504.1C53.7 369.1 129 244.5 256.6 255.8C384.2 267.1 497.7 444.7 655.4 503.6C807.3 560.4 999 450.8 1178.6 476.1C1383.7 505 1400.9 538.8 1536.8 551.7C1672.7 564.6 1686.5 517.1 1919.5 515.6" stroke="#DCDCDE" stroke-miterlimit="10"/>
<path d="M-9.5 491.6C53 359.1 127 235.6 253.8 246.9C380.6 258.1 492.4 436.2 645.7 502.7C792.4 566.3 979.2 466.4 1158.9 490.8C1367.7 519.2 1387.7 536.1 1523.5 548.1C1659.3 560.1 1671.3 536 1919.5 535.5" stroke="#D9DADB" stroke-miterlimit="10"/>
<path d="M-9.5 479.2C52.2 349.1 124.9 226.8 251 237.9C377.1 249 487.2 427.6 636 501.7C777.4 572.1 959.5 481.8 1139.2 505.3C1351.8 533.1 1374.6 533.2 1510.3 544.3C1646 555.5 1656.2 554.6 1919.5 555.1" stroke="#D7D7D9" stroke-miterlimit="10"/>
<path d="M-9.5 466.8C51.5 339 122.9 217.9 248.2 229C373.6 240 481.8 418.9 626.2 500.8C762.3 578 939.6 497.3 1119.4 520C1335.7 547.3 1361.4 530.5 1496.9 540.7C1632.4 551 1640.9 573.4 1919.4 575" stroke="#D4D5D6" stroke-miterlimit="10"/>
<path d="M-9.5 454.4C50.7 329 120.8 209 245.5 220C370.1 231 476.6 410.1 616.6 499.8C747.4 583.6 920 512.6 1099.7 534.5C1319.8 561.3 1348.2 527.6 1483.6 536.9C1619 546.2 1625.7 592 1919.4 594.7" stroke="#D1D2D4" stroke-miterlimit="10"/>
<path d="M-9.5 442C50 319 118.8 200.2 242.7 211.1C366.6 222 471.3 401.2 606.9 498.9C732.4 589.2 900.3 528.1 1080 549.2C1303.8 575.4 1335.1 524.9 1470.3 533.4C1605.5 541.9 1610.6 611 1919.4 614.7" stroke="#CFCFD1" stroke-miterlimit="10"/>
<path d="M-9.5 429.5C49.3 308.9 116.8 191.3 239.9 202.1C363 212.9 466.1 392.3 597.2 497.8C717.4 594.6 880.5 543.4 1060.3 563.6C1287.9 589.3 1321.9 521.9 1457 529.5C1592.1 537.1 1595.4 629.5 1919.4 634.3" stroke="#CCCDCF" stroke-miterlimit="10"/>
<path d="M-9.5 417.1C48.5 298.9 114.8 182.4 237.2 193.1C359.6 203.8 460.9 383.2 587.6 496.8C702.6 600 860.9 558.7 1040.7 578.2C1272 603.3 1308.9 519.1 1443.9 525.8C1578.9 532.5 1580.4 648.2 1919.6 654.1" stroke="#C9CACC" stroke-miterlimit="10"/>
<path d="M-9.5 404.7C47.8 288.9 112.7 173.6 234.4 184.2C356 194.8 455.7 374.1 577.8 495.9C687.7 605.5 841.1 574.1 1020.8 592.8C1255.9 617.3 1295.5 516.2 1430.4 522.1C1565.2 527.9 1565 666.9 1919.4 673.8" stroke="#C7C8CA" stroke-miterlimit="10"/>
<path d="M-9.5 392.3C47 278.8 110.7 164.7 231.6 175.3C352.5 185.8 450.6 365 568.1 494.9C672.9 610.8 821.4 589.4 1001.1 607.4C1240 631.2 1282.4 513.4 1417.1 518.4C1551.8 523.4 1549.8 685.7 1919.4 693.6" stroke="#C4C5C7" stroke-miterlimit="10"/>
<path d="M-9.5 379.9C46.2 268.8 108.7 155.9 228.8 166.3C349 176.7 445.6 355.8 558.4 494C658.1 616.1 801.6 604.8 981.4 622C1224 645.2 1269.3 510.6 1403.8 514.7C1538.3 518.8 1534.6 704.4 1919.4 713.4" stroke="#C2C3C5" stroke-miterlimit="10"/>
<path d="M-9.5 367.4C45.4 258.7 106.6 147 226 157.3C345.4 167.7 440.7 346.6 548.7 493C643.4 621.3 781.9 620.1 961.7 636.6C1208.1 659.2 1256.1 507.8 1390.5 511C1524.9 514.2 1519.4 723.1 1919.4 733.2" stroke="#BFC0C2" stroke-miterlimit="10"/>
<path d="M-9.5 355C44.7 248.7 104.6 138.1 223.3 148.4C341.9 158.7 435.8 337.4 539 492C628.8 626.6 762.2 635.4 942 651.1C1192.2 673 1243 504.9 1377.3 507.2C1511.6 509.5 1504.3 741.8 1919.5 752.9" stroke="#BCBDBF" stroke-miterlimit="10"/>
<path d="M-9.5 342.6C44 238.7 102.6 129.3 220.5 139.5C338.4 149.6 431 328.1 529.3 491C614.3 631.8 742.5 650.7 922.2 665.7C1176.1 686.9 1229.7 502.1 1363.9 503.5C1498.1 504.9 1489.1 760.5 1919.4 772.7" stroke="#BABBBD" stroke-miterlimit="10"/>
<path d="M-9.5 330.2C43.2 228.7 100.5 120.4 217.7 130.5C334.9 140.6 426.3 318.9 519.7 490.1C599.8 637.1 722.8 666 902.6 680.3C1160.3 700.8 1216.7 499.3 1350.7 499.9C1484.7 500.5 1474 779.3 1919.5 792.5" stroke="#B7B8BA" stroke-miterlimit="10"/>
<path d="M-9.5 317.8C42.5 218.7 98.5 111.6 214.9 121.6C331.4 131.6 421.6 309.7 509.9 489.2C585.3 642.4 703 681.4 882.8 695C1144.3 714.8 1203.4 496.6 1337.3 496.3C1471.2 496 1458.7 798.1 1919.4 812.4" stroke="#B4B6B8" stroke-miterlimit="10"/>
<path d="M-9.5 305.3C41.7 208.5 96.5 102.6 212.2 112.6C327.9 122.5 417.1 300.4 500.3 488.1C571 647.5 683.4 696.5 863.2 709.5C1128.4 728.6 1190.4 493.7 1324.1 492.5C1457.8 491.3 1443.6 816.8 1919.5 832.1" stroke="#B2B3B5" stroke-miterlimit="10"/>
<path d="M-9.5 292.9C40.9 198.5 94.4 93.7997 209.3 103.6C324.3 113.4 412.4 291.1 490.5 487.1C556.5 652.8 663.6 711.8 843.4 724C1112.4 742.3 1177.2 490.8 1310.8 488.7C1444.4 486.6 1428.4 835.4 1919.5 851.8" stroke="#AFB0B3" stroke-miterlimit="10"/>
<path d="M-9.5 280.5C40.2 188.5 92.4 84.8998 206.6 94.6998C320.8 104.5 408 282 480.9 486.2C542.3 658.2 643.9 727.1 823.7 738.7C1096.5 756.2 1164 488.1 1297.5 485.1C1431 482.1 1413.2 854.2 1919.5 871.7" stroke="#ACAEB0" stroke-miterlimit="10"/>
<path d="M-9.5 268.1C39.5 178.5 90.3 76.0997 203.8 85.7997C317.3 95.4997 403.5 272.9 471.2 485.3C528 663.6 624.2 742.4 804 753.3C1080.5 770.1 1150.9 485.3 1284.2 481.4C1417.5 477.5 1398 873 1919.5 891.5" stroke="#AAABAE" stroke-miterlimit="10"/>
<path d="M-9.5 255.7C38.7 168.4 88.3 67.1999 201 76.7999C313.7 86.3999 399.1 263.7 461.5 484.3C513.7 668.9 604.5 757.6 784.3 767.9C1064.6 783.9 1137.7 482.5 1270.9 477.7C1404.1 472.9 1382.9 891.7 1919.5 911.2" stroke="#A7A9AB" stroke-miterlimit="10"/>
<path d="M-9.5 243.2C37.9 158.4 86.2 58.2995 198.2 67.7995C310.2 77.2995 394.6 254.5 451.7 483.2C499.4 674.2 584.7 772.699 764.5 782.299C1048.6 797.399 1124.5 479.5 1257.5 473.8C1390.6 468.1 1367.6 910.199 1919.4 930.799" stroke="#A4A6A9" stroke-miterlimit="10"/>
<path d="M-9.5 230.8C37.2 148.3 84.2 49.4999 195.5 58.8999C306.8 68.2999 390.3 245.5 442.1 482.3C485.2 679.7 565 788 744.8 797C1032.6 811.3 1111.3 476.8 1244.3 470.3C1377.2 463.8 1352.5 929.1 1919.5 950.8" stroke="#A2A4A6" stroke-miterlimit="10"/>
<path d="M-9.5 218.4C36.4 138.3 82.2 40.5996 192.7 49.8996C303.2 59.1996 386 236.4 432.4 481.3C471 685.1 545.3 803.3 725.1 811.6C1016.7 825.1 1098.2 474 1231 466.6C1363.8 459.2 1337.3 947.9 1919.5 970.6" stroke="#9FA1A4" stroke-miterlimit="10"/>
<path d="M-9.5 206C35.6 128.3 80.1 31.7999 189.9 40.9999C299.7 50.1999 381.6 227.4 422.7 480.4C456.9 690.6 525.6 818.5 705.4 826.2C1000.8 838.8 1085 471.2 1217.7 462.9C1350.4 454.6 1322.1 966.6 1919.5 990.4" stroke="#9D9EA1" stroke-miterlimit="10"/>
<path d="M-9.5 193.6C34.9 118.3 78.1 22.8996 187.1 31.9996C296.1 41.0996 377.3 218.4 413 479.4C442.7 696.1 505.9 833.7 685.7 840.7C984.8 852.4 1071.9 468.3 1204.4 459.1C1336.9 449.9 1306.9 985.2 1919.5 1010.1" stroke="#9A9C9F" stroke-miterlimit="10"/>
<path d="M-9.5 181.1C34.1 108.2 76 13.9996 184.3 23.0996C292.6 32.1996 372.9 209.4 403.3 478.5C428.5 701.6 486.2 848.6 666 855.4C968.9 865.7 1058.8 465.6 1191.1 455.5C1323.5 445.4 1291.7 1004.1 1919.5 1029.9" stroke="#97999C" stroke-miterlimit="10"/>
<path d="M-9.5 168.7C33.4 98.1996 74 5.19966 181.6 14.0997C289.2 22.9997 369.2 200.4 393.6 477.4C414.7 707 466.4 863.8 646.2 869.8C952.9 879.4 1045.5 462.6 1177.8 451.6C1310 440.6 1276.6 1022.6 1919.4 1049.5" stroke="#95979A" stroke-miterlimit="10"/>
<path d="M-9.5 156.3C32.6 88.0998 72 -3.70023 178.8 5.19977C285.6 14.0998 364.3 191.5 383.9 476.5C400.1 712.7 446.7 879.3 626.5 884.5C936.9 893.5 1032.4 459.9 1164.5 448C1296.6 436.1 1261.4 1041.4 1919.4 1069.4" stroke="#929497" stroke-miterlimit="10"/>
</g>
</g>
<path d="M81.4 752.6L75.5 734.4H78L80.8 743.4C81.6 745.9 82.3 748.1 82.7 750.2H82.8C83.3 748.1 84.1 745.8 84.9 743.4L88 734.4H90.5L84 752.6H81.4Z" fill="#929497"/>
<path d="M92.8001 746.5C92.9001 749.7 94.9001 751 97.3001 751C99.0001 751 100 750.7 100.9 750.3L101.3 752C100.5 752.4 99.0001 752.8 97.0001 752.8C93.0001 752.8 90.6001 750.2 90.6001 746.2C90.6001 742.3 92.9001 739.2 96.7001 739.2C101 739.2 102.1 743 102.1 745.4C102.1 745.9 102 746.3 102 746.5H92.8001ZM99.8001 744.8C99.8001 743.3 99.2001 740.9 96.5001 740.9C94.1001 740.9 93.0001 743.1 92.9001 744.8H99.8001Z" fill="#929497"/>
<path d="M114.3 752.2C113.7 752.5 112.3 753 110.5 753C106.6 753 104 750.3 104 746.3C104 742.3 106.8 739.4 111 739.4C112.4 739.4 113.6 739.8 114.3 740.1L113.8 741.9C113.2 741.6 112.3 741.3 111 741.3C108 741.3 106.4 743.5 106.4 746.2C106.4 749.2 108.3 751.1 110.9 751.1C112.2 751.1 113.1 750.7 113.8 750.5L114.3 752.2Z" fill="#929497"/>
<path d="M120.3 735.801V739.601H123.7V741.401H120.3V748.401C120.3 750.001 120.8 750.901 122.1 750.901C122.7 750.901 123.2 750.801 123.5 750.701L123.6 752.501C123.1 752.701 122.4 752.801 121.5 752.801C120.4 752.801 119.5 752.401 118.9 751.801C118.2 751.101 118 749.901 118 748.401V741.301H116V739.501H118V736.401L120.3 735.801Z" fill="#929497"/>
<path d="M127.5 746.5C127.6 749.7 129.6 751 132 751C133.7 751 134.7 750.7 135.6 750.3L136 752C135.2 752.4 133.7 752.8 131.7 752.8C127.7 752.8 125.3 750.2 125.3 746.2C125.3 742.3 127.6 739.2 131.4 739.2C135.7 739.2 136.8 743 136.8 745.4C136.8 745.9 136.7 746.3 136.7 746.5H127.5ZM134.5 744.8C134.5 743.3 133.9 740.9 131.2 740.9C128.8 740.9 127.7 743.1 127.6 744.8H134.5Z" fill="#929497"/>
<path d="M141.1 746.5C141.2 749.7 143.2 751 145.6 751C147.3 751 148.3 750.7 149.2 750.3L149.6 752C148.8 752.4 147.3 752.8 145.3 752.8C141.3 752.8 138.9 750.2 138.9 746.2C138.9 742.3 141.2 739.2 145 739.2C149.3 739.2 150.4 743 150.4 745.4C150.4 745.9 150.3 746.3 150.3 746.5H141.1ZM148 744.8C148 743.3 147.4 740.9 144.7 740.9C142.3 740.9 141.2 743.1 141.1 744.8H148Z" fill="#929497"/>
<path d="M151.8 751.301L157.7 743.601C158.3 742.901 158.8 742.301 159.4 741.601V741.501H152.3V739.601H162.3V741.101L156.5 748.701C156 749.401 155.4 750.101 154.8 750.801V750.901H162.4V752.801H151.8V751.301Z" fill="#929497"/>
<path d="M166.3 739.601L169.2 747.301C169.5 748.201 169.8 749.201 170 750.001H170.1C170.3 749.201 170.6 748.201 170.9 747.301L173.5 739.601H176L172.4 748.901C170.7 753.401 169.5 755.701 167.9 757.101C166.7 758.101 165.6 758.501 165 758.601L164.4 756.601C165 756.401 165.8 756.001 166.5 755.401C167.1 754.901 168 754.001 168.5 752.801C168.6 752.601 168.7 752.401 168.7 752.201C168.7 752.101 168.6 751.901 168.5 751.601L163.7 739.601H166.3Z" fill="#929497"/>
<path d="M176.6 751.2C176.6 750.2 177.3 749.5 178.2 749.5C179.1 749.5 179.8 750.2 179.8 751.2C179.8 752.2 179.2 752.9 178.2 752.9C177.2 752.9 176.6 752.2 176.6 751.2Z" fill="#929497"/>
<path d="M192 752.2C191.4 752.5 190 753 188.2 753C184.3 753 181.7 750.3 181.7 746.3C181.7 742.3 184.5 739.4 188.7 739.4C190.1 739.4 191.3 739.8 192 740.1L191.5 741.9C190.9 741.6 190 741.3 188.7 741.3C185.7 741.3 184.1 743.5 184.1 746.2C184.1 749.2 186 751.1 188.6 751.1C190 751.1 190.8 750.7 191.5 750.5L192 752.2Z" fill="#929497"/>
<path d="M206.5 746.001C206.5 750.801 203.2 752.901 200 752.901C196.5 752.901 193.7 750.301 193.7 746.201C193.7 741.801 196.6 739.301 200.2 739.301C204 739.301 206.5 742.001 206.5 746.001ZM196.1 746.101C196.1 749.001 197.7 751.101 200.1 751.101C202.4 751.101 204.1 749.001 204.1 746.001C204.1 743.801 203 741.001 200.2 741.001C197.4 741.001 196.1 743.701 196.1 746.101Z" fill="#929497"/>
<path d="M209.5 743.101C209.5 741.801 209.5 740.601 209.4 739.601H211.5L211.6 741.701H211.7C212.4 740.501 213.6 739.301 215.8 739.301C217.6 739.301 218.9 740.401 219.5 741.901H219.6C220 741.201 220.5 740.601 221.1 740.201C221.9 739.601 222.7 739.301 224 739.301C225.7 739.301 228.3 740.401 228.3 745.001V752.701H226V745.301C226 742.801 225.1 741.301 223.2 741.301C221.8 741.301 220.8 742.301 220.4 743.501C220.3 743.801 220.2 744.301 220.2 744.701V752.801H217.9V745.001C217.9 742.901 217 741.401 215.2 741.401C213.7 741.401 212.6 742.601 212.3 743.801C212.2 744.201 212.1 744.601 212.1 745.001V752.901H209.8V743.101H209.5Z" fill="#929497"/>
</g>
<defs>
<clipPath id="clip0_1336_592729">
<rect width="1920" height="800" fill="white"/>
</clipPath>
</defs>
</svg>
