<svg width="164" height="116" viewBox="0 0 164 116" fill="none" xmlns="http://www.w3.org/2000/svg">
<path d="M40.4233 94.4381C40.4233 90.0568 37.2044 87.9109 33.2702 87.9109H23.7029V108.565H27.816V101.144H32.0184L35.6844 108.565H40.4233L36.4891 100.518C39.0821 99.5346 40.4233 97.5676 40.4233 94.4381ZM33.1808 97.2099H27.816V91.9345H33.1808C34.969 91.9345 36.1314 92.7392 36.1314 94.5275C36.1314 96.4052 35.1479 97.2099 33.1808 97.2099Z" fill="#784D2B"/>
<path d="M48.2916 92.7391C45.7881 92.7391 44.268 93.2756 42.4798 94.2592L44.0892 97.1204C45.5198 96.3157 46.5034 96.0474 48.3811 96.0474C49.9011 96.0474 50.6164 96.9416 50.6164 98.0145V98.8193C49.9905 98.4616 49.0069 98.1934 47.6657 98.1934C44.1786 98.1934 41.4068 99.8922 41.4068 103.29C41.4068 107.045 44.268 108.834 47.2187 108.834C48.6493 108.834 49.9905 108.208 50.7058 107.492V108.565H54.8188V98.1934C54.64 94.7062 52.047 92.7391 48.2916 92.7391ZM50.527 104.005C50.0799 104.721 49.0069 105.436 47.6657 105.436C45.9669 105.436 45.341 104.452 45.341 103.379C45.341 102.128 46.1457 101.412 47.6657 101.412C49.0964 101.412 49.8117 101.591 50.527 102.038V104.005Z" fill="#784D2B"/>
<path d="M64.0284 92.7391C62.5084 92.7391 61.5249 93.365 60.7201 94.0803V93.0968H56.6071V114.288L60.7201 112.231V107.671C61.4354 108.386 62.5978 108.923 64.0284 108.923C67.8732 108.923 70.0191 105.704 70.0191 101.055C70.0191 95.2427 67.3367 92.7391 64.0284 92.7391ZM63.492 105.078C62.3296 105.078 61.346 104.631 60.7201 103.737V97.9251C61.346 97.1204 61.9719 96.5839 63.2237 96.5839C64.8332 96.5839 65.9061 97.9251 65.9061 101.055C65.9061 103.737 65.012 105.078 63.492 105.078Z" fill="#784D2B"/>
<path d="M76.0099 93.0969H71.8969V108.565H76.0099V93.0969Z" fill="#784D2B"/>
<path d="M73.9534 87.1957C72.7016 87.1957 71.6286 88.2686 71.6286 89.5204C71.6286 90.7722 72.7016 91.8452 73.9534 91.8452C75.2051 91.8452 76.2781 90.7722 76.2781 89.5204C76.2781 88.1792 75.2051 87.1957 73.9534 87.1957Z" fill="#784D2B"/>
<path d="M87.2759 89.0733V93.9016C86.5606 93.1863 85.3983 92.6498 83.9676 92.6498C80.1229 92.6498 77.9769 95.8687 77.9769 100.518C77.9769 106.33 80.6593 108.744 83.9676 108.744C85.3983 108.744 86.4712 108.118 87.2759 107.403V108.387H91.389V87.1062L87.2759 89.0733ZM87.2759 103.737C86.65 104.542 86.0242 105.078 84.7724 105.078C83.1629 105.078 82.09 103.737 82.09 100.518C82.09 97.9252 82.9841 96.584 84.5041 96.584C85.6665 96.584 86.65 97.0311 87.2759 97.9252V103.737Z" fill="#784D2B"/>
<path d="M102.297 95.9582C98.9892 95.1534 98.095 94.7958 98.095 93.4546C98.095 92.5604 98.8103 91.5769 101.046 91.5769C102.923 91.5769 104.443 92.3816 105.695 93.7228L108.646 90.8616C106.679 88.8051 104.354 87.6427 101.135 87.6427C97.0221 87.6427 93.7138 89.9675 93.7138 93.7228C93.7138 97.8358 96.3962 98.9982 100.152 99.8924C104.086 100.786 104.712 101.412 104.712 102.664C104.712 104.274 103.549 104.9 101.135 104.9C99.168 104.9 97.2903 104.184 95.8597 102.575L92.9091 105.257C94.4291 107.582 97.4691 109.013 100.956 109.013C106.589 109.013 109.093 106.33 109.093 102.396C109.182 97.8358 105.606 96.7629 102.297 95.9582Z" fill="#EB501E"/>
<path d="M119.286 95.9582C115.978 95.1534 115.084 94.7958 115.084 93.4546C115.084 92.5604 115.799 91.5769 118.034 91.5769C119.912 91.5769 121.432 92.3816 122.684 93.7228L125.634 90.8616C123.667 88.8051 121.343 87.6427 118.124 87.6427C114.011 87.6427 110.702 89.9675 110.702 93.7228C110.702 97.8358 113.385 98.9982 117.14 99.8924C121.074 100.786 121.7 101.412 121.7 102.664C121.7 104.274 120.538 104.9 118.124 104.9C116.157 104.9 114.279 104.184 112.848 102.575L109.898 105.257C111.418 107.582 114.458 109.013 117.945 109.013C123.578 109.013 126.081 106.33 126.081 102.396C126.171 97.8358 122.594 96.7629 119.286 95.9582Z" fill="#EB501E"/>
<path d="M128.943 108.565H140.298L137.795 104.542H133.056V87.9109H128.943V108.565Z" fill="#EB501E"/>
<path d="M54.5518 42.2613H107.266C110.227 42.2613 112.745 39.8921 112.745 36.7826C112.745 33.8211 110.375 31.3039 107.266 31.3039H105.341V25.6771C105.341 12.6466 94.6797 1.98535 81.6492 1.98535C68.6188 1.98535 57.9575 12.6466 57.9575 25.6771V31.452H54.5518C51.5903 31.452 49.0731 33.8211 49.0731 36.9307C49.2211 39.8921 51.5903 42.2613 54.5518 42.2613ZM68.3226 25.8252C68.3226 18.4215 74.2455 12.4986 81.6492 12.4986C89.0529 12.4986 94.9758 18.4215 94.9758 25.8252V31.452H68.3226V25.8252Z" fill="#784D2B"/>
<path d="M107.266 45.5189H54.5518C51.5903 45.5189 49.0731 47.8881 49.0731 50.9976C49.0731 53.9591 51.4422 56.4764 54.5518 56.4764H107.266C110.227 56.4764 112.745 54.1072 112.745 50.9976C112.745 48.0362 110.227 45.5189 107.266 45.5189Z" fill="#784D2B"/>
<path d="M107.266 59.734H54.5518C51.5903 59.734 49.0731 62.1032 49.0731 65.2127C49.0731 68.1742 51.4422 70.6914 54.5518 70.6914H107.266C110.227 70.6914 112.745 68.3223 112.745 65.2127C112.745 62.2513 110.227 59.734 107.266 59.734Z" fill="#784D2B"/>
</svg>
