<svg width="165" height="116" viewBox="0 0 165 116" fill="none" xmlns="http://www.w3.org/2000/svg">
<path d="M34.4421 109.601C32.1094 109.601 30.1118 109.151 28.4492 108.251C26.8419 107.409 25.5351 106.089 24.7083 104.473C23.8782 102.86 23.4632 100.962 23.4632 98.7781C23.4632 96.5572 23.9328 94.5658 24.8721 92.8039C25.7761 91.0794 27.1507 89.6467 28.8363 88.6721C30.5486 87.6795 32.4966 87.1832 34.6803 87.1832C37.4968 87.1832 39.8791 87.9091 41.8271 89.3608L40.6806 91.3336C38.956 90.1586 36.9769 89.5711 34.7436 89.5711C33.2041 89.5442 31.6882 89.9519 30.3699 90.7473C29.1077 91.5269 28.094 92.6503 27.4479 93.9857C26.7514 95.4365 26.4022 97.0295 26.428 98.6386C26.428 101.244 27.1228 103.316 28.5125 104.855C29.9021 106.393 31.9184 107.163 34.5612 107.163C36.3603 107.163 37.9423 106.905 39.3071 106.388V100.247H33.8167V97.8271H42.136V107.989C39.8282 109.044 37.266 109.571 34.4495 109.571L34.4421 109.601Z" fill="#5E6C75"/>
<path d="M52.6812 109.601C50.2494 109.601 48.3138 108.875 46.8745 107.423C45.4352 105.972 44.7218 104.055 44.7342 101.672C44.7342 99.3148 45.4228 97.3792 46.8 95.8655C48.1773 94.3518 50.0012 93.5887 52.2718 93.5763C53.6987 93.5763 54.9208 93.9088 55.9382 94.5739C56.9515 95.2302 57.743 96.1773 58.2088 97.2911C58.7263 98.554 58.9797 99.9095 58.9533 101.274C58.9533 101.46 58.9384 101.706 58.9086 102.004H47.5743C47.6041 103.716 48.096 105.037 49.0502 105.968C50.0043 106.898 51.2637 107.362 52.8283 107.36C54.596 107.382 56.3154 106.783 57.6859 105.666L58.5066 107.695C56.8688 108.96 54.927 109.593 52.6812 109.593V109.601ZM47.6376 100.146H56.4221C56.3216 98.7441 55.9141 97.6646 55.1994 96.9077C54.4847 96.1509 53.5293 95.7731 52.3332 95.7743C51.1732 95.7368 50.0444 96.1543 49.1879 96.9375C48.3491 97.7118 47.8299 98.7788 47.6301 100.139L47.6376 100.146Z" fill="#5E6C75"/>
<path d="M68.501 109.601C66.0195 109.601 64.0839 108.869 62.6942 107.405C61.3046 105.94 60.6097 104.023 60.6097 101.654C60.6097 99.2465 61.3108 97.2986 62.7128 95.8096C64.1149 94.3207 66.0567 93.5825 68.5382 93.5949C71.0073 93.5949 72.9243 94.3331 74.2891 95.8096C75.654 97.2861 76.3364 99.2341 76.3364 101.654C76.3364 104.023 75.6416 105.94 74.2519 107.405C72.8623 108.869 70.9453 109.607 68.501 109.619V109.601ZM68.501 107.367C70.114 107.367 71.3423 106.846 72.186 105.804C73.0298 104.762 73.4547 103.372 73.4609 101.635C73.4609 99.8731 73.031 98.4649 72.1712 97.4102C71.3113 96.3556 70.083 95.8264 68.4861 95.8227C66.8731 95.8227 65.6323 96.3519 64.7638 97.4102C63.8953 98.4686 63.461 99.8769 63.461 101.635C63.461 103.36 63.8909 104.749 64.7508 105.804C65.6106 106.859 66.8576 107.378 68.4917 107.364L68.501 107.367Z" fill="#5E6C75"/>
<path d="M81.3428 109.229V89.8727H74.4194V87.4718H91.1697V89.8727H84.1904V109.229H81.3428Z" fill="#5E6C75"/>
<path d="M91.207 109.229V97.6894C91.207 97.3526 91.1883 96.8705 91.1548 96.2433C91.1213 95.6161 91.0878 95.0764 91.0581 94.6204L91.0115 93.9336H93.9149L93.9447 96.3159C94.8703 94.492 96.2351 93.58 98.0392 93.58C98.5611 93.5776 99.0812 93.6401 99.5877 93.7661L99.5728 96.1856C99.0273 96.0331 98.4641 95.953 97.8978 95.9474C96.7252 95.9474 95.7823 96.3575 95.0688 97.1776C94.3554 97.9978 93.9974 99.1765 93.9949 100.714V109.238L91.207 109.229Z" fill="#5E6C75"/>
<path d="M107.213 109.601C105.252 109.601 103.782 109.042 102.802 107.926C101.822 106.809 101.33 105.308 101.328 103.422V93.9672H104.045V103.422C104.045 104.737 104.355 105.723 104.976 106.381C105.596 107.039 106.496 107.369 107.674 107.373C109.014 107.373 110.063 106.99 110.82 106.225C111.577 105.459 111.955 104.473 111.955 103.265V93.9783H114.691V105.48C114.691 106.845 114.735 108.111 114.825 109.277H112.033L111.959 106.82C111.52 107.619 110.896 108.302 110.14 108.812C109.361 109.355 108.381 109.627 107.2 109.627L107.213 109.601Z" fill="#5E6C75"/>
<path d="M123.032 109.601C120.936 109.63 118.887 108.982 117.188 107.753L117.948 105.705C118.615 106.176 119.341 106.556 120.107 106.837C120.967 107.172 121.882 107.344 122.805 107.345C124.828 107.345 125.839 106.601 125.839 105.112C125.856 104.839 125.802 104.566 125.682 104.32C125.561 104.074 125.379 103.864 125.152 103.71C124.697 103.404 123.81 103.027 122.491 102.579L121.179 102.134C120.673 101.955 120.243 101.786 119.889 101.626C119.516 101.455 119.158 101.251 118.821 101.017C118.493 100.801 118.201 100.535 117.955 100.228C117.723 99.917 117.544 99.5691 117.427 99.1988C117.286 98.7579 117.219 98.2972 117.226 97.8346C117.211 97.1614 117.367 96.4954 117.68 95.899C117.969 95.3537 118.399 94.896 118.925 94.5739C119.471 94.2465 120.063 94.0037 120.682 93.8536C121.351 93.6864 122.039 93.6038 122.729 93.6079C124.752 93.6079 126.451 94.0496 127.829 94.9331L127.069 96.9059C125.839 96.2191 124.458 95.85 123.049 95.832C122.067 95.832 121.31 96.0014 120.779 96.3401C120.528 96.4829 120.321 96.6909 120.18 96.9419C120.038 97.1929 119.967 97.4776 119.975 97.7657C119.975 98.3241 120.135 98.7317 120.459 98.9959C120.782 99.2602 121.424 99.5655 122.394 99.9116C123.263 100.2 123.775 100.373 123.93 100.435C124.555 100.652 125.046 100.842 125.435 100.993C125.854 101.175 126.26 101.386 126.649 101.626C127.026 101.844 127.364 102.124 127.648 102.454C127.901 102.779 128.097 103.145 128.229 103.535C128.389 104.007 128.467 104.503 128.46 105.002C128.477 105.742 128.319 106.475 127.998 107.142C127.717 107.723 127.284 108.218 126.745 108.573C126.218 108.917 125.639 109.176 125.031 109.34C124.388 109.514 123.725 109.6 123.059 109.597L123.032 109.601Z" fill="#5E6C75"/>
<path d="M138.852 109.229H137.587C135.415 109.207 133.932 108.82 133.138 108.065C132.344 107.311 131.945 105.934 131.94 103.934V95.7631H129.018V93.9374H132.014V90.0103L134.694 89.2194V93.9467H138.845V95.7724H134.694V104.092C134.685 104.537 134.722 104.982 134.806 105.419C134.867 105.724 134.986 106.014 135.156 106.275C135.344 106.528 135.612 106.709 135.917 106.789C136.3 106.905 136.694 106.983 137.093 107.019C137.531 107.064 138.121 107.086 138.867 107.086L138.852 109.229Z" fill="#5E6C75"/>
<path d="M141.458 107.181C141.251 107.181 141.049 107.242 140.877 107.356C140.705 107.471 140.571 107.633 140.492 107.824C140.413 108.015 140.392 108.225 140.432 108.427C140.471 108.63 140.571 108.816 140.716 108.962C140.862 109.109 141.048 109.208 141.25 109.249C141.453 109.29 141.663 109.269 141.854 109.191C142.045 109.112 142.208 108.978 142.323 108.807C142.438 108.635 142.5 108.434 142.5 108.227C142.5 108.091 142.474 107.955 142.422 107.829C142.37 107.702 142.294 107.587 142.198 107.49C142.102 107.394 141.987 107.316 141.861 107.264C141.735 107.211 141.6 107.184 141.463 107.183M141.463 109.063C141.297 109.063 141.135 109.014 140.997 108.922C140.858 108.831 140.751 108.7 140.687 108.546C140.623 108.393 140.606 108.224 140.638 108.062C140.67 107.899 140.75 107.749 140.867 107.631C140.984 107.514 141.133 107.433 141.296 107.401C141.459 107.368 141.627 107.384 141.781 107.447C141.935 107.511 142.066 107.618 142.158 107.756C142.251 107.893 142.301 108.056 142.301 108.222C142.301 108.332 142.28 108.441 142.238 108.542C142.196 108.644 142.134 108.737 142.056 108.814C141.978 108.892 141.886 108.954 141.784 108.996C141.682 109.038 141.573 109.059 141.463 109.059" fill="#5E6C75"/>
<path d="M141.136 108.828V107.676H141.489C141.562 107.673 141.634 107.682 141.703 107.702C141.763 107.723 141.814 107.764 141.847 107.818C141.88 107.874 141.898 107.938 141.899 108.004C141.9 108.074 141.881 108.142 141.843 108.201C141.806 108.255 141.753 108.296 141.69 108.317C141.704 108.333 141.716 108.35 141.726 108.369L141.97 108.815H141.783L141.541 108.357H141.294V108.815L141.136 108.828ZM141.298 108.229H141.53C141.558 108.231 141.585 108.227 141.611 108.218C141.637 108.208 141.66 108.193 141.679 108.173C141.716 108.131 141.735 108.076 141.733 108.021C141.738 107.984 141.732 107.947 141.716 107.914C141.7 107.881 141.674 107.853 141.642 107.834C141.592 107.814 141.538 107.805 141.484 107.808H141.298V108.229Z" fill="#5E6C75"/>
<path fill-rule="evenodd" clip-rule="evenodd" d="M75.6392 19.1798C83.1319 14.0921 91.1335 12.1033 97.7475 13.0745V1.1416H41.3204V58.0312H60.6536C60.4172 57.6355 60.204 57.2262 60.0153 56.8056C54.6501 45.5201 61.7081 28.592 75.7872 18.9716L75.6392 19.1798Z" fill="#0174C3"/>
<path fill-rule="evenodd" clip-rule="evenodd" d="M97.6088 19.596C93.6428 19.5968 89.7257 20.4709 86.1356 22.1563C82.5456 23.8416 79.3707 26.2968 76.8365 29.3476C74.3024 32.3983 72.4711 35.9696 71.4728 39.8079C70.4745 43.6461 70.3336 47.6571 71.0603 51.556C71.7355 54.4744 73.2896 55.381 74.7234 55.9961C75.2586 56.2237 75.8216 56.3793 76.3977 56.4586C79.4464 56.6545 82.4776 55.8684 85.0468 54.2154C88.8718 51.8335 91.707 47.9715 93.2334 43.5313C88.5157 44.0909 83.8905 44.7986 79.4966 45.645L79.5798 37.1809L109.921 35.1551L109.708 63.7849L100.55 64.4047V64.3631C100.597 64.0624 100.643 63.7572 100.689 63.4658C101.045 61.0607 101.346 58.6093 101.614 56.1118C101.753 54.6733 101.882 53.2395 101.984 51.7872C100.803 53.334 99.4806 54.7678 98.0343 56.0701C96.6459 57.3212 95.1526 58.4508 93.571 59.4465C92.6175 60.0505 91.6325 60.6032 90.6201 61.1023C88.6094 62.1013 86.5017 62.8917 84.3299 63.4612C82.6001 63.9006 79.566 64.1133 77.1609 64.2058C80.1152 67.6378 83.8851 70.272 88.1237 71.8661C92.3624 73.4602 96.9338 73.963 101.418 73.3283C105.901 72.6936 110.154 70.9418 113.783 68.234C117.413 65.5261 120.304 61.9492 122.189 57.832C124.075 53.7149 124.896 49.1897 124.575 44.6725C124.255 40.1554 122.804 35.7913 120.356 31.9816C117.908 28.1719 114.541 25.0388 110.565 22.8705C106.59 20.7022 102.133 19.5682 97.6041 19.5729L97.6088 19.596Z" fill="#F26F28"/>
</svg>
