<svg width="164" height="116" viewBox="0 0 164 116" fill="none" xmlns="http://www.w3.org/2000/svg">
<path d="M113.961 37.8456C112.938 25.9536 104.72 17.953 98.3627 9.33175C101.03 5.44045 106.984 6.66487 111.278 7.48674C105.743 3.59544 99.1678 1.33111 92.1903 0.710511C78.8559 0.492464 68.2052 8.3086 58.3427 16.9298C52.3884 15.0848 56.4977 8.71115 56.4977 4.19926C51.382 11.1768 49.7383 18.9761 49.9396 26.9768C50.1576 34.1555 53.2103 41.133 57.3196 47.4899C60.1878 50.7606 63.0727 54.0649 65.9408 57.3356C63.0727 62.0655 57.3196 60.0025 53.0258 59.1806C60.0033 64.3131 67.8026 65.9568 75.8033 65.7556C82.982 65.5375 89.9595 62.4849 96.1152 58.3755C99.3859 55.5074 102.69 52.6224 105.961 49.7543C108.829 53.025 109.45 58.5768 107.806 62.6694C112.72 55.7086 114.582 47.0874 113.961 37.8456ZM104.535 38.2649C102.07 41.3511 98.9833 45.0411 98.9833 45.0411C95.8971 48.5299 93.2302 50.1736 92.0058 51.1967C87.8965 54.2829 82.764 56.1112 77.6483 56.3292C77.6483 56.3292 77.0277 56.3292 76.4071 56.3292L76.189 56.1112C73.7234 53.6456 70.436 50.3581 70.436 50.3581C68.5909 48.0938 66.9472 47.0874 64.4816 43.5819C61.3954 39.288 59.5672 34.34 59.3491 29.2243C59.3491 29.2243 59.3491 28.4025 59.3491 27.5806V27.3625L65.1022 22.2301C71.8784 16.2757 79.2585 10.9419 88.4835 10.9419H88.8861L93.398 16.8963C97.6918 22.8507 103.445 28.6037 104.267 36.7889C104.317 36.8224 104.535 38.0636 104.535 38.2649Z" fill="#1974BB"/>
<path d="M22.7626 98.9976C22.7626 96.1288 23.4736 93.8789 25.0125 92.1392C26.5515 90.3995 28.4919 89.5799 30.9425 89.5799C31.7622 89.5799 32.4815 89.6886 33.0837 89.8893C33.7946 90.0901 34.3132 90.2992 34.7147 90.6003C35.1245 90.9097 35.4256 91.2192 35.7351 91.4199C36.0445 91.7294 36.2453 91.9301 36.354 92.1309L36.4627 92.4403H36.5714C36.5714 92.1309 36.4627 91.7294 36.4627 91.2108V82.8302H39.9421V107.997H36.6634V106.257V105.028H36.5547C36.5547 105.137 36.446 105.229 36.354 105.337C36.2453 105.446 36.0445 105.747 35.7351 106.157C35.4256 106.567 35.0241 106.868 34.6059 107.178C34.1877 107.487 33.5855 107.796 32.8662 107.997C32.1553 108.198 31.3273 108.307 30.5076 108.307C28.057 108.307 26.1082 107.487 24.6696 105.747C23.4736 104.108 22.7626 101.758 22.7626 98.9976ZM26.242 98.9976C26.242 100.938 26.7522 102.477 27.6722 103.707C28.5923 104.936 29.8134 105.446 31.3524 105.446C32.7826 105.446 34.1125 104.936 35.0325 103.815C36.0529 102.686 36.5714 101.156 36.5714 98.9056C36.5714 97.1659 36.1616 95.627 35.2416 94.4058C34.3216 93.1764 33.1004 92.4654 31.4527 92.4654C30.0225 92.4654 28.6926 93.0843 27.7726 94.2051C26.7522 95.4179 26.242 96.9485 26.242 98.9976Z" fill="#1974BB"/>
<path d="M42.8193 86.3012V82.7299H46.2987V86.3096H42.8193V86.3012ZM42.9196 107.997V89.8894H46.399V107.997H42.9196Z" fill="#1974BB"/>
<path d="M51.6181 111.267C53.1571 112.087 54.7881 112.497 56.5278 112.497C58.2675 112.497 59.5973 112.087 60.6261 111.267C61.6465 110.448 62.165 109.126 62.165 107.378V106.048V104.919H62.0563C60.9272 106.768 59.1875 107.788 56.7369 107.788C54.2862 107.788 52.3374 106.868 50.8988 105.128C49.4686 103.389 48.7577 101.139 48.7577 98.479C48.7577 95.8193 49.4686 93.6698 50.8988 91.9301C52.3291 90.2991 54.2779 89.3707 56.7369 89.3707C57.5565 89.3707 58.2758 89.4795 58.9867 89.6802C59.6977 89.8809 60.2162 90.09 60.6177 90.3911C61.0275 90.7006 61.3286 90.9013 61.6381 91.2108C61.9476 91.5203 62.1483 91.721 62.257 91.9217L62.4578 92.1224H62.5665C62.5665 91.9217 62.5665 91.813 62.5665 91.5035V89.8726H65.8451V107.161C65.8451 108.591 65.5357 109.82 65.1342 110.95C64.624 112.079 63.9047 112.89 63.0851 113.509C62.0647 114.22 61.0359 114.738 60.0155 115.048C58.9951 115.357 57.8744 115.558 56.6365 115.558C54.4953 115.558 52.4462 115.048 50.4974 114.019L51.6181 111.267ZM57.5482 104.727C58.9784 104.727 60.1075 104.217 61.0275 103.297C61.9476 102.276 62.3574 100.737 62.3574 98.5878C62.3574 94.4894 60.6177 92.549 57.2387 92.549C55.6997 92.549 54.4786 93.0592 53.6589 94.18C52.8393 95.2004 52.3291 96.7393 52.3291 98.5794C52.3291 100.52 52.8393 102.059 53.7593 103.188C54.6793 104.217 56.0092 104.727 57.5482 104.727Z" fill="#1974BB"/>
<path d="M68.5969 86.3012V82.7299H72.0763V86.3096H68.5969V86.3012ZM68.6972 107.997V89.8894H72.1766V107.997H68.6972Z" fill="#1974BB"/>
<path d="M74.6356 98.9976C74.6356 96.3378 75.5556 94.0879 77.3956 92.2479C79.2441 90.3995 81.494 89.4878 84.3544 89.4878C85.6843 89.4878 86.9138 89.6885 88.0345 90.1067C89.1637 90.5166 89.975 91.0268 90.4852 91.4366L91.1961 92.0555L89.5651 94.5061C89.4564 94.3974 89.2557 94.1967 88.9462 93.8872C88.6367 93.6865 88.1265 93.377 87.2065 92.9672C86.3868 92.5574 85.4668 92.3482 84.5468 92.3482C82.6984 92.3482 81.2681 92.9672 80.047 94.1967C78.8175 95.4262 78.3073 96.9568 78.3073 98.8052C78.3073 100.654 78.9262 102.184 80.1557 103.414C81.3852 104.643 82.9158 105.262 84.7642 105.262C85.7846 105.262 86.7047 105.061 87.6331 104.643C88.5531 104.233 89.264 103.824 89.6822 103.414L90.3012 102.795L91.7314 105.354C91.6227 105.463 91.5306 105.555 91.4219 105.664C91.3132 105.772 91.0121 106.073 90.5019 106.375C90.0921 106.684 89.5819 106.993 89.0717 107.295C88.5615 107.495 87.8422 107.805 87.0225 108.005C86.2028 108.206 85.3915 108.315 84.4631 108.315C81.5943 108.315 79.3444 107.395 77.5044 105.655C75.5556 103.907 74.6356 101.657 74.6356 98.9976Z" fill="#1974BB"/>
<path d="M91.9238 98.9976C91.9238 96.1288 92.7435 93.8789 94.4832 92.1392C96.2228 90.3995 98.3724 89.5798 100.923 89.5798C103.374 89.5798 105.323 90.3995 106.653 91.9385C107.983 93.5694 108.702 95.5182 108.702 97.9772L108.593 99.5162H95.4032C95.5119 101.457 96.1141 102.895 97.3436 103.916C98.5731 104.936 100.003 105.455 101.643 105.455C102.563 105.455 103.491 105.254 104.403 104.944C105.323 104.635 105.942 104.233 106.343 103.924L106.962 103.414L108.392 105.973C108.192 106.174 107.882 106.383 107.573 106.684C107.163 106.993 106.343 107.395 105.214 107.813C103.985 108.323 102.763 108.524 101.425 108.524C98.6651 108.524 96.3065 107.604 94.5668 105.864C92.8438 103.907 91.9238 101.657 91.9238 98.9976ZM95.6123 96.8481H105.231C105.231 95.3091 104.721 94.1884 103.901 93.4691C103.081 92.6494 102.052 92.2396 100.831 92.2396C99.5015 92.2396 98.272 92.6494 97.352 93.4691C96.4236 94.2887 95.9134 95.4178 95.6123 96.8481Z" fill="#1974BB"/>
<path d="M111.261 107.997V89.8893H114.64V93.0592L114.531 94.3891H114.64C115.05 93.0592 115.769 91.8297 116.781 91.01C117.802 90.09 118.922 89.6802 120.361 89.6802L121.281 89.7889V93.1679C120.972 93.0592 120.662 93.0592 120.261 93.0592C119.132 93.0592 118.12 93.469 117.191 94.1883C116.271 94.8993 115.56 96.0367 115.142 97.2579C114.833 98.1779 114.732 99.307 114.732 100.537V107.905L111.261 107.997Z" fill="#1974BB"/>
<path d="M125.68 101.348V92.9589H123.322V90.1988H125.772V84.9797H129.151V90.1988H133.551V92.9589H129.151V100.938C129.151 101.649 129.26 102.268 129.461 102.786C129.662 103.297 129.871 103.707 130.172 104.016C130.481 104.325 130.791 104.526 131.092 104.727C131.502 104.928 131.803 105.036 132.112 105.036C132.422 105.036 132.731 105.145 133.032 105.145L133.852 105.036V108.106C133.543 108.106 133.141 108.215 132.622 108.215C132.004 108.215 131.493 108.215 130.992 108.106C130.49 107.997 129.862 107.905 129.252 107.596C128.541 107.286 128.022 106.977 127.512 106.467C127.002 105.956 126.592 105.337 126.283 104.526C125.898 103.497 125.68 102.569 125.68 101.348Z" fill="#1974BB"/>
<path d="M137.658 82.7299C135.717 82.7299 134.078 84.2688 134.078 86.3096C134.078 88.25 135.617 89.8894 137.658 89.8894C139.598 89.8894 141.237 88.2584 141.237 86.3096C141.237 84.3608 139.606 82.7299 137.658 82.7299ZM137.658 89.1701C136.119 89.1701 134.789 87.9406 134.789 86.3012C134.789 84.7623 136.018 83.4324 137.658 83.4324C139.197 83.4324 140.526 84.6619 140.526 86.3012C140.518 87.8402 139.297 89.1701 137.658 89.1701Z" fill="#1974BB"/>
<path d="M136.428 88.2501V84.3608H137.658C137.967 84.3608 138.277 84.3608 138.369 84.4696C138.569 84.5783 138.778 84.6703 138.879 84.8794C138.979 85.0885 139.079 85.2892 139.079 85.5903C139.079 85.7911 138.971 86.1005 138.879 86.2093C138.77 86.41 138.569 86.5187 138.369 86.6191C138.369 86.6191 138.477 86.7278 138.477 86.8198L139.297 88.3588H138.678L137.858 86.8198H137.039V88.3588H136.42V88.2501H136.428ZM137.047 86.2093H137.867C138.067 86.2093 138.277 86.1005 138.377 86.0085C138.486 85.8998 138.578 85.6991 138.578 85.4983C138.578 85.1889 138.469 84.9881 138.268 84.8794C138.159 84.7707 137.959 84.7707 137.758 84.7707H137.139L137.047 86.2093Z" fill="#1974BB"/>
</svg>
