<svg width="64" height="64" viewBox="0 0 64 64" fill="none" xmlns="http://www.w3.org/2000/svg">
<path d="M47.5317 56.5189C44.6161 59.3263 41.3993 58.8887 38.3331 57.565C35.0732 56.2146 32.0931 56.1292 28.6503 57.565C24.363 59.4011 22.0876 58.8673 19.5055 56.5189C4.92757 41.6275 7.0793 18.9436 23.6476 18.0896C27.6659 18.3031 30.4793 20.294 32.8462 20.4594C36.3642 19.7496 39.7317 17.716 43.4972 17.9829C48.0212 18.3458 51.4048 20.1178 53.6641 23.3043C44.3579 28.8552 46.5634 41.0244 55.1111 44.4403C53.4005 48.8971 51.2057 53.3004 47.5263 56.5562L47.5317 56.5189ZM32.5234 17.9295C32.0877 11.3111 37.4939 5.86699 43.7124 5.33325C44.5677 12.9657 36.7193 18.6767 32.5234 17.9295Z" fill="#1062FE"/>
</svg>
