<svg width="73" height="72" viewBox="0 0 73 72" fill="none" xmlns="http://www.w3.org/2000/svg">
<g clip-path="url(#clip0_2055_700387)">
<path d="M36.722 0.232522C33.5662 7.96898 31.6499 13.0363 28.1374 20.5432C30.2907 22.8261 32.9381 25.4757 37.2327 28.4787C32.6158 26.579 29.4688 24.6771 27.1161 22.6976C22.62 32.0798 15.5706 45.4397 1.27585 71.1248C12.5078 64.6404 21.2165 60.6394 29.3315 59.113C28.9837 57.6165 28.7987 55.9904 28.812 54.3012L28.8208 53.9467C28.9992 46.749 32.7443 41.2138 37.1806 41.5893C41.6158 41.9648 45.0696 48.107 44.8912 55.3059C44.8569 56.6617 44.6996 57.9643 44.4327 59.1739C52.4601 60.7446 61.0857 64.7268 72.1682 71.1248C69.9827 67.1017 68.0254 63.4762 66.1623 60.0213C63.228 57.7472 60.1685 54.7886 53.9256 51.584C58.2168 52.6995 61.2917 53.9888 63.6866 55.4266C44.7472 20.1632 43.2164 15.4744 36.722 0.232522V0.232422V0.232522Z" fill="#1793D1"/>
<path d="M56.6749 42.3681C41.309 21.5136 37.7477 4.70439 36.845 0.691223C45.0419 19.5962 44.9854 19.8288 56.6749 42.3681Z" fill="white" fill-opacity="0.16568"/>
<path d="M36.8605 0.50946C36.4617 1.48919 36.0851 2.44438 35.7173 3.34792C35.3141 4.33886 34.922 5.29358 34.541 6.22105C34.1599 7.14852 33.7733 8.02759 33.3989 8.92105C33.0234 9.81441 32.6745 10.6977 32.2912 11.5865C31.908 12.4749 31.4871 13.3732 31.0794 14.2859C30.6718 15.1998 30.2464 16.1225 29.7989 17.0906C29.3514 18.0576 28.8818 19.0856 28.3789 20.1368C28.3113 20.2786 28.2415 20.4425 28.1717 20.5865C30.3195 22.8617 32.968 25.4902 37.2404 28.4788C32.6247 26.5791 29.4866 24.6772 27.1327 22.6978C27.0109 22.9481 26.9134 23.1685 26.7871 23.4244C26.3219 24.3892 25.8223 25.344 25.2984 26.4019C25.1732 26.65 25.0813 26.8749 24.9528 27.1285C24.3978 28.2406 23.8163 29.3915 23.1871 30.6244C23.0619 30.8681 22.9346 31.0697 22.8061 31.3167C22.4261 32.0555 21.211 34.385 19.9682 36.7522C19.2426 38.1346 18.6733 39.2666 17.8558 40.8019C17.6243 41.2427 17.148 42.1256 17.025 42.3593C26.025 37.2938 35.7351 29.9354 53.3717 36.2326C52.4889 34.56 51.6415 32.9993 50.8794 31.525C50.1173 30.0495 49.4261 28.6771 48.7682 27.3711C48.1102 26.0651 47.5021 24.8334 46.9327 23.667C46.3645 22.5006 45.8372 21.3995 45.341 20.3439C44.8447 19.2883 44.3607 18.2725 43.922 17.2978C43.4823 16.3241 43.0735 15.3814 42.6759 14.4598C42.2782 13.5371 41.906 12.6233 41.5327 11.725C41.1605 10.8261 40.7883 9.96417 40.425 9.05952C40.2677 8.66584 40.1337 8.24669 39.9753 7.84792C38.9917 5.53849 38.0269 3.24934 36.8605 0.50946V0.509483V0.50946Z" fill="url(#paint0_linear_2055_700387)"/>
</g>
<defs>
<linearGradient id="paint0_linear_2055_700387" x1="36.8841" y1="11.7771" x2="24.9012" y2="32.4255" gradientUnits="userSpaceOnUse">
<stop stop-color="white" stop-opacity="0"/>
<stop offset="1" stop-color="white" stop-opacity="0.27451"/>
</linearGradient>
<clipPath id="clip0_2055_700387">
<rect width="72" height="72" fill="white" transform="translate(0.995605)"/>
</clipPath>
</defs>
</svg>
