<svg width="64" height="64" viewBox="0 0 64 64" fill="none" xmlns="http://www.w3.org/2000/svg">
<g clip-path="url(#clip0_7881_122537)">
<path d="M4.46496 50.2656C2.26432 50.2656 0.00146484 52.0291 0.00146484 55.1157C0.00146484 57.9375 1.99104 59.9307 4.46496 59.9307C6.50705 59.9307 7.41719 58.56 7.41719 58.56V59.1574C7.41719 59.4398 7.68418 59.7549 8.01466 59.7549H9.49078V50.4765H7.41719V51.6539C7.41719 51.6539 6.49943 50.2656 4.46496 50.2656ZM4.83434 52.1629C6.64593 52.1629 7.59621 53.7561 7.59621 55.115C7.59621 56.6287 6.46794 58.0662 4.83818 58.0662C3.47581 58.0662 2.1111 56.9628 2.1111 55.0951C2.1111 53.4091 3.28552 52.1629 4.83434 52.1629Z" fill="#1062FE"/>
<path d="M12.3728 59.7548C12.0542 59.7548 11.7753 59.5263 11.7753 59.1573V50.4764H13.8489V51.6246C14.3188 50.9183 15.2367 50.2627 16.6458 50.2627C18.9488 50.2627 20.1751 52.0985 20.1751 53.8152V59.7548H18.7341C18.3563 59.7548 18.1015 59.4385 18.1015 59.1222V54.2721C18.1015 53.3205 17.5185 52.1649 16.1701 52.1649C14.7152 52.1649 13.8489 53.5399 13.8489 54.8344V59.7548L12.3728 59.7548Z" fill="#1062FE"/>
<path d="M26.22 50.2655C24.0193 50.2655 21.7565 52.0289 21.7565 55.1156C21.7565 57.9374 23.7461 59.9305 26.22 59.9305C28.2621 59.9305 29.1722 58.5598 29.1722 58.5598V59.1573C29.1722 59.4397 29.4392 59.7548 29.7697 59.7548H31.2458V45.8372H29.1722V51.6537C29.1722 51.6537 28.2544 50.2655 26.22 50.2655ZM26.5893 52.1628C28.4009 52.1628 29.3512 53.756 29.3512 55.1149C29.3512 56.6285 28.2229 58.066 26.5932 58.066C25.2308 58.066 23.8661 56.9627 23.8661 55.0949C23.8661 53.409 25.0405 52.1628 26.5893 52.1628Z" fill="#1062FE"/>
<path d="M34.1277 59.7547C33.8092 59.7547 33.5303 59.5262 33.5303 59.1572V50.4763H35.6039V52.0227C35.9608 51.1564 36.731 50.3708 38.0992 50.3708C38.4806 50.3708 38.8372 50.4411 38.8372 50.4411V52.585C38.8372 52.585 38.3919 52.4093 37.8532 52.4093C36.3983 52.4093 35.6039 53.7843 35.6039 55.0788V59.7547H34.1277Z" fill="#1062FE"/>
<path d="M51.4192 59.7547C51.1006 59.7547 50.8217 59.5262 50.8217 59.1572V50.4763H52.8953V59.7547L51.4192 59.7547Z" fill="#1062FE"/>
<path d="M58.9755 50.2655C56.7748 50.2655 54.512 52.0289 54.512 55.1156C54.512 57.9374 56.5015 59.9305 58.9755 59.9305C61.0175 59.9305 61.9277 58.5598 61.9277 58.5598V59.1573C61.9277 59.4397 62.1947 59.7548 62.5252 59.7548H64.0013V45.8372H61.9277V51.6537C61.9277 51.6537 61.0099 50.2655 58.9755 50.2655ZM59.3448 52.1628C61.1564 52.1628 62.1067 53.756 62.1067 55.1149C62.1067 56.6285 60.9784 58.066 59.3487 58.066C57.9863 58.066 56.6216 56.9627 56.6216 55.0949C56.6216 53.409 57.796 52.1628 59.3448 52.1628Z" fill="#1062FE"/>
<path d="M51.844 48.4755C52.6012 48.4755 53.215 47.8617 53.215 47.1045C53.215 46.3473 52.6012 45.7334 51.844 45.7334C51.0868 45.7334 50.4729 46.3473 50.4729 47.1045C50.4729 47.8617 51.0868 48.4755 51.844 48.4755Z" fill="#1062FE"/>
<path d="M44.306 50.2625C42.0013 50.2625 39.4693 51.9828 39.4693 55.0991C39.4693 57.939 41.626 59.9309 44.3009 59.9309C47.5976 59.9309 49.2073 57.2807 49.2073 55.1171C49.2073 52.4622 47.1345 50.2625 44.306 50.2625ZM44.3135 52.1989C45.9072 52.1989 47.096 53.4834 47.096 55.105C47.096 56.7547 45.8341 58.0277 44.3182 58.0277C42.9111 58.0277 41.5433 56.8826 41.5433 55.1327C41.5433 53.3537 42.8442 52.1989 44.3135 52.1989Z" fill="#1062FE"/>
<path d="M47.6202 14.8732L52.9256 5.6827C53.2249 5.16748 53.0439 4.513 52.5357 4.21361C52.0274 3.91423 51.366 4.08829 51.0735 4.60351L45.6985 13.9123C41.5976 12.0394 36.9815 10.995 32.0172 10.995C27.053 10.995 22.4368 12.0394 18.3359 13.9123L12.9609 4.60351C12.6615 4.08829 12.007 3.91423 11.4918 4.21361C10.9766 4.513 10.8025 5.16748 11.1019 5.6827L16.4073 14.8732C7.25862 19.8305 1.062 29.0905 0.0385437 39.931H63.996C62.9725 29.0905 56.7758 19.8304 47.6202 14.8732ZM17.3333 30.9495C15.8503 30.9495 14.6528 29.745 14.6528 28.269C14.6528 26.786 15.8573 25.5884 17.3333 25.5884C18.8164 25.5884 20.0139 26.7929 20.0139 28.269C20.0209 29.745 18.8164 30.9495 17.3333 30.9495ZM46.6942 30.9495C45.2112 30.9495 44.0137 29.745 44.0137 28.269C44.0137 26.786 45.2182 25.5884 46.6942 25.5884C48.1772 25.5884 49.3748 26.7929 49.3748 28.269C49.3817 29.745 48.1772 30.9495 46.6942 30.9495Z" fill="#1062FE"/>
</g>
<defs>
<clipPath id="clip0_7881_122537">
<rect width="64" height="55.8643" fill="white" transform="translate(0 4.06787)"/>
</clipPath>
</defs>
</svg>
