<svg width="64" height="64" viewBox="0 0 64 64" fill="none" xmlns="http://www.w3.org/2000/svg">
<g clip-path="url(#clip0_7881_122560)">
<path d="M32 46.5165C29.1556 46.5165 26.5073 45.7318 24.1532 44.1625C21.7992 42.5932 20.0337 40.6315 18.8567 38.1794L7.08656 17.7778C4.63445 22.1916 3.55556 26.9977 3.55556 32.0001C3.55556 39.1602 5.90956 45.3395 10.5196 50.6361C15.1296 55.9326 20.9164 59.0713 27.7824 60.1503L36.0216 45.8299C35.2368 46.1242 33.7656 46.5165 32 46.5165Z" fill="#1062FE"/>
<path d="M23.0743 20.23C25.7226 18.1702 28.6651 17.2874 32 17.2874H56.423C53.8728 12.9718 50.4399 9.833 46.1241 7.38089C41.8084 4.83077 37.1003 3.55566 32 3.55566C27.5862 3.55566 23.3686 4.53655 19.5433 6.40011C15.7181 8.26366 12.0889 11.0101 9.53867 14.5411L17.7778 28.0768C18.5624 24.938 20.426 22.2898 23.0743 20.23Z" fill="#1062FE"/>
<path d="M58.2866 21.3088H41.8084C44.6529 24.1533 46.6146 27.8805 46.6146 32.0001C46.6146 35.0407 45.7318 37.7871 44.0643 40.3372L32.2942 60.4445C40.0429 60.3464 46.7127 57.6001 52.2053 52.0093C57.698 46.4185 60.4444 39.7487 60.4444 32.0001C60.4444 28.3709 59.8559 24.5456 58.2866 21.3088Z" fill="#1062FE"/>
<path d="M32 21.2109C37.8851 21.2109 42.7892 26.1152 42.7892 32.0002C42.7892 37.8852 37.8851 42.7894 32 42.7894C26.1149 42.7894 21.2108 37.8853 21.2108 32.0002C21.2108 26.115 26.1149 21.2109 32 21.2109Z" fill="#1062FE"/>
</g>
<defs>
<clipPath id="clip0_7881_122560">
<rect width="56.8889" height="56.8889" fill="white" transform="translate(3.55556 3.55566)"/>
</clipPath>
</defs>
</svg>
