<svg width="64" height="64" viewBox="0 0 64 64" fill="none" xmlns="http://www.w3.org/2000/svg">
<g clip-path="url(#clip0_7881_122555)">
<path d="M58.3427 22.3407C57.1052 19.373 54.5958 16.1647 52.6479 15.1449C54.2521 18.273 55.1802 21.4355 55.524 23.773L55.5354 23.8188C52.3156 15.8095 46.8729 12.5782 42.4156 5.54279C42.1979 5.18758 41.9687 4.83237 41.751 4.45425C41.6365 4.25946 41.5333 4.06466 41.4302 3.85841C41.2469 3.50321 41.1094 3.12508 41.0177 2.7355L40.926 2.66675H40.8687L40.8573 2.67821L40.8344 2.68966L40.8458 2.66675C34.5208 6.36779 31.9083 12.8647 31.2323 16.9782C29.2729 17.0928 27.3708 17.5855 25.6062 18.4105C25.2625 18.5824 25.1135 18.972 25.2396 19.3157C25.3771 19.7053 25.824 19.9115 26.2135 19.7282C27.7604 19.0063 29.4104 18.5709 31.1177 18.4563L31.2781 18.4334C31.5073 18.422 31.7479 18.4105 31.9771 18.4105C33.3521 18.399 34.7385 18.5938 36.0562 18.9834L36.2854 19.0522C36.5031 19.1209 36.7208 19.1897 36.9385 19.2699L37.4083 19.4532L37.7865 19.6022C37.9812 19.6938 38.176 19.7855 38.3708 19.8886L38.6344 20.0147C38.8292 20.1178 39.0125 20.2209 39.1958 20.324L39.5396 20.5417C41.5906 21.8136 43.3094 23.5782 44.5125 25.6865C43 24.6324 40.2729 23.5667 37.6719 24.0251C47.8927 29.1355 45.1427 46.7355 30.9802 46.0709C29.7198 46.0251 28.4708 45.7845 27.2906 45.3605C27.0042 45.2574 26.7177 45.1428 26.4542 45.0167L25.9729 44.7876C22.501 42.9886 19.6365 39.597 19.2812 35.4834C19.2812 35.4834 20.5875 30.5907 28.6771 30.5907C29.5594 30.5907 32.0573 28.1501 32.1031 27.4511C32.0802 27.222 27.1302 25.2511 25.2052 23.349C24.174 22.3407 23.6927 21.848 23.2573 21.4813C23.0281 21.2751 22.776 21.0917 22.5125 20.9199C21.8708 18.6511 21.8365 16.2563 22.4323 13.9761C19.5104 15.3053 17.2417 17.4136 15.5917 19.2584H15.5802C14.4573 17.8261 14.5375 13.1282 14.5948 12.1428L13.6437 12.647C12.6469 13.3574 11.7187 14.148 10.8708 15.0303C9.89687 16.0157 9.01458 17.0699 8.2125 18.2157C6.39062 20.8053 5.08437 23.7272 4.40833 26.8209C4.39687 26.8553 4.14479 28.024 3.95 29.4449C3.91562 29.6626 3.88125 29.8917 3.85833 30.1095C3.77812 30.648 3.72083 31.198 3.69792 31.7365L3.68646 31.8282C3.675 32.149 3.65208 32.4584 3.62917 32.7792V32.9167C3.62917 48.6147 16.3594 61.3449 32.0573 61.3449C46.1167 61.3449 57.7927 51.1355 60.0729 37.7292C60.1187 37.3626 60.1646 36.9959 60.199 36.6292C60.749 31.748 60.1302 26.6261 58.3427 22.3407Z" fill="#1062FE"/>
</g>
<defs>
<clipPath id="clip0_7881_122555">
<rect width="58.6667" height="58.6667" fill="white" transform="translate(2.66667 2.66675)"/>
</clipPath>
</defs>
</svg>
