<svg width="73" height="72" viewBox="0 0 73 72" fill="none" xmlns="http://www.w3.org/2000/svg">
<g clip-path="url(#clip0_2055_700366)">
<path d="M60.1047 21.9465C60.144 20.884 60.5898 19.8978 61.3678 19.1744C62.1463 18.4486 63.1622 18.0737 64.2276 18.1074C66.4238 18.1858 68.1493 20.0368 68.0751 22.2273C68.0337 23.2899 67.5882 24.276 66.8119 24.9971C66.0334 25.7272 65.02 26.1024 63.9499 26.0664C61.7564 25.9858 60.0327 24.139 60.1069 21.9465H60.1047ZM70.7584 25.8642C70.9395 25.7447 71.0725 25.6459 71.1286 25.6239L71.1891 25.5297C71.0358 24.5683 69.6006 19.907 68.5161 18.786C68.2171 18.4805 67.9774 18.1795 67.4925 17.8962C63.564 15.6116 54.249 14.2324 53.8125 14.1695L53.7383 14.1899L53.7104 14.2573C53.7104 14.2573 53.6744 16.1847 53.669 16.4001C52.7175 16.0809 45.8007 13.8505 39.3162 13.6258C33.8172 13.4329 25.8095 12.7228 15.1962 19.2373L14.8824 19.4323C9.88962 22.5414 6.44262 26.376 4.64037 30.8306C4.07517 32.2324 3.31512 35.3953 4.06842 38.3718C4.39287 39.6727 4.99789 40.9799 5.81352 42.1502C7.65717 44.7943 10.75 46.5487 14.0823 46.8452C18.7848 47.2653 22.3465 45.1561 23.6133 41.2067C24.4842 38.4819 23.6133 34.4832 20.2743 32.4435C17.5585 30.7832 14.638 31.1606 12.9438 32.2795C11.4741 33.2524 10.642 34.7641 10.6555 36.4241C10.6895 39.3692 13.2295 40.9349 15.0565 40.9394C15.5873 40.9394 16.1203 40.8473 16.7213 40.6519C16.9353 40.5867 17.1364 40.5061 17.3583 40.3691L17.4278 40.3284L17.4714 40.2992L17.4568 40.308C17.8733 40.0247 18.1237 39.5639 18.1237 39.07C18.1237 38.9352 18.1048 38.7986 18.0661 38.6611C17.8503 37.9153 17.1123 37.464 16.3476 37.6031L16.2443 37.6275L16.1046 37.6702L15.9018 37.7399C15.4811 37.8432 15.1661 37.8522 15.0988 37.8544C14.8848 37.8407 13.8332 37.5262 13.8332 36.3763V36.3606C13.8332 35.9382 14.0028 35.6419 14.0964 35.48C14.4236 34.9678 15.3193 34.4651 16.5287 34.5702C18.117 34.7074 19.2624 35.5206 20.0207 37.0547C20.7247 38.481 20.5404 40.2356 19.5459 41.5206C18.5582 42.7941 16.8009 43.3352 14.4609 43.0838C12.1029 42.8235 10.1094 41.4687 8.99344 39.3593C7.90084 37.2975 7.84122 34.853 8.83932 32.975C11.2266 28.4755 15.7356 28.5226 18.2083 28.9495C21.8668 29.5832 26.0293 32.9525 27.5053 36.8433C27.7438 37.4636 27.8653 37.9551 27.9715 38.4048L28.1308 39.0765L32.2641 41.0913L32.3181 41.1319L32.4184 41.1227L32.4366 41.0039C32.411 40.9116 32.3509 40.8267 32.2555 39.6718C32.177 38.647 32.017 35.8417 33.4318 34.4511C33.981 33.9077 34.818 33.4227 35.4791 33.2675C38.1881 32.6068 41.3651 33.0626 44.3688 36.5338C45.9238 38.3266 46.6818 39.1441 47.0621 39.5103L47.1948 39.6298L47.351 39.7464C47.4756 39.814 52.517 42.132 52.517 42.132L52.6207 42.1073L52.6227 41.9997C52.5892 41.9615 49.4277 37.8821 49.9902 34.5237C50.4333 31.8482 52.5665 32.0908 55.5162 32.4233C56.4792 32.5356 57.5754 32.6614 58.7112 32.6866C61.8792 32.7066 65.2925 32.1225 67.3962 31.2037C68.7573 30.6129 69.6258 30.2198 70.1705 29.7258C70.3663 29.5638 70.4675 29.301 70.5735 29.0182L70.6475 28.8315C70.7355 28.6022 70.8651 28.1192 70.9218 27.8543C70.9447 27.7377 70.9582 27.6144 70.8748 27.549L70.5836 27.603C69.6598 28.158 67.3503 29.2091 65.1926 29.2541C62.5128 29.3082 57.1151 26.5629 56.5526 26.2708L56.4984 26.2082C56.3658 25.8847 55.5556 23.9732 55.3824 23.5686C59.2681 26.125 62.4901 27.538 64.9584 27.7559C67.7056 28.0001 69.8454 26.5038 70.7611 25.864H70.7609L70.7584 25.8642ZM64.6497 22.3149C63.9677 22.3149 63.4169 21.9465 63.4169 21.495C63.4169 21.0392 63.9677 20.6728 64.6497 20.6728C65.3316 20.6728 65.884 21.0392 65.884 21.495C65.8836 21.9465 65.3312 22.3149 64.6497 22.3149V22.3149ZM64.1949 19.28C63.45 19.2533 62.7437 19.5161 62.2037 20.0216C61.6639 20.527 61.3455 21.2117 61.323 21.9532C61.2713 23.4855 62.473 24.7747 64.005 24.8309C64.7496 24.8534 65.4594 24.5905 66.0026 24.0851C66.5446 23.5772 66.8565 22.892 66.8801 22.1534C66.9318 20.6216 65.7306 19.3342 64.1958 19.2802L64.1949 19.28Z" fill="#73BA25"/>
<path d="M31.1473 44.952C29.3959 44.952 28.4338 46.4301 28.4338 47.4522V48.7641C28.4338 50.2692 29.6655 51.2015 30.8076 51.2015H34.8171C35.3222 51.2015 35.4279 51.5317 35.4279 51.8103V52.6569C35.4279 52.7468 35.4097 53.56 34.8171 53.56H29.3496C28.8062 53.56 28.4133 53.9374 28.4133 54.454V54.6879C28.4133 55.2025 28.8062 55.5777 29.3496 55.5777H35.1141C36.6211 55.5777 37.5936 54.5309 37.5936 52.909V51.4933C37.5936 49.9704 36.4978 49.2898 35.4097 49.2898H31.4655C30.8715 49.2898 30.6024 48.845 30.6024 48.5305V47.7488C30.6024 47.2568 30.932 46.9715 31.508 46.9715H35.8752C36.4107 46.9715 36.8137 46.5874 36.8137 46.0794V45.8458C36.8137 45.3361 36.404 44.9515 35.8572 44.9515H31.1502L31.1473 44.952Z" fill="#73BA25"/>
<path d="M47.5274 44.9519C47.0097 44.9519 46.5926 45.372 46.5926 45.8889V52.5922C46.5926 53.1293 46.1538 53.5606 45.6226 53.5606H42.5761C42.0431 53.5606 41.6066 53.1293 41.6066 52.5922V45.8889C41.6066 45.372 41.1858 44.9519 40.6685 44.9519H40.3738C39.8484 44.9519 39.4353 45.3657 39.4353 45.8889V52.846C39.4353 54.4657 40.712 55.6406 42.4706 55.6406H45.7286C47.4847 55.6406 48.7616 54.4659 48.7616 52.846V45.8889C48.7616 45.3657 48.35 44.9519 47.8256 44.9519H47.5288H47.5274Z" fill="#73BA25"/>
<path d="M53.3774 44.952C51.6269 44.952 50.6617 46.4301 50.6617 47.4522V48.7641C50.6617 50.2692 51.8958 51.2015 53.0377 51.2015H57.0449C57.5507 51.2015 57.6569 51.5317 57.6569 51.8103V52.6569C57.6569 52.7468 57.6387 53.56 57.0449 53.56H51.5752C51.0343 53.56 50.6392 53.9374 50.6392 54.454V54.6879C50.6392 55.2025 51.0343 55.5777 51.5752 55.5777H57.3419C58.8494 55.5777 59.8259 54.5309 59.8259 52.909V51.4933C59.8259 49.9704 58.727 49.2898 57.6389 49.2898H53.6947C53.0993 49.2898 52.8309 48.845 52.8309 48.5305V47.7488C52.8309 47.2568 53.1603 46.9715 53.7365 46.9715H58.106C58.6402 46.9715 59.0416 46.5874 59.0416 46.0794V45.8458C59.0416 45.3361 58.6323 44.9515 58.0831 44.9515H53.3783L53.3774 44.952Z" fill="#73BA25"/>
<path d="M62.5799 44.952C62.0601 44.952 61.6675 45.3366 61.6675 45.8463V54.6881C61.6675 55.1956 62.0511 55.5777 62.5594 55.5777H69.6154C70.1587 55.5777 70.5514 55.2025 70.5514 54.6881V54.454C70.5514 53.9374 70.1587 53.56 69.6154 53.56H63.8351V51.3091H68.0696C68.6119 51.3091 69.0058 50.9294 69.0058 50.4148V50.1812C69.0058 49.6643 68.6119 49.2891 68.0696 49.2891H63.8351V46.9708H69.3206C69.862 46.9708 70.2566 46.5981 70.2566 46.0788V45.8452C70.2566 45.3283 69.862 44.9509 69.3206 44.9509H62.5774V44.952H62.5799Z" fill="#73BA25"/>
<path d="M2.13424 53.8927V50.8488C2.13424 50.4918 2.42786 50.1998 2.78696 50.1998H4.46951C4.82074 50.1998 5.11999 50.4983 5.11999 50.8488V53.8927C5.11999 54.2521 4.82861 54.5439 4.46951 54.5439H2.77436C2.41436 54.5439 2.13424 54.2584 2.13424 53.8927V53.8927ZM2.60156 49.1572C1.71709 49.1572 0.997314 49.8444 0.997314 50.6915V54.0252C0.997314 54.8858 1.69391 55.5867 2.54779 55.5867H4.70757C5.56144 55.5867 6.25804 54.8858 6.25804 54.0252V50.6915C6.25804 49.8449 5.53782 49.1572 4.65379 49.1572H2.60134H2.60156V49.1572Z" fill="#73BA25"/>
<path d="M8.98702 53.8275V50.9161C8.98702 50.5138 9.30202 50.1997 9.70432 50.1997H11.2818C11.6845 50.1997 11.9991 50.5142 11.9991 50.9161V53.8275C11.9991 54.2226 11.6762 54.5436 11.2818 54.5436H9.70432C9.30945 54.5436 8.98702 54.2226 8.98702 53.8275V53.8275ZM11.1475 49.119C10.5249 49.119 10.0553 49.3412 9.67845 49.5231C9.44872 49.6332 9.24982 49.728 9.09547 49.728C9.02572 49.728 8.9661 49.6965 8.9346 49.6449L8.79082 49.3708C8.75505 49.2987 8.61105 49.1576 8.43307 49.1576H8.21955C8.01435 49.1576 7.8501 49.3416 7.8501 49.566V58.0215C7.8501 58.2866 8.05957 58.4955 8.32485 58.4955H8.50957C8.77282 58.4955 8.98657 58.2843 8.98657 58.0215V55.2157C8.98657 55.1326 9.0408 55.0428 9.09547 55.0428C9.24982 55.0428 9.44872 55.1331 9.67845 55.2382C10.0553 55.4112 10.5249 55.6244 11.1475 55.6244H11.3468C12.4493 55.6244 13.1353 54.9951 13.1353 53.9845V50.7564C13.1353 49.7612 12.4347 49.1188 11.3468 49.1188H11.1475V49.1183V49.119Z" fill="#73BA25"/>
<path d="M15.8629 50.8375C15.8629 50.4801 16.1444 50.1998 16.5026 50.1998H18.2373C18.5948 50.1998 18.8738 50.4801 18.8738 50.8375V51.8707H15.8633C15.8638 51.7359 15.8638 50.8375 15.8638 50.8375H15.8629ZM16.3298 49.1572C15.4453 49.1572 14.7275 49.8442 14.7275 50.6913V54.0003C14.7275 54.8584 15.4253 55.586 16.2485 55.586H18.4767C18.7523 55.586 18.9515 55.3955 18.9515 55.1365V54.9907C18.9515 54.7303 18.7523 54.5437 18.4767 54.5437H16.6461C16.1331 54.5437 15.8624 54.2918 15.8624 53.8131V52.8452H19.1654C19.6967 52.8452 20.0108 52.5217 20.0108 51.9736V50.6909C20.0108 49.8442 19.2917 49.1566 18.411 49.1566H16.3302V49.1575L16.3298 49.1572Z" fill="#73BA25"/>
<path d="M24.5999 49.119C23.9791 49.119 23.5107 49.3412 23.1327 49.5214C22.8976 49.6317 22.6966 49.728 22.5326 49.728C22.4604 49.728 22.4311 49.719 22.3751 49.6222L22.2444 49.3841C22.1695 49.2336 22.0421 49.1577 21.87 49.1577H21.6864C21.4648 49.1577 21.303 49.3302 21.303 49.5663V55.1127C21.303 55.3753 21.5109 55.5864 21.7789 55.5864H21.9622C22.2255 55.5864 22.4401 55.373 22.4401 55.1127V50.9164C22.4401 50.5233 22.7619 50.2002 23.1556 50.2002H24.7338C25.1287 50.2002 25.4504 50.5233 25.4504 50.9164V55.1127C25.4504 55.3753 25.6594 55.5864 25.9252 55.5864H26.1106C26.3738 55.5864 26.5876 55.373 26.5876 55.1127V50.7569C26.5876 49.7615 25.8867 49.119 24.7979 49.119H24.5999V49.119Z" fill="#73BA25"/>
<path d="M71.9623 54.2836H72.0755C72.2046 54.2836 72.314 54.2371 72.314 54.1157C72.314 54.0299 72.2517 53.9439 72.0755 53.9439C72.0246 53.9439 71.9895 53.9479 71.9623 53.9522V54.2836V54.2836ZM71.9623 54.8261H71.8059V53.8471C71.8881 53.8352 71.9664 53.8235 72.0834 53.8235C72.2323 53.8235 72.3297 53.8545 72.388 53.8974C72.447 53.9401 72.4785 54.0061 72.4785 54.1005C72.4785 54.2287 72.3925 54.3069 72.287 54.3384V54.3467C72.3732 54.362 72.4314 54.4399 72.4512 54.5846C72.4749 54.7371 72.4978 54.7953 72.5136 54.8265H72.3495C72.3257 54.7953 72.3025 54.7054 72.2832 54.5767C72.2595 54.4523 72.197 54.4049 72.0721 54.4049H71.9628V54.8261H71.9623V54.8261ZM72.1266 53.5737C71.7398 53.5737 71.4232 53.9053 71.4232 54.315C71.4232 54.7326 71.7398 55.0601 72.1304 55.0601C72.521 55.0644 72.8337 54.7326 72.8337 54.319C72.8337 53.9053 72.521 53.5737 72.1304 53.5737H72.1266V53.5737ZM72.1304 53.4373C72.611 53.4373 72.9939 53.8273 72.9939 54.3155C72.9939 54.8108 72.6108 55.1967 72.1266 55.1967C71.6457 55.1967 71.2551 54.8108 71.2551 54.3155C71.2551 53.8278 71.6457 53.4373 72.1266 53.4373H72.1304Z" fill="#73BA25"/>
</g>
<defs>
<clipPath id="clip0_2055_700366">
<rect width="72" height="72" fill="white" transform="translate(0.995605)"/>
</clipPath>
</defs>
</svg>
