<svg width="72" height="72" viewBox="0 0 72 72" fill="none" xmlns="http://www.w3.org/2000/svg">
<g clip-path="url(#clip0_80_101446)">
<path d="M41.1603 5.14406C40.5636 6.53647 40.6962 8.1941 40.2983 9.71912C40.1657 10.0506 39.8342 11.1115 39.3701 11.0452C38.3755 10.9126 38.9059 8.98976 37.7124 8.92345L38.044 11.7083C36.32 11.9072 36.519 9.18867 35.8559 8.12779C35.0602 6.86799 34.8613 8.72454 34.9276 9.25498C34.9939 9.65281 35.0602 9.98434 35.0602 10.3159C35.1265 10.9789 35.1265 11.5094 35.0602 12.1061C33.4026 12.1061 33.9994 9.91803 32.8059 9.5865L32.8722 12.2387C31.0156 12.2387 30.22 10.5811 29.358 9.12237C29.0265 8.52562 28.5623 7.39843 27.7667 7.72996C28.1645 9.38759 29.0265 10.9126 29.1591 12.6365C29.1591 13.1007 28.7612 14.2279 28.1645 13.9626C26.7721 13.4985 26.971 10.9126 25.7775 10.2496C25.5123 10.1169 25.1808 10.2496 24.9155 10.2496C24.9155 11.5757 25.5123 13.2333 25.9764 14.4931C26.109 14.7583 26.3743 15.7529 25.7775 15.6866C24.7166 15.6866 24.4514 13.5648 23.3905 13.83C23.5231 14.3605 23.8547 14.8246 24.0536 15.3551C24.1862 15.6866 24.3851 16.0181 24.4514 16.3496C24.584 17.079 23.6557 17.1453 23.1253 17.0127C21.9981 16.6812 21.1362 15.7529 20.3405 14.8909C20.1416 14.692 19.4785 13.83 19.147 14.2279C18.7492 14.6257 19.5448 15.3551 19.81 15.6203C20.5394 16.4159 21.2688 17.4105 21.6003 18.4051C21.7329 18.8692 21.7992 19.466 21.3351 19.7975C20.8709 20.129 20.2079 19.5323 19.81 19.3334C18.7492 18.604 17.622 17.3442 16.2959 17.3442L15.9643 18.1399L16.8263 19.3334L19.0807 21.853L16.4285 20.7921C16.5611 21.4551 18.2187 22.3171 17.8872 23.0465C17.6883 23.4443 16.76 23.4443 16.3622 23.4443C15.0361 23.2454 14.0415 22.2508 12.848 21.9193C11.7208 21.5877 11.9197 22.4497 12.5828 22.9802C12.7817 23.1791 12.9806 23.3117 13.2458 23.5106C13.6437 23.8421 13.9752 24.1736 14.3067 24.5052C14.8372 25.0356 15.3676 25.6324 15.8317 26.2291L13.1795 26.1628V26.3617L15.6991 27.5552L15.235 29.3455C14.5056 29.3455 13.9089 29.1465 13.2458 28.8813C12.7817 28.6824 12.3176 28.3509 11.7871 28.4172C11.1904 28.4835 10.7925 29.0139 11.1904 29.5444C11.7871 30.34 13.0469 30.8042 13.8426 31.4009C14.1741 31.6661 14.5719 32.064 14.2404 32.4618C13.5774 33.2575 11.7208 32.2629 10.8588 32.5281V32.727C11.7208 33.1912 13.3784 33.4564 13.8426 34.3846C14.2404 35.114 13.1132 36.639 12.3839 36.5727C11.7208 36.5064 11.0578 35.7771 10.5936 35.3129C9.40014 34.3183 8.07403 33.1912 6.68162 32.5281C4.29464 31.4009 1.84135 33.1912 -0.0151978 34.3846C0.250023 35.1803 1.1783 34.3183 1.77504 34.451C2.5707 34.6499 3.23376 35.3792 3.7642 35.976C6.28379 38.8934 8.40556 42.2087 9.33383 45.9881C9.59905 46.9826 9.99688 48.1761 9.26753 49.0381C9.06861 49.3033 8.80339 49.3033 8.53817 49.5022C8.40556 49.6348 8.40556 49.8338 8.60447 49.9001C9.00231 50.0327 9.59905 49.8338 10.0632 49.7674C11.3893 49.4359 12.9143 48.7066 13.5111 47.4468C13.9089 46.6511 14.0415 45.0598 14.9698 44.7283C15.1687 45.5902 16.1633 46.7837 16.0307 47.6457C15.9643 48.4413 15.1024 49.3033 14.6382 49.9001C14.4393 50.099 14.0415 50.5631 14.3067 50.8283C14.5719 51.0935 15.0361 50.4968 15.235 50.3642C15.898 49.7011 17.4231 48.7066 17.8209 50.1653C18.1524 51.4914 17.0252 53.5468 16.4948 54.7403C16.3622 55.0719 15.6328 56.0664 15.898 56.398C16.2296 56.7958 16.8926 55.7349 17.0915 55.536C17.6883 54.8066 19.6774 52.5523 20.7383 53.3479C22.0644 54.3425 21.6003 55.0056 21.0698 56.3317C20.9372 56.7295 20.4068 57.6578 20.7383 57.9893C21.0698 58.3208 21.534 57.9893 21.6666 57.7241C21.9981 57.1273 22.7938 55.4034 23.6557 55.8012C24.1862 56.0664 24.9818 56.5306 25.3134 57.061C25.7775 57.8567 25.3797 59.5143 25.2471 60.3763C25.1808 60.9067 24.6503 62.498 25.0482 62.8296C25.446 63.1611 25.8438 62.1665 25.9101 61.9013C26.3743 61.0393 26.9047 60.1111 27.5678 59.3817C27.833 59.1165 28.1645 58.6523 28.5623 58.7187C30.6841 59.1165 28.496 61.2382 29.358 62.2991C29.5569 62.498 30.021 62.498 30.2863 62.5644L31.3471 59.7795C31.8776 59.9784 32.7396 60.0448 33.1374 60.5089C33.4689 60.9067 33.5352 61.5698 33.6678 62.0339C33.933 63.4263 34.0657 64.7524 33.933 66.1448C34.132 66.2774 34.3972 66.5427 34.5961 66.41C34.8613 66.2111 34.9276 65.4818 35.0602 65.1502C35.3918 64.1557 35.8559 63.1611 36.32 62.2328C36.6516 61.6361 37.4472 60.973 38.044 61.835C38.6407 62.697 38.3755 64.2883 38.7733 65.2829C39.7679 64.8187 39.8342 62.8296 39.8342 61.835L41.094 62.0339L41.8234 63.5589L43.1495 67.4709C43.8788 67.2057 43.6136 65.8796 43.6799 65.2166C43.8125 64.3546 44.0114 62.5644 44.6082 61.9013C44.8734 61.6361 45.4038 61.6361 45.7354 61.5035C46.1332 62.4317 46.3321 63.4926 46.7963 64.4209C46.9952 64.7524 47.393 65.1502 47.7908 64.9513C48.1887 64.7524 48.1887 64.2883 48.1224 63.8905C47.9897 62.9622 47.7908 62.0339 47.7245 61.1056C49.5148 60.973 50.5756 62.4317 51.7028 63.6252C52.167 64.0894 52.4985 64.6861 53.1615 64.885L52.2333 62.1665L51.7028 59.6469C52.3659 59.3817 53.7583 58.0556 54.4213 58.2545C55.4159 58.5197 56.2116 61.4372 57.5377 60.7078C58.0681 60.4426 57.8029 59.9121 57.5377 59.5806C57.1399 58.9839 56.0127 57.6578 56.1453 56.9284C56.2116 56.398 57.1399 55.8012 57.604 55.8012C58.7975 55.8012 60.8529 56.7295 61.516 57.6578L62.3117 57.5915C62.179 55.9338 59.7258 55.2045 59.3942 53.6132C59.3279 53.4805 59.3942 53.2816 59.3942 53.0827C59.6595 52.0218 60.2562 52.486 60.9192 52.7512C61.1182 52.8175 61.5823 53.0827 61.7149 52.8175C61.9138 52.5523 61.5823 52.1544 61.4497 51.9555C61.1845 51.4914 60.9856 50.9609 61.0519 50.4305C61.9138 50.6294 62.4443 51.1599 63.1736 51.624C63.3725 51.7566 63.7041 52.0218 63.903 51.8892C64.1019 51.7566 63.7704 51.3588 63.7041 51.2925C63.3725 50.8946 62.378 50.0327 62.5106 49.5022C62.5769 49.1044 63.1736 48.7729 63.4388 48.5076C64.3008 47.6457 65.2291 46.85 65.8921 45.8554H65.9584C67.5498 47.712 72.589 46.3859 71.9259 43.6011C71.5281 43.6674 71.1302 43.9989 70.7324 43.8C68.9422 43.2032 69.4063 40.2858 67.3509 40.2858C67.2182 38.4293 66.4226 36.5727 65.5606 34.9151C65.1628 34.1857 64.3008 33.4564 63.9693 32.727C63.7704 32.3292 63.8367 31.6661 63.8367 31.202C64.8976 31.0694 64.3671 29.9422 63.9693 29.4118C63.5715 28.7487 63.1073 27.953 62.5106 27.4226C61.8475 26.7595 60.7866 26.2954 60.9192 25.1682C60.9855 24.1073 62.8421 24.24 63.1736 23.2454C62.6432 23.2454 62.1127 23.378 61.516 23.5106C60.1899 23.7095 59.9247 23.3117 60.5877 22.0519C61.1182 20.991 62.0464 20.1953 62.7758 19.3334C63.041 19.0681 63.7704 18.4051 63.3725 18.0073C63.041 17.6757 62.5106 18.2062 62.2453 18.3388C61.2508 19.0018 60.1236 19.466 58.9964 19.8638C58.6649 19.9964 57.6703 20.3943 57.5377 19.7312C57.4051 18.9355 58.9301 18.7366 58.7312 17.8083C58.1344 17.941 56.8746 18.9355 56.2779 18.4714C55.5485 17.941 56.6094 16.5486 56.742 15.8855C56.8746 15.2224 56.3442 15.2224 55.9464 15.6203C55.8137 15.7529 55.6811 15.8855 55.6148 16.0844C55.4159 16.3496 55.217 16.6149 55.0844 16.8801C53.6257 16.0181 56.4105 15.0235 55.8801 14.2279C55.6811 13.9626 55.3496 14.2279 55.1507 14.3605C54.8192 14.692 53.4931 16.217 53.1615 15.0898C52.83 13.83 53.4931 12.3713 53.8246 11.1778C53.8909 10.8463 54.2887 10.0506 53.8909 9.85173C53.3605 9.5202 53.0952 10.5811 52.9626 10.9126C52.5648 11.9072 51.9018 12.7692 51.1061 13.4322C50.8409 13.6311 50.3767 14.0953 50.0452 14.029C49.5148 13.8963 49.4485 12.305 49.5148 11.8409C49.5148 11.642 49.6474 11.2441 49.4485 11.0452C49.1832 10.8463 48.9843 11.2441 48.9843 11.4431C48.8517 12.1061 48.4539 14.029 47.4593 12.7692C46.531 11.642 47.9234 9.25498 46.1332 8.79084L45.1386 11.9735C43.9451 11.7083 44.2104 9.98434 44.4756 9.05606L43.9451 8.85715C43.8788 9.25498 43.7462 9.5865 43.6136 9.91803C43.1495 11.3104 42.4864 11.5094 41.956 9.98434C41.5581 8.79084 41.6908 7.53104 41.4918 6.33755C41.6908 5.87341 41.6908 5.34297 41.1603 5.14406Z" fill="black"/>
<path d="M41.2934 7.86241C41.2271 10.4483 40.4314 12.4375 37.5803 12.4375L38.5749 16.5484C37.514 15.4212 37.1162 13.8299 36.5857 12.3712C36.2542 11.4429 35.8564 10.5146 35.7238 9.58635H35.6575C35.7238 11.244 36.0553 12.8353 35.7238 14.4929C35.5248 15.4212 35.0607 16.0843 34.7955 16.9462H34.7292L35.2596 12.9679C33.2042 13.1005 31.4802 13.432 30.1541 11.5092C29.8889 11.1114 29.6237 10.5809 29.4248 10.1168H29.3585C29.5574 11.6418 30.9498 13.432 29.3585 14.6918C29.0932 14.8908 28.828 15.0234 28.5628 15.0897L30.0215 17.2777L30.8835 18.4049C28.5628 16.8799 27.2367 14.2277 26.0432 11.7744H25.9769C26.2421 13.7636 27.4356 15.4875 27.7671 17.4767C27.8998 18.1397 28.165 19.1343 27.5019 19.6647L26.7726 16.2169C25.7117 16.7473 24.916 18.4049 23.5236 18.206C22.9269 18.1397 22.4627 17.6093 21.866 17.4104C22.1312 18.2723 22.8606 19.0017 22.4627 19.93C22.3301 20.2615 21.9986 20.5267 21.7997 20.8582L24.7171 21.9191C24.1867 22.5822 23.0595 22.0517 22.4627 21.7865C21.2692 21.1898 20.2084 20.4604 19.0812 19.731C18.4844 19.2669 17.7551 18.6702 16.9594 18.5375C17.4235 19.5321 18.617 20.3941 19.4127 21.1234C20.0757 21.7202 20.5399 22.4495 21.1366 23.1126C21.6671 23.7757 22.3964 24.5713 22.1312 25.4996C21.1366 24.505 20.341 23.842 18.8822 24.1735C18.3518 24.3061 17.8877 24.6376 17.3572 24.5713C16.3627 24.5713 15.3681 24.0409 14.4398 23.643C14.9702 24.7702 16.3627 25.4333 16.6942 26.7594C16.8931 27.754 16.23 28.9475 16.0974 29.942L19.2138 30.4062V30.6051C16.5616 31.3344 14.705 29.8757 12.1854 29.4116V29.4779C13.8431 30.2736 15.7659 31.5997 16.9594 32.9921C17.4235 33.5225 17.954 34.1193 17.954 34.7823C17.4898 34.3845 16.5616 33.3236 15.8322 33.4562C15.3018 33.5225 15.1029 34.1193 15.0365 34.5834C14.8376 35.8432 14.8376 37.1693 14.8376 38.4291C14.3072 37.965 14.3735 37.3682 14.3735 36.7052C13.7104 37.103 13.0474 37.6334 12.1854 37.5008C11.3235 37.3019 10.5278 36.3073 9.93105 35.7106C8.80386 34.5834 7.47776 33.4562 5.82013 33.191C4.95816 33.0584 2.37226 33.191 3.49945 34.5171C3.63206 34.6497 3.76467 34.7823 3.89728 34.8486C4.49402 35.1801 5.82013 34.7823 6.54948 34.7823V34.8486L4.29511 35.3128C5.22338 37.2356 7.21254 35.5117 8.27342 36.7052C7.54406 36.5062 6.21796 36.5062 5.4886 36.7052L6.7484 38.3628L7.34515 39.1585L9.46691 39.4237V39.49H7.54406C7.67667 40.4846 8.80386 40.2193 9.53322 40.153V40.2193L8.0082 40.4846C8.27342 41.015 8.87017 42.7389 9.40061 43.0042C9.86475 43.2031 10.4615 42.8052 10.793 42.6063C10.2626 43.5346 9.40061 43.1368 9.86474 44.3966L11.3235 43.6672C10.9919 44.065 10.4615 44.3303 10.2626 44.7281C9.99736 45.2585 10.4615 46.1205 10.5941 46.6509L12.0528 45.5901L10.6604 47.1151L10.793 48.7727C11.9865 48.2423 12.9811 47.3803 13.5115 46.1205C13.7104 45.5901 13.7767 44.9933 13.9757 44.5292C14.1746 44.1976 14.705 44.264 14.8376 43.8661C15.0365 43.1368 14.5724 42.54 14.9702 41.8107H15.0365L15.3018 43.2694C16.23 43.0042 16.7605 41.5454 17.0257 40.7498H17.2246C17.4898 41.9433 16.429 42.6726 16.0311 43.6672C16.6942 43.7998 17.8214 44.1313 17.7551 44.927L15.5007 44.1313L17.2246 47.977H17.2909C18.1529 46.7172 18.9486 44.7281 20.0757 43.7998C20.4736 45.1259 19.0812 46.2531 18.5507 47.314C19.3464 47.1151 20.7388 46.0542 21.4681 46.5183C20.4736 46.9162 19.5453 47.5129 18.8159 48.3086C18.5507 48.5738 18.1529 49.0379 18.1529 49.3694C18.1529 49.7673 18.617 50.2314 18.8822 50.5629C19.6779 51.6901 20.6062 52.8836 21.866 53.5467C22.3301 52.6184 22.7943 51.6901 23.0595 50.6292C23.1921 50.1651 23.1921 49.5021 23.5899 49.2368C24.0541 51.7564 22.2638 54.5412 21.6671 56.8619C23.391 55.4032 24.3856 53.0825 26.5737 52.1543C26.5073 53.3478 24.6508 53.9445 24.5182 55.2706C24.4519 55.7347 25.0486 55.9337 25.3802 56.1989C26.2421 56.7956 27.0378 57.4587 28.0324 57.9228C28.3639 58.0554 28.7617 58.387 29.0932 58.0554C29.69 57.3924 29.7563 56.1989 29.69 55.3369C29.6237 54.8065 29.4248 54.0108 29.8226 53.613L30.4857 57.3261L30.1541 61.7022H30.2204C31.0824 59.5141 31.8118 57.1935 33.4694 55.5358C33.4694 56.663 32.2096 58.2543 31.7455 59.3815C33.4694 60.1772 35.4585 60.6413 37.3151 61.0392C37.4477 59.912 37.4477 58.7848 37.1162 57.6576C36.9836 57.1272 36.5194 56.4641 36.851 56C37.9781 58.4533 39.2379 60.9066 39.2379 63.6251H39.3042C39.3042 61.9674 39.5695 60.2435 39.901 58.6522C39.9673 58.387 40.0336 57.1272 40.4977 57.1272C40.9619 57.1272 40.763 57.8565 40.763 58.1217C40.564 59.2489 40.2988 60.3761 40.1662 61.5033L44.0782 61.437L45.4706 61.1718L45.4043 59.7794L43.5478 56.5304C44.2771 56.3978 44.9402 57.6576 45.2717 58.188C46.4652 60.1109 47.2609 62.6305 47.7913 64.8186H47.8576C47.5924 61.8348 46.863 59.05 47.1946 56C48.0565 56.3315 47.5924 58.5859 47.725 59.4478C47.7913 59.7131 47.725 60.4424 48.0565 60.575C48.3881 60.7076 48.9185 60.4424 49.1837 60.3098C50.2446 59.9783 51.2392 59.4478 52.3001 58.9837C52.6979 58.7848 53.2283 58.5859 53.2946 58.1217C53.3609 56.3978 51.8359 55.8674 50.775 54.9391C51.7033 54.8728 52.3664 55.4695 53.0294 56C54.024 56.7956 55.0849 57.7239 55.8805 58.7185C56.3447 59.3152 56.7425 60.0446 57.2729 60.5087C56.9414 59.5141 56.2121 58.5859 55.7479 57.7239C54.8197 55.9337 54.1566 54.0108 53.8914 52.0217H53.9577L55.6816 56.5967C56.6099 56.2652 57.4056 55.138 58.0023 54.4086C58.2675 54.0771 58.599 53.7456 58.599 53.3478C60.1241 52.8173 58.2012 51.5575 57.8697 51.0934C58.9306 50.9608 59.8588 51.9554 60.8534 52.1543C60.3893 51.226 59.6599 49.9662 59.8588 48.9053H60.0578L60.7208 50.6956C62.3121 49.2368 64.1687 47.7118 65.3622 45.8553C67.0198 43.2694 67.0198 40.0204 65.8263 37.2356C65.4948 36.5062 65.2296 35.3791 64.6328 34.7823C63.8372 33.9203 63.1078 35.3791 63.0415 36.0421C63.4393 36.1084 63.7709 36.241 64.1024 36.4399C65.3622 37.3019 65.4285 38.7606 64.898 40.0204C64.6991 40.5509 64.3013 41.0813 64.235 41.6781C64.1687 42.4074 64.5665 43.1368 64.6991 43.8661C64.898 45.0596 64.3013 46.3194 63.4393 47.1151C62.6437 47.8444 61.5165 48.2423 60.4556 48.1097C59.9252 48.0433 59.3947 47.5792 58.9306 47.7781C58.1349 48.0433 58.0023 49.3031 57.4719 49.8999C57.2729 48.5075 58.2675 47.7781 58.5327 46.5183C58.6654 45.9216 58.2012 44.8607 58.0023 44.264C57.8697 43.7998 57.6045 42.4737 56.8751 42.7389C56.411 42.9379 56.1458 43.4683 55.8805 43.7998C55.2175 44.7281 54.6207 45.789 53.4936 46.0542C53.8914 44.9933 55.0849 44.065 55.6816 43.0705C56.9414 41.0813 58.3338 37.766 56.6099 35.6443C56.0795 34.9812 55.2838 34.5171 54.5544 34.1856C53.5599 33.7214 52.4327 33.5888 51.3718 33.2573V33.0584L52.6316 32.8595L52.3664 30.8703L51.5707 31.1355C51.5707 27.8203 54.886 25.9637 57.2066 24.2398L56.8088 25.4333L57.936 27.1572L60.1904 30.6714L59.2621 30.6051C59.461 31.9312 59.7262 33.1247 59.2621 34.4508C58.9969 35.3128 58.2675 35.9758 58.0023 36.8378C57.8697 37.2356 58.0686 37.6997 58.0686 38.0976C58.0686 38.6943 57.8697 39.2248 57.7371 39.8215C59.3947 39.0258 59.6599 36.6389 61.3839 36.1084C61.2513 35.3128 60.9197 34.5834 60.8534 33.7214C60.7208 31.9312 61.0523 30.141 60.7871 28.3507C60.4556 26.3616 59.6599 24.6376 58.9306 22.7811L59.7262 23.1126C59.9252 21.8528 60.9197 21.1898 61.6491 20.1952C60.5882 20.593 58.9969 21.8528 57.8034 21.1898C57.0077 20.7256 56.7425 19.6647 55.8805 19.2669L54.8197 23.643H54.7533C54.2892 21.6539 55.2838 19.731 55.7479 17.8082C54.3555 18.9354 53.4272 20.3278 51.5044 20.593L54.1566 18.6702L54.7533 17.8082L53.9577 17.1451L51.9685 15.6864L52.8968 15.8853L53.2283 12.9679H53.162C52.9631 13.2994 52.6979 13.631 52.4327 13.9625C52.0348 14.3603 51.5707 15.0234 51.0403 15.2223C49.9794 15.5538 48.5207 14.3603 47.5261 14.0951V18.2723C46.5978 18.1397 46.7304 17.2114 46.7304 16.3495C46.7304 14.5592 46.6641 12.769 46.7304 10.9788H46.6641C46.3989 12.9679 45.7358 15.8853 43.7467 16.8799C44.3434 15.9516 44.8739 15.2223 45.1391 14.1614C45.2054 13.8299 45.4706 13.2994 45.1391 13.1005C44.2108 12.4375 42.8184 12.9679 42.0891 11.907C41.2271 10.3157 41.7575 8.9896 41.2934 7.86241Z" fill="url(#paint0_radial_80_101446)"/>
<path d="M35.7238 9.78471L35.7922 9.85309L35.7238 9.78471Z" fill="#0F0D06"/>
<path d="M40.4977 14.1616L39.039 20.7258C40.1662 20.0627 40.3651 17.5431 40.4977 16.3496H40.564C40.7629 17.4105 40.8292 18.4714 41.2934 19.466C41.4923 19.8638 41.6249 20.3943 42.1553 20.3943L40.9619 16.2833L40.4977 14.1616Z" fill="black"/>
<path d="M31.5465 15.2891C31.5465 17.6098 32.74 19.7316 32.2759 22.1186C32.74 21.8534 32.74 21.2566 32.74 20.7925C32.74 19.6653 32.5411 18.6044 32.5411 17.5435H32.6074C32.9389 18.6707 33.8009 20.8588 35.0607 20.9914C34.9281 20.3946 34.3976 19.9305 34.1324 19.4664C33.4031 18.2729 32.74 16.0185 31.5465 15.2891Z" fill="black"/>
<path d="M50.1784 16.3489C49.1838 17.9402 47.9903 20.1283 46.4653 21.2555V21.3218C47.5925 21.1229 48.8523 19.6642 49.1838 18.6033H49.2501C49.2501 20.1946 48.5207 21.9185 49.1838 23.5099H49.2501C49.7142 21.8522 49.449 19.9294 49.9131 18.2055C50.0457 17.675 50.5099 16.813 50.1784 16.3489Z" fill="black"/>
<path d="M44.211 19.9298C43.6806 21.1233 43.4153 22.2505 42.2881 23.1124V23.3114C43.0838 23.5103 43.6143 22.5157 43.8132 21.8526H43.8795C43.9458 22.4494 44.0121 23.7092 44.6751 23.9744L44.211 21.8526V19.9298Z" fill="black"/>
<path d="M24.7172 20.0629C24.9161 22.3172 27.8999 23.8422 27.502 26.2292C27.9662 25.964 27.8336 25.4336 27.701 24.9694C27.3694 24.0412 26.7727 23.1792 26.4412 22.2509C27.3031 23.0466 28.6292 23.9748 29.8227 23.4444L27.8999 22.6487L24.7172 20.0629Z" fill="black"/>
<path d="M37.3152 20.7923C37.05 21.7206 36.2543 23.4445 36.5859 24.3065H36.7185L37.3815 22.1184H37.4478C37.6467 22.9141 37.912 24.1739 38.9065 24.3065L37.4478 20.7923H37.3152Z" fill="black"/>
<path d="M31.2151 23.0461L31.6793 26.8918H31.8782L31.8119 24.1733C32.4086 24.5712 33.2043 25.632 34 25.2342C33.6684 24.9027 33.2706 24.8364 32.9391 24.5712C32.276 24.107 31.9445 23.1124 31.2151 23.0461Z" fill="black"/>
<path d="M51.1727 23.576C50.2445 24.5706 49.3825 25.1674 48.0564 25.5652V25.7641C48.8521 25.963 49.5814 25.5652 50.2445 25.1011C50.1119 25.6315 49.4488 27.0239 49.9792 27.3554L50.8412 24.7032L51.1727 23.576Z" fill="black"/>
<path d="M52.1674 29.4785C54.2228 28.948 56.5435 28.6828 58.599 29.1469C58.2674 28.0861 57.4718 27.1578 56.7424 26.3621C56.4772 26.0969 56.212 25.5665 55.7478 25.5002C55.2837 25.4339 54.8196 25.9643 54.488 26.2295C53.5598 26.9589 52.6315 28.285 52.1674 29.4785Z" fill="url(#paint1_radial_80_101446)"/>
<path d="M35.6574 25.698L35.127 28.4828C35.5911 28.1512 35.6574 27.0241 35.79 26.4936L36.5856 27.4219C36.453 26.8251 36.1215 26.0958 35.6574 25.698Z" fill="black"/>
<path d="M44.5423 25.9629L42.8183 27.6868L44.476 26.4933L44.7412 28.151C45.0727 27.6868 44.8738 26.3607 44.5423 25.9629ZM25.3138 26.2281C26.1094 27.0901 26.7062 28.151 27.1703 29.0792C27.4355 29.6097 27.3692 30.2064 27.8997 30.5379C27.8334 29.4771 27.3692 28.6814 26.9714 27.7531C27.6345 28.151 28.4964 28.6814 29.2258 28.4825V28.2836C28.1649 27.8194 27.3692 27.4216 26.5073 26.6922C26.1757 26.427 25.7779 26.0292 25.3138 26.2281Z" fill="black"/>
<path d="M19.2139 27.025C19.2802 27.8207 19.9432 28.0859 20.4737 28.4837C21.2693 29.0805 21.9324 29.6772 22.5291 30.4729C22.927 31.0033 23.1259 31.8653 23.6563 32.1968C23.5237 30.8707 22.7943 29.2794 21.4682 28.749V28.6827C22.7943 28.9479 24.0541 29.412 25.3802 28.8816V28.6827L23.8552 28.6163L19.2139 27.025Z" fill="black"/>
<path d="M61.4503 27.29L61.6492 29.478L63.6384 29.7433C63.3069 28.8813 62.3786 27.6878 61.4503 27.29Z" fill="url(#paint2_radial_80_101446)"/>
<path d="M39.4367 27.423L38.641 28.948L39.5693 27.9535L40.0997 28.8817L39.4367 27.423Z" fill="black"/>
<path d="M48.189 29.6104L46.664 30.8038L48.0564 30.0745L47.8575 31.1354C48.189 30.8702 48.3879 30.0082 48.189 29.6104Z" fill="black"/>
<path d="M57.2731 35.0487C57.9362 34.7171 58.2677 33.9215 58.4666 33.2584C58.6655 32.3964 58.9971 30.0758 57.8699 29.6779C57.2731 29.4127 56.2785 29.7442 55.6155 29.7442C55.0187 29.7442 53.7589 29.6779 53.2948 30.0758C52.897 30.4736 53.1622 31.9986 53.4937 32.3964C53.8252 32.7943 54.5546 32.9269 55.085 33.1258C56.0133 33.5236 56.809 34.1204 57.2731 35.0487Z" fill="white"/>
<path d="M63.1077 29.6768L63.174 29.7431L63.1077 29.6768ZM63.6381 29.6768L63.5718 29.8757L63.6381 29.6768Z" fill="#0D0B05"/>
<path d="M63.6382 29.7434L63.7066 29.8118L63.6382 29.7434Z" fill="white"/>
<path d="M61.4503 30.1414V30.937C63.1079 30.3403 63.4395 32.7273 61.7155 32.661L62.0471 34.7827C63.2405 34.186 63.8373 31.4675 62.8427 30.4729C62.5775 30.1414 61.8481 30.1414 61.4503 30.1414Z" fill="white"/>
<path d="M62.8425 30.3398L62.9108 30.4082L62.8425 30.3398Z" fill="#020202"/>
<path d="M56.8088 30.4729C56.6099 30.6718 56.3446 30.8044 56.212 31.0696C55.2838 32.7273 58.8642 32.7273 57.8697 31.0033C57.7371 30.8044 57.5381 30.6718 57.3392 30.5392L56.8088 30.8044V30.4729Z" fill="black"/>
<path d="M56.9415 30.4729L57.2731 30.5392L56.9415 30.4729Z" fill="#020202"/>
<path d="M61.7154 30.7378L61.9806 30.9367V30.8704L61.7154 30.7378Z" fill="#020202"/>
<path d="M37.7129 30.8709C37.7129 31.335 37.6466 31.7991 38.0444 32.0644V31.1361L39.1053 31.4676L37.7129 30.8709Z" fill="black"/>
<path d="M61.649 30.8709L61.8479 31.0698V30.8709H61.649Z" fill="#010101"/>
<path d="M43.2827 32.1304L43.7469 31.3347L44.2773 31.6662C43.8795 30.6054 43.2827 31.401 43.2827 32.1304Z" fill="black"/>
<path d="M32.276 31.1358C32.4086 31.7326 32.6738 32.1967 33.2043 32.5945L32.6738 31.401L33.7347 31.4673C33.4695 31.0032 32.8064 31.1358 32.276 31.1358Z" fill="black"/>
<path d="M27.6346 31.666L28.8944 33.191L28.165 31.9312L29.2259 31.7323L29.1596 31.4008L27.6346 31.666Z" fill="black"/>
<path d="M60.9861 31.4008V31.666H61.0524L60.9861 31.4008Z" fill="white"/>
<path d="M60.9861 31.7988V32.064H61.0524L60.9861 31.7988Z" fill="white"/>
<path d="M62.909 31.8653L62.9774 31.9337L62.909 31.8653Z" fill="#010101"/>
<path d="M62.7098 32.3299L62.7782 32.3982L62.7098 32.3299Z" fill="#050505"/>
<path d="M18.4842 34.2512V34.4501L21.1364 35.3784C21.0701 34.7153 20.2081 34.4501 19.6114 34.3838L21.4016 32.7262C20.407 32.5936 19.2799 33.7207 18.4842 34.2512Z" fill="black"/>
<path d="M61.9807 32.5948L62.2459 32.6611L61.9807 32.5948Z" fill="#010101"/>
<path d="M22.2638 33.8543V34.0532L24.253 34.7826L25.4464 35.5783C25.3138 34.5837 24.3193 34.4511 23.6562 33.9206C24.5182 33.788 25.6454 33.7217 26.0432 32.8597L22.2638 33.8543Z" fill="black"/>
<path d="M63.1741 33.1247L63.2424 33.1931L63.1741 33.1247Z" fill="#0E0D08"/>
<path d="M63.1741 33.2577L63.2424 33.3261L63.1741 33.2577Z" fill="#020202"/>
<path d="M61.8479 33.6546L61.9142 33.7872L61.8479 33.6546Z" fill="#010101"/>
<path d="M35.127 34.5172L35.3922 33.8542C34.9944 33.9205 34.6628 34.252 35.127 34.5172Z" fill="black"/>
<path d="M62.6436 34.3187L62.712 34.3871L62.6436 34.3187Z" fill="#020202"/>
<path d="M38.376 34.3841L38.3097 35.0471C38.5749 34.8482 38.6412 34.7156 38.5749 34.3841H38.376Z" fill="black"/>
<path d="M42.2216 35.0471L42.4868 34.3841C42.089 34.5167 41.8237 34.7819 42.2216 35.0471Z" fill="black"/>
<path d="M62.5773 34.3841L62.6457 34.4524L62.5773 34.3841Z" fill="#020202"/>
<path d="M44.9401 35.5781V35.9096L45.8683 35.2466L44.9401 35.5781Z" fill="black"/>
<path d="M49.2502 35.3785V36.4394C49.648 36.1741 49.648 35.71 49.2502 35.3785Z" fill="black"/>
<path d="M65.0969 35.3785L65.1652 35.4469L65.0969 35.3785Z" fill="#0D0B05"/>
<path d="M31.3477 37.2349L32.4085 37.5001L31.8118 36.9034L32.1433 36.0414C31.7455 36.2403 31.4803 36.7708 31.3477 37.2349Z" fill="black"/>
<path d="M57.7369 40.0213C59.9913 40.3528 61.0522 39.2919 62.7098 37.9658C62.4446 38.6289 61.2511 39.4245 61.3174 40.0876C61.3837 40.7506 62.3783 40.8169 62.8424 40.618C63.7044 40.2865 64.2348 39.3582 64.4337 38.4299C64.8316 36.6397 62.4446 35.1147 60.9196 36.3082C59.6598 37.3691 59.063 39.0267 57.7369 40.0213Z" fill="url(#paint3_radial_80_101446)"/>
<path d="M14.9037 38.0313C15.0364 38.6943 15.6994 38.3628 16.1635 38.2965C16.8266 38.2302 18.1527 38.4954 18.5505 39.0922L19.2136 39.0259C19.081 37.965 17.556 38.0313 16.7603 37.965C17.357 37.3682 18.219 37.1693 18.4179 36.241L14.9037 38.0313Z" fill="black"/>
<path d="M64.4339 36.241L64.5023 36.3094L64.4339 36.241Z" fill="#0D0B05"/>
<path d="M65.5611 36.3741L65.6295 36.4424L65.5611 36.3741Z" fill="#0D0B05"/>
<path d="M35.9227 36.9705L34.9281 38.2303L36.1879 38.6944L35.2596 38.164C35.4585 37.7662 36.1879 37.3683 35.9227 36.9705Z" fill="black"/>
<path d="M64.1686 36.9705L64.237 37.0389L64.1686 36.9705Z" fill="#0E0D05"/>
<path d="M28.0322 37.2355L26.9713 38.23C27.3691 38.3626 28.3637 38.9594 28.6952 38.4953L27.4354 38.0311L28.0322 37.2355ZM51.5705 37.2355L52.8303 38.23V38.4289L51.6368 39.092C52.2336 39.0257 52.764 38.8268 53.2945 38.4289C52.8966 37.8322 52.2336 37.3681 51.5705 37.2355Z" fill="black"/>
<path d="M64.3677 37.3019L64.4361 37.3703L64.3677 37.3019Z" fill="#010101"/>
<path d="M65.8924 37.3019L65.9608 37.3703L65.8924 37.3019Z" fill="#0D0B05"/>
<path d="M64.3677 37.4351L64.4361 37.5034L64.3677 37.4351Z" fill="#0E0D05"/>
<path d="M22.3964 37.567C21.8659 38.8268 21.004 39.8213 20.0094 40.7496C19.4789 41.28 18.617 41.8105 18.3517 42.5398L22.3301 41.6779L24.4518 41.28C23.192 40.4181 21.004 41.4126 19.8105 41.9431C20.6061 40.2855 22.2638 39.6224 22.5953 37.6996L22.529 37.6333L22.3964 37.567Z" fill="black"/>
<path d="M39.039 38.4954L39.5694 38.5617V37.6335C39.1716 37.8324 39.1053 38.0976 39.039 38.4954Z" fill="black"/>
<path d="M64.4339 38.0314L64.5023 38.0998L64.4339 38.0314Z" fill="#010101"/>
<path d="M43.2827 38.2976L43.349 39.2922C43.7469 39.0933 44.0784 38.7618 44.1447 38.2976L43.4816 38.7618L43.2827 38.2976Z" fill="black"/>
<path d="M62.5773 38.4295L62.6457 38.4979L62.5773 38.4295Z" fill="#0E0D05"/>
<path d="M64.3013 38.7609L64.3696 38.8293L64.3013 38.7609Z" fill="#010101"/>
<path d="M66.3568 38.8928L66.4252 38.9612L66.3568 38.8928Z" fill="#0D0B05"/>
<path d="M64.1686 39.0259L64.237 39.0942L64.1686 39.0259Z" fill="#010101"/>
<path d="M30.4857 40.22L30.6846 39.557C30.2868 39.6896 30.0215 39.9548 30.4857 40.22Z" fill="black"/>
<path d="M63.7045 39.8873L63.7729 39.9556L63.7045 39.8873Z" fill="#010101"/>
<path d="M63.6382 39.9538L63.7066 40.0222L63.6382 39.9538Z" fill="#0E0D05"/>
<path d="M46.7306 40.1522L46.6643 41.412L45.8686 40.8816C45.9349 41.412 46.3327 41.6772 46.8632 41.8098L46.9295 40.1522H46.7306Z" fill="black"/>
<path d="M59.1294 40.1522L59.3946 40.2185L59.1294 40.1522Z" fill="#010101"/>
<path d="M24.3192 42.9384C24.916 42.9384 27.0377 43.0047 27.303 42.6069L25.3138 42.3417L26.3747 40.2199C25.7116 40.4188 24.5844 42.3417 24.3192 42.9384ZM31.6791 50.8287C32.3422 50.4309 33.2704 49.2374 33.602 48.5744C32.8726 48.7733 32.5411 49.5026 32.0769 50.0331L31.8117 48.1102C33.9335 47.9113 34.8618 45.5906 36.1216 44.1982C36.8509 43.3363 37.8455 43.0047 38.8401 42.4743C38.2433 41.8112 37.4477 42.5406 36.9172 42.9384C35.4585 44.0656 34.6628 45.3917 33.403 46.6515L34.1324 44.7287H34.0661C33.6683 45.6569 33.2041 46.7178 32.2758 47.1819L32.6074 45.9221H32.5411C32.1432 46.8504 31.7454 47.3146 30.7508 47.3146L31.6791 45.1928H31.6128L30.4193 47.1819L30.0878 47.1156L31.016 45.3917H30.9497C30.4856 46.1211 30.0215 47.1819 29.0269 46.9167L29.8225 45.3917C29.3584 45.7232 29.1595 46.5852 28.6291 46.7841C28.3638 46.8504 27.8997 46.7178 28.0323 46.3863C28.1649 45.9885 28.828 45.5243 29.1595 45.1928C30.0878 43.9993 30.8171 42.0101 32.2095 41.2145C33.3367 40.6177 35.0607 41.3471 36.3205 41.3471C37.0498 41.3471 37.8455 41.0819 38.0444 40.3525C37.4477 40.2862 36.9172 40.684 36.3205 40.684C34.7954 40.684 32.2758 39.9547 30.9497 40.9493C29.7562 41.8775 29.6899 43.1373 28.9606 44.3308C28.5628 44.9276 27.966 45.3254 27.4356 45.7232C27.2366 45.8558 26.9051 46.1211 26.9714 46.3863C27.0377 46.7841 27.7008 46.983 27.966 47.1156C28.6291 47.4472 29.4247 47.6461 30.1541 47.845C30.5519 47.9113 31.1487 47.9113 31.4802 48.1765C31.7454 48.6407 31.5465 50.1657 31.6791 50.8287Z" fill="black"/>
<path d="M63.1077 40.4848L63.174 40.5511L63.1077 40.4848ZM62.8425 40.6174L62.9088 40.6838L62.8425 40.6174Z" fill="#010101"/>
<path d="M14.6388 40.6833L14.5724 41.2138L14.904 40.6833H14.6388Z" fill="black"/>
<path d="M61.848 43.336C61.6491 42.7392 61.7154 41.9436 61.3176 41.4131C60.7872 40.6838 59.5937 40.7501 58.8643 40.7501C58.5991 40.7501 58.135 40.7501 57.936 41.0153C57.7371 41.3468 58.135 42.0762 58.2013 42.4077C58.5328 43.8001 58.8643 45.6567 60.0578 46.5849C60.8535 47.1817 62.3785 46.7838 63.0415 46.1208C64.1024 45.1262 64.3676 42.6729 63.3068 41.612C61.9807 40.2196 61.9807 42.6729 61.848 43.336Z" fill="url(#paint4_radial_80_101446)"/>
<path d="M62.8425 41.2143L62.9108 41.2827L62.8425 41.2143Z" fill="#0E0D08"/>
<path d="M67.484 41.3463L67.0198 43.6006L66.6883 44.7941L67.3513 45.2582L67.1524 44.4626H67.2187C67.6166 45.4572 68.0807 45.6561 69.1416 45.6561L68.4785 44.2637C68.8764 44.7278 69.0753 45.4571 69.7383 45.5235L69.0753 44.33C69.672 44.993 69.9372 45.3908 70.7992 44.993V44.7941C69.3405 44.0647 69.1416 41.6115 67.484 41.3463Z" fill="url(#paint5_radial_80_101446)"/>
<path d="M52.8967 42.0093L53.1619 41.3463C52.8304 41.5452 52.6315 41.7441 52.8967 42.0093Z" fill="black"/>
<path d="M66.4894 41.6112L66.5578 41.6796L66.4894 41.6112Z" fill="#0D0B05"/>
<path d="M40.6301 42.1422L41.6247 43.2031L42.0888 42.1422L41.6247 42.8716L40.6301 42.1422ZM49.8466 42.1422L49.7803 43.5346L48.852 43.0042C48.7857 43.6009 49.714 44.264 50.2444 44.5292L50.0455 42.1422H49.8466Z" fill="black"/>
<path d="M69.0751 42.8717L69.1435 42.9401L69.0751 42.8717Z" fill="#0E0D08"/>
<path d="M55.2175 42.9383L55.2838 43.0709L55.2175 42.9383Z" fill="#0F0E07"/>
<path d="M25.1813 43.6678C24.9161 45.0602 23.9215 46.2537 23.0595 47.3145C22.6617 47.845 21.9987 48.3091 21.7997 48.9722C23.3248 48.508 24.9824 46.983 26.64 47.1819C26.2422 46.3863 24.253 47.5135 23.5237 47.6461C24.1204 46.7841 24.9161 45.9884 25.3139 44.9939C25.5128 44.5297 25.5791 43.9993 25.1813 43.6678Z" fill="black"/>
<path d="M63.837 44.0657L63.9054 44.1341L63.837 44.0657Z" fill="#010101"/>
<path d="M69.8046 44.0657L69.873 44.1341L69.8046 44.0657Z" fill="#0F0E08"/>
<path d="M45.4705 45.8564C45.0727 45.4586 44.6749 44.9281 44.0781 45.0607L45.8021 47.1825L46.2662 44.5303C45.6031 44.5966 45.6032 45.326 45.4705 45.8564Z" fill="black"/>
<path d="M68.7437 44.4626L68.812 44.531L68.7437 44.4626Z" fill="#0F0E07"/>
<path d="M36.9171 45.3913L36.8508 44.9272H36.5856L36.6519 46.1207C37.1823 46.0544 37.7128 45.0598 37.8454 44.5956L36.9171 45.3913Z" fill="black"/>
<path d="M63.7045 44.5956L63.7729 44.664L63.7045 44.5956Z" fill="#010101"/>
<path d="M70.7991 44.7941L70.8675 44.8625L70.7991 44.7941Z" fill="#0D0B05"/>
<path d="M66.5558 44.8606L66.6242 44.9289L66.5558 44.8606Z" fill="#0E0B05"/>
<path d="M64.3677 45.0602L64.434 45.1265L64.3677 45.0602ZM67.2188 45.0602L67.2851 45.1265L67.2188 45.0602Z" fill="#0D0B05"/>
<path d="M64.3013 45.3251L64.3696 45.3935L64.3013 45.3251Z" fill="#0D0B05"/>
<path d="M69.2079 45.3251L69.2763 45.3935L69.2079 45.3251Z" fill="#0F0D06"/>
<path d="M63.3729 45.5235L63.4413 45.5919L63.3729 45.5235Z" fill="#0E0D08"/>
<path d="M64.6328 45.9216L64.7011 45.9899L64.6328 45.9216Z" fill="#0D0B05"/>
<path d="M40.2988 46.0546L39.8347 47.2481H39.7684L39.039 46.2535L39.7021 48.3753H39.7684C39.9673 47.7123 40.8292 46.5851 40.2988 46.0546Z" fill="black"/>
<path d="M30.6182 46.3195L30.7508 46.3858L30.6182 46.3195Z" fill="#0F0E07"/>
<path d="M50.112 46.6511L50.6424 49.7011C50.0457 49.1707 48.2554 46.85 47.5261 47.7119C49.1837 48.2424 49.913 50.2315 51.3718 51.0935L50.9076 49.3696L50.3772 46.6511H50.112Z" fill="black"/>
<path d="M64.0362 46.6511L64.1046 46.7194L64.0362 46.6511Z" fill="#0E0B05"/>
<path d="M63.9036 46.7841L63.9719 46.8525L63.9036 46.7841Z" fill="#0D0B05"/>
<path d="M54.886 47.3137C54.4219 48.4409 55.5491 49.6344 55.9469 50.6953C54.7534 50.0986 53.6925 49.104 52.3001 49.0377V49.3692C54.3556 49.5681 55.4164 51.6236 57.0078 52.5519C57.0078 50.8279 55.5491 48.9051 55.0186 47.2474L54.886 47.3137Z" fill="black"/>
<path d="M63.3069 47.3805L63.3753 47.4488L63.3069 47.3805Z" fill="#0E0B05"/>
<path d="M63.1741 47.5136L63.2424 47.582L63.1741 47.5136Z" fill="#0D0B05"/>
<path d="M63.1077 47.5789L63.176 47.6473L63.1077 47.5789Z" fill="#0E0B05"/>
<path d="M36.4531 48.7064L35.79 48.7727C35.989 49.3032 36.3868 49.701 36.5857 50.2314C36.7846 50.8282 36.652 51.6239 37.2488 51.9554C37.514 51.2923 38.2433 50.2977 38.0444 49.5684C37.514 49.8336 37.3151 50.3641 37.2488 50.9608H37.1825L36.4531 48.7064Z" fill="black"/>
<path d="M28.0323 48.773C28.0323 50.5632 27.7671 52.2208 27.3029 53.9448C27.966 53.9448 28.2975 53.2817 28.629 52.8839C29.2921 51.9556 29.9551 50.961 31.0823 50.4969V50.4306C30.0214 50.298 28.629 51.8893 28.2975 52.8176H28.0986C28.4301 51.5578 28.6953 50.0328 28.1649 48.8393H28.0323V48.773Z" fill="black"/>
<path d="M43.4816 50.7623L41.3598 49.3036C41.4924 49.7014 41.7576 49.7677 42.0229 50.033C42.5533 50.5634 43.0174 51.6906 43.8131 51.8232L44.012 48.8395C43.2827 49.171 43.4816 50.0993 43.4816 50.7623Z" fill="black"/>
<path d="M48.6534 50.5634C47.9903 51.6906 48.9186 54.0113 49.1175 55.2711H49.0512C48.5208 54.2102 47.5925 53.3482 46.7968 52.4862C46.6642 52.3536 46.1338 51.558 45.9349 51.8895C45.736 52.221 46.7968 53.0167 46.9958 53.2819C47.7251 54.1439 48.3882 55.1384 48.9186 56.0667C49.2501 56.6635 49.5154 57.3928 50.1121 57.7244C49.648 55.4037 48.9186 52.9504 48.9186 50.5634H48.6534Z" fill="black"/>
<path d="M18.3518 51.4913L17.3572 54.3424L19.4789 52.8837C19.4126 52.1544 19.0811 51.6902 18.3518 51.4913Z" fill="url(#paint6_radial_80_101446)"/>
<path d="M33.4692 52.2207C33.8671 53.4805 34.2649 54.5414 34.5301 55.8012C34.6627 56.398 34.5964 57.1936 35.0606 57.5915C35.591 56.5969 35.7236 55.4697 36.254 54.4751C36.5193 53.8784 36.9834 53.4142 36.8508 52.7512C35.9888 53.149 35.4584 55.1382 35.1932 56.0001C34.6627 54.9393 34.7953 52.8175 33.4692 52.2207Z" fill="black"/>
<path d="M39.6357 53.1487C40.6966 55.2042 41.4259 57.127 42.0227 59.3151C42.6857 58.9836 42.5531 58.3205 42.5531 57.6575C42.5531 56.1324 43.0835 54.6737 43.0172 53.215C42.6194 53.3476 42.4868 53.8117 42.4205 54.2096C42.2216 55.2042 42.2216 56.1987 42.0227 57.1933C41.4922 56.0661 41.1607 53.3476 39.6357 53.1487Z" fill="black"/>
<path d="M58.7979 53.8782L58.1348 54.9391L60.124 55.8674L58.7979 53.8782Z" fill="url(#paint7_radial_80_101446)"/>
<path d="M26.0432 57.9224L25.8442 60.7072C26.6399 59.9116 27.966 58.1213 26.0432 57.9224Z" fill="url(#paint8_radial_80_101446)"/>
<path d="M49.9795 60.7078C50.311 61.4372 51.1067 62.2328 51.7697 62.697L50.9741 60.1774L49.9795 60.7078Z" fill="url(#paint9_radial_80_101446)"/>
<path d="M34.5304 64.5531L35.3923 61.6357L34.3314 61.4367L34.2651 62.2324L34.5304 64.5531Z" fill="url(#paint10_radial_80_101446)"/>
<path d="M42.089 62.2332L43.0836 65.1506C43.2825 64.6202 44.0118 62.631 43.4814 62.2332C43.1499 61.8354 42.4868 62.1006 42.089 62.2332Z" fill="url(#paint11_radial_80_101446)"/>
<path d="M51.7695 62.6973L51.9684 62.8963L51.7695 62.6973Z" fill="#0D0B05"/>
<path d="M61.9805 40.7495C61.6489 40.6832 61.3174 40.418 61.3174 40.1527C61.3174 39.8875 61.5163 39.6223 62.1794 38.8266C62.7098 38.1636 62.6435 38.1636 61.6489 38.9593C60.5217 39.8212 59.7261 40.1527 58.6652 40.1527C58.1348 40.1527 57.7369 40.1527 57.7369 40.1527C57.7369 40.0864 57.8695 39.9538 58.0685 39.8212C58.2674 39.6886 58.8641 38.8929 59.4609 38.1636C60.5218 36.7712 61.0522 36.3071 61.7152 36.1081C62.7761 35.7766 64.1685 36.6386 64.5001 37.7658C64.7653 38.8266 63.837 40.5506 62.8424 40.8158C62.6435 40.8821 62.4446 40.9484 62.3783 40.8821C62.2457 40.8158 62.1131 40.7495 61.9805 40.7495Z" fill="#FEF666"/>
<path d="M60.5217 46.8502C60.1902 46.7838 59.7261 46.386 59.3945 45.9219C58.9967 45.3914 58.7315 44.6621 58.2673 42.8718C58.0684 42.0762 57.8695 41.4131 57.8695 41.2805C57.7369 40.8164 58.7978 40.5512 60.0576 40.7501C61.0522 40.949 61.45 41.2805 61.6489 42.2088C61.7152 42.5403 61.7815 42.8718 61.7815 42.9381C61.7815 43.0045 61.8478 42.7392 61.9804 42.3414C62.0467 41.8773 62.1793 41.4794 62.3783 41.3468L62.5772 41.0816L62.975 41.3468C63.5718 41.7447 63.9033 42.5403 63.9033 43.6012C63.9033 44.9936 63.3065 46.1208 62.312 46.5849C61.8478 46.7838 60.9195 46.9165 60.5217 46.8502Z" fill="#FEF67A"/>
</g>
<defs>
<radialGradient id="paint0_radial_80_101446" cx="0" cy="0" r="1" gradientUnits="userSpaceOnUse" gradientTransform="translate(38.5714 36.0004) rotate(0.126177) scale(28.2858 29.63)">
<stop stop-color="#FFF68E"/>
<stop offset="0.731" stop-color="#EED26A"/>
<stop offset="1" stop-color="#D6AA4A"/>
</radialGradient>
<radialGradient id="paint1_radial_80_101446" cx="0" cy="0" r="1" gradientUnits="userSpaceOnUse" gradientTransform="translate(55.4927 27.6344) scale(1.10696 0.691961)">
<stop stop-color="#FFF68E"/>
<stop offset="0.5" stop-color="#FAEA82"/>
<stop offset="1" stop-color="#D6AA4A"/>
</radialGradient>
<radialGradient id="paint2_radial_80_101446" cx="0" cy="0" r="1" gradientUnits="userSpaceOnUse" gradientTransform="translate(62.8545 28.6901) scale(0.374308 0.420994)">
<stop stop-color="#FFF68E"/>
<stop offset="0.5" stop-color="#FAEA82"/>
<stop offset="1" stop-color="#D6AA4A"/>
</radialGradient>
<radialGradient id="paint3_radial_80_101446" cx="0" cy="0" r="1" gradientUnits="userSpaceOnUse" gradientTransform="translate(61.0804 38.3727) scale(1.15268 0.824151)">
<stop stop-color="#FFF68E"/>
<stop offset="0.5" stop-color="#FAEA82"/>
<stop offset="1" stop-color="#D6AA4A"/>
</radialGradient>
<radialGradient id="paint4_radial_80_101446" cx="0" cy="0" r="1" gradientUnits="userSpaceOnUse" gradientTransform="translate(60.7713 43.8138) scale(1.03964 1.04459)">
<stop stop-color="#FFF68E"/>
<stop offset="0.5" stop-color="#FAEA82"/>
<stop offset="1" stop-color="#D6AA4A"/>
</radialGradient>
<radialGradient id="paint5_radial_80_101446" cx="0" cy="0" r="1" gradientUnits="userSpaceOnUse" gradientTransform="translate(60.5292 47.8085) scale(10.1801 10.3698)">
<stop stop-color="#FFF68E"/>
<stop offset="0.5" stop-color="#FAEA82"/>
<stop offset="1" stop-color="#D6AA4A"/>
</radialGradient>
<radialGradient id="paint6_radial_80_101446" cx="0" cy="0" r="1" gradientUnits="userSpaceOnUse" gradientTransform="translate(18.4904 52.9066) scale(0.358601 0.483331)">
<stop stop-color="#FFF68E"/>
<stop offset="0.5" stop-color="#FAEA82"/>
<stop offset="1" stop-color="#D6AA4A"/>
</radialGradient>
<radialGradient id="paint7_radial_80_101446" cx="0" cy="0" r="1" gradientUnits="userSpaceOnUse" gradientTransform="translate(59.2749 54.9404) scale(0.343038)">
<stop stop-color="#FFF68E"/>
<stop offset="0.5" stop-color="#FAEA82"/>
<stop offset="1" stop-color="#D6AA4A"/>
</radialGradient>
<radialGradient id="paint8_radial_80_101446" cx="0" cy="0" r="1" gradientUnits="userSpaceOnUse" gradientTransform="translate(26.5441 59.353) scale(0.204427 0.483296)">
<stop stop-color="#FFF68E"/>
<stop offset="0.5" stop-color="#FAEA82"/>
<stop offset="1" stop-color="#D6AA4A"/>
</radialGradient>
<radialGradient id="paint9_radial_80_101446" cx="0" cy="0" r="1" gradientUnits="userSpaceOnUse" gradientTransform="translate(50.6594 61.3251) scale(0.311769 0.436517)">
<stop stop-color="#FFF68E"/>
<stop offset="0.5" stop-color="#FAEA82"/>
<stop offset="1" stop-color="#D6AA4A"/>
</radialGradient>
<radialGradient id="paint10_radial_80_101446" cx="0" cy="0" r="1" gradientUnits="userSpaceOnUse" gradientTransform="translate(34.4981 63.0681) scale(0.187025 0.529043)">
<stop stop-color="#FFF68E"/>
<stop offset="0.5" stop-color="#FAEA82"/>
<stop offset="1" stop-color="#D6AA4A"/>
</radialGradient>
<radialGradient id="paint11_radial_80_101446" cx="0" cy="0" r="1" gradientUnits="userSpaceOnUse" gradientTransform="translate(42.911 63.5299) scale(0.274024 0.532329)">
<stop stop-color="#FFF68E"/>
<stop offset="0.5" stop-color="#FAEA82"/>
<stop offset="1" stop-color="#D6AA4A"/>
</radialGradient>
<clipPath id="clip0_80_101446">
<rect width="72" height="62.3774" fill="white" transform="translate(0 5.14285)"/>
</clipPath>
</defs>
</svg>
