<svg width="72" height="72" viewBox="0 0 72 72" fill="none" xmlns="http://www.w3.org/2000/svg">
<circle opacity="0.16" cx="36" cy="36" r="28" fill="#1062FE"/>
<g clip-path="url(#clip0_5181_3843)">
<path d="M36.35 27.15C36.26 27.05 36.13 27 36 27C35.87 27 35.74 27.05 35.65 27.15L31.15 31.65C31.05 31.74 31 31.87 31 32L31 32.5C31 32.78 31.22 33 31.5 33L34 33L34 40.5C34 40.78 34.22 41 34.5 41L37.5 41C37.78 41 38 40.78 38 40.5L38 33L40.5 33C40.78 33 41 32.78 41 32.5L41 32C41 31.87 40.95 31.74 40.85 31.65L36.35 27.15Z" fill="#1062FE"/>
<path d="M44.5 43H27.5C27.22 43 27 43.22 27 43.5V44.5C27 44.78 27.22 45 27.5 45H44.5C44.78 45 45 44.78 45 44.5V43.5C45 43.22 44.78 43 44.5 43Z" fill="#1062FE"/>
</g>
<defs>
<clipPath id="clip0_5181_3843">
<rect width="18" height="18" fill="white" transform="translate(27 27)"/>
</clipPath>
</defs>
</svg>
