<?xml version="1.0" encoding="utf-8"?>
<!-- Generator: Adobe Illustrator 23.0.3, SVG Export Plug-In . SVG Version: 6.00 Build 0)  -->
<svg version="1.1" id="Layer_1" xmlns="http://www.w3.org/2000/svg" xmlns:xlink="http://www.w3.org/1999/xlink" x="0px" y="0px"
	 viewBox="0 0 150.5 150.5" style="enable-background:new 0 0 150.5 150.5;" xml:space="preserve">
<style type="text/css">
	.st0{fill:#932279;}
	.st1{fill:#EFA724;}
	.st2{fill:#262577;}
	.st3{fill:#9CCD2A;}
	.st4{fill:#FFFFFF;}
</style>
<path class="st0" d="M64.2,70.1l5.2,5.2l-5.2,5.2H27.4v17.3L4.9,75.3l22.5-22.2v17H64.2z"/>
<path class="st1" d="M80.9,64l-5.2,5.2L70.5,64V27.2H53.2L75.7,4.7l22.2,22.5h-17V64z"/>
<path class="st2" d="M87,80.7l-5.2-5.2l5.2-5.2h36.8V53l22.5,22.5l-22.5,22.2v-17H87z"/>
<path class="st3" d="M70.4,86.8l5.2-5.2l5.2,5.2v36.8h17.3l-22.5,22.5l-22.2-22.5h17L70.4,86.8L70.4,86.8z M26.1,25.9h44.8v44.8
	H26.1V25.9z"/>
<path class="st4" d="M24.5,24.3h48v48h-48L24.5,24.3L24.5,24.3z M27.7,69h41.6V27.5H27.7V69L27.7,69z"/>
<path class="st0" d="M80.4,25.9h44.8v44.8H80.4V25.9z"/>
<path class="st4" d="M78.8,24.3h48v48h-48V24.3L78.8,24.3z M82,69h41.6V27.5H82V69L82,69z"/>
<path class="st1" d="M80.4,80.2h44.8V125H80.4V80.2z"/>
<path class="st4" d="M78.8,78.6h48v48h-48V78.6z M82,123.4h41.6V81.8H82V123.4z"/>
<path class="st2" d="M26.1,80.2h44.8V125H26.1V80.2z"/>
<path class="st4" d="M24.5,78.6h48v48h-48L24.5,78.6L24.5,78.6z M27.7,123.4h41.6V81.8H27.7V123.4z"/>
<path class="st4" d="M37.2,109.3L3.3,75.4l33.9-33.9l33.9,33.9L37.2,109.3L37.2,109.3z M7.8,75.4l29.4,29.4l29.4-29.4L37.2,46
	L7.8,75.4L7.8,75.4z M75.6,70.9L41.7,37L75.6,3.1L109.6,37L75.6,70.9L75.6,70.9z M46.3,37l29.4,29.4L105,37L75.6,7.6L46.3,37
	L46.3,37z M114.1,109.3L80.2,75.4l33.9-33.9L148,75.4L114.1,109.3L114.1,109.3z M84.7,75.4l29.4,29.4l29.4-29.4L114.1,46L84.7,75.4
	L84.7,75.4z M75.6,147.8l-33.9-33.9l33.9-33.9l33.9,33.9L75.6,147.8L75.6,147.8z M46.3,113.9l29.4,29.4l29.4-29.4L75.6,84.5
	L46.3,113.9z"/>
</svg>
