<?xml version="1.0" encoding="utf-8"?>
<!-- Generator: Adobe Illustrator 23.0.3, SVG Export Plug-In . SVG Version: 6.00 Build 0)  -->
<svg version="1.1" id="Layer_1" xmlns="http://www.w3.org/2000/svg" xmlns:xlink="http://www.w3.org/1999/xlink" x="0px" y="0px"
	 viewBox="0 0 150.5 150.5" style="enable-background:new 0 0 150.5 150.5;" xml:space="preserve">
<style type="text/css">
	.st0{fill:#D70751;stroke:#FFFFFF;stroke-miterlimit:10;}
</style>
<path class="st0" d="M89.3,80.9c0.9-0.7,1.7-1.4,2.4-2c-2,0.5-4,0.5-6,0.3C83.2,79.2,86.1,80.4,89.3,80.9L89.3,80.9z M89.3,80.9"/>
<path class="st0" d="M98.7,75.9c1.4-2,2.5-4.2,2.9-6.4c-0.3,1.6-1.2,3-2,4.5c-4.5,2.9-0.4-1.7,0-3.4C94.6,76.7,98.9,74.2,98.7,75.9
	L98.7,75.9z M98.7,75.9"/>
<path class="st0" d="M103.5,63.4c0.3-4.4-0.9-3-1.2-1.3C102.7,62.3,103,65.2,103.5,63.4L103.5,63.4z M103.5,63.4"/>
<path class="st0" d="M76.4,3.7c1.3,0.2,2.8,0.4,2.6,0.7C80.4,4.1,80.8,3.8,76.4,3.7L76.4,3.7z M76.4,3.7"/>
<path class="st0" d="M79,4.5L79,4.4l-0.9,0.2L79,4.5z M79,4.5"/>
<path class="st0" d="M75.7,94.8c-3.5-1.6-6.7-4.1-9.3-7.1c1.4,2,2.9,4,4.8,5.6c-3.3-1.1-7.7-8-9-8.3c5.7,10.2,23,17.8,32.1,14
	c-4.2,0.2-9.5,0.1-14.3-1.7c-1.8-0.9-4.2-2.8-4.2-3.4C75.7,94.2,75.6,94.5,75.7,94.8L75.7,94.8z M75.7,94.8"/>
<path class="st0" d="M127.1,36.3c3.2,4.7,5.1,12,5.9,15c-0.6-3.7-1.7-7.2-3-10.7c1,0.4-1.6-7.6,1.3-2.3
	c-3.1-11.3-13.1-21.8-22.4-26.8c1.1,1,2.6,2.3,2,2.5c-4.6-2.7-3.8-3-4.4-4.1c-3.8-1.5-4,0.1-6.5,0C93,6.2,91.6,6.6,85.1,4.3l0.3,1.4
	c-4.7-1.6-5.5,0.6-10.5,0c-0.3-0.2,1.6-0.9,3.2-1.1c-4.5,0.6-4.3-0.9-8.7,0.2c1.1-0.8,2.2-1.3,3.4-1.9C69.1,3,64,5,65.6,3.2
	c-6,2.7-16.7,6.5-22.7,12.1L42.7,14c-2.7,3.3-12,9.9-12.7,14.1l-0.7,0.2c-1.4,2.4-2.4,5.2-3.5,7.7c-1.9,3.2-2.7,1.2-2.5,1.7
	c-3.7,7.5-5.5,13.7-7.1,18.9c1.1,1.7,0,10.1,0.5,16.9c-1.8,33.4,23.4,65.8,51,73.2c4,1.5,10.1,1.4,15.2,1.5c-6-1.7-6.8-0.9-12.7-3
	c-4.2-2-5.2-4.3-8.2-6.9l1.2,2.1c-5.9-2.1-3.4-2.6-8.2-4.1l1.3-1.7c-1.9-0.1-5.1-3.2-5.9-4.9l-2.1,0.1c-2.5-3.1-3.8-5.3-3.8-7.1
	l-0.7,1.2c-0.8-1.3-9.2-11.6-4.8-9.2c-0.8-0.7-1.9-1.2-3.1-3.4l0.9-1c-2.1-2.7-3.9-6.2-3.8-7.4c1.1,1.5,1.9,1.8,2.7,2.1
	c-5.3-13.3-5.6-0.7-9.7-13.5l0.9-0.1c-0.7-1-1.1-2.1-1.6-3.1l0.4-3.7c-3.8-4.4-1.1-18.9-0.5-26.9c0.4-3.2,3.2-6.7,5.4-12l-1.3-0.2
	c2.5-4.4,14.3-17.5,19.8-16.9c2.6-3.3-0.5,0-1-0.8c5.8-6,7.6-4.2,11.6-5.3c4.2-2.5-3.6,1-1.6-1c7.3-1.9,5.2-4.2,14.7-5.2
	c1,0.6-2.3,0.9-3.2,1.6c6.1-3,19.3-2.3,27.9,1.7c9.9,4.6,21.1,18.4,21.5,31.3l0.5,0.1c-0.3,5.1,0.8,11.1-1,16.5l1.2-2.6
	c0.1,3.9-1.1,5.8-2.3,9.2l-2.1,1c-1.7,3.3,0.2,2.1-1.1,4.8c-2.7,2.4-8.1,7.5-9.9,7.9c-1.3,0,0.9-1.5,1.1-2.1
	c-3.6,2.5-2.9,3.7-8.4,5.2l-0.2-0.4c-13.5,6.4-32.3-6.2-32.1-23.5c-0.1,1.1-0.4,0.8-0.7,1.3c-0.7-8.9,4.1-17.7,12.2-21.4
	c7.9-3.9,17.2-2.3,22.8,3c-3.1-4.1-9.3-8.4-16.6-8c-7.2,0.1-13.9,4.7-16.1,9.6c-3.7,2.3-4.1,8.9-5.7,10.1
	C58.3,77.8,64.5,84.6,75,92.7c0.8,0.6,0.9,0.9,0.9,1.2c0,0,0,0,0,0c12.4,4.6,25.2,3.5,35.9-5.1c2.7-2.1,5.7-5.7,6.6-5.8
	c-1.3,2,0.2,0.9-0.8,2.7c2.7-4.4-1.2-1.8,2.8-7.6l1.5,2c-0.6-3.6,4.5-8.1,4-13.8c1.2-1.8,1.3,1.9,0.1,5.9c1.7-4.5,0.5-5.2,0.9-8.9
	c0.5,1.2,1.1,2.6,1.4,3.9c-1.1-4.3,1.1-7.3,1.7-9.8c-0.6-0.2-1.7,1.9-2-3.2c0-2.2,0.6-1.2,0.8-1.7c-0.4-0.3-1.6-2-2.3-5.2
	c0.5-0.8,1.4,2,2,2.1c-0.4-2.6-1.2-4.6-1.2-6.6c-2-4.2-0.7,0.6-2.3-1.8C122.9,34.2,126.8,39.3,127.1,36.3L127.1,36.3z M127.1,36.3"
	/>
<path class="st0" d="M75.8,94c0,0,0-0.1,0-0.1C75.8,93.9,75.8,93.9,75.8,94L75.8,94z M75.8,94"/>
<path class="st0" d="M58.8,84.2c1.6,2.2,2.9,4.5,4.9,6.2c-1.5-2.9-2.6-4-4.6-7.9L58.8,84.2z M58.8,84.2"/>
<path class="st0" d="M62.9,82.3c-0.8-0.9-1.3-2.1-1.9-3.2c0.5,2,1.6,3.7,2.6,5.4L62.9,82.3z M62.9,82.3"/>
<path class="st0" d="M125.1,82.2c2.4-4.5,3.9-9.4,4.6-14.4l-0.4,0.9C128.6,73.4,127.2,78,125.1,82.2L125.1,82.2z M125.1,82.2"/>
<path class="st0" d="M82.7,1.8c-2.3,0.2-4.5,0.3-6.8,0.6l1,0.1C78.6,1.9,81,2.2,82.7,1.8L82.7,1.8z M82.7,1.8"/>
<path class="st0" d="M20,35.7c1.8-4-0.7-1.1-0.7-2.6C19.7,36.6,16.7,38,20,35.7L20,35.7z M20,35.7"/>
<path class="st0" d="M16.6,44.2c-2.1,2.7-1,3.3-1.2,5.1C16.2,47,16.3,45.6,16.6,44.2L16.6,44.2z M16.6,44.2"/>
</svg>
