<?xml version="1.0" encoding="utf-8"?>
<!-- Generator: Adobe Illustrator 23.0.3, SVG Export Plug-In . SVG Version: 6.00 Build 0)  -->
<svg version="1.1" id="Layer_1" xmlns="http://www.w3.org/2000/svg" xmlns:xlink="http://www.w3.org/1999/xlink" x="0px" y="0px"
	 viewBox="0 0 150.5 150.5" style="enable-background:new 0 0 150.5 150.5;" xml:space="preserve">
<style type="text/css">
	.st0{fill:#294172;}
	.st1{fill:#3C6EB4;}
	.st2{fill:#FFFFFF;}
</style>
<path class="st0" d="M150,75.5C150,34.3,116.6,1,75.5,1C34.4,1,1,34.3,1,75.4v57.7c0,9.3,7.6,16.9,16.9,16.9h57.6
	C116.7,150,150,116.6,150,75.5"/>
<path class="st1" d="M97.4,18.6c-19.3,0-34.9,15.7-34.9,34.9v18.5H44C24.7,72.1,9,87.8,9,107.1C9,126.3,24.7,142,44,142
	s34.9-15.7,34.9-34.9V88.5h18.5c19.3,0,34.9-15.7,34.9-34.9C132.3,34.3,116.6,18.6,97.4,18.6L97.4,18.6z M62.6,107.1
	c0,10.3-8.3,18.6-18.6,18.6s-18.6-8.3-18.6-18.6c0-10.3,8.3-18.6,18.6-18.6h18.5v0.1h0.1V107.1L62.6,107.1z M97.4,72.2H78.9v-0.1
	h-0.1V53.6c0-10.3,8.3-18.6,18.6-18.6S116,43.3,116,53.6S107.6,72.2,97.4,72.2L97.4,72.2z"/>
<path class="st2" d="M105.1,19.7c-2.7-0.7-4.8-1-7.7-1c-19.3,0-35,15.7-35,35v18.5H47.8c-4.6,0-8.3,3.6-8.3,8.1
	c0,4.5,3.6,8.1,8.2,8.1l12.1,0c1.4,0,2.6,1.2,2.6,2.6v16c0,10.2-8.3,18.4-18.5,18.4c-3.4,0-4.3-0.5-6.7-0.5c-4.9,0-8.3,3.3-8.3,7.9
	c0,3.8,3.2,7,7.2,8c2.7,0.7,4.8,1,7.7,1c19.3,0,35-15.7,35-35V88.5h14.6c4.6,0,8.3-3.6,8.3-8.1c0-4.5-3.6-8.1-8.2-8.1l-12.1,0
	c-1.4,0-2.6-1.2-2.6-2.6v-16c0-10.2,8.3-18.4,18.5-18.4c3.4,0,4.3,0.5,6.7,0.5c4.9,0,8.3-3.3,8.3-7.9
	C112.3,23.9,109.1,20.7,105.1,19.7"/>
</svg>
