<?xml version="1.0" encoding="utf-8"?>
<!-- Generator: Adobe Illustrator 23.0.3, SVG Export Plug-In . SVG Version: 6.00 Build 0)  -->
<svg version="1.1" id="Layer_1" xmlns="http://www.w3.org/2000/svg" xmlns:xlink="http://www.w3.org/1999/xlink" x="0px" y="0px"
	 viewBox="0 0 150.5 150.5" style="enable-background:new 0 0 150.5 150.5;" xml:space="preserve">
<style type="text/css">
	.st0{fill:#ECEFF1;}
	.st1{fill:#263238;}
	.st2{fill:#212121;}
	.st3{fill:#FFC107;}
	.st4{fill:#634703;}
	.st5{fill:#455A64;}
</style>
<polygon class="st0" points="57.4,42.5 57.9,52 51.3,64.4 40.9,84.6 38.9,101.6 46.3,125.5 63.2,135 88.8,135 112.8,116.9 
	123.5,88.3 98.8,58.2 91.7,41.3 "/>
<path class="st1" d="M116.1,66c-6.6-9.5-12-15.3-14.9-27.3s0.8-8.7-1.7-19c-1.2-5.4-3.3-9.1-5.4-12c-2.5-2.9-5.4-4.5-7-5
	c-3.7-2.1-12.4-5.4-23.1,0.4C52.9,9,54.1,21.4,56.2,46.6c0,1.7-0.4,3.7-1.2,5.4c-1.7,3.7-4.5,7-7,9.9c-2.9,4.1-5.8,8.3-7.8,12.8
	c-5,9.5-9.5,21.5-8.3,26c2.1-0.4,28.1,39.2,28.1,40.1c1.7-0.4,8.7-0.4,14.9-0.4c8.7-0.4,13.6-0.8,20.7,0.8c0-1.2-0.4-2.5-0.4-3.7
	c0-2.5,0.4-4.5,0.8-7.4c0.4-2.1,0.8-4.1,1.2-6.6c-4.1,3.7-11.6,7.8-18.6,9.1c-6.2,1.2-16.5-0.8-21.5-7c0.4,0,1.2,0,1.7-0.4
	c1.2-0.4,2.5-0.8,2.9-1.7c1.2-2.1,0.4-4.1-0.4-5.4c-0.8-1.2-7-5.8-9.9-8.3c-2.9-2.5-4.5-3.7-6.2-5.4c0,0-2.5-2.5-3.3-3.3
	c-0.8-0.8-1.2-1.7-1.7-2.1c-0.8-2.1-1.2-4.5-0.8-7.8c0.4-4.5,2.1-8.3,4.1-12.4c0.8-1.7,2.9-5,2.9-5s-7,17.4-3.3,22.7
	c0,0,0.4-5.4,2.1-10.7c1.2-3.7,3.3-9.1,5.8-12c2.5-2.9,8.7-13.6,9.1-20.2c0-2.9,0.4-5.8,0.4-7.8c-1.7-1.7,27.3-5.8,28.9-1.2
	c0.4,1.7,6.2,16.5,9.5,24.4c1.7,3.7,3.7,7,5,11.2c1.2,4.5,2.1,10.7,2.1,16.9c0,1.2,0,3.3-0.4,5.4c0.8,0,16.9-17.4-2.1-31.8
	c0,0,11.6,5.4,12,16.1c0.4,8.7-3.3,15.7-4.1,16.9c0.4,0,8.7,3.7,9.1,3.7c1.7,0,5-1.2,5-1.2c0.4-1.2,1.7-4.5,1.7-5.8
	C129.7,90.8,122.7,75.5,116.1,66z"/>
<g>
	<ellipse class="st0" cx="63.6" cy="30.5" rx="5.4" ry="8.3"/>
	<ellipse class="st0" cx="82.2" cy="30.1" rx="7" ry="9.5"/>
</g>
<g>
	<ellipse transform="matrix(0.9921 -0.1254 0.1254 0.9921 -3.4388 8.2457)" class="st2" cx="63.8" cy="31.4" rx="2.9" ry="5"/>
	<ellipse class="st2" cx="81.8" cy="31.7" rx="4.1" ry="5.4"/>
</g>
<g>
	<path class="st3" d="M136.8,122.6c-1.7-0.8-4.5-2.1-7-5.8c-1.2-2.1-0.8-7.8-2.9-10.3c-1.2-1.7-2.9-0.8-3.3-0.8
		c-3.7,0.8-12.4,6.6-18.2,0c-0.8-0.8-2.1-2.1-4.1-2.1s-2.9,0.8-3.7,2.5c-0.8,1.7-0.8,2.9-0.8,7c0,3.3,0,7-0.4,9.9
		c-0.8,7-2.1,11.2-2.1,15.3c0,4.5,1.2,7.4,2.9,8.7c1.2,1.2,3.3,2.1,7.8,2.1s7.4-1.7,10.3-4.5c2.1-2.1,3.7-2.9,9.5-7
		c4.5-2.9,11.6-6.6,12.8-7.8c0.8-0.8,2.1-1.2,2.1-3.7C139.7,123.9,138,123,136.8,122.6z"/>
	<path class="st3" d="M53.7,123.9c-4.1-6.6-4.5-7.8-7.4-12c-2.5-4.1-7.8-12-11.2-12c-2.5,0-3.7,1.2-5.4,2.9
		c-1.7,1.7-3.3,5.4-6.2,7.4c-2.5,2.1-9.5,1.7-11.2,4.1c-1.7,2.5,1.7,6.2,1.7,12.4c0,2.5-2.1,4.1-2.5,5.8c-0.4,2.1-0.8,3.3,0,5
		c1.7,2.5,3.7,3.3,17.8,6.2c7.4,1.7,14.5,5.8,19,6.2s12.4,0,12.4-11.2C61.2,132.1,57.4,130.5,53.7,123.9z"/>
	<path class="st3" d="M61.6,49.1c-2.5-1.7-4.5-3.3-4.5-5.8s1.7-3.3,4.1-5.4c0.4-0.4,5-4.5,9.5-4.5c4.5,0,9.9,2.9,12,3.7
		c3.7,0.8,7.4,1.7,7,4.5c-0.4,4.1-0.8,5-5,7c-2.9,0.8-8.3,5.4-12,5.4c-1.7,0-4.1,0-5.8-0.4C65.7,53.2,63.6,51.2,61.6,49.1z"/>
</g>
<g>
	<path class="st4" d="M60.8,45.8c0.8,0.8,2.1,1.7,3.3,2.1c0.8,0.4,2.1,0.8,2.1,0.8c1.7,0,2.9,0,3.7,0c2.1,0,5-0.8,7.8-2.5
		c2.9-1.2,3.3-2.1,5.4-2.9c2.1-1.2,4.1-2.5,3.3-2.9c-0.8-0.4-1.7,0-4.5,1.7c-2.5,1.7-4.5,2.5-7,3.7c-1.2,0.4-2.9,1.2-4.1,1.2
		c-1.2,0-2.5,0-3.7,0c-1.2,0-2.1-0.4-3.3-0.8c-0.8-0.4-1.2-0.8-1.7-0.8c-0.8-0.4-2.5-2.1-3.3-2.5c0,0-0.8,0-0.4,0.4
		C59.5,44.6,59.9,45,60.8,45.8z"/>
	<path class="st4" d="M73.1,36.7c0.4,0.8,1.2,0.8,1.7,1.2c0.4,0.4,0.8,0.4,0.8,0.4c0.4-0.4,0-1.2-0.4-1.2
		C75.2,36.3,73.1,36.3,73.1,36.7z"/>
	<path class="st4" d="M66.5,37.5c0,0.4,0.8,0.8,0.8,0.4c0.4-0.4,0.8-0.8,1.2-0.8c0.8-0.4,0.4-0.8-0.8-0.8
		C66.9,36.7,66.9,37.1,66.5,37.5z"/>
</g>
<path class="st5" d="M106.6,110.7c0,0.4,0,0.8,0,1.2c0.8,1.7,2.9,2.1,4.5,2.1c2.5,0,5-1.7,6.2-3.3c0-0.4,0.4-0.8,0.8-1.2
	c0.8-1.2,1.2-2.1,1.7-2.5c0,0-0.4-0.4-0.4-0.8c-0.4-0.8-1.7-1.7-3.3-2.1c-1.2-0.4-3.3-0.8-4.1-0.8c-3.7-0.4-5.8,0.8-7,2.1
	c0,0,0.4,0,0.4,0.4c0.8,0.8,1.2,1.7,1.2,2.9C107,109.4,106.6,109.8,106.6,110.7z"/>
</svg>
