<?xml version="1.0" encoding="utf-8"?>
<!-- Generator: Adobe Illustrator 23.0.3, SVG Export Plug-In . SVG Version: 6.00 Build 0)  -->
<svg version="1.1" id="Layer_1" xmlns="http://www.w3.org/2000/svg" xmlns:xlink="http://www.w3.org/1999/xlink" x="0px" y="0px"
	 viewBox="0 0 150.5 150.5" style="enable-background:new 0 0 150.5 150.5;" xml:space="preserve">
<style type="text/css">
	.st0{fill:#FFFFFF;}
	.st1{fill:#E64A19;}
</style>
<g>
	<g>
		<path class="st0" d="M109.3,114.1c0-0.2-0.1-0.4-0.1-0.6c0-0.1-0.1-0.2-0.1-0.4c0-0.2-0.1-0.4-0.1-0.5c0-0.1-0.1-0.3-0.1-0.4
			c-0.1-0.2-0.1-0.3-0.2-0.5c-0.1-0.1-0.1-0.3-0.2-0.4c-0.1-0.1-0.1-0.3-0.2-0.4c-0.1-0.1-0.1-0.3-0.2-0.4c-0.1-0.1-0.1-0.2-0.2-0.3
			c-0.5-0.9-1.2-1.6-1.9-2.3c0,0,0,0-0.1,0c-0.2-0.2-0.4-0.3-0.6-0.5c0,0,0,0,0,0c-1.1-0.8-2.4-1.4-3.8-1.7c0,0,0,0,0,0
			c-0.7-0.2-1.4-0.2-2.1-0.2c-4.6,0-8.5,3.1-9.7,7.3c0,0,0,0,0,0c-0.2,0.6-0.3,1.3-0.4,2c0,0.3,0,0.5,0,0.8c0,5.5,4.5,10,10,10
			c5.5,0,10-4.5,10-10c0-0.3,0-0.6,0-1C109.3,114.3,109.3,114.2,109.3,114.1z"/>
		<path class="st0" d="M89.7,37.8C89.7,37.8,89.7,37.8,89.7,37.8c1.1,4.2,5,7.3,9.6,7.3c0.7,0,1.5-0.1,2.1-0.2c0,0,0,0,0,0
			c1.4-0.3,2.7-0.9,3.8-1.7c0,0,0,0,0,0c0.2-0.2,0.4-0.3,0.6-0.5c0,0,0,0,0.1,0c0.7-0.7,1.4-1.4,1.9-2.3c0.1-0.1,0.1-0.2,0.2-0.3
			c0.1-0.1,0.1-0.3,0.2-0.4c0.1-0.1,0.1-0.3,0.2-0.4c0.1-0.1,0.1-0.3,0.2-0.4c0.1-0.2,0.1-0.3,0.2-0.5c0-0.1,0.1-0.3,0.1-0.4
			c0.1-0.2,0.1-0.4,0.1-0.5c0-0.1,0.1-0.2,0.1-0.4c0-0.2,0.1-0.4,0.1-0.6c0-0.1,0-0.2,0-0.3c0-0.3,0-0.6,0-1c0-5.5-4.5-10-10-10
			c-5.5,0-10,4.5-10,10c0,0.3,0,0.5,0,0.8C89.4,36.5,89.6,37.2,89.7,37.8z"/>
		<path class="st0" d="M104.8,48.1c-1.7,0.7-3.5,1.1-5.4,1.1c-7.3,0-13.3-5.6-14-12.7c-3.2-0.9-6.6-1.3-10.1-1.3
			c-7.9,0-15.3,2.3-21.5,6.3C45.4,46.7,39.1,55,36.5,64.9c2.8,2.6,4.6,6.3,4.6,10.4s-1.8,7.8-4.6,10.4c2.5,9.5,8.5,17.7,16.5,23
			c6.4,4.3,14,6.7,22.2,6.7c3.5,0,6.9-0.5,10.1-1.3c0.7-7.1,6.7-12.7,14-12.7c1.9,0,3.7,0.4,5.4,1.1c6.6-7.1,10.7-16.7,10.7-27.2
			c0,0,0,0,0,0C115.4,64.7,111.4,55.2,104.8,48.1z M75.3,99.3c-4.9,0-9.5-1.5-13.4-4c-6.5-4.3-10.7-11.7-10.7-20
			c0-8.5,4.5-16,11.2-20.3c3.7-2.4,8.2-3.8,12.9-3.8c13.3,0,24.1,10.8,24.1,24.1c0,0,0,0,0,0C99.3,88.5,88.6,99.3,75.3,99.3z"/>
		<path class="st0" d="M35.5,69.8C35.5,69.8,35.5,69.8,35.5,69.8c-1.1-1.7-2.7-3.1-4.7-3.9c0,0,0,0,0,0c-0.3-0.1-0.7-0.2-1-0.3
			c-0.1,0-0.2-0.1-0.3-0.1c-0.3-0.1-0.6-0.1-0.9-0.2c-0.1,0-0.2,0-0.3-0.1c-0.4,0-0.8-0.1-1.2-0.1c-5.5,0-10,4.5-10,10
			c0,5.5,4.5,10,10,10c0.4,0,0.8,0,1.2-0.1c0.1,0,0.2,0,0.3-0.1c0.3,0,0.6-0.1,0.9-0.2c0.1,0,0.2,0,0.3-0.1c0.4-0.1,0.7-0.2,1-0.3
			c0,0,0,0,0,0c1.9-0.8,3.6-2.2,4.7-3.9c0,0,0,0,0,0c1-1.6,1.6-3.4,1.6-5.4C37.1,73.2,36.5,71.4,35.5,69.8z"/>
	</g>
	<path class="st1" d="M75.3,51.1c-4.8,0-9.2,1.4-12.9,3.8c4.3,6.8,8.6,13.5,12.9,20.3c-4.4,6.7-8.9,13.4-13.4,20
		c3.8,2.5,8.4,4,13.4,4c13.3,0,24.1-10.8,24.1-24.1c-8,0-16.1,0-24.1,0c8,0,16.1,0,24.1,0c0,0,0,0,0,0
		C99.4,61.9,88.6,51.1,75.3,51.1z"/>
	<path class="st1" d="M62.3,54.9c-6.7,4.3-11.2,11.8-11.2,20.3c0,8.4,4.3,15.7,10.7,20c4.5-6.7,8.9-13.4,13.4-20
		C71,68.5,66.6,61.7,62.3,54.9z"/>
	<path class="st1" d="M29.5,65.5c0.1,0,0.2,0,0.3,0.1C29.7,65.5,29.6,65.5,29.5,65.5z"/>
	<path class="st1" d="M28.3,65.3c0.1,0,0.2,0,0.3,0.1C28.5,65.3,28.4,65.3,28.3,65.3z"/>
	<path class="st1" d="M41.1,75.2c0-4.1-1.8-7.8-4.6-10.4c-0.4,1.6-0.8,3.3-1,5c1,1.6,1.6,3.4,1.6,5.4c0,2-0.6,3.9-1.6,5.4
		c0.2,1.7,0.6,3.3,1,5C39.4,83,41.1,79.3,41.1,75.2z"/>
	<path class="st1" d="M28.6,85.1c-0.1,0-0.2,0-0.3,0.1C28.4,85.2,28.5,85.2,28.6,85.1z"/>
	<path class="st1" d="M30.8,65.9C30.8,65.9,30.8,65.9,30.8,65.9C30.8,65.9,30.8,65.9,30.8,65.9z"/>
	<path class="st1" d="M29.8,84.9c-0.1,0-0.2,0.1-0.3,0.1C29.6,84.9,29.7,84.9,29.8,84.9z"/>
	<path class="st1" d="M30.9,84.5C30.8,84.5,30.8,84.5,30.9,84.5C30.8,84.5,30.8,84.5,30.9,84.5z"/>
	<path class="st1" d="M106,107.8C106,107.9,106,107.9,106,107.8C106,107.9,106,107.9,106,107.8z"/>
	<path class="st1" d="M105.3,107.3C105.3,107.3,105.3,107.3,105.3,107.3C105.3,107.3,105.3,107.3,105.3,107.3z"/>
	<path class="st1" d="M85.4,114.1c1.5-0.4,2.9-0.9,4.3-1.4c1.2-4.2,5.1-7.3,9.7-7.3c0.7,0,1.5,0.1,2.1,0.2c1.1-1,2.2-2.1,3.3-3.2
		c-1.7-0.7-3.5-1.1-5.4-1.1C92.1,101.3,86,106.9,85.4,114.1z"/>
	<path class="st1" d="M107.9,110.2c0.1,0.1,0.1,0.2,0.2,0.3C108.1,110.4,108,110.3,107.9,110.2z"/>
	<path class="st1" d="M108.3,110.9c0.1,0.1,0.1,0.3,0.2,0.4C108.5,111.2,108.4,111,108.3,110.9z"/>
	<path class="st1" d="M108.7,111.7c0.1,0.2,0.1,0.3,0.2,0.5C108.8,112,108.7,111.9,108.7,111.7z"/>
	<path class="st1" d="M109,112.6c0.1,0.2,0.1,0.4,0.1,0.5C109.1,112.9,109,112.8,109,112.6z"/>
	<path class="st1" d="M109.2,113.5c0,0.2,0.1,0.4,0.1,0.6C109.3,113.9,109.2,113.7,109.2,113.5z"/>
	<path class="st1" d="M109.3,114.4c0,0.3,0,0.6,0,1C109.4,115.1,109.4,114.7,109.3,114.4z"/>
	<path class="st1" d="M89.3,115.4c0-0.3,0-0.5,0-0.8C89.3,114.9,89.3,115.1,89.3,115.4z"/>
	<path class="st1" d="M89.4,35.9c0.1,0.7,0.2,1.3,0.3,2c0,0,0,0,0,0C89.6,37.2,89.4,36.5,89.4,35.9z"/>
	<path class="st1" d="M89.7,112.7C89.7,112.7,89.7,112.7,89.7,112.7c-0.2,0.6-0.3,1.3-0.4,2C89.4,113.9,89.6,113.3,89.7,112.7z"/>
	<path class="st1" d="M106,42.6c0.7-0.7,1.4-1.4,1.9-2.3C107.4,41.1,106.8,41.9,106,42.6z"/>
	<path class="st1" d="M107.9,110.2c-0.5-0.9-1.2-1.6-1.9-2.3C106.8,108.6,107.4,109.3,107.9,110.2z"/>
	<path class="st1" d="M106,42.6c-0.2,0.2-0.4,0.3-0.6,0.5C105.6,43,105.8,42.8,106,42.6z"/>
	<path class="st1" d="M30.8,84.6c-0.3,0.1-0.7,0.2-1,0.3C30.1,84.8,30.5,84.7,30.8,84.6z"/>
	<path class="st1" d="M101.5,44.9C101.5,44.9,101.5,44.9,101.5,44.9c1.4-0.3,2.7-0.9,3.8-1.7C104.2,44,102.9,44.6,101.5,44.9z"/>
	<path class="st1" d="M105.3,107.3c-1.1-0.8-2.4-1.4-3.8-1.7c0,0,0,0,0,0C102.9,105.9,104.2,106.5,105.3,107.3z"/>
	<path class="st1" d="M108.3,39.6c-0.1,0.1-0.1,0.3-0.2,0.4C108.2,39.8,108.3,39.7,108.3,39.6z"/>
	<path class="st1" d="M75.3,11C39.8,11,11,39.8,11,75.2s28.8,64.2,64.2,64.2s64.2-28.8,64.2-64.2S110.7,11,75.3,11z M113.4,115.4
		c0,7.7-6.3,14.1-14.1,14.1c-7.7,0-14.1-6.3-14.1-14.1c0-0.4,0-0.9,0.1-1.3c-3.2,0.9-6.6,1.3-10.1,1.3c-8.2,0-15.9-2.5-22.2-6.7
		c-3.3,4.9-6.6,9.9-9.9,14.8c3.3-4.9,6.6-9.9,9.9-14.8c-8-5.3-13.9-13.5-16.5-23c-2.5,2.3-5.8,3.7-9.4,3.7C19.3,89.3,13,83,13,75.2
		c0-7.7,6.3-14.1,14.1-14.1c3.6,0,6.9,1.4,9.4,3.7c2.6-9.8,8.9-18.1,17.2-23.5c-3.2-5-6.4-10-9.6-15c3.2,5,6.4,10,9.6,15
		c6.2-4,13.6-6.3,21.5-6.3c3.5,0,6.9,0.5,10.1,1.3c0-0.4-0.1-0.9-0.1-1.3c0-7.7,6.3-14.1,14.1-14.1c7.7,0,14.1,6.3,14.1,14.1
		c0,5.8-3.6,10.8-8.6,13c6.6,7.1,10.7,16.7,10.7,27.2c0,0,0,0,0,0c5.9,0,11.9,0,17.8,0c-5.9,0-11.9,0-17.8,0
		c0,10.5-4.1,20-10.7,27.2C109.8,104.5,113.4,109.6,113.4,115.4z"/>
	<path class="st1" d="M109.2,37c0,0.1-0.1,0.2-0.1,0.4C109.1,37.2,109.2,37.1,109.2,37z"/>
	<path class="st1" d="M109.3,36.1c0,0.1,0,0.2,0,0.3C109.3,36.3,109.3,36.2,109.3,36.1z"/>
	<path class="st1" d="M109,37.9c0,0.1-0.1,0.3-0.1,0.4C108.9,38.2,108.9,38,109,37.9z"/>
	<path class="st1" d="M108.7,38.8c-0.1,0.1-0.1,0.3-0.2,0.4C108.6,39,108.6,38.9,108.7,38.8z"/>
	<path class="st1" d="M108.5,111.3c0.1,0.1,0.1,0.3,0.2,0.4C108.6,111.6,108.6,111.4,108.5,111.3z"/>
	<path class="st1" d="M108.1,110.5c0.1,0.1,0.1,0.3,0.2,0.4C108.3,110.8,108.2,110.6,108.1,110.5z"/>
	<path class="st1" d="M29.8,65.6c0.4,0.1,0.7,0.2,1,0.3C30.5,65.8,30.1,65.7,29.8,65.6z"/>
	<path class="st1" d="M28.6,65.3c0.3,0,0.6,0.1,0.9,0.2C29.2,65.4,28.9,65.4,28.6,65.3z"/>
	<path class="st1" d="M30.9,65.9c1.9,0.8,3.6,2.2,4.7,3.9c0,0,0,0,0,0C34.4,68.1,32.8,66.7,30.9,65.9z"/>
	<path class="st1" d="M108.9,112.2c0,0.1,0.1,0.3,0.1,0.4C108.9,112.5,108.9,112.3,108.9,112.2z"/>
	<path class="st1" d="M30.9,84.5c1.9-0.8,3.6-2.2,4.7-3.9c0,0,0,0,0,0C34.4,82.4,32.8,83.7,30.9,84.5z"/>
	<path class="st1" d="M109.3,114.1c0,0.1,0,0.2,0,0.3C109.3,114.3,109.3,114.2,109.3,114.1z"/>
	<path class="st1" d="M105.3,107.3c0.2,0.2,0.4,0.3,0.6,0.5C105.8,107.7,105.6,107.5,105.3,107.3z"/>
	<path class="st1" d="M28.3,85.2c-0.4,0-0.8,0.1-1.2,0.1C27.5,85.3,27.9,85.2,28.3,85.2z"/>
	<path class="st1" d="M109.1,113.1c0,0.1,0.1,0.2,0.1,0.4C109.2,113.4,109.1,113.2,109.1,113.1z"/>
	<path class="st1" d="M29.5,85c-0.3,0.1-0.6,0.1-0.9,0.2C28.9,85.1,29.2,85,29.5,85z"/>
	<path class="st1" d="M27.1,65.2c0.4,0,0.8,0,1.2,0.1C27.9,65.2,27.5,65.2,27.1,65.2z"/>
	<path class="st1" d="M30.9,84.5C30.8,84.5,30.8,84.5,30.9,84.5c-0.4,0.1-0.7,0.3-1.1,0.4c-0.1,0-0.2,0.1-0.3,0.1
		c-0.3,0.1-0.6,0.1-0.9,0.2c-0.1,0-0.2,0-0.3,0.1c-0.4,0-0.8,0.1-1.2,0.1c-5.5,0-10-4.5-10-10c0-5.5,4.5-10,10-10
		c0.4,0,0.8,0,1.2,0.1c0.1,0,0.2,0,0.3,0.1c0.3,0,0.6,0.1,0.9,0.2c0.1,0,0.2,0,0.3,0.1c0.4,0.1,0.7,0.2,1,0.3c0,0,0,0,0,0
		c1.9,0.8,3.6,2.2,4.7,3.9c0.2-1.7,0.6-3.3,1-5c-2.5-2.3-5.8-3.7-9.4-3.7c-7.7,0-14.1,6.3-14.1,14.1c0,7.7,6.3,14.1,14.1,14.1
		c3.6,0,6.9-1.4,9.4-3.7c-0.4-1.6-0.8-3.3-1-5C34.4,82.4,32.8,83.8,30.9,84.5z"/>
	<path class="st1" d="M101.5,105.6c1.4,0.3,2.7,0.9,3.8,1.7c0,0,0,0,0,0c0.2,0.2,0.4,0.3,0.6,0.5c0,0,0,0,0.1,0
		c0.7,0.7,1.4,1.4,1.9,2.3c0.1,0.1,0.1,0.2,0.2,0.3c0.1,0.1,0.1,0.3,0.2,0.4c0.1,0.1,0.1,0.3,0.2,0.4c0.1,0.1,0.1,0.3,0.2,0.4
		c0.1,0.2,0.1,0.3,0.2,0.5c0,0.1,0.1,0.3,0.1,0.4c0.1,0.2,0.1,0.4,0.1,0.5c0,0.1,0.1,0.2,0.1,0.4c0,0.2,0.1,0.4,0.1,0.6
		c0,0.1,0,0.2,0,0.3c0,0.3,0,0.6,0,1c0,5.5-4.5,10-10,10c-5.5,0-10-4.5-10-10c0-0.3,0-0.5,0-0.8c0.1-0.7,0.2-1.3,0.3-2
		c-1.4,0.5-2.9,1-4.3,1.4c0,0.4-0.1,0.9-0.1,1.3c0,7.7,6.3,14.1,14.1,14.1c7.7,0,14.1-6.3,14.1-14.1c0-5.8-3.6-10.8-8.6-13
		C103.7,103.5,102.6,104.6,101.5,105.6z"/>
	<path class="st1" d="M105.3,43.1C105.3,43.1,105.3,43.1,105.3,43.1C105.3,43.1,105.3,43.1,105.3,43.1z"/>
	<path class="st1" d="M109.3,36.4c0,0.2-0.1,0.4-0.1,0.6C109.2,36.8,109.3,36.6,109.3,36.4z"/>
	<path class="st1" d="M89.4,35.9c0-0.3,0-0.5,0-0.8C89.3,35.3,89.3,35.6,89.4,35.9z"/>
	<path class="st1" d="M109.4,35.1c0,0.3,0,0.6,0,1C109.4,35.7,109.4,35.4,109.4,35.1z"/>
	<path class="st1" d="M99.4,49.1c1.9,0,3.7-0.4,5.4-1.1c-1-1.1-2.1-2.2-3.3-3.2c-0.7,0.2-1.4,0.2-2.1,0.2c-4.6,0-8.5-3.1-9.7-7.3
		c-1.4-0.5-2.9-1-4.3-1.4C86,43.5,92.1,49.1,99.4,49.1z"/>
	<path class="st1" d="M106,42.6C106,42.6,106,42.6,106,42.6C106,42.6,106,42.6,106,42.6z"/>
	<path class="st1" d="M108.1,40c-0.1,0.1-0.1,0.2-0.2,0.3C108,40.2,108.1,40.1,108.1,40z"/>
	<path class="st1" d="M108.5,39.2c-0.1,0.1-0.1,0.3-0.2,0.4C108.4,39.4,108.5,39.3,108.5,39.2z"/>
	<path class="st1" d="M108.9,38.3c-0.1,0.2-0.1,0.3-0.2,0.5C108.7,38.6,108.8,38.4,108.9,38.3z"/>
	<path class="st1" d="M109.1,37.4c0,0.2-0.1,0.4-0.1,0.5C109,37.7,109.1,37.5,109.1,37.4z"/>
	<path class="st1" d="M89.4,35.9c0-0.3,0-0.5,0-0.8c0-5.5,4.5-10,10-10c5.5,0,10,4.5,10,10c0,0.3,0,0.6,0,1c0,0.1,0,0.2,0,0.3
		c0,0.2-0.1,0.4-0.1,0.6c0,0.1-0.1,0.2-0.1,0.4c0,0.2-0.1,0.4-0.1,0.5c0,0.1-0.1,0.3-0.1,0.4c-0.1,0.2-0.1,0.3-0.2,0.5
		c-0.1,0.1-0.1,0.3-0.2,0.4c-0.1,0.1-0.1,0.3-0.2,0.4c-0.1,0.1-0.1,0.3-0.2,0.4c-0.1,0.1-0.1,0.2-0.2,0.3c-0.5,0.9-1.2,1.6-1.9,2.3
		c0,0,0,0-0.1,0c-0.2,0.2-0.4,0.3-0.6,0.5c0,0,0,0,0,0c-1.1,0.8-2.4,1.4-3.8,1.7c1.1,1,2.2,2.1,3.3,3.2c5.1-2.1,8.6-7.1,8.6-13
		c0-7.7-6.3-14.1-14.1-14.1c-7.7,0-14.1,6.3-14.1,14.1c0,0.4,0,0.9,0.1,1.3c1.5,0.4,2.9,0.9,4.3,1.4C89.5,37.2,89.4,36.5,89.4,35.9z
		"/>
</g>
</svg>
