<svg width="376" height="324" viewBox="0 0 376 324" fill="none" xmlns="http://www.w3.org/2000/svg">
    <g clip-path="url(#clip0_4682_171801)">
        <path d="M252.289 273.134L278.147 288.265L250.242 304.541L224.41 289.445L252.289 273.134Z" fill="url(#paint0_linear_4682_171801)" fill-opacity="0.1"/>
        <path d="M26.1502 224.848L61.4613 245.532L41.9027 256.93L6.55261 236.234L26.1502 224.848Z" fill="url(#paint1_linear_4682_171801)" fill-opacity="0.1"/>
        <path d="M142.294 208.889L170.208 225.316L142.411 241.605L114.445 225.17L142.294 208.889Z" fill="url(#paint2_linear_4682_171801)" fill-opacity="0.1"/>
        <path d="M196.987 240.884L226.314 258.04L198.429 274.338L169.043 257.192L196.987 240.884Z" fill="url(#paint3_linear_4682_171801)" fill-opacity="0.1"/>
        <path d="M153 304.367L178.43 319.226L170.7 323.87L145.133 308.929L153 304.367Z" fill="url(#paint4_linear_4682_171801)" fill-opacity="0.1"/>
        <path d="M131.327 263.19L161.577 280.874L105.58 313.514L75.3584 295.891L131.327 263.19Z" fill="url(#paint5_linear_4682_171801)" fill-opacity="0.1"/>
        <g clip-path="url(#clip1_4682_171801)">
            <path d="M63 40.3V42.5L104.4 162C104.4 162 106.5 163.4 107.6 164.1C113.1 167.2 118 163.3 118 157V74.1C118 66.5 116.9 60.6 110.7 57.2C101.3 52.1 82.8 41.1 72.3 34.9C68.7 32.9 63 34.2 63 40.3Z" fill="#3192E7"/>
            <path d="M63 42.9001V132.2C63 137.4 63.4 141.4 67.7 143.9C76.8 149.2 93.6 159.1 104.6 165.3C110.2 168.4 115 164.5 115 158.3V76.6C115 69.1 113.9 63.3 107.7 60C98.2 54.9 81.8 45.5001 71.2 39.4001C64.8 35.6001 63 36.9001 63 42.9001Z" fill="white"/>
            <path d="M90.7 152.6C90.9 152.8 91.3 152.8 91.5 152.6C91.6 152.5 91.7 152.3 91.6 152.1C91.6 151.5 91.2 150.9 90.7 150.6L82 145.5C81.8 145.3 81.4 145.3 81.2 145.5C81.1 145.6 81 145.8 81.1 146C81.1 146.6 81.5 147.2 82 147.5L90.7 152.6Z" fill="#1062FE"/>
            <path d="M90.7 59.0999C90.9 59.2999 91.3 59.2999 91.5 59.0999C91.6 58.9999 91.7 58.7999 91.6 58.5999C91.6 57.9999 91.2 57.3999 90.7 57.0999L82 51.9999C81.8 51.7999 81.4 51.7999 81.2 51.9999C81.1 52.0999 81 52.2999 81.1 52.4999C81.1 53.0999 81.5 53.6999 82 53.9999L90.7 59.0999Z" fill="#1062FE"/>
            <path d="M94.5 58.7999C95.1 58.8999 95.5 59.4999 95.5 60.0999C95.6 60.5999 95.2 61.0999 94.7 61.0999C94.6 61.0999 94.6 61.0999 94.5 61.0999C93.9 60.9999 93.5 60.3999 93.5 59.7999C93.4 59.2999 93.8 58.7999 94.3 58.7999C94.4 58.6999 94.4 58.6999 94.5 58.7999Z" fill="#1062FE"/>
            <path d="M0 -1.6001V44.7999L51.8 75.6999V27.9999L0 -1.6001Z" fill="white"/>
            <path d="M0 58.2V104.6L40.5 128.8L51.8 146.3V87.8L0 58.2Z" fill="#B4E8FE"/>
            <path d="M40.2 96.9C40.4 97.1 40.8 97.1 41 96.9C41.1 96.8 41.2 96.6 41.1 96.4C41.1 95.8 40.7 95.2 40.2 94.9L24.6 85.6999C24.4 85.4999 24.1 85.4999 23.8 85.6999C23.7 85.7999 23.6 85.9999 23.7 86.1999C23.7 86.7999 24.1 87.3999 24.6 87.6999L40.2 96.9ZM29.8 96.9C30 97.1 30.4 97.1 30.6 96.9C30.7 96.8 30.8 96.6 30.7 96.4C30.7 95.8 30.3 95.2 29.8 94.9L10.7 83.6C10.5 83.4 10.1 83.4 9.89997 83.6C9.79997 83.7 9.69997 83.9 9.79997 84.1C9.79997 84.7 10.2 85.3 10.7 85.6L29.8 96.9ZM19.4 84.6999C19.6 84.8999 20 84.8999 20.2 84.6999C20.3 84.5999 20.4 84.3999 20.3 84.1999C20.3 83.5999 19.9 82.9999 19.4 82.6999L10.7 77.6C10.5 77.4 10.1 77.4 9.89997 77.6C9.79997 77.7 9.69997 77.9 9.79997 78.1C9.79997 78.7 10.2 79.3 10.7 79.6L19.4 84.6999ZM10.7 91.8C10.2 91.5 9.79997 90.9 9.79997 90.3C9.69997 90 9.89997 89.7 10.2 89.6C10.4 89.6 10.6 89.5999 10.7 89.6999L14.2 91.6999C14.7 91.9999 15.1 92.5999 15.1 93.1999C15.2 93.4999 15 93.8 14.7 93.8C14.5 93.8 14.3 93.7999 14.2 93.6999L10.7 91.8ZM19.4 96.9C18.9 96.6 18.5 96 18.5 95.4C18.4 95.1 18.6 94.8 18.9 94.8C19.1 94.8 19.3 94.8 19.4 94.9L40.2 107.1C40.7 107.4 41.1 108 41.1 108.6C41.2 108.9 41 109.2 40.7 109.3C40.5 109.3 40.3 109.3 40.2 109.2L19.4 96.9ZM40.2 115.2C40.4 115.4 40.8 115.4 41 115.2C41.1 115.1 41.2 114.9 41.1 114.7C41.1 114.1 40.7 113.5 40.2 113.2L36.7 111.2C36.5 111 36.1 111 35.9 111.2C35.8 111.3 35.7 111.5 35.8 111.7C35.8 112.3 36.2 112.9 36.7 113.2L40.2 115.2ZM31.5 110.1C31.7 110.3 32.1 110.3 32.3 110.1C32.4 110 32.5 109.8 32.4 109.6C32.4 109 32 108.4 31.5 108.1L10.7 95.9C10.5 95.7 10.1 95.7 9.89997 95.9C9.79997 96 9.69997 96.2 9.79997 96.4C9.79997 97 10.2 97.6 10.7 97.9L31.5 110.1Z" fill="white"/>
            <path d="M107.1 75.5L68.9 53.1C68.7 52.9 68.4 52.9 68.2 53.1C68 53.3 68 53.5 68 53.6V61.6C68 62.2 68.4 62.8 68.9 63.1L107.1 85.5C107.3 85.7 107.6 85.7 107.8 85.5C107.9 85.4 108 85.2 107.9 85V77C108 76.4 107.6 75.8 107.1 75.5ZM107.1 89.7L68.9 67.3C68.7 67.1 68.4 67.1 68.2 67.3C68 67.5 68 67.6 68 67.8V89.2C68 89.7999 68.4 90.4 68.9 90.7L107.1 113.1C107.3 113.3 107.6 113.3 107.8 113.1C107.9 113 108 112.8 107.9 112.6V91.2C108 90.6 107.6 90 107.1 89.7ZM86.1 112.5L68.9 102.6C68.7 102.4 68.3 102.4 68.1 102.6C68 102.7 67.9 102.9 68 103.1V122.1C68 122.7 68.4 123.3 68.9 123.6L86.1 133.5C86.3 133.7 86.7 133.7 86.9 133.5C87 133.4 87.1 133.2 87 133V114C87 113.4 86.6 112.8 86.1 112.5ZM107.1 124.7L90.9 115C90.7 114.8 90.4 114.8 90.2 115C90.1 115.1 90 115.3 90.1 115.5V134.2C90.1 134.8 90.5 135.4 91 135.7L107.2 145.4C107.4 145.6 107.7 145.6 107.9 145.4C108 145.3 108.1 145.1 108 144.9V126.2C108 125.6 107.6 125 107.1 124.7ZM85.7 108.3C85.9 108.5 86.3 108.5 86.5 108.3C86.6 108.2 86.7 108 86.6 107.8C86.6 107.2 86.2 106.6 85.7 106.3L68.6 96.4C68.4 96.2 68 96.2 67.8 96.4C67.7 96.5 67.6 96.7 67.7 96.9C67.7 97.5 68.1 98.1 68.6 98.4L85.7 108.3ZM77.3 134.4C77.5 134.6 77.9 134.6 78.1 134.4C78.2 134.3 78.3 134.1 78.2 133.9C78.2 133.3 77.8 132.7 77.3 132.4L68.6 127.3C68.4 127.1 68 127.1 67.8 127.3C67.7 127.4 67.6 127.6 67.7 127.8C67.7 128.4 68.1 129 68.6 129.3L77.3 134.4ZM108.5 121.8C108.7 122 109.1 122 109.3 121.8C109.4 121.7 109.5 121.5 109.4 121.3C109.4 120.7 109 120.1 108.5 119.8L91.4 109.9C91.2 109.7 90.8 109.7 90.6 109.9C90.5 110 90.4 110.2 90.5 110.4C90.5 111 90.9 111.6 91.4 111.9L108.5 121.8ZM98.8 145.9C99 146.1 99.4 146.1 99.6 145.9C99.7 145.8 99.8 145.6 99.7 145.4C99.7 144.8 99.3 144.2 98.8 143.9L90.1 138.8C89.9 138.6 89.5 138.6 89.3 138.8C89.2 138.9 89.1 139.1 89.2 139.3C89.2 139.9 89.6 140.5 90.1 140.8L98.8 145.9Z" fill="#B4E8FE"/>
            <path d="M14 36.8999C17.1 38.6999 19.7 37.1999 19.7 33.5999C19.7 29.9999 17.2 25.4999 14 23.6999V20.8999C18.5 23.4999 22.1 29.8999 22.1 35.0999C22.1 40.2999 18.5 42.4999 14 39.7999" fill="#B4E8FE"/>
            <path d="M12.7 23.0999C10.2 22.2999 8.30002 23.8999 8.30002 26.9999C8.30002 30.6999 10.8 35.0999 14 36.8999C14.4 37.1999 14.9 37.3999 15.4 37.4999C16.2 37.6999 17.2 37.8999 17.6 38.6999C18 39.6999 17.8 40.9999 16.2 40.5999C15.4 40.3999 14.7 40.0999 14 39.6999C9.50002 37.0999 5.90002 30.6999 5.90002 25.4999C5.90002 20.6999 8.90002 18.5999 12.8 20.1999C13.3 20.3999 13.8 20.7999 14.1 21.1999C14.5 21.6999 14.3 23.5999 12.7 23.0999Z" fill="#1062FE"/>
            <path d="M34.1 33.5998C38.6 36.1998 42.2 42.5998 42.2 47.7998C42.2 52.9998 38.6 55.1998 34.1 52.4998C29.6 49.7998 26 43.4998 26 38.2998C26 33.0998 29.7 30.9998 34.1 33.5998ZM34.1 49.6998C37.2 51.4998 39.8 49.9998 39.8 46.3998C39.8 42.6998 37.3 38.2998 34.1 36.4998C31 34.6998 28.4 36.1998 28.4 39.7998C28.5 43.3998 31 47.8998 34.1 49.6998Z" fill="#B4E8FE"/>
            <path d="M33.2 35.9999C30.5 34.9999 28.5 36.4999 28.5 39.7999C28.5 43.4999 31 47.8999 34.2 49.6999C37.3 51.4999 39.9 49.9999 39.9 46.3999C39.9 45.2999 39.7 44.1999 39.3 43.1999C38.6 41.1999 40.8 41.3999 41.2 42.4999C41.9 44.1999 42.2 45.9999 42.3 47.8999C42.3 53.0999 38.7 55.2999 34.2 52.5999C29.7 49.8999 26.1 43.5999 26.1 38.3999C26.1 33.3999 29.4 31.2999 33.5 33.2999C34.7 33.8999 35.3 34.8999 35 35.3999C34.5 36.1999 34.2 36.3999 33.2 35.9999Z" fill="#1062FE"/>
            <path d="M35 230C35 230 33.4 234.6 30.4 236.3C23.8 240.1 13.2 240.1 6.6 236.3C3.6 234.6 1.3 232.3 1 231V205C1.3 202.8 2.9 200.6 5.9 198.9C12.5 195.2 23.3 195.2 30 198.9C33 200.6 34.7 202.8 34.9 205H35V230Z" fill="#88D3FF"/>
            <path d="M6 198.3C12.6 194.5 23.4 194.5 30.1 198.3C36.8 202.1 36.7 208.3 30.1 212.1C23.5 215.9 12.7 215.9 6.1 212.1C-0.700004 208.3 -0.700004 202.1 6 198.3Z" fill="#A4E0FF"/>
            <path d="M8.10005 199.7C13.6 196.7 22.4 196.7 27.9 199.7C33.4 202.7 33.4 207.6 27.9 210.6C22.4 213.6 13.6 213.6 8.10005 210.6C2.70005 207.7 2.70005 202.8 8.10005 199.7Z" fill="#1062FE"/>
            <path d="M10.8 202.9C10.8 202.9 -1.30004 195.7 2.09996 189.4C6.19996 181.7 6.39996 183.3 2.09996 173.9C-0.80004 167.5 2.89996 160.9 7.49996 158.4C15.7 153.9 11.3 160.5 9.79996 166.4C8.29996 172.5 13.3 172 13.6 179.9C13.9 188.1 18 187.9 17.5 192.9C17.2 197.3 14.6 201 10.8 202.9Z" fill="#3192E7"/>
            <path d="M18.7 204.3C18.7 204.3 13.6 191.2 20 188.3C28 184.7 22.2 183.2 28.5 175C33.3 168.9 38.9 170.6 40.9 165.9C43.4 160 47.4 174.9 41.6 177.3C34.6 180.3 36.7 181.9 32.5 188.6C28.3 195.3 33.4 196.8 29.9 200.6C27.2 203.8 22.9 205.2 18.7 204.3Z" fill="#3192E7"/>
            <path d="M17.5 208.9C10.6 208.9 7.99997 199 10.1 189.4C12.1 180.4 19.1 180.5 19.5 172.6C20 162 36.1 182.2 28.8 187.3C21.7 192.3 31.3 196.1 27.6 200.8C25.8 203 27.1 208.9 17.5 208.9Z" fill="#88D3FF"/>
            <path d="M86.8 172.3L115.1 155.8L143.4 172.3L115 188.7L86.8 172.3Z" fill="#88D3FF"/>
            <path d="M87 172.2L115 188.4V225.5L87 209.3V172.2Z" fill="#1062FE"/>
            <path d="M115 188.4L143 172.2V209.3L115 225.5V188.4Z" fill="#3192E7"/>
            <path d="M141.9 140.7L170.2 124.2L198.5 140.7L170.2 157.2L141.9 140.7Z" fill="#88D3FF"/>
            <path d="M142 140.8L170 156.428V257.771L142 241.3V140.8Z" fill="#1062FE"/>
            <path d="M170 156.4L198 140.2V240.6L170 257.723V156.4Z" fill="#3192E7"/>
            <path d="M197.1 107.5L225.1 91.2L253.1 107.5L225.1 123.8L197.1 107.5Z" fill="#88D3FF"/>
            <path d="M197 107.2L225 123.4V289.8L197 273.6V107.2Z" fill="#1062FE"/>
            <path d="M225 123.4L253 107.2V273.6L225 289.8V123.4Z" fill="#3192E7"/>
            <path d="M158.999 306.2C159.099 307.3 158.499 308.4 157.399 308.9C155.999 309.7 154.799 310.5 153.599 311.3C152.399 312.1 150.799 312.1 149.499 311.4C144.099 308.2 129.899 299.5 125.399 296.7C109.499 303.4 87.0994 302.6 72.7994 294.4C56.8994 285.2 56.9994 270.4 72.7994 261.2C88.6994 252 114.399 252 130.199 261.2C144.799 269.6 145.899 282.8 133.799 292L158.899 303.3V306.2H158.999Z" fill="#3192E7"/>
            <path d="M158.199 304.6C156.699 305.7 154.599 307.1 153.199 308.1C152.299 308.4 151.399 308.4 150.499 308.1C144.999 304.9 130.399 295.8 125.699 292.9C109.799 299.5 87.3994 298.7 73.0994 290.6C57.1994 281.6 57.1994 266.9 73.0994 257.8C88.9994 248.7 114.699 248.7 130.499 257.8C145.099 266.1 146.199 279.2 133.999 288.3C138.699 291 151.799 298.6 157.399 301.9C159.599 303.2 159.199 303.9 158.199 304.6ZM125.199 259.9C112.099 252.4 90.8994 252.4 77.7994 259.9C64.6994 267.5 64.6994 279.7 77.7994 287.3C90.8994 294.9 112.099 294.8 125.199 287.3C138.299 279.8 138.299 267.5 125.199 259.9Z" fill="#88D3FF"/>
            <path d="M78.1994 260.2C90.8994 252.8 111.599 252.8 124.299 260.2C136.999 267.5 136.999 279.5 124.299 286.8C111.599 294.2 90.8994 294.2 78.1994 286.8C65.4994 279.4 65.3994 267.5 78.1994 260.2Z" fill="#1062FE"/>
            <path opacity="0.1" d="M124.299 261.2C111.599 253.9 90.8994 253.9 78.1994 261.2C72.2994 264.6 69.0994 269 68.6994 273.5C68.1994 268.3 71.3994 263.1 78.1994 259.2C90.8994 251.8 111.599 251.8 124.299 259.2C131.099 263.1 134.299 268.4 133.799 273.5C133.399 269 130.199 264.6 124.299 261.2Z" fill="black"/>
            <path d="M89.7993 270.5C89.3993 270.5 88.9993 270.3 88.5993 270.1C88.0993 269.9 87.7993 269.6 87.5993 269.1C87.6993 268.7 87.9993 268.3 88.3993 268.2L85.9993 266.8C85.3993 267.1 84.9993 267.5 84.7993 268.1C84.5993 268.6 84.6993 269.2 85.0993 269.6C85.5993 270.2 86.1993 270.8 86.8993 271.1C87.8993 271.7 89.0993 272.1 90.2993 272.2C91.3993 272.3 92.3993 272.1 93.2993 271.6C94.3993 271 94.6993 270.2 94.1993 269.2C93.8993 268.7 93.5993 268.2 93.1993 267.8C92.7993 267.5 92.5993 267.1 92.3993 266.6C92.2993 266.3 92.3993 266.1 92.6993 266C92.9993 265.8 93.3993 265.8 93.7993 265.8C94.2993 265.8 94.6993 266 95.0993 266.2C95.3993 266.3 95.6993 266.6 95.7993 267C95.7993 267.3 95.5993 267.6 95.1993 267.8L97.5993 269.2C98.0993 268.9 98.4993 268.5 98.6993 268C98.8993 267.5 98.7993 267 98.4993 266.6C98.0993 266 97.5993 265.6 96.9993 265.3C96.2993 264.9 95.4993 264.6 94.6993 264.4C93.8993 264.2 93.0993 264.1 92.3993 264.2C91.6993 264.2 91.0993 264.4 90.4993 264.8C89.3993 265.4 89.1993 266.3 89.7993 267.4C90.0993 267.8 90.3993 268.3 90.6993 268.6C90.9993 268.9 91.1993 269.3 91.3993 269.7C91.3993 270 91.1993 270.3 90.8993 270.4C90.4993 270.5 90.0993 270.6 89.7993 270.5ZM104.499 274.4L100.699 272.2L102.799 271L107.299 273.6L109.099 272.5L102.199 268.5L92.2993 274.2L99.1993 278.2L100.999 277.1L96.4993 274.5L98.8993 273.1L102.699 275.3L104.499 274.4ZM114.099 280.8C114.899 280.4 115.599 279.8 116.099 279C116.499 278.4 116.499 277.7 116.299 277.1C115.899 276.4 115.399 275.8 114.599 275.5C113.699 275 112.699 274.7 111.699 274.5C110.599 274.3 109.499 274.4 108.399 274.6C107.299 274.8 106.299 275.2 105.299 275.8L104.699 276.1C103.899 276.5 103.299 277.1 102.799 277.9C102.399 278.5 102.399 279.1 102.699 279.7C103.099 280.4 103.699 281 104.399 281.3C105.299 281.8 106.299 282.1 107.299 282.3C108.399 282.4 109.499 282.4 110.599 282.2C111.699 282 112.699 281.6 113.699 281L114.099 280.8ZM111.199 279.7C110.399 280.2 109.399 280.5 108.499 280.7C107.799 280.8 106.999 280.7 106.299 280.3C105.699 279.9 105.399 279.5 105.599 279C105.999 278.3 106.599 277.8 107.399 277.4L108.099 277C109.999 276 111.499 275.8 112.699 276.5C113.299 276.9 113.499 277.3 113.399 277.8C112.999 278.5 112.399 279.1 111.599 279.4L111.199 279.7Z" fill="white"/>
            <path d="M261.1 150.5V256.8L376.1 324.1V217.1L261.1 150.5Z" fill="white"/>
            <path d="M261.1 149.2V160.6L376.1 227.9V215.8L261.1 149.2Z" fill="#1062FE"/>
            <path d="M268 159.2C268 160.3 267.2 160.8 266.3 160.2C265.3 159.5 264.6 158.4 264.6 157.2C264.6 156.1 265.4 155.6 266.3 156.2C267.3 156.9 267.9 158 268 159.2ZM275 163.2C275 164.3 274.2 164.8 273.3 164.2C272.3 163.5 271.6 162.4 271.6 161.2C271.6 160.1 272.4 159.6 273.3 160.2C274.3 160.9 274.9 162 275 163.2ZM282 167.2C282 168.3 281.2 168.8 280.3 168.2C279.3 167.5 278.6 166.4 278.6 165.2C278.6 164.1 279.4 163.6 280.3 164.2C281.3 164.9 281.9 166 282 167.2Z" fill="white"/>
            <path d="M280.8 184.4L357.8 229.2C362 231.6 365.3 236.9 365.3 241.1C365.3 245.3 361.9 246.7 357.8 244.3L280.8 199.5C276.6 197.1 273.3 191.8 273.3 187.6C273.2 183.5 276.6 182 280.8 184.4Z" fill="#A4E0FF"/>
            <path d="M358.8 231.3C361.9 233.3 363.9 236.8 364.1 240.5C364.1 243.9 361.7 245.3 358.8 243.6C355.7 241.6 353.7 238.1 353.5 234.4C353.5 230.9 355.8 229.6 358.8 231.3Z" fill="#1062FE"/>
            <path d="M361.8 241.8L360.5 239.6C360.9 239.2 361.1 238.6 361.1 237.9C361 236.2 360.1 234.7 358.7 233.8C357.9 233.4 357.2 233.3 356.6 233.7C356 234 355.7 234.7 355.7 235.7C355.8 237.4 356.7 238.9 358.1 239.8C358.5 240 358.9 240.2 359.3 240.2L360.7 242.6L361.8 241.8ZM357 235.5C357 235.1 357.1 234.8 357.3 234.7C357.4 234.7 357.4 234.7 357.5 234.7C357.7 234.7 357.9 234.8 358.1 234.9C359.1 235.6 359.8 236.7 359.8 237.9C359.8 238.3 359.7 238.6 359.5 238.7C359.3 238.8 359 238.7 358.7 238.6C357.7 237.8 357 236.7 357 235.5Z" fill="white"/>
            <path d="M283.1 253.5C281.9 253.5 280.5 253.1 279.2 252.3C274.6 249.6 270.8 243 270.8 237.6C270.8 234.8 271.8 232.7 273.5 231.7C275.2 230.7 277.5 230.9 279.9 232.3C284.5 235 288.3 241.6 288.3 247C288.3 249.8 287.3 251.9 285.6 252.9C284.8 253.3 284 253.5 283.1 253.5ZM275.9 232.4C275.3 232.4 274.7 232.5 274.1 232.8C272.8 233.6 272.1 235.2 272.1 237.5C272.1 242.5 275.6 248.6 279.8 251C281.7 252.1 283.5 252.3 284.8 251.6C286.1 250.8 286.8 249.2 286.8 246.9C286.8 241.9 283.3 235.8 279.1 233.4C278 232.8 276.9 232.4 275.9 232.4Z" fill="#A4E0FF"/>
            <path d="M281.5 246.4L277.5 244.1V243.2L279.4 242C279.7 241.8 279.8 241.7 280 241.5C280.1 241.3 280.2 241.1 280.2 240.9C280.2 240.6 280.1 240.3 280 240.1C279.9 239.9 279.7 239.7 279.4 239.5C279.1 239.3 278.9 239.3 278.8 239.5C278.6 239.6 278.6 239.8 278.6 240.2L277.4 239.5C277.4 239.1 277.5 238.8 277.7 238.5C277.9 238.3 278.1 238.1 278.4 238.1C278.7 238.1 279.1 238.2 279.4 238.4C280 238.7 280.5 239.2 280.8 239.7C281.1 240.2 281.3 240.8 281.3 241.4C281.3 241.7 281.2 242 281.1 242.3C281 242.6 280.7 242.8 280.3 243.1L279 243.9L281.5 245.3V246.4Z" fill="#A4E0FF"/>
            <path d="M358.1 288C358.3 288.2 358.6 288.2 358.9 288C359 287.9 359.1 287.7 359 287.5C359 286.9 358.6 286.3 358.1 286L294.7 250C294.5 249.8 294.1 249.8 293.9 250C293.8 250.1 293.7 250.3 293.8 250.5C293.8 251.1 294.2 251.7 294.7 252L358.1 288ZM358.5 280.3L294.8 243.9C294.6 243.7 294.2 243.7 294 243.9C293.9 244 293.8 244.2 293.9 244.4C293.9 245 294.3 245.6 294.8 245.9L358.5 282.3V280.3ZM358.5 282.3C359 282.6 359.4 282.4 359.4 281.8C359.4 281.2 359 280.6 358.5 280.3V282.3ZM321.1 273.2C321.3 273.4 321.6 273.4 321.9 273.2C322 273.1 322.1 272.9 322 272.7C322 272.1 321.6 271.5 321.1 271.2L294.7 256C294.5 255.8 294.1 255.8 293.9 256C293.8 256.1 293.7 256.3 293.8 256.5C293.8 257.1 294.2 257.7 294.7 258L321.1 273.2Z" fill="#A4E0FF"/>
            <path d="M279.9 206.7C277.5 205.3 275.2 205.1 273.5 206.1C271.7 207.1 270.8 209.2 270.8 212C270.8 217.4 274.6 224 279.3 226.7C280.7 227.5 282 227.9 283.3 227.9C284.2 227.9 285 227.7 285.8 227.3C287.6 226.3 288.5 224.2 288.5 221.4C288.4 216 284.6 209.4 279.9 206.7Z" fill="#1062FE"/>
            <path d="M280.3 220.2L279.1 219.5V214.4L277.7 214.1V213L280.1 213.4L280.2 213.5V220.2H280.3Z" fill="white"/>
            <path d="M358.1 263.1C358.3 263.3 358.6 263.3 358.9 263.1C359 263 359.1 262.8 359 262.6C359 262 358.6 261.4 358.1 261.1L294.7 225.1C294.5 224.9 294.1 224.9 293.9 225.1C293.8 225.2 293.7 225.4 293.8 225.6C293.8 226.2 294.2 226.8 294.7 227.1L358.1 263.1ZM358.5 255.4L294.8 219C294.6 218.8 294.2 218.8 294 219C293.9 219.1 293.8 219.3 293.9 219.5C293.9 220.1 294.3 220.7 294.8 221L358.5 257.4V255.4ZM358.5 257.4C359 257.7 359.4 257.5 359.4 256.9C359.4 256.3 359 255.7 358.5 255.4V257.4ZM321.1 248.3C321.3 248.5 321.6 248.5 321.9 248.3C322 248.2 322.1 248 322 247.8C322 247.2 321.6 246.6 321.1 246.3L294.8 231.1C294.6 230.9 294.2 230.9 294 231.1C293.9 231.2 293.8 231.4 293.9 231.6C293.9 232.2 294.3 232.8 294.8 233.1L321.1 248.3Z" fill="#1062FE"/>
            <path d="M302.1 299.2C302.1 299.2 302.1 301.3 302.1 301.9C302.1 302.7 301.5 303.6 300.3 304.2L267.5 323C265.4 324.2 262.1 324.4 260.3 323.3L243.5 313.7C242.8 313.4 242.3 312.6 242.3 311.8C242.3 311 242.3 309.2 242.3 309.2L302.1 299.2Z" fill="#3192E7"/>
            <path d="M284.1 288.4L300.9 298C302.8 299.1 302.5 300.9 300.4 302.1L267.6 320.9C265.5 322.1 262.2 322.3 260.4 321.2L243.6 311.6C241.8 310.5 242 308.7 244.1 307.5L276.9 288.7C279 287.5 282.2 287.4 284.1 288.4Z" fill="#88D3FF"/>
            <path d="M281.5 291.1L296.3 299.6C297.9 300.5 297.7 302.2 295.8 303.3L269.5 318.6C267.6 319.7 264.7 319.8 263.1 318.9L248.3 310.4C246.7 309.5 246.9 307.8 248.8 306.7L275.1 291.4C277 290.3 279.8 290.2 281.5 291.1Z" fill="#1062FE"/>
            <path d="M271.2 298.5C271.2 298.5 269.5 299.3 267.2 300.5C265.8 301.2 265.9 303.2 265.9 305.2C265.9 306.3 266.2 307.5 266.6 308.6C268.4 309 270.2 309.2 272 309.3C274.1 309.2 275.6 309.3 276.7 308.6C278.5 307.5 282.1 305.2 282.1 305.2L278.7 299.8L271.2 298.5Z" fill="white"/>
            <path d="M275.9 305.2H270.5C270.1 305.2 269.8 304.9 269.8 304.5V302.5C269.8 302.1 270.1 301.8 270.5 301.8C270.9 301.8 271.2 302.1 271.2 302.5V303.8H275.9C276.3 303.8 276.6 304.1 276.6 304.5C276.6 304.9 276.3 305.2 275.9 305.2Z" fill="#1062FE"/>
        </g>
    </g>
    <defs>
        <linearGradient id="paint0_linear_4682_171801" x1="222.784" y1="288.259" x2="245.25" y2="327.436" gradientUnits="userSpaceOnUse">
            <stop stop-color="#ECECEC"/>
            <stop offset="0.0001"/>
            <stop offset="0.548739" stop-opacity="0"/>
        </linearGradient>
        <linearGradient id="paint1_linear_4682_171801" x1="10.0274" y1="238.224" x2="32.2203" y2="277.465" gradientUnits="userSpaceOnUse">
            <stop/>
            <stop offset="0.671875" stop-opacity="0"/>
        </linearGradient>
        <linearGradient id="paint2_linear_4682_171801" x1="109.288" y1="222.051" x2="133.936" y2="267.883" gradientUnits="userSpaceOnUse">
            <stop/>
            <stop offset="0.548621" stop-opacity="0"/>
        </linearGradient>
        <linearGradient id="paint3_linear_4682_171801" x1="166.79" y1="255.64" x2="193.282" y2="299.189" gradientUnits="userSpaceOnUse">
            <stop/>
            <stop offset="0.646243" stop-opacity="0"/>
        </linearGradient>
        <linearGradient id="paint4_linear_4682_171801" x1="147.366" y1="310.276" x2="158.915" y2="330.088" gradientUnits="userSpaceOnUse">
            <stop/>
            <stop offset="0.702967" stop-opacity="0"/>
        </linearGradient>
        <linearGradient id="paint5_linear_4682_171801" x1="80.1166" y1="297.953" x2="106.608" y2="344.698" gradientUnits="userSpaceOnUse">
            <stop/>
            <stop offset="0.534341" stop-opacity="0"/>
        </linearGradient>
        <clipPath id="clip0_4682_171801">
            <rect width="376" height="324" fill="white"/>
        </clipPath>
        <clipPath id="clip1_4682_171801">
            <rect width="376" height="324" fill="white"/>
        </clipPath>
    </defs>
</svg>
