<svg class="svg-nordvpn svg-nordvpn-left promo-slider-icon" viewBox="0 0 596 514" fill="none" xmlns="http://www.w3.org/2000/svg">
    <path d="M3.17017 17.4362V170.788L183.872 275.13V121.779L3.17017 17.4362Z" fill="white"/>
    <path d="M183.872 123.314L3.17017 18.9714V0L183.872 102.757V123.314Z" fill="var(--svg-illustration-color-1)"/>
    <path d="M13.9499 15.851C13.9499 17.5946 12.6818 18.3872 11.2552 17.4361C9.67012 16.3266 8.56055 14.5829 8.56055 12.6808C8.56055 10.9372 9.82863 10.1446 11.2552 11.0957C12.8403 12.2053 13.7914 13.9489 13.9499 15.851Z" fill="white"/>
    <path d="M24.8872 22.1915C24.8872 23.9351 23.6191 24.7276 22.1925 23.7766C20.6074 22.667 19.4978 20.9234 19.4978 19.0213C19.4978 17.2776 20.7659 16.4851 22.1925 17.4362C23.7776 18.5457 24.8872 20.2893 24.8872 22.1915Z" fill="white"/>
    <path d="M35.9829 28.5318C35.9829 30.2754 34.7148 30.9095 33.2882 30.1169C31.7031 29.0073 30.5935 27.2637 30.5935 25.3616C30.5935 23.618 31.8616 22.8254 33.2882 23.7765C34.8733 24.8861 35.8244 26.6297 35.9829 28.5318Z" fill="white"/>
    <path d="M64.9904 93.5212C64.9904 94.3138 64.3563 94.7893 63.5638 94.3138L22.351 70.5372C21.5585 70.0616 21.0829 69.1106 20.9244 68.1595V52.3085C20.9244 51.5159 21.5585 51.0404 22.351 51.5159L63.5638 75.2925C64.3563 75.768 64.8319 76.7191 64.9904 77.6702V93.5212Z" fill="var(--svg-illustration-color-5)"/>
    <path d="M166.436 241.729C167.229 242.204 168.021 241.729 168.021 240.936C168.021 239.985 167.229 239.034 166.436 238.559L72.9149 185.458C72.1224 184.982 71.3298 185.457 71.3298 186.25C71.3298 187.201 72.1224 188.152 72.9149 188.628L166.436 241.729Z" fill="var(--svg-illustration-color-4)"/>
    <path d="M166.436 181.495C167.229 181.97 168.021 181.495 168.021 180.702C168.021 179.751 167.229 178.8 166.436 178.325L72.9149 125.224C72.1224 124.748 71.3298 125.223 71.3298 126.016C71.3298 126.967 72.1224 127.918 72.9149 128.394L166.436 181.495Z" fill="var(--svg-illustration-color-4)"/>
    <path d="M120.468 166.436C121.261 166.912 122.053 166.436 122.053 165.644C122.053 164.693 121.261 163.742 120.468 163.266L72.9149 136.319C72.1224 135.844 71.3298 136.319 71.3298 137.112C71.3298 138.063 72.1224 139.014 72.9149 139.489L120.468 166.436Z" fill="var(--svg-illustration-color-4)"/>
    <path fill-rule="evenodd" clip-rule="evenodd" d="M79.4665 84.5412L99.6505 96.3433C101.517 97.4355 103.032 99.8543 103.032 101.747V126.415C103.032 128.307 101.517 128.955 99.6505 127.863L79.4665 116.061C77.5999 114.969 76.0851 112.55 76.0851 110.657V85.9897C76.0851 84.0971 77.5999 83.4489 79.4665 84.5412Z" fill="var(--svg-illustration-color-5)"/>
    <path d="M95.1063 103.596C95.1063 105.96 92.8686 106.819 90.351 105.745C87.5538 104.241 85.5957 101.877 85.5957 99.2979C85.5957 96.934 87.8335 96.0744 90.351 97.1489C93.1483 98.6532 94.8266 101.017 95.1063 103.596Z" fill="white"/>
    <path d="M82.4255 111.294C82.4255 108.618 84.1495 106.979 86.9863 108.195L92.3448 110.628C95.4969 112.331 96.6915 114.682 96.6915 117.601V126.174L82.4528 117.805L82.4255 111.294Z" fill="white"/>
    <path fill-rule="evenodd" clip-rule="evenodd" d="M114.339 103.562L134.523 115.365C136.389 116.457 137.904 118.876 137.904 120.768V145.436C137.904 147.328 136.389 147.977 134.523 146.884L114.339 135.082C112.472 133.99 110.957 131.571 110.957 129.679V105.011C110.957 103.118 112.472 102.47 114.339 103.562Z" fill="var(--svg-illustration-color-5)"/>
    <path d="M129.979 122.617C129.979 124.981 127.741 125.841 125.223 124.766C122.426 123.262 120.468 120.898 120.468 118.319C120.468 115.955 122.706 115.096 125.223 116.17C128.021 117.674 129.699 120.038 129.979 122.617Z" fill="white"/>
    <path d="M117.298 130.315C117.298 127.64 119.022 126 121.859 127.217L127.217 129.649C130.369 131.352 131.564 133.703 131.564 136.622V145.196L117.325 136.826L117.298 130.315Z" fill="white"/>
    <path d="M34.9714 115.516C35.7969 116.01 36.4574 115.516 36.4574 114.692C36.4574 113.705 35.7969 112.717 34.9714 112.223L22.0924 104.814C21.2668 104.32 20.6063 104.814 20.6063 105.637C20.6063 106.625 21.2668 107.613 22.0924 108.107L34.9714 115.516Z" fill="var(--svg-illustration-color-5)"/>
    <path d="M41.361 129.773C42.1592 130.288 42.7978 129.773 42.7978 128.915C42.7978 127.886 42.1592 126.857 41.361 126.342L22.0432 114.333C21.2449 113.818 20.6063 114.333 20.6063 115.191C20.6063 116.22 21.2449 117.249 22.0432 117.764L41.361 129.773Z" fill="var(--svg-illustration-color-5)"/>
    <path d="M55.6119 147.215C56.4185 147.716 57.0638 147.215 57.0638 146.38C57.0638 145.378 56.4185 144.376 55.6119 143.875L22.0582 123.838C21.2516 123.337 20.6063 123.838 20.6063 124.673C20.6063 125.675 21.2516 126.677 22.0582 127.178L55.6119 147.215Z" fill="var(--svg-illustration-color-5)"/>
    <path d="M47.735 151.976C48.5146 152.462 49.1382 151.976 49.1382 151.166C49.1382 150.194 48.5146 149.222 47.735 148.736L22.0095 133.343C21.23 132.857 20.6063 133.343 20.6063 134.153C20.6063 135.125 21.23 136.097 22.0095 136.583L47.735 151.976Z" fill="var(--svg-illustration-color-5)"/>
    <path d="M34.9714 106.005C35.7969 106.499 36.4574 106.005 36.4574 105.182C36.4574 104.194 35.7969 103.206 34.9714 102.712L22.0924 95.3034C21.2668 94.8095 20.6063 95.3034 20.6063 96.1266C20.6063 97.1144 21.2668 98.1023 22.0924 98.5962L34.9714 106.005Z" fill="var(--svg-illustration-color-5)"/>
    <path d="M47.735 104.423C48.5146 104.909 49.1382 104.423 49.1382 103.613C49.1382 102.641 48.5146 101.669 47.735 101.182L22.0095 85.7896C21.23 85.3036 20.6063 85.7896 20.6063 86.5998C20.6063 87.572 21.23 88.5441 22.0095 89.0302L47.735 104.423Z" fill="var(--svg-illustration-color-5)"/>
</svg>
<svg class="svg-nordvpn svg-nordvpn-center promo-slider-icon" viewBox="0 0 596 514" fill="none" xmlns="http://www.w3.org/2000/svg">
    <g clip-path="url(#clip0_152_33779)">
    <path d="M290.07 340.805L522.852 477.623L482.961 493.385L285.059 376.913L290.07 340.805Z" fill="url(#paint0_linear_152_33779)" fill-opacity="0.16"/>
    <path opacity="0.48" d="M217.078 112.07C212.594 109.489 207 112.74 207.023 117.913L207.81 295.416L399.777 409.145C403.131 411.132 407.372 408.714 407.372 404.816V226.476C407.372 223.477 405.77 220.706 403.171 219.21L217.078 112.07Z" fill="var(--svg-illustration-color-1)"/>
    <path opacity="0.48" d="M217.026 112.036C214.954 110.843 212.404 110.843 210.332 112.036L186.009 126.04L211.558 296.875L385.571 419.514L404.727 409.2C406.356 408.322 407.372 406.621 407.372 404.77V226.476C407.372 223.477 405.77 220.706 403.171 219.21L217.026 112.036Z" fill="var(--svg-illustration-color-2)"/>
    <path d="M194.702 124.845C192.672 123.687 190.186 123.669 188.139 124.797L178.449 130.141L188.08 303.583L373.832 426.642L384.925 420.134C386.464 419.231 387.41 417.579 387.41 415.795V239.641C387.41 236.629 385.795 233.849 383.179 232.357L194.702 124.845Z" fill="var(--svg-illustration-color-2)"/>
    <path d="M180.977 135.933C178.741 134.642 175.947 136.256 175.947 138.838V305.533C175.947 309.694 178.149 313.544 181.736 315.653L370.455 426.605C372.691 427.919 375.509 426.307 375.509 423.714V250.135C375.509 248.937 374.87 247.829 373.832 247.23L180.977 135.933Z" fill="var(--svg-illustration-color-1)"/>
    <path d="M183.506 130.14C180.152 128.19 175.947 130.61 175.947 134.489V145.505L375.509 262.715V246.577C375.509 243.59 373.921 240.829 371.338 239.328L183.506 130.14Z" fill="var(--svg-illustration-color-3)"/>
    <path d="M187.907 143.078C187.907 144.985 186.52 145.852 184.96 144.812C183.227 143.598 182.013 141.692 182.013 139.612C182.013 137.705 183.4 136.839 184.96 137.878C186.693 139.092 187.733 140.998 187.907 143.078ZM200.04 150.012C200.04 151.918 198.653 152.785 197.093 151.745C195.36 150.532 194.146 148.625 194.146 146.545C194.146 144.638 195.533 143.772 197.093 144.812C198.826 146.025 199.866 147.932 200.04 150.012ZM212.173 156.945C212.173 158.851 210.786 159.718 209.226 158.678C207.493 157.465 206.28 155.558 206.28 153.478C206.28 151.572 207.666 150.705 209.226 151.745C210.959 152.958 211.999 154.865 212.173 156.945Z" fill="white"/>
    <path d="M213.626 195.805L335.28 266.585C341.916 270.377 347.129 278.751 347.129 285.386C347.129 292.022 341.758 294.234 335.28 290.442L213.626 219.662C206.991 215.87 201.777 207.497 201.777 200.861C201.619 194.383 206.991 192.013 213.626 195.805Z" fill="white"/>
    <path d="M212.408 197.859C217.147 200.916 220.204 206.266 220.509 211.922C220.509 217.119 216.841 219.259 212.408 216.66C207.669 213.603 204.612 208.253 204.306 202.597C204.306 197.247 207.822 195.26 212.408 197.859Z" fill="var(--svg-illustration-color-5)"/>
    <path d="M216.994 213.909L215.007 210.546C215.618 209.935 215.924 209.018 215.924 207.948C215.771 205.349 214.395 203.056 212.255 201.68C211.032 201.069 209.962 200.916 209.045 201.527C208.128 201.986 207.669 203.056 207.669 204.585C207.822 207.183 209.198 209.476 211.338 210.852C211.949 211.158 212.561 211.463 213.172 211.463L215.312 215.132L216.994 213.909ZM209.656 204.279C209.656 203.667 209.809 203.209 210.115 203.056C210.268 203.056 210.268 203.056 210.421 203.056C210.726 203.056 211.032 203.209 211.338 203.362C212.867 204.432 213.937 206.113 213.937 207.948C213.937 208.559 213.784 209.018 213.478 209.17C213.172 209.323 212.714 209.17 212.255 209.018C210.726 207.795 209.656 206.113 209.656 204.279Z" fill="white"/>
    <path d="M345.569 318.521L235.158 255.428C234.811 255.082 234.118 255.082 233.771 255.428C233.598 255.602 233.424 255.948 233.598 256.295C233.598 257.335 234.291 258.375 235.158 258.895L345.569 321.987V318.521ZM345.569 321.987C346.436 322.507 347.129 322.161 347.129 321.121C347.129 320.081 346.436 319.041 345.569 318.521V321.987Z" fill="white"/>
    <path d="M345.569 331.937L235.158 268.844C234.811 268.498 234.118 268.498 233.771 268.844C233.598 269.018 233.424 269.364 233.598 269.711C233.598 270.751 234.291 271.791 235.158 272.311L345.569 335.403V331.937ZM345.569 335.403C346.436 335.923 347.129 335.577 347.129 334.537C347.129 333.497 346.436 332.457 345.569 331.937V335.403Z" fill="white"/>
    <path d="M345.569 360.064L235.158 296.971C234.811 296.625 234.118 296.625 233.771 296.971C233.598 297.145 233.424 297.491 233.598 297.838C233.598 298.878 234.291 299.918 235.158 300.438L345.569 363.53V360.064ZM345.569 363.53C346.436 364.05 347.129 363.704 347.129 362.664C347.129 361.624 346.436 360.584 345.569 360.064V363.53ZM280.744 337.695C281.09 338.042 281.61 338.042 282.13 337.695C282.304 337.522 282.477 337.175 282.304 336.829C282.304 335.789 281.61 334.749 280.744 334.229L235.158 307.882C234.811 307.536 234.118 307.536 233.771 307.882C233.598 308.056 233.424 308.402 233.598 308.749C233.598 309.789 234.291 310.829 235.158 311.349L280.744 337.695Z" fill="white"/>
    <path fill-rule="evenodd" clip-rule="evenodd" d="M204.93 229.277L223.772 240.872C225.514 241.945 226.928 244.321 226.928 246.18V270.414C226.928 272.273 225.514 272.91 223.772 271.837L204.93 260.242C203.188 259.169 201.773 256.793 201.773 254.934V230.7C201.773 228.841 203.188 228.204 204.93 229.277Z" fill="var(--svg-illustration-color-2)"/>
    <path fill-rule="evenodd" clip-rule="evenodd" d="M204.93 271.202L223.772 282.797C225.514 283.87 226.928 286.246 226.928 288.105V312.339C226.928 314.198 225.514 314.835 223.772 313.762L204.93 302.167C203.188 301.094 201.773 298.718 201.773 296.859V272.625C201.773 270.766 203.188 270.129 204.93 271.202Z" fill="var(--svg-illustration-color-2)"/>
    <path d="M262.719 405.386L349.171 454.659L326.729 449.154L256.793 408.795L262.719 405.386Z" fill="url(#paint1_linear_152_33779)" fill-opacity="0.1"/>
    <path d="M299.016 316.403C299.487 317.187 299.801 318.128 299.801 319.07V397.519C299.879 398.225 299.565 398.853 299.016 399.245L292.723 402.66V319.52L291.323 318.002L297.682 314.834L299.016 316.403Z" fill="var(--svg-illustration-color-2)"/>
    <path d="M292.723 321.501L299.016 316.403C298.702 315.775 298.232 315.305 297.682 314.834L262.38 285.023C262.145 284.866 261.988 284.709 261.753 284.552C261.596 284.474 261.36 284.317 261.125 284.317L225.823 273.334C225.431 273.177 224.882 273.177 224.489 273.413L219.076 276.551L292.723 321.501Z" fill="var(--svg-illustration-color-2)"/>
    <path d="M254.569 407.169C254.962 407.718 255.432 408.188 256.06 408.581C256.531 408.895 257.001 408.973 257.55 408.895L292.853 402.619C293.009 402.619 293.166 402.54 293.323 402.462C293.872 402.069 294.186 401.363 294.108 400.736V322.208C294.108 321.267 293.794 320.325 293.323 319.541C293.009 318.913 292.539 318.443 291.99 317.972L256.687 288.161C256.531 288.004 256.295 287.847 256.06 287.69C255.903 287.612 255.668 287.455 255.432 287.455L220.13 276.472C219.738 276.315 219.189 276.315 218.796 276.551C218.247 276.943 217.933 277.649 218.012 278.276V356.726C218.012 357.667 218.326 358.609 218.796 359.393C218.953 359.628 219.032 359.864 219.267 360.021L254.569 407.169Z" fill="var(--svg-illustration-color-3)"/>
    <path d="M240.178 336.794C237.781 331.563 236.359 326.006 236.359 320.881C236.358 307.982 245.344 302.713 256.429 309.113C267.514 315.514 276.501 331.16 276.501 344.059C276.501 349.183 275.083 353.101 272.682 355.562L263.039 331.782L262.105 333.069L263.048 338.7L256.429 321.686L252.328 327.366L253.283 333.061L249.808 324.146L240.174 336.792L240.178 336.794Z" fill="white"/>
    <path d="M244.458 365.607L241.64 363.98L236.223 343.345L239.564 345.274L242.208 356.146C242.353 356.726 242.513 357.427 242.688 358.245C242.863 359.064 243.009 359.799 243.125 360.449L243.191 360.487C243.307 359.937 243.453 359.365 243.628 358.762C243.803 358.161 243.962 357.647 244.108 357.217L246.773 349.436L250.007 351.303L244.458 365.607Z" fill="white"/>
    <path d="M251.844 352.364L256.683 355.158C257.497 355.628 258.252 356.175 258.948 356.801C259.643 357.424 260.245 358.114 260.756 358.871C261.267 359.627 261.671 360.448 261.967 361.329C262.264 362.209 262.412 363.131 262.412 364.088C262.412 365.85 261.935 366.967 260.98 367.433C260.024 367.899 258.556 367.56 256.574 366.416L255.021 365.52L255.021 371.706L251.847 369.873L251.847 352.366L251.844 352.364ZM259.215 362.292C259.215 361.934 259.167 361.558 259.071 361.17C258.975 360.78 258.822 360.402 258.615 360.034C258.407 359.666 258.138 359.313 257.805 358.976C257.472 358.639 257.076 358.336 256.617 358.071L255.019 357.148L255.019 362.565L256.551 363.45C257.085 363.758 257.52 363.933 257.86 363.973C258.2 364.016 258.471 363.97 258.67 363.837C258.87 363.705 259.01 363.498 259.092 363.221C259.174 362.944 259.215 362.632 259.215 362.29L259.215 362.292Z" fill="white"/>
    <path d="M266.971 366.591C266.971 366.797 266.978 367.054 266.994 367.362C267.009 367.67 267.02 367.98 267.03 368.294C267.037 368.607 267.044 368.909 267.053 369.207C267.06 369.501 267.065 369.752 267.065 369.958L267.065 378.66L264.25 377.035L264.249 359.527L267.065 361.152L271.417 371.186C271.783 372.015 272.092 372.736 272.343 373.351C272.595 373.968 272.816 374.515 273.007 374.992C273.197 375.471 273.357 375.888 273.487 376.245C273.616 376.601 273.734 376.922 273.842 377.206L273.91 377.246C273.91 377.024 273.905 376.768 273.898 376.482C273.891 376.196 273.882 375.903 273.875 375.609C273.868 375.315 273.858 375.027 273.851 374.749C273.844 374.47 273.839 374.238 273.839 374.048L273.839 365.064L276.655 366.689L276.655 384.197L273.84 382.572L269.855 373.417C269.413 372.376 269.039 371.49 268.733 370.768C268.427 370.043 268.171 369.425 267.966 368.914C267.759 368.402 267.585 367.966 267.439 367.608C267.293 367.249 267.168 366.929 267.06 366.645L266.969 366.592L266.971 366.591Z" fill="white"/>
    <path d="M151.962 365.708C151.962 365.708 151.962 369.006 151.962 369.948C151.962 371.204 151.02 372.617 149.135 373.559L97.6329 403.079C94.3355 404.963 89.1538 405.277 86.3274 403.55L59.9481 388.476C58.8489 388.005 58.0638 386.749 58.0638 385.493C58.0638 384.237 58.0638 381.41 58.0638 381.41L151.962 365.708Z" fill="var(--svg-illustration-color-2)"/>
    <path d="M123.698 348.75L150.078 363.824C153.061 365.552 152.59 368.378 149.293 370.262L97.7899 399.782C94.4925 401.666 89.3108 401.98 86.4845 400.253L60.1051 385.179C57.2787 383.452 57.5928 380.625 60.8902 378.741L112.393 349.221C115.69 347.337 120.715 347.18 123.698 348.75Z" fill="var(--svg-illustration-color-4)"/>
    <path d="M118.419 352.99L141.658 366.337C144.17 367.75 143.856 370.419 140.873 372.146L99.5766 396.171C96.5932 397.898 92.0396 398.055 89.5273 396.642L66.2883 383.295C63.776 381.882 64.09 379.212 67.0734 377.485L108.37 353.461C111.353 351.734 115.75 351.577 118.419 352.99Z" fill="var(--svg-illustration-color-1)"/>
    <path d="M100.048 364.609C100.048 364.609 97.3783 365.865 93.7669 367.75C91.5686 368.849 91.7256 371.989 91.7256 375.13C91.7256 376.857 92.1967 378.741 92.8248 380.468C95.6511 381.096 98.4775 381.41 101.304 381.567C104.601 381.41 106.957 381.567 108.684 380.468C111.51 378.741 117.163 375.13 117.163 375.13L111.824 366.65L100.048 364.609Z" fill="white"/>
    <path d="M107.427 375.13H98.9483C98.3202 375.13 97.8491 374.659 97.8491 374.031V370.891C97.8491 370.263 98.3202 369.792 98.9483 369.792C99.5764 369.792 100.047 370.263 100.047 370.891V372.932H107.427C108.055 372.932 108.527 373.403 108.527 374.031C108.527 374.659 108.055 375.13 107.427 375.13Z" fill="var(--svg-illustration-color-1)"/>
    <path d="M309.264 469.463L345.801 491.115L289.98 523.255L250.736 500.334L309.264 469.463Z" fill="url(#paint2_linear_152_33779)" fill-opacity="0.3"/>
    <path fill-rule="evenodd" clip-rule="evenodd" d="M309.728 468.784V463.207L108.1 410.675V416.144C108.135 416.486 108.257 416.813 108.454 417.093C108.652 417.372 108.918 417.595 109.227 417.739L113.769 420.387L251.247 500.688C252.093 501.118 253.027 501.343 253.975 501.343C254.922 501.343 255.856 501.118 256.702 500.688L308.608 470.38C308.916 470.236 309.182 470.013 309.38 469.733C309.577 469.453 309.7 469.126 309.734 468.784" fill="var(--svg-illustration-color-2)"/>
    <path fill-rule="evenodd" clip-rule="evenodd" d="M309.728 463.377C309.693 463.036 309.57 462.709 309.373 462.429C309.175 462.15 308.909 461.927 308.601 461.783L166.589 378.853C165.743 378.422 164.809 378.197 163.862 378.197C162.914 378.197 161.98 378.422 161.134 378.853L109.251 409.154C108.917 409.262 108.625 409.475 108.419 409.762C108.212 410.048 108.1 410.394 108.1 410.749C108.1 411.104 108.212 411.449 108.419 411.736C108.625 412.023 108.917 412.236 109.251 412.344L251.252 495.273C252.098 495.705 253.032 495.929 253.98 495.929C254.927 495.929 255.861 495.705 256.707 495.273L308.608 464.972C308.916 464.828 309.182 464.605 309.38 464.326C309.577 464.046 309.7 463.719 309.734 463.377" fill="var(--svg-illustration-color-4)"/>
    <path fill-rule="evenodd" clip-rule="evenodd" d="M161.214 429.941V431.524C161.229 431.693 161.287 431.854 161.384 431.993C161.48 432.132 161.611 432.243 161.764 432.315L221.875 467.133C222.297 467.35 222.765 467.463 223.24 467.463C223.714 467.463 224.182 467.35 224.604 467.133L230.077 463.968C230.231 463.896 230.362 463.785 230.459 463.646C230.556 463.507 230.615 463.345 230.63 463.176V461.594L161.205 429.941H161.214ZM154.136 417.28H139.352V418.863C139.371 419.033 139.434 419.195 139.533 419.333C139.632 419.472 139.766 419.582 139.92 419.654L145.377 422.82C145.779 423.038 146.229 423.153 146.687 423.152H146.811C147.263 423.152 147.708 423.038 148.104 422.82L153.577 419.654C153.732 419.583 153.865 419.472 153.965 419.334C154.064 419.195 154.127 419.033 154.145 418.863V417.28H154.136ZM165.077 410.95H150.284V412.533C150.304 412.702 150.366 412.864 150.466 413.002C150.565 413.141 150.698 413.252 150.852 413.324L156.309 416.489C156.731 416.706 157.199 416.819 157.673 416.819C158.147 416.819 158.614 416.706 159.037 416.489L164.509 413.324C164.663 413.252 164.796 413.141 164.896 413.002C164.995 412.864 165.058 412.702 165.077 412.533V410.95ZM181.467 407.785H166.671V409.367C166.69 409.537 166.753 409.699 166.852 409.837C166.952 409.976 167.085 410.086 167.239 410.159L172.696 413.324C173.099 413.542 173.55 413.656 174.008 413.656H174.132C174.585 413.657 175.031 413.542 175.428 413.324L180.901 410.159C181.055 410.087 181.188 409.976 181.288 409.837C181.387 409.699 181.45 409.537 181.469 409.367V407.785H181.467ZM186.926 398.289H172.13V399.872C172.15 400.041 172.212 400.203 172.311 400.342C172.411 400.48 172.544 400.591 172.698 400.663L178.171 403.828C178.568 404.047 179.013 404.161 179.465 404.161H179.589C180.046 404.161 180.496 404.047 180.899 403.828L186.356 400.663C186.51 400.591 186.643 400.48 186.742 400.341C186.842 400.203 186.904 400.041 186.924 399.872V398.289H186.926ZM197.856 404.62H183.06V406.202C183.08 406.372 183.142 406.534 183.242 406.673C183.342 406.811 183.476 406.922 183.63 406.993L189.103 410.159C189.5 410.377 189.945 410.492 190.397 410.491H190.521C190.978 410.491 191.429 410.377 191.831 410.159L197.288 406.993C197.442 406.922 197.576 406.811 197.676 406.673C197.776 406.534 197.839 406.372 197.858 406.202V404.62H197.856ZM208.756 410.95H193.958V412.533C193.978 412.702 194.041 412.864 194.14 413.002C194.239 413.141 194.372 413.252 194.527 413.324L199.984 416.489C200.386 416.708 200.836 416.822 201.293 416.822H201.401C201.864 416.822 202.32 416.708 202.729 416.489L208.186 413.324C208.34 413.252 208.473 413.141 208.573 413.002C208.672 412.864 208.735 412.702 208.754 412.533V410.95H208.756ZM219.799 417.28H205.001V418.863C205.02 419.033 205.083 419.194 205.182 419.333C205.282 419.471 205.415 419.582 205.569 419.654L211.026 422.82C211.428 423.038 211.878 423.152 212.336 423.152H212.46C212.912 423.153 213.357 423.038 213.754 422.82L219.229 419.654C219.383 419.582 219.516 419.472 219.616 419.333C219.715 419.195 219.778 419.033 219.797 418.863V417.28H219.799ZM214.243 426.776H199.447V428.359C199.467 428.528 199.529 428.69 199.629 428.828C199.728 428.967 199.861 429.077 200.015 429.15L205.488 432.315C205.884 432.534 206.329 432.648 206.782 432.648H206.912C207.371 432.648 207.822 432.534 208.224 432.315L213.679 429.15C213.836 429.081 213.971 428.971 214.071 428.832C214.171 428.693 214.232 428.53 214.247 428.359V426.776H214.243ZM225.179 433.107H210.379V434.689C210.399 434.859 210.461 435.021 210.56 435.159C210.66 435.298 210.793 435.408 210.947 435.481L216.422 438.646C216.819 438.863 217.264 438.976 217.716 438.976H217.838C218.296 438.976 218.746 438.863 219.15 438.646L224.607 435.481C224.761 435.408 224.894 435.298 224.993 435.159C225.093 435.021 225.155 434.859 225.175 434.689V433.107H225.179ZM230.632 423.611H215.852V425.194C215.868 425.364 215.93 425.528 216.03 425.667C216.13 425.806 216.266 425.916 216.422 425.985L221.877 429.15C222.299 429.368 222.767 429.482 223.242 429.482C223.717 429.482 224.185 429.368 224.607 429.15L230.08 425.985C230.233 425.913 230.364 425.802 230.461 425.663C230.558 425.524 230.617 425.362 230.632 425.194V423.611ZM241.564 429.941H226.768V431.524C226.787 431.694 226.849 431.856 226.949 431.995C227.048 432.133 227.182 432.244 227.336 432.315L232.809 435.481C233.232 435.697 233.699 435.811 234.174 435.811C234.649 435.811 235.116 435.697 235.539 435.481L240.994 432.315C241.15 432.245 241.285 432.135 241.385 431.996C241.485 431.858 241.547 431.695 241.564 431.524V429.941ZM219.797 442.602H205.001V444.185C205.021 444.354 205.083 444.516 205.183 444.655C205.282 444.793 205.415 444.904 205.569 444.976L211.026 448.142C211.428 448.36 211.878 448.474 212.336 448.474H212.46C212.912 448.475 213.357 448.36 213.754 448.142L219.229 444.976C219.383 444.904 219.516 444.793 219.615 444.655C219.715 444.516 219.777 444.355 219.797 444.185V442.602ZM236.105 439.437H221.311V441.02C221.33 441.189 221.392 441.351 221.491 441.49C221.59 441.628 221.723 441.739 221.877 441.811L227.336 444.976C227.761 445.195 228.231 445.309 228.708 445.309C229.185 445.309 229.655 445.195 230.08 444.976L235.539 441.811C235.693 441.739 235.826 441.628 235.925 441.49C236.024 441.351 236.086 441.189 236.105 441.02V439.437ZM230.632 448.933H215.852V450.515C215.869 450.686 215.93 450.849 216.031 450.988C216.131 451.127 216.266 451.237 216.422 451.307L221.877 454.472C222.299 454.692 222.767 454.806 223.242 454.806C223.717 454.806 224.185 454.692 224.607 454.472L230.08 451.307C230.233 451.235 230.364 451.124 230.461 450.985C230.558 450.846 230.617 450.684 230.632 450.515V448.933ZM241.564 455.263H226.768V456.846C226.787 457.016 226.849 457.178 226.949 457.317C227.048 457.455 227.182 457.566 227.336 457.637L232.809 460.802C233.231 461.021 233.699 461.135 234.174 461.135C234.649 461.135 235.117 461.021 235.539 460.802L240.994 457.637C241.15 457.568 241.285 457.458 241.385 457.319C241.485 457.18 241.547 457.017 241.564 456.846V455.263ZM247.037 445.768H232.241V447.35C232.26 447.52 232.322 447.682 232.422 447.82C232.521 447.959 232.655 448.07 232.809 448.142L238.266 451.307C238.668 451.525 239.119 451.639 239.576 451.639H239.7C240.152 451.64 240.597 451.525 240.994 451.307L246.469 448.142C246.623 448.07 246.757 447.959 246.856 447.82C246.955 447.682 247.018 447.52 247.037 447.35V445.768ZM252.494 436.272H237.698V437.854C237.718 438.024 237.781 438.185 237.881 438.324C237.98 438.462 238.113 438.573 238.266 438.646L243.741 441.811C244.137 442.031 244.583 442.146 245.035 442.146H245.159C245.617 442.145 246.067 442.03 246.469 441.811L251.926 438.646C252.08 438.573 252.213 438.463 252.312 438.324C252.412 438.186 252.474 438.024 252.494 437.854V436.272ZM263.424 442.602H248.63V444.185C248.649 444.354 248.711 444.516 248.81 444.655C248.909 444.793 249.042 444.904 249.196 444.976L254.655 448.142C255.08 448.36 255.551 448.474 256.028 448.474C256.505 448.474 256.976 448.36 257.401 448.142L262.858 444.976C263.012 444.904 263.145 444.793 263.244 444.655C263.343 444.516 263.405 444.354 263.424 444.185V442.602ZM257.969 452.098H243.173V453.681C243.188 453.852 243.249 454.015 243.349 454.155C243.449 454.294 243.584 454.404 243.741 454.472L249.196 457.637C249.619 457.854 250.086 457.967 250.561 457.967C251.035 457.967 251.503 457.854 251.926 457.637L257.401 454.472C257.555 454.4 257.688 454.289 257.788 454.151C257.887 454.012 257.95 453.85 257.969 453.681V452.098ZM274.356 448.933H259.56V450.515C259.58 450.685 259.642 450.847 259.741 450.985C259.841 451.124 259.974 451.234 260.128 451.307L265.585 454.472C265.987 454.692 266.437 454.807 266.895 454.807H267.019C267.472 454.808 267.918 454.692 268.315 454.472L273.788 451.307C273.942 451.235 274.076 451.125 274.176 450.986C274.275 450.847 274.337 450.685 274.356 450.515V448.933ZM268.883 458.429H254.103V460.011C254.117 460.18 254.176 460.342 254.273 460.481C254.37 460.62 254.502 460.731 254.655 460.802L260.128 463.968C260.55 464.186 261.018 464.3 261.493 464.3C261.968 464.3 262.436 464.186 262.858 463.968L268.315 460.802C268.471 460.733 268.606 460.623 268.706 460.484C268.805 460.345 268.867 460.182 268.883 460.011V458.429ZM285.288 455.263H270.492V456.846C270.511 457.016 270.573 457.178 270.672 457.317C270.772 457.455 270.906 457.566 271.06 457.637L276.517 460.802C276.939 461.021 277.407 461.135 277.881 461.135C278.356 461.135 278.823 461.021 279.245 460.802L284.72 457.637C284.874 457.565 285.007 457.454 285.107 457.316C285.206 457.177 285.268 457.015 285.288 456.846V455.263ZM296.202 461.594H281.422V463.176C281.436 463.345 281.495 463.508 281.592 463.647C281.689 463.786 281.821 463.896 281.974 463.968L287.447 467.133C287.869 467.35 288.337 467.463 288.811 467.463C289.285 467.463 289.753 467.35 290.175 467.133L295.634 463.968C295.79 463.898 295.925 463.788 296.025 463.649C296.124 463.51 296.186 463.347 296.202 463.176V461.594ZM263.424 467.924H248.63V469.507C248.649 469.676 248.71 469.838 248.81 469.977C248.909 470.116 249.042 470.226 249.196 470.298L254.655 473.463C255.064 473.681 255.52 473.794 255.983 473.793H256.089C256.547 473.794 256.997 473.68 257.401 473.463L262.858 470.298C263.012 470.226 263.145 470.116 263.244 469.977C263.344 469.838 263.405 469.676 263.424 469.507V467.924ZM252.494 474.255H237.698V475.837C237.717 476.007 237.78 476.169 237.879 476.307C237.979 476.446 238.112 476.557 238.266 476.629L243.741 479.794C244.138 480.011 244.583 480.126 245.035 480.126H245.159C245.616 480.126 246.066 480.011 246.469 479.794L251.926 476.629C252.08 476.557 252.214 476.446 252.313 476.308C252.413 476.169 252.475 476.007 252.494 475.837V474.255ZM263.424 480.585H248.63V482.168C248.649 482.337 248.711 482.499 248.81 482.637C248.909 482.776 249.042 482.887 249.196 482.959L254.655 486.124C255.064 486.343 255.52 486.457 255.983 486.457H256.089C256.547 486.457 256.998 486.343 257.401 486.124L262.858 482.959C263.012 482.887 263.145 482.776 263.244 482.637C263.343 482.499 263.405 482.337 263.424 482.168V480.585ZM252.494 461.594H237.698V463.176C237.718 463.346 237.781 463.507 237.88 463.646C237.979 463.784 238.112 463.895 238.266 463.968L243.741 467.133C244.138 467.35 244.583 467.465 245.035 467.465H245.159C245.616 467.465 246.066 467.35 246.469 467.133L251.926 463.968C252.08 463.895 252.213 463.785 252.313 463.646C252.412 463.508 252.474 463.346 252.494 463.176V461.594ZM241.564 467.924H226.768V469.507C226.787 469.677 226.849 469.839 226.948 469.978C227.048 470.116 227.182 470.227 227.336 470.298L232.809 473.463C233.232 473.68 233.699 473.793 234.174 473.793C234.649 473.793 235.116 473.68 235.539 473.463L240.994 470.298C241.15 470.229 241.286 470.119 241.386 469.98C241.486 469.841 241.548 469.678 241.564 469.507V467.924ZM208.754 436.272H193.958V437.854C193.979 438.024 194.041 438.185 194.141 438.324C194.24 438.462 194.373 438.573 194.527 438.646L199.984 441.811C200.409 442.028 200.879 442.141 201.356 442.141C201.833 442.141 202.304 442.028 202.729 441.811L208.186 438.646C208.34 438.573 208.473 438.463 208.573 438.324C208.672 438.186 208.734 438.024 208.754 437.854V436.272ZM203.313 420.446H188.533V422.028C188.55 422.199 188.611 422.361 188.711 422.5C188.81 422.639 188.945 422.748 189.101 422.817L194.558 425.983C194.98 426.201 195.447 426.315 195.922 426.315C196.396 426.315 196.864 426.201 197.285 425.983L202.758 422.817C202.91 422.745 203.041 422.635 203.137 422.496C203.233 422.358 203.292 422.196 203.306 422.028V420.446H203.313ZM192.39 414.115H177.61V415.698C177.629 415.867 177.691 416.029 177.791 416.168C177.89 416.306 178.024 416.417 178.178 416.489L183.637 419.654C184.039 419.873 184.489 419.987 184.947 419.987H185.071C185.523 419.987 185.968 419.873 186.365 419.654L191.837 416.489C191.991 416.417 192.125 416.306 192.224 416.168C192.323 416.029 192.386 415.867 192.405 415.698V414.115H192.39ZM186.933 423.611H172.13V425.194C172.149 425.363 172.211 425.525 172.311 425.664C172.41 425.803 172.544 425.913 172.698 425.985L178.171 429.15C178.568 429.368 179.013 429.482 179.465 429.482H179.589C180.046 429.482 180.496 429.368 180.899 429.15L186.356 425.985C186.51 425.913 186.643 425.802 186.743 425.664C186.842 425.525 186.904 425.363 186.924 425.194V423.611H186.933ZM175.994 417.28H161.214V418.863C161.228 419.032 161.287 419.194 161.383 419.333C161.48 419.472 161.611 419.583 161.764 419.654L167.239 422.82C167.661 423.038 168.128 423.152 168.603 423.152C169.077 423.152 169.545 423.038 169.966 422.82L175.423 419.654C175.58 419.585 175.714 419.475 175.814 419.336C175.914 419.197 175.975 419.034 175.992 418.863V417.28H175.994ZM165.075 423.611H150.284V425.194C150.304 425.363 150.366 425.525 150.465 425.663C150.565 425.802 150.698 425.913 150.852 425.985L156.309 429.15C156.731 429.368 157.198 429.482 157.673 429.482C158.147 429.482 158.615 429.368 159.037 429.15L164.509 425.985C164.664 425.913 164.797 425.802 164.896 425.663C164.996 425.525 165.058 425.363 165.077 425.194V423.611H165.075ZM125.693 409.367V410.95C125.712 411.12 125.774 411.281 125.873 411.42C125.973 411.559 126.106 411.669 126.261 411.741L134.447 416.489C134.872 416.706 135.342 416.819 135.819 416.819C136.296 416.819 136.766 416.706 137.19 416.489L142.65 413.324C142.803 413.251 142.936 413.141 143.035 413.002C143.134 412.864 143.196 412.702 143.215 412.533V410.95L125.693 409.367ZM136.622 403.037V404.62C136.639 404.79 136.7 404.953 136.799 405.092C136.899 405.231 137.034 405.341 137.19 405.411L145.377 410.159C145.779 410.377 146.229 410.492 146.687 410.491H146.811C147.263 410.491 147.708 410.377 148.104 410.159L153.577 406.993C153.732 406.922 153.865 406.811 153.965 406.673C154.064 406.534 154.127 406.372 154.145 406.202V404.62L136.622 403.037ZM265.015 464.759V466.342C265.035 466.511 265.097 466.673 265.197 466.811C265.296 466.95 265.429 467.06 265.583 467.133L269.667 469.505L259.542 474.252V475.837C259.561 476.007 259.624 476.169 259.723 476.307C259.823 476.446 259.956 476.557 260.11 476.629L265.567 479.794C265.97 480.011 266.42 480.125 266.877 480.126H267.001C267.454 480.126 267.899 480.012 268.297 479.794L284.702 470.298C284.859 470.228 284.996 470.118 285.098 469.98C285.2 469.841 285.265 469.678 285.286 469.507V467.924L265.015 464.759ZM147.554 396.706V398.289C147.569 398.458 147.628 398.62 147.725 398.759C147.822 398.898 147.954 399.009 148.107 399.08L161.766 406.993C162.175 407.212 162.631 407.326 163.094 407.326H163.202C163.659 407.326 164.109 407.212 164.512 406.993L169.969 403.828C170.123 403.756 170.256 403.645 170.355 403.507C170.455 403.368 170.517 403.207 170.537 403.037V401.454L147.545 396.706H147.554ZM158.46 390.376V391.959C158.479 392.128 158.542 392.29 158.641 392.428C158.74 392.567 158.874 392.677 159.028 392.75L167.23 397.498C167.652 397.715 168.12 397.828 168.594 397.828C169.068 397.828 169.535 397.715 169.957 397.498L175.414 394.333C175.571 394.263 175.705 394.153 175.805 394.014C175.905 393.875 175.966 393.712 175.982 393.541V391.959L158.457 390.376H158.46Z" fill="var(--svg-illustration-color-2)"/>
    <path d="M183.206 430.297C183.306 430.158 183.656 430.689 183.812 430.62L189.301 427.448C189.715 427.22 190.181 427.105 190.653 427.115C191.127 427.109 191.595 427.226 192.01 427.454L197.467 430.62C197.624 430.689 197.991 430.158 198.091 430.297C198.091 430.973 198.02 431.24 198.035 431.411C198.016 431.581 197.954 431.742 197.854 431.881C197.755 432.02 197.622 432.13 197.467 432.202L192.01 435.368C191.589 435.596 191.116 435.71 190.638 435.698C190.166 435.709 189.699 435.595 189.285 435.368L183.812 432.202C183.658 432.13 183.524 432.02 183.424 431.881C183.325 431.743 183.262 431.581 183.242 431.411C183.259 431.24 183.206 430.62 183.206 430.297Z" fill="var(--svg-illustration-color-2)"/>
    <path fill-rule="evenodd" clip-rule="evenodd" d="M238.266 473.692C238.11 473.762 237.976 473.871 237.876 474.01C237.776 474.148 237.715 474.311 237.698 474.481C237.718 474.651 237.78 474.813 237.879 474.951C237.979 475.09 238.112 475.2 238.266 475.273L243.741 478.438C244.155 478.666 244.622 478.781 245.094 478.773C245.572 478.781 246.045 478.666 246.466 478.438L251.923 475.273C252.078 475.201 252.211 475.09 252.311 474.952C252.41 474.813 252.473 474.651 252.492 474.481C252.475 474.311 252.414 474.148 252.314 474.009C252.215 473.871 252.08 473.761 251.923 473.692L246.466 470.527C246.045 470.3 245.572 470.187 245.094 470.197C244.622 470.187 244.156 470.301 243.741 470.527L238.266 473.692ZM227.336 467.362C227.18 467.431 227.045 467.541 226.945 467.68C226.846 467.819 226.784 467.983 226.768 468.153C226.787 468.323 226.849 468.485 226.949 468.624C227.048 468.763 227.182 468.873 227.336 468.945L232.809 472.11C233.232 472.327 233.699 472.44 234.174 472.44C234.649 472.44 235.116 472.327 235.539 472.11L240.994 468.945C241.15 468.875 241.285 468.765 241.385 468.626C241.485 468.487 241.547 468.324 241.564 468.153C241.551 467.981 241.491 467.817 241.39 467.677C241.289 467.537 241.152 467.428 240.994 467.362L235.539 464.197C235.117 463.978 234.649 463.865 234.174 463.865C233.699 463.865 233.231 463.978 232.809 464.197L227.336 467.362ZM161.764 429.38C161.61 429.45 161.478 429.561 161.382 429.7C161.285 429.839 161.227 430.002 161.214 430.171C161.229 430.339 161.287 430.501 161.384 430.64C161.48 430.779 161.611 430.89 161.764 430.962L221.875 465.779C222.297 465.997 222.765 466.11 223.24 466.11C223.714 466.11 224.182 465.997 224.604 465.779L230.077 462.614C230.231 462.543 230.362 462.432 230.459 462.293C230.556 462.154 230.615 461.992 230.63 461.823C230.616 461.654 230.558 461.491 230.461 461.352C230.364 461.213 230.231 461.102 230.077 461.032L169.966 426.214C169.544 425.997 169.077 425.884 168.603 425.884C168.128 425.884 167.661 425.997 167.239 426.214L161.764 429.38ZM150.85 423.049C150.694 423.119 150.559 423.229 150.459 423.368C150.359 423.507 150.298 423.67 150.282 423.84C150.301 424.01 150.364 424.172 150.463 424.31C150.563 424.449 150.696 424.559 150.85 424.632L156.307 427.797C156.729 428.015 157.196 428.129 157.671 428.129C158.145 428.129 158.613 428.015 159.034 427.797L164.507 424.632C164.661 424.559 164.794 424.449 164.894 424.31C164.993 424.172 165.056 424.01 165.075 423.84C165.059 423.67 164.998 423.507 164.898 423.368C164.798 423.229 164.663 423.119 164.507 423.049L159.034 419.884C158.613 419.666 158.145 419.552 157.671 419.552C157.196 419.552 156.729 419.666 156.307 419.884L150.85 423.049ZM139.92 416.719C139.764 416.788 139.628 416.898 139.529 417.037C139.429 417.176 139.368 417.339 139.352 417.51C139.371 417.679 139.433 417.841 139.533 417.979C139.632 418.117 139.766 418.228 139.92 418.299L145.377 421.464C145.798 421.693 146.271 421.808 146.75 421.797C147.222 421.806 147.688 421.692 148.102 421.464L153.575 418.299C153.729 418.228 153.863 418.118 153.962 417.979C154.062 417.841 154.124 417.679 154.143 417.51C154.128 417.339 154.067 417.176 153.967 417.037C153.867 416.897 153.732 416.788 153.575 416.719L148.102 413.554C147.688 413.326 147.222 413.212 146.75 413.221C146.271 413.21 145.798 413.325 145.377 413.554L139.92 416.719ZM126.261 408.806C126.104 408.875 125.969 408.985 125.87 409.124C125.77 409.263 125.709 409.426 125.693 409.597C125.712 409.767 125.774 409.929 125.873 410.067C125.973 410.206 126.106 410.316 126.261 410.388L134.447 415.136C134.872 415.353 135.342 415.467 135.819 415.467C136.296 415.467 136.766 415.353 137.19 415.136L142.65 411.971C142.803 411.898 142.936 411.788 143.035 411.649C143.134 411.511 143.196 411.349 143.215 411.18C143.2 411.009 143.139 410.846 143.039 410.707C142.94 410.568 142.805 410.458 142.65 410.388L134.447 405.641C134.033 405.413 133.567 405.299 133.095 405.308C132.616 405.297 132.143 405.412 131.722 405.641L126.261 408.806ZM249.165 467.362C249.008 467.431 248.873 467.541 248.774 467.68C248.674 467.819 248.613 467.983 248.597 468.153C248.616 468.323 248.678 468.485 248.778 468.623C248.877 468.762 249.01 468.872 249.165 468.945L254.624 472.11C255.046 472.335 255.518 472.45 255.997 472.442C256.474 472.453 256.947 472.338 257.367 472.11L262.826 468.945C262.98 468.872 263.114 468.762 263.213 468.623C263.312 468.485 263.375 468.323 263.394 468.153C263.378 467.983 263.317 467.819 263.217 467.68C263.117 467.541 262.982 467.431 262.826 467.362L257.367 464.197C256.947 463.968 256.474 463.854 255.997 463.864C255.518 463.857 255.046 463.971 254.624 464.197L249.165 467.362ZM238.266 461.032C238.11 461.101 237.975 461.211 237.876 461.35C237.776 461.489 237.715 461.652 237.698 461.823C237.718 461.992 237.781 462.154 237.88 462.292C237.979 462.431 238.112 462.542 238.266 462.614L243.741 465.779C244.155 466.008 244.622 466.123 245.094 466.112C245.572 466.122 246.045 466.008 246.466 465.779L251.923 462.614C252.078 462.542 252.211 462.431 252.31 462.293C252.41 462.154 252.472 461.992 252.492 461.823C252.476 461.652 252.415 461.489 252.315 461.35C252.215 461.211 252.08 461.101 251.923 461.032L246.466 457.866C246.045 457.638 245.572 457.525 245.094 457.536C244.622 457.525 244.155 457.638 243.741 457.866L238.266 461.032ZM227.336 454.701C227.18 454.772 227.046 454.882 226.946 455.021C226.846 455.161 226.785 455.324 226.768 455.495C226.787 455.665 226.849 455.827 226.949 455.965C227.048 456.104 227.182 456.215 227.336 456.286L232.809 459.451C233.232 459.668 233.699 459.782 234.174 459.782C234.649 459.782 235.116 459.668 235.539 459.451L240.994 456.286C241.15 456.216 241.285 456.107 241.385 455.968C241.485 455.829 241.547 455.665 241.564 455.495C241.55 455.323 241.49 455.158 241.389 455.018C241.289 454.878 241.152 454.768 240.994 454.701L235.539 451.536C235.117 451.318 234.649 451.204 234.174 451.204C233.699 451.204 233.231 451.318 232.809 451.536L227.336 454.701ZM216.422 448.371C216.264 448.437 216.126 448.546 216.026 448.686C215.925 448.825 215.865 448.99 215.852 449.162C215.868 449.333 215.93 449.496 216.03 449.635C216.13 449.774 216.266 449.884 216.422 449.953L221.877 453.119C222.299 453.337 222.767 453.451 223.242 453.451C223.717 453.451 224.185 453.337 224.607 453.119L230.08 449.953C230.233 449.882 230.364 449.771 230.461 449.632C230.558 449.493 230.617 449.331 230.632 449.162C230.62 448.992 230.562 448.829 230.465 448.69C230.367 448.551 230.234 448.44 230.08 448.371L224.607 445.206C224.185 444.987 223.717 444.873 223.242 444.873C222.767 444.873 222.299 444.987 221.877 445.206L216.422 448.371ZM205.49 442.04C205.334 442.11 205.199 442.219 205.099 442.359C204.999 442.498 204.938 442.661 204.922 442.832C204.941 443.001 205.004 443.163 205.103 443.302C205.203 443.44 205.336 443.551 205.49 443.623L210.947 446.788C211.369 447.016 211.841 447.13 212.32 447.121C212.792 447.13 213.258 447.015 213.672 446.788L219.147 443.623C219.301 443.55 219.434 443.44 219.534 443.301C219.633 443.163 219.696 443.001 219.715 442.832C219.699 442.661 219.638 442.498 219.538 442.359C219.438 442.22 219.303 442.11 219.147 442.04L213.672 438.875C213.259 438.645 212.792 438.529 212.32 438.541C211.841 438.529 211.368 438.645 210.947 438.875L205.49 442.04ZM194.56 435.71C194.404 435.779 194.269 435.888 194.169 436.027C194.069 436.166 194.008 436.329 193.992 436.499C194.011 436.669 194.074 436.831 194.173 436.97C194.272 437.109 194.406 437.22 194.56 437.293L200.017 440.458C200.442 440.676 200.913 440.79 201.39 440.79C201.867 440.79 202.338 440.676 202.763 440.458L208.22 437.293C208.374 437.22 208.508 437.109 208.607 436.97C208.707 436.831 208.769 436.669 208.788 436.499C208.772 436.329 208.711 436.166 208.611 436.027C208.511 435.888 208.376 435.779 208.22 435.71L202.763 432.545C202.338 432.326 201.867 432.212 201.39 432.212C200.913 432.212 200.442 432.326 200.017 432.545L194.56 435.71ZM172.698 423.049C172.542 423.118 172.407 423.228 172.307 423.367C172.207 423.506 172.146 423.67 172.13 423.84C172.149 424.01 172.211 424.172 172.311 424.311C172.41 424.45 172.544 424.56 172.698 424.632L178.171 427.797C178.585 428.025 179.052 428.14 179.524 428.129C180.002 428.14 180.475 428.026 180.896 427.797L186.353 424.632C186.508 424.56 186.641 424.449 186.74 424.311C186.84 424.172 186.902 424.01 186.921 423.84C186.905 423.67 186.844 423.507 186.744 423.368C186.644 423.229 186.509 423.119 186.353 423.049L180.896 419.884C180.477 419.653 180.006 419.537 179.528 419.545C179.056 419.535 178.59 419.649 178.176 419.877L172.698 423.049ZM161.766 416.719C161.613 416.79 161.481 416.9 161.384 417.039C161.287 417.178 161.229 417.341 161.216 417.51C161.231 417.678 161.289 417.84 161.386 417.979C161.482 418.117 161.613 418.228 161.766 418.299L167.241 421.464C167.663 421.683 168.131 421.796 168.605 421.796C169.079 421.796 169.547 421.683 169.969 421.464L175.426 418.299C175.582 418.23 175.717 418.121 175.817 417.982C175.917 417.843 175.978 417.68 175.994 417.51C175.981 417.338 175.921 417.174 175.821 417.034C175.721 416.894 175.584 416.785 175.426 416.719L169.969 413.554C169.547 413.335 169.079 413.221 168.605 413.221C168.131 413.221 167.663 413.335 167.241 413.554L161.766 416.719ZM150.852 410.388C150.696 410.458 150.561 410.568 150.461 410.707C150.361 410.846 150.3 411.009 150.284 411.18C150.304 411.349 150.366 411.511 150.466 411.649C150.565 411.788 150.698 411.898 150.852 411.971L156.309 415.136C156.731 415.353 157.199 415.466 157.673 415.466C158.147 415.466 158.615 415.353 159.037 415.136L164.509 411.971C164.663 411.898 164.796 411.788 164.896 411.649C164.995 411.511 165.058 411.349 165.077 411.18C165.061 411.009 165 410.846 164.9 410.707C164.801 410.568 164.666 410.458 164.509 410.388L159.037 407.223C158.615 407.006 158.147 406.893 157.673 406.893C157.199 406.893 156.731 407.006 156.309 407.223L150.852 410.388ZM137.177 402.475C137.019 402.543 136.883 402.652 136.783 402.791C136.682 402.931 136.622 403.095 136.609 403.267C136.625 403.437 136.686 403.6 136.786 403.74C136.886 403.879 137.021 403.988 137.177 404.058L145.364 408.806C145.785 409.034 146.258 409.149 146.736 409.138C147.208 409.149 147.675 409.034 148.089 408.806L153.562 405.641C153.716 405.568 153.849 405.458 153.949 405.319C154.048 405.181 154.11 405.019 154.13 404.849C154.113 404.679 154.052 404.515 153.952 404.376C153.853 404.237 153.718 404.127 153.562 404.058L145.359 399.31C144.937 399.092 144.47 398.978 143.995 398.978C143.521 398.978 143.053 399.092 142.632 399.31L137.177 402.475ZM254.655 457.866C254.501 457.936 254.368 458.047 254.271 458.186C254.174 458.325 254.116 458.488 254.103 458.658C254.117 458.827 254.176 458.989 254.273 459.128C254.37 459.267 254.502 459.378 254.655 459.449L260.128 462.614C260.55 462.832 261.018 462.946 261.493 462.946C261.968 462.946 262.436 462.832 262.858 462.614L268.315 459.449C268.471 459.379 268.606 459.269 268.706 459.13C268.805 458.991 268.867 458.828 268.883 458.658C268.87 458.486 268.81 458.322 268.709 458.182C268.609 458.043 268.473 457.933 268.315 457.866L262.858 454.701C262.436 454.484 261.968 454.371 261.493 454.371C261.018 454.371 260.551 454.484 260.128 454.701L254.655 457.866ZM285.288 468.153C285.271 467.983 285.21 467.82 285.11 467.681C285.01 467.542 284.876 467.432 284.72 467.362L273.788 461.032C273.367 460.804 272.895 460.69 272.417 460.699C271.945 460.69 271.479 460.804 271.065 461.032L265.59 464.197C265.434 464.266 265.299 464.376 265.199 464.515C265.099 464.654 265.038 464.818 265.022 464.988C265.042 465.158 265.104 465.319 265.204 465.458C265.303 465.596 265.436 465.707 265.59 465.779L269.674 468.153L260.207 473.695C260.051 473.764 259.916 473.873 259.816 474.012C259.716 474.15 259.655 474.313 259.639 474.484C259.658 474.653 259.72 474.815 259.82 474.954C259.919 475.093 260.053 475.203 260.207 475.275L265.664 478.44C266.085 478.668 266.558 478.784 267.037 478.775C267.509 478.783 267.975 478.668 268.389 478.44L284.792 468.945C284.933 468.863 285.051 468.748 285.138 468.611C285.224 468.473 285.276 468.316 285.288 468.153ZM243.741 451.536C243.583 451.602 243.446 451.71 243.346 451.85C243.245 451.989 243.186 452.154 243.173 452.325C243.188 452.496 243.249 452.66 243.349 452.799C243.449 452.938 243.584 453.048 243.741 453.116L249.196 456.281C249.618 456.499 250.086 456.612 250.561 456.612C251.036 456.612 251.503 456.499 251.926 456.281L257.401 453.116C257.555 453.044 257.688 452.934 257.788 452.795C257.887 452.657 257.95 452.495 257.969 452.325C257.952 452.155 257.891 451.992 257.791 451.854C257.691 451.715 257.557 451.605 257.401 451.536L251.926 448.371C251.504 448.152 251.036 448.039 250.561 448.039C250.086 448.039 249.618 448.152 249.196 448.371L243.741 451.536ZM232.809 445.206C232.653 445.275 232.518 445.385 232.419 445.524C232.319 445.663 232.258 445.826 232.241 445.997C232.261 446.166 232.323 446.328 232.423 446.467C232.522 446.605 232.655 446.716 232.809 446.788L238.266 449.953C238.687 450.182 239.16 450.296 239.639 450.286C240.111 450.297 240.578 450.182 240.991 449.953L246.466 446.788C246.62 446.716 246.754 446.605 246.853 446.467C246.952 446.328 247.015 446.166 247.034 445.997C247.019 445.826 246.958 445.663 246.858 445.524C246.758 445.385 246.623 445.275 246.466 445.206L240.991 442.04C240.577 441.813 240.111 441.698 239.639 441.708C239.16 441.698 238.688 441.813 238.266 442.04L232.809 445.206ZM221.877 438.875C221.721 438.944 221.586 439.053 221.487 439.192C221.387 439.331 221.326 439.494 221.311 439.664C221.33 439.834 221.391 439.996 221.491 440.134C221.59 440.273 221.723 440.384 221.877 440.455L227.336 443.621C227.761 443.839 228.231 443.953 228.708 443.953C229.185 443.953 229.655 443.839 230.08 443.621L235.539 440.455C235.693 440.384 235.826 440.273 235.925 440.134C236.025 439.996 236.086 439.834 236.105 439.664C236.089 439.494 236.029 439.331 235.929 439.192C235.83 439.053 235.695 438.944 235.539 438.875L230.08 435.71C229.655 435.492 229.185 435.378 228.708 435.378C228.231 435.378 227.761 435.492 227.336 435.71L221.877 438.875ZM210.947 432.545C210.791 432.614 210.656 432.724 210.556 432.863C210.456 433.002 210.395 433.165 210.379 433.336C210.399 433.506 210.461 433.667 210.56 433.806C210.66 433.944 210.793 434.055 210.947 434.127L216.422 437.293C216.836 437.521 217.303 437.636 217.775 437.625C218.253 437.636 218.726 437.521 219.147 437.293L224.604 434.127C224.759 434.055 224.892 433.944 224.991 433.806C225.091 433.667 225.153 433.506 225.173 433.336C225.157 433.165 225.096 433.002 224.996 432.863C224.896 432.724 224.761 432.614 224.604 432.545L219.147 429.38C218.726 429.151 218.253 429.036 217.775 429.047C217.303 429.036 216.836 429.151 216.422 429.38L210.947 432.545ZM200.015 426.214C199.859 426.284 199.724 426.394 199.624 426.533C199.525 426.672 199.463 426.835 199.447 427.006C199.467 427.175 199.529 427.337 199.629 427.475C199.728 427.614 199.861 427.724 200.015 427.797L205.488 430.962C205.902 431.189 206.368 431.304 206.84 431.295C207.319 431.304 207.792 431.19 208.213 430.962L213.668 427.797C213.824 427.728 213.96 427.618 214.06 427.479C214.16 427.34 214.22 427.176 214.236 427.006C214.224 426.834 214.164 426.669 214.064 426.529C213.963 426.39 213.826 426.281 213.668 426.214L208.213 423.049C207.792 422.821 207.319 422.706 206.84 422.717C206.368 422.707 205.902 422.821 205.488 423.049L200.015 426.214ZM189.101 419.884C188.943 419.951 188.806 420.061 188.706 420.201C188.606 420.341 188.546 420.506 188.533 420.678C188.55 420.848 188.611 421.01 188.711 421.149C188.81 421.288 188.945 421.397 189.101 421.467L194.558 424.632C194.98 424.85 195.447 424.964 195.922 424.964C196.396 424.964 196.864 424.85 197.285 424.632L202.758 421.467C202.92 421.407 203.059 421.299 203.157 421.158C203.256 421.016 203.308 420.848 203.308 420.675C203.308 420.503 203.256 420.334 203.157 420.193C203.059 420.051 202.92 419.944 202.758 419.884L197.285 416.719C196.864 416.501 196.396 416.387 195.922 416.387C195.447 416.387 194.98 416.501 194.558 416.719L189.101 419.884ZM178.185 413.554C178.029 413.623 177.894 413.733 177.795 413.872C177.695 414.011 177.635 414.174 177.619 414.345C177.638 414.514 177.7 414.676 177.799 414.814C177.898 414.953 178.031 415.064 178.185 415.136L183.642 418.301C184.062 418.531 184.536 418.646 185.014 418.634C185.487 418.645 185.953 418.53 186.367 418.301L191.84 415.136C191.994 415.064 192.127 414.953 192.226 414.814C192.326 414.676 192.388 414.514 192.408 414.345C192.392 414.174 192.33 414.011 192.231 413.872C192.131 413.733 191.996 413.623 191.84 413.554L186.367 410.388C185.953 410.161 185.486 410.046 185.014 410.056C184.536 410.045 184.063 410.16 183.642 410.388L178.185 413.554ZM167.239 407.223C167.083 407.293 166.948 407.402 166.848 407.542C166.748 407.681 166.687 407.844 166.671 408.014C166.69 408.184 166.752 408.346 166.851 408.485C166.951 408.623 167.084 408.734 167.239 408.806L172.696 411.971C173.117 412.199 173.59 412.314 174.069 412.303C174.541 412.313 175.007 412.199 175.421 411.971L180.894 408.806C181.048 408.734 181.182 408.623 181.281 408.485C181.381 408.346 181.443 408.184 181.462 408.014C181.446 407.844 181.385 407.681 181.285 407.542C181.185 407.402 181.05 407.293 180.894 407.223L175.421 404.058C175.007 403.83 174.541 403.715 174.069 403.726C173.59 403.715 173.117 403.829 172.696 404.058L167.239 407.223ZM148.107 396.145C147.953 396.215 147.82 396.326 147.723 396.465C147.626 396.604 147.568 396.767 147.554 396.936C147.57 397.105 147.629 397.267 147.725 397.406C147.822 397.545 147.954 397.656 148.107 397.728L161.764 405.641C162.186 405.867 162.658 405.981 163.137 405.973C163.615 405.984 164.088 405.869 164.509 405.641L169.966 402.475C170.121 402.403 170.254 402.292 170.353 402.154C170.453 402.015 170.515 401.854 170.534 401.684C170.519 401.513 170.458 401.35 170.358 401.211C170.258 401.072 170.123 400.962 169.966 400.893L156.307 392.98C155.885 392.761 155.417 392.647 154.942 392.647C154.467 392.647 153.999 392.761 153.577 392.98L148.107 396.145ZM281.974 461.032C281.812 461.09 281.672 461.198 281.572 461.339C281.473 461.481 281.42 461.65 281.42 461.823C281.42 461.996 281.473 462.165 281.572 462.306C281.672 462.448 281.812 462.556 281.974 462.614L287.447 465.779C287.869 465.997 288.337 466.11 288.811 466.11C289.285 466.11 289.753 465.997 290.175 465.779L295.634 462.614C295.79 462.545 295.925 462.435 296.025 462.296C296.124 462.156 296.186 461.993 296.202 461.823C296.189 461.651 296.129 461.487 296.028 461.347C295.928 461.208 295.792 461.099 295.634 461.032L290.175 457.866C289.753 457.649 289.285 457.536 288.811 457.536C288.337 457.536 287.869 457.649 287.447 457.866L281.974 461.032ZM271.06 454.701C270.904 454.771 270.769 454.882 270.669 455.021C270.57 455.16 270.509 455.324 270.492 455.495C270.511 455.664 270.574 455.826 270.673 455.965C270.773 456.104 270.906 456.214 271.06 456.286L276.517 459.451C276.939 459.669 277.407 459.782 277.881 459.782C278.355 459.782 278.823 459.669 279.245 459.451L284.72 456.286C284.874 456.214 285.007 456.103 285.107 455.965C285.206 455.826 285.268 455.664 285.288 455.495C285.271 455.324 285.209 455.161 285.11 455.022C285.01 454.883 284.875 454.772 284.72 454.701L279.245 451.536C278.823 451.317 278.356 451.203 277.881 451.203C277.407 451.203 276.939 451.317 276.517 451.536L271.06 454.701ZM260.207 448.371C260.051 448.44 259.915 448.55 259.816 448.689C259.716 448.828 259.655 448.991 259.639 449.162C259.658 449.332 259.721 449.493 259.82 449.632C259.92 449.77 260.053 449.881 260.207 449.953L265.664 453.119C266.085 453.349 266.558 453.464 267.037 453.453C267.509 453.463 267.976 453.348 268.389 453.119L273.862 449.953C274.016 449.881 274.149 449.77 274.248 449.632C274.348 449.493 274.41 449.332 274.43 449.162C274.414 448.991 274.353 448.828 274.253 448.689C274.153 448.55 274.018 448.44 273.862 448.371L268.389 445.206C267.975 444.979 267.509 444.864 267.037 444.873C266.558 444.864 266.086 444.978 265.664 445.206L260.207 448.371ZM249.162 442.04C249.006 442.11 248.871 442.22 248.772 442.359C248.672 442.498 248.611 442.661 248.594 442.832C248.614 443.001 248.677 443.163 248.776 443.301C248.875 443.44 249.008 443.55 249.162 443.623L254.622 446.788C255.046 447.007 255.516 447.12 255.993 447.12C256.47 447.12 256.94 447.007 257.365 446.788L262.824 443.623C262.978 443.55 263.111 443.44 263.21 443.301C263.31 443.163 263.372 443.001 263.392 442.832C263.376 442.661 263.314 442.498 263.215 442.359C263.115 442.22 262.98 442.11 262.824 442.04L257.365 438.875C256.94 438.657 256.47 438.543 255.993 438.543C255.516 438.543 255.046 438.657 254.622 438.875L249.162 442.04ZM238.264 435.71C238.108 435.779 237.973 435.889 237.874 436.027C237.774 436.166 237.712 436.329 237.696 436.499C237.715 436.669 237.778 436.831 237.877 436.97C237.977 437.109 238.11 437.22 238.264 437.293L243.739 440.458C244.152 440.687 244.619 440.802 245.091 440.79C245.57 440.802 246.044 440.687 246.464 440.458L251.921 437.293C252.076 437.22 252.209 437.109 252.309 436.97C252.408 436.831 252.47 436.669 252.489 436.499C252.473 436.329 252.412 436.166 252.312 436.027C252.212 435.888 252.077 435.779 251.921 435.71L246.464 432.545C246.044 432.315 245.57 432.2 245.091 432.212C244.619 432.2 244.152 432.315 243.739 432.545L238.264 435.71ZM227.334 429.38C227.178 429.449 227.043 429.559 226.943 429.698C226.844 429.837 226.782 430 226.766 430.171C226.785 430.341 226.847 430.502 226.947 430.641C227.046 430.78 227.18 430.89 227.334 430.962L232.807 434.127C233.229 434.345 233.697 434.458 234.172 434.458C234.646 434.458 235.114 434.345 235.537 434.127L240.991 430.962C241.147 430.892 241.282 430.782 241.382 430.643C241.483 430.504 241.544 430.341 241.562 430.171C241.548 429.999 241.488 429.834 241.388 429.695C241.287 429.555 241.15 429.446 240.991 429.38L235.537 426.214C235.114 425.997 234.646 425.884 234.172 425.884C233.697 425.884 233.229 425.997 232.807 426.214L227.334 429.38ZM216.42 423.049C216.261 423.115 216.124 423.224 216.024 423.364C215.923 423.504 215.863 423.669 215.85 423.84C215.866 424.011 215.927 424.175 216.028 424.314C216.128 424.453 216.263 424.563 216.42 424.632L221.875 427.797C222.297 428.015 222.765 428.129 223.24 428.129C223.714 428.129 224.182 428.015 224.604 427.797L230.077 424.632C230.231 424.56 230.362 424.449 230.459 424.31C230.556 424.171 230.615 424.009 230.63 423.84C230.617 423.671 230.559 423.508 230.462 423.369C230.365 423.229 230.232 423.119 230.077 423.049L224.604 419.884C224.182 419.666 223.714 419.552 223.24 419.552C222.765 419.552 222.297 419.666 221.875 419.884L216.42 423.049ZM205.488 416.719C205.331 416.788 205.196 416.897 205.096 417.037C204.996 417.176 204.935 417.339 204.92 417.51C204.939 417.679 205.001 417.841 205.101 417.979C205.2 418.118 205.334 418.228 205.488 418.299L210.945 421.464C211.366 421.693 211.839 421.807 212.318 421.797C212.79 421.808 213.256 421.693 213.67 421.464L219.145 418.299C219.299 418.227 219.432 418.117 219.532 417.979C219.631 417.841 219.694 417.679 219.713 417.51C219.697 417.339 219.636 417.176 219.536 417.037C219.436 416.898 219.301 416.788 219.145 416.719L213.67 413.554C213.256 413.325 212.79 413.21 212.318 413.221C211.839 413.21 211.366 413.325 210.945 413.554L205.488 416.719ZM194.558 410.388C194.402 410.458 194.267 410.568 194.167 410.707C194.067 410.846 194.006 411.009 193.99 411.18C194.009 411.349 194.072 411.511 194.171 411.65C194.271 411.788 194.404 411.899 194.558 411.971L200.015 415.136C200.436 415.364 200.909 415.478 201.388 415.466C201.866 415.476 202.339 415.362 202.761 415.136L208.218 411.971C208.372 411.899 208.505 411.788 208.604 411.65C208.704 411.511 208.766 411.349 208.786 411.18C208.77 411.009 208.709 410.846 208.609 410.707C208.509 410.567 208.374 410.458 208.218 410.388L202.761 407.223C202.339 406.997 201.866 406.882 201.388 406.891C200.909 406.88 200.436 406.994 200.015 407.223L194.558 410.388ZM183.628 404.058C183.472 404.127 183.336 404.237 183.236 404.376C183.136 404.515 183.075 404.678 183.058 404.849C183.077 405.019 183.14 405.181 183.24 405.32C183.34 405.458 183.473 405.569 183.628 405.641L189.101 408.806C189.515 409.034 189.981 409.148 190.453 409.138C190.932 409.149 191.405 409.035 191.826 408.806L197.283 405.641C197.438 405.569 197.571 405.458 197.67 405.319C197.77 405.181 197.832 405.019 197.851 404.849C197.835 404.679 197.774 404.515 197.674 404.376C197.575 404.237 197.44 404.127 197.283 404.058L191.826 400.893C191.407 400.662 190.936 400.545 190.458 400.554C189.986 400.543 189.519 400.658 189.106 400.886L183.628 404.058ZM172.696 397.728C172.54 397.797 172.404 397.906 172.305 398.046C172.205 398.185 172.144 398.348 172.128 398.519C172.147 398.688 172.21 398.85 172.309 398.989C172.409 399.127 172.542 399.238 172.696 399.31L178.169 402.475C178.583 402.703 179.049 402.818 179.521 402.808C180 402.819 180.473 402.704 180.894 402.475L186.351 399.31C186.505 399.238 186.638 399.127 186.738 398.988C186.837 398.85 186.899 398.688 186.919 398.519C186.903 398.348 186.842 398.185 186.742 398.046C186.642 397.907 186.507 397.797 186.351 397.728L180.894 394.562C180.473 394.333 180 394.219 179.521 394.23C179.049 394.22 178.583 394.334 178.169 394.562L172.696 397.728ZM159.037 389.815C158.881 389.884 158.746 389.994 158.646 390.133C158.546 390.272 158.485 390.435 158.469 390.606C158.488 390.775 158.55 390.937 158.65 391.076C158.749 391.214 158.882 391.325 159.037 391.397L167.239 396.145C167.661 396.363 168.128 396.477 168.603 396.477C169.077 396.477 169.545 396.363 169.966 396.145L175.423 392.98C175.58 392.91 175.715 392.801 175.815 392.662C175.915 392.522 175.976 392.359 175.992 392.188C175.978 392.017 175.919 391.852 175.818 391.713C175.718 391.573 175.582 391.464 175.423 391.397L167.237 386.649C166.816 386.421 166.343 386.306 165.864 386.317C165.392 386.307 164.926 386.421 164.512 386.649L159.037 389.815ZM249.165 480.023C249.008 480.092 248.874 480.202 248.774 480.341C248.674 480.48 248.613 480.644 248.597 480.814C248.616 480.984 248.679 481.145 248.778 481.284C248.878 481.422 249.011 481.533 249.165 481.605L254.624 484.771C255.046 484.996 255.518 485.111 255.997 485.103C256.474 485.113 256.946 484.998 257.367 484.771L262.826 481.605C262.98 481.533 263.113 481.422 263.213 481.284C263.312 481.145 263.374 480.984 263.394 480.814C263.378 480.644 263.317 480.48 263.217 480.341C263.117 480.202 262.982 480.092 262.826 480.023L257.367 476.858C256.947 476.629 256.474 476.514 255.997 476.525C255.518 476.516 255.046 476.631 254.624 476.858L249.165 480.023Z" fill="var(--svg-illustration-color-6)"/>
    <path d="M183.385 429.854C183.486 429.722 183.622 429.618 183.779 429.553L189.289 426.552C189.705 426.337 190.175 426.228 190.65 426.238C191.131 426.23 191.606 426.34 192.029 426.559L197.52 429.553C197.677 429.618 197.813 429.722 197.913 429.854C198.014 429.985 198.075 430.14 198.091 430.301C198.072 430.462 198.009 430.615 197.909 430.746C197.809 430.877 197.675 430.981 197.52 431.05L192.029 434.044C191.605 434.26 191.129 434.367 190.647 434.356C190.172 434.366 189.703 434.259 189.286 434.044L183.779 431.05C183.624 430.982 183.489 430.877 183.389 430.746C183.288 430.615 183.225 430.462 183.206 430.301C183.222 430.14 183.284 429.985 183.385 429.854Z" fill="var(--svg-illustration-color-6)"/>
    </g>
    <defs>
    <linearGradient id="paint0_linear_152_33779" x1="297.388" y1="382.704" x2="343.529" y2="501.35" gradientUnits="userSpaceOnUse">
    <stop/>
    <stop offset="0.894792" stop-opacity="0"/>
    </linearGradient>
    <linearGradient id="paint1_linear_152_33779" x1="254.731" y1="403" x2="250.397" y2="416.217" gradientUnits="userSpaceOnUse">
    <stop/>
    <stop offset="0.894792" stop-opacity="0"/>
    </linearGradient>
    <linearGradient id="paint2_linear_152_33779" x1="255.662" y1="464.212" x2="280.787" y2="513.344" gradientUnits="userSpaceOnUse">
    <stop/>
    <stop offset="1" stop-opacity="0"/>
    </linearGradient>
    <clipPath id="clip0_152_33779">
    <rect width="596" height="514" fill="white"/>
    </clipPath>
    </defs>
</svg>
<svg class="svg-nordvpn svg-nordvpn-right promo-slider-icon" viewBox="0 0 596 514" fill="none" xmlns="http://www.w3.org/2000/svg">
    <path fill-rule="evenodd" clip-rule="evenodd" d="M515.16 385.181L592.83 427.979V513.575L515.16 470.745V385.181Z" fill="var(--svg-illustration-color-3)"/>
    <path fill-rule="evenodd" clip-rule="evenodd" d="M576.064 468.263L573.297 461.345L549.776 448.791C548.691 442.6 543.751 435.383 538.016 432.29C531.098 428.831 526.255 431.753 526.255 438.516C526.255 445.279 531.726 453.694 538.262 457.219C543.669 460.136 548.362 458.687 549.776 454.325L555.311 462.729L558.078 461.345L562.228 465.496L564.996 464.112L567.763 469.647L576.064 468.263ZM533.033 445.57C531.21 444.586 529.73 442.258 529.73 440.371C529.73 438.483 531.21 437.751 533.033 438.735C534.856 439.718 536.336 442.046 536.336 443.934C536.336 445.821 534.857 446.553 533.033 445.57Z" fill="var(--svg-illustration-color-6)"/>
    <path fill-rule="evenodd" clip-rule="evenodd" d="M565.592 443.01L543.143 430.82C540.584 429.432 538.667 430.707 538.86 433.67C539.053 436.633 541.283 440.159 543.842 441.548L566.292 453.737C568.85 455.126 570.767 453.851 570.574 450.888C570.381 447.925 568.151 444.398 565.592 443.01ZM548.863 442.422L546.832 440.173L544.958 440.301L545.166 437.985L543.47 435.345L545.63 436.163L546.456 434.402L547.582 437.222L549.789 438.776L548.326 439.701L548.863 442.422ZM556.897 446.784L554.868 444.534L552.993 444.664L553.202 442.347L551.505 439.706L553.664 440.525L554.491 438.765L555.618 441.586L557.824 443.138L556.36 444.063L556.897 446.784ZM564.466 448.464L565.003 451.184L562.972 448.935L561.097 449.063L561.306 446.748L559.609 444.107L561.77 444.926L562.596 443.164L563.722 445.986L565.929 447.539L564.466 448.464Z" fill="white"/>
    <path fill-rule="evenodd" clip-rule="evenodd" d="M424.808 336.043L502.479 378.841V464.437L424.808 421.607V336.043Z" fill="var(--svg-illustration-color-3)"/>
    <path fill-rule="evenodd" clip-rule="evenodd" d="M479.537 405.57C478.547 400.484 474.759 394.988 470.224 392.457L468.19 391.021C466.688 386.629 463.404 382.619 459.525 380.454L456.145 378.567C450.859 375.616 446.572 377.813 446.572 383.475C446.591 384.794 446.534 386.001 446.917 387.267C443.129 386.52 440.66 388.925 440.66 393.442C440.66 399.104 444.946 406.086 450.233 409.037L476.137 423.497C481.424 426.449 485.71 424.252 485.71 418.59C485.71 414.212 483.143 409.053 479.537 405.57Z" fill="var(--svg-illustration-color-6)"/>
    <path fill-rule="evenodd" clip-rule="evenodd" d="M481.856 395L481.627 394.878C481.63 394.844 481.634 394.81 481.636 394.775C481.655 394.56 481.667 394.339 481.667 394.108C481.667 389.303 477.874 383.377 473.196 380.872C468.518 378.367 464.725 380.232 464.725 385.038C464.725 385.304 464.741 385.576 464.765 385.849L464.538 385.728C463.791 385.327 463.185 385.625 463.185 386.392V394.411C463.185 397.515 465.636 401.344 468.658 402.962L477.734 407.822C480.756 409.44 483.207 408.235 483.207 405.131V397.111C483.207 396.345 482.601 395.4 481.856 395ZM466.939 386.016C466.939 382.522 469.793 381.423 473.196 383.245C476.599 385.066 478.907 389.481 478.907 392.975C478.905 393.23 478.941 393.271 478.907 393.524L466.939 387.267C466.906 386.995 466.941 386.289 466.939 386.016Z" fill="white"/>
    <path fill-rule="evenodd" clip-rule="evenodd" d="M424.808 229.841L502.479 272.639V358.235L424.808 315.405V229.841Z" fill="var(--svg-illustration-color-3)"/>
    <path fill-rule="evenodd" clip-rule="evenodd" d="M461.836 311.548C452.11 305.906 443.251 294.761 439.074 283.338C443.251 276.762 452.11 275.594 461.836 281.237C471.561 286.879 480.866 298.381 485.043 309.804C480.866 316.381 471.56 317.19 461.836 311.548ZM461.836 285.123C456.246 281.88 451.714 284.296 451.714 290.52C451.714 296.745 456.246 304.419 461.836 307.662C467.425 310.905 471.957 308.489 471.957 302.264C471.957 296.04 467.425 288.366 461.836 285.123ZM461.836 303.776C458.173 301.651 455.205 296.623 455.205 292.545C455.205 288.467 458.173 286.884 461.836 289.009C465.498 291.133 468.467 296.162 468.467 300.24C468.467 304.317 465.497 305.901 461.836 303.776Z" fill="var(--svg-illustration-color-6)"/>
    <path d="M445.663 268.971L476.11 322.95" stroke="white" stroke-width="3"/>
    <path fill-rule="evenodd" clip-rule="evenodd" d="M515.16 278.979L592.83 321.777V407.372L515.16 364.543V278.979Z" fill="var(--svg-illustration-color-3)"/>
    <path fill-rule="evenodd" clip-rule="evenodd" d="M562.826 325.74L545.39 317.021L534.181 323.249V340.705L545.39 360.612L562.826 369.33L574.035 363.103V345.667L562.826 325.74ZM562.543 347.764L562.547 347.769L561.293 350.285C561.198 351.008 561.035 351.721 560.805 352.414C560.621 352.996 560.383 353.56 560.093 354.098C560.083 354.233 560.063 354.367 560.031 354.499C560.031 354.504 560.03 354.508 560.028 354.512C559.992 354.655 559.942 354.794 559.877 354.928L559.167 356.842C557.222 359.366 555.862 357.619 552.948 355.967C549.765 354.162 547.346 351.058 547.02 347.131C547.011 347.084 547 347.038 546.995 346.991L546.98 346.983V333.009L546.985 333.012C547.044 330.032 547.596 327.984 548.267 328.364C548.937 328.745 549.49 331.419 549.549 334.465L549.554 334.468V338.259L549.637 338.306C549.678 338.298 549.719 338.292 549.761 338.286C549.922 338.265 550.02 338.124 550.02 337.914V332.447L550.026 332.45C550.085 329.47 550.636 327.421 551.308 327.802C551.979 328.183 552.53 330.857 552.589 333.903L552.594 333.906V338.97C552.673 339.012 552.751 339.053 552.831 339.098C552.911 339.143 552.985 339.191 553.063 339.238V334.172L553.068 334.175C553.127 331.196 553.678 329.147 554.35 329.527C555.021 329.908 555.572 332.582 555.631 335.628L555.637 335.631V341.062C555.645 341.181 555.697 341.292 555.782 341.377L555.787 341.381C555.939 341.536 556.105 341.509 556.105 341.33V337.424L556.111 337.427C556.169 334.448 556.721 332.399 557.393 332.779C558.065 333.16 558.615 335.834 558.674 338.88L558.679 338.883V345.239C558.685 345.393 558.725 345.543 558.797 345.679C558.799 345.684 558.802 345.689 558.804 345.695C559.067 346.228 559.613 346.462 559.784 346.119L560.177 345.333L560.182 345.339C561.315 343.231 563.213 343.172 563.831 343.807C564.45 344.441 563.567 345.544 562.543 347.764Z" fill="var(--svg-illustration-color-6)"/>
    <path fill-rule="evenodd" clip-rule="evenodd" d="M562.927 328.322C564.045 327.684 565.678 327.796 567.564 328.872C569.051 329.72 570.575 331.11 571.883 332.928L563.282 339.769C561.81 337.241 561.101 334.655 561.1 332.545C561.1 330.4 561.815 328.956 562.927 328.322ZM562.43 342.15L562.933 343.161L563.086 343.039C564.436 344.762 565.985 346.134 567.565 347.035C569.753 348.283 572.194 348.721 574.185 347.585C576.18 346.447 577.02 344.129 577.02 341.625C577.02 339.093 576.179 336.154 574.552 333.369C574.44 333.178 574.326 332.99 574.21 332.805L573.594 331.568L573.45 331.682C572.008 329.699 570.3 328.13 568.555 327.135C566.368 325.887 563.927 325.449 561.936 326.585C559.94 327.723 559.1 330.041 559.1 332.545C559.101 335.077 559.942 338.016 561.569 340.8C561.842 341.268 562.13 341.718 562.43 342.15ZM573.179 335.012C574.421 337.342 575.02 339.685 575.02 341.625C575.02 343.77 574.306 345.213 573.194 345.848C572.076 346.486 570.443 346.373 568.556 345.297C567.224 344.538 565.862 343.342 564.652 341.794L573.179 335.012Z" fill="white"/>
    <path fill-rule="evenodd" clip-rule="evenodd" d="M510.404 345.652C523.536 353.285 534.181 371.848 534.181 387.112C534.181 396.958 527.84 403.41 520.707 404.995C517.037 405.557 515.066 403.643 510.404 400.933C497.271 393.301 486.628 374.74 486.628 359.474C486.628 353.527 483.879 351.635 486.628 348.724C490.935 344.161 502.388 340.993 510.404 345.652Z" fill="var(--svg-illustration-color-1)"/>
    <path fill-rule="evenodd" clip-rule="evenodd" d="M505.65 348.738C518.781 356.175 529.426 374.26 529.426 389.136C529.426 404.011 518.781 410.039 505.65 402.602C492.519 395.165 481.872 377.079 481.872 362.205C481.872 347.332 492.517 341.301 505.65 348.738Z" fill="var(--svg-illustration-color-2)"/>
    <path d="M496.138 373.913L500.894 382.803L515.16 372.5" stroke="white" stroke-width="3" stroke-miterlimit="10" stroke-linecap="round" stroke-linejoin="round"/>
</svg>

