<svg class="svg-360 svg-360-left promo-slider-icon" viewBox="0 0 376 324" fill="none" xmlns="http://www.w3.org/2000/svg">
    <path d="M64.1001 37.4V143.9L116 173.8V67.3L64.1001 37.4Z" fill="var(--svg-illustration-color-5)"/>
    <path d="M72.1001 108.7V126L107.4 145.8V128.4L72.1001 108.7Z" fill="var(--svg-illustration-color-4)"/>
    <path d="M79.5 116.8C78 115.9 76.8 116.7 76.8 118.5C76.8 120.3 78.4 124 79.1 125.5C79.3 125.9 79.6 126.1 79.8 125.9C80.5 125.2 82.1 123.6 82.1 121.7C82.2 119.8 81.2 118 79.5 116.8ZM79.5 119C80.1 119.4 80.4 120.1 80.5 120.8C80.5 121.5 80.1 121.7 79.5 121.4C78.9 121 78.6 120.3 78.5 119.6C78.6 118.9 79 118.6 79.5 119ZM99.1 133.8C99.3 134 99.6 134 99.8 133.8C99.9 133.7 100 133.5 99.9 133.4C99.9 132.8 99.6 132.3 99.1 132.1L86.4 124.6C86.2 124.4 85.9 124.4 85.7 124.6C85.6 124.7 85.5 124.9 85.6 125C85.6 125.6 85.9 126.1 86.4 126.3L99.1 133.8Z" fill="var(--svg-illustration-color-6)"/>
    <path d="M81.4001 100.3C81.4001 99.7001 81.3001 99.0001 81.0001 98.4001C80.7001 97.9001 80.3001 97.4001 79.8001 97.2001C79.5001 96.9001 79.0001 96.9001 78.6001 97.1001C78.3001 97.5001 78.1001 98.0001 78.2001 98.5001V99.5001C78.2001 100.1 78.3001 100.8 78.6001 101.4C78.9001 101.9 79.3001 102.4 79.8001 102.6C80.1001 102.9 80.6001 102.9 81.0001 102.7C81.3001 102.3 81.5001 101.8 81.4001 101.3V100.3ZM80.3001 100.9C80.3001 101.2 80.3001 101.4 80.2001 101.6C80.1001 101.7 80.0001 101.7 79.8001 101.7C79.6001 101.6 79.5001 101.4 79.4001 101.2C79.3001 100.9 79.3001 100.6 79.3001 100.3V99.0001C79.3001 98.8001 79.3001 98.5001 79.4001 98.3001C79.5001 98.2001 79.6001 98.2001 79.8001 98.3001C80.0001 98.4001 80.1001 98.6001 80.2001 98.8001C80.3001 99.1001 80.3001 99.4001 80.3001 99.7001V100.9ZM84.8001 102.3C84.8001 101.7 84.7001 101 84.4001 100.4C84.1001 99.9001 83.7001 99.4001 83.2001 99.2001C82.9001 98.9001 82.4001 98.9001 82.0001 99.1001C81.7001 99.5001 81.5001 100 81.6001 100.5V101.5C81.6001 102.1 81.7001 102.8 82.0001 103.4C82.3001 103.9 82.7001 104.4 83.2001 104.6C83.5001 104.9 84.0001 104.9 84.4001 104.7C84.7001 104.3 84.9001 103.8 84.8001 103.3V102.3ZM83.8001 102.9C83.8001 103.2 83.8001 103.4 83.7001 103.6C83.6001 103.7 83.5001 103.7 83.3001 103.7C83.1001 103.6 83.0001 103.4 82.9001 103.2C82.8001 102.9 82.8001 102.6 82.8001 102.3V101C82.8001 100.8 82.8001 100.5 82.9001 100.3C83.0001 100.2 83.1001 100.2 83.3001 100.2C83.5001 100.3 83.6001 100.5 83.7001 100.7C83.8001 101 83.8001 101.3 83.8001 101.6V102.9ZM85.4001 104.7C85.3001 104.8 85.2001 104.9 85.2001 105C85.2001 105.2 85.3001 105.4 85.4001 105.5C85.5001 105.7 85.6001 105.8 85.8001 105.9C85.9001 106 86.1001 106 86.2001 106C86.3001 105.9 86.4001 105.8 86.4001 105.7C86.4001 105.5 86.3001 105.3 86.2001 105.2C86.1001 105 86.0001 104.9 85.8001 104.8C85.7001 104.7 85.5001 104.7 85.4001 104.7ZM85.4001 101.9C85.3001 102 85.2001 102.1 85.2001 102.2C85.2001 102.4 85.3001 102.6 85.4001 102.7C85.5001 102.9 85.6001 103 85.8001 103.1C85.9001 103.2 86.1001 103.2 86.2001 103.2C86.3001 103.1 86.4001 103 86.4001 102.9C86.4001 102.7 86.3001 102.5 86.2001 102.4C86.1001 102.2 86.0001 102.1 85.8001 102C85.7001 101.9 85.5001 101.8 85.4001 101.9ZM90.0001 105.3C90.0001 104.7 89.9001 104 89.6001 103.4C89.3001 102.9 88.9001 102.4 88.4001 102.2C88.1001 101.9 87.6001 101.9 87.2001 102.1C86.9001 102.5 86.7001 103 86.8001 103.5V104.5C86.8001 105.1 86.9001 105.8 87.2001 106.4C87.5001 106.9 87.9001 107.4 88.4001 107.6C88.7001 107.9 89.2001 107.9 89.6001 107.7C89.9001 107.3 90.1001 106.8 90.0001 106.3V105.3ZM89.0001 105.9C89.0001 106.2 89.0001 106.4 88.9001 106.6C88.8001 106.7 88.6001 106.7 88.5001 106.7C88.3001 106.6 88.2001 106.4 88.1001 106.2C88.0001 105.9 88.0001 105.6 88.0001 105.3V104C88.0001 103.8 88.0001 103.5 88.1001 103.3C88.2001 103.2 88.3001 103.2 88.5001 103.2C88.7001 103.3 88.8001 103.5 88.9001 103.7C89.0001 104 89.0001 104.3 89.0001 104.6V105.9ZM93.5001 109.5L91.7001 108.5L92.3001 108.1C92.5001 108 92.8001 107.8 93.0001 107.6C93.1001 107.5 93.2001 107.3 93.3001 107.2C93.4001 107 93.4001 106.8 93.4001 106.7C93.4001 106.2 93.3001 105.8 93.0001 105.4C92.7001 105 92.3001 104.6 91.9001 104.4C91.7001 104.2 91.4001 104.2 91.1001 104.2C90.9001 104.2 90.7001 104.3 90.5001 104.5C90.4001 104.7 90.3001 105 90.3001 105.3L91.3001 105.9C91.3001 105.7 91.3001 105.5 91.5001 105.4C91.6001 105.3 91.8001 105.3 91.9001 105.4C92.1001 105.5 92.2001 105.6 92.3001 105.8C92.4001 106 92.4001 106.2 92.4001 106.4C92.4001 106.7 92.2001 107 91.9001 107.2L90.4001 108.1V108.9L93.5001 110.7V109.5ZM94.1001 109.7C94.0001 109.8 93.9001 109.9 93.9001 110C93.9001 110.2 94.0001 110.4 94.1001 110.5C94.2001 110.7 94.3001 110.8 94.5001 110.9C94.6001 111 94.8001 111 94.9001 111C95.0001 110.9 95.1001 110.8 95.1001 110.7C95.1001 110.5 95.0001 110.3 94.9001 110.2C94.8001 110 94.7001 109.9 94.5001 109.8C94.3001 109.7 94.2001 109.7 94.1001 109.7ZM94.1001 106.9C94.0001 107 93.9001 107.1 93.9001 107.2C93.9001 107.4 94.0001 107.6 94.1001 107.7C94.2001 107.9 94.3001 108 94.5001 108.1C94.6001 108.2 94.8001 108.2 94.9001 108.2C95.0001 108.1 95.1001 108 95.1001 107.9C95.1001 107.7 95.0001 107.5 94.9001 107.4C94.8001 107.2 94.7001 107.1 94.5001 107C94.3001 106.9 94.2001 106.8 94.1001 106.9ZM97.8001 107.7L95.7001 107.3V108.2L96.7001 108.4V112.2L97.7001 112.8L97.8001 107.7ZM99.9001 111.9L100.4 112.2C100.6 112.3 100.8 112.5 100.9 112.6C101 112.8 101.1 113 101.1 113.3C101.1 113.4 101.1 113.6 100.9 113.7C100.8 113.8 100.6 113.7 100.5 113.6C100.3 113.5 100.2 113.4 100.1 113.2C100 113 99.9001 112.9 99.9001 112.7L98.8001 112.1C98.8001 112.4 98.9001 112.7 99.0001 113C99.1001 113.3 99.3001 113.6 99.6001 113.9C99.8001 114.2 100.1 114.4 100.4 114.6C100.7 114.9 101.2 115 101.6 114.9C101.9 114.8 102.1 114.4 102.1 114.1C102.1 113.8 102 113.5 101.9 113.2C101.8 112.9 101.6 112.6 101.3 112.4C101.5 112.4 101.7 112.4 101.8 112.2C101.9 112.1 102 111.9 102 111.7C102 111.2 101.8 110.8 101.6 110.4C101.3 110 100.9 109.6 100.4 109.3C100.2 109.2 99.9001 109.1 99.6001 109C99.4001 109 99.2001 109 99.1001 109.2C99.0001 109.4 98.9001 109.6 98.9001 109.8L99.9001 110.4C99.9001 110.3 99.9001 110.2 100.1 110.1C100.2 110.1 100.4 110.1 100.5 110.2C100.7 110.3 100.8 110.4 100.9 110.6C101 110.8 101 110.9 101 111.1C101 111.5 100.8 111.6 100.4 111.4L99.9001 111.1V111.9Z" fill="var(--svg-illustration-color-6)"/>
    <path d="M90.7001 76C95.2001 78.6 98.8001 84.8 98.8001 90C98.8001 95.2 95.2001 97.3 90.7001 94.7C86.2001 92.1 82.6001 85.9 82.6001 80.7C82.6001 75.5 86.2001 73.4 90.7001 76Z" fill="var(--svg-illustration-color-2)"/>
    <path d="M89.7002 88.5C89.5002 88.5 89.4002 88.4 89.3002 88.2L87.2002 84.5C87.1002 84.3 87.1002 84 87.4002 83.8C87.6002 83.7 87.9002 83.7 88.1002 84L90.0002 87.3L94.4002 84.9C94.6002 84.8 94.9002 84.9 95.1002 85.1C95.2002 85.3 95.1002 85.6 94.9002 85.8L90.1002 88.5C89.8002 88.4 89.7002 88.5 89.7002 88.5Z" fill="white"/>
    <path d="M2.2002 2.09998V48L53.4002 78.6V31.4L2.2002 2.09998Z" fill="var(--svg-illustration-color-5)"/>
    <path d="M2.2002 61.2999V107.2L53.4002 137.8V90.5999L2.2002 61.2999Z" fill="var(--svg-illustration-color-5)"/>
    <path d="M33.0002 125.5L2.2002 107.5V97.2L13.5002 90.7C13.7002 90.6 13.9002 90.6 14.1002 90.8C14.3002 91 14.5002 91.2 14.7002 91.4L21.6002 103.5L12.2002 110.6L40.9002 94C41.1002 93.9 41.3002 94 41.5002 94.1C41.7002 94.2 42.0002 94.4 42.1002 94.7L53.5002 114.4V137.9L33.0002 125.5Z" fill="white"/>
    <path d="M32.4002 40.4L25.5002 41.4C25.3002 41.4 25.2002 41.4 25.0002 41.3C24.5002 41 24.1002 40.4 24.1002 39.8V30C24.0002 29.7 24.2002 29.4 24.5002 29.4C24.7002 29.4 24.9002 29.4 25.0002 29.5C25.2002 29.6 25.4002 29.7 25.5002 29.9L32.4002 38.7C32.6002 39 32.8002 39.4 32.8002 39.8C32.9002 40.1 32.7002 40.3 32.4002 40.4Z" fill="var(--svg-illustration-color-1)"/>
    <path d="M47.2003 66.4001L30.1003 56.5001C29.7003 57.5001 28.8003 57.7001 27.7003 57.1001C26.5003 56.3001 25.7003 55.1001 25.3003 53.7001L18.4003 49.7001C17.9003 49.4001 17.6003 48.8001 17.5003 48.2001C17.4003 47.9001 17.6003 47.6001 17.9003 47.6001C18.1003 47.6001 18.3003 47.6001 18.4003 47.7001L25.3003 51.7001C25.7003 50.8001 26.6003 50.5001 27.7003 51.1001C28.9003 51.9001 29.7003 53.1001 30.1003 54.4001L47.2003 64.3001C47.7003 64.6001 48.1003 65.2001 48.1003 65.8001C48.2003 66.1001 48.0003 66.4001 47.7003 66.4001C47.5003 66.6001 47.4003 66.5001 47.2003 66.4001ZM11.7003 45.8001L8.30028 43.8001C7.80028 43.5001 7.40028 42.9001 7.40028 42.3001C7.30028 42.0001 7.50028 41.7001 7.80028 41.7001C8.00028 41.7001 8.20028 41.7001 8.30028 41.8001L11.7003 43.8001C12.2003 44.1001 12.6003 44.7001 12.6003 45.3001C12.7003 45.6001 12.5003 45.9001 12.2003 45.9001C12.0003 46.0001 11.9003 45.9001 11.7003 45.8001Z" fill="white"/>
    <path d="M26.3503 224.848L61.6614 245.532L42.1028 256.93L6.75268 236.234L26.3503 224.848Z" fill="url(#paint0_linear_455_185)" fill-opacity="0.1"/>
    <path d="M35.2 230C35.2 230 33.6 234.6 30.6 236.3C24 240.1 13.4 240.1 6.79995 236.3C3.79995 234.6 1.49995 232.3 1.19995 231V205C1.49995 202.8 3.09995 200.6 6.09995 198.9C12.7 195.2 23.5 195.2 30.2 198.9C33.2 200.6 34.9 202.8 35.1 205H35.2V230Z" fill="var(--svg-illustration-color-4)"/>
    <path d="M6.20007 198.3C12.8001 194.5 23.6001 194.5 30.3001 198.3C37.0001 202.1 36.9001 208.3 30.3001 212.1C23.7001 215.9 12.9001 215.9 6.30007 212.1C-0.499931 208.3 -0.49993 202.1 6.20007 198.3Z" fill="var(--svg-illustration-color-5)"/>
    <path d="M8.3 199.7C13.8 196.7 22.6 196.7 28.1 199.7C33.6 202.7 33.6 207.6 28.1 210.6C22.6 213.6 13.8 213.6 8.3 210.6C2.9 207.7 2.9 202.8 8.3 199.7Z" fill="var(--svg-illustration-color-1)"/>
    <path d="M11 202.9C11 202.9 -1.09997 195.7 2.30003 189.4C6.40003 181.7 6.60003 183.3 2.30003 173.9C-0.599967 167.5 3.10003 160.9 7.70003 158.4C15.9 153.9 11.5 160.5 10 166.4C8.50003 172.5 13.5 172 13.8 179.9C14.1 188.1 18.2 187.9 17.7 192.9C17.4 197.3 14.8 201 11 202.9Z" fill="var(--svg-illustration-color-2)"/>
    <path d="M18.9002 204.3C18.9002 204.3 13.8002 191.2 20.2002 188.3C28.2002 184.7 22.4002 183.2 28.7002 175C33.5002 168.9 39.1002 170.6 41.1002 165.9C43.6002 160 47.6002 174.9 41.8002 177.3C34.8002 180.3 36.9002 181.9 32.7002 188.6C28.5002 195.3 33.6002 196.8 30.1002 200.6C27.4002 203.8 23.1002 205.2 18.9002 204.3Z" fill="var(--svg-illustration-color-2)"/>
    <path d="M17.7 208.9C10.8 208.9 8.20005 199 10.3 189.4C12.3 180.4 19.3 180.5 19.7 172.6C20.2 162 36.3 182.2 29 187.3C21.9 192.3 31.5 196.1 27.8 200.8C26 203 27.3 208.9 17.7 208.9Z" fill="var(--svg-illustration-color-4)"/>
    <defs>
    <linearGradient id="paint0_linear_455_185" x1="10.2274" y1="238.224" x2="32.4204" y2="277.465" gradientUnits="userSpaceOnUse">
    <stop/>
    <stop offset="0.671875" stop-opacity="0"/>
    </linearGradient>
    </defs>
</svg>
<svg class="svg-360 svg-360-center promo-slider-icon" viewBox="0 0 376 324" fill="none" xmlns="http://www.w3.org/2000/svg">
    <path d="M211.646 251.269L304.153 305.218L272.722 323.461L179.967 269.771L211.646 251.269Z" fill="url(#paint0_linear_455_158)" fill-opacity="0.1"/>
    <path fill-rule="evenodd" clip-rule="evenodd" d="M224.876 252.517C224.834 252.082 224.68 251.665 224.428 251.309C224.176 250.953 223.836 250.669 223.44 250.487L192.472 231.82C191.406 231.242 190.21 230.952 188.999 230.978C187.964 230.972 186.939 231.183 185.989 231.597L165.594 241.647L164.25 248.369C164.25 248.369 152.521 248.249 152.521 249.039V252.517C152.562 252.953 152.717 253.37 152.971 253.726C153.225 254.082 153.567 254.364 153.965 254.544L190.455 275.84C191.531 276.394 192.724 276.683 193.933 276.683C195.143 276.683 196.335 276.394 197.412 275.84C197.542 275.759 197.673 275.677 197.792 275.587L223.882 256.319C224.186 256.129 224.44 255.869 224.623 255.56C224.806 255.251 224.914 254.903 224.936 254.544L224.874 252.517" fill="var(--svg-illustration-color-2)"/>
    <path fill-rule="evenodd" clip-rule="evenodd" d="M197.645 271.922L206.461 265.427L165.555 241.611L154.384 246.743C154.237 246.808 154.095 246.882 153.958 246.964C153.539 247.107 153.175 247.379 152.917 247.74C152.659 248.102 152.521 248.536 152.521 248.981C152.521 249.426 152.659 249.86 152.917 250.222C153.175 250.583 153.539 250.855 153.958 250.998L190.333 272.174C191.406 272.724 192.594 273.011 193.798 273.011C195.003 273.011 196.191 272.724 197.264 272.174C197.395 272.094 197.526 272.013 197.645 271.922Z" fill="var(--svg-illustration-color-3)"/>
    <path fill-rule="evenodd" clip-rule="evenodd" d="M250.884 144.825C250.306 143.765 249.465 142.874 248.443 142.238L131.136 74.3435C130.786 74.0924 130.377 73.9382 129.948 73.8964C129.52 73.8545 129.089 73.9264 128.697 74.105L124.763 77.0042L249.17 272.417L250.892 271.417C251.24 271.166 251.515 270.827 251.69 270.434C251.865 270.041 251.932 269.608 251.886 269.18V148.229C251.85 147.026 251.504 145.853 250.884 144.825Z" fill="var(--svg-illustration-color-2)"/>
    <path fill-rule="evenodd" clip-rule="evenodd" d="M247.644 255.246L251.904 253.818V272.188C251.904 275.126 251.929 275.703 249.064 276.473C246.101 277.269 245.76 277.339 245.76 277.339L247.644 255.246Z" fill="var(--svg-illustration-color-2)"/>
    <path fill-rule="evenodd" clip-rule="evenodd" d="M124.097 203.08V182.419L247.65 254.501V273.375C247.65 276.946 246.351 278.769 241.829 276.137C219.881 263.363 142.866 218.456 126.975 209.127C124.792 207.851 124.097 206.002 124.097 203.08Z" fill="var(--svg-illustration-color-4)"/>
    <path fill-rule="evenodd" clip-rule="evenodd" d="M185.052 226.804C183.916 226.804 183.141 227.707 183.141 229.274C183.206 230.476 183.552 231.646 184.152 232.689C184.751 233.731 185.586 234.617 186.589 235.274C187.052 235.563 187.581 235.725 188.124 235.745C189.253 235.745 190.028 234.841 190.028 233.274C189.964 232.073 189.619 230.903 189.022 229.861C188.424 228.819 187.591 227.933 186.589 227.276C186.127 226.987 185.597 226.825 185.053 226.806" fill="var(--svg-illustration-color-2)"/>
    <path fill-rule="evenodd" clip-rule="evenodd" d="M128.393 77.8143C153.479 92.5153 228.566 136.225 244.804 145.636C245.739 146.076 246.516 146.798 247.025 147.702C247.534 148.606 247.75 149.647 247.643 150.681V255.27L124.097 183.286V79.4825C124.097 76.1947 125.536 76.1433 128.393 77.8143Z" fill="var(--svg-illustration-color-5)"/>
    <path fill-rule="evenodd" clip-rule="evenodd" d="M243.384 246.272L129.796 180.287V84.3086L243.384 150.294V246.272Z" fill="var(--svg-illustration-color-1)"/>
    <path fill-rule="evenodd" clip-rule="evenodd" d="M179.595 191.912C180.701 192.78 181.85 193.492 182.956 194.131L182.97 194.139C188.685 197.439 194.158 198.519 198.682 197.005C204.169 195.212 207.672 190.194 208.536 182.702C208.819 179.801 208.778 176.779 208.344 173.578C208.513 173.546 208.677 173.495 208.834 173.426C209.741 173.066 210.323 172.108 210.365 170.741C210.507 167.908 208.635 164.372 206.182 162.791C203.672 161.129 201.559 162.136 201.418 164.903C201.318 166.189 201.758 167.785 202.524 169.292C203.266 170.753 204.329 172.029 205.492 172.784C205.831 175.493 205.858 178.078 205.587 180.492C205.233 183.753 204.28 186.55 202.784 188.719C201.289 190.887 199.281 192.383 196.881 193.116C192.074 194.647 186.019 193.05 179.964 188.654C167.457 179.533 158.566 161.038 160.153 147.382C160.507 144.121 161.461 141.323 162.956 139.155C164.452 136.986 166.459 135.491 168.859 134.757C173.666 133.227 179.721 134.823 185.776 139.22C189.818 142.225 193.561 146.122 196.738 150.805C197.362 151.738 198.326 152.181 198.808 151.673C199.29 151.215 199.191 150.044 198.524 149.102C194.922 143.846 190.697 139.441 186.173 136.109C179.352 131.106 172.574 129.371 167.087 131.065C161.613 132.882 158.097 137.893 157.232 145.368C156.325 152.785 158.098 161.685 162.38 170.527C166.663 179.369 172.718 186.942 179.595 191.912ZM204.438 166.877C204.438 167.384 204.58 167.859 204.821 168.375C205.062 168.842 205.445 169.292 205.828 169.513C206.211 169.734 206.593 169.791 206.934 169.709C207.217 169.595 207.416 169.267 207.416 168.809C207.458 167.835 206.792 166.664 206.026 166.156C205.161 165.542 204.438 165.911 204.438 166.86L204.438 166.877Z" fill="white"/>
    <path fill-rule="evenodd" clip-rule="evenodd" d="M198.567 165.485C199.248 166.893 199.773 168.309 200.156 169.873L200.156 169.84C200.539 171.355 200.78 173.05 200.68 174.843C200.681 176.529 200.539 178.003 200.156 179.124C199.773 180.246 199.234 181.163 198.568 181.679C197.845 182.211 197.036 182.416 196.072 182.366C195.108 182.301 194.059 181.924 192.896 181.253C191.733 180.581 190.684 179.763 189.719 178.698C188.755 177.634 187.89 176.463 187.224 175.08C187.116 174.875 187.012 174.664 186.912 174.447C186.889 174.476 186.865 174.504 186.841 174.531C186.302 175.284 185.494 175.653 184.53 175.653C183.565 175.653 182.559 175.35 181.452 174.711C180.247 174.015 179.141 173 178.177 171.821C177.405 170.799 176.697 169.698 176.198 168.503C175.67 169.082 174.924 169.366 174.107 169.422C173.157 169.496 172.051 169.135 170.846 168.439C169.981 167.94 169.059 167.228 168.151 166.261C167.244 165.344 166.521 164.37 165.897 163.289L165.854 163.216L167.386 161.251L167.428 161.439C167.712 162.045 168.194 162.831 168.818 163.519C169.385 164.174 170.009 164.763 170.69 165.156C171.37 165.549 171.994 165.68 172.519 165.656C173.1 165.598 173.582 165.32 173.866 164.862C174.149 164.354 174.348 163.699 174.348 162.799C174.348 161.57 174.064 160.506 173.44 159.425C172.816 158.394 171.951 157.567 170.945 156.986C170.54 156.752 170.231 156.629 169.951 156.518C169.83 156.47 169.714 156.424 169.597 156.372C169.521 156.349 169.445 156.326 169.369 156.302C169.107 156.221 168.853 156.142 168.633 156.142L168.591 156.118L168.35 155.749L168.392 155.725L172.377 150.755L166.804 147.538L166.804 144.246L176.744 149.986L172.561 155.496C173.001 155.749 173.426 156.061 173.866 156.478C174.546 157.035 175.17 157.788 175.695 158.599L175.681 158.607C175.807 158.826 175.931 159.049 176.05 159.275C176.674 158.18 179.216 154.097 180.53 152.188L183.99 154.186L179.623 160.654C180.403 160.596 181.31 160.842 182.416 161.481C183.423 162.062 184.246 162.815 185.111 163.871L185.111 163.855C185.132 163.884 185.154 163.913 185.175 163.942C185.25 162.942 185.395 162.076 185.635 161.374C186.018 160.187 186.557 159.336 187.223 158.82C187.946 158.288 188.755 158.083 189.719 158.198C190.683 158.263 191.775 158.665 192.938 159.336C194.1 160.007 195.15 160.826 196.114 161.89C197.036 162.93 197.901 164.101 198.567 165.485ZM195.547 165.034C194.881 163.978 193.959 163.118 192.952 162.537L192.952 162.504C191.888 161.89 190.981 161.759 190.357 162.07C189.634 162.275 189.109 162.922 188.726 163.814C188.4 164.756 188.202 165.967 188.202 167.539C188.202 168.997 188.344 170.47 188.727 171.87C189.053 173.172 189.634 174.457 190.357 175.497C191.081 176.586 191.946 177.413 192.952 177.994C193.959 178.576 194.824 178.698 195.547 178.494C196.271 178.306 196.795 177.659 197.178 176.701C197.561 175.743 197.802 174.556 197.802 172.984C197.703 171.42 197.518 169.971 197.178 168.661C196.852 167.359 196.27 166.074 195.547 165.034ZM184.529 171.526C184.246 171.985 183.806 172.173 183.225 172.165C182.7 172.189 182.076 172.009 181.452 171.649C180.786 171.264 180.247 170.724 179.68 170.069C179.155 169.438 178.716 168.677 178.375 167.924C178.092 167.203 177.893 166.368 177.893 165.746L177.893 165.189C177.893 164.567 178.091 164.027 178.375 163.683C178.659 163.29 179.098 163.102 179.68 163.159C180.204 163.184 180.786 163.29 181.452 163.675C182.119 164.06 182.657 164.534 183.225 165.206C183.749 165.787 184.189 166.549 184.529 167.302C184.813 168.022 185.011 168.857 185.011 169.643C185.011 170.478 184.87 171.133 184.529 171.543L184.529 171.526Z" fill="white"/>
    <path d="M60.9189 276.398L197.719 285.598C197.719 285.598 197.719 288.298 197.719 288.898C197.719 289.598 197.319 290.198 196.819 290.498L140.219 323.198C138.819 323.998 136.319 323.898 134.719 322.998L62.4189 281.298C61.6189 280.998 61.1189 280.198 61.0189 279.298C60.9189 278.798 60.9189 276.398 60.9189 276.398Z" fill="var(--svg-illustration-color-2)"/>
    <path d="M61.819 275.498L118.419 242.798C119.819 241.998 122.319 242.098 123.919 242.998L196.219 284.698C197.819 285.598 198.019 287.098 196.619 287.898L140.019 320.598C138.619 321.398 136.119 321.298 134.519 320.398L62.219 278.698C60.619 277.698 60.419 276.298 61.819 275.498Z" fill="var(--svg-illustration-color-4)"/>
    <path d="M68.8865 276.202L120.387 246.502C121.687 245.802 123.987 245.802 125.387 246.702L189.087 283.202C190.587 284.102 190.787 285.402 189.487 286.102L137.387 315.802C136.087 316.502 133.787 316.502 132.387 315.602L69.3865 279.102C67.6865 278.202 67.5865 276.902 68.8865 276.202Z" fill="var(--svg-illustration-color-1)"/>
    <path opacity="0.2" d="M108.519 266.698C119.419 260.398 137.119 260.398 148.019 266.698C158.919 272.998 158.919 283.198 148.019 289.498C137.119 295.798 119.419 295.798 108.519 289.498C97.619 283.198 97.619 272.998 108.519 266.698Z" fill="var(--svg-illustration-color-5)"/>
    <path opacity="0.2" d="M156.319 256.093C156.319 256.093 156.119 273.698 156.219 277.698C156.319 281.898 153.619 286.198 148.019 289.398C137.119 295.698 119.419 295.698 108.519 289.398C105.519 287.698 100.319 283.698 100.319 277.998C100.319 274.098 100.319 256.628 100.319 256.628C100.319 256.628 116.372 262.32 127.465 262.423C139.257 262.533 156.319 256.093 156.319 256.093Z" fill="var(--svg-illustration-color-5)"/>
    <path opacity="0.2" d="M137.777 246.035C137.777 246.035 137.711 275.856 137.744 277.164C137.777 278.537 136.894 279.944 135.062 280.99C131.498 283.05 125.71 283.05 122.145 280.99C121.164 280.434 119.464 279.126 119.464 277.262C119.464 275.987 119.464 246.21 119.464 246.21C119.464 246.21 124.713 248.071 128.341 248.105C132.197 248.141 137.777 246.035 137.777 246.035Z" fill="var(--svg-illustration-color-5)"/>
    <path d="M186.387 272.853H186.287V269.953L161.187 258.653C162.124 257.95 163.012 257.185 163.847 256.363C167.847 252.473 169.707 248.053 169.467 243.663C169.157 237.923 165.207 232.233 157.597 227.853C153.743 225.659 149.603 224.01 145.297 222.953C141.093 221.906 136.795 221.286 132.467 221.103C130.042 220.973 127.612 220.973 125.187 221.103H125.037C120.062 221.359 115.135 222.198 110.357 223.603C106.809 224.625 103.395 226.065 100.187 227.893C93.5168 231.733 89.6468 236.613 88.5868 241.653C87.1468 248.543 90.9968 255.733 100.187 261.103C114.487 269.303 136.887 270.103 152.787 263.403C157.287 266.203 171.487 274.903 176.887 278.103C177.516 278.458 178.229 278.636 178.951 278.619C179.672 278.601 180.376 278.388 180.987 278.003C182.187 277.203 183.387 276.403 184.787 275.603C185.31 275.373 185.747 274.983 186.035 274.489C186.322 273.995 186.446 273.422 186.387 272.853ZM96.0868 240.153C96.4868 235.653 99.6868 231.253 105.587 227.853C118.287 220.553 138.987 220.553 151.687 227.853C157.587 231.253 160.787 235.653 161.187 240.153C161.187 240.103 161.187 240.053 161.187 239.993C161.277 244.873 158.097 249.763 151.677 253.453C138.977 260.853 118.277 260.853 105.577 253.453C99.0268 249.633 95.8468 244.603 96.0468 239.633C96.0568 239.803 96.0668 239.973 96.0868 240.153Z" fill="var(--svg-illustration-color-2)"/>
    <path d="M184.785 268.554C179.975 265.724 169.635 259.714 163.785 256.364L161.335 254.954C165.855 251.584 168.535 247.674 169.405 243.664C170.875 236.824 167.035 229.664 157.835 224.454C142.035 215.354 116.335 215.354 100.435 224.454C92.195 229.194 88.225 235.464 88.585 241.654C88.915 247.334 92.875 252.944 100.485 257.254C114.785 265.354 137.185 266.154 153.085 259.554C157.785 262.454 172.385 271.554 177.885 274.754C178.76 275.054 179.71 275.054 180.585 274.754C181.985 273.754 184.085 272.354 185.585 271.254C185.868 271.08 186.107 270.844 186.285 270.564C186.575 270.044 186.285 269.434 184.785 268.554ZM152.585 253.954C139.485 261.454 118.285 261.554 105.185 253.954C95.365 248.254 92.905 239.954 97.815 232.954C99.7772 230.314 102.288 228.13 105.175 226.554C111.305 223.277 118.091 221.415 125.035 221.104H125.185C127.609 220.944 130.041 220.944 132.465 221.104C139.845 221.494 146.945 223.324 152.585 226.554C153.552 227.109 154.484 227.723 155.375 228.394C165.605 236.014 164.675 247.034 152.585 253.954Z" fill="var(--svg-illustration-color-4)"/>
    <path opacity="0.6" d="M161.198 239.994C161.288 244.874 158.108 249.764 151.688 253.454C138.988 260.854 118.288 260.854 105.588 253.454C99.0279 249.634 95.8479 244.604 96.0479 239.634C96.0479 239.804 96.0479 239.974 96.0479 240.154C96.4479 235.654 99.6479 231.254 105.548 227.854C118.248 220.554 138.948 220.554 151.648 227.854C157.548 231.254 160.748 235.654 161.148 240.154C161.188 240.104 161.198 240.104 161.198 239.994Z" fill="var(--svg-illustration-color-5)"/>
    <path d="M161.198 239.993C161.198 240.053 161.198 240.103 161.198 240.153C160.798 235.653 157.598 231.253 151.698 227.853C138.998 220.553 118.298 220.553 105.598 227.853C99.6977 231.253 96.4977 235.653 96.0977 240.153C96.0977 239.973 96.0977 239.803 96.0977 239.633C96.2777 234.983 99.4477 230.383 105.638 226.853C118.338 219.453 139.038 219.453 151.738 226.853C157.968 230.463 161.138 235.223 161.198 239.993Z" fill="var(--svg-illustration-color-1)"/>
    <path opacity="0.1" d="M161.196 239.993C161.196 240.053 161.196 240.103 161.196 240.153C160.796 235.653 157.596 231.253 151.696 227.853C138.996 220.553 118.296 220.553 105.596 227.853C99.6965 231.253 96.4965 235.653 96.0965 240.153C96.0965 239.973 96.0965 239.803 96.0965 239.633C95.9967 237.287 96.6066 234.966 97.8465 232.973C99.7934 229.99 102.463 227.548 105.606 225.873C107.135 224.988 108.73 224.223 110.376 223.583C120.846 219.433 134.516 219.233 145.286 222.953C147.509 223.71 149.652 224.681 151.686 225.853C152.988 226.59 154.223 227.44 155.376 228.393C159.576 231.843 161.536 235.973 161.196 239.993Z" fill="black"/>
    <defs>
    <linearGradient id="paint0_linear_455_158" x1="188.44" y1="274.313" x2="228.389" y2="363.903" gradientUnits="userSpaceOnUse">
    <stop/>
    <stop offset="0.671875" stop-opacity="0"/>
    </linearGradient>
    </defs>
</svg>
<svg class="svg-360 svg-360-right promo-slider-icon" viewBox="0 0 376 324" fill="none" xmlns="http://www.w3.org/2000/svg">
    <path d="M262 258L376.304 324V217L262 150V258Z" fill="white"/>
    <path d="M273 220.3V181L364 234.5V273L273 220.3ZM281.051 238.1C285.462 240.7 289.072 247 289.072 252.2C289.072 257.4 285.462 259.5 281.051 256.9C276.639 254.3 273.029 248 273.029 242.8C273.029 237.6 276.639 235.5 281.051 238.1ZM281.051 254.1C284.159 255.9 286.666 254.4 286.666 250.8C286.465 246.8 284.359 243.2 281.051 240.9C277.942 239.1 275.436 240.6 275.436 244.2C275.636 248.2 277.742 251.8 281.051 254.1ZM301.906 261L291.278 255V253L301.906 259V261ZM315.141 256.1C319.553 258.7 323.163 265 323.163 270.2C323.163 275.4 319.553 277.5 315.141 274.9C310.73 272.3 307.12 266 307.12 260.8C307.12 255.6 310.73 253.5 315.141 256.1ZM315.141 272.1C318.25 273.9 320.756 272.4 320.756 268.8C320.556 264.8 318.45 261.2 315.141 258.9C312.033 257.1 309.526 258.6 309.526 262.2C309.727 266.2 311.833 269.8 315.141 272.1ZM335.997 279L325.369 273V271L335.997 277V279ZM351.237 275.1C355.649 277.7 359.259 284 359.259 289.2C359.259 294.4 355.649 296.5 351.237 293.9C346.826 291.3 343.216 285 343.216 279.8C343.216 274.6 346.826 272.5 351.237 275.1ZM351.237 291.1C354.346 292.9 356.852 291.4 356.852 287.8C356.652 283.8 354.546 280.2 351.237 277.9C348.129 276.1 345.622 277.6 345.622 281.2C345.823 285.2 347.929 288.8 351.237 291.1Z" fill="var(--svg-illustration-color-6)"/>
    <path d="M347.291 236.128C346.771 235.828 346.398 236.075 346.408 236.658L346.404 255.698C346.415 256.281 346.735 256.927 347.255 257.226C347.775 257.526 348.148 257.279 348.138 256.696L348.141 237.656C348.131 237.073 347.811 236.427 347.291 236.128Z" fill="var(--svg-illustration-color-1)"/>
    <path d="M330.831 232.647C330.821 232.064 331.194 231.818 331.713 232.117C332.233 232.417 332.554 233.063 332.564 233.646L332.59 247.625C332.6 248.208 332.227 248.454 331.708 248.155C331.188 247.855 330.867 247.209 330.857 246.626L330.831 232.647Z" fill="var(--svg-illustration-color-1)"/>
    <path d="M320.413 221.684C320.402 221.101 320.775 220.854 321.295 221.154C321.815 221.453 322.135 222.099 322.146 222.682L322.142 241.722C322.152 242.305 321.779 242.551 321.259 242.252C320.74 241.952 320.419 241.306 320.409 240.723L320.413 221.684Z" fill="var(--svg-illustration-color-1)"/>
    <path d="M305.291 212.128C304.771 211.828 304.398 212.075 304.408 212.658L304.404 231.698C304.415 232.281 304.735 232.927 305.255 233.226C305.775 233.526 306.148 233.279 306.138 232.696L306.141 213.656C306.131 213.073 305.811 212.427 305.291 212.128Z" fill="var(--svg-illustration-color-1)"/>
    <path d="M294 216.703C293.99 216.12 294.363 215.873 294.883 216.173C295.403 216.472 295.723 217.118 295.733 217.701L295.739 226.706C295.75 227.289 295.377 227.536 294.857 227.236C294.337 226.937 294.017 226.291 294.006 225.708L294 216.703Z" fill="var(--svg-illustration-color-1)"/>
    <path d="M341.281 243.842C341.271 243.259 341.644 243.013 342.164 243.312C342.684 243.612 343.004 244.258 343.014 244.841L343.02 253.846C343.031 254.429 342.658 254.676 342.138 254.376C341.618 254.077 341.298 253.43 341.287 252.847L341.281 243.842Z" fill="white"/>
    <path d="M336.082 240.848C336.072 240.265 336.445 240.018 336.965 240.317C337.484 240.617 337.805 241.263 337.815 241.846L337.821 250.851C337.831 251.434 337.459 251.681 336.939 251.381C336.419 251.082 336.098 250.436 336.088 249.853L336.082 240.848Z" fill="white"/>
    <path d="M310.086 225.873C310.076 225.29 310.449 225.044 310.969 225.343C311.489 225.643 311.809 226.289 311.819 226.872L311.825 235.877C311.836 236.46 311.463 236.706 310.943 236.407C310.423 236.107 310.103 235.461 310.092 234.878L310.086 225.873Z" fill="white"/>
    <path d="M326.556 219.319C326.036 219.02 325.663 219.267 325.674 219.85L325.69 243.863C325.7 244.446 326.02 245.092 326.54 245.392C327.06 245.691 327.433 245.444 327.423 244.861L327.407 220.848C327.396 220.265 327.076 219.619 326.556 219.319Z" fill="white"/>
    <path d="M316.178 218.304C315.658 218.004 315.285 218.251 315.295 218.834L315.292 237.873C315.302 238.456 315.622 239.102 316.142 239.402C316.662 239.701 317.035 239.455 317.025 238.872L317.028 219.832C317.018 219.249 316.698 218.603 316.178 218.304Z" fill="white"/>
    <path d="M299.281 219.843C299.271 219.26 299.644 219.013 300.164 219.312C300.684 219.612 301.004 220.258 301.014 220.841L301.02 229.846C301.031 230.429 300.658 230.676 300.138 230.376C299.618 230.077 299.298 229.431 299.287 228.848L299.281 219.843Z" fill="white"/>
    <path d="M288.913 208.792C288.902 208.209 289.275 207.963 289.795 208.262C290.315 208.561 290.635 209.208 290.646 209.791L290.672 223.769C290.682 224.352 290.309 224.599 289.789 224.3C289.269 224 288.949 223.354 288.939 222.771L288.913 208.792Z" fill="white"/>
    <path d="M281.051 238.1C285.462 240.7 289.072 247 289.072 252.2C289.072 257.4 285.462 259.5 281.051 256.9C276.639 254.3 273.029 248 273.029 242.8C273.029 237.6 276.639 235.5 281.051 238.1ZM281.051 254.1C284.159 255.9 286.666 254.4 286.666 250.8C286.465 246.8 284.359 243.2 281.051 240.9C277.942 239.1 275.436 240.6 275.436 244.2C275.636 248.2 277.742 251.8 281.051 254.1ZM315.141 256.1C319.553 258.7 323.163 265 323.163 270.2C323.163 275.4 319.553 277.5 315.141 274.9C310.73 272.3 307.12 266 307.12 260.8C307.12 255.6 310.73 253.5 315.141 256.1ZM315.141 272.1C318.25 273.9 320.756 272.4 320.756 268.8C320.556 264.8 318.45 261.2 315.141 258.9C312.033 257.1 309.526 258.6 309.526 262.2C309.727 266.2 311.832 269.8 315.141 272.1ZM351.237 275.1C355.649 277.7 359.259 284 359.259 289.2C359.259 294.4 355.649 296.5 351.237 293.9C346.826 291.3 343.216 285 343.216 279.8C343.216 274.6 346.826 272.5 351.237 275.1ZM351.237 291.1C354.346 292.9 356.852 291.4 356.852 287.8C356.652 283.8 354.546 280.2 351.237 277.9C348.129 276.1 345.622 277.6 345.622 281.2C345.823 285.2 347.928 288.8 351.237 291.1Z" fill="var(--svg-illustration-color-5)"/>
    <path d="M262 163L376.304 229V216L262 149V163Z" fill="var(--svg-illustration-color-1)"/>
    <path d="M281.351 241.1C281.251 241 281.151 241 281.051 240.9C277.942 239.1 275.436 240.6 275.436 244.2C275.636 248.2 277.742 251.8 281.051 254.1C281.953 254.7 283.056 255 284.159 254.8L285.362 257.9C283.858 258 282.354 257.7 281.051 256.9C276.639 254.3 273.029 248 273.029 242.8C273.029 237.6 276.639 235.5 281.051 238.1C281.151 238.2 281.251 238.2 281.351 238.3V241.1Z" fill="var(--svg-illustration-color-1)"/>
    <path d="M315.442 259.1C315.342 259 315.242 259 315.141 258.9C312.033 257.1 309.527 258.6 309.527 262.2C309.727 266.2 311.833 269.8 315.141 272.1C318.25 273.9 320.756 272.4 320.756 268.8C320.756 267.3 320.355 265.8 319.754 264.5L321.659 264C322.561 266 323.063 268.1 323.163 270.3C323.163 275.5 319.553 277.6 315.141 275C310.73 272.4 307.12 266.1 307.12 260.9C307.12 255.7 310.73 253.6 315.141 256.2C315.242 256.3 315.342 256.3 315.442 256.4V259.1Z" fill="var(--svg-illustration-color-1)"/>
    <path d="M351.538 278.1C351.438 278 351.338 278 351.237 277.9C348.129 276.1 345.622 277.6 345.622 281.2C345.823 285.2 347.929 288.8 351.237 291.1C352.14 291.7 353.243 292 354.346 291.8L355.549 294.9C354.045 295 352.541 294.7 351.237 293.9C346.826 291.3 343.216 285 343.216 279.8C343.216 274.6 346.826 272.5 351.237 275.1C351.338 275.2 351.438 275.2 351.538 275.3V278.1Z" fill="var(--svg-illustration-color-1)"/>
    <path d="M268.6 160C268.6 161.1 267.8 161.6 266.9 161C265.9 160.3 265.2 159.2 265.2 158C265.2 156.9 266 156.4 266.9 157C267.9 157.7 268.5 158.8 268.6 160Z" fill="white"/>
    <path d="M275.5 164C275.5 165.1 274.7 165.6 273.8 165C272.8 164.3 272.1 163.2 272.1 162C272.1 160.9 272.9 160.4 273.8 161C274.8 161.7 275.5 162.8 275.5 164Z" fill="white"/>
    <path d="M282.5 168C282.5 169.1 281.7 169.6 280.8 169C279.8 168.3 279.1 167.2 279.1 166C279.1 164.9 279.9 164.4 280.8 165C281.8 165.7 282.4 166.8 282.5 168Z" fill="white"/>
    <path d="M282 300C282 300 282 301.4 282 302.1C282 302.9 281.4 303.7 280.3 304.4L248 322.9C245.9 324.1 242.7 324.2 240.9 323.2L224.4 313.7C223.7 313.4 223.2 312.6 223.2 311.8C223.2 311.1 223.2 310.1 223.2 310.1L282 300Z" fill="var(--svg-illustration-color-2)"/>
    <path d="M264.2 288.8L280.7 298.3C282.5 299.3 282.3 301.2 280.2 302.4L247.9 320.9C245.8 322.1 242.6 322.2 240.8 321.2L224.3 311.7C222.5 310.7 222.7 308.8 224.8 307.6L257.1 289.1C259.2 287.9 262.4 287.8 264.2 288.8Z" fill="var(--svg-illustration-color-4)"/>
    <path d="M261.6 291.5L276.2 299.9C277.8 300.8 277.6 302.4 275.7 303.5L249.8 318.6C247.9 319.7 245.1 319.8 243.5 318.9L229 310.4C227.4 309.5 227.6 307.9 229.5 306.8L255.4 291.7C257.2 290.6 260 290.5 261.6 291.5Z" fill="var(--svg-illustration-color-1)"/>
    <path d="M251.5 298.7C251.5 298.7 249.8 299.5 247.5 300.7C246.2 301.4 246.2 303.4 246.2 305.3C246.2 306.4 246.5 307.6 246.9 308.6C248.6 309 250.4 309.2 252.2 309.3C254.3 309.2 255.7 309.3 256.8 308.6C258.6 307.5 262.1 305.3 262.1 305.3L258.8 300L251.5 298.7Z" fill="white"/>
    <path d="M256.1 305.2H250.8C250.5 305.2 250.3 305 250.3 304.7V302.7C250.3 302.4 250.5 302.2 250.8 302.2C251.1 302.2 251.3 302.4 251.3 302.7V304.2H256.1C256.4 304.2 256.6 304.4 256.6 304.7C256.6 305 256.4 305.2 256.1 305.2Z" fill="var(--svg-illustration-color-1)"/>
</svg>


