<?xml version="1.0" encoding="UTF-8"?>
<!-- Generator: Adobe Illustrator 17.1.0, SVG Export Plug-In . SVG Version: 6.00 Build 0)  -->
<!DOCTYPE svg PUBLIC "-//W3C//DTD SVG 1.1//EN" "http://www.w3.org/Graphics/SVG/1.1/DTD/svg11.dtd">
<svg version="1.1" id="Layer_1" xmlns="http://www.w3.org/2000/svg" xmlns:xlink="http://www.w3.org/1999/xlink" x="0px" y="0px" viewBox="-113.8 141.3 29.9 29.9" enable-background="new -113.8 141.3 29.9 29.9" xml:space="preserve">
<g>
	<g>
		<path fill="#333333" d="M-84,159.4l-1.7-17.1c-0.1-0.6-0.6-1.1-1.2-1.1h-23.5c-0.6,0-1.1,0.5-1.2,1l-2.1,17.2    c-0.1,0.6-0.1,1.5-0.1,2.2v8.5c0,0.6,0.4,1.1,1.1,1.1H-85c0.6,0,1.1-0.4,1.1-1.1v-8.5C-83.9,161-84,159.9-84,159.4z M-86.1,167.9    c0,0.6-0.5,1.1-1.1,1.1h-23.5c-0.6,0-1.1-0.4-1.1-1.1v-4.3c0-0.6,0.5-1.1,1.1-1.1h23.5c0.6,0,1.1,0.4,1.1,1.1    C-86.1,163.7-86.1,167.9-86.1,167.9z"/>
		<path fill="#333333" d="M-89.1,164.8h-19.2c-0.6,0-1.1,0.5-1.1,1.1c0,0.5,0.5,1.1,1.1,1.1h19.2c0.6,0,1.1-0.4,1.1-1.1    C-88,165.2-88.5,164.8-89.1,164.8z"/>
	</g>
</g>
</svg>