<svg width="38" height="24" viewBox="0 0 38 24" fill="none" xmlns="http://www.w3.org/2000/svg">
<g clip-path="url(#clip0_2)">
<path d="M0 3C0 1.34315 1.34315 0 3 0H35C36.6569 0 38 1.34315 38 3V21C38 22.6569 36.6569 24 35 24H3C1.34315 24 0 22.6569 0 21V3Z" fill="white"/>
<g clip-path="url(#clip1_2)">
<path d="M0 -6.99982H38V13.5137L36.1191 16.4526L38 19.0682V31.0002H0V11.6622L1.17556 10.3103L0 9.0172V-6.99982Z" fill="#016FD0"/>
<path d="M7.3584 19.4799V13.514H13.6596L14.3356 14.3975L15.034 13.514H38.0122L37.997 19.0448C37.997 19.0448 37.3076 19.474 36.6158 19.4799H23.9513L23.1891 18.5395V19.4799H20.6913V17.8746C20.6913 17.8746 20.3501 18.0987 19.6125 18.0987H18.7623V19.4799H14.9806L14.3055 18.5775L13.62 19.4799H7.3584Z" fill="white"/>
<path d="M0 9.01724L1.42094 5.69629H3.8783L4.6847 7.55655V5.69629H7.73944L8.21948 7.04083L8.68488 5.69629H22.3975V6.37224C22.3975 6.37224 23.1183 5.69629 24.303 5.69629L28.7522 5.71188L29.5447 7.54779V5.69629H32.1011L32.8046 6.75088V5.69629H35.3845V11.6623H32.8046L32.1304 10.6043V11.6623H28.3745L27.9968 10.7218H26.9871L26.6156 11.6623H24.0685C23.0491 11.6623 22.3975 11.0001 22.3975 11.0001V11.6623H18.5571L17.7948 10.7218V11.6623H3.51426L3.13682 10.7218H2.13033L1.75556 11.6623H0V9.01724Z" fill="white"/>
<path d="M1.92435 6.4314L0.0078125 10.8985H1.25558L1.6092 10.004H3.66499L4.01678 10.8985H5.29203L3.37732 6.4314H1.92435ZM2.63343 7.47103L3.26006 9.03416H2.00497L2.63343 7.47103Z" fill="#016FD0"/>
<path d="M5.42383 10.8985V6.4314L7.19696 6.438L8.22828 9.31812L9.2349 6.4314H10.9939V10.8985H9.87985V7.60696L8.69898 10.8985H7.722L6.53783 7.60696V10.8985H5.42383Z" fill="#016FD0"/>
<path d="M11.7559 10.8985V6.4314H15.391V7.43063H12.8816V8.19474H15.3324V9.13519H12.8816V9.92869H15.391V10.8985H11.7559Z" fill="#016FD0"/>
<path d="M16.0361 6.4314V10.8985H17.1502V9.31152H17.6192L18.9549 10.8985H20.3163L18.8505 9.25274C19.4521 9.20185 20.0726 8.68425 20.0726 7.88065C20.0726 6.94061 19.3366 6.4314 18.5152 6.4314H16.0361ZM17.1502 7.43062H18.4236C18.7291 7.43062 18.9513 7.67017 18.9513 7.90085C18.9513 8.19762 18.6634 8.37107 18.4401 8.37107H17.1502V7.43062Z" fill="#016FD0"/>
<path d="M21.6648 10.8985H20.5273V6.4314H21.6648V10.8985Z" fill="#016FD0"/>
<path d="M24.3618 10.8985H24.1162C22.9283 10.8985 22.207 9.96029 22.207 8.68333C22.207 7.37483 22.9202 6.4314 24.4204 6.4314H25.6517V7.4894H24.3754C23.7664 7.4894 23.3357 7.96584 23.3357 8.69435C23.3357 9.55946 23.8282 9.92281 24.5377 9.92281H24.8308L24.3618 10.8985Z" fill="#016FD0"/>
<path d="M26.7857 6.4314L24.8691 10.8985H26.1169L26.4705 10.004H28.5263L28.8781 10.8985H30.1534L28.2387 6.4314H26.7857ZM27.4948 7.47103L28.1214 9.03416H26.8663L27.4948 7.47103Z" fill="#016FD0"/>
<path d="M30.2832 10.8985V6.4314H31.6995L33.508 9.23805V6.4314H34.622V10.8985H33.2515L31.3972 8.0184V10.8985H30.2832Z" fill="#016FD0"/>
<path d="M8.12109 18.7152V14.2481H11.7563V15.2473H9.24683V16.0115H11.6976V16.9519H9.24683V17.7454H11.7563V18.7152H8.12109Z" fill="#016FD0"/>
<path d="M25.9336 18.7152V14.2481H29.5688V15.2473H27.0593V16.0115H29.4984V16.9519H27.0593V17.7454H29.5688V18.7152H25.9336Z" fill="#016FD0"/>
<path d="M11.8966 18.7152L13.6666 16.5092L11.8545 14.2481H13.258L14.3372 15.6459L15.4201 14.2481H16.7686L14.9803 16.4817L16.7535 18.7152H15.3502L14.3024 17.3395L13.28 18.7152H11.8966Z" fill="#016FD0"/>
<path d="M16.8857 14.2492V18.7163H18.0291V17.3057H19.2017C20.1939 17.3057 20.946 16.778 20.946 15.7517C20.946 14.9016 20.3562 14.2492 19.3465 14.2492H16.8857ZM18.0291 15.2595H19.264C19.5846 15.2595 19.8137 15.4564 19.8137 15.7738C19.8137 16.0719 19.5857 16.2881 19.2603 16.2881H18.0291V15.2595Z" fill="#016FD0"/>
<path d="M21.4297 14.2481V18.7152H22.5437V17.1282H23.0128L24.3485 18.7152H25.7098L24.244 17.0695C24.8456 17.0186 25.4661 16.501 25.4661 15.6974C25.4661 14.7573 24.7301 14.2481 23.9087 14.2481H21.4297ZM22.5437 15.2473H23.8171C24.1226 15.2473 24.3448 15.4869 24.3448 15.7176C24.3448 16.0143 24.0569 16.1878 23.8336 16.1878H22.5437V15.2473Z" fill="#016FD0"/>
<path d="M30.0838 18.7152V17.7454H32.3133C32.6432 17.7454 32.786 17.5667 32.786 17.3707C32.786 17.1829 32.6437 16.993 32.3133 16.993H31.3058C30.4301 16.993 29.9424 16.4582 29.9424 15.6551C29.9424 14.9388 30.389 14.2481 31.6904 14.2481H33.8597L33.3907 15.2532H31.5145C31.1558 15.2532 31.0454 15.4419 31.0454 15.622C31.0454 15.8072 31.1818 16.0115 31.4558 16.0115H32.5112C33.4874 16.0115 33.911 16.5666 33.911 17.2935C33.911 18.0751 33.439 18.7152 32.4581 18.7152H30.0838Z" fill="#016FD0"/>
<path d="M34.1727 18.7152V17.7454H36.4022C36.7321 17.7454 36.8749 17.5667 36.8749 17.3707C36.8749 17.1829 36.7325 16.993 36.4022 16.993H35.3947C34.519 16.993 34.0312 16.4582 34.0312 15.6551C34.0312 14.9388 34.4779 14.2481 35.7792 14.2481H37.9486L37.4796 15.2532H35.6033C35.2447 15.2532 35.1343 15.4419 35.1343 15.622C35.1343 15.8072 35.2707 16.0115 35.5447 16.0115H36.6001C37.5763 16.0115 37.9999 16.5666 37.9999 17.2935C37.9999 18.0751 37.5279 18.7152 36.5469 18.7152H34.1727Z" fill="#016FD0"/>
</g>
</g>
<defs>
<clipPath id="clip0_2">
<path d="M0 3C0 1.34315 1.34315 0 3 0H35C36.6569 0 38 1.34315 38 3V21C38 22.6569 36.6569 24 35 24H3C1.34315 24 0 22.6569 0 21V3Z" fill="white"/>
</clipPath>
<clipPath id="clip1_2">
<rect width="38" height="38" fill="white" transform="translate(0 -7)"/>
</clipPath>
</defs>
</svg>
