<svg width="38" height="24" viewBox="0 0 38 24" fill="none" xmlns="http://www.w3.org/2000/svg">
<path d="M0 3C0 1.34315 1.34315 0 3 0H35C36.6569 0 38 1.34315 38 3V21C38 22.6569 36.6569 24 35 24H3C1.34315 24 0 22.6569 0 21V3Z" fill="#0E4595"/>
<path d="M21.9739 6.31964H16.0254V17.7684H21.9739V6.31964Z" fill="#FF5F00"/>
<path d="M16.4034 12.0438C16.4034 9.71759 17.4232 7.65438 18.9906 6.31937C17.8386 5.34844 16.3846 4.76184 14.7983 4.76184C11.0403 4.76184 8 8.01848 8 12.0438C8 16.069 11.0403 19.3257 14.7983 19.3257C16.3846 19.3257 17.8386 18.7391 18.9906 17.7682C17.4232 16.4534 16.4034 14.3699 16.4034 12.0438Z" fill="#EB001B"/>
<path d="M30.0003 12.0438C30.0003 16.069 26.96 19.3257 23.202 19.3257C21.6158 19.3257 20.1617 18.7391 19.0098 17.7682C20.596 16.4331 21.5969 14.3699 21.5969 12.0438C21.5969 9.71759 20.5771 7.65438 19.0098 6.31937C20.1617 5.34844 21.6158 4.76184 23.202 4.76184C26.96 4.76184 30.0003 8.03871 30.0003 12.0438Z" fill="#F79E1B"/>
</svg>
