<svg width="57" height="24" viewBox="0 0 57 24" fill="none" xmlns="http://www.w3.org/2000/svg">
<path fill-rule="evenodd" clip-rule="evenodd" d="M56.9995 12.4003C56.9995 8.29881 55.0362 5.0625 51.2837 5.0625C47.5154 5.0625 45.2354 8.29881 45.2354 12.3682C45.2354 17.1907 47.927 19.6259 51.7904 19.6259C53.6745 19.6259 55.0995 19.1933 56.1762 18.5845V15.3802C55.0995 15.925 53.8645 16.2614 52.297 16.2614C50.7612 16.2614 49.3995 15.7167 49.2254 13.8262H56.9679C56.9679 13.6179 56.9995 12.7848 56.9995 12.4003ZM49.1779 10.8783C49.1779 9.06784 50.2704 8.31483 51.2679 8.31483C52.2337 8.31483 53.2629 9.06784 53.2629 10.8783H49.1779Z" fill="#635BFF"/>
<path fill-rule="evenodd" clip-rule="evenodd" d="M39.1245 5.0625C37.5729 5.0625 36.5754 5.79948 36.0212 6.31217L35.8154 5.31884H32.332V23.9997L36.2904 23.1506L36.3062 18.6166C36.8762 19.0331 37.7154 19.6259 39.1087 19.6259C41.9429 19.6259 44.5237 17.3188 44.5237 12.2401C44.5079 7.59387 41.8954 5.0625 39.1245 5.0625ZM38.1745 16.1012C37.2404 16.1012 36.6862 15.7648 36.3062 15.3482L36.2904 9.40429C36.702 8.93967 37.272 8.61924 38.1745 8.61924C39.6154 8.61924 40.6129 10.2534 40.6129 12.3522C40.6129 14.4991 39.6312 16.1012 38.1745 16.1012Z" fill="#635BFF"/>
<path fill-rule="evenodd" clip-rule="evenodd" d="M26.8848 4.11749L30.8589 3.25233V0L26.8848 0.849131V4.11749Z" fill="#635BFF"/>
<path d="M30.8589 5.33508H26.8848V19.3538H30.8589V5.33508Z" fill="#635BFF"/>
<path fill-rule="evenodd" clip-rule="evenodd" d="M22.6255 6.52062L22.3722 5.33504H18.9521V19.3537H22.9105V9.85306C23.8447 8.61942 25.428 8.84371 25.9188 9.01995V5.33504C25.4122 5.14278 23.5597 4.79031 22.6255 6.52062Z" fill="#635BFF"/>
<path fill-rule="evenodd" clip-rule="evenodd" d="M14.7092 1.85852L10.8459 2.69163L10.8301 15.5247C10.8301 17.8959 12.5876 19.6422 14.9309 19.6422C16.2292 19.6422 17.1792 19.4019 17.7017 19.1135V15.8612C17.1951 16.0695 14.6934 16.8064 14.6934 14.4353V8.7477H17.7017V5.33515H14.6934L14.7092 1.85852Z" fill="#635BFF"/>
<path fill-rule="evenodd" clip-rule="evenodd" d="M4.00583 9.40429C4.00583 8.77945 4.5125 8.53913 5.35167 8.53913C6.555 8.53913 8.075 8.90762 9.27833 9.5645V5.79948C7.96417 5.27078 6.66583 5.0625 5.35167 5.0625C2.1375 5.0625 0 6.76076 0 9.59654C0 14.0184 6.01667 13.3135 6.01667 15.22C6.01667 15.957 5.38333 16.1973 4.49667 16.1973C3.1825 16.1973 1.50417 15.6526 0.174166 14.9156V18.7287C1.64667 19.3696 3.135 19.6419 4.49667 19.6419C7.79 19.6419 10.0542 17.9917 10.0542 15.1239C10.0383 10.3495 4.00583 11.1987 4.00583 9.40429Z" fill="#635BFF"/>
</svg>
