<svg width="38" height="24" viewBox="0 0 38 24" fill="none" xmlns="http://www.w3.org/2000/svg">
<path d="M0 3C0 1.34315 1.34315 0 3 0H35C36.6569 0 38 1.34315 38 3V21C38 22.6569 36.6569 24 35 24H3C1.34315 24 0 22.6569 0 21V3Z" fill="white"/>
<g clip-path="url(#clip0_1)">
<path d="M36.6525 0H1.34797C0.183899 0 -0.759766 0.912541 -0.759766 2.03822V21.9618C-0.759766 23.0875 0.183899 24 1.34797 24H36.6525C37.8166 24 38.7602 23.0875 38.7602 21.9618V2.03822C38.7602 0.912541 37.8166 0 36.6525 0Z" fill="#0E4595"/>
<path fill-rule="evenodd" clip-rule="evenodd" d="M13.728 16.4022L15.2831 7.6739H17.7704L16.2142 16.4022H13.728ZM25.2 7.86219C24.7072 7.68536 23.9351 7.49561 22.9709 7.49561C20.5132 7.49561 18.782 8.67936 18.7673 10.376C18.7534 11.6302 20.0031 12.3298 20.9466 12.7473C21.9148 13.1751 22.2402 13.448 22.2356 13.83C22.2295 14.415 21.4625 14.6823 20.7476 14.6823C19.7521 14.6823 19.2232 14.5501 18.4064 14.2242L18.0859 14.0855L17.7368 16.0394C18.3177 16.283 19.392 16.4941 20.5074 16.505C23.1219 16.505 24.8191 15.3348 24.8385 13.523C24.8478 12.5302 24.1851 11.7745 22.7502 11.1516C21.8809 10.7478 21.3484 10.4784 21.3541 10.0696C21.3541 9.70676 21.8047 9.31877 22.7784 9.31877C23.5918 9.30673 24.181 9.47638 24.64 9.65317L24.8629 9.75393L25.2001 7.86215L25.2 7.86219ZM31.6004 7.6739H29.6785C29.083 7.6739 28.6375 7.82938 28.376 8.39771L24.6821 16.3966H27.294C27.294 16.3966 27.721 15.3211 27.8176 15.085C28.103 15.085 30.6402 15.0887 31.003 15.0887C31.0774 15.3943 31.3056 16.3966 31.3056 16.3966H33.6135L31.6004 7.6739ZM28.551 13.3099C28.7568 12.807 29.542 10.87 29.542 10.87C29.5273 10.8933 29.7462 10.3647 29.8718 10.037L30.0399 10.7895C30.0399 10.7895 30.5162 12.8729 30.6157 13.3099H28.551ZM11.6167 7.67395L9.18167 13.626L8.92217 12.4164C8.46886 11.022 7.05647 9.51138 5.47754 8.75507L7.70407 16.3883L10.3357 16.3854L14.2514 7.67395H11.6167Z" fill="white"/>
<path fill-rule="evenodd" clip-rule="evenodd" d="M6.90959 7.67358H2.89893L2.86719 7.85518C5.98739 8.57765 8.05203 10.3236 8.90911 12.4214L8.03698 8.41046C7.88642 7.85781 7.44979 7.69289 6.90959 7.67363" fill="#F2AE14"/>
</g>
<defs>
<clipPath id="clip0_1">
<rect width="38" height="24" fill="white"/>
</clipPath>
</defs>
</svg>
