<svg width="376" height="324" viewBox="0 0 376 324" fill="none" xmlns="http://www.w3.org/2000/svg">
<g clip-path="url(#clip0_4682_171799)">
<path d="M233.994 245.134L335.238 304.394L303.492 322.923L202.137 263.776L233.994 245.134Z" fill="url(#paint0_linear_4682_171799)" fill-opacity="0.1"/>
<path d="M178.106 270.689L217.854 293.889L168.627 322.694L128.915 299.42L127.421 273.682L144.529 263.674L178.106 270.689Z" fill="url(#paint1_linear_4682_171799)" fill-opacity="0.1"/>
<path d="M1.90002 0L143.9 82V190L1.90002 108V0Z" fill="white"/>
<path fill-rule="evenodd" clip-rule="evenodd" d="M101.5 74.5001C102 74.8001 102.4 74.5001 102.4 74.0001C102.4 73.4001 102 72.8001 101.5 72.5001L89.4 65.5001C88.9 65.2001 88.5 65.5001 88.5 66.0001C88.5 66.6001 88.9 67.2001 89.4 67.5001L101.5 74.5001ZM132.6 109.5C133.1 109.8 133.5 109.5 133.5 109C133.5 108.4 133.1 107.8 132.6 107.5L89.3 82.5001C88.8 82.2001 88.4 82.5001 88.4 83.0001C88.4 83.6001 88.8 84.2001 89.3 84.5001L132.6 109.5ZM132.6 127.5C133.1 127.8 133.5 127.5 133.5 127C133.5 126.4 133.1 125.8 132.6 125.5L98 105.5C97.5 105.2 97.1 105.5 97.1 106C97.1 106.6 97.5 107.2 98 107.5L132.6 127.5ZM123.2 127C123.2 127.5 122.8 127.8 122.3 127.5L89.4 108.5C88.9 108.2 88.5 107.6 88.5 107C88.5 106.5 88.9 106.2 89.4 106.5L122.3 125.5C122.8 125.8 123.2 126.4 123.2 127ZM101.5 127.5C102 127.8 102.4 127.5 102.4 127C102.4 126.4 102 125.8 101.5 125.5L89.4 118.5C88.9 118.2 88.5 118.5 88.5 119C88.5 119.6 88.9 120.2 89.4 120.5L101.5 127.5ZM128.3 142C128.3 142.6 127.9 142.8 127.4 142.5L106.6 130.5C106.1 130.2 105.7 129.6 105.7 129C105.7 128.4 106.1 128.2 106.6 128.5L127.4 140.5C127.9 140.8 128.3 141.4 128.3 142ZM101.5 97.5001C102 97.8001 102.4 97.5001 102.4 97.0001C102.4 96.4001 102 95.8001 101.5 95.5001L89.4 88.5001C88.9 88.2001 88.5 88.5001 88.5 89.0001C88.5 89.6001 88.9 90.2001 89.4 90.5001L101.5 97.5001ZM128.3 112C128.3 112.5 127.9 112.8 127.4 112.5L106.6 100.5C106.1 100.2 105.7 99.6001 105.7 99.0001C105.7 98.5001 106.1 98.2001 106.6 98.5001L127.4 110.5C127.9 110.8 128.3 111.4 128.3 112ZM113.6 110.5C114.1 110.8 114.5 110.5 114.5 110C114.5 109.4 114.1 108.8 113.6 108.5L89.4 94.5001C88.9 94.2001 88.5 94.5001 88.5 95.0001C88.5 95.6001 88.9 96.2001 89.4 96.5001L113.6 110.5ZM123.2 115C123.2 115.5 122.8 115.8 122.3 115.5L118.8 113.5C118.3 113.2 117.9 112.6 117.9 112C117.9 111.5 118.3 111.2 118.8 111.5L122.3 113.5C122.8 113.8 123.2 114.4 123.2 115ZM115.3 129.5C114.8 129.2 114.5 128.6 114.4 128C114.4 127.4 114.8 127.2 115.3 127.5L127.4 134.5C127.9 134.8 128.2 135.4 128.3 136C128.3 136.6 127.9 136.8 127.4 136.5L115.3 129.5ZM88.4 101C88.5 101.6 88.8 102.2 89.3 102.5L92.8 104.5C93.3 104.8 93.7 104.6 93.7 104C93.6 103.4 93.3 102.8 92.8 102.5L89.3 100.5C88.8 100.2 88.4 100.4 88.4 101ZM89.3 114.5C88.8 114.2 88.5 113.6 88.4 113C88.4 112.4 88.8 112.2 89.3 112.5L110.1 124.5C110.6 124.8 110.9 125.4 111 126C111 126.6 110.6 126.8 110.1 126.5L89.3 114.5ZM133.5 168C133.5 168.6 133.1 168.8 132.6 168.5L120.5 161.5C120 161.2 119.6 160.6 119.6 160C119.6 159.4 120 159.2 120.5 159.5L132.6 166.5C133.1 166.8 133.5 167.4 133.5 168ZM111 138C111 138.6 110.6 138.8 110.1 138.5L89.3 126.5C88.8 126.2 88.4 125.6 88.4 125C88.4 124.5 88.8 124.2 89.3 124.5L110.1 136.5C110.6 136.8 111 137.4 111 138Z" fill="#A4E0FF"/>
<path fill-rule="evenodd" clip-rule="evenodd" d="M29.1 36.1197C29.6 36.4197 30 36.1197 30 35.6197C30 35.0197 29.6 34.4197 29.1 34.1197L17 27.1197C16.5 26.8197 16.1 27.1197 16.1 27.6197C16.1 28.2197 16.5 28.8197 17 29.1197L29.1 36.1197ZM60.2 71.1197C60.7 71.4197 61.1 71.1197 61.1 70.6197C61.1 70.0197 60.7 69.4197 60.2 69.1197L16.9 44.1197C16.4 43.8197 16 44.1197 16 44.6197C16 45.2197 16.4 45.8197 16.9 46.1197L60.2 71.1197ZM60.2 89.1197C60.7 89.4197 61.1 89.1197 61.1 88.6197C61.1 88.0197 60.7 87.4197 60.2 87.1197L25.6 67.1197C25.1 66.8197 24.7 67.1197 24.7 67.6197C24.7 68.2197 25.1 68.8197 25.6 69.1197L60.2 89.1197ZM50.8 88.6197C50.8 89.1197 50.4 89.4197 49.9 89.1197L17 70.1197C16.5 69.8197 16.1 69.2197 16.1 68.6197C16.1 68.1197 16.5 67.8197 17 68.1197L49.9 87.1197C50.4 87.4197 50.8 88.0197 50.8 88.6197ZM29.1 89.1197C29.6 89.4197 30 89.1197 30 88.6197C30 88.0197 29.6 87.4197 29.1 87.1197L17 80.1197C16.5 79.8197 16.1 80.1197 16.1 80.6197C16.1 81.2197 16.5 81.8197 17 82.1197L29.1 89.1197ZM55.8999 103.62C55.8999 104.22 55.4999 104.42 54.9999 104.12L34.1999 92.1198C33.6999 91.8198 33.2999 91.2198 33.2999 90.6198C33.2999 90.0198 33.6999 89.8198 34.1999 90.1198L54.9999 102.12C55.4999 102.42 55.8999 103.02 55.8999 103.62ZM29.1 59.1197C29.6 59.4197 30 59.1197 30 58.6197C30 58.0197 29.6 57.4197 29.1 57.1197L17 50.1197C16.5 49.8197 16.1 50.1197 16.1 50.6197C16.1 51.2197 16.5 51.8197 17 52.1197L29.1 59.1197ZM55.8999 73.6197C55.8999 74.1197 55.4999 74.4197 54.9999 74.1197L34.1999 62.1197C33.6999 61.8197 33.2999 61.2197 33.2999 60.6197C33.2999 60.1197 33.6999 59.8197 34.1999 60.1197L54.9999 72.1197C55.4999 72.4197 55.8999 73.0197 55.8999 73.6197ZM41.2 72.1197C41.7 72.4197 42.1 72.1197 42.1 71.6197C42.1 71.0197 41.7 70.4197 41.2 70.1197L17 56.1197C16.5 55.8197 16.1 56.1197 16.1 56.6197C16.1 57.2197 16.5 57.8197 17 58.1197L41.2 72.1197ZM50.8 76.6197C50.8 77.1197 50.4 77.4197 49.9 77.1197L46.4 75.1197C45.9 74.8197 45.5 74.2197 45.5 73.6197C45.5 73.1197 45.9 72.8197 46.4 73.1197L49.9 75.1197C50.4 75.4197 50.8 76.0197 50.8 76.6197ZM42.9 91.1198C42.4 90.8198 42.1 90.2198 42 89.6198C42 89.0198 42.4 88.8198 42.9 89.1198L55 96.1198C55.5 96.4198 55.8 97.0198 55.9 97.6198C55.9 98.2198 55.5 98.4198 55 98.1198L42.9 91.1198ZM16 62.6198C16.1 63.2198 16.4 63.8198 16.9 64.1198L20.4 66.1198C20.9 66.4198 21.3 66.2198 21.3 65.6198C21.2 65.0198 20.9 64.4198 20.4 64.1198L16.9 62.1198C16.4 61.8198 16 62.0198 16 62.6198ZM16.9 76.1198C16.4 75.8198 16.1 75.2198 16 74.6198C16 74.0198 16.4 73.8198 16.9 74.1198L37.7 86.1198C38.2 86.4198 38.5 87.0198 38.6 87.6198C38.6 88.2198 38.2 88.4198 37.7 88.1198L16.9 76.1198ZM61.1 129.62C61.1 130.22 60.7 130.42 60.2 130.12L48.1 123.12C47.6 122.82 47.2 122.22 47.2 121.62C47.2 121.02 47.6 120.82 48.1 121.12L60.2 128.12C60.7 128.42 61.1 129.02 61.1 129.62ZM38.6 99.6197C38.6 100.22 38.2 100.42 37.7 100.12L16.9 88.1197C16.4 87.8197 16 87.2197 16 86.6197C16 86.1197 16.4 85.8197 16.9 86.1197L37.7 98.1197C38.2 98.4197 38.6 99.0197 38.6 99.6197Z" fill="#A4E0FF"/>
<path d="M91.9 153C89.8 151.7 88 149.9 86.7 147.7V169L91.9 166L97.1 175V153.7C95.7 154.4 93.8 154.1 91.9 153Z" fill="#1062FE"/>
<path d="M95.4 154C96 153.7 96.5 153.2 96.8 152.6C95.5 153.3 93.7 153.1 92 152.1C87.9 149.4 85.3 145 85.1 140.1C85.1 138.1 85.8 136.5 87.1 135.7C86.4 135.7 85.7 135.8 85.1 136.1C83.7 136.9 83 138.7 83 140.8C83.3 145.9 86 150.7 90.3 153.5C92.1 154.5 94 154.8 95.4 154Z" fill="#3192E7"/>
<path d="M96 153C94.6 153.8 92.9 153.5 91.1 152.5C87 149.8 84.4 145.4 84.2 140.5C84.2 138.4 84.9 136.8 86.2 136C87.5 135.2 89.3 135.5 91.1 136.5C95.2 139.2 97.8 143.6 98 148.5C98 150.6 97.3 152.2 96 153Z" fill="#88D3FF"/>
<path d="M90.2 147C90.2 147.6 90.6 148.2 91.1 148.5C91.6 148.8 92 148.6 92 148V142C92 141.4 91.6 140.8 91.1 140.5C90.6 140.2 90.2 140.4 90.2 141V147Z" fill="white"/>
<path d="M98.1 140.5C96.6 137.9 94.5 135.6 92 134C89.8 132.7 87.6 132.4 85.9 133.4L84.2 134.4L84.5 136.6C84.7 136.4 84.9 136.2 85.1 136C86.5 135.2 88.4 135.4 90.3 136.5C94.6 139.3 97.3 144 97.6 149.2C97.6 151.4 96.9 153.1 95.4 153.9C94.7 154.3 93.9 154.4 93.1 154.4L96.3 155.6L98 154.6C99.7 153.6 100.5 151.5 100.5 149C100.5 146 99.6 143 98.1 140.5Z" fill="#1062FE"/>
<path d="M96.3 141.5C94.8 138.9 92.7 136.6 90.2 135C88 133.7 85.8 133.4 84.1 134.4C82.4 135.4 81.6 137.5 81.6 140C81.9 146.1 85.1 151.7 90.3 155C92.5 156.3 94.7 156.6 96.4 155.6C98.1 154.6 98.9 152.5 98.9 150C98.8 147 97.9 144 96.3 141.5ZM95.1 153.5C93.8 154.3 92 154 90.2 153C86.1 150.3 83.5 145.9 83.3 141C83.3 138.9 84 137.3 85.3 136.5C86.6 135.7 88.4 136 90.2 137C94.3 139.7 96.9 144.1 97.1 149C97.1 151.1 96.5 152.7 95.1 153.5Z" fill="#88D3FF"/>
<path d="M261.7 161V258L376 324V227L261.7 161Z" fill="white"/>
<path d="M376 228L261.7 162V150L376 216V228Z" fill="#1062FE"/>
<path fill-rule="evenodd" clip-rule="evenodd" d="M268.6 160C268.6 161.1 267.8 161.6 266.9 161C265.9 160.3 265.2 159.2 265.2 158C265.2 156.9 266 156.4 266.9 157C267.9 157.7 268.5 158.8 268.6 160ZM275.5 164C275.5 165.1 274.7 165.6 273.8 165C272.8 164.3 272.1 163.2 272.1 162C272.1 160.9 272.9 160.4 273.8 161C274.8 161.7 275.5 162.8 275.5 164ZM280.8 169C281.7 169.6 282.5 169.1 282.5 168C282.4 166.8 281.8 165.7 280.8 165C279.9 164.4 279.1 164.9 279.1 166C279.1 167.2 279.8 168.3 280.8 169Z" fill="white"/>
<path fill-rule="evenodd" clip-rule="evenodd" d="M290.3 191.5C290.3 192.1 289.9 192.3 289.4 192L272.9 182.5C272.4 182.2 272 181.6 272 181C272 180.4 272.4 180.2 272.9 180.5L289.4 190C289.9 190.3 290.3 190.9 290.3 191.5ZM280.7 193C281.2 193.3 281.6 193.1 281.6 192.5C281.6 191.9 281.2 191.3 280.7 191L272.9 186.5C272.4 186.2 272 186.4 272 187C272 187.6 272.4 188.2 272.9 188.5L280.7 193ZM280.7 199C281.2 199.3 281.6 199.1 281.6 198.5C281.6 197.9 281.2 197.3 280.7 197L272.9 192.5C272.4 192.2 272 192.4 272 193C272 193.6 272.4 194.2 272.9 194.5L280.7 199ZM280.7 229C281.2 229.3 281.6 229.1 281.6 228.5C281.6 227.9 281.2 227.3 280.7 227L272.9 222.5C272.4 222.2 272 222.4 272 223C272 223.6 272.4 224.2 272.9 224.5L280.7 229ZM281.6 256.5C281.6 257 281.2 257.3 280.7 257L272.9 252.5C272.4 252.2 272 251.6 272 251C272 250.4 272.4 250.2 272.9 250.5L280.7 255C281.2 255.3 281.6 255.9 281.6 256.5ZM285.1 207.5C285.6 207.8 286 207.6 286 207C286 206.4 285.6 205.8 285.1 205.5L273 198.5C272.5 198.2 272.1 198.4 272.1 199C272.1 199.6 272.5 200.2 273 200.5L285.1 207.5ZM294.6 218C294.6 218.6 294.2 218.8 293.7 218.5L272.9 206.5C272.4 206.2 272 205.6 272 205C272 204.4 272.4 204.2 272.9 204.5L293.7 216.5C294.2 216.8 294.6 217.4 294.6 218ZM289.4 222C289.9 222.3 290.3 222.1 290.3 221.5C290.3 220.9 289.9 220.3 289.4 220L272.9 210.5C272.4 210.2 272 210.4 272 211C272 211.6 272.4 212.2 272.9 212.5L289.4 222ZM290.3 227.5C290.3 228.1 289.9 228.3 289.4 228L272.9 218.5C272.4 218.2 272 217.6 272 217C272 216.4 272.4 216.2 272.9 216.5L289.4 226C289.9 226.3 290.3 226.9 290.3 227.5Z" fill="#A4E0FF"/>
<path fill-rule="evenodd" clip-rule="evenodd" d="M305.8 199.5L331.8 214.5C332.3 214.8 332.7 215.4 332.7 216V247C332.7 247.6 332.3 247.8 331.8 247.5L305.8 232.5C305.3 232.2 304.9 231.6 304.9 231V200C304.9 199.4 305.3 199.2 305.8 199.5ZM338.7 218.5L364.7 233.5C365.3 233.8 365.6 234.4 365.6 235V266C365.6 266.5 365.2 266.8 364.7 266.5L338.7 251.5C338.2 251.2 337.8 250.6 337.8 250V219C337.8 218.4 338.2 218.2 338.7 218.5ZM364.7 272.5L338.7 257.5C338.2 257.2 337.8 257.5 337.8 258V289C337.8 289.6 338.2 290.2 338.7 290.5L364.7 305.5C365.2 305.8 365.6 305.5 365.6 305V274C365.6 273.4 365.3 272.8 364.7 272.5ZM305.8 238.5L331.8 253.5C332.3 253.8 332.7 254.4 332.7 255V286C332.7 286.5 332.3 286.8 331.8 286.5L305.8 271.5C305.3 271.2 304.9 270.6 304.9 270V239C304.9 238.4 305.3 238.2 305.8 238.5Z" fill="#A4E0FF"/>
<path d="M156.962 120.15C153.762 120.25 150.562 119.45 147.762 117.95C145.362 116.55 143.962 114.75 143.962 112.65C143.962 110.55 145.462 108.65 147.762 107.35C153.562 104.45 160.362 104.45 166.162 107.35C168.562 108.75 169.962 110.55 169.962 112.65C169.962 114.75 168.562 116.65 166.162 117.95C163.362 119.45 160.162 120.25 156.962 120.15Z" fill="#3192E7"/>
<path d="M217.562 155.15C214.362 155.25 211.162 154.45 208.362 152.95C205.962 151.55 204.562 149.75 204.562 147.65C204.562 145.55 205.962 143.75 208.362 142.35C214.162 139.45 220.962 139.45 226.762 142.35C229.162 143.75 230.562 145.55 230.562 147.65C230.562 149.75 229.062 151.55 226.762 152.95C223.962 154.45 220.762 155.25 217.562 155.15Z" fill="white"/>
<path d="M156.962 117.85C154.762 117.85 152.562 117.35 150.562 116.35C148.962 115.45 147.962 114.15 147.962 112.65C147.962 111.15 148.962 109.95 150.562 108.95C154.562 106.95 159.262 106.95 163.262 108.95C164.862 109.85 165.862 111.15 165.862 112.65C165.862 114.15 164.862 115.35 163.262 116.35C161.362 117.35 159.162 117.85 156.962 117.85Z" fill="white"/>
<path d="M156.962 129.85C154.762 129.85 152.562 129.35 150.562 128.35C148.962 127.45 147.962 126.15 147.962 124.65V112.65H165.962V124.65C165.962 126.05 164.962 127.35 163.362 128.35C161.362 129.35 159.162 129.85 156.962 129.85Z" fill="white"/>
<path d="M217.562 152.85C215.362 152.85 213.162 152.35 211.162 151.35C209.562 150.45 208.562 149.15 208.562 147.65C208.562 146.15 209.562 144.95 211.162 143.95C215.162 141.95 219.862 141.95 223.862 143.95C225.462 144.85 226.462 146.15 226.462 147.65C226.462 149.15 225.462 150.35 223.862 151.35C221.962 152.35 219.762 152.85 217.562 152.85Z" fill="white"/>
<path d="M217.562 164.85C215.362 164.85 213.162 164.35 211.162 163.35C209.562 162.45 208.562 161.15 208.562 159.65V147.65H226.562V159.65C226.562 161.05 225.562 162.35 223.962 163.35C221.962 164.35 219.762 164.85 217.562 164.85Z" fill="white"/>
<path d="M247.062 147.65L156.962 95.6499C156.262 95.1499 155.362 95.0499 154.562 95.4499L125.162 112.45L220.162 167.25L249.562 150.25C248.962 149.15 248.062 148.25 247.062 147.65ZM165.462 117.55C160.162 120.25 153.762 120.25 148.462 117.55C146.262 116.25 144.962 114.55 144.962 112.65C144.962 110.75 146.362 109.05 148.462 107.75C153.762 105.05 160.162 105.05 165.462 107.75C167.662 109.05 168.962 110.75 168.962 112.65C168.962 114.55 167.562 116.35 165.462 117.55ZM226.062 152.55C220.762 155.25 214.362 155.25 209.062 152.55C206.862 151.25 205.562 149.55 205.562 147.65C205.562 145.75 206.862 144.05 209.062 142.75C214.362 140.05 220.762 140.05 226.062 142.75C228.262 144.05 229.562 145.75 229.562 147.65C229.562 149.55 228.262 151.25 226.062 152.55Z" fill="#A4E0FF"/>
<path d="M247.062 147.65L217.662 164.65L220.062 167.25V272.85L249.462 255.85C250.162 255.35 250.562 254.45 250.462 253.65V239.65L245.262 232.45L250.462 219.65V213.65L245.262 206.45L250.462 193.65V187.65L245.262 180.45L250.462 167.65V153.65C250.462 152.45 250.062 151.25 249.462 150.25L247.062 147.65Z" fill="#3192E7"/>
<path d="M221.062 170.65C220.962 168.25 219.662 165.95 217.562 164.65L127.462 112.65C126.562 111.85 125.262 111.95 124.462 112.85C124.062 113.35 123.862 113.95 123.962 114.65V214.65C124.062 217.05 125.362 219.35 127.462 220.65L217.562 272.65C218.462 273.45 219.762 273.35 220.562 272.45C220.962 271.95 221.162 271.25 221.062 270.65V170.65ZM178.662 195.25C177.862 195.65 176.962 195.85 175.962 195.85V208.65C175.962 210.85 174.362 211.75 172.462 210.65C170.462 209.35 169.162 207.05 168.962 204.65V191.85C167.962 190.75 167.062 189.55 166.262 188.25C164.662 185.65 163.862 182.75 163.762 179.75C163.762 177.15 164.662 175.15 166.262 174.15C167.862 173.15 170.162 173.45 172.362 174.75C177.462 178.05 180.662 183.65 181.062 189.75C181.162 192.25 180.362 194.25 178.662 195.25Z" fill="#1062FE"/>
<path d="M240.062 244.65C240.062 244.85 240.162 245.05 240.362 245.25C240.562 245.35 240.762 245.35 240.962 245.15L250.462 239.65V219.65L240.962 225.15C240.662 225.35 240.462 225.55 240.362 225.75C240.162 226.05 240.162 226.25 240.062 226.65V244.65Z" fill="#1062FE"/>
<path d="M240.062 218.65C240.062 218.85 240.162 219.05 240.362 219.25C240.562 219.35 240.762 219.35 240.962 219.15L250.462 213.65V193.65L240.962 199.15C240.662 199.35 240.462 199.55 240.362 199.75C240.162 200.05 240.162 200.25 240.062 200.65V218.65Z" fill="#1062FE"/>
<path d="M217.562 152.85C215.362 152.85 213.162 152.35 211.162 151.35C209.562 150.45 208.562 149.15 208.562 147.65V115.65H226.562V147.65C226.562 149.05 225.562 150.35 223.962 151.35C221.962 152.35 219.762 152.85 217.562 152.85Z" fill="white"/>
<path d="M240.062 192.65C240.062 192.85 240.162 193.05 240.362 193.25C240.562 193.35 240.762 193.35 240.962 193.15L250.462 187.65V167.65L240.962 173.15C240.662 173.35 240.462 173.55 240.362 173.75C240.162 174.05 240.162 174.25 240.062 174.65V192.65Z" fill="#1062FE"/>
<path d="M156.962 117.85C154.762 117.85 152.562 117.35 150.562 116.35C148.962 115.45 147.962 114.15 147.962 112.65V80.6499H165.962V112.65C165.962 114.05 164.962 115.35 163.362 116.35C161.362 117.35 159.162 117.85 156.962 117.85Z" fill="white"/>
<path d="M156.962 85.8499C154.762 85.8499 152.562 85.3499 150.562 84.3499C148.962 83.3499 147.962 82.1499 147.962 80.6499C147.962 79.1499 148.962 77.95 150.562 76.95C154.562 74.95 159.262 74.95 163.262 76.95C164.862 77.85 165.862 79.1499 165.862 80.6499C165.862 82.1499 164.862 83.3499 163.262 84.3499C161.362 85.3499 159.162 85.8499 156.962 85.8499Z" fill="white"/>
<path d="M217.562 120.85C215.362 120.85 213.162 120.35 211.162 119.35C209.562 118.45 208.562 117.15 208.562 115.65C208.562 114.15 209.562 112.95 211.162 111.95C215.162 109.95 219.862 109.95 223.862 111.95C225.462 112.85 226.462 114.15 226.462 115.65C226.462 117.15 225.462 118.35 223.862 119.35C221.962 120.35 219.762 120.85 217.562 120.85Z" fill="white"/>
<path fill-rule="evenodd" clip-rule="evenodd" d="M161.342 53.2347C170.595 47.8811 181.773 49.5535 191.782 55.3674C201.809 61.1915 210.401 70.7967 216.467 81.2982C222.533 91.7981 226.562 104.042 226.562 115.65C226.562 120.62 222.532 124.65 217.562 124.65C212.591 124.65 208.562 120.62 208.562 115.65C208.562 107.958 205.791 98.8015 200.881 90.3014C195.972 81.8029 189.414 74.8081 182.741 70.9322C176.051 67.0461 172.078 67.8185 170.356 68.8148C168.622 69.8186 165.962 72.9037 165.962 80.6498C165.962 85.6204 161.932 89.6498 156.962 89.6498C151.991 89.6498 147.962 85.6204 147.962 80.6498C147.962 69.0959 152.102 58.581 161.342 53.2347Z" fill="white"/>
<path d="M189.562 286.65V280.65C189.562 280.65 182.662 274.45 179.562 272.65C173.362 269.05 164.762 266.85 155.262 266.85C148.962 266.75 142.662 267.85 136.762 269.95L52.6616 225.65V231.65C52.7616 232.95 53.5616 234.15 54.8616 234.65L126.462 275.95C125.362 276.95 121.062 280.65 121.062 280.65V286.65C121.062 292.15 124.862 297.05 131.062 300.65C137.262 304.25 145.862 306.45 155.362 306.45C164.862 306.45 173.462 304.25 179.662 300.65C185.862 297.05 189.562 292.15 189.562 286.65ZM155.262 297.95C150.462 298.05 145.662 296.95 141.362 294.65C137.762 292.65 135.662 289.75 135.662 286.65C135.662 283.55 137.862 280.65 141.362 278.65C150.062 274.25 160.362 274.25 169.062 278.65C172.562 280.65 174.762 283.55 174.762 286.65C174.762 289.75 172.562 292.65 169.062 294.65C164.862 296.95 160.062 298.05 155.262 297.95Z" fill="#3192E7"/>
<path d="M189.562 280.65C189.562 275.15 185.762 270.25 179.562 266.65C173.362 263.05 164.762 260.85 155.262 260.85C148.962 260.75 142.662 261.85 136.762 263.95L65.1617 222.65C61.8617 220.95 58.0617 220.95 54.7617 222.65C53.0617 223.25 52.2617 225.05 52.7617 226.65C53.0617 227.55 53.7617 228.35 54.7617 228.65L126.362 269.95C122.962 273.05 120.962 276.65 120.962 280.65C120.962 286.15 124.762 291.05 130.962 294.65C137.162 298.25 145.762 300.45 155.262 300.45C164.762 300.45 173.362 298.25 179.562 294.65C185.762 291.05 189.562 286.15 189.562 280.65ZM155.262 291.95C150.462 292.05 145.662 290.95 141.362 288.65C137.762 286.65 135.662 283.75 135.662 280.65C135.662 277.55 137.862 274.65 141.362 272.65C150.062 268.25 160.362 268.25 169.062 272.65C172.562 274.65 174.762 277.55 174.762 280.65C174.762 283.75 172.562 286.65 169.062 288.65C164.862 290.95 160.062 292.05 155.262 291.95Z" fill="#A4E0FF"/>
<path d="M73.8616 243.65H47.1616V245.65C47.1616 246.05 47.4616 246.45 47.8616 246.65L58.2616 252.65C59.3616 253.15 60.6616 253.15 61.7616 252.65L73.8616 245.65V243.65Z" fill="#3192E7"/>
<path d="M59.9617 235.65L54.7617 238.65L65.8617 248.25L73.8617 243.65L59.9617 235.65Z" fill="#A4E0FF"/>
<path d="M65.8616 249.15V245.65L47.0616 241.65V243.65L58.1616 251.15C59.2616 251.65 60.5616 251.65 61.6616 251.15L65.8616 249.15Z" fill="#3192E7"/>
<path d="M65.8617 245.65C65.8617 245.25 65.5617 244.85 65.1617 244.65L54.7617 238.65C53.6617 238.15 52.3617 238.15 51.2617 238.65L47.7617 240.65C47.1617 240.85 46.8617 241.45 47.0617 241.95C47.1617 242.25 47.4617 242.55 47.7617 242.65L58.1617 248.65C59.2617 249.15 60.5617 249.15 61.6617 248.65L65.1617 246.65C65.5617 246.45 65.8617 246.05 65.8617 245.65Z" fill="#A4E0FF"/>
<path d="M170.13 214.565L170.234 214.631L170.344 214.686C171.334 215.181 172.63 215.65 174.062 215.65C177.945 215.65 180.583 212.411 180.462 208.705V199.457C180.623 199.378 180.784 199.292 180.94 199.198C184.105 197.324 185.662 193.759 185.662 189.75V189.676L185.657 189.603C185.211 182.012 181.192 175.087 174.823 170.953L174.786 170.929L174.748 170.906C172.918 169.808 170.815 169.17 168.663 169.15C166.93 169.029 165.352 169.482 163.983 170.302C160.818 172.176 159.262 175.741 159.262 179.75V179.788L159.263 179.826C159.376 183.571 160.507 187.276 162.404 190.512C162.992 191.52 163.677 192.582 164.462 193.564V204.75V204.83L164.467 204.911C164.715 208.756 166.706 212.41 170.13 214.565Z" stroke="white" stroke-width="5"/>
<path d="M174.062 213.15C173.162 213.15 172.262 212.85 171.462 212.45C168.762 210.75 167.162 207.85 166.962 204.75V192.65C166.062 191.65 165.262 190.45 164.562 189.25C162.862 186.35 161.862 183.05 161.762 179.75C161.762 176.35 163.062 173.75 165.262 172.45C166.262 171.85 167.362 171.55 168.562 171.65C170.262 171.65 171.962 172.15 173.462 173.05C179.162 176.75 182.762 182.95 183.162 189.75C183.162 193.15 181.862 195.75 179.662 197.05C179.162 197.35 178.562 197.55 177.962 197.75V208.75C178.062 211.25 176.362 213.15 174.062 213.15Z" fill="white"/>
</g>
<defs>
<linearGradient id="paint0_linear_4682_171799" x1="211.086" y1="269.075" x2="273.267" y2="369.217" gradientUnits="userSpaceOnUse">
<stop/>
<stop offset="0.821171" stop-opacity="0"/>
</linearGradient>
<linearGradient id="paint1_linear_4682_171799" x1="122.702" y1="295.421" x2="164.805" y2="369.749" gradientUnits="userSpaceOnUse">
<stop/>
<stop offset="0.578125" stop-opacity="0"/>
</linearGradient>
<clipPath id="clip0_4682_171799">
<rect width="376" height="324" fill="white"/>
</clipPath>
</defs>
</svg>
