<svg width="376" height="324" viewBox="0 0 376 324" fill="none" xmlns="http://www.w3.org/2000/svg">
<g clip-path="url(#clip0_4682_171796)">
<path d="M169.44 221.568L264.198 276.735L185.061 323.775L90.0609 268.786L169.44 221.568Z" fill="url(#paint0_linear_4682_171796)" fill-opacity="0.1"/>
<path d="M0 109L114.304 175V68L0 1V109Z" fill="white"/>
<path d="M11.0294 71.3V32L102.272 85.5V124L11.0294 71.3ZM19.0507 89.1C23.4624 91.7 27.072 98 27.072 103.2C27.072 108.4 23.4624 110.5 19.0507 107.9C14.639 105.3 11.0294 99 11.0294 93.8C11.0294 88.6 14.639 86.5 19.0507 89.1ZM19.0507 105.1C22.159 106.9 24.6656 105.4 24.6656 101.8C24.4651 97.8 22.3595 94.2 19.0507 91.9C15.9424 90.1 13.4358 91.6 13.4358 95.2C13.6363 99.2 15.7419 102.8 19.0507 105.1ZM39.9062 112L29.2779 106V104L39.9062 110V112ZM53.1414 107.1C57.5531 109.7 61.1627 116 61.1627 121.2C61.1627 126.4 57.5531 128.5 53.1414 125.9C48.7296 123.3 45.12 117 45.12 111.8C45.12 106.6 48.7296 104.5 53.1414 107.1ZM53.1414 123.1C56.2496 124.9 58.7563 123.4 58.7563 119.8C58.5558 115.8 56.4502 112.2 53.1414 109.9C50.0331 108.1 47.5264 109.6 47.5264 113.2C47.727 117.2 49.8326 120.8 53.1414 123.1ZM73.9968 130L63.3686 124V122L73.9968 128V130ZM89.2374 126.1C93.6491 128.7 97.2587 135 97.2587 140.2C97.2587 145.4 93.6491 147.5 89.2374 144.9C84.8256 142.3 81.216 136 81.216 130.8C81.216 125.6 84.8256 123.5 89.2374 126.1ZM89.2374 142.1C92.3456 143.9 94.8523 142.4 94.8523 138.8C94.6517 134.8 92.5462 131.2 89.2374 128.9C86.1291 127.1 83.6224 128.6 83.6224 132.2C83.823 136.2 85.9286 139.8 89.2374 142.1Z" fill="#B4E8FE"/>
<path d="M19.3515 92.1C19.2512 92 19.1509 92 19.0507 91.9C15.9424 90.1 13.4357 91.6 13.4357 95.2C13.6363 99.2 15.7419 102.8 19.0507 105.1C19.9531 105.7 21.056 106 22.1589 105.8L23.3621 108.9C21.8581 109 20.3541 108.7 19.0507 107.9C14.6389 105.3 11.0293 99 11.0293 93.8C11.0293 88.6 14.6389 86.5 19.0507 89.1C19.1509 89.2 19.2512 89.2 19.3515 89.3V92.1ZM53.4421 110.1C53.3419 110 53.2416 110 53.1413 109.9C50.0331 108.1 47.5264 109.6 47.5264 113.2C47.7269 117.2 49.8325 120.8 53.1413 123.1C56.2496 124.9 58.7563 123.4 58.7563 119.8C58.7563 118.3 58.3552 116.8 57.7536 115.5L59.6587 115C60.5611 117 61.0624 119.1 61.1627 121.3C61.1627 126.5 57.5531 128.6 53.1413 126C48.7296 123.4 45.12 117.1 45.12 111.9C45.12 106.7 48.7296 104.6 53.1413 107.2C53.2416 107.3 53.3419 107.3 53.4421 107.4V110.1ZM89.5381 129.1C89.4379 129 89.3376 129 89.2373 128.9C86.1291 127.1 83.6224 128.6 83.6224 132.2C83.8229 136.2 85.9285 139.8 89.2373 142.1C90.1397 142.7 91.2427 143 92.3456 142.8L93.5488 145.9C92.0448 146 90.5408 145.7 89.2373 144.9C84.8256 142.3 81.216 136 81.216 130.8C81.216 125.6 84.8256 123.5 89.2373 126.1C89.3376 126.2 89.4379 126.2 89.5381 126.3V129.1ZM0 14L114.304 80V67L0 0V14Z" fill="#1062FE"/>
<path d="M242.645 226.5C242.645 226.7 242.645 226.9 242.645 227.1C242.645 239.7 233.922 255 223.093 261.3C217.98 264.3 213.367 264.7 209.858 263L209.758 263.1L104.378 204.5C107.686 205.6 111.697 205 116.209 202.4C126.737 196.2 135.26 181.2 135.26 168.8C135.26 168.5 135.26 168.3 135.26 168V76L242.545 137.8L242.645 226.5ZM144.384 89.8C144.284 89.1 143.883 88.4 143.281 88L140.474 86.2C139.872 85.8 139.371 86.1 139.371 86.7V88.2C139.471 88.9 139.872 89.6 140.474 90L143.281 91.8C143.883 92.2 144.384 91.9 144.384 91.3V89.8ZM144.384 97.8C144.284 97.1 143.883 96.4 143.281 96L140.474 94.2C139.872 93.8 139.371 94.1 139.371 94.7V96.2C139.471 96.9 139.872 97.6 140.474 98L143.281 99.8C143.883 100.2 144.384 99.9 144.384 99.3V97.8ZM144.384 105.8C144.284 105.1 143.883 104.4 143.281 104L140.474 102.2C139.872 101.8 139.371 102.1 139.371 102.7V104.2C139.471 104.9 139.872 105.6 140.474 106L143.281 107.8C143.883 108.2 144.384 107.9 144.384 107.3V105.8ZM144.384 113.8C144.284 113.1 143.883 112.4 143.281 112L140.474 110.2C139.872 109.8 139.371 110.1 139.371 110.7V112.2C139.471 112.9 139.872 113.6 140.474 114L143.281 115.8C143.883 116.2 144.384 115.9 144.384 115.3V113.8ZM144.384 121.8C144.284 121.1 143.883 120.4 143.281 120L140.474 118.2C139.872 117.8 139.371 118.1 139.371 118.7V120.2C139.471 120.9 139.872 121.6 140.474 122L143.281 123.8C143.883 124.2 144.384 123.9 144.384 123.3V121.8ZM144.384 129.8C144.284 129.1 143.883 128.4 143.281 128L140.474 126.2C139.872 125.8 139.371 126.1 139.371 126.7V128.2C139.471 128.9 139.872 129.6 140.474 130L143.281 131.8C143.883 132.2 144.384 131.9 144.384 131.3V129.8ZM144.384 137.8C144.284 137.1 143.883 136.4 143.281 136L140.474 134.2C139.872 133.8 139.371 134.1 139.371 134.7V136.2C139.471 136.9 139.872 137.6 140.474 138L143.281 139.8C143.883 140.2 144.384 139.9 144.384 139.3V137.8ZM144.384 145.8C144.284 145.1 143.883 144.4 143.281 144L140.474 142.2C139.872 141.8 139.371 142.1 139.371 142.7V144.2C139.471 144.9 139.872 145.6 140.474 146L143.281 147.8C143.883 148.2 144.384 147.9 144.384 147.3V145.8ZM144.384 153.8C144.284 153.1 143.883 152.4 143.281 152L140.474 150.2C139.872 149.8 139.371 150.1 139.371 150.7V152.2C139.471 152.9 139.872 153.6 140.474 154L143.281 155.8C143.883 156.2 144.384 155.9 144.384 155.3V153.8ZM144.384 161.8C144.284 161.1 143.883 160.4 143.281 160L140.474 158.2C139.872 157.8 139.371 158.1 139.371 158.7V160.2C139.471 160.9 139.872 161.6 140.474 162L143.281 163.8C143.883 164.2 144.384 163.9 144.384 163.3V161.8ZM144.384 169.8C144.284 169.1 143.883 168.4 143.281 168L140.474 166.2C139.872 165.8 139.371 166.1 139.371 166.7V168.2C139.471 168.9 139.872 169.6 140.474 170L143.281 171.8C143.883 172.2 144.384 171.9 144.384 171.3V169.8ZM144.384 177.8C144.284 177.1 143.883 176.4 143.281 176L140.474 174.2C139.872 173.8 139.371 174.1 139.371 174.7V176.2C139.471 176.9 139.872 177.6 140.474 178L143.281 179.8C143.883 180.2 144.384 179.9 144.384 179.3V177.8ZM238.635 142.8C238.534 142.1 238.133 141.4 237.532 141L234.724 139.2C234.123 138.8 233.621 139.1 233.621 139.7V141.2C233.722 141.9 234.123 142.6 234.724 143L237.532 144.8C238.133 145.2 238.635 144.9 238.635 144.3V142.8ZM238.635 150.8C238.534 150.1 238.133 149.4 237.532 149L234.724 147.2C234.123 146.8 233.621 147.1 233.621 147.7V149.2C233.722 149.9 234.123 150.6 234.724 151L237.532 152.8C238.133 153.2 238.635 152.9 238.635 152.3V150.8ZM238.635 158.8C238.534 158.1 238.133 157.4 237.532 157L234.724 155.2C234.123 154.8 233.621 155.1 233.621 155.7V157.2C233.722 157.9 234.123 158.6 234.724 159L237.532 160.8C238.133 161.2 238.635 160.9 238.635 160.3V158.8ZM238.635 166.8C238.534 166.1 238.133 165.4 237.532 165L234.724 163.2C234.123 162.8 233.621 163.1 233.621 163.7V165.2C233.722 165.9 234.123 166.6 234.724 167L237.532 168.8C238.133 169.2 238.635 168.9 238.635 168.3V166.8ZM238.635 174.8C238.534 174.1 238.133 173.4 237.532 173L234.724 171.2C234.123 170.8 233.621 171.1 233.621 171.7V173.2C233.722 173.9 234.123 174.6 234.724 175L237.532 176.8C238.133 177.2 238.635 176.9 238.635 176.3V174.8ZM238.635 182.8C238.534 182.1 238.133 181.4 237.532 181L234.724 179.2C234.123 178.8 233.621 179.1 233.621 179.7V181.2C233.722 181.9 234.123 182.6 234.724 183L237.532 184.8C238.133 185.2 238.635 184.9 238.635 184.3V182.8ZM238.635 190.8C238.534 190.1 238.133 189.4 237.532 189L234.724 187.2C234.123 186.8 233.621 187.1 233.621 187.7V189.2C233.722 189.9 234.123 190.6 234.724 191L237.532 192.8C238.133 193.2 238.635 192.9 238.635 192.3V190.8ZM238.635 198.8C238.534 198.1 238.133 197.4 237.532 197L234.724 195.2C234.123 194.8 233.621 195.1 233.621 195.7V197.2C233.722 197.9 234.123 198.6 234.724 199L237.532 200.8C238.133 201.2 238.635 200.9 238.635 200.3V198.8ZM238.635 206.8C238.534 206.1 238.133 205.4 237.532 205L234.724 203.2C234.123 202.8 233.621 203.1 233.621 203.7V205.2C233.722 205.9 234.123 206.6 234.724 207L237.532 208.8C238.133 209.2 238.635 208.9 238.635 208.3V206.8ZM238.635 214.8C238.534 214.1 238.133 213.4 237.532 213L234.724 211.2C234.123 210.8 233.621 211.1 233.621 211.7V213.2C233.722 213.9 234.123 214.6 234.724 215L237.532 216.8C238.133 217.2 238.635 216.9 238.635 216.3V214.8Z" fill="#88D3FF"/>
<path d="M150.4 174.4V97L226.603 140.6V218L150.4 174.4ZM207.051 250.3C201.937 253.3 197.325 253.7 193.815 252L193.715 252.1L119.618 211.7C122.827 212.8 126.938 212.2 131.349 209.6C139.972 204.5 147.292 193.5 149.598 182.8L224.998 226C222.091 235.8 215.172 245.6 207.051 250.3Z" fill="#1062FE"/>
<path d="M188.2 154.4V161.7C190.908 163.1 193.414 165 195.52 167.2C193.815 169.9 191.409 171.5 188.2 171.4V179.6C195.319 180.7 200.834 176.2 203.341 167.6C201.536 165.5 199.731 163.6 197.726 161.7C194.818 159 191.61 156.5 188.2 154.4ZM188.2 145C192.011 147.5 195.52 150.3 198.628 153.6C198.628 154.9 198.528 156.1 198.428 157.3C200.533 159.2 202.438 161.2 204.343 163.4C204.945 160.1 205.146 156.7 204.945 153.3C200.132 147.5 194.517 142.4 188.2 138.2V145ZM168.548 132.3C167.947 149.1 174.865 167.4 185.293 177.9V169.5C178.475 161.2 175.467 150.4 174.765 139.9C178.475 140.4 181.984 141.6 185.293 143.4V136.5C180.079 133.8 174.364 132.4 168.548 132.3ZM165.941 129.3C178.575 128 195.52 137.3 208.053 153.4C208.655 172.6 201.335 184.6 186.897 182.3C170.152 167.5 165.641 147.5 165.941 129.3ZM163.535 126.2C162.432 146.4 168.849 168.8 186.897 185.5C204.243 188.4 211.262 174.8 210.46 153.2C196.021 134.7 178.274 124.4 163.836 126.2H163.535Z" fill="white"/>
<path d="M203.541 250V250.2C203.541 256.6 205.847 261 209.557 262.9V263L97.1584 204.5L87.232 192.4V115L194.618 174.1C199.531 174.8 202.94 179 203.441 185.8L203.541 185.9V187.5C203.541 187.6 203.541 187.6 203.541 187.7C203.541 187.8 203.541 187.8 203.541 187.9V250Z" fill="#3192E7"/>
<path d="M184.491 176.6C173.963 182.8 165.44 197.8 165.44 210.2C165.44 210.5 165.44 210.7 165.44 211V313L58.1547 251.2V152.5C58.1547 152.3 58.1547 152.1 58.1547 151.9C58.1547 139.3 66.8779 124 77.7067 117.7C82.8203 114.7 87.4325 114.3 90.9419 116L91.0421 115.9L196.422 174.4C193.114 173.4 189.003 174 184.491 176.6ZM67.1787 159.8C67.0784 159.1 66.6773 158.4 66.0757 158L63.2683 156.2C62.6667 155.8 62.1653 156.1 62.1653 156.7V158.2C62.2656 158.9 62.6667 159.6 63.2683 160L66.0757 161.8C66.6773 162.2 67.1787 161.9 67.1787 161.3V159.8ZM67.1787 167.8C67.0784 167.1 66.6773 166.4 66.0757 166L63.2683 164.2C62.6667 163.8 62.1653 164.1 62.1653 164.7V166.2C62.2656 166.9 62.6667 167.6 63.2683 168L66.0757 169.8C66.6773 170.2 67.1787 169.9 67.1787 169.3V167.8ZM67.1787 175.8C67.0784 175.1 66.6773 174.4 66.0757 174L63.2683 172.2C62.6667 171.8 62.1653 172.1 62.1653 172.7V174.2C62.2656 174.9 62.6667 175.6 63.2683 176L66.0757 177.8C66.6773 178.2 67.1787 177.9 67.1787 177.3V175.8ZM67.1787 183.8C67.0784 183.1 66.6773 182.4 66.0757 182L63.2683 180.2C62.6667 179.8 62.1653 180.1 62.1653 180.7V182.2C62.2656 182.9 62.6667 183.6 63.2683 184L66.0757 185.8C66.6773 186.2 67.1787 185.9 67.1787 185.3V183.8ZM67.1787 191.8C67.0784 191.1 66.6773 190.4 66.0757 190L63.2683 188.2C62.6667 187.8 62.1653 188.1 62.1653 188.7V190.2C62.2656 190.9 62.6667 191.6 63.2683 192L66.0757 193.8C66.6773 194.2 67.1787 193.9 67.1787 193.3V191.8ZM67.1787 199.8C67.0784 199.1 66.6773 198.4 66.0757 198L63.2683 196.2C62.6667 195.8 62.1653 196.1 62.1653 196.7V198.2C62.2656 198.9 62.6667 199.6 63.2683 200L66.0757 201.8C66.6773 202.2 67.1787 201.9 67.1787 201.3V199.8ZM67.1787 207.8C67.0784 207.1 66.6773 206.4 66.0757 206L63.2683 204.2C62.6667 203.8 62.1653 204.1 62.1653 204.7V206.2C62.2656 206.9 62.6667 207.6 63.2683 208L66.0757 209.8C66.6773 210.2 67.1787 209.9 67.1787 209.3V207.8ZM67.1787 215.8C67.0784 215.1 66.6773 214.4 66.0757 214L63.2683 212.2C62.6667 211.8 62.1653 212.1 62.1653 212.7V214.2C62.2656 214.9 62.6667 215.6 63.2683 216L66.0757 217.8C66.6773 218.2 67.1787 217.9 67.1787 217.3V215.8ZM67.1787 223.8C67.0784 223.1 66.6773 222.4 66.0757 222L63.2683 220.2C62.6667 219.8 62.1653 220.1 62.1653 220.7V222.2C62.2656 222.9 62.6667 223.6 63.2683 224L66.0757 225.8C66.6773 226.2 67.1787 225.9 67.1787 225.3V223.8ZM67.1787 231.8C67.0784 231.1 66.6773 230.4 66.0757 230L63.2683 228.2C62.6667 227.8 62.1653 228.1 62.1653 228.7V230.2C62.2656 230.9 62.6667 231.6 63.2683 232L66.0757 233.8C66.6773 234.2 67.1787 233.9 67.1787 233.3V231.8ZM67.1787 239.8C67.0784 239.1 66.6773 238.4 66.0757 238L63.2683 236.2C62.6667 235.8 62.1653 236.1 62.1653 236.7V238.2C62.2656 238.9 62.6667 239.6 63.2683 240L66.0757 241.8C66.6773 242.2 67.1787 241.9 67.1787 241.3V239.8ZM67.1787 247.8C67.0784 247.1 66.6773 246.4 66.0757 246L63.2683 244.2C62.6667 243.8 62.1653 244.1 62.1653 244.7V246.2C62.2656 246.9 62.6667 247.6 63.2683 248L66.0757 249.8C66.6773 250.2 67.1787 249.9 67.1787 249.3V247.8ZM161.429 214.8C161.329 214.1 160.928 213.4 160.326 213L157.519 211.2C156.917 210.8 156.416 211.1 156.416 211.7V213.2C156.516 213.9 156.917 214.6 157.519 215L160.326 216.8C160.928 217.2 161.429 216.9 161.429 216.3V214.8ZM161.429 222.8C161.329 222.1 160.928 221.4 160.326 221L157.519 219.2C156.917 218.8 156.416 219.1 156.416 219.7V221.2C156.516 221.9 156.917 222.6 157.519 223L160.326 224.8C160.928 225.2 161.429 224.9 161.429 224.3V222.8ZM161.429 230.8C161.329 230.1 160.928 229.4 160.326 229L157.519 227.2C156.917 226.8 156.416 227.1 156.416 227.7V229.2C156.516 229.9 156.917 230.6 157.519 231L160.326 232.8C160.928 233.2 161.429 232.9 161.429 232.3V230.8ZM161.429 238.8C161.329 238.1 160.928 237.4 160.326 237L157.519 235.2C156.917 234.8 156.416 235.1 156.416 235.7V237.2C156.516 237.9 156.917 238.6 157.519 239L160.326 240.8C160.928 241.2 161.429 240.9 161.429 240.3V238.8ZM161.429 246.8C161.329 246.1 160.928 245.4 160.326 245L157.519 243.2C156.917 242.8 156.416 243.1 156.416 243.7V245.2C156.516 245.9 156.917 246.6 157.519 247L160.326 248.8C160.928 249.2 161.429 248.9 161.429 248.3V246.8ZM161.429 254.8C161.329 254.1 160.928 253.4 160.326 253L157.519 251.2C156.917 250.8 156.416 251 156.416 251.7V253.2C156.516 253.9 156.917 254.6 157.519 255L160.326 256.8C160.928 257.2 161.429 257 161.429 256.3V254.8ZM161.429 262.8C161.329 262.1 160.928 261.4 160.326 261L157.519 259.2C156.917 258.8 156.416 259 156.416 259.7V261.2C156.516 261.9 156.917 262.6 157.519 263L160.326 264.8C160.928 265.2 161.429 265 161.429 264.3V262.8ZM161.429 270.8C161.329 270.1 160.928 269.4 160.326 269L157.519 267.2C156.917 266.8 156.416 267 156.416 267.7V269.2C156.516 269.9 156.917 270.6 157.519 271L160.326 272.8C160.928 273.2 161.429 273 161.429 272.3V270.8ZM161.429 278.8C161.329 278.1 160.928 277.4 160.326 277L157.519 275.2C156.917 274.8 156.416 275 156.416 275.7V277.2C156.516 277.9 156.917 278.6 157.519 279L160.326 280.8C160.928 281.2 161.429 281 161.429 280.3V278.8ZM161.429 286.8C161.329 286.1 160.928 285.4 160.326 285L157.519 283.2C156.917 282.8 156.416 283 156.416 283.7V285.2C156.516 285.9 156.917 286.6 157.519 287L160.326 288.8C160.928 289.2 161.429 289 161.429 288.3V286.8ZM161.429 294.8C161.329 294.1 160.928 293.4 160.326 293L157.519 291.2C156.917 290.8 156.416 291 156.416 291.7V293.2C156.516 293.9 156.917 294.6 157.519 295L160.326 296.8C160.928 297.2 161.429 297 161.429 296.3V294.8ZM161.429 302.8C161.329 302.1 160.928 301.4 160.326 301L157.519 299.2C156.917 298.8 156.416 299 156.416 299.7V301.2C156.516 301.9 156.917 302.6 157.519 303L160.326 304.8C160.928 305.2 161.429 305 161.429 304.3V302.8Z" fill="#88D3FF"/>
<path d="M169.451 167.6C158.923 173.8 150.4 188.8 150.4 201.2C150.4 201.5 150.4 201.7 150.4 202V204L94.4512 171.9C94.4512 171.9 94.4512 171.9 94.3509 171.9L74.1973 160.3V160.2C74.4981 147.7 83.1211 132.8 93.7493 126.7C98.8629 123.7 103.475 123.3 106.985 125L107.085 124.9L181.282 165.4C177.973 164.4 173.862 165 169.451 167.6Z" fill="#1062FE"/>
<path d="M73.1946 170L149.397 213.6V293L73.1946 249.4V170Z" fill="white"/>
<path d="M73.1946 170L149.397 213.6V222L73.1946 178.4V170Z" fill="#1062FE"/>
<path d="M77.2053 206V185L144.384 223.1V244.1L77.2053 206ZM93.248 230.1L77.2053 221V210L93.248 219.1V230.1ZM93.248 256.1L77.2053 247V225L93.248 234.1V256.1ZM143.181 251L96.4565 224V222L143.181 249V251ZM112.098 238L96.4565 229V227L112.098 236V238ZM124.13 253L96.4565 237V235L124.13 251V253ZM132.151 263L96.4565 242V240L132.151 261V263Z" fill="#B4E8FE"/>
<path d="M78.5088 176.2C79.311 176.7 79.8123 177.5 79.8123 178.5C79.9125 178.9 79.6117 179.3 79.2107 179.4C79.0101 179.4 78.7094 179.4 78.5088 179.2C77.7067 178.7 77.2053 177.9 77.2053 177C77.1051 176.6 77.4059 176.2 77.8069 176.1C78.1077 176 78.3083 176 78.5088 176.2ZM82.2187 178.4C83.0208 178.9 83.5222 179.7 83.5222 180.7C83.6224 181.1 83.3216 181.5 82.9205 181.6C82.72 181.6 82.4192 181.6 82.2187 181.4C81.4166 180.9 80.9152 180.1 80.9152 179.2C80.8149 178.8 81.1158 178.4 81.5168 178.3C81.8176 178.2 82.1184 178.3 82.2187 178.4ZM86.0288 180.7C86.831 181.2 87.3323 182 87.3323 183C87.4326 183.4 87.1318 183.8 86.7307 183.9C86.5302 183.9 86.2294 183.9 86.0288 183.7C85.2267 183.2 84.7254 182.4 84.7254 181.5C84.6251 181.1 84.9259 180.7 85.327 180.6C85.6278 180.5 85.8283 180.5 86.0288 180.7Z" fill="white"/>
<path d="M128.341 310.9V305.1L145.387 315V297.8L149.397 300.1V323L128.341 310.9ZM145.387 232.4L128.341 222.4V217.4L149.397 229.7V254L145.387 251.7V232.4ZM59.1574 181.8L44.1174 173V193L40.1067 190.7V166L59.1574 177.1V181.8ZM44.1174 256.4L59.1574 265.1V271.2L40.1067 260.3V236.9L44.1174 239.2V256.4Z" fill="#1062FE"/>
<path d="M323.861 190L376 220V324L323.861 294V190Z" fill="white"/>
<path d="M361.963 289.7V287.7L367.778 291V293L361.963 289.7ZM361.963 281.7L367.778 285V287L361.963 283.7V281.7ZM361.963 275.7L367.778 279V281L361.963 277.7V275.7ZM361.963 269.7L367.778 273V275L361.963 271.7V269.7ZM361.963 263.7L367.778 267V269L361.963 265.7V263.7ZM361.963 257.7L367.778 261V263L361.963 259.7V257.7ZM361.963 251.7L367.778 255V257L361.963 253.7V251.7ZM361.963 245.7L367.778 249V251L361.963 247.7V245.7ZM361.963 239.7L367.778 243V245L361.963 241.7V239.7ZM361.963 233.7L367.778 237V239L361.963 235.7V233.7ZM361.963 227.7L367.778 231V233L361.963 229.7V227.7ZM352.939 282.7L358.955 286.1V288.1L352.939 284.7V282.7ZM352.939 276.7L358.955 280.1V282.1L352.939 278.7V276.7ZM352.939 270.7L358.955 274.1V276.1L352.939 272.7V270.7ZM352.939 264.7L358.955 268.1V270.1L352.939 266.7V264.7ZM352.939 258.7L358.955 262.1V264.1L352.939 260.7V258.7ZM352.939 252.7L358.955 256.1V258.1L352.939 254.7V252.7ZM352.939 246.7L358.955 250.1V252.1L352.939 248.7V246.7ZM352.939 240.7L358.955 244.1V246.1L352.939 242.7V240.7ZM352.939 234.7L358.955 238.1V240.1L352.939 236.7V234.7ZM352.939 228.7L358.955 232.1V234.1L352.939 230.7V228.7ZM352.939 222.7L358.955 226.1V228.1L352.939 224.7V222.7ZM349.931 223L332.083 213V211L349.931 221V223ZM349.931 229L332.083 219V217L349.931 227V229ZM349.931 235L332.083 225V223L349.931 233V235ZM349.931 241L332.083 231V229L349.931 239V241ZM349.931 247L332.083 237V235L349.931 245V247ZM349.931 253L332.083 243V241L349.931 251V253ZM349.931 259L332.083 249V247L349.931 257V259ZM349.931 265L332.083 255V253L349.931 263V265ZM349.931 271L332.083 261V259L349.931 269V271ZM349.931 277L332.083 267V265L349.931 275V277ZM349.931 283L332.083 273V271L349.931 281V283Z" fill="#B4E8FE"/>
<path d="M341.408 286.2L356.448 295C357.35 295.5 357.852 296.4 357.952 297.4V302.1C357.952 303 357.25 303.2 356.448 302.8L341.408 294C340.506 293.5 340.004 292.6 339.904 291.6V286.9C339.904 286 340.606 285.8 341.408 286.2Z" fill="#1062FE"/>
<path d="M312.531 239.1L262.999 210.8C262.699 210.5 262.197 210.5 261.897 210.9C261.696 211.1 261.696 211.3 261.696 211.6V256.3C261.796 257.2 262.197 258 262.999 258.5L312.531 286.8C312.832 287.1 313.333 287.1 313.634 286.7C313.835 286.5 313.835 286.3 313.835 286V241.3C313.835 240.5 313.333 239.6 312.531 239.1Z" fill="#88D3FF"/>
<path d="M296.89 255.9C297.391 256.2 297.692 256.8 297.692 257.4C297.792 257.7 297.591 257.9 297.291 258C297.09 258 296.99 258 296.89 257.9L293.781 256.1C293.681 256.6 293.581 257.1 293.38 257.6C295.085 259.2 297.291 262.1 297.291 265.4C297.391 265.7 297.19 265.9 296.89 266C296.689 266 296.589 266 296.489 265.9C295.987 265.6 295.686 265 295.686 264.4C295.686 261.8 293.681 259.7 292.779 259C291.676 260.6 289.871 261.2 287.364 260.1H287.264L287.164 260C284.657 258.1 282.752 255.5 281.749 252.6C280.847 252.3 278.842 252.1 278.842 254.7C278.942 255 278.741 255.2 278.441 255.3C278.24 255.3 278.14 255.3 278.039 255.2C277.538 254.9 277.237 254.3 277.237 253.7C277.237 250.3 279.443 250 281.148 250.4C280.947 249.8 280.847 249.1 280.747 248.4L277.638 246.6C277.137 246.3 276.836 245.7 276.836 245.1C276.736 244.8 276.937 244.6 277.237 244.5C277.438 244.5 277.538 244.5 277.638 244.6L280.546 246.3C280.546 245.8 280.546 245.3 280.546 244.9C279.945 244.3 279.343 243.7 278.942 242.9C277.638 240.6 277.037 238.1 277.137 235.5C277.037 235.2 277.237 235 277.538 234.9C277.739 234.9 277.839 234.9 277.939 235C278.441 235.3 278.741 235.9 278.741 236.5C278.641 238.5 279.042 240.4 279.945 242.2C280.145 242.5 280.346 242.8 280.646 243.1C280.747 242.9 280.847 242.7 281.047 242.7C281.348 242.6 281.549 242.7 281.749 242.8C281.649 242.3 281.549 241.7 281.549 241.1C281.348 240 282.15 238.9 283.253 238.7C283.554 238.6 283.855 238.7 284.156 238.8C284.557 237.5 285.66 237.1 286.963 237.9C288.467 238.9 289.47 240.4 289.771 242.1C291.275 243.5 292.277 245.4 292.378 247.5C292.378 248 292.277 248.6 292.177 249.1C292.478 249.3 292.779 249.6 292.979 249.9C293.079 250.1 293.28 250.4 293.38 250.6C293.681 250.7 293.982 250.6 294.283 250.5C295.085 250.1 295.486 248.6 295.486 246.3C295.386 246 295.586 245.8 295.887 245.7C296.087 245.7 296.188 245.7 296.288 245.8C296.789 246.1 297.09 246.7 297.09 247.3C297.09 250.3 296.489 252.1 295.285 252.7C294.784 252.9 294.182 253 293.681 252.8C293.681 253.2 293.681 253.7 293.681 254.2L296.89 255.9ZM287.264 258.1C290.573 259.5 292.277 256.9 292.277 253.5C292.277 252.7 292.277 251.8 292.177 251C291.876 250.9 291.575 250.8 291.275 250.7C290.773 250.5 290.172 250.3 289.37 250C288.668 249.7 287.866 249.3 287.264 248.9C286.462 248.4 285.66 247.9 284.958 247.3C284.156 246.7 283.454 246.1 282.953 245.6C282.752 245.4 282.451 245.2 282.351 245C282.251 245.8 282.251 246.7 282.251 247.6C282.251 251 283.955 255.7 287.264 258.1ZM287.264 241.9C285.76 241 283.454 240.4 283.454 242.1C283.354 243.4 283.955 244.6 285.058 245.3C285.76 245.8 286.462 246.3 287.264 246.8C287.866 247.1 288.467 247.5 289.069 247.7C290.974 248.5 290.974 247.5 290.974 246.5C291.074 244.8 288.768 242.8 287.264 241.9Z" fill="white"/>
<path d="M311.93 185.8L285.158 170.6L279.945 161.7L263.601 152.4C263.1 152 262.298 152 261.897 152.5C261.696 152.8 261.596 153.1 261.596 153.5V169L313.734 198.8V189.1C313.734 187.8 313.033 186.5 311.93 185.8Z" fill="#73C8FF"/>
<path d="M312.531 187.1L262.999 158.8C262.698 158.5 262.197 158.5 261.896 158.9C261.696 159.1 261.696 159.3 261.696 159.6V157.6C261.596 157.2 261.896 156.8 262.297 156.7C262.498 156.7 262.799 156.7 262.999 156.9L284.256 169L285.158 170.5L311.929 185.7C313.032 186.4 313.834 187.7 313.935 189.1V189.3C313.834 188.5 313.333 187.6 312.531 187.1Z" fill="#3192E7"/>
<path d="M312.531 186.1L262.999 157.8C262.698 157.5 262.197 157.5 261.896 157.9C261.696 158.1 261.696 158.3 261.696 158.6V197.3C261.796 198.2 262.197 199 262.999 199.5L312.531 227.8C312.832 228.1 313.333 228.1 313.634 227.7C313.834 227.5 313.834 227.3 313.834 227V188.3C313.834 187.5 313.333 186.6 312.531 186.1Z" fill="#88D3FF"/>
<path d="M288.267 205.7C283.053 202.7 278.741 195.3 278.741 189.3C278.741 186.4 279.744 184.2 281.549 183.2L280.245 182.4C279.644 182 279.243 181.4 279.243 180.7C279.142 180.4 279.443 180 279.744 180C279.945 180 280.145 180 280.245 180.1L284.858 182.8V188.1C284.958 188.4 284.657 188.8 284.356 188.8C284.156 188.8 283.955 188.8 283.855 188.7C283.253 188.3 282.852 187.7 282.852 187V185.8C281.549 186.6 280.847 188.3 280.847 190.5C281.148 195.7 283.955 200.5 288.367 203.4C292.478 205.8 295.887 203.8 295.887 199.1C295.586 193.9 292.779 189.1 288.367 186.2C287.765 185.8 287.364 185.2 287.364 184.5C287.264 184.2 287.565 183.8 287.866 183.8C288.066 183.8 288.267 183.8 288.367 183.9C293.581 186.9 297.892 194.3 297.892 200.3C297.892 206.3 293.481 208.7 288.267 205.7ZM290.974 196.7C290.974 198.5 289.771 199.2 288.267 198.3C286.662 197.2 285.66 195.4 285.559 193.5C285.559 191.7 286.763 191 288.267 191.9C289.871 193 290.874 194.7 290.974 196.7Z" fill="white"/>
</g>
<defs>
<linearGradient id="paint0_linear_4682_171796" x1="176.92" y1="261.571" x2="226.864" y2="326.167" gradientUnits="userSpaceOnUse">
<stop/>
<stop offset="0.671875" stop-opacity="0"/>
</linearGradient>
<clipPath id="clip0_4682_171796">
<rect width="376" height="324" fill="white"/>
</clipPath>
</defs>
</svg>
