<svg width="376" height="324" viewBox="0 0 376 324" fill="none" xmlns="http://www.w3.org/2000/svg">
<g clip-path="url(#clip0_4682_171797)">
<path d="M211.646 251.269L304.153 305.218L272.722 323.461L179.967 269.771L211.646 251.269Z" fill="url(#paint0_linear_4682_171797)" fill-opacity="0.1"/>
<path fill-rule="evenodd" clip-rule="evenodd" d="M224.876 252.517C224.834 252.082 224.68 251.665 224.428 251.309C224.176 250.953 223.836 250.669 223.44 250.487L192.472 231.82C191.406 231.242 190.21 230.952 188.999 230.978C187.964 230.972 186.939 231.183 185.989 231.597L165.594 241.647L164.25 248.369C164.25 248.369 152.521 248.249 152.521 249.039V252.517C152.562 252.953 152.717 253.37 152.971 253.726C153.225 254.082 153.567 254.364 153.965 254.544L190.455 275.84C191.531 276.394 192.724 276.683 193.933 276.683C195.143 276.683 196.335 276.394 197.412 275.84C197.542 275.759 197.673 275.677 197.792 275.587L223.882 256.319C224.186 256.129 224.44 255.869 224.623 255.56C224.806 255.251 224.914 254.903 224.936 254.544L224.874 252.517" fill="#3192E7"/>
<path fill-rule="evenodd" clip-rule="evenodd" d="M197.645 271.922L206.461 265.427L165.555 241.611L154.384 246.743C154.237 246.808 154.095 246.882 153.958 246.964C153.539 247.107 153.175 247.379 152.917 247.74C152.659 248.102 152.521 248.536 152.521 248.981C152.521 249.426 152.659 249.86 152.917 250.222C153.175 250.583 153.539 250.855 153.958 250.998L190.333 272.174C191.406 272.724 192.594 273.011 193.798 273.011C195.003 273.011 196.191 272.724 197.264 272.174C197.395 272.094 197.526 272.013 197.645 271.922Z" fill="#88D3FF"/>
<path fill-rule="evenodd" clip-rule="evenodd" d="M250.884 144.825C250.306 143.765 249.465 142.874 248.443 142.238L131.136 74.3435C130.786 74.0924 130.377 73.9382 129.948 73.8964C129.52 73.8545 129.089 73.9264 128.697 74.105L124.763 77.0042L249.17 272.417L250.892 271.417C251.24 271.166 251.515 270.827 251.69 270.434C251.865 270.041 251.932 269.608 251.886 269.18V148.229C251.85 147.026 251.504 145.853 250.884 144.825Z" fill="#3192E7"/>
<path fill-rule="evenodd" clip-rule="evenodd" d="M247.644 255.246L251.904 253.818V272.188C251.904 275.126 251.929 275.703 249.064 276.473C246.101 277.269 245.76 277.339 245.76 277.339L247.644 255.246Z" fill="#3192E7"/>
<path fill-rule="evenodd" clip-rule="evenodd" d="M124.097 203.079V182.418L247.65 254.501V273.375C247.65 276.945 246.351 278.769 241.829 276.137C219.881 263.363 142.866 218.456 126.975 209.127C124.792 207.851 124.097 206.002 124.097 203.079Z" fill="#88D3FF"/>
<path fill-rule="evenodd" clip-rule="evenodd" d="M185.052 226.804C183.916 226.804 183.141 227.707 183.141 229.274C183.206 230.476 183.552 231.646 184.152 232.689C184.751 233.731 185.586 234.617 186.589 235.274C187.052 235.563 187.581 235.725 188.124 235.745C189.253 235.745 190.028 234.841 190.028 233.274C189.964 232.073 189.619 230.903 189.022 229.861C188.424 228.819 187.591 227.933 186.589 227.276C186.127 226.987 185.597 226.825 185.053 226.806" fill="#3192E7"/>
<path fill-rule="evenodd" clip-rule="evenodd" d="M128.393 77.8143C153.479 92.5153 228.566 136.225 244.804 145.636C245.739 146.076 246.516 146.798 247.025 147.702C247.534 148.606 247.75 149.647 247.643 150.681V255.27L124.097 183.286V79.4825C124.097 76.1947 125.536 76.1433 128.393 77.8143Z" fill="#A4E0FF"/>
<path fill-rule="evenodd" clip-rule="evenodd" d="M243.384 246.272L129.796 180.287V84.3086L243.384 150.294V246.272Z" fill="#1062FE"/>
<path d="M206.54 151.961C206.24 151.461 205.84 150.961 205.44 150.661L187.44 135.461C187.24 135.261 187.04 135.161 186.84 135.061C186.54 134.861 186.24 134.761 185.94 134.661L168.04 129.061C167.34 128.761 166.44 128.861 165.74 129.261C165.64 129.261 165.54 129.361 165.54 129.361C164.74 129.961 164.24 130.961 164.34 131.961V163.261C164.34 165.161 165.04 170.161 167.14 172.861L183.44 194.061C183.84 194.561 184.24 194.961 184.74 195.261C185.24 195.561 185.84 195.761 186.44 195.761C186.64 195.761 186.84 195.761 187.04 195.661C189.64 195.161 202.44 192.761 202.84 192.661C205.04 192.161 207.44 189.461 207.44 184.761V154.261C207.24 153.461 207.04 152.661 206.54 151.961Z" fill="white"/>
<path d="M185.64 169.161C185.04 168.861 184.54 168.761 184.14 169.061C183.74 169.261 183.54 169.761 183.54 170.361C183.64 171.461 184.24 172.561 185.14 173.161C185.14 173.161 185.14 173.161 185.24 173.161C185.54 173.361 185.84 173.361 186.04 173.361C186.24 173.361 186.44 173.261 186.64 173.161C187.04 172.961 187.24 172.461 187.24 171.861C187.14 170.761 186.54 169.761 185.64 169.161Z" fill="#1062FE"/>
<path d="M185.84 165.461C184.24 164.561 182.74 164.461 181.64 165.261C181.14 165.561 181.04 166.161 181.34 166.661C181.64 167.161 182.24 167.261 182.74 166.961C183.24 166.661 184.04 166.761 184.84 167.261C186.04 167.961 187.04 169.061 187.64 170.261C187.84 170.561 188.14 170.761 188.54 170.761C188.74 170.761 188.84 170.761 189.04 170.661C189.54 170.361 189.74 169.761 189.44 169.261C188.54 167.661 187.34 166.361 185.84 165.461Z" fill="#1062FE"/>
<path d="M185.84 161.061C183.34 159.661 180.94 159.461 179.14 160.461C178.64 160.761 178.44 161.361 178.74 161.861C179.04 162.361 179.64 162.561 180.14 162.261C181.34 161.561 183.04 161.761 184.84 162.861C187.04 164.261 188.94 166.261 190.24 168.561C190.44 168.861 190.74 169.061 191.14 169.061C191.34 169.061 191.44 169.061 191.64 168.961C192.14 168.661 192.34 168.061 192.04 167.561C190.54 164.861 188.44 162.661 185.84 161.061Z" fill="#1062FE"/>
<path d="M194.54 165.661C192.44 162.061 189.44 158.961 185.84 156.761C181.44 154.261 178.34 154.761 176.54 155.661C176.04 155.961 175.84 156.561 176.14 156.961C176.44 157.361 176.94 157.661 177.44 157.361C179.44 156.361 181.94 156.761 184.74 158.361C188.04 160.361 190.74 163.261 192.74 166.561C192.94 166.861 193.24 167.061 193.64 167.061C193.84 167.061 193.94 167.061 194.14 166.961C194.64 166.661 194.74 166.061 194.54 165.661Z" fill="#1062FE"/>
<path d="M261 150.3V256.6L376 323.9V216.9L261 150.3Z" fill="white"/>
<path d="M261 149V160.4L376 227.7V215.6L261 149Z" fill="#1062FE"/>
<path d="M350.4 265.3V266L353.1 267.3L355.1 269.3L357.1 270V269.3L354.4 268.6L353.7 266.6H351.7L350.4 265.3ZM347.8 257.3L347.1 259.3L349.1 262.7L349.8 264L350.5 264.7V263.4L349.2 261.4V260L348.5 258L347.8 257.3ZM356.5 272.1L355.2 272.8V273.5H353.9L353.2 272.8H352.5V276.8H351.8V277.5L352.5 278.2H355.2L358.6 280.9H359.3V282.9L361.3 285.6H362.6L364.6 282.9V280.2L363.3 278.2V276.2L362.6 274.2H361.9V276.2H361.2L359.9 274.9V272.9H357.2V272.2H356.5V272.1ZM359.2 268V269.3L360.5 270L361.8 272L363.1 272.7V273.4L365.1 275.4V274.7L363.8 272L362.5 270.7L361.2 269.4L359.9 268.7V268H359.2ZM351.8 262.7V264L353.1 265.3H353.8L354.5 264.6V262H353.2L351.8 262.7ZM295.3 252.6L294 247.9L292.7 245.9V237.2L290.7 234.5L289.4 230.5L288.7 229.2L289.4 226.5L290.1 224.5L287.4 223.2L286.7 219.8L282.7 216.4L281.4 213L280.1 209.6H278.8V207.6L278.1 206.3V203.6L280.8 200.9V198.2L276.8 194.8H273.4V192H277.4L285.5 196.7L289.5 200.1L293.5 201.4L296.2 202.7L295.5 204L292.8 202.7L290.8 203.4L292.1 206.1L292.8 208.1L296.2 206.1L297.5 207.4L298.8 208.1L300.1 211.5L297.4 210.8H295.4L297.4 212.1L296.7 212.8L294.7 212.1L292 212.8L290 214.1V215.4L290.7 216.1L290 216.8L288.7 215.5V214.2L286.7 212.9L284.7 212.2L283.4 213.5L284.1 216.2L286.1 216.9L286.8 216.2H287.5L286.8 217.5V218.8L288.1 219.5V222.2L290.1 223.5H292.1L296.1 226.9L298.1 233.6L301.5 234.9L303.5 236.9V238.2L302.2 239.5V242.2L300.2 242.9L299.5 244.9L298.2 245.6V247.6H296.9L296.2 248.9V252.3H295.3V252.6ZM302 204.1L304 203.4L310.1 206.1L312.8 208.8L310.1 210.1H306.7L304.7 211.4L303.4 210.1V207.4L302 204.1ZM314.8 221H316.1L315.4 219V218.3L314.1 217.6L312.8 218.3V219.6H314.1V220.3L314.8 221ZM314.1 226.3L312.8 225V223H314.1L314.8 223.7H315.5V222.4L316.2 221.7H318.2L318.9 222.4H320.2V223.1H322.2L323.5 221.8L322.2 221.1V219.1L320.9 219.8V221.1L319.6 221.8L318.9 220.5L317.6 219.8V218.5H319.6L320.3 217.2H322.3L325.7 220.6V221.3H324.4V222H328.4L332.4 224L333.7 226H334.4V224.7H337.1L340.5 226.7L344.5 230.1L347.9 232.8H349.9L355.3 237.5L358 238.2L362 242.2L363.3 242.9V243.6H359.3L358 241.6L354.6 240.9L353.3 242.2L356.7 245.6L356 247.6V251.6H355.3L354.6 249.6L353.3 246.9L352 247.6L354 251.6V254.3H351.3L350 253.6V254.9L352 257.6L351.3 258.9L350 258.2L349.3 256.2H348V253.5L346.7 252.8L345.4 249.4H344.1L342.1 250.7V253.4H340.8L340.1 250L339.4 246.6L336.7 243.2L331.3 238.5V239.8L335.3 243.8L334.6 245.1H330.6L327.2 236.4H326.5L328.5 242.5L329.8 245.9L332.5 247.2V248.5L328.5 251.2V253.9L329.2 254.6V255.9L327.2 256.6V257.9L324.5 261.3L322.5 260L320.5 256L319.8 250.6L320.5 249.9V247.2L319.2 245.2V242.5L317.2 240.5L312.5 237.8L310.5 233.8V229.8L313.2 227.1H315.9L319.3 229.1L320.6 231.8L323.3 233.1L325.3 234.4L327.3 235.1V233.8L325.3 232.5L324.6 231.2V230.5L327.3 231.2L328 232.5L328.7 231.2L327.4 229.9L325.4 228.6L324.7 229.3V230H322.7L322 228L320.7 226H320L320.7 228L321.4 228.7V229.4L320.1 228.7L319.4 227.4L318.7 225.4H316.7L316 226.7H314.1V226.3Z" fill="#A4E0FF"/>
<path d="M282.9 196.5C281.2 195.5 279.9 196.3 279.9 198.4C279.9 200.5 281.7 204.6 282.5 206.3C282.7 206.7 283.1 207 283.3 206.8C284.1 206.1 285.9 204.2 285.9 202.1C285.8 199.8 284.7 197.8 282.9 196.5ZM282.9 198.9C283.6 199.4 284 200.1 284 200.9C284 201.6 283.5 201.9 282.9 201.6C282.2 201.1 281.8 200.4 281.8 199.6C281.8 198.8 282.3 198.5 282.9 198.9ZM324 213.6C322.4 212.6 321 213.4 321 215.5C321 217.6 322.8 221.5 323.6 223.2C323.8 223.6 324.2 223.8 324.4 223.7C325.2 223 327 221.1 327 219.1C326.8 216.8 325.7 214.8 324 213.6ZM324 215.9C324.6 216.3 325 217.1 325.1 217.8C325.1 218.5 324.6 218.8 324 218.5C323.4 218.1 323 217.3 322.9 216.6C322.9 215.9 323.4 215.6 324 215.9ZM296 221.5C294.3 220.5 293 221.3 293 223.4C293 225.5 294.8 229.5 295.6 231.2C295.8 231.6 296.2 231.8 296.4 231.7C297.2 231 299 229.1 299 227C298.9 224.8 297.8 222.7 296 221.5ZM296 223.9C296.6 224.4 297 225.1 297.1 225.9C297.1 226.6 296.6 226.9 296 226.6C295.4 226.1 295 225.4 294.9 224.6C294.9 223.8 295.4 223.5 296 223.9ZM353.7 265.4C352 264.4 350.6 265.2 350.6 267.4C350.6 269.5 352.5 273.7 353.3 275.5C353.5 275.9 353.9 276.2 354.1 276C354.9 275.2 356.8 273.3 356.8 271.2C356.7 268.9 355.6 266.7 353.7 265.4ZM353.7 267.9C354.4 268.4 354.8 269.1 354.8 269.9C354.8 270.7 354.3 271 353.7 270.6C353 270.1 352.6 269.4 352.6 268.6C352.6 267.8 353.1 267.5 353.7 267.9ZM343 238.7C341.3 237.7 340 238.5 340 240.6C340 242.7 341.8 246.7 342.6 248.4C342.8 248.8 343.2 249 343.4 248.9C344.2 248.2 346 246.3 346 244.2C345.9 242.1 344.8 240 343 238.7ZM343 241.1C343.6 241.6 344 242.3 344.1 243.1C344.1 243.8 343.6 244.1 343 243.8C342.4 243.3 342 242.6 341.9 241.8C341.9 241.1 342.4 240.8 343 241.1Z" fill="#1062FE"/>
<path d="M303.1 256.6L329 271.5C329.6 271.9 330 272.5 330.1 273.2V282.8C330.1 283.4 329.6 283.6 329 283.2L303.1 268.3C302.5 267.9 302.1 267.3 302 266.6V257C302 256.4 302.5 256.2 303.1 256.6Z" fill="#1062FE"/>
<path d="M315.4 265.4C314.1 264.6 313 265.3 313 267C313 268.7 314.4 272.1 315.1 273.5C315.3 273.9 315.6 274 315.7 273.9C316.4 273.3 317.8 271.7 317.8 270C317.8 268.2 316.9 266.5 315.4 265.4ZM315.4 267.2C316 267.7 316.4 268.4 316.4 269.2C316.4 269.9 315.9 270.3 315.4 269.9C314.8 269.4 314.4 268.7 314.4 267.9C314.3 267.1 314.8 266.8 315.4 267.2Z" fill="white"/>
<path d="M267.9 159C267.9 160.1 267.1 160.6 266.2 160C265.2 159.3 264.5 158.2 264.5 157C264.5 155.9 265.3 155.4 266.2 156C267.2 156.7 267.8 157.8 267.9 159ZM274.9 163.1C274.9 164.2 274.1 164.7 273.2 164.1C272.2 163.4 271.5 162.3 271.5 161.1C271.5 160 272.3 159.5 273.2 160.1C274.2 160.7 274.8 161.8 274.9 163.1ZM281.9 167.1C281.9 168.2 281.1 168.7 280.2 168.1C279.2 167.4 278.5 166.3 278.5 165.1C278.5 164 279.3 163.5 280.2 164.1C281.2 164.8 281.8 165.9 281.9 167.1Z" fill="white"/>
<path d="M89 248C89 248 89 249.4 89 250.1C89 250.9 88.4 251.7 87.3 252.4L55 270.9C52.9 272.1 49.7 272.2 47.9 271.2L31.4 261.7C30.7 261.4 30.2 260.6 30.2 259.8C30.2 259.1 30.2 258.1 30.2 258.1L89 248Z" fill="#3192E7"/>
<path d="M71.2 236.8L87.7 246.3C89.5 247.3 89.2999 249.2 87.2 250.4L54.9 268.9C52.8 270.1 49.6 270.2 47.8 269.2L31.3 259.7C29.5 258.7 29.7 256.8 31.8 255.6L64.1 237.1C66.2 235.9 69.4 235.8 71.2 236.8Z" fill="#88D3FF"/>
<path d="M68.5999 239.5L83.1999 247.9C84.7999 248.8 84.5999 250.4 82.6999 251.5L56.7999 266.6C54.8999 267.7 52.0999 267.8 50.4999 266.9L35.9999 258.4C34.3999 257.5 34.5999 255.9 36.4999 254.8L62.3999 239.7C64.1999 238.6 66.9999 238.5 68.5999 239.5Z" fill="#1062FE"/>
<path d="M58.5 246.7C58.5 246.7 56.8 247.5 54.5 248.7C53.2 249.4 53.2 251.4 53.2 253.3C53.2 254.4 53.5 255.6 53.9 256.6C55.6 257 57.4 257.2 59.2 257.3C61.3 257.2 62.6999 257.3 63.7999 256.6C65.5999 255.5 69.0999 253.3 69.0999 253.3L65.8 248L58.5 246.7Z" fill="white"/>
<path d="M63.0999 253.2H57.7999C57.4999 253.2 57.2999 253 57.2999 252.7V250.7C57.2999 250.4 57.4999 250.2 57.7999 250.2C58.0999 250.2 58.2999 250.4 58.2999 250.7V252.2H63.0999C63.3999 252.2 63.5999 252.4 63.5999 252.7C63.5999 253 63.3999 253.2 63.0999 253.2Z" fill="#1062FE"/>
<path d="M61.6 275.9L198.4 285.1C198.4 285.1 198.4 287.8 198.4 288.4C198.4 289.1 198 289.7 197.5 290L140.9 322.7C139.5 323.5 137 323.4 135.4 322.5L63.1 280.8C62.3 280.5 61.8 279.7 61.7 278.8C61.6 278.3 61.6 275.9 61.6 275.9Z" fill="#3192E7"/>
<path d="M62.4999 275L119.1 242.3C120.5 241.5 123 241.6 124.6 242.5L196.9 284.2C198.5 285.1 198.7 286.6 197.3 287.4L140.7 320.1C139.3 320.9 136.8 320.8 135.2 319.9L62.8999 278.2C61.2999 277.2 61.0999 275.8 62.4999 275Z" fill="#88D3FF"/>
<path d="M69.7 275.9L121.2 246.2C122.5 245.5 124.8 245.5 126.2 246.4L189.9 282.9C191.4 283.8 191.6 285.1 190.3 285.8L138.2 315.5C136.9 316.2 134.6 316.2 133.2 315.3L70.2 278.8C68.5 277.9 68.4 276.6 69.7 275.9Z" fill="#1062FE"/>
<path opacity="0.2" d="M109.2 266.2C120.1 259.9 137.8 259.9 148.7 266.2C159.6 272.5 159.6 282.7 148.7 289C137.8 295.3 120.1 295.3 109.2 289C98.3 282.7 98.3 272.5 109.2 266.2Z" fill="#A4E0FF"/>
<path opacity="0.2" d="M157 235C157 235 156.8 273.2 156.9 277.2C157 281.4 154.3 285.7 148.7 288.9C137.8 295.2 120.1 295.2 109.2 288.9C106.2 287.2 101 283.2 101 277.5C101 273.6 101 236.9 101 236.9L157 235Z" fill="#A4E0FF"/>
<path d="M157 234C157 234 156.9 237.2 156.9 237.8C156.8 241.8 154 245.8 148.7 248.9C137.8 255.2 120.1 255.2 109.2 248.9C103.8 245.8 101.1 241.7 101 237.7C101 236.8 101 234.1 101 234.1H157V234Z" fill="#3192E7"/>
<path d="M109.2 222.7C120.1 216.4 137.8 216.4 148.8 222.7C159.7 229 159.7 239.2 148.8 245.5C137.9 251.8 120.2 251.8 109.2 245.5C98.3 239.3 98.3 229 109.2 222.7Z" fill="#88D3FF"/>
<path d="M128 228.9C127.9 228.6 127.7 228.5 127.4 228.5L119.9 230.1L122.7 226.3C122.9 226.1 122.8 225.8 122.6 225.6C122.4 225.4 122.1 225.5 121.9 225.7L118.3 230.5C118.2 230.7 118.2 230.9 118.3 231.1C118.4 231.2 118.6 231.3 118.7 231.3H118.8L127.6 229.5C127.9 229.4 128 229.2 128 228.9Z" fill="white"/>
<path d="M130.1 234L131.7 233.1C132.3 232.8 132.5 232.4 132.5 232C132.5 231.6 132.2 231.2 131.7 230.9L129.3 229.5C129.1 229.4 129 229.4 128.8 229.5L122.8 232.9C122.6 233 122.5 233.3 122.6 233.6C122.7 233.9 123 233.9 123.3 233.8L125.3 232.6L125.1 232.9L127.1 234C127.5 234.3 128.1 234.4 128.6 234.4C129.2 234.4 129.7 234.3 130.1 234ZM127.7 233.2L126.1 232.2L129.1 230.5L131.2 231.7C131.5 231.8 131.5 231.9 131.5 231.9C131.5 231.9 131.4 232 131.2 232.2L129.6 233.1C129 233.5 128.3 233.5 127.7 233.2Z" fill="white"/>
<path d="M138.7 235C138.6 234.8 138.3 234.7 138 234.8L132.9 237.8L134.8 233.2C134.9 233 134.8 232.8 134.7 232.6C134.5 232.5 134.3 232.4 134.1 232.5L127.7 236.2C127.5 236.3 127.4 236.6 127.5 236.9C127.6 237.1 127.9 237.2 128.2 237.1L133.3 234.1L131.4 238.7C131.3 238.9 131.4 239.1 131.5 239.3C131.6 239.4 131.7 239.4 131.8 239.4C131.9 239.4 132 239.4 132.1 239.3L138.5 235.6C138.7 235.5 138.8 235.2 138.7 235Z" fill="white"/>
<path d="M64.1 37.4001V143.9L116 173.8V67.3001L64.1 37.4001Z" fill="white"/>
<path d="M72.1 108.7V126L107.4 145.8V128.4L72.1 108.7Z" fill="#D6F1FF"/>
<path d="M79.4999 116.8C77.9999 115.9 76.7999 116.7 76.7999 118.5C76.7999 120.3 78.3999 124 79.0999 125.5C79.2999 125.9 79.5999 126.1 79.7999 125.9C80.4999 125.2 82.0999 123.6 82.0999 121.7C82.1999 119.8 81.1999 118 79.4999 116.8ZM79.4999 119C80.0999 119.4 80.3999 120.1 80.4999 120.8C80.4999 121.5 80.0999 121.7 79.4999 121.4C78.8999 121 78.5999 120.3 78.4999 119.6C78.5999 118.9 78.9999 118.6 79.4999 119ZM99.0999 133.8C99.2999 134 99.5999 134 99.7999 133.8C99.8999 133.7 99.9999 133.5 99.8999 133.4C99.8999 132.8 99.5999 132.3 99.0999 132.1L86.3999 124.6C86.1999 124.4 85.8999 124.4 85.6999 124.6C85.5999 124.7 85.4999 124.9 85.5999 125C85.5999 125.6 85.8999 126.1 86.3999 126.3L99.0999 133.8Z" fill="#88D3FF"/>
<path d="M81.4 100.3C81.4 99.7001 81.3 99.0001 81 98.4001C80.7 97.9001 80.3 97.4001 79.8 97.2001C79.5 96.9001 79 96.9001 78.6 97.1001C78.3 97.5001 78.1 98.0001 78.2 98.5001V99.5001C78.2 100.1 78.3 100.8 78.6 101.4C78.9 101.9 79.3 102.4 79.8 102.6C80.1 102.9 80.6 102.9 81 102.7C81.3 102.3 81.5 101.8 81.4 101.3V100.3ZM80.3 100.9C80.3 101.2 80.3 101.4 80.2 101.6C80.1 101.7 80 101.7 79.8 101.7C79.6 101.6 79.5 101.4 79.4 101.2C79.3 100.9 79.3 100.6 79.3 100.3V99.0001C79.3 98.8001 79.3 98.5001 79.4 98.3001C79.5 98.2001 79.6 98.2001 79.8 98.3001C80 98.4001 80.1 98.6001 80.2 98.8001C80.3 99.1001 80.3 99.4001 80.3 99.7001V100.9ZM84.8 102.3C84.8 101.7 84.7 101 84.4 100.4C84.1 99.9001 83.7 99.4001 83.2 99.2001C82.9 98.9001 82.4 98.9001 82 99.1001C81.7 99.5001 81.5 100 81.6 100.5V101.5C81.6 102.1 81.7 102.8 82 103.4C82.3 103.9 82.7 104.4 83.2 104.6C83.5 104.9 84 104.9 84.4 104.7C84.7 104.3 84.9 103.8 84.8 103.3V102.3ZM83.8 102.9C83.8 103.2 83.8 103.4 83.7 103.6C83.6 103.7 83.5 103.7 83.3 103.7C83.1 103.6 83 103.4 82.9 103.2C82.8 102.9 82.8 102.6 82.8 102.3V101C82.8 100.8 82.8 100.5 82.9 100.3C83 100.2 83.1 100.2 83.3 100.2C83.5 100.3 83.6 100.5 83.7 100.7C83.8 101 83.8 101.3 83.8 101.6V102.9ZM85.4 104.7C85.3 104.8 85.2 104.9 85.2 105C85.2 105.2 85.3 105.4 85.4 105.5C85.5 105.7 85.6 105.8 85.8 105.9C85.9 106 86.1 106 86.2 106C86.3 105.9 86.4 105.8 86.4 105.7C86.4 105.5 86.3 105.3 86.2 105.2C86.1 105 86 104.9 85.8 104.8C85.7 104.7 85.5 104.7 85.4 104.7ZM85.4 101.9C85.3 102 85.2 102.1 85.2 102.2C85.2 102.4 85.3 102.6 85.4 102.7C85.5 102.9 85.6 103 85.8 103.1C85.9 103.2 86.1 103.2 86.2 103.2C86.3 103.1 86.4 103 86.4 102.9C86.4 102.7 86.3 102.5 86.2 102.4C86.1 102.2 86 102.1 85.8 102C85.7 101.9 85.5 101.8 85.4 101.9ZM90 105.3C90 104.7 89.9 104 89.6 103.4C89.3 102.9 88.9 102.4 88.4 102.2C88.1 101.9 87.6 101.9 87.2 102.1C86.9 102.5 86.7 103 86.8 103.5V104.5C86.8 105.1 86.9 105.8 87.2 106.4C87.5 106.9 87.9 107.4 88.4 107.6C88.7 107.9 89.2 107.9 89.6 107.7C89.9 107.3 90.1 106.8 90 106.3V105.3ZM89 105.9C89 106.2 89 106.4 88.9 106.6C88.8 106.7 88.6 106.7 88.5 106.7C88.3 106.6 88.2 106.4 88.1 106.2C88 105.9 88 105.6 88 105.3V104C88 103.8 88 103.5 88.1 103.3C88.2 103.2 88.3 103.2 88.5 103.2C88.7 103.3 88.8 103.5 88.9 103.7C89 104 89 104.3 89 104.6V105.9ZM93.5 109.5L91.7 108.5L92.3 108.1C92.5 108 92.8 107.8 93 107.6C93.1 107.5 93.2 107.3 93.3 107.2C93.4 107 93.4 106.8 93.4 106.7C93.4 106.2 93.3 105.8 93 105.4C92.7 105 92.3 104.6 91.9 104.4C91.7 104.2 91.4 104.2 91.1 104.2C90.9 104.2 90.7 104.3 90.5 104.5C90.4 104.7 90.3 105 90.3 105.3L91.3 105.9C91.3 105.7 91.3 105.5 91.5 105.4C91.6 105.3 91.8 105.3 91.9 105.4C92.1 105.5 92.2 105.6 92.3 105.8C92.4 106 92.4 106.2 92.4 106.4C92.4 106.7 92.2 107 91.9 107.2L90.4 108.1V108.9L93.5 110.7V109.5ZM94.1 109.7C94 109.8 93.9 109.9 93.9 110C93.9 110.2 94 110.4 94.1 110.5C94.2 110.7 94.3 110.8 94.5 110.9C94.6 111 94.8 111 94.9 111C95 110.9 95.1 110.8 95.1 110.7C95.1 110.5 95 110.3 94.9 110.2C94.8 110 94.7 109.9 94.5 109.8C94.3 109.7 94.2 109.7 94.1 109.7ZM94.1 106.9C94 107 93.9 107.1 93.9 107.2C93.9 107.4 94 107.6 94.1 107.7C94.2 107.9 94.3 108 94.5 108.1C94.6 108.2 94.8 108.2 94.9 108.2C95 108.1 95.1 108 95.1 107.9C95.1 107.7 95 107.5 94.9 107.4C94.8 107.2 94.7 107.1 94.5 107C94.3 106.9 94.2 106.8 94.1 106.9ZM97.8 107.7L95.7 107.3V108.2L96.7 108.4V112.2L97.7 112.8L97.8 107.7ZM99.9 111.9L100.4 112.2C100.6 112.3 100.8 112.5 100.9 112.6C101 112.8 101.1 113 101.1 113.3C101.1 113.4 101.1 113.6 100.9 113.7C100.8 113.8 100.6 113.7 100.5 113.6C100.3 113.5 100.2 113.4 100.1 113.2C100 113 99.9 112.9 99.9 112.7L98.8 112.1C98.8 112.4 98.9 112.7 99 113C99.1 113.3 99.3 113.6 99.6 113.9C99.8 114.2 100.1 114.4 100.4 114.6C100.7 114.9 101.2 115 101.6 114.9C101.9 114.8 102.1 114.4 102.1 114.1C102.1 113.8 102 113.5 101.9 113.2C101.8 112.9 101.6 112.6 101.3 112.4C101.5 112.4 101.7 112.4 101.8 112.2C101.9 112.1 102 111.9 102 111.7C102 111.2 101.8 110.8 101.6 110.4C101.3 110 100.9 109.6 100.4 109.3C100.2 109.2 99.9 109.1 99.6 109C99.4 109 99.2 109 99.1 109.2C99 109.4 98.9 109.6 98.9 109.8L99.9 110.4C99.9 110.3 99.9 110.2 100.1 110.1C100.2 110.1 100.4 110.1 100.5 110.2C100.7 110.3 100.8 110.4 100.9 110.6C101 110.8 101 110.9 101 111.1C101 111.5 100.8 111.6 100.4 111.4L99.9 111.1V111.9Z" fill="#1062FE"/>
<path d="M90.7 76.0002C95.2 78.6002 98.8 84.8002 98.8 90.0002C98.8 95.2002 95.2 97.3002 90.7 94.7002C86.2 92.1002 82.6 85.9002 82.6 80.7002C82.6 75.5002 86.2 73.4002 90.7 76.0002Z" fill="#A4E0FF"/>
<path d="M89.6999 88.5C89.4999 88.5 89.3999 88.4 89.2999 88.2L87.1999 84.5C87.0999 84.3 87.0999 84 87.3999 83.8C87.5999 83.7 87.8999 83.7 88.0999 84L89.9999 87.3L94.3999 84.9C94.5999 84.8 94.8999 84.9 95.0999 85.1C95.1999 85.3 95.0999 85.6 94.8999 85.8L90.0999 88.5C89.7999 88.4 89.6999 88.5 89.6999 88.5Z" fill="#1062FE"/>
<path d="M2.19995 2.1001V48.0001L53.4 78.6001V31.4001L2.19995 2.1001Z" fill="#A4E0FF"/>
<path d="M2.19995 61.3V107.2L53.4 137.8V90.6L2.19995 61.3Z" fill="#A4E0FF"/>
<path d="M33 125.5L2.19995 107.5V97.2001L13.5 90.7001C13.7 90.6001 13.9 90.6001 14.1 90.8001C14.3 91.0001 14.5 91.2001 14.7 91.4001L21.6 103.5L12.2 110.6L40.9 94.0001C41.1 93.9001 41.2999 94.0001 41.5 94.1001C41.7 94.2001 42 94.4001 42.0999 94.7001L53.5 114.4V137.9L33 125.5ZM47.2 66.4001L30.1 56.5001C29.7 57.5001 28.8 57.7001 27.7 57.1001C26.5 56.3001 25.6999 55.1001 25.2999 53.7001L18.4 49.7001C17.9 49.4001 17.6 48.8001 17.5 48.2001C17.4 47.9001 17.6 47.6001 17.9 47.6001C18.1 47.6001 18.2999 47.6001 18.4 47.7001L25.2999 51.7001C25.6999 50.8001 26.6 50.5001 27.7 51.1001C28.9 51.9001 29.7 53.1001 30.1 54.4001L47.2 64.3001C47.7 64.6001 48.0999 65.2001 48.0999 65.8001C48.1999 66.1001 48 66.4001 47.7 66.4001C47.5 66.6001 47.4 66.5001 47.2 66.4001ZM32.4 40.4001L25.5 41.4001C25.2999 41.4001 25.2 41.4001 25 41.3001C24.5 41.0001 24.1 40.4001 24.1 39.8001V30.0001C24 29.7001 24.2 29.4001 24.5 29.4001C24.7 29.4001 24.9 29.4001 25 29.5001C25.2 29.6001 25.4 29.7001 25.5 29.9001L32.4 38.7001C32.6 39.0001 32.7999 39.4001 32.7999 39.8001C32.9 40.1001 32.7 40.3001 32.4 40.4001ZM11.7 45.8001L8.29995 43.8001C7.79995 43.5001 7.39995 42.9001 7.39995 42.3001C7.29995 42.0001 7.49995 41.7001 7.79995 41.7001C7.99995 41.7001 8.19995 41.7001 8.29995 41.8001L11.7 43.8001C12.2 44.1001 12.6 44.7001 12.6 45.3001C12.7 45.6001 12.5 45.9001 12.2 45.9001C12 46.0001 11.9 45.9001 11.7 45.8001Z" fill="white"/>
</g>
<defs>
<linearGradient id="paint0_linear_4682_171797" x1="188.44" y1="274.313" x2="228.389" y2="363.902" gradientUnits="userSpaceOnUse">
<stop/>
<stop offset="0.671875" stop-opacity="0"/>
</linearGradient>
<clipPath id="clip0_4682_171797">
<rect width="376" height="324" fill="white"/>
</clipPath>
</defs>
</svg>
