<svg width="64" height="64" viewBox="0 0 64 64" fill="none" xmlns="http://www.w3.org/2000/svg">
<path d="M50.7 59.3L37.2 51.5" stroke="#17191C" stroke-width="2" stroke-linecap="round" stroke-linejoin="round"/>
<path d="M16.5 63L38.3 50.4L57.9 39.1" stroke="#17191C" stroke-width="2" stroke-linecap="round" stroke-linejoin="round"/>
<path d="M37.2 51.1V45.1" stroke="#17191C" stroke-width="2" stroke-linecap="round" stroke-linejoin="round"/>
<path d="M49.6 3.3L45.5 1L7 23.2V51.2L11 53.5V25.5L49.6 3.3Z" fill="#0199FF" stroke="#0199FF" stroke-width="2" stroke-linecap="round" stroke-linejoin="round"/>
<path d="M54 6L49.6 3.30005L11 25.5V53.5L16 56.28" stroke="#17191C" stroke-width="2" stroke-linecap="round" stroke-linejoin="round"/>
<path d="M54 6L16 28V56.28L54 34.5V6Z" stroke="#17191C" stroke-width="2" stroke-linecap="round" stroke-linejoin="round"/>
<path d="M26 42V32.65" stroke="#056CEA" stroke-width="2" stroke-linecap="round" stroke-linejoin="round"/>
<path d="M30 39.7V35M30 35V30.3L33.5 28.2001V33L30 35Z" stroke="#056CEA" stroke-width="2" stroke-linecap="round" stroke-linejoin="round"/>
<path d="M45 26.3846L42 28.1154V23.4M45 26.3846V31M45 26.3846V24.5M45 26.3846L46.25 25.6923" stroke="#056CEA" stroke-width="2" stroke-linecap="round" stroke-linejoin="round"/>
<path d="M36.4 32.3646L38.1 35.0645L39.7961 30.4" stroke="#056CEA" stroke-width="2" stroke-linecap="round" stroke-linejoin="round"/>
</svg>
