<svg width="64" height="64" viewBox="0 0 64 64" fill="none" xmlns="http://www.w3.org/2000/svg">
<path d="M20.4 55.8C20.4 55.8 2 52.4 2 46.3C2 40.5 2 20.7 2 20.7L18.3 6.09998L34.2 1.59998L38.7 4.19998" stroke="white" stroke-width="2" stroke-linecap="round" stroke-linejoin="round"/>
<path fill-rule="evenodd" clip-rule="evenodd" d="M39 30C39 36 22.4 56 22.4 56C22.4 56 6 54 6 48C6 42.2 6 22.5 6 22.5L22.4 8.40005L38.8 4.5L39 30Z" stroke="white" stroke-width="2" stroke-linecap="round" stroke-linejoin="round"/>
<path fill-rule="evenodd" clip-rule="evenodd" d="M29.994 22.0701C29.294 21.7701 28.294 22.4701 27.694 23.4701L21.494 34.8701L18.794 32.7701C18.194 32.3701 17.194 32.7701 16.594 33.7701V33.8701C15.894 34.8701 15.794 35.9701 16.394 36.4701L20.194 39.3701C20.294 39.4701 20.394 39.4701 20.394 39.5701C21.094 39.8701 22.094 39.1701 22.694 38.1701L30.194 24.4701C30.694 23.3701 30.594 22.2701 29.994 22.0701Z" fill="#0199FF"/>
<path d="M44.1135 30.3246L39 29.8L35.8803 28.5949C34.7066 27.8727 34.5 25 35.8803 23.5392L57.5475 10.9C58 10.5 61.1587 11.8931 61.0684 12.9765C61.0684 13.4815 60.1362 14.0712 59.2198 14.6509C58.4981 15.1075 57.7862 15.5579 57.5475 15.9557L49.3324 27.2884L56.4688 25.4241C56.6964 25.4241 56.8482 25.4241 57 25.5L59.4283 26.8659C59.656 27.0177 59.7318 27.2453 59.7318 27.473L58.6939 44.479C58.6248 48.0009 51.0143 59.4414 49.3596 61.9288C49.196 62.1747 49.0907 62.3331 49.0565 62.3877C48.9048 62.6154 48.753 62.6913 48.5253 62.6913H48.3736C47.5824 62.5517 40.5 60.3532 40 60.1C39.8379 60.0179 38.3489 59.0527 37.7256 58.5C36.9119 57.7783 36.3996 56.9674 36.3996 56.0701V37.2861C36.3996 37.1343 36.4755 36.9067 36.6272 36.8308L44.1135 30.3246Z" fill="#056CEA" stroke="#056CEA" stroke-width="2" stroke-linecap="round" stroke-linejoin="round"/>
<path d="M47.368 31.5928L39.0398 29.8588C37.8662 29.1366 37.5 26.5 39.0398 24.8032L60.707 12.1639C61.8807 12.8862 61.8807 15.1432 60.707 17.2196L52.3778 28.7514L59.0894 26.9688C59.5 27 60 27 60 27.5V46.3599C60 50.1541 51.94 61.4013 50.8017 62.6913C50.6499 62.8431 50.4223 62.919 50.2705 62.919H50.1946C50.1314 62.9111 50.0446 62.9011 49.9369 62.8887C47.973 62.6636 39 61.9565 39 58V39.0312C39 38.8795 39.0398 38.6965 39.1916 38.5447L47.368 31.5928Z" fill="#0199FF" stroke="#0199FF" stroke-width="2" stroke-linecap="round" stroke-linejoin="round"/>
<path d="M52.7838 55.5999L52.7838 51.9999L50.2426 53.5066L50.209 56.625L47.6678 58.1316L47.6678 54.6" stroke="white" stroke-linecap="round" stroke-linejoin="round"/>
<path d="M52.5968 35.9349L52.6061 33.0326L47.607 36.0229" stroke="white" stroke-linecap="round" stroke-linejoin="round"/>
<path d="M51.7784 37.376L48.2978 39.458L47.5972 39.0601L47.607 36.0229" stroke="white" stroke-linecap="round" stroke-linejoin="round"/>
<path d="M52.6049 42.124L52.6143 39.2217L47.6152 42.212" stroke="white" stroke-linecap="round" stroke-linejoin="round"/>
<path d="M51.7866 43.5651L48.306 45.6471L47.6054 45.2492L47.6152 42.212" stroke="white" stroke-linecap="round" stroke-linejoin="round"/>
<path d="M50.9514 49.7986L50.9607 46.8962L47.6345 48.8796" stroke="white" stroke-linecap="round" stroke-linejoin="round"/>
<path d="M47.6247 51.9167L47.6345 48.8796Z" stroke="white" stroke-linecap="round" stroke-linejoin="round"/>
</svg>
