<svg width="64" height="64" viewBox="0 0 64 64" fill="none" xmlns="http://www.w3.org/2000/svg">
<path d="M32 61.5999L2 44.3999L16.1164 36.2124L32 45.4999L47.8836 36.2124L62 44.3999L32 61.5999Z" fill="#056CEA" stroke="#056CEA" stroke-width="2" stroke-linecap="round" stroke-linejoin="round"/>
<path d="M62 20V27.7L32 45.1L2 27.7V20" stroke="white" stroke-width="2" stroke-linecap="round" stroke-linejoin="round"/>
<path d="M32 36.6L2 19.4L32 2L62 19.4L32 36.6Z" stroke="white" stroke-width="2" stroke-linecap="round" stroke-linejoin="round"/>
<path d="M17 19.85L32 28.55L47 19.85V16H17V19.85Z" fill="#056CEA" stroke="#056CEA" stroke-width="2" stroke-linecap="round" stroke-linejoin="round"/>
<path d="M32 24.3L17 15.7L32 7L47 15.7L32 24.3Z" fill="#0199FF" stroke="#0199FF" stroke-width="2" stroke-linecap="round" stroke-linejoin="round"/>
<path d="M18.6 5L22.6758 7.36396" stroke="white" stroke-width="2" stroke-linecap="round" stroke-linejoin="round"/>
<path d="M13 8L17.3103 10.5" stroke="white" stroke-width="2" stroke-linecap="round" stroke-linejoin="round"/>
<path d="M7.90002 11L12 13.378" stroke="white" stroke-width="2" stroke-linecap="round" stroke-linejoin="round"/>
<path d="M2.69995 14.1001L6.83792 16.5001" stroke="white" stroke-width="2" stroke-linecap="round" stroke-linejoin="round"/>
<path d="M54.6 28L62.1 32.35" stroke="white" stroke-width="2" stroke-linecap="round" stroke-linejoin="round"/>
<path d="M49 31L56.5 35.35" stroke="white" stroke-width="2" stroke-linecap="round" stroke-linejoin="round"/>
<path d="M43.9 34L51.4 38.35" stroke="white" stroke-width="2" stroke-linecap="round" stroke-linejoin="round"/>
<path d="M38.7 37.1001L46.2 41.4501" stroke="white" stroke-width="2" stroke-linecap="round" stroke-linejoin="round"/>
<path d="M46.2 5L41.7753 7.56629" stroke="white" stroke-width="2" stroke-linecap="round" stroke-linejoin="round"/>
<path d="M51.7999 8L47.2327 10.649" stroke="white" stroke-width="2" stroke-linecap="round" stroke-linejoin="round"/>
<path d="M56.8999 11L52.2639 13.6889" stroke="white" stroke-width="2" stroke-linecap="round" stroke-linejoin="round"/>
<path d="M62.1 14.1001L57.5 16.7681" stroke="white" stroke-width="2" stroke-linecap="round" stroke-linejoin="round"/>
<path d="M10.2 29L2.69995 33.35" stroke="white" stroke-width="2" stroke-linecap="round" stroke-linejoin="round"/>
<path d="M15.7999 32L8.29993 36.35" stroke="white" stroke-width="2" stroke-linecap="round" stroke-linejoin="round"/>
<path d="M20.8999 35L13.3999 39.35" stroke="white" stroke-width="2" stroke-linecap="round" stroke-linejoin="round"/>
<path d="M26.1 38.1001L18.6 42.4501" stroke="white" stroke-width="2" stroke-linecap="round" stroke-linejoin="round"/>
</svg>
