<svg width="64" height="64" viewBox="0 0 64 64" fill="none" xmlns="http://www.w3.org/2000/svg">
<path d="M32 61.6L2 44.4L16.1164 36.2125L32 45.5001L47.8836 36.2125L62 44.4L32 61.6Z" fill="#056CEA" stroke="#056CEA" stroke-width="2" stroke-linecap="round" stroke-linejoin="round"/>
<path d="M62 20V27.7L32 45.1L2 27.7V20" stroke="#17191C" stroke-width="2" stroke-linecap="round" stroke-linejoin="round"/>
<path d="M32 36.6L2 19.4L32 2L62 19.4L32 36.6Z" stroke="#17191C" stroke-width="2" stroke-linecap="round" stroke-linejoin="round"/>
<path d="M17 19.85L32 28.55L47 19.85V16H17V19.85Z" fill="#056CEA" stroke="#056CEA" stroke-width="2" stroke-linecap="round" stroke-linejoin="round"/>
<path d="M32 24.3L17 15.7L32 7L47 15.7L32 24.3Z" fill="#0199FF" stroke="#0199FF" stroke-width="2" stroke-linecap="round" stroke-linejoin="round"/>
<path d="M18.6 5L22.6758 7.36396" stroke="#17191C" stroke-width="2" stroke-linecap="round" stroke-linejoin="round"/>
<path d="M13 8L17.3103 10.5" stroke="#17191C" stroke-width="2" stroke-linecap="round" stroke-linejoin="round"/>
<path d="M7.90002 11L12 13.378" stroke="#17191C" stroke-width="2" stroke-linecap="round" stroke-linejoin="round"/>
<path d="M2.69995 14.1L6.83792 16.5" stroke="#17191C" stroke-width="2" stroke-linecap="round" stroke-linejoin="round"/>
<path d="M54.6 28L62.1 32.35" stroke="#17191C" stroke-width="2" stroke-linecap="round" stroke-linejoin="round"/>
<path d="M49 31L56.5 35.35" stroke="#17191C" stroke-width="2" stroke-linecap="round" stroke-linejoin="round"/>
<path d="M43.9 34L51.4 38.35" stroke="#17191C" stroke-width="2" stroke-linecap="round" stroke-linejoin="round"/>
<path d="M38.7 37.1L46.2 41.45" stroke="#17191C" stroke-width="2" stroke-linecap="round" stroke-linejoin="round"/>
<path d="M46.2 5L41.7753 7.56629" stroke="#17191C" stroke-width="2" stroke-linecap="round" stroke-linejoin="round"/>
<path d="M51.7999 8L47.2327 10.649" stroke="#17191C" stroke-width="2" stroke-linecap="round" stroke-linejoin="round"/>
<path d="M56.8999 11L52.2639 13.6889" stroke="#17191C" stroke-width="2" stroke-linecap="round" stroke-linejoin="round"/>
<path d="M62.1 14.1L57.5 16.768" stroke="#17191C" stroke-width="2" stroke-linecap="round" stroke-linejoin="round"/>
<path d="M10.2 29L2.69995 33.35" stroke="#17191C" stroke-width="2" stroke-linecap="round" stroke-linejoin="round"/>
<path d="M15.7999 32L8.29993 36.35" stroke="#17191C" stroke-width="2" stroke-linecap="round" stroke-linejoin="round"/>
<path d="M20.8999 35L13.3999 39.35" stroke="#17191C" stroke-width="2" stroke-linecap="round" stroke-linejoin="round"/>
<path d="M26.1 38.1L18.6 42.45" stroke="#17191C" stroke-width="2" stroke-linecap="round" stroke-linejoin="round"/>
</svg>
