<svg width="64" height="64" viewBox="0 0 64 64" fill="none" xmlns="http://www.w3.org/2000/svg">
<g clip-path="url(#clip0_7141_199547)">
<path d="M8.56721 48.9504L2.28474 52.523L20.0672 62.7625L61.8497 39.002L56.0672 35.6724" stroke="white" stroke-width="2" stroke-linecap="round" stroke-linejoin="round" stroke-dasharray="6 6"/>
<path d="M51.3673 3.75041L47.3673 1.5L8.06726 24.1504V52.9437L12.0673 55.3499V26.3504L51.3673 3.75041Z" fill="#0199FF" stroke="#0199FF" stroke-width="2" stroke-linecap="round" stroke-linejoin="round"/>
<path d="M56.0673 6.49995L51.5673 3.87964L12.0673 26.4504V55.3L17.0673 58.15" stroke="white" stroke-width="2" stroke-linecap="round" stroke-linejoin="round"/>
<path d="M41.0673 44.4989L56.0673 35.8147V6.66736L17.0673 28.9503V58.1503L32.0673 49.5503V43.4503L35.6945 41.3949M41.0673 44.4989V38.3503L35.6945 41.3949M41.0673 44.4989L35.6945 41.3949" stroke="white" stroke-width="2" stroke-linecap="round" stroke-linejoin="round"/>
<path d="M44.0673 36.6V42.6" stroke="white" stroke-width="2" stroke-linecap="round" stroke-linejoin="round"/>
<path d="M48.0673 34.3V40.3" stroke="white" stroke-width="2" stroke-linecap="round" stroke-linejoin="round"/>
<path d="M52.0673 32V38" stroke="white" stroke-width="2" stroke-linecap="round" stroke-linejoin="round"/>
<path d="M21.0673 49.6V55.6" stroke="white" stroke-width="2" stroke-linecap="round" stroke-linejoin="round"/>
<path d="M25.0673 47.3V53.3" stroke="white" stroke-width="2" stroke-linecap="round" stroke-linejoin="round"/>
<path d="M29.0673 45V51" stroke="white" stroke-width="2" stroke-linecap="round" stroke-linejoin="round"/>
<path d="M27.4309 39.043L21.7037 42.2085L21.0673 41.8585V33.9778L27.1814 30.5005L28.0503 31.0586L27.4309 39.043Z" fill="#0199FF" stroke="#0199FF" stroke-width="2" stroke-linecap="round" stroke-linejoin="round"/>
<path d="M28.0673 38.9286L22.0673 42.3486V34.4586L28.0673 31.0586V38.9286Z" fill="#056CEA" stroke="#056CEA" stroke-width="2" stroke-linecap="round" stroke-linejoin="round"/>
<path d="M39.4309 32.193L33.7037 35.3585L33.0673 35.0085V27.1278L39.1814 23.6505L40.0503 24.2086L39.4309 32.193Z" fill="#0199FF" stroke="#0199FF" stroke-width="2" stroke-linecap="round" stroke-linejoin="round"/>
<path d="M40.0673 32.0786L34.0673 35.4986V27.6086L40.0673 24.2086V32.0786Z" fill="#056CEA" stroke="#056CEA" stroke-width="2" stroke-linecap="round" stroke-linejoin="round"/>
<path d="M51.4309 25.3348L45.7037 28.5004L45.0673 28.1504V20.2697L51.1814 16.7924L52.0503 17.3505L51.4309 25.3348Z" fill="#0199FF" stroke="#0199FF" stroke-width="2" stroke-linecap="round" stroke-linejoin="round"/>
<path d="M52.0673 25.2204L46.0673 28.6405V20.7505L52.0673 17.3505V25.2204Z" fill="#056CEA" stroke="#056CEA" stroke-width="2" stroke-linecap="round" stroke-linejoin="round"/>
</g>
<defs>
<clipPath id="clip0_7141_199547">
<rect width="64" height="64" fill="white"/>
</clipPath>
</defs>
</svg>
