<svg width="24" height="24" viewBox="0 0 24 24" fill="none" xmlns="http://www.w3.org/2000/svg">
<rect width="24" height="24" fill="white"/>
<path d="M7.43253 7.375V10H6.76207V5.63636H7.4098V6.31818H7.46662C7.56889 6.09659 7.7242 5.91856 7.93253 5.78409C8.14086 5.64773 8.4098 5.57955 8.73935 5.57955C9.0348 5.57955 9.29332 5.64015 9.51491 5.76136C9.73651 5.88068 9.90885 6.0625 10.032 6.30682C10.1551 6.54924 10.2166 6.85606 10.2166 7.22727V10H9.54616V7.27273C9.54616 6.92992 9.45715 6.66288 9.27912 6.47159C9.10109 6.27841 8.85677 6.18182 8.54616 6.18182C8.33215 6.18182 8.14086 6.22822 7.9723 6.32102C7.80563 6.41383 7.67401 6.54924 7.57741 6.72727C7.48082 6.9053 7.43253 7.12121 7.43253 7.375ZM13.2145 10.0909C12.8205 10.0909 12.4749 9.99716 12.1776 9.80966C11.8821 9.62216 11.651 9.35985 11.4844 9.02273C11.3196 8.68561 11.2372 8.29167 11.2372 7.84091C11.2372 7.38636 11.3196 6.98958 11.4844 6.65057C11.651 6.31155 11.8821 6.0483 12.1776 5.8608C12.4749 5.6733 12.8205 5.57955 13.2145 5.57955C13.6084 5.57955 13.9531 5.6733 14.2486 5.8608C14.5459 6.0483 14.777 6.31155 14.9418 6.65057C15.1084 6.98958 15.1918 7.38636 15.1918 7.84091C15.1918 8.29167 15.1084 8.68561 14.9418 9.02273C14.777 9.35985 14.5459 9.62216 14.2486 9.80966C13.9531 9.99716 13.6084 10.0909 13.2145 10.0909ZM13.2145 9.48864C13.5137 9.48864 13.7599 9.41193 13.9531 9.25852C14.1463 9.10511 14.2893 8.90341 14.3821 8.65341C14.4749 8.40341 14.5213 8.13258 14.5213 7.84091C14.5213 7.54924 14.4749 7.27746 14.3821 7.02557C14.2893 6.77367 14.1463 6.57008 13.9531 6.41477C13.7599 6.25947 13.5137 6.18182 13.2145 6.18182C12.9152 6.18182 12.669 6.25947 12.4759 6.41477C12.2827 6.57008 12.1397 6.77367 12.0469 7.02557C11.9541 7.27746 11.9077 7.54924 11.9077 7.84091C11.9077 8.13258 11.9541 8.40341 12.0469 8.65341C12.1397 8.90341 12.2827 9.10511 12.4759 9.25852C12.669 9.41193 12.9152 9.48864 13.2145 9.48864ZM1.16832 20V15.6364H1.83878V20H1.16832ZM1.50923 14.9091C1.37855 14.9091 1.26586 14.8646 1.17116 14.7756C1.07836 14.6866 1.03196 14.5795 1.03196 14.4545C1.03196 14.3295 1.07836 14.2225 1.17116 14.1335C1.26586 14.0445 1.37855 14 1.50923 14C1.63991 14 1.75166 14.0445 1.84446 14.1335C1.93916 14.2225 1.98651 14.3295 1.98651 14.4545C1.98651 14.5795 1.93916 14.6866 1.84446 14.7756C1.75166 14.8646 1.63991 14.9091 1.50923 14.9091ZM3.06676 20V15.6364H3.71449V16.3182H3.77131C3.86222 16.0852 4.009 15.9044 4.21165 15.7756C4.4143 15.6449 4.65767 15.5795 4.94176 15.5795C5.22964 15.5795 5.46922 15.6449 5.66051 15.7756C5.85369 15.9044 6.00426 16.0852 6.11222 16.3182H6.15767C6.26941 16.0928 6.43703 15.9138 6.66051 15.7812C6.884 15.6468 7.15199 15.5795 7.46449 15.5795C7.85464 15.5795 8.17377 15.7017 8.42188 15.946C8.66998 16.1884 8.79403 16.5663 8.79403 17.0795V20H8.12358V17.0795C8.12358 16.7576 8.03551 16.5275 7.85938 16.3892C7.68324 16.2509 7.47585 16.1818 7.23722 16.1818C6.9304 16.1818 6.69271 16.2746 6.52415 16.4602C6.35559 16.6439 6.27131 16.8769 6.27131 17.1591V20H5.58949V17.0114C5.58949 16.7633 5.509 16.5634 5.34801 16.4119C5.18703 16.2585 4.97964 16.1818 4.72585 16.1818C4.55161 16.1818 4.38873 16.2282 4.23722 16.321C4.08759 16.4138 3.96638 16.5426 3.87358 16.7074C3.78267 16.8703 3.73722 17.0587 3.73722 17.2727V20H3.06676ZM11.304 20.1023C11.0275 20.1023 10.7765 20.0502 10.5511 19.946C10.3258 19.84 10.1468 19.6875 10.0142 19.4886C9.88163 19.2879 9.81534 19.0455 9.81534 18.7614C9.81534 18.5114 9.86458 18.3087 9.96307 18.1534C10.0616 17.9962 10.1932 17.8731 10.358 17.7841C10.5227 17.6951 10.7045 17.6288 10.9034 17.5852C11.1042 17.5398 11.3059 17.5038 11.5085 17.4773C11.7737 17.4432 11.9886 17.4176 12.1534 17.4006C12.3201 17.3816 12.4413 17.3504 12.517 17.3068C12.5947 17.2633 12.6335 17.1875 12.6335 17.0795V17.0568C12.6335 16.7765 12.5568 16.5587 12.4034 16.4034C12.2519 16.2481 12.0218 16.1705 11.7131 16.1705C11.393 16.1705 11.142 16.2405 10.9602 16.3807C10.7784 16.5208 10.6506 16.6705 10.5767 16.8295L9.94034 16.6023C10.054 16.3371 10.2055 16.1307 10.3949 15.983C10.5862 15.8333 10.7945 15.7292 11.0199 15.6705C11.2472 15.6098 11.4706 15.5795 11.6903 15.5795C11.8305 15.5795 11.9915 15.5966 12.1733 15.6307C12.357 15.6629 12.5341 15.7301 12.7045 15.8324C12.8769 15.9347 13.0199 16.089 13.1335 16.2955C13.2472 16.5019 13.304 16.7784 13.304 17.125V20H12.6335V19.4091H12.5994C12.554 19.5038 12.4782 19.6051 12.3722 19.7131C12.2661 19.821 12.125 19.9129 11.9489 19.9886C11.7727 20.0644 11.5578 20.1023 11.304 20.1023ZM11.4062 19.5C11.6714 19.5 11.8949 19.4479 12.0767 19.3438C12.2604 19.2396 12.3987 19.1051 12.4915 18.9403C12.5862 18.7756 12.6335 18.6023 12.6335 18.4205V17.8068C12.6051 17.8409 12.5426 17.8722 12.446 17.9006C12.3513 17.9271 12.2415 17.9508 12.1165 17.9716C11.9934 17.9905 11.8731 18.0076 11.7557 18.0227C11.6402 18.036 11.5464 18.0473 11.4744 18.0568C11.3002 18.0795 11.1373 18.1165 10.9858 18.1676C10.8362 18.2169 10.715 18.2917 10.6222 18.392C10.5313 18.4905 10.4858 18.625 10.4858 18.7955C10.4858 19.0284 10.572 19.2045 10.7443 19.3239C10.9186 19.4413 11.1392 19.5 11.4062 19.5ZM16.2891 21.7273C15.9652 21.7273 15.6868 21.6856 15.4538 21.6023C15.2209 21.5208 15.0268 21.4129 14.8714 21.2784C14.718 21.1458 14.5959 21.0038 14.505 20.8523L15.0391 20.4773C15.0997 20.5568 15.1764 20.6477 15.2692 20.75C15.362 20.8542 15.4889 20.9441 15.6499 21.0199C15.8127 21.0975 16.0258 21.1364 16.2891 21.1364C16.6413 21.1364 16.9321 21.0511 17.1612 20.8807C17.3904 20.7102 17.505 20.4432 17.505 20.0795V19.1932H17.4482C17.3989 19.2727 17.3288 19.3712 17.2379 19.4886C17.1489 19.6042 17.0201 19.7074 16.8516 19.7983C16.6849 19.8873 16.4595 19.9318 16.1754 19.9318C15.8232 19.9318 15.5069 19.8485 15.2266 19.6818C14.9482 19.5152 14.7275 19.2727 14.5646 18.9545C14.4036 18.6364 14.3232 18.25 14.3232 17.7955C14.3232 17.3485 14.4018 16.9593 14.5589 16.6278C14.7161 16.2945 14.9349 16.0369 15.2152 15.8551C15.4955 15.6714 15.8194 15.5795 16.1868 15.5795C16.4709 15.5795 16.6963 15.6269 16.8629 15.7216C17.0315 15.8144 17.1603 15.9205 17.2493 16.0398C17.3402 16.1572 17.4103 16.2538 17.4595 16.3295H17.5277V15.6364H18.1754V20.125C18.1754 20.5 18.0902 20.8049 17.9197 21.0398C17.7512 21.2765 17.5239 21.4498 17.2379 21.5597C16.9538 21.6714 16.6375 21.7273 16.2891 21.7273ZM16.2663 19.3295C16.5353 19.3295 16.7625 19.268 16.9482 19.1449C17.1338 19.0218 17.2749 18.8447 17.3714 18.6136C17.468 18.3826 17.5163 18.1061 17.5163 17.7841C17.5163 17.4697 17.469 17.1922 17.3743 16.9517C17.2796 16.7112 17.1394 16.5227 16.9538 16.3864C16.7682 16.25 16.5391 16.1818 16.2663 16.1818C15.9822 16.1818 15.7455 16.2538 15.5561 16.3977C15.3686 16.5417 15.2275 16.7348 15.1328 16.9773C15.04 17.2197 14.9936 17.4886 14.9936 17.7841C14.9936 18.0871 15.041 18.3551 15.1357 18.5881C15.2322 18.8191 15.3743 19.0009 15.5618 19.1335C15.7512 19.2642 15.986 19.3295 16.2663 19.3295ZM21.2322 20.0909C20.8118 20.0909 20.4491 19.9981 20.1442 19.8125C19.8411 19.625 19.6072 19.3636 19.4425 19.0284C19.2796 18.6913 19.1982 18.2992 19.1982 17.8523C19.1982 17.4053 19.2796 17.0114 19.4425 16.6705C19.6072 16.3277 19.8364 16.0606 20.13 15.8693C20.4254 15.6761 20.7701 15.5795 21.1641 15.5795C21.3913 15.5795 21.6158 15.6174 21.8374 15.6932C22.0589 15.7689 22.2607 15.892 22.4425 16.0625C22.6243 16.2311 22.7692 16.4545 22.8771 16.733C22.9851 17.0114 23.0391 17.3542 23.0391 17.7614V18.0455H19.6754V17.4659H22.3572C22.3572 17.2197 22.308 17 22.2095 16.8068C22.1129 16.6136 21.9747 16.4612 21.7947 16.3494C21.6167 16.2377 21.4065 16.1818 21.1641 16.1818C20.897 16.1818 20.666 16.2481 20.4709 16.3807C20.2777 16.5114 20.129 16.6818 20.0249 16.892C19.9207 17.1023 19.8686 17.3277 19.8686 17.5682V17.9545C19.8686 18.2841 19.9254 18.5634 20.0391 18.7926C20.1546 19.0199 20.3146 19.1932 20.5192 19.3125C20.7237 19.4299 20.9614 19.4886 21.2322 19.4886C21.4084 19.4886 21.5675 19.464 21.7095 19.4148C21.8535 19.3636 21.9775 19.2879 22.0817 19.1875C22.1858 19.0852 22.2663 18.9583 22.3232 18.8068L22.9709 18.9886C22.9027 19.2083 22.7881 19.4015 22.6271 19.5682C22.4661 19.733 22.2673 19.8617 22.0305 19.9545C21.7938 20.0455 21.5277 20.0909 21.2322 20.0909Z" fill="#505459"/>
</svg>
