<svg width="377" height="324" viewBox="0 0 377 324" fill="none" xmlns="http://www.w3.org/2000/svg">
<g clip-path="url(#clip0_6624_110937)">
<g clip-path="url(#clip1_6624_110937)">
<path d="M64 40.3V42.5L105.4 162C105.4 162 107.5 163.4 108.6 164.1C114.1 167.2 119 163.3 119 157V74.1C119 66.5 117.9 60.6 111.7 57.2C102.3 52.1 83.8 41.1 73.3 34.9C69.7 32.9 64 34.2 64 40.3Z" fill="#CBCFD5"/>
<path d="M64 42.9001V132.2C64 137.4 64.4 141.4 68.7 143.9C77.8 149.2 94.6 159.1 105.6 165.3C111.2 168.4 116 164.5 116 158.3V76.6C116 69.1 114.9 63.3 108.7 60C99.2 54.9 82.8 45.5001 72.2 39.4001C65.8 35.6001 64 36.9001 64 42.9001Z" fill="#E9EBEE"/>
<path d="M91.7 152.6C91.9 152.8 92.3 152.8 92.5 152.6C92.6 152.5 92.7 152.3 92.6 152.1C92.6 151.5 92.2 150.9 91.7 150.6L83 145.5C82.8 145.3 82.4 145.3 82.2 145.5C82.1 145.6 82 145.8 82.1 146C82.1 146.6 82.5 147.2 83 147.5L91.7 152.6Z" fill="#4F5357"/>
<path d="M91.7 59.0999C91.9 59.2999 92.3 59.2999 92.5 59.0999C92.6 58.9999 92.7 58.7999 92.6 58.5999C92.6 57.9999 92.2 57.3999 91.7 57.0999L83 51.9999C82.8 51.7999 82.4 51.7999 82.2 51.9999C82.1 52.0999 82 52.2999 82.1 52.4999C82.1 53.0999 82.5 53.6999 83 53.9999L91.7 59.0999Z" fill="#4F5357"/>
<path d="M95.5 58.7999C96.1 58.8999 96.5 59.4999 96.5 60.0999C96.6 60.5999 96.2 61.0999 95.7 61.0999C95.6 61.0999 95.6 61.0999 95.5 61.0999C94.9 60.9999 94.5 60.3999 94.5 59.7999C94.4 59.2999 94.8 58.7999 95.3 58.7999C95.4 58.6999 95.4 58.6999 95.5 58.7999Z" fill="#4F5357"/>
<path d="M1 -1.6001V44.7999L52.8 75.6999V27.9999L1 -1.6001Z" fill="#E9EBEE"/>
<path d="M1 58.2V104.6L41.5 128.8L52.8 146.3V87.8L1 58.2Z" fill="#E9EBEE"/>
<path d="M41.2 96.9C41.4 97.1 41.8 97.1 42 96.9C42.1 96.8 42.2 96.6 42.1 96.4C42.1 95.8 41.7 95.2 41.2 94.9L25.6 85.6999C25.4 85.4999 25.1 85.4999 24.8 85.6999C24.7 85.7999 24.6 85.9999 24.7 86.1999C24.7 86.7999 25.1 87.3999 25.6 87.6999L41.2 96.9ZM30.8 96.9C31 97.1 31.4 97.1 31.6 96.9C31.7 96.8 31.8 96.6 31.7 96.4C31.7 95.8 31.3 95.2 30.8 94.9L11.7 83.6C11.5 83.4 11.1 83.4 10.9 83.6C10.8 83.7 10.7 83.9 10.8 84.1C10.8 84.7 11.2 85.3 11.7 85.6L30.8 96.9ZM20.4 84.6999C20.6 84.8999 21 84.8999 21.2 84.6999C21.3 84.5999 21.4 84.3999 21.3 84.1999C21.3 83.5999 20.9 82.9999 20.4 82.6999L11.7 77.6C11.5 77.4 11.1 77.4 10.9 77.6C10.8 77.7 10.7 77.9 10.8 78.1C10.8 78.7 11.2 79.3 11.7 79.6L20.4 84.6999ZM11.7 91.8C11.2 91.5 10.8 90.9 10.8 90.3C10.7 90 10.9 89.7 11.2 89.6C11.4 89.6 11.6 89.5999 11.7 89.6999L15.2 91.6999C15.7 91.9999 16.1 92.5999 16.1 93.1999C16.2 93.4999 16 93.8 15.7 93.8C15.5 93.8 15.3 93.7999 15.2 93.6999L11.7 91.8ZM20.4 96.9C19.9 96.6 19.5 96 19.5 95.4C19.4 95.1 19.6 94.8 19.9 94.8C20.1 94.8 20.3 94.8 20.4 94.9L41.2 107.1C41.7 107.4 42.1 108 42.1 108.6C42.2 108.9 42 109.2 41.7 109.3C41.5 109.3 41.3 109.3 41.2 109.2L20.4 96.9ZM41.2 115.2C41.4 115.4 41.8 115.4 42 115.2C42.1 115.1 42.2 114.9 42.1 114.7C42.1 114.1 41.7 113.5 41.2 113.2L37.7 111.2C37.5 111 37.1 111 36.9 111.2C36.8 111.3 36.7 111.5 36.8 111.7C36.8 112.3 37.2 112.9 37.7 113.2L41.2 115.2ZM32.5 110.1C32.7 110.3 33.1 110.3 33.3 110.1C33.4 110 33.5 109.8 33.4 109.6C33.4 109 33 108.4 32.5 108.1L11.7 95.9C11.5 95.7 11.1 95.7 10.9 95.9C10.8 96 10.7 96.2 10.8 96.4C10.8 97 11.2 97.6 11.7 97.9L32.5 110.1Z" fill="#CBCFD5"/>
<path d="M108.1 75.5L69.9 53.1C69.7 52.9 69.4 52.9 69.2 53.1C69 53.3 69 53.5 69 53.6V61.6C69 62.2 69.4 62.8 69.9 63.1L108.1 85.5C108.3 85.7 108.6 85.7 108.8 85.5C108.9 85.4 109 85.2 108.9 85V77C109 76.4 108.6 75.8 108.1 75.5ZM108.1 89.7L69.9 67.3C69.7 67.1 69.4 67.1 69.2 67.3C69 67.5 69 67.6 69 67.8V89.2C69 89.7999 69.4 90.4 69.9 90.7L108.1 113.1C108.3 113.3 108.6 113.3 108.8 113.1C108.9 113 109 112.8 108.9 112.6V91.2C109 90.6 108.6 90 108.1 89.7ZM87.1 112.5L69.9 102.6C69.7 102.4 69.3 102.4 69.1 102.6C69 102.7 68.9 102.9 69 103.1V122.1C69 122.7 69.4 123.3 69.9 123.6L87.1 133.5C87.3 133.7 87.7 133.7 87.9 133.5C88 133.4 88.1 133.2 88 133V114C88 113.4 87.6 112.8 87.1 112.5ZM108.1 124.7L91.9 115C91.7 114.8 91.4 114.8 91.2 115C91.1 115.1 91 115.3 91.1 115.5V134.2C91.1 134.8 91.5 135.4 92 135.7L108.2 145.4C108.4 145.6 108.7 145.6 108.9 145.4C109 145.3 109.1 145.1 109 144.9V126.2C109 125.6 108.6 125 108.1 124.7ZM86.7 108.3C86.9 108.5 87.3 108.5 87.5 108.3C87.6 108.2 87.7 108 87.6 107.8C87.6 107.2 87.2 106.6 86.7 106.3L69.6 96.4C69.4 96.2 69 96.2 68.8 96.4C68.7 96.5 68.6 96.7 68.7 96.9C68.7 97.5 69.1 98.1 69.6 98.4L86.7 108.3ZM78.3 134.4C78.5 134.6 78.9 134.6 79.1 134.4C79.2 134.3 79.3 134.1 79.2 133.9C79.2 133.3 78.8 132.7 78.3 132.4L69.6 127.3C69.4 127.1 69 127.1 68.8 127.3C68.7 127.4 68.6 127.6 68.7 127.8C68.7 128.4 69.1 129 69.6 129.3L78.3 134.4ZM109.5 121.8C109.7 122 110.1 122 110.3 121.8C110.4 121.7 110.5 121.5 110.4 121.3C110.4 120.7 110 120.1 109.5 119.8L92.4 109.9C92.2 109.7 91.8 109.7 91.6 109.9C91.5 110 91.4 110.2 91.5 110.4C91.5 111 91.9 111.6 92.4 111.9L109.5 121.8ZM99.8 145.9C100 146.1 100.4 146.1 100.6 145.9C100.7 145.8 100.8 145.6 100.7 145.4C100.7 144.8 100.3 144.2 99.8 143.9L91.1 138.8C90.9 138.6 90.5 138.6 90.3 138.8C90.2 138.9 90.1 139.1 90.2 139.3C90.2 139.9 90.6 140.5 91.1 140.8L99.8 145.9Z" fill="white"/>
<path d="M15 36.8999C18.1 38.6999 20.7 37.1999 20.7 33.5999C20.7 29.9999 18.2 25.4999 15 23.6999V20.8999C19.5 23.4999 23.1 29.8999 23.1 35.0999C23.1 40.2999 19.5 42.4999 15 39.7999" fill="white"/>
<path d="M13.7 23.0999C11.2 22.2999 9.30002 23.8999 9.30002 26.9999C9.30002 30.6999 11.8 35.0999 15 36.8999C15.4 37.1999 15.9 37.3999 16.4 37.4999C17.2 37.6999 18.2 37.8999 18.6 38.6999C19 39.6999 18.8 40.9999 17.2 40.5999C16.4 40.3999 15.7 40.0999 15 39.6999C10.5 37.0999 6.90002 30.6999 6.90002 25.4999C6.90002 20.6999 9.90002 18.5999 13.8 20.1999C14.3 20.3999 14.8 20.7999 15.1 21.1999C15.5 21.6999 15.3 23.5999 13.7 23.0999Z" fill="#CBCFD5"/>
<path d="M35.1 33.5998C39.6 36.1998 43.2 42.5998 43.2 47.7998C43.2 52.9998 39.6 55.1998 35.1 52.4998C30.6 49.7998 27 43.4998 27 38.2998C27 33.0998 30.7 30.9998 35.1 33.5998ZM35.1 49.6998C38.2 51.4998 40.8 49.9998 40.8 46.3998C40.8 42.6998 38.3 38.2998 35.1 36.4998C32 34.6998 29.4 36.1998 29.4 39.7998C29.5 43.3998 32 47.8998 35.1 49.6998Z" fill="white"/>
<path d="M34.2 35.9999C31.5 34.9999 29.5 36.4999 29.5 39.7999C29.5 43.4999 32 47.8999 35.2 49.6999C38.3 51.4999 40.9 49.9999 40.9 46.3999C40.9 45.2999 40.7 44.1999 40.3 43.1999C39.6 41.1999 41.8 41.3999 42.2 42.4999C42.9 44.1999 43.2 45.9999 43.3 47.8999C43.3 53.0999 39.7 55.2999 35.2 52.5999C30.7 49.8999 27.1 43.5999 27.1 38.3999C27.1 33.3999 30.4 31.2999 34.5 33.2999C35.7 33.8999 36.3 34.8999 36 35.3999C35.5 36.1999 35.2 36.3999 34.2 35.9999Z" fill="#CBCFD5"/>
<path d="M27.1502 224.848L62.4613 245.532L42.9027 256.93L7.55261 236.234L27.1502 224.848Z" fill="url(#paint0_linear_6624_110937)" fill-opacity="0.1"/>
<path d="M36 230C36 230 34.4 234.6 31.4 236.3C24.8 240.1 14.2 240.1 7.6 236.3C4.6 234.6 2.3 232.3 2 231V205C2.3 202.8 3.9 200.6 6.9 198.9C13.5 195.2 24.3 195.2 31 198.9C34 200.6 35.7 202.8 35.9 205H36V230Z" fill="#CBCFD5"/>
<path d="M7 198.3C13.6 194.5 24.4 194.5 31.1 198.3C37.8 202.1 37.7 208.3 31.1 212.1C24.5 215.9 13.7 215.9 7.1 212.1C0.299996 208.3 0.299996 202.1 7 198.3Z" fill="#EAEEF3"/>
<path d="M9.10005 199.7C14.6 196.7 23.4 196.7 28.9 199.7C34.4 202.7 34.4 207.6 28.9 210.6C23.4 213.6 14.6 213.6 9.10005 210.6C3.70005 207.7 3.70005 202.8 9.10005 199.7Z" fill="#1F5C3A"/>
<path d="M11.8 202.9C11.8 202.9 -0.30004 195.7 3.09996 189.4C7.19996 181.7 7.39996 183.3 3.09996 173.9C0.19996 167.5 3.89996 160.9 8.49996 158.4C16.7 153.9 12.3 160.5 10.8 166.4C9.29996 172.5 14.3 172 14.6 179.9C14.9 188.1 19 187.9 18.5 192.9C18.2 197.3 15.6 201 11.8 202.9Z" fill="#5BD682"/>
<path d="M19.7 204.3C19.7 204.3 14.6 191.2 21 188.3C29 184.7 23.2 183.2 29.5 175C34.3 168.9 39.9 170.6 41.9 165.9C44.4 160 48.4 174.9 42.6 177.3C35.6 180.3 37.7 181.9 33.5 188.6C29.3 195.3 34.4 196.8 30.9 200.6C28.2 203.8 23.9 205.2 19.7 204.3Z" fill="#35B65E"/>
<path d="M18.5 208.9C11.6 208.9 8.99997 199 11.1 189.4C13.1 180.4 20.1 180.5 20.5 172.6C21 162 37.1 182.2 29.8 187.3C22.7 192.3 32.3 196.1 28.6 200.8C26.8 203 28.1 208.9 18.5 208.9Z" fill="#31854C"/>
</g>
<g clip-path="url(#clip2_6624_110937)">
<path d="M276.555 224.048L319.292 248.991L210.423 313.373L167.528 288.321L276.555 224.048Z" fill="url(#paint1_linear_6624_110937)" fill-opacity="0.05"/>
<path d="M184 163.395L230.608 182.403L271.39 213.863L235.706 245.033L184 264.331L177.446 210.076L184 163.395Z" fill="#BABEC7"/>
<path d="M96.6096 213.863L135.207 183.859L184 163.395V264.331L130.838 244.304L96.6096 213.863Z" fill="#BABEC7"/>
<path d="M96.6096 213.863L184 163.395L271.39 213.863L280.858 217.359L292 213.863C292 210.805 289.961 207.746 285.955 205.488L198.565 155.021C194.56 152.69 189.243 151.525 184 151.525C178.757 151.525 173.44 152.69 169.435 155.021L82.0445 205.488C78.0391 207.746 76 210.805 76 213.863L86.414 216.631L96.6096 213.863Z" fill="#E9EAEC"/>
<path d="M184 268.569L162.662 180.803L229.88 138.564L256.825 136.743V226.549L184 268.569Z" fill="#347BE9"/>
<path d="M111.175 136.743V224.389L184 266.409V178.764L169.435 149.488L111.175 136.743Z" fill="#0367E4"/>
<path d="M111.175 136.743L184 94.6503L256.825 136.743L184 178.764L111.175 136.743Z" fill="#428BF0"/>
<path fill-rule="evenodd" clip-rule="evenodd" d="M148.906 182.718C149.905 183.297 150.52 184.365 150.52 185.52V217.38C150.52 219.169 149.069 220.62 147.28 220.62C145.491 220.62 144.04 219.169 144.04 217.38V191.103L141.327 192.653C139.774 193.541 137.795 193.001 136.907 191.448C136.019 189.894 136.559 187.915 138.112 187.027L145.672 182.707C146.675 182.134 147.907 182.138 148.906 182.718Z" fill="white"/>
<path d="M76 220.272C76 223.331 78.0391 226.389 82.0445 228.647L169.435 279.115C173.44 281.445 178.757 282.61 184 282.61C189.243 282.61 194.56 281.445 198.565 279.115L285.955 228.647C289.961 226.316 292 223.258 292 220.272V213.863H271.39L184 264.331L96.6096 213.863H76V220.272Z" fill="#E9EAEC"/>
<path d="M285.955 222.238L198.565 272.706C194.56 275.037 189.243 276.202 184 276.202C178.757 276.202 173.44 275.037 169.435 272.706L82.0445 222.238C78.0391 219.908 76 216.849 76 213.863V230.686C76 233.745 78.0391 236.803 82.0445 239.061L169.435 289.529C173.44 291.859 178.757 293.024 184 293.024C189.243 293.024 194.56 291.859 198.565 289.529L285.955 239.061C289.961 236.73 292 233.672 292 230.686V213.863C292 216.922 289.961 219.908 285.955 222.238Z" fill="#BABEC7"/>
<path d="M237.999 150.2C238.099 151.3 237.499 152.4 236.399 152.9C234.999 153.7 233.799 154.5 232.599 155.3C231.399 156.1 229.799 156.1 228.499 155.4C223.099 152.2 208.899 143.5 204.399 140.7C188.499 147.4 166.099 146.6 151.799 138.4C135.899 129.2 135.999 114.4 151.799 105.2C167.699 96.0004 193.399 96.0004 209.199 105.2C223.799 113.6 224.899 126.8 212.799 136L237.899 147.3V150.2H237.999Z" fill="#F9A000"/>
<path d="M237.199 148.6C235.699 149.7 233.599 151.1 232.199 152.1C231.299 152.4 230.399 152.4 229.499 152.1C223.999 148.9 209.399 139.8 204.699 136.9C188.799 143.5 166.399 142.7 152.099 134.6C136.199 125.6 136.199 110.9 152.099 101.8C167.999 92.7003 193.699 92.7003 209.499 101.8C224.099 110.1 225.199 123.2 212.999 132.3C217.699 135 230.799 142.6 236.399 145.9C238.599 147.2 238.199 147.9 237.199 148.6ZM204.199 103.9C191.099 96.4003 169.899 96.4003 156.799 103.9C143.699 111.5 143.699 123.7 156.799 131.3C169.899 138.9 191.099 138.8 204.199 131.3C217.299 123.8 217.299 111.5 204.199 103.9Z" fill="#FFD251"/>
<path d="M157.199 104.2C169.899 96.8003 190.599 96.8003 203.299 104.2C215.999 111.5 215.999 123.5 203.299 130.8C190.599 138.2 169.899 138.2 157.199 130.8C144.499 123.4 144.399 111.5 157.199 104.2Z" fill="#FBB900"/>
<path opacity="0.1" d="M203.299 105.201C190.599 97.9005 169.899 97.9005 157.199 105.201C151.299 108.601 148.099 113 147.699 117.5C147.199 112.3 150.399 107.101 157.199 103.201C169.899 95.8005 190.599 95.8005 203.299 103.201C210.099 107.101 213.299 112.4 212.799 117.5C212.399 113 209.199 108.601 203.299 105.201Z" fill="black"/>
<path d="M168.799 114.5C168.399 114.5 167.999 114.3 167.599 114.1C167.099 113.9 166.799 113.6 166.599 113.1C166.699 112.7 166.999 112.3 167.399 112.2L164.999 110.8C164.399 111.1 163.999 111.5 163.799 112.1C163.599 112.6 163.699 113.2 164.099 113.6C164.599 114.2 165.199 114.8 165.899 115.1C166.899 115.7 168.099 116.1 169.299 116.2C170.399 116.3 171.399 116.1 172.299 115.6C173.399 115 173.699 114.2 173.199 113.2C172.899 112.7 172.599 112.2 172.199 111.8C171.799 111.5 171.599 111.1 171.399 110.6C171.299 110.3 171.399 110.1 171.699 110C171.999 109.8 172.399 109.8 172.799 109.8C173.299 109.8 173.699 110 174.099 110.2C174.399 110.3 174.699 110.6 174.799 111C174.799 111.3 174.599 111.6 174.199 111.8L176.599 113.2C177.099 112.9 177.499 112.5 177.699 112C177.899 111.5 177.799 111 177.499 110.6C177.099 110 176.599 109.6 175.999 109.3C175.299 108.9 174.499 108.6 173.699 108.4C172.899 108.2 172.099 108.1 171.399 108.2C170.699 108.2 170.099 108.4 169.499 108.8C168.399 109.4 168.199 110.3 168.799 111.4C169.099 111.8 169.399 112.3 169.699 112.6C169.999 112.9 170.199 113.3 170.399 113.7C170.399 114 170.199 114.3 169.899 114.4C169.499 114.5 169.099 114.6 168.799 114.5ZM183.499 118.4L179.699 116.2L181.799 115L186.299 117.6L188.099 116.5L181.199 112.5L171.299 118.2L178.199 122.2L179.999 121.1L175.499 118.5L177.899 117.1L181.699 119.3L183.499 118.4ZM193.099 124.8C193.899 124.4 194.599 123.8 195.099 123C195.499 122.4 195.499 121.7 195.299 121.1C194.899 120.4 194.399 119.8 193.599 119.5C192.699 119 191.699 118.7 190.699 118.5C189.599 118.3 188.499 118.4 187.399 118.6C186.299 118.8 185.299 119.2 184.299 119.8L183.699 120.1C182.899 120.5 182.299 121.1 181.799 121.9C181.399 122.5 181.399 123.1 181.699 123.7C182.099 124.4 182.699 125 183.399 125.3C184.299 125.8 185.299 126.1 186.299 126.3C187.399 126.4 188.499 126.4 189.599 126.2C190.699 126 191.699 125.6 192.699 125L193.099 124.8ZM190.199 123.7C189.399 124.2 188.399 124.5 187.499 124.7C186.799 124.8 185.999 124.7 185.299 124.3C184.699 123.9 184.399 123.5 184.599 123C184.999 122.3 185.599 121.8 186.399 121.4L187.099 121C188.999 120 190.499 119.8 191.699 120.5C192.299 120.9 192.499 121.3 192.399 121.8C191.999 122.5 191.399 123.1 190.599 123.4L190.199 123.7Z" fill="white"/>
<path d="M164.225 75.6L159.404 64.2061" stroke="#FBC666" stroke-width="4" stroke-miterlimit="10" stroke-linecap="round" stroke-linejoin="round"/>
<path d="M126.975 94.4444L120.395 90.645" stroke="#FBC666" stroke-width="4" stroke-miterlimit="10" stroke-linecap="round" stroke-linejoin="round"/>
<path d="M151.927 86.4468C149.653 83.7353 145.629 87.1028 143.355 84.3913C141.081 81.6798 145.105 78.3122 142.831 75.6007C140.513 72.8454 136.489 76.213 134.215 73.5015" stroke="#FBC666" stroke-width="4" stroke-miterlimit="10" stroke-linecap="round" stroke-linejoin="round"/>
<path d="M230.616 96.7644L238.505 91.7247" stroke="#FBC666" stroke-width="4" stroke-miterlimit="10" stroke-linecap="round" stroke-linejoin="round"/>
<path d="M211.056 95.1936L210.094 88.1961L217.135 87.9774L216.173 80.9799L223.214 80.7175" stroke="#FBC666" stroke-width="4" stroke-miterlimit="10" stroke-linecap="round" stroke-linejoin="round"/>
<path d="M196.215 86.3371L200.598 75.3813" stroke="#FBC666" stroke-width="4" stroke-miterlimit="10" stroke-linecap="round" stroke-linejoin="round"/>
<path d="M183.503 81.0671C183.503 77.8308 180.004 77.8308 180.004 74.6381C180.004 71.4018 183.503 71.4018 183.503 68.2092C183.503 64.9729 180.004 64.9729 180.004 61.7803C180.004 58.5877 183.503 58.5439 183.503 55.3513" stroke="#FBC666" stroke-width="4" stroke-miterlimit="10" stroke-linecap="round" stroke-linejoin="round"/>
<path fill-rule="evenodd" clip-rule="evenodd" d="M208.663 71.0022L209.601 74.373L206.23 75.3106L205.293 71.9398L208.663 71.0022ZM189.825 74.0675L192.739 76.0036L190.803 78.9178L187.889 76.9818L189.825 74.0675ZM152.83 77.1349H156.329V80.6336H152.83V77.1349ZM163.096 86.5017L165.806 88.715L163.593 91.4247L160.883 89.2114L163.096 86.5017ZM132.735 82.299H129.236V85.7978H132.735V82.299ZM142.143 94.8299L144.331 97.5603L141.6 99.748L139.412 97.0177L142.143 94.8299ZM176.328 81.7087L174.058 79.0469L171.396 81.3176L173.667 83.9794L176.328 81.7087ZM207.602 84.1459H204.103V87.6446H207.602V84.1459ZM234.279 78.7926H237.777V82.2914H234.279V78.7926ZM225.849 91.0962L223.195 88.8157L220.915 91.469L223.568 93.7495L225.849 91.0962Z" fill="#F9A000"/>
<path d="M148.419 292.889L168.874 304.88L133.528 325.022L113.122 313.45L148.419 292.889Z" fill="url(#paint2_linear_6624_110937)" fill-opacity="0.1"/>
<path fill-rule="evenodd" clip-rule="evenodd" d="M159.142 298.77V295.274L32.084 262.35V265.777C32.1058 265.992 32.1827 266.197 32.3072 266.372C32.4317 266.547 32.5994 266.687 32.7939 266.777L35.6563 268.437L122.29 318.765C122.823 319.035 123.412 319.176 124.008 319.176C124.605 319.176 125.194 319.035 125.727 318.765L158.436 299.77C158.631 299.679 158.798 299.54 158.923 299.364C159.047 299.189 159.124 298.984 159.146 298.77" fill="#CBCFD5"/>
<path fill-rule="evenodd" clip-rule="evenodd" d="M159.142 295.342C159.12 295.128 159.043 294.923 158.919 294.748C158.794 294.572 158.627 294.433 158.432 294.342L68.9338 242.354C68.4007 242.084 67.812 241.943 67.215 241.943C66.618 241.943 66.0293 242.084 65.4963 242.354L32.7986 261.35C32.588 261.418 32.4043 261.551 32.2739 261.731C32.1435 261.91 32.0732 262.127 32.0732 262.35C32.0732 262.572 32.1435 262.789 32.2739 262.968C32.4043 263.148 32.588 263.282 32.7986 263.349L122.29 315.338C122.823 315.608 123.412 315.749 124.009 315.749C124.606 315.749 125.195 315.608 125.728 315.338L158.437 296.342C158.631 296.252 158.799 296.112 158.923 295.937C159.048 295.761 159.125 295.556 159.147 295.342" fill="#EBEDF0"/>
<path fill-rule="evenodd" clip-rule="evenodd" d="M64.2855 274.347V275.347C64.2948 275.453 64.3316 275.555 64.3924 275.643C64.4532 275.731 64.5358 275.801 64.632 275.846L102.496 297.841C102.763 297.978 103.057 298.05 103.356 298.05C103.655 298.05 103.95 297.978 104.216 297.841L107.663 295.842C107.76 295.797 107.843 295.727 107.904 295.639C107.965 295.551 108.002 295.449 108.011 295.342V294.342L64.2799 274.347H64.2855ZM59.8272 266.349H50.5144V267.348C50.5265 267.456 50.5658 267.558 50.6284 267.645C50.6911 267.733 50.775 267.803 50.8722 267.848L54.3097 269.848C54.5629 269.986 54.8465 270.058 55.1346 270.058H55.2127C55.4976 270.058 55.778 269.986 56.0277 269.848L59.4751 267.848C59.5725 267.803 59.6565 267.733 59.7192 267.646C59.7819 267.558 59.8211 267.456 59.8329 267.348V266.349H59.8272ZM66.7191 262.35H57.4007V263.349C57.4131 263.456 57.4524 263.559 57.515 263.646C57.5777 263.734 57.6615 263.803 57.7585 263.849L61.1959 265.849C61.4618 265.986 61.7563 266.057 62.055 266.057C62.3536 266.057 62.6481 265.986 62.914 265.849L66.3613 263.849C66.4584 263.803 66.5422 263.734 66.6048 263.646C66.6674 263.559 66.7068 263.456 66.7191 263.349V262.35ZM77.0429 260.35H67.723V261.35C67.7352 261.457 67.7745 261.559 67.8372 261.647C67.8998 261.734 67.9837 261.804 68.0808 261.85L71.5182 263.849C71.7722 263.987 72.0561 264.059 72.3446 264.059H72.4227C72.7081 264.059 72.9889 263.987 73.2391 263.849L76.6865 261.85C76.7837 261.804 76.8676 261.734 76.9303 261.647C76.9929 261.559 77.0322 261.457 77.0443 261.35V260.35H77.0429ZM80.4817 254.351H71.1619V255.351C71.174 255.458 71.2132 255.561 71.2759 255.648C71.3385 255.736 71.4225 255.806 71.5197 255.851L74.967 257.851C75.2168 257.989 75.4971 258.061 75.782 258.061H75.8601C76.1482 258.061 76.4318 257.989 76.6851 257.851L80.1225 255.851C80.2195 255.805 80.3033 255.735 80.366 255.648C80.4286 255.56 80.4679 255.458 80.4803 255.351V254.351H80.4817ZM87.3666 258.35H78.0467V259.35C78.0589 259.458 78.0984 259.56 78.1613 259.647C78.2242 259.735 78.3084 259.805 78.4059 259.85L81.8533 261.85C82.103 261.988 82.3834 262.06 82.6683 262.06H82.7464C83.0345 262.06 83.318 261.988 83.5713 261.85L87.0088 259.85C87.1062 259.805 87.1905 259.735 87.2534 259.647C87.3163 259.56 87.3557 259.458 87.368 259.35V258.35H87.3666ZM94.2329 262.35H84.9117V263.349C84.924 263.456 84.9634 263.559 85.026 263.646C85.0886 263.734 85.1724 263.803 85.2695 263.849L88.7069 265.849C88.9602 265.987 89.2438 266.059 89.5318 266.059H89.6C89.8917 266.059 90.1789 265.987 90.4363 265.849L93.8737 263.849C93.9708 263.804 94.0547 263.734 94.1173 263.646C94.18 263.559 94.2193 263.456 94.2315 263.349V262.35H94.2329ZM101.189 266.349H91.8675V267.348C91.8797 267.456 91.919 267.558 91.9817 267.645C92.0443 267.733 92.1282 267.803 92.2253 267.848L95.6627 269.848C95.916 269.986 96.1996 270.058 96.4877 270.058H96.5658C96.8507 270.058 97.1311 269.986 97.3807 269.848L100.83 267.848C100.927 267.803 101.011 267.733 101.074 267.646C101.136 267.558 101.175 267.456 101.187 267.348V266.349H101.189ZM97.6889 272.347H88.369V273.347C88.3815 273.454 88.4209 273.556 88.4835 273.644C88.5461 273.731 88.6298 273.801 88.7268 273.847L92.1742 275.846C92.4239 275.984 92.7043 276.057 92.9892 276.056H93.0715C93.3601 276.057 93.6441 275.985 93.8979 275.846L97.3339 273.847C97.4325 273.803 97.5178 273.734 97.5807 273.646C97.6436 273.558 97.682 273.455 97.6917 273.347V272.347H97.6889ZM104.578 276.346H95.2552V277.346C95.2675 277.453 95.3068 277.555 95.3694 277.643C95.432 277.73 95.5159 277.8 95.613 277.846L99.0618 279.846C99.3119 279.982 99.5921 280.054 99.8768 280.054H99.9535C100.242 280.054 100.526 279.983 100.78 279.846L104.217 277.846C104.314 277.8 104.398 277.73 104.461 277.643C104.524 277.555 104.563 277.453 104.575 277.346V276.346H104.578ZM108.013 270.348H98.7026V271.348C98.7128 271.455 98.7514 271.559 98.8146 271.647C98.8778 271.735 98.9631 271.804 99.0618 271.847L102.498 273.847C102.764 273.985 103.058 274.057 103.358 274.057C103.657 274.057 103.951 273.985 104.217 273.847L107.665 271.847C107.761 271.802 107.844 271.732 107.905 271.644C107.966 271.557 108.003 271.454 108.013 271.348V270.348ZM114.899 274.347H105.579V275.347C105.591 275.454 105.63 275.556 105.692 275.644C105.755 275.732 105.839 275.801 105.937 275.846L109.384 277.846C109.65 277.983 109.945 278.054 110.244 278.054C110.543 278.054 110.837 277.983 111.104 277.846L114.54 275.846C114.638 275.802 114.723 275.733 114.786 275.645C114.849 275.557 114.888 275.454 114.899 275.347V274.347ZM101.187 282.345H91.8675V283.345C91.8798 283.452 91.9192 283.554 91.9818 283.641C92.0444 283.729 92.1283 283.799 92.2253 283.845L95.6627 285.844C95.9161 285.982 96.1996 286.054 96.4877 286.054H96.5658C96.8507 286.055 97.1311 285.982 97.3807 285.844L100.83 283.845C100.927 283.799 101.011 283.729 101.073 283.642C101.136 283.554 101.175 283.452 101.187 283.345V282.345ZM111.46 280.345H102.141V281.345C102.153 281.452 102.192 281.555 102.255 281.642C102.317 281.73 102.401 281.8 102.498 281.845L105.937 283.845C106.204 283.983 106.5 284.055 106.801 284.055C107.101 284.055 107.397 283.983 107.665 283.845L111.104 281.845C111.201 281.8 111.284 281.73 111.347 281.642C111.409 281.555 111.448 281.452 111.46 281.345V280.345ZM108.013 286.344H98.7026V287.344C98.7132 287.452 98.752 287.555 98.8151 287.643C98.8782 287.73 98.9634 287.8 99.0618 287.844L102.498 289.843C102.763 289.982 103.058 290.055 103.358 290.055C103.657 290.055 103.952 289.982 104.217 289.843L107.665 287.844C107.761 287.798 107.844 287.728 107.905 287.641C107.966 287.553 108.003 287.451 108.013 287.344V286.344ZM114.899 290.343H105.579V291.343C105.591 291.45 105.63 291.553 105.692 291.64C105.755 291.728 105.839 291.798 105.937 291.843L109.384 293.842C109.65 293.98 109.945 294.052 110.244 294.052C110.543 294.052 110.838 293.98 111.104 293.842L114.54 291.843C114.638 291.799 114.723 291.73 114.786 291.642C114.849 291.554 114.888 291.451 114.899 291.343V290.343ZM118.346 284.345H109.026V285.344C109.038 285.452 109.078 285.554 109.14 285.641C109.203 285.729 109.287 285.799 109.384 285.844L112.822 287.844C113.075 287.982 113.358 288.054 113.647 288.054H113.725C114.01 288.054 114.29 287.982 114.54 287.844L117.988 285.844C118.086 285.799 118.17 285.729 118.232 285.641C118.295 285.554 118.334 285.452 118.346 285.344V284.345ZM121.784 278.346H112.464V279.346C112.477 279.453 112.516 279.555 112.579 279.642C112.641 279.729 112.725 279.799 112.822 279.846L116.27 281.845C116.52 281.984 116.8 282.057 117.085 282.057H117.163C117.452 282.056 117.735 281.984 117.988 281.845L121.426 279.846C121.523 279.8 121.607 279.73 121.669 279.642C121.732 279.555 121.771 279.453 121.784 279.346V278.346ZM128.669 282.345H119.35V283.345C119.362 283.452 119.401 283.554 119.463 283.641C119.526 283.729 119.609 283.799 119.706 283.845L123.145 285.844C123.413 285.982 123.709 286.054 124.01 286.054C124.311 286.054 124.607 285.982 124.875 285.844L128.312 283.845C128.409 283.799 128.493 283.729 128.555 283.641C128.617 283.554 128.657 283.452 128.669 283.345V282.345ZM125.232 288.344H115.913V289.343C115.922 289.451 115.96 289.555 116.023 289.643C116.086 289.731 116.172 289.8 116.27 289.843L119.706 291.843C119.973 291.98 120.267 292.051 120.566 292.051C120.865 292.051 121.16 291.98 121.426 291.843L124.875 289.843C124.972 289.798 125.056 289.728 125.118 289.64C125.181 289.553 125.22 289.451 125.232 289.343V288.344ZM135.555 286.344H126.235V287.344C126.247 287.451 126.286 287.553 126.349 287.641C126.412 287.728 126.496 287.798 126.593 287.844L130.03 289.843C130.283 289.982 130.567 290.055 130.855 290.055H130.933C131.219 290.055 131.5 289.983 131.75 289.843L135.197 287.844C135.294 287.799 135.379 287.729 135.441 287.641C135.504 287.554 135.543 287.451 135.555 287.344V286.344ZM132.107 292.343H122.797V293.342C122.806 293.449 122.843 293.552 122.904 293.64C122.965 293.727 123.049 293.797 123.145 293.842L126.593 295.842C126.859 295.98 127.153 296.052 127.452 296.052C127.752 296.052 128.046 295.98 128.312 295.842L131.75 293.842C131.848 293.798 131.933 293.729 131.996 293.641C132.059 293.553 132.097 293.45 132.107 293.342V292.343ZM142.441 290.343H133.121V291.343C133.133 291.45 133.172 291.553 133.235 291.64C133.297 291.728 133.382 291.798 133.479 291.843L136.916 293.842C137.182 293.98 137.477 294.052 137.775 294.052C138.074 294.052 138.369 293.98 138.634 293.842L142.083 291.843C142.18 291.797 142.264 291.727 142.327 291.64C142.389 291.552 142.429 291.45 142.441 291.343V290.343ZM149.316 294.342H140.006V295.342C140.015 295.449 140.052 295.551 140.113 295.639C140.174 295.727 140.257 295.797 140.354 295.842L143.801 297.841C144.067 297.978 144.362 298.05 144.66 298.05C144.959 298.05 145.253 297.978 145.519 297.841L148.958 295.842C149.056 295.798 149.141 295.728 149.204 295.641C149.267 295.553 149.306 295.45 149.316 295.342V294.342ZM128.669 298.341H119.35V299.341C119.362 299.448 119.4 299.551 119.463 299.638C119.525 299.726 119.609 299.796 119.706 299.841L123.145 301.841C123.403 301.978 123.69 302.049 123.982 302.049H124.048C124.337 302.049 124.621 301.978 124.875 301.841L128.312 299.841C128.409 299.796 128.493 299.726 128.556 299.638C128.618 299.551 128.657 299.448 128.669 299.341V298.341ZM121.784 302.34H112.464V303.34C112.476 303.447 112.515 303.55 112.578 303.637C112.64 303.725 112.724 303.795 112.822 303.84L116.27 305.84C116.52 305.977 116.801 306.049 117.085 306.05H117.163C117.451 306.049 117.735 305.977 117.988 305.84L121.426 303.84C121.523 303.795 121.607 303.725 121.67 303.637C121.733 303.55 121.772 303.447 121.784 303.34V302.34ZM128.669 306.34H119.35V307.339C119.362 307.446 119.401 307.548 119.463 307.636C119.526 307.723 119.609 307.793 119.706 307.839L123.145 309.839C123.403 309.977 123.69 310.049 123.982 310.049H124.048C124.337 310.049 124.621 309.977 124.875 309.839L128.312 307.839C128.409 307.793 128.493 307.723 128.555 307.636C128.617 307.548 128.657 307.446 128.669 307.339V306.34ZM121.784 294.342H112.464V295.342C112.476 295.449 112.516 295.551 112.578 295.639C112.641 295.726 112.725 295.796 112.822 295.842L116.27 297.841C116.52 297.979 116.801 298.051 117.085 298.051H117.163C117.451 298.051 117.735 297.979 117.988 297.841L121.426 295.842C121.523 295.796 121.607 295.726 121.669 295.639C121.732 295.551 121.771 295.449 121.784 295.342V294.342ZM114.899 298.341H105.579V299.341C105.591 299.448 105.63 299.551 105.692 299.639C105.755 299.726 105.839 299.796 105.937 299.841L109.384 301.841C109.65 301.978 109.945 302.049 110.244 302.049C110.543 302.049 110.837 301.978 111.104 301.841L114.54 299.841C114.638 299.797 114.724 299.728 114.787 299.64C114.85 299.552 114.889 299.449 114.899 299.341V298.341ZM94.2315 278.346H84.9117V279.346C84.9243 279.453 84.9637 279.555 85.0263 279.642C85.0889 279.73 85.1726 279.8 85.2695 279.846L88.7069 281.845C88.9748 281.982 89.271 282.054 89.5716 282.054C89.8721 282.054 90.1684 281.982 90.4363 281.845L93.8737 279.846C93.9708 279.8 94.0546 279.73 94.1172 279.642C94.1798 279.555 94.2192 279.453 94.2315 279.346V278.346ZM90.804 268.348H81.4941V269.348C81.5045 269.455 81.5431 269.558 81.606 269.646C81.6688 269.733 81.7537 269.803 81.8519 269.846L85.2893 271.846C85.555 271.984 85.8495 272.056 86.1483 272.056C86.4472 272.056 86.7417 271.984 87.0073 271.846L90.4547 269.846C90.5506 269.801 90.6329 269.731 90.6935 269.644C90.754 269.556 90.7907 269.454 90.7998 269.348V268.348H90.804ZM83.9234 264.349H74.6135V265.349C74.6256 265.456 74.6649 265.558 74.7275 265.646C74.7902 265.733 74.8741 265.803 74.9713 265.849L78.4102 267.848C78.6634 267.986 78.947 268.059 79.2351 268.058H79.3132C79.5981 268.059 79.8785 267.986 80.1282 267.848L83.5756 265.849C83.6726 265.803 83.7564 265.733 83.819 265.646C83.8817 265.558 83.921 265.456 83.9334 265.349V264.349H83.9234ZM80.486 270.348H71.1619V271.348C71.1737 271.455 71.2128 271.557 71.2755 271.645C71.3382 271.732 71.4223 271.802 71.5197 271.847L74.967 273.847C75.217 273.984 75.4972 274.057 75.782 274.057H75.8601C76.1481 274.056 76.4315 273.984 76.6851 273.847L80.1225 271.847C80.2197 271.802 80.3037 271.732 80.3663 271.644C80.429 271.557 80.4682 271.455 80.4803 271.348V270.348H80.486ZM73.5955 266.349H64.2855V267.348C64.2945 267.455 64.3312 267.557 64.3921 267.645C64.4529 267.733 64.5356 267.803 64.632 267.848L68.0808 269.848C68.3464 269.986 68.6409 270.058 68.9398 270.058C69.2387 270.058 69.5332 269.986 69.7988 269.848L73.2362 267.848C73.3345 267.804 73.4194 267.735 73.4823 267.647C73.5452 267.559 73.5837 267.456 73.594 267.348V266.349H73.5955ZM66.7177 270.348H57.4007V271.348C57.4129 271.455 57.4522 271.557 57.5149 271.644C57.5775 271.732 57.6614 271.802 57.7585 271.847L61.1959 273.847C61.4616 273.985 61.7561 274.057 62.055 274.057C62.3538 274.057 62.6483 273.985 62.914 273.847L66.3613 271.847C66.4585 271.802 66.5423 271.732 66.605 271.644C66.6676 271.557 66.7069 271.455 66.7191 271.348V270.348H66.7177ZM41.9102 261.35V262.35C41.9223 262.457 41.9615 262.559 42.0242 262.647C42.0868 262.734 42.1708 262.804 42.268 262.849L47.4248 265.849C47.6925 265.986 47.9885 266.057 48.2888 266.057C48.5891 266.057 48.8852 265.986 49.1528 265.849L52.5917 263.849C52.6885 263.803 52.7721 263.733 52.8345 263.646C52.8969 263.558 52.936 263.456 52.9481 263.349V262.35L41.9102 261.35ZM48.795 257.351V258.35C48.8052 258.458 48.8437 258.561 48.9065 258.649C48.9694 258.737 49.0544 258.807 49.1528 258.85L54.3097 261.85C54.5629 261.988 54.8465 262.06 55.1346 262.06H55.2127C55.4976 262.06 55.778 261.988 56.0277 261.85L59.4751 259.85C59.5725 259.805 59.6565 259.735 59.7192 259.647C59.7819 259.56 59.8211 259.458 59.8329 259.35V258.35L48.795 257.351ZM129.671 296.342V297.342C129.683 297.449 129.723 297.551 129.785 297.638C129.848 297.726 129.932 297.796 130.029 297.841L132.601 299.34L126.224 302.339V303.34C126.236 303.447 126.275 303.55 126.338 303.637C126.4 303.725 126.484 303.795 126.581 303.84L130.019 305.84C130.272 305.977 130.556 306.049 130.844 306.05H130.922C131.207 306.049 131.488 305.977 131.738 305.84L142.072 299.841C142.171 299.797 142.257 299.728 142.321 299.64C142.386 299.552 142.427 299.449 142.44 299.341V298.341L129.671 296.342ZM55.6813 253.352V254.351C55.6906 254.458 55.7277 254.56 55.7888 254.648C55.8498 254.736 55.9327 254.806 56.0291 254.851L64.6334 259.85C64.8908 259.988 65.178 260.06 65.4697 260.06H65.5378C65.8259 260.06 66.1094 259.988 66.3628 259.85L69.8002 257.851C69.8973 257.805 69.9812 257.735 70.0438 257.648C70.1065 257.56 70.1458 257.458 70.158 257.351V256.351L55.6756 253.352H55.6813ZM62.5505 249.353V250.352C62.5628 250.459 62.6022 250.562 62.6648 250.649C62.7274 250.737 62.8112 250.806 62.9083 250.852L68.0751 253.852C68.341 253.989 68.6354 254.06 68.9341 254.06C69.2328 254.06 69.5273 253.989 69.7931 253.852L73.2306 251.852C73.3289 251.808 73.4138 251.739 73.4766 251.651C73.5395 251.563 73.5781 251.46 73.5884 251.352V250.352L62.5491 249.353H62.5505ZM78.3974 273.847C78.2988 273.891 78.2136 273.96 78.1505 274.048C78.0874 274.136 78.0486 274.239 78.0382 274.347C78.0505 274.454 78.0901 274.556 78.153 274.644C78.2159 274.731 78.3 274.801 78.3974 274.847L81.8448 276.846C82.1056 276.99 82.3994 277.062 82.6967 277.055C82.9981 277.062 83.2962 276.99 83.5614 276.846L86.9988 274.847C87.096 274.801 87.18 274.731 87.2426 274.644C87.3053 274.556 87.3445 274.454 87.3566 274.347C87.3466 274.239 87.3082 274.136 87.2453 274.048C87.1824 273.96 87.0973 273.891 86.9988 273.847L83.5614 271.847C83.2996 271.703 83.0051 271.629 82.7066 271.633C82.4093 271.627 82.1154 271.699 81.8547 271.843L78.3974 273.847Z" fill="#CBCFD5"/>
<path fill-rule="evenodd" clip-rule="evenodd" d="M112.822 301.84C112.723 301.884 112.639 301.953 112.576 302.041C112.513 302.129 112.474 302.231 112.464 302.339C112.476 302.446 112.515 302.548 112.578 302.636C112.641 302.723 112.724 302.793 112.822 302.839L116.27 304.838C116.531 304.982 116.825 305.055 117.122 305.05C117.424 305.055 117.722 304.982 117.987 304.838L121.424 302.839C121.522 302.793 121.606 302.723 121.668 302.636C121.731 302.548 121.77 302.446 121.782 302.339C121.772 302.231 121.734 302.128 121.671 302.041C121.608 301.953 121.523 301.884 121.424 301.84L117.987 299.841C117.721 299.698 117.424 299.626 117.122 299.632C116.825 299.626 116.531 299.698 116.27 299.841L112.822 301.84ZM105.937 297.841C105.838 297.885 105.753 297.955 105.69 298.042C105.628 298.13 105.589 298.233 105.579 298.341C105.591 298.448 105.63 298.551 105.692 298.638C105.755 298.726 105.839 298.796 105.937 298.841L109.384 300.841C109.65 300.978 109.945 301.049 110.244 301.049C110.543 301.049 110.838 300.978 111.104 300.841L114.54 298.841C114.638 298.797 114.723 298.727 114.786 298.64C114.849 298.552 114.888 298.449 114.899 298.341C114.891 298.233 114.853 298.128 114.789 298.04C114.726 297.952 114.639 297.883 114.54 297.841L111.104 295.842C110.838 295.704 110.543 295.632 110.244 295.632C109.945 295.632 109.65 295.704 109.384 295.842L105.937 297.841ZM64.632 273.847C64.5352 273.892 64.452 273.961 64.3911 274.049C64.3302 274.137 64.2938 274.24 64.2855 274.347C64.2948 274.453 64.3316 274.555 64.3924 274.643C64.4532 274.731 64.5358 274.801 64.632 274.847L102.496 296.842C102.763 296.979 103.057 297.05 103.356 297.05C103.655 297.05 103.95 296.979 104.216 296.842L107.663 294.842C107.76 294.797 107.843 294.727 107.904 294.639C107.965 294.551 108.002 294.449 108.011 294.342C108.003 294.235 107.966 294.132 107.905 294.044C107.844 293.957 107.76 293.887 107.663 293.842L69.7988 271.847C69.533 271.71 69.2385 271.638 68.9398 271.638C68.641 271.638 68.3466 271.71 68.0808 271.847L64.632 273.847ZM57.7571 269.848C57.6587 269.892 57.5737 269.961 57.5108 270.049C57.4479 270.137 57.4094 270.24 57.3993 270.348C57.4115 270.455 57.4508 270.557 57.5134 270.644C57.5761 270.732 57.66 270.802 57.7571 270.847L61.1945 272.847C61.4601 272.985 61.7547 273.057 62.0535 273.057C62.3524 273.057 62.6469 272.985 62.9125 272.847L66.3599 270.847C66.457 270.802 66.5409 270.732 66.6035 270.644C66.6662 270.557 66.7055 270.455 66.7177 270.348C66.7076 270.24 66.6691 270.137 66.6062 270.049C66.5433 269.961 66.4583 269.892 66.3599 269.848L62.9125 267.848C62.6469 267.71 62.3524 267.638 62.0535 267.638C61.7547 267.638 61.4601 267.71 61.1945 267.848L57.7571 269.848ZM50.8722 265.849C50.7737 265.892 50.6885 265.962 50.6256 266.05C50.5627 266.137 50.5243 266.241 50.5144 266.349C50.5265 266.456 50.5658 266.558 50.6284 266.645C50.6911 266.732 50.7751 266.802 50.8722 266.847L54.3097 268.847C54.5748 268.991 54.8729 269.063 55.1744 269.056C55.4717 269.062 55.7654 268.99 56.0263 268.847L59.4737 266.847C59.5709 266.802 59.655 266.732 59.7176 266.645C59.7803 266.558 59.8195 266.456 59.8315 266.349C59.8217 266.241 59.7834 266.137 59.7205 266.049C59.6575 265.961 59.5723 265.892 59.4737 265.849L56.0263 263.849C55.7654 263.706 55.4717 263.633 55.1744 263.639C54.8729 263.632 54.5748 263.705 54.3097 263.849L50.8722 265.849ZM42.268 260.85C42.1696 260.894 42.0846 260.963 42.0217 261.051C41.9588 261.139 41.9203 261.242 41.9102 261.35C41.9223 261.457 41.9615 261.559 42.0242 261.647C42.0868 261.734 42.1708 261.804 42.268 261.85L47.4248 264.849C47.6924 264.986 47.9885 265.058 48.2888 265.058C48.5892 265.058 48.8852 264.986 49.1528 264.849L52.5917 262.849C52.6885 262.803 52.7721 262.733 52.8345 262.646C52.8969 262.558 52.936 262.456 52.9481 262.349C52.938 262.242 52.8997 262.139 52.8371 262.051C52.7745 261.963 52.6898 261.894 52.5917 261.85L47.4248 258.85C47.164 258.707 46.8703 258.634 46.5729 258.64C46.2715 258.633 45.9734 258.706 45.7083 258.85L42.268 260.85ZM119.687 297.841C119.588 297.885 119.503 297.955 119.44 298.042C119.377 298.13 119.339 298.233 119.329 298.341C119.341 298.448 119.38 298.551 119.443 298.638C119.506 298.726 119.589 298.795 119.687 298.841L123.125 300.841C123.391 300.983 123.689 301.055 123.99 301.051C124.291 301.057 124.589 300.985 124.853 300.841L128.292 298.841C128.389 298.795 128.473 298.726 128.536 298.638C128.599 298.551 128.638 298.448 128.65 298.341C128.64 298.233 128.601 298.13 128.538 298.042C128.476 297.955 128.391 297.885 128.292 297.841L124.853 295.842C124.589 295.697 124.291 295.625 123.99 295.632C123.689 295.627 123.391 295.699 123.125 295.842L119.687 297.841ZM112.822 293.842C112.723 293.886 112.638 293.956 112.576 294.044C112.513 294.131 112.474 294.234 112.464 294.342C112.476 294.449 112.516 294.551 112.578 294.639C112.641 294.726 112.725 294.796 112.822 294.842L116.27 296.842C116.531 296.986 116.825 297.058 117.122 297.051C117.424 297.058 117.722 296.986 117.987 296.842L121.424 294.842C121.522 294.796 121.605 294.726 121.668 294.639C121.731 294.551 121.77 294.449 121.782 294.342C121.772 294.234 121.734 294.131 121.671 294.043C121.608 293.955 121.523 293.886 121.424 293.842L117.987 291.843C117.722 291.699 117.424 291.627 117.122 291.634C116.825 291.627 116.531 291.699 116.27 291.843L112.822 293.842ZM105.937 289.843C105.839 289.888 105.754 289.957 105.691 290.045C105.628 290.133 105.589 290.237 105.579 290.344C105.591 290.452 105.63 290.554 105.692 290.642C105.755 290.729 105.839 290.799 105.937 290.844L109.384 292.844C109.65 292.981 109.945 293.053 110.244 293.053C110.543 293.053 110.838 292.981 111.104 292.844L114.54 290.844C114.638 290.8 114.723 290.731 114.786 290.643C114.849 290.555 114.888 290.452 114.899 290.344C114.89 290.236 114.852 290.132 114.789 290.043C114.726 289.955 114.639 289.886 114.54 289.843L111.104 287.844C110.838 287.706 110.543 287.634 110.244 287.634C109.945 287.634 109.65 287.706 109.384 287.844L105.937 289.843ZM99.0618 285.844C98.9619 285.886 98.8755 285.955 98.8121 286.043C98.7487 286.131 98.7108 286.235 98.7026 286.344C98.7129 286.452 98.7516 286.555 98.8148 286.643C98.8779 286.731 98.9632 286.8 99.0618 286.844L102.498 288.843C102.764 288.981 103.058 289.053 103.358 289.053C103.657 289.053 103.951 288.981 104.217 288.843L107.665 286.844C107.761 286.798 107.844 286.728 107.905 286.641C107.966 286.553 108.003 286.451 108.013 286.344C108.005 286.237 107.969 286.134 107.907 286.046C107.846 285.958 107.762 285.888 107.665 285.844L104.217 283.845C103.951 283.707 103.657 283.635 103.358 283.635C103.058 283.635 102.764 283.707 102.498 283.845L99.0618 285.844ZM92.1756 281.845C92.0771 281.889 91.9921 281.958 91.9292 282.046C91.8663 282.134 91.8278 282.237 91.8178 282.345C91.8299 282.452 91.8691 282.554 91.9318 282.642C91.9944 282.729 92.0784 282.799 92.1756 282.845L95.613 284.844C95.8785 284.988 96.1763 285.06 96.4777 285.054C96.775 285.06 97.0687 284.988 97.3296 284.844L100.778 282.845C100.875 282.799 100.959 282.729 101.022 282.641C101.084 282.554 101.124 282.452 101.136 282.345C101.126 282.237 101.087 282.134 101.025 282.046C100.962 281.958 100.877 281.889 100.778 281.845L97.3296 279.845C97.0694 279.7 96.7753 279.627 96.4777 279.634C96.1761 279.627 95.8779 279.7 95.613 279.845L92.1756 281.845ZM85.2907 277.846C85.1924 277.889 85.1074 277.959 85.0445 278.046C84.9816 278.134 84.9431 278.237 84.9329 278.344C84.945 278.452 84.9841 278.554 85.0468 278.642C85.1094 278.73 85.1934 278.8 85.2907 278.846L88.7282 280.845C88.9958 280.983 89.2922 281.055 89.5929 281.055C89.8936 281.055 90.19 280.983 90.4576 280.845L93.895 278.846C93.9924 278.8 94.0765 278.73 94.1391 278.642C94.2018 278.554 94.241 278.452 94.2528 278.344C94.2427 278.237 94.2042 278.134 94.1413 278.046C94.0784 277.959 93.9934 277.889 93.895 277.846L90.4576 275.846C90.19 275.708 89.8936 275.636 89.5929 275.636C89.2922 275.636 88.9958 275.708 88.7282 275.846L85.2907 277.846ZM78.4059 273.847C78.3074 273.891 78.2221 273.96 78.159 274.048C78.0959 274.136 78.0571 274.239 78.0467 274.347C78.0591 274.454 78.0986 274.556 78.1615 274.644C78.2244 274.731 78.3085 274.801 78.4059 274.847L81.8533 276.846C82.1141 276.99 82.408 277.062 82.7052 277.055C83.0066 277.062 83.3047 276.99 83.5699 276.846L87.0073 274.847C87.1045 274.801 87.1885 274.731 87.2511 274.644C87.3138 274.556 87.353 274.454 87.3651 274.347C87.3551 274.239 87.3167 274.136 87.2538 274.048C87.1909 273.96 87.1058 273.891 87.0073 273.847L83.5699 271.847C83.3056 271.701 83.008 271.628 82.7066 271.633C82.4093 271.627 82.1154 271.699 81.8547 271.843L78.4059 273.847ZM71.5197 269.848C71.4212 269.891 71.3361 269.961 71.2732 270.049C71.2103 270.137 71.1719 270.24 71.1619 270.348C71.1737 270.455 71.2128 270.557 71.2755 270.645C71.3382 270.732 71.4223 270.802 71.5197 270.847L74.967 272.847C75.2278 272.991 75.5216 273.063 75.819 273.057C76.1204 273.064 76.4185 272.992 76.6836 272.847L80.1211 270.847C80.2183 270.802 80.3022 270.732 80.3649 270.645C80.4275 270.557 80.4668 270.455 80.4789 270.348C80.4686 270.24 80.43 270.137 80.3672 270.049C80.3043 269.961 80.2194 269.892 80.1211 269.848L76.6836 267.848C76.4198 267.703 76.1227 267.629 75.8218 267.634C75.5244 267.627 75.2306 267.7 74.9699 267.844L71.5197 269.848ZM64.6334 265.849C64.5366 265.893 64.4535 265.963 64.3926 266.051C64.3316 266.139 64.2952 266.242 64.2869 266.349C64.296 266.455 64.3328 266.557 64.3936 266.645C64.4545 266.732 64.5372 266.802 64.6334 266.847L68.0822 268.847C68.3478 268.984 68.6423 269.056 68.9412 269.056C69.2401 269.056 69.5346 268.984 69.8002 268.847L73.2377 266.847C73.336 266.803 73.421 266.734 73.4839 266.647C73.5468 266.559 73.5853 266.456 73.5955 266.349C73.5874 266.24 73.5497 266.136 73.4866 266.048C73.4235 265.96 73.3373 265.891 73.2377 265.849L69.8002 263.849C69.5346 263.711 69.2401 263.639 68.9412 263.639C68.6423 263.639 68.3478 263.711 68.0822 263.849L64.6334 265.849ZM57.7585 261.85C57.6601 261.893 57.5751 261.963 57.5122 262.051C57.4494 262.139 57.4109 262.242 57.4007 262.349C57.4131 262.457 57.4524 262.559 57.515 262.646C57.5777 262.734 57.6615 262.804 57.7585 262.849L61.1959 264.849C61.4618 264.986 61.7562 265.057 62.055 265.057C62.3537 265.057 62.6481 264.986 62.914 264.849L66.3613 262.849C66.4584 262.804 66.5422 262.734 66.6048 262.646C66.6674 262.559 66.7068 262.457 66.7191 262.349C66.709 262.242 66.6705 262.139 66.6076 262.051C66.5447 261.963 66.4597 261.893 66.3613 261.85L62.914 259.85C62.6481 259.713 62.3537 259.641 62.055 259.641C61.7562 259.641 61.4618 259.713 61.1959 259.85L57.7585 261.85ZM49.1443 256.851C49.0449 256.893 48.959 256.962 48.896 257.05C48.8329 257.138 48.795 257.242 48.7865 257.351C48.7966 257.458 48.8352 257.561 48.898 257.649C48.9609 257.737 49.0459 257.807 49.1443 257.85L54.3012 260.85C54.5663 260.994 54.8644 261.067 55.1658 261.06C55.4632 261.066 55.7571 260.994 56.0178 260.85L59.4651 258.85C59.5623 258.805 59.6463 258.735 59.7089 258.647C59.7716 258.56 59.8109 258.458 59.823 258.35C59.8128 258.243 59.7743 258.139 59.7114 258.052C59.6485 257.964 59.5635 257.894 59.4651 257.85L54.2983 254.851C54.0327 254.713 53.7382 254.641 53.4393 254.641C53.1405 254.641 52.8459 254.713 52.5803 254.851L49.1443 256.851ZM123.145 291.843C123.048 291.887 122.964 291.957 122.903 292.045C122.842 292.133 122.806 292.236 122.797 292.343C122.806 292.449 122.843 292.552 122.904 292.64C122.965 292.727 123.049 292.797 123.145 292.842L126.593 294.842C126.859 294.98 127.153 295.052 127.452 295.052C127.752 295.052 128.046 294.98 128.312 294.842L131.75 292.842C131.848 292.798 131.933 292.729 131.996 292.641C132.059 292.553 132.097 292.45 132.107 292.343C132.099 292.234 132.061 292.13 131.998 292.042C131.935 291.954 131.849 291.885 131.75 291.843L128.312 289.843C128.046 289.706 127.751 289.634 127.452 289.634C127.153 289.634 126.859 289.706 126.593 289.843L123.145 291.843ZM142.441 298.341C142.431 298.234 142.392 298.131 142.329 298.043C142.266 297.955 142.181 297.885 142.083 297.841L135.197 293.842C134.932 293.699 134.635 293.626 134.334 293.632C134.036 293.626 133.743 293.699 133.482 293.842L130.033 295.842C129.935 295.886 129.85 295.955 129.787 296.043C129.724 296.131 129.685 296.234 129.675 296.342C129.688 296.449 129.727 296.551 129.79 296.638C129.852 296.726 129.936 296.796 130.033 296.842L132.606 298.341L126.642 301.842C126.544 301.885 126.459 301.954 126.396 302.042C126.333 302.13 126.295 302.233 126.285 302.34C126.297 302.447 126.336 302.55 126.398 302.637C126.461 302.725 126.545 302.795 126.642 302.84L130.08 304.84C130.345 304.984 130.643 305.057 130.945 305.051C131.242 305.056 131.535 304.983 131.796 304.84L142.129 298.841C142.217 298.79 142.292 298.717 142.346 298.63C142.401 298.543 142.433 298.444 142.441 298.341ZM116.27 287.844C116.171 287.885 116.084 287.954 116.021 288.042C115.958 288.13 115.92 288.234 115.913 288.342C115.922 288.45 115.96 288.553 116.023 288.641C116.086 288.729 116.172 288.799 116.27 288.842L119.706 290.841C119.972 290.979 120.267 291.05 120.566 291.05C120.865 291.05 121.16 290.979 121.426 290.841L124.875 288.842C124.972 288.796 125.056 288.727 125.118 288.639C125.181 288.551 125.22 288.449 125.232 288.342C125.222 288.235 125.183 288.132 125.12 288.044C125.058 287.957 124.973 287.887 124.875 287.844L121.426 285.844C121.16 285.706 120.865 285.634 120.566 285.634C120.267 285.634 119.972 285.706 119.706 285.844L116.27 287.844ZM109.384 283.845C109.286 283.889 109.201 283.958 109.138 284.046C109.075 284.134 109.037 284.237 109.026 284.344C109.039 284.451 109.078 284.554 109.141 284.641C109.203 284.729 109.287 284.799 109.384 284.844L112.822 286.844C113.087 286.988 113.385 287.061 113.686 287.054C113.984 287.061 114.278 286.988 114.538 286.844L117.987 284.844C118.084 284.799 118.168 284.729 118.23 284.641C118.293 284.554 118.332 284.451 118.345 284.344C118.335 284.237 118.296 284.133 118.233 284.046C118.171 283.958 118.085 283.888 117.987 283.845L114.538 281.845C114.277 281.701 113.984 281.629 113.686 281.635C113.385 281.629 113.087 281.701 112.822 281.845L109.384 283.845ZM102.498 279.845C102.4 279.889 102.315 279.958 102.252 280.046C102.189 280.133 102.151 280.236 102.141 280.344C102.153 280.451 102.192 280.553 102.254 280.641C102.317 280.729 102.401 280.798 102.498 280.844L105.937 282.843C106.204 282.981 106.5 283.053 106.801 283.053C107.101 283.053 107.397 282.981 107.665 282.843L111.104 280.844C111.201 280.798 111.285 280.729 111.347 280.641C111.41 280.553 111.448 280.451 111.46 280.344C111.45 280.236 111.412 280.133 111.35 280.046C111.287 279.958 111.202 279.889 111.104 279.845L107.665 277.846C107.397 277.708 107.101 277.636 106.801 277.636C106.5 277.636 106.204 277.708 105.937 277.846L102.498 279.845ZM95.613 275.846C95.5146 275.89 95.4295 275.959 95.3666 276.047C95.3037 276.135 95.2653 276.238 95.2552 276.346C95.2675 276.453 95.3068 276.556 95.3694 276.643C95.432 276.731 95.5159 276.8 95.613 276.846L99.0618 278.846C99.3224 278.99 99.6163 279.062 99.9138 279.056C100.215 279.062 100.513 278.99 100.778 278.846L104.216 276.846C104.313 276.8 104.397 276.731 104.46 276.643C104.522 276.556 104.561 276.453 104.574 276.346C104.564 276.238 104.525 276.135 104.462 276.047C104.399 275.959 104.314 275.89 104.216 275.846L100.778 273.847C100.513 273.702 100.215 273.63 99.9138 273.637C99.6163 273.63 99.3224 273.702 99.0618 273.847L95.613 275.846ZM88.7268 271.847C88.6285 271.891 88.5436 271.961 88.4807 272.049C88.4179 272.136 88.3793 272.239 88.369 272.347C88.3815 272.454 88.4209 272.556 88.4835 272.644C88.5461 272.731 88.6298 272.801 88.7268 272.847L92.1742 274.847C92.4351 274.99 92.7288 275.063 93.0261 275.057C93.3275 275.063 93.6253 274.99 93.8908 274.847L97.3268 272.847C97.4254 272.804 97.5107 272.734 97.5736 272.646C97.6365 272.558 97.6749 272.455 97.6846 272.347C97.6769 272.239 97.6393 272.134 97.5761 272.046C97.5129 271.958 97.4266 271.889 97.3268 271.847L93.8908 269.848C93.6256 269.703 93.3275 269.631 93.0261 269.638C92.7287 269.631 92.4349 269.704 92.1742 269.848L88.7268 271.847ZM81.8519 267.848C81.7523 267.891 81.6663 267.96 81.6032 268.048C81.5401 268.137 81.5024 268.241 81.4941 268.349C81.5045 268.457 81.5431 268.56 81.606 268.647C81.6688 268.735 81.7537 268.804 81.8519 268.848L85.2893 270.847C85.555 270.985 85.8495 271.057 86.1483 271.057C86.4472 271.057 86.7417 270.985 87.0073 270.847L90.4547 268.848C90.5564 268.81 90.6441 268.742 90.7061 268.653C90.768 268.563 90.8012 268.457 90.8012 268.348C90.8012 268.239 90.768 268.133 90.7061 268.043C90.6441 267.954 90.5564 267.886 90.4547 267.848L87.0073 265.849C86.7417 265.711 86.4472 265.639 86.1483 265.639C85.8495 265.639 85.555 265.711 85.2893 265.849L81.8519 267.848ZM74.9756 263.849C74.8774 263.893 74.7926 263.963 74.7299 264.05C74.6673 264.138 74.6291 264.241 74.6192 264.349C74.6311 264.456 74.6702 264.558 74.7326 264.646C74.795 264.733 74.8786 264.803 74.9756 264.849L78.413 266.848C78.6779 266.994 78.9761 267.066 79.2777 267.058C79.5751 267.065 79.8691 266.993 80.1296 266.848L83.577 264.849C83.674 264.803 83.7578 264.733 83.8205 264.646C83.8831 264.558 83.9224 264.456 83.9348 264.349C83.9246 264.241 83.8861 264.138 83.8232 264.05C83.7604 263.962 83.6754 263.893 83.577 263.849L80.1296 261.85C79.8687 261.706 79.575 261.634 79.2777 261.64C78.9762 261.633 78.6782 261.705 78.413 261.85L74.9756 263.849ZM68.0808 259.85C67.9824 259.894 67.8974 259.963 67.8345 260.051C67.7717 260.139 67.7331 260.242 67.723 260.35C67.7348 260.457 67.774 260.559 67.8366 260.647C67.8993 260.735 67.9834 260.804 68.0808 260.85L71.5182 262.849C71.7834 262.994 72.0814 263.066 72.3829 263.059C72.6803 263.066 72.9741 262.993 73.2348 262.849L76.6822 260.85C76.7795 260.804 76.8635 260.734 76.9262 260.647C76.9888 260.559 77.0281 260.457 77.04 260.35C77.0299 260.242 76.9913 260.139 76.9285 260.051C76.8656 259.963 76.7806 259.894 76.6822 259.85L73.2348 257.85C72.9741 257.706 72.6803 257.634 72.3829 257.641C72.0814 257.634 71.7834 257.706 71.5182 257.85L68.0808 259.85ZM56.0291 252.852C55.9321 252.896 55.8486 252.966 55.7875 253.054C55.7263 253.142 55.6896 253.245 55.6813 253.351C55.6908 253.458 55.7279 253.56 55.7889 253.648C55.85 253.736 55.9328 253.806 56.0291 253.851L64.632 258.85C64.8977 258.993 65.1953 259.065 65.4967 259.06C65.7981 259.067 66.0962 258.995 66.3613 258.85L69.7988 256.851C69.8959 256.805 69.9798 256.735 70.0424 256.648C70.1051 256.56 70.1444 256.458 70.1566 256.351C70.1466 256.243 70.1081 256.14 70.0452 256.052C69.9823 255.964 69.8973 255.895 69.7988 255.851L61.1945 250.852C60.9287 250.714 60.6339 250.642 60.3348 250.642C60.0357 250.642 59.7409 250.714 59.4751 250.852L56.0291 252.852ZM140.354 293.842C140.252 293.879 140.163 293.947 140.101 294.037C140.038 294.126 140.005 294.233 140.005 294.342C140.005 294.451 140.038 294.558 140.101 294.648C140.163 294.737 140.252 294.805 140.354 294.842L143.801 296.842C144.067 296.979 144.361 297.051 144.66 297.051C144.959 297.051 145.253 296.979 145.519 296.842L148.958 294.842C149.056 294.798 149.141 294.729 149.204 294.641C149.267 294.553 149.306 294.45 149.316 294.342C149.308 294.234 149.27 294.13 149.207 294.042C149.144 293.954 149.058 293.885 148.958 293.842L145.519 291.843C145.253 291.705 144.959 291.634 144.66 291.634C144.361 291.634 144.067 291.705 143.801 291.843L140.354 293.842ZM133.479 289.843C133.381 289.887 133.296 289.957 133.233 290.045C133.17 290.133 133.131 290.237 133.121 290.344C133.133 290.452 133.172 290.554 133.235 290.642C133.298 290.729 133.382 290.799 133.479 290.844L136.916 292.844C137.182 292.981 137.477 293.053 137.775 293.053C138.074 293.053 138.369 292.981 138.634 292.844L142.083 290.844C142.18 290.799 142.264 290.729 142.327 290.641C142.389 290.554 142.429 290.452 142.441 290.344C142.43 290.237 142.392 290.134 142.329 290.046C142.266 289.958 142.181 289.888 142.083 289.843L138.634 287.844C138.369 287.706 138.074 287.634 137.775 287.634C137.477 287.634 137.182 287.706 136.916 287.844L133.479 289.843ZM126.642 285.844C126.544 285.888 126.459 285.957 126.396 286.045C126.333 286.133 126.294 286.236 126.285 286.344C126.297 286.451 126.336 286.553 126.399 286.641C126.461 286.728 126.545 286.798 126.642 286.844L130.08 288.843C130.345 288.989 130.643 289.062 130.945 289.055C131.242 289.061 131.536 288.988 131.796 288.843L135.244 286.844C135.341 286.798 135.425 286.728 135.487 286.641C135.55 286.553 135.589 286.451 135.602 286.344C135.591 286.236 135.553 286.133 135.49 286.045C135.427 285.957 135.342 285.888 135.244 285.844L131.796 283.845C131.535 283.701 131.242 283.629 130.945 283.635C130.643 283.628 130.345 283.701 130.08 283.845L126.642 285.844ZM119.685 281.845C119.587 281.889 119.502 281.958 119.439 282.046C119.376 282.134 119.338 282.237 119.327 282.345C119.34 282.452 119.379 282.554 119.442 282.641C119.504 282.729 119.588 282.799 119.685 282.845L123.124 284.844C123.391 284.982 123.688 285.054 123.988 285.054C124.288 285.054 124.585 284.982 124.852 284.844L128.291 282.845C128.388 282.799 128.472 282.729 128.534 282.641C128.597 282.554 128.636 282.452 128.649 282.345C128.638 282.237 128.6 282.134 128.537 282.046C128.474 281.958 128.389 281.889 128.291 281.845L124.852 279.845C124.585 279.707 124.288 279.635 123.988 279.635C123.688 279.635 123.391 279.707 123.124 279.845L119.685 281.845ZM112.82 277.846C112.722 277.89 112.637 277.959 112.574 278.046C112.511 278.134 112.473 278.237 112.462 278.344C112.475 278.452 112.514 278.554 112.577 278.642C112.639 278.729 112.723 278.8 112.82 278.846L116.269 280.845C116.529 280.99 116.823 281.063 117.121 281.055C117.422 281.063 117.721 280.99 117.986 280.845L121.423 278.846C121.52 278.8 121.604 278.73 121.667 278.642C121.73 278.554 121.769 278.452 121.781 278.344C121.771 278.237 121.732 278.134 121.669 278.046C121.606 277.959 121.521 277.889 121.423 277.846L117.986 275.846C117.721 275.701 117.422 275.629 117.121 275.636C116.823 275.629 116.529 275.701 116.269 275.846L112.82 277.846ZM105.935 273.847C105.837 273.891 105.752 273.96 105.689 274.048C105.626 274.136 105.588 274.239 105.578 274.347C105.589 274.454 105.629 274.556 105.691 274.644C105.754 274.731 105.838 274.801 105.935 274.847L109.383 276.846C109.649 276.983 109.943 277.055 110.242 277.055C110.541 277.055 110.836 276.983 111.102 276.846L114.538 274.847C114.636 274.802 114.721 274.733 114.785 274.645C114.848 274.557 114.887 274.454 114.897 274.347C114.889 274.238 114.851 274.134 114.788 274.046C114.724 273.958 114.638 273.889 114.538 273.847L111.102 271.847C110.836 271.71 110.541 271.638 110.242 271.638C109.943 271.638 109.649 271.71 109.383 271.847L105.935 273.847ZM99.0604 269.848C98.9605 269.89 98.8741 269.958 98.8107 270.047C98.7473 270.135 98.7094 270.239 98.7012 270.348C98.7114 270.456 98.75 270.559 98.8132 270.647C98.8763 270.735 98.9617 270.804 99.0604 270.847L102.496 272.847C102.762 272.985 103.057 273.057 103.356 273.057C103.655 273.057 103.95 272.985 104.216 272.847L107.663 270.847C107.76 270.802 107.843 270.732 107.904 270.644C107.965 270.557 108.002 270.454 108.011 270.348C108.003 270.24 107.967 270.138 107.906 270.05C107.844 269.962 107.761 269.892 107.663 269.848L104.216 267.848C103.95 267.71 103.655 267.638 103.356 267.638C103.057 267.638 102.762 267.71 102.496 267.848L99.0604 269.848ZM92.1742 265.849C92.0755 265.892 91.9903 265.961 91.9274 266.049C91.8644 266.137 91.8261 266.241 91.8164 266.349C91.8283 266.456 91.8675 266.558 91.9302 266.645C91.9929 266.732 92.0769 266.802 92.1742 266.847L95.6116 268.847C95.8768 268.991 96.1748 269.063 96.4763 269.056C96.7737 269.063 97.0676 268.991 97.3282 268.847L100.777 266.847C100.874 266.802 100.958 266.732 101.02 266.645C101.083 266.557 101.122 266.455 101.135 266.349C101.125 266.241 101.086 266.138 101.023 266.05C100.96 265.962 100.875 265.893 100.777 265.849L97.3282 263.849C97.0676 263.705 96.7737 263.632 96.4763 263.639C96.1748 263.632 95.8768 263.705 95.6116 263.849L92.1742 265.849ZM85.2893 261.85C85.191 261.893 85.106 261.963 85.0431 262.051C84.9802 262.139 84.9417 262.242 84.9315 262.349C84.9438 262.457 84.9831 262.559 85.0457 262.646C85.1083 262.734 85.1922 262.804 85.2893 262.849L88.7268 264.849C88.9921 264.993 89.2901 265.065 89.5915 265.057C89.8927 265.063 90.1904 264.992 90.4562 264.849L93.8936 262.849C93.9907 262.804 94.0746 262.734 94.1372 262.646C94.1999 262.559 94.2392 262.457 94.2514 262.349C94.2414 262.242 94.2029 262.138 94.14 262.051C94.0771 261.963 93.9921 261.893 93.8936 261.85L90.4562 259.85C90.1905 259.707 89.8928 259.635 89.5915 259.64C89.29 259.633 88.9919 259.706 88.7268 259.85L85.2893 261.85ZM78.4045 257.85C78.3059 257.894 78.2207 257.964 78.1576 258.051C78.0945 258.139 78.0557 258.242 78.0453 258.35C78.0575 258.458 78.097 258.56 78.1599 258.648C78.2228 258.735 78.307 258.805 78.4045 258.85L81.8519 260.85C82.1126 260.994 82.4064 261.066 82.7038 261.06C83.0053 261.067 83.3034 260.994 83.5685 260.85L87.0059 258.85C87.1032 258.805 87.1872 258.735 87.2499 258.647C87.3125 258.56 87.3518 258.458 87.3637 258.35C87.3537 258.243 87.3153 258.139 87.2524 258.051C87.1895 257.964 87.1044 257.894 87.0059 257.85L83.5685 255.851C83.3046 255.705 83.0075 255.631 82.7066 255.637C82.4093 255.63 82.1154 255.703 81.8547 255.847L78.4045 257.85ZM71.5182 253.851C71.4197 253.895 71.3345 253.964 71.2716 254.052C71.2087 254.14 71.1703 254.243 71.1604 254.351C71.1725 254.458 71.2118 254.561 71.2744 254.648C71.3371 254.736 71.421 254.806 71.5182 254.851L74.9656 256.851C75.2263 256.995 75.5202 257.067 75.8175 257.061C76.119 257.068 76.4171 256.995 76.6822 256.851L80.1197 254.851C80.2167 254.805 80.3005 254.735 80.3631 254.648C80.4257 254.56 80.4651 254.458 80.4775 254.351C80.4673 254.243 80.4288 254.14 80.3659 254.053C80.303 253.965 80.218 253.895 80.1197 253.851L76.6822 251.852C76.4171 251.707 76.119 251.635 75.8175 251.642C75.5202 251.635 75.2263 251.708 74.9656 251.852L71.5182 253.851ZM62.914 248.853C62.8157 248.897 62.7308 248.966 62.6679 249.054C62.605 249.142 62.5665 249.245 62.5562 249.352C62.5684 249.46 62.6077 249.562 62.6703 249.649C62.733 249.737 62.8168 249.807 62.914 249.852L68.0808 252.852C68.3464 252.989 68.6409 253.061 68.9398 253.061C69.2387 253.061 69.5332 252.989 69.7988 252.852L73.2362 250.852C73.3347 250.808 73.4198 250.739 73.4827 250.651C73.5456 250.563 73.584 250.46 73.594 250.352C73.5858 250.244 73.5481 250.14 73.485 250.052C73.4218 249.963 73.3358 249.894 73.2362 249.852L68.0794 246.853C67.8141 246.709 67.5161 246.636 67.2147 246.643C66.9173 246.636 66.6235 246.709 66.3628 246.853L62.914 248.853ZM119.687 305.839C119.588 305.883 119.503 305.953 119.44 306.041C119.378 306.129 119.339 306.232 119.329 306.339C119.341 306.446 119.381 306.548 119.443 306.636C119.506 306.723 119.59 306.793 119.687 306.839L123.125 308.839C123.391 308.981 123.689 309.054 123.99 309.049C124.291 309.055 124.588 308.983 124.853 308.839L128.292 306.839C128.389 306.793 128.473 306.723 128.536 306.636C128.598 306.548 128.638 306.446 128.65 306.339C128.64 306.232 128.601 306.129 128.538 306.041C128.475 305.953 128.391 305.883 128.292 305.839L124.853 303.84C124.589 303.696 124.291 303.623 123.99 303.63C123.689 303.624 123.391 303.697 123.125 303.84L119.687 305.839Z" fill="white"/>
</g>
<g clip-path="url(#clip3_6624_110937)">
<path d="M262.1 150.5V256.8L377.1 324.1V217.1L262.1 150.5Z" fill="#EAEEF3"/>
<path d="M262.1 149.2V160.6L377.1 227.9V215.8L262.1 149.2Z" fill="#CBCFD5"/>
<path d="M269 159.2C269 160.3 268.2 160.8 267.3 160.2C266.3 159.5 265.6 158.4 265.6 157.2C265.6 156.1 266.4 155.6 267.3 156.2C268.3 156.9 268.9 158 269 159.2ZM276 163.2C276 164.3 275.2 164.8 274.3 164.2C273.3 163.5 272.6 162.4 272.6 161.2C272.6 160.1 273.4 159.6 274.3 160.2C275.3 160.9 275.9 162 276 163.2ZM283 167.2C283 168.3 282.2 168.8 281.3 168.2C280.3 167.5 279.6 166.4 279.6 165.2C279.6 164.1 280.4 163.6 281.3 164.2C282.3 164.9 282.9 166 283 167.2Z" fill="white"/>
<path d="M281.8 184.4L358.8 229.2C363 231.6 366.3 236.9 366.3 241.1C366.3 245.3 362.9 246.7 358.8 244.3L281.8 199.5C277.6 197.1 274.3 191.8 274.3 187.6C274.2 183.5 277.6 182 281.8 184.4Z" fill="white"/>
<path d="M359.8 231.3C362.9 233.3 364.9 236.8 365.1 240.5C365.1 243.9 362.7 245.3 359.8 243.6C356.7 241.6 354.7 238.1 354.5 234.4C354.5 230.9 356.8 229.6 359.8 231.3Z" fill="#CBCFD5"/>
<path d="M362.8 241.8L361.5 239.6C361.9 239.2 362.1 238.6 362.1 237.9C362 236.2 361.1 234.7 359.7 233.8C358.9 233.4 358.2 233.3 357.6 233.7C357 234 356.7 234.7 356.7 235.7C356.8 237.4 357.7 238.9 359.1 239.8C359.5 240 359.9 240.2 360.3 240.2L361.7 242.6L362.8 241.8ZM358 235.5C358 235.1 358.1 234.8 358.3 234.7C358.4 234.7 358.4 234.7 358.5 234.7C358.7 234.7 358.9 234.8 359.1 234.9C360.1 235.6 360.8 236.7 360.8 237.9C360.8 238.3 360.7 238.6 360.5 238.7C360.3 238.8 360 238.7 359.7 238.6C358.7 237.8 358 236.7 358 235.5Z" fill="white"/>
<path d="M284.1 253.5C282.9 253.5 281.5 253.1 280.2 252.3C275.6 249.6 271.8 243 271.8 237.6C271.8 234.8 272.8 232.7 274.5 231.7C276.2 230.7 278.5 230.9 280.9 232.3C285.5 235 289.3 241.6 289.3 247C289.3 249.8 288.3 251.9 286.6 252.9C285.8 253.3 285 253.5 284.1 253.5ZM276.9 232.4C276.3 232.4 275.7 232.5 275.1 232.8C273.8 233.6 273.1 235.2 273.1 237.5C273.1 242.5 276.6 248.6 280.8 251C282.7 252.1 284.5 252.3 285.8 251.6C287.1 250.8 287.8 249.2 287.8 246.9C287.8 241.9 284.3 235.8 280.1 233.4C279 232.8 277.9 232.4 276.9 232.4Z" fill="#DCDEE1"/>
<path d="M282.5 246.4L278.5 244.1V243.2L280.4 242C280.7 241.8 280.8 241.7 281 241.5C281.1 241.3 281.2 241.1 281.2 240.9C281.2 240.6 281.1 240.3 281 240.1C280.9 239.9 280.7 239.7 280.4 239.5C280.1 239.3 279.9 239.3 279.8 239.5C279.6 239.6 279.6 239.8 279.6 240.2L278.4 239.5C278.4 239.1 278.5 238.8 278.7 238.5C278.9 238.3 279.1 238.1 279.4 238.1C279.7 238.1 280.1 238.2 280.4 238.4C281 238.7 281.5 239.2 281.8 239.7C282.1 240.2 282.3 240.8 282.3 241.4C282.3 241.7 282.2 242 282.1 242.3C282 242.6 281.7 242.8 281.3 243.1L280 243.9L282.5 245.3V246.4Z" fill="#DCDEE1"/>
<path d="M359.1 288C359.3 288.2 359.6 288.2 359.9 288C360 287.9 360.1 287.7 360 287.5C360 286.9 359.6 286.3 359.1 286L295.7 250C295.5 249.8 295.1 249.8 294.9 250C294.8 250.1 294.7 250.3 294.8 250.5C294.8 251.1 295.2 251.7 295.7 252L359.1 288ZM359.5 280.3L295.8 243.9C295.6 243.7 295.2 243.7 295 243.9C294.9 244 294.8 244.2 294.9 244.4C294.9 245 295.3 245.6 295.8 245.9L359.5 282.3V280.3ZM359.5 282.3C360 282.6 360.4 282.4 360.4 281.8C360.4 281.2 360 280.6 359.5 280.3V282.3ZM322.1 273.2C322.3 273.4 322.6 273.4 322.9 273.2C323 273.1 323.1 272.9 323 272.7C323 272.1 322.6 271.5 322.1 271.2L295.7 256C295.5 255.8 295.1 255.8 294.9 256C294.8 256.1 294.7 256.3 294.8 256.5C294.8 257.1 295.2 257.7 295.7 258L322.1 273.2Z" fill="#DCDEE1"/>
<path d="M280.9 206.7C278.5 205.3 276.2 205.1 274.5 206.1C272.7 207.1 271.8 209.2 271.8 212C271.8 217.4 275.6 224 280.3 226.7C281.7 227.5 283 227.9 284.3 227.9C285.2 227.9 286 227.7 286.8 227.3C288.6 226.3 289.5 224.2 289.5 221.4C289.4 216 285.6 209.4 280.9 206.7Z" fill="#CBCFD5"/>
<path d="M281.3 220.2L280.1 219.5V214.4L278.7 214.1V213L281.1 213.4L281.2 213.5V220.2H281.3Z" fill="white"/>
<path d="M359.1 263.1C359.3 263.3 359.6 263.3 359.9 263.1C360 263 360.1 262.8 360 262.6C360 262 359.6 261.4 359.1 261.1L295.7 225.1C295.5 224.9 295.1 224.9 294.9 225.1C294.8 225.2 294.7 225.4 294.8 225.6C294.8 226.2 295.2 226.8 295.7 227.1L359.1 263.1ZM359.5 255.4L295.8 219C295.6 218.8 295.2 218.8 295 219C294.9 219.1 294.8 219.3 294.9 219.5C294.9 220.1 295.3 220.7 295.8 221L359.5 257.4V255.4ZM359.5 257.4C360 257.7 360.4 257.5 360.4 256.9C360.4 256.3 360 255.7 359.5 255.4V257.4ZM322.1 248.3C322.3 248.5 322.6 248.5 322.9 248.3C323 248.2 323.1 248 323 247.8C323 247.2 322.6 246.6 322.1 246.3L295.8 231.1C295.6 230.9 295.2 230.9 295 231.1C294.9 231.2 294.8 231.4 294.9 231.6C294.9 232.2 295.3 232.8 295.8 233.1L322.1 248.3Z" fill="#CBCFD5"/>
<path d="M303.1 299.2C303.1 299.2 303.1 301.3 303.1 301.9C303.1 302.7 302.5 303.6 301.3 304.2L268.5 323C266.4 324.2 263.1 324.4 261.3 323.3L244.5 313.7C243.8 313.4 243.3 312.6 243.3 311.8C243.3 311 243.3 309.2 243.3 309.2L303.1 299.2Z" fill="#CBCFD5"/>
<path d="M285.1 288.4L301.9 298C303.8 299.1 303.5 300.9 301.4 302.1L268.6 320.9C266.5 322.1 263.2 322.3 261.4 321.2L244.6 311.6C242.8 310.5 243 308.7 245.1 307.5L277.9 288.7C280 287.5 283.2 287.4 285.1 288.4Z" fill="#E9EBEE"/>
<path d="M282.5 291.1L297.3 299.6C298.9 300.5 298.7 302.2 296.8 303.3L270.5 318.6C268.6 319.7 265.7 319.8 264.1 318.9L249.3 310.4C247.7 309.5 247.9 307.8 249.8 306.7L276.1 291.4C278 290.3 280.8 290.2 282.5 291.1Z" fill="#393E41"/>
<path d="M272.2 298.5C272.2 298.5 270.5 299.3 268.2 300.5C266.8 301.2 266.9 303.2 266.9 305.2C266.9 306.3 267.2 307.5 267.6 308.6C269.4 309 271.2 309.2 273 309.3C275.1 309.2 276.6 309.3 277.7 308.6C279.5 307.5 283.1 305.2 283.1 305.2L279.7 299.8L272.2 298.5Z" fill="white"/>
<path d="M276.9 305.2H271.5C271.1 305.2 270.8 304.9 270.8 304.5V302.5C270.8 302.1 271.1 301.8 271.5 301.8C271.9 301.8 272.2 302.1 272.2 302.5V303.8H276.9C277.3 303.8 277.6 304.1 277.6 304.5C277.6 304.9 277.3 305.2 276.9 305.2Z" fill="#393E41"/>
</g>
</g>
<defs>
<linearGradient id="paint0_linear_6624_110937" x1="11.0274" y1="238.224" x2="33.2203" y2="277.465" gradientUnits="userSpaceOnUse">
<stop/>
<stop offset="0.671875" stop-opacity="0"/>
</linearGradient>
<linearGradient id="paint1_linear_6624_110937" x1="175.72" y1="293.149" x2="194.727" y2="325.363" gradientUnits="userSpaceOnUse">
<stop/>
<stop offset="0.894792" stop-opacity="0"/>
</linearGradient>
<linearGradient id="paint2_linear_6624_110937" x1="121.507" y1="317.821" x2="130.726" y2="332.602" gradientUnits="userSpaceOnUse">
<stop/>
<stop offset="0.739583" stop-opacity="0"/>
</linearGradient>
<clipPath id="clip0_6624_110937">
<rect width="376" height="324" fill="white" transform="translate(0.800049)"/>
</clipPath>
<clipPath id="clip1_6624_110937">
<rect width="379" height="324" fill="white" transform="translate(0.800049)"/>
</clipPath>
<clipPath id="clip2_6624_110937">
<rect width="379" height="324" fill="white" transform="translate(0.800049)"/>
</clipPath>
<clipPath id="clip3_6624_110937">
<rect width="379" height="324" fill="white" transform="translate(0.800049)"/>
</clipPath>
</defs>
</svg>
