<svg width="377" height="324" viewBox="0 0 377 324" fill="none" xmlns="http://www.w3.org/2000/svg">
<g clip-path="url(#clip0_698_20312)">
<path d="M234.968 245.134L336.211 304.394L304.466 322.923L203.111 263.776L234.968 245.134Z" fill="url(#paint0_linear_698_20312)" fill-opacity="0.1"/>
<path d="M179.08 270.689L218.828 293.889L169.601 322.694L129.889 299.42L128.395 273.682L145.503 263.674L179.08 270.689Z" fill="url(#paint1_linear_698_20312)" fill-opacity="0.1"/>
<path d="M2.87387 0L144.874 82V190L2.87387 108V0Z" fill="#EAEEF3"/>
<path fill-rule="evenodd" clip-rule="evenodd" d="M102.474 74.5001C102.974 74.8001 103.374 74.5001 103.374 74.0001C103.374 73.4001 102.974 72.8001 102.474 72.5001L90.3738 65.5001C89.8738 65.2001 89.4738 65.5001 89.4738 66.0001C89.4738 66.6001 89.8738 67.2001 90.3738 67.5001L102.474 74.5001ZM133.574 109.5C134.074 109.8 134.474 109.5 134.474 109C134.474 108.4 134.074 107.8 133.574 107.5L90.2739 82.5001C89.7739 82.2001 89.3739 82.5001 89.3739 83.0001C89.3739 83.6001 89.7739 84.2001 90.2739 84.5001L133.574 109.5ZM133.574 127.5C134.074 127.8 134.474 127.5 134.474 127C134.474 126.4 134.074 125.8 133.574 125.5L98.9738 105.5C98.4738 105.2 98.0738 105.5 98.0738 106C98.0738 106.6 98.4738 107.2 98.9738 107.5L133.574 127.5ZM124.174 127C124.174 127.5 123.774 127.8 123.274 127.5L90.3738 108.5C89.8738 108.2 89.4738 107.6 89.4738 107C89.4738 106.5 89.8738 106.2 90.3738 106.5L123.274 125.5C123.774 125.8 124.174 126.4 124.174 127ZM102.474 127.5C102.974 127.8 103.374 127.5 103.374 127C103.374 126.4 102.974 125.8 102.474 125.5L90.3738 118.5C89.8738 118.2 89.4738 118.5 89.4738 119C89.4738 119.6 89.8738 120.2 90.3738 120.5L102.474 127.5ZM129.274 142C129.274 142.6 128.874 142.8 128.374 142.5L107.574 130.5C107.074 130.2 106.674 129.6 106.674 129C106.674 128.4 107.074 128.2 107.574 128.5L128.374 140.5C128.874 140.8 129.274 141.4 129.274 142ZM102.474 97.5001C102.974 97.8001 103.374 97.5001 103.374 97.0001C103.374 96.4001 102.974 95.8001 102.474 95.5001L90.3738 88.5001C89.8738 88.2001 89.4738 88.5001 89.4738 89.0001C89.4738 89.6001 89.8738 90.2001 90.3738 90.5001L102.474 97.5001ZM129.274 112C129.274 112.5 128.874 112.8 128.374 112.5L107.574 100.5C107.074 100.2 106.674 99.6001 106.674 99.0001C106.674 98.5001 107.074 98.2001 107.574 98.5001L128.374 110.5C128.874 110.8 129.274 111.4 129.274 112ZM114.574 110.5C115.074 110.8 115.474 110.5 115.474 110C115.474 109.4 115.074 108.8 114.574 108.5L90.3738 94.5001C89.8738 94.2001 89.4738 94.5001 89.4738 95.0001C89.4738 95.6001 89.8738 96.2001 90.3738 96.5001L114.574 110.5ZM124.174 115C124.174 115.5 123.774 115.8 123.274 115.5L119.774 113.5C119.274 113.2 118.874 112.6 118.874 112C118.874 111.5 119.274 111.2 119.774 111.5L123.274 113.5C123.774 113.8 124.174 114.4 124.174 115ZM116.274 129.5C115.774 129.2 115.474 128.6 115.374 128C115.374 127.4 115.774 127.2 116.274 127.5L128.374 134.5C128.874 134.8 129.174 135.4 129.274 136C129.274 136.6 128.874 136.8 128.374 136.5L116.274 129.5ZM89.3739 101C89.4739 101.6 89.7739 102.2 90.2739 102.5L93.7739 104.5C94.2739 104.8 94.6739 104.6 94.6739 104C94.5739 103.4 94.2739 102.8 93.7739 102.5L90.2739 100.5C89.7739 100.2 89.3739 100.4 89.3739 101ZM90.2739 114.5C89.7739 114.2 89.4739 113.6 89.3739 113C89.3739 112.4 89.7739 112.2 90.2739 112.5L111.074 124.5C111.574 124.8 111.874 125.4 111.974 126C111.974 126.6 111.574 126.8 111.074 126.5L90.2739 114.5ZM134.474 168C134.474 168.6 134.074 168.8 133.574 168.5L121.474 161.5C120.974 161.2 120.574 160.6 120.574 160C120.574 159.4 120.974 159.2 121.474 159.5L133.574 166.5C134.074 166.8 134.474 167.4 134.474 168ZM111.974 138C111.974 138.6 111.574 138.8 111.074 138.5L90.2739 126.5C89.7739 126.2 89.3739 125.6 89.3739 125C89.3739 124.5 89.7739 124.2 90.2739 124.5L111.074 136.5C111.574 136.8 111.974 137.4 111.974 138Z" fill="#CBCFD5"/>
<path fill-rule="evenodd" clip-rule="evenodd" d="M30.0738 36.1197C30.5738 36.4197 30.9738 36.1197 30.9738 35.6197C30.9738 35.0197 30.5738 34.4197 30.0738 34.1197L17.9738 27.1197C17.4738 26.8197 17.0738 27.1197 17.0738 27.6197C17.0738 28.2197 17.4738 28.8197 17.9738 29.1197L30.0738 36.1197ZM61.1739 71.1197C61.6739 71.4197 62.0738 71.1197 62.0738 70.6197C62.0738 70.0197 61.6739 69.4197 61.1739 69.1197L17.8738 44.1197C17.3738 43.8197 16.9738 44.1197 16.9738 44.6197C16.9738 45.2197 17.3738 45.8197 17.8738 46.1197L61.1739 71.1197ZM61.1738 89.1197C61.6738 89.4197 62.0738 89.1197 62.0738 88.6197C62.0738 88.0197 61.6738 87.4197 61.1738 87.1197L26.5738 67.1197C26.0738 66.8197 25.6738 67.1197 25.6738 67.6197C25.6738 68.2197 26.0738 68.8197 26.5738 69.1197L61.1738 89.1197ZM51.7738 88.6197C51.7738 89.1197 51.3738 89.4197 50.8738 89.1197L17.9738 70.1197C17.4738 69.8197 17.0738 69.2197 17.0738 68.6197C17.0738 68.1197 17.4738 67.8197 17.9738 68.1197L50.8738 87.1197C51.3738 87.4197 51.7738 88.0197 51.7738 88.6197ZM30.0738 89.1197C30.5738 89.4197 30.9738 89.1197 30.9738 88.6197C30.9738 88.0197 30.5738 87.4197 30.0738 87.1197L17.9738 80.1197C17.4738 79.8197 17.0738 80.1197 17.0738 80.6197C17.0738 81.2197 17.4738 81.8197 17.9738 82.1197L30.0738 89.1197ZM56.8738 103.62C56.8738 104.22 56.4738 104.42 55.9738 104.12L35.1738 92.1198C34.6738 91.8198 34.2738 91.2198 34.2738 90.6198C34.2738 90.0198 34.6738 89.8198 35.1738 90.1198L55.9738 102.12C56.4738 102.42 56.8738 103.02 56.8738 103.62ZM30.0738 59.1197C30.5738 59.4197 30.9738 59.1197 30.9738 58.6197C30.9738 58.0197 30.5738 57.4197 30.0738 57.1197L17.9738 50.1197C17.4738 49.8197 17.0738 50.1197 17.0738 50.6197C17.0738 51.2197 17.4738 51.8197 17.9738 52.1197L30.0738 59.1197ZM56.8738 73.6197C56.8738 74.1197 56.4738 74.4197 55.9738 74.1197L35.1738 62.1197C34.6738 61.8197 34.2738 61.2197 34.2738 60.6197C34.2738 60.1197 34.6738 59.8197 35.1738 60.1197L55.9738 72.1197C56.4738 72.4197 56.8738 73.0197 56.8738 73.6197ZM42.1738 72.1197C42.6738 72.4197 43.0738 72.1197 43.0738 71.6197C43.0738 71.0197 42.6738 70.4197 42.1738 70.1197L17.9738 56.1197C17.4738 55.8197 17.0738 56.1197 17.0738 56.6197C17.0738 57.2197 17.4738 57.8197 17.9738 58.1197L42.1738 72.1197ZM51.7738 76.6197C51.7738 77.1197 51.3738 77.4197 50.8738 77.1197L47.3738 75.1197C46.8738 74.8197 46.4738 74.2197 46.4738 73.6197C46.4738 73.1197 46.8738 72.8197 47.3738 73.1197L50.8738 75.1197C51.3738 75.4197 51.7738 76.0197 51.7738 76.6197ZM43.8738 91.1198C43.3738 90.8198 43.0738 90.2198 42.9738 89.6198C42.9738 89.0198 43.3738 88.8198 43.8738 89.1198L55.9738 96.1198C56.4738 96.4198 56.7738 97.0198 56.8738 97.6198C56.8738 98.2198 56.4738 98.4198 55.9738 98.1198L43.8738 91.1198ZM16.9738 62.6198C17.0738 63.2198 17.3738 63.8198 17.8738 64.1198L21.3738 66.1198C21.8738 66.4198 22.2738 66.2198 22.2738 65.6198C22.1738 65.0198 21.8738 64.4198 21.3738 64.1198L17.8738 62.1198C17.3738 61.8198 16.9738 62.0198 16.9738 62.6198ZM17.8738 76.1198C17.3738 75.8198 17.0738 75.2198 16.9738 74.6198C16.9738 74.0198 17.3738 73.8198 17.8738 74.1198L38.6738 86.1198C39.1738 86.4198 39.4738 87.0198 39.5738 87.6198C39.5738 88.2198 39.1738 88.4198 38.6738 88.1198L17.8738 76.1198ZM62.0738 129.62C62.0738 130.22 61.6738 130.42 61.1738 130.12L49.0738 123.12C48.5738 122.82 48.1738 122.22 48.1738 121.62C48.1738 121.02 48.5738 120.82 49.0738 121.12L61.1738 128.12C61.6738 128.42 62.0738 129.02 62.0738 129.62ZM39.5738 99.6197C39.5738 100.22 39.1738 100.42 38.6738 100.12L17.8738 88.1197C17.3738 87.8197 16.9738 87.2197 16.9738 86.6197C16.9738 86.1197 17.3738 85.8197 17.8738 86.1197L38.6738 98.1197C39.1738 98.4197 39.5738 99.0197 39.5738 99.6197Z" fill="#CBCFD5"/>
<path d="M92.8738 153C90.7738 151.7 88.9738 149.9 87.6738 147.7V169L92.8738 166L98.0738 175V153.7C96.6738 154.4 94.7738 154.1 92.8738 153Z" fill="#31854C"/>
<path d="M96.3738 154C96.9738 153.7 97.4738 153.2 97.7738 152.6C96.4738 153.3 94.6738 153.1 92.9738 152.1C88.8738 149.4 86.2738 145 86.0738 140.1C86.0738 138.1 86.7738 136.5 88.0738 135.7C87.3738 135.7 86.6738 135.8 86.0738 136.1C84.6738 136.9 83.9738 138.7 83.9738 140.8C84.2738 145.9 86.9738 150.7 91.2738 153.5C93.0738 154.5 94.9738 154.8 96.3738 154Z" fill="#31854C"/>
<path d="M96.9738 153C95.5738 153.8 93.8738 153.5 92.0738 152.5C87.9738 149.8 85.3738 145.4 85.1738 140.5C85.1738 138.4 85.8738 136.8 87.1738 136C88.4738 135.2 90.2738 135.5 92.0738 136.5C96.1738 139.2 98.7738 143.6 98.9738 148.5C98.9738 150.6 98.2738 152.2 96.9738 153Z" fill="#35B65E"/>
<path d="M91.1738 147C91.1738 147.6 91.5738 148.2 92.0738 148.5C92.5738 148.8 92.9738 148.6 92.9738 148V142C92.9738 141.4 92.5738 140.8 92.0738 140.5C91.5738 140.2 91.1738 140.4 91.1738 141V147Z" fill="white"/>
<path d="M99.0738 140.5C97.5738 137.9 95.4738 135.6 92.9738 134C90.7738 132.7 88.5738 132.4 86.8738 133.4L85.1738 134.4L85.4738 136.6C85.6738 136.4 85.8738 136.2 86.0738 136C87.4738 135.2 89.3738 135.4 91.2738 136.5C95.5738 139.3 98.2738 144 98.5738 149.2C98.5738 151.4 97.8738 153.1 96.3738 153.9C95.6738 154.3 94.8738 154.4 94.0738 154.4L97.2738 155.6L98.9738 154.6C100.674 153.6 101.474 151.5 101.474 149C101.474 146 100.574 143 99.0738 140.5Z" fill="#1F5C3A"/>
<path d="M97.2738 141.5C95.7738 138.9 93.6738 136.6 91.1738 135C88.9738 133.7 86.7738 133.4 85.0738 134.4C83.3738 135.4 82.5738 137.5 82.5738 140C82.8738 146.1 86.0738 151.7 91.2738 155C93.4738 156.3 95.6738 156.6 97.3738 155.6C99.0738 154.6 99.8738 152.5 99.8738 150C99.7738 147 98.8738 144 97.2738 141.5ZM96.0738 153.5C94.7738 154.3 92.9738 154 91.1738 153C87.0738 150.3 84.4738 145.9 84.2738 141C84.2738 138.9 84.9738 137.3 86.2738 136.5C87.5738 135.7 89.3738 136 91.1738 137C95.2738 139.7 97.8738 144.1 98.0738 149C98.0738 151.1 97.4738 152.7 96.0738 153.5Z" fill="#5BD682"/>
<path d="M262.674 161V258L376.974 324V227L262.674 161Z" fill="#EAEEF3"/>
<path d="M376.974 228L262.674 162V150L376.974 216V228Z" fill="#CBCFD5"/>
<path fill-rule="evenodd" clip-rule="evenodd" d="M269.574 160C269.574 161.1 268.774 161.6 267.874 161C266.874 160.3 266.174 159.2 266.174 158C266.174 156.9 266.974 156.4 267.874 157C268.874 157.7 269.474 158.8 269.574 160ZM276.474 164C276.474 165.1 275.674 165.6 274.774 165C273.774 164.3 273.074 163.2 273.074 162C273.074 160.9 273.874 160.4 274.774 161C275.774 161.7 276.474 162.8 276.474 164ZM281.774 169C282.674 169.6 283.474 169.1 283.474 168C283.374 166.8 282.774 165.7 281.774 165C280.874 164.4 280.074 164.9 280.074 166C280.074 167.2 280.774 168.3 281.774 169Z" fill="white"/>
<path fill-rule="evenodd" clip-rule="evenodd" d="M291.274 191.5C291.274 192.1 290.874 192.3 290.374 192L273.874 182.5C273.374 182.2 272.974 181.6 272.974 181C272.974 180.4 273.374 180.2 273.874 180.5L290.374 190C290.874 190.3 291.274 190.9 291.274 191.5ZM281.674 193C282.174 193.3 282.574 193.1 282.574 192.5C282.574 191.9 282.174 191.3 281.674 191L273.874 186.5C273.374 186.2 272.974 186.4 272.974 187C272.974 187.6 273.374 188.2 273.874 188.5L281.674 193ZM281.674 199C282.174 199.3 282.574 199.1 282.574 198.5C282.574 197.9 282.174 197.3 281.674 197L273.874 192.5C273.374 192.2 272.974 192.4 272.974 193C272.974 193.6 273.374 194.2 273.874 194.5L281.674 199ZM281.674 229C282.174 229.3 282.574 229.1 282.574 228.5C282.574 227.9 282.174 227.3 281.674 227L273.874 222.5C273.374 222.2 272.974 222.4 272.974 223C272.974 223.6 273.374 224.2 273.874 224.5L281.674 229ZM282.574 256.5C282.574 257 282.174 257.3 281.674 257L273.874 252.5C273.374 252.2 272.974 251.6 272.974 251C272.974 250.4 273.374 250.2 273.874 250.5L281.674 255C282.174 255.3 282.574 255.9 282.574 256.5ZM286.074 207.5C286.574 207.8 286.974 207.6 286.974 207C286.974 206.4 286.574 205.8 286.074 205.5L273.974 198.5C273.474 198.2 273.074 198.4 273.074 199C273.074 199.6 273.474 200.2 273.974 200.5L286.074 207.5ZM295.574 218C295.574 218.6 295.174 218.8 294.674 218.5L273.874 206.5C273.374 206.2 272.974 205.6 272.974 205C272.974 204.4 273.374 204.2 273.874 204.5L294.674 216.5C295.174 216.8 295.574 217.4 295.574 218ZM290.374 222C290.874 222.3 291.274 222.1 291.274 221.5C291.274 220.9 290.874 220.3 290.374 220L273.874 210.5C273.374 210.2 272.974 210.4 272.974 211C272.974 211.6 273.374 212.2 273.874 212.5L290.374 222ZM291.274 227.5C291.274 228.1 290.874 228.3 290.374 228L273.874 218.5C273.374 218.2 272.974 217.6 272.974 217C272.974 216.4 273.374 216.2 273.874 216.5L290.374 226C290.874 226.3 291.274 226.9 291.274 227.5Z" fill="#CBCFD5"/>
<path fill-rule="evenodd" clip-rule="evenodd" d="M306.774 199.5L332.774 214.5C333.274 214.8 333.674 215.4 333.674 216V247C333.674 247.6 333.274 247.8 332.774 247.5L306.774 232.5C306.274 232.2 305.874 231.6 305.874 231V200C305.874 199.4 306.274 199.2 306.774 199.5ZM339.674 218.5L365.674 233.5C366.274 233.8 366.574 234.4 366.574 235V266C366.574 266.5 366.174 266.8 365.674 266.5L339.674 251.5C339.174 251.2 338.774 250.6 338.774 250V219C338.774 218.4 339.174 218.2 339.674 218.5ZM365.674 272.5L339.674 257.5C339.174 257.2 338.774 257.5 338.774 258V289C338.774 289.6 339.174 290.2 339.674 290.5L365.674 305.5C366.174 305.8 366.574 305.5 366.574 305V274C366.574 273.4 366.274 272.8 365.674 272.5ZM306.774 238.5L332.774 253.5C333.274 253.8 333.674 254.4 333.674 255V286C333.674 286.5 333.274 286.8 332.774 286.5L306.774 271.5C306.274 271.2 305.874 270.6 305.874 270V239C305.874 238.4 306.274 238.2 306.774 238.5Z" fill="white"/>
<path d="M157.936 120.15C154.736 120.25 151.536 119.45 148.736 117.95C146.336 116.55 144.936 114.75 144.936 112.65C144.936 110.55 146.436 108.65 148.736 107.35C154.536 104.45 161.336 104.45 167.136 107.35C169.536 108.75 170.936 110.55 170.936 112.65C170.936 114.75 169.536 116.65 167.136 117.95C164.336 119.45 161.136 120.25 157.936 120.15Z" fill="#0367E4"/>
<path d="M218.536 155.15C215.336 155.25 212.136 154.45 209.336 152.95C206.936 151.55 205.536 149.75 205.536 147.65C205.536 145.55 206.936 143.75 209.336 142.35C215.136 139.45 221.936 139.45 227.736 142.35C230.136 143.75 231.536 145.55 231.536 147.65C231.536 149.75 230.036 151.55 227.736 152.95C224.936 154.45 221.736 155.25 218.536 155.15Z" fill="#0367E4"/>
<path d="M157.936 117.35C155.815 117.35 153.696 116.869 151.77 115.908C150.265 115.059 149.436 113.899 149.436 112.65C149.436 111.414 150.248 110.349 151.78 109.387C155.631 107.469 160.151 107.471 164.001 109.392C165.506 110.241 166.336 111.401 166.336 112.65C166.336 113.888 165.522 114.953 163.986 115.916C162.168 116.869 160.056 117.35 157.936 117.35Z" fill="#E9EBEE" stroke="#E9EBEE"/>
<path d="M157.936 129.35C155.815 129.35 153.696 128.869 151.77 127.908C150.265 127.059 149.436 125.899 149.436 124.65V113.15H166.436V124.65C166.436 125.792 165.616 126.955 164.091 127.913C162.168 128.871 160.052 129.35 157.936 129.35Z" fill="#E9EBEE" stroke="#E9EBEE"/>
<path d="M218.536 152.35C216.415 152.35 214.296 151.869 212.37 150.908C210.865 150.059 210.036 148.899 210.036 147.65C210.036 146.414 210.848 145.349 212.38 144.387C216.231 142.469 220.751 142.471 224.601 144.392C226.106 145.241 226.936 146.401 226.936 147.65C226.936 148.888 226.122 149.953 224.586 150.916C222.768 151.869 220.656 152.35 218.536 152.35Z" fill="#E9EBEE" stroke="#E9EBEE"/>
<path d="M218.536 164.35C216.415 164.35 214.296 163.869 212.37 162.908C210.865 162.059 210.036 160.899 210.036 159.65V148.15H227.036V159.65C227.036 160.792 226.216 161.955 224.691 162.913C222.768 163.871 220.652 164.35 218.536 164.35Z" fill="#E9EBEE" stroke="#E9EBEE"/>
<path d="M248.036 147.65L157.936 95.6499C157.236 95.1499 156.336 95.0499 155.536 95.4499L126.135 112.45L221.135 167.25L250.536 150.25C249.936 149.15 249.036 148.25 248.036 147.65ZM166.436 117.55C161.136 120.25 154.736 120.25 149.436 117.55C147.236 116.25 145.936 114.55 145.936 112.65C145.936 110.75 147.336 109.05 149.436 107.75C154.736 105.05 161.136 105.05 166.436 107.75C168.636 109.05 169.936 110.75 169.936 112.65C169.936 114.55 168.535 116.35 166.436 117.55ZM227.036 152.55C221.736 155.25 215.336 155.25 210.036 152.55C207.836 151.25 206.536 149.55 206.536 147.65C206.536 145.75 207.836 144.05 210.036 142.75C215.336 140.05 221.736 140.05 227.036 142.75C229.236 144.05 230.536 145.75 230.536 147.65C230.536 149.55 229.236 151.25 227.036 152.55Z" fill="#428BF0"/>
<path d="M248.036 147.65L218.635 164.65L221.036 167.25V272.85L250.436 255.85C251.136 255.35 251.535 254.45 251.436 253.65V239.65L246.236 232.45L251.436 219.65V213.65L246.236 206.45L251.436 193.65V187.65L246.236 180.45L251.436 167.65V153.65C251.436 152.45 251.035 151.25 250.436 150.25L248.036 147.65Z" fill="#347BE9"/>
<path d="M222.036 170.65C221.936 168.25 220.636 165.95 218.536 164.65L128.436 112.65C127.536 111.85 126.236 111.95 125.436 112.85C125.036 113.35 124.836 113.95 124.936 114.65V214.65C125.036 217.05 126.336 219.35 128.436 220.65L218.536 272.65C219.436 273.45 220.736 273.35 221.536 272.45C221.936 271.95 222.136 271.25 222.036 270.65V170.65ZM179.636 195.25C178.836 195.65 177.936 195.85 176.936 195.85V208.65C176.936 210.85 175.336 211.75 173.436 210.65C171.436 209.35 170.136 207.05 169.936 204.65V191.85C168.936 190.75 168.036 189.55 167.236 188.25C165.636 185.65 164.836 182.75 164.736 179.75C164.736 177.15 165.636 175.15 167.236 174.15C168.836 173.15 171.136 173.45 173.336 174.75C178.436 178.05 181.636 183.65 182.036 189.75C182.136 192.25 181.336 194.25 179.636 195.25Z" fill="#0367E4"/>
<path d="M241.036 244.65C241.036 244.85 241.136 245.05 241.336 245.25C241.536 245.35 241.736 245.35 241.936 245.15L251.436 239.65V219.65L241.936 225.15C241.636 225.35 241.436 225.55 241.336 225.75C241.136 226.05 241.136 226.25 241.036 226.65V244.65Z" fill="#428BF0"/>
<path d="M241.036 218.65C241.036 218.85 241.136 219.05 241.336 219.25C241.536 219.35 241.736 219.35 241.936 219.15L251.436 213.65V193.65L241.936 199.15C241.636 199.35 241.436 199.55 241.336 199.75C241.136 200.05 241.136 200.25 241.036 200.65V218.65Z" fill="#428BF0"/>
<path d="M218.536 152.35C216.415 152.35 214.296 151.869 212.37 150.908C210.865 150.059 210.036 148.899 210.036 147.65V116.15H227.036V147.65C227.036 148.792 226.216 149.955 224.691 150.913C222.768 151.871 220.652 152.35 218.536 152.35Z" fill="#E9EBEE" stroke="#E9EBEE"/>
<path d="M241.036 192.65C241.036 192.85 241.136 193.05 241.336 193.25C241.536 193.35 241.736 193.35 241.936 193.15L251.436 187.65V167.65L241.936 173.15C241.636 173.35 241.436 173.55 241.336 173.75C241.136 174.05 241.136 174.25 241.036 174.65V192.65Z" fill="#428BF0"/>
<path d="M157.936 117.35C155.815 117.35 153.696 116.869 151.77 115.908C150.265 115.059 149.436 113.899 149.436 112.65V81.1499H166.436V112.65C166.436 113.792 165.616 114.955 164.091 115.913C162.168 116.871 160.052 117.35 157.936 117.35Z" fill="#E9EBEE" stroke="#E9EBEE"/>
<path d="M157.936 85.3499C155.819 85.3499 153.703 84.8706 151.78 83.9134C150.248 82.9507 149.436 81.8864 149.436 80.6499C149.436 79.4135 150.248 78.3492 151.78 77.3865C155.631 75.4694 160.151 75.4711 164.001 77.3917C165.506 78.2413 166.336 79.4007 166.336 80.6499C166.336 81.8876 165.522 82.9528 163.986 83.9161C162.168 84.8691 160.056 85.3499 157.936 85.3499Z" fill="#E9EBEE" stroke="#E9EBEE"/>
<path d="M218.536 120.35C216.415 120.35 214.296 119.869 212.37 118.908C210.865 118.059 210.036 116.899 210.036 115.65C210.036 114.414 210.848 113.349 212.38 112.387C216.231 110.469 220.751 110.471 224.601 112.392C226.106 113.241 226.936 114.401 226.936 115.65C226.936 116.888 226.122 117.953 224.586 118.916C222.768 119.869 220.656 120.35 218.536 120.35Z" fill="#E9EBEE" stroke="#E9EBEE"/>
<path fill-rule="evenodd" clip-rule="evenodd" d="M162.316 53.2347C171.569 47.8811 182.746 49.5535 192.756 55.3674C202.783 61.1915 211.375 70.7967 217.441 81.2982C223.506 91.7981 227.536 104.042 227.536 115.65C227.536 120.62 223.506 124.65 218.536 124.65C213.565 124.65 209.536 120.62 209.536 115.65C209.536 107.958 206.765 98.8015 201.855 90.3014C196.946 81.8029 190.388 74.8081 183.715 70.9322C177.025 67.0461 173.052 67.8185 171.33 68.8148C169.595 69.8186 166.936 72.9037 166.936 80.6498C166.936 85.6204 162.906 89.6498 157.936 89.6498C152.965 89.6498 148.936 85.6204 148.936 80.6498C148.936 69.0959 153.076 58.581 162.316 53.2347Z" fill="#E9EBEE"/>
<path d="M190.536 286.65V280.65C190.536 280.65 183.636 274.45 180.536 272.65C174.336 269.05 165.736 266.85 156.236 266.85C149.936 266.75 143.636 267.85 137.736 269.95L53.6355 225.65V231.65C53.7355 232.95 54.5355 234.15 55.8355 234.65L127.436 275.95C126.336 276.95 122.035 280.65 122.035 280.65V286.65C122.035 292.15 125.836 297.05 132.036 300.65C138.236 304.25 146.835 306.45 156.335 306.45C165.835 306.45 174.436 304.25 180.635 300.65C186.835 297.05 190.536 292.15 190.536 286.65ZM156.236 297.95C151.436 298.05 146.635 296.95 142.335 294.65C138.735 292.65 136.635 289.75 136.635 286.65C136.635 283.55 138.835 280.65 142.335 278.65C151.035 274.25 161.336 274.25 170.036 278.65C173.536 280.65 175.736 283.55 175.736 286.65C175.736 289.75 173.536 292.65 170.036 294.65C165.836 296.95 161.036 298.05 156.236 297.95Z" fill="#F9A000"/>
<path d="M190.536 280.65C190.536 275.15 186.736 270.25 180.536 266.65C174.336 263.05 165.736 260.85 156.236 260.85C149.936 260.75 143.636 261.85 137.736 263.95L66.1356 222.65C62.8356 220.95 59.0356 220.95 55.7356 222.65C54.0356 223.25 53.2356 225.05 53.7356 226.65C54.0356 227.55 54.7356 228.35 55.7356 228.65L127.336 269.95C123.936 273.05 121.936 276.65 121.936 280.65C121.936 286.15 125.736 291.05 131.936 294.65C138.136 298.25 146.736 300.45 156.236 300.45C165.736 300.45 174.336 298.25 180.536 294.65C186.736 291.05 190.536 286.15 190.536 280.65ZM156.236 291.95C151.436 292.05 146.636 290.95 142.336 288.65C138.736 286.65 136.636 283.75 136.636 280.65C136.636 277.55 138.836 274.65 142.336 272.65C151.036 268.25 161.336 268.25 170.036 272.65C173.536 274.65 175.736 277.55 175.736 280.65C175.736 283.75 173.536 286.65 170.036 288.65C165.836 290.95 161.036 292.05 156.236 291.95Z" fill="#FFD251"/>
<path d="M74.8355 243.65H48.1355V245.65C48.1355 246.05 48.4355 246.45 48.8355 246.65L59.2355 252.65C60.3355 253.15 61.6355 253.15 62.7355 252.65L74.8355 245.65V243.65Z" fill="#F9A000"/>
<path d="M60.9356 235.65L55.7356 238.65L66.8356 248.25L74.8356 243.65L60.9356 235.65Z" fill="#FBB900"/>
<path d="M66.8355 249.15V245.65L48.0355 241.65V243.65L59.1355 251.15C60.2355 251.65 61.5355 251.65 62.6355 251.15L66.8355 249.15Z" fill="#F9A000"/>
<path d="M66.8356 245.65C66.8356 245.25 66.5356 244.85 66.1356 244.65L55.7356 238.65C54.6356 238.15 53.3356 238.15 52.2356 238.65L48.7356 240.65C48.1356 240.85 47.8356 241.45 48.0356 241.95C48.1356 242.25 48.4356 242.55 48.7356 242.65L59.1356 248.65C60.2356 249.15 61.5356 249.15 62.6356 248.65L66.1356 246.65C66.5356 246.45 66.8356 246.05 66.8356 245.65Z" fill="#FFD251"/>
<path d="M175.036 213.15C174.136 213.15 173.236 212.85 172.436 212.45C169.736 210.75 168.136 207.85 167.936 204.75V192.65C167.036 191.65 166.236 190.45 165.536 189.25C163.836 186.35 162.836 183.05 162.736 179.75C162.736 176.35 164.036 173.75 166.236 172.45C167.236 171.85 168.336 171.55 169.536 171.65C171.236 171.65 172.936 172.15 174.436 173.05C180.136 176.75 183.736 182.95 184.136 189.75C184.136 193.15 182.836 195.75 180.636 197.05C180.136 197.35 179.536 197.55 178.936 197.75V208.75C179.036 211.25 177.336 213.15 175.036 213.15Z" fill="white"/>
<path d="M175.036 213.15C174.136 213.15 173.236 212.85 172.436 212.45C169.736 210.75 168.136 207.85 167.936 204.75V192.65C167.036 191.65 166.236 190.45 165.536 189.25C163.836 186.35 162.836 183.05 162.736 179.75C162.736 176.35 164.036 173.75 166.236 172.45C167.236 171.85 168.336 171.55 169.536 171.65C171.236 171.65 172.936 172.15 174.436 173.05C180.136 176.75 183.736 182.95 184.136 189.75C184.136 193.15 182.836 195.75 180.636 197.05C180.136 197.35 179.536 197.55 178.936 197.75V208.75C179.036 211.25 177.336 213.15 175.036 213.15Z" fill="white"/>
</g>
<defs>
<linearGradient id="paint0_linear_698_20312" x1="212.06" y1="269.075" x2="274.241" y2="369.217" gradientUnits="userSpaceOnUse">
<stop/>
<stop offset="0.821171" stop-opacity="0"/>
</linearGradient>
<linearGradient id="paint1_linear_698_20312" x1="123.676" y1="295.421" x2="165.779" y2="369.749" gradientUnits="userSpaceOnUse">
<stop/>
<stop offset="0.578125" stop-opacity="0"/>
</linearGradient>
<clipPath id="clip0_698_20312">
<rect width="376" height="324" fill="white" transform="translate(0.973877)"/>
</clipPath>
</defs>
</svg>
