<svg width="376" height="324" viewBox="0 0 376 324" fill="none" xmlns="http://www.w3.org/2000/svg">
<path d="M24.6497 182.153L69.7536 204.024L50.7612 215.57L7.01657 193.646L24.6497 182.153Z" fill="url(#paint0_linear_698_20313)"/>
<g clip-path="url(#clip0_698_20313)">
<path d="M228.808 241.07L274.278 267.72L181.048 322.081L135.559 295.192L228.808 241.07Z" fill="url(#paint1_linear_698_20313)" fill-opacity="0.1"/>
<path d="M1.89996 11V108L116.2 174V77L1.89996 11Z" fill="#E9EBEE"/>
<path d="M116.2 78L1.89996 12V0L116.2 66V78Z" fill="#CBCFD5"/>
<path d="M8.79996 10.0001C8.79996 11.1001 7.99996 11.6001 7.09996 11.0001C6.09996 10.3001 5.39996 9.20009 5.39996 8.00009C5.39996 6.90009 6.19996 6.40009 7.09996 7.00009C8.09996 7.70009 8.69996 8.80009 8.79996 10.0001Z" fill="white"/>
<path d="M15.7 14.0001C15.7 15.1001 14.9 15.6001 14 15.0001C13 14.3001 12.3 13.2001 12.3 12.0001C12.3 10.9001 13.1 10.4001 14 11.0001C15 11.7001 15.7 12.8001 15.7 14.0001Z" fill="white"/>
<path d="M22.7 18.0001C22.7 19.1001 21.9 19.5001 21 19.0001C20 18.3001 19.3 17.2001 19.3 16.0001C19.3 14.9001 20.1 14.4001 21 15.0001C22 15.7001 22.6 16.8001 22.7 18.0001Z" fill="white"/>
<path d="M55.6 66.0001C55.6 66.6001 55.2 66.8001 54.7 66.5001L46 61.5001C45.5 61.2001 45.2 60.6001 45.1 60.0001V50.0001C45.1 49.5001 45.5 49.2001 46 49.5001L54.7 54.5001C55.2 54.8001 55.5 55.4001 55.6 56.0001V66.0001Z" fill="#CBCFD5"/>
<path d="M105.8 155C105.8 155.6 105.4 155.8 104.9 155.5L46 121.5C45.5 121.2 45.2 120.6 45.1 120V102C45.1 101.4 45.5 101.2 46 101.5L104.9 135.5C105.4 135.8 105.7 136.4 105.8 137V155Z" fill="#CBCFD5"/>
<path d="M40 57.0001C40 57.5001 39.5999 57.8001 39.0999 57.5001L13.1 42.5001C12.6 42.2001 12.3 41.6001 12.2 41.0001V31.0001C12.2 30.5001 12.6 30.2001 13.1 30.5001L39.0999 45.5001C39.5999 45.8001 39.9 46.4001 40 47.0001V57.0001Z" fill="#DCDEE1"/>
<path d="M72 88.5001C72.5 88.8001 72.9 88.5001 72.9 88.0001C72.9 87.4001 72.5 86.8001 72 86.5001L46 71.5001C45.5 71.2001 45.1 71.5001 45.1 72.0001C45.1 72.6001 45.5 73.2001 46 73.5001L72 88.5001Z" fill="#CBCFD5"/>
<path d="M72 112.5C72.5 112.8 72.9 112.5 72.9 112C72.9 111.4 72.5 110.8 72 110.5L46 95.5001C45.5 95.2001 45.1 95.5001 45.1 96.0001C45.1 96.6001 45.5 97.2001 46 97.5001L72 112.5Z" fill="#CBCFD5"/>
<path d="M104.9 101.5C105.4 101.8 105.8 101.5 105.8 101C105.8 100.4 105.4 99.8001 104.9 99.5001L46 65.5001C45.5 65.2001 45.1 65.5001 45.1 66.0001C45.1 66.6001 45.5 67.2001 46 67.5001L104.9 101.5Z" fill="#CBCFD5"/>
<path d="M52.0999 56.9999C52.0999 58.0999 51.3 58.4999 50.4 57.9999C49.4 57.2999 48.7 56.1999 48.7 54.9999C48.7 53.8999 49.5 53.4999 50.4 53.9999C51.4 54.6999 51.9999 55.7999 52.0999 56.9999Z" fill="white"/>
<path d="M47.7999 60.4999C47.7999 59.3999 48.6 58.9999 49.5 59.4999L51.2 60.4999C52.2 61.1999 52.9 62.2999 52.9 63.4999V66.4999L47.7 63.4999L47.7999 60.4999Z" fill="white"/>
<path d="M20.9 65.0001C21.4 65.3001 21.8 65.0001 21.8 64.5001C21.8 63.9001 21.4 63.3001 20.9 63.0001L13.1 58.5001C12.6 58.2001 12.2 58.5001 12.2 59.0001C12.2 59.6001 12.6 60.2001 13.1 60.5001L20.9 65.0001Z" fill="#DCDEE1"/>
<path d="M25.3 73.5001C25.8 73.8001 26.2 73.5001 26.2 73.0001C26.2 72.4001 25.8 71.8001 25.3 71.5001L13.2 64.5001C12.7 64.2001 12.3 64.5001 12.3 65.0001C12.3 65.6001 12.7 66.2001 13.2 66.5001L25.3 73.5001Z" fill="#DCDEE1"/>
<path d="M33.9 84.5001C34.4 84.8001 34.7999 84.5001 34.7999 84.0001C34.7999 83.4001 34.4 82.8001 33.9 82.5001L13.1 70.5001C12.6 70.2001 12.2 70.5001 12.2 71.0001C12.2 71.6001 12.6 72.2001 13.1 72.5001L33.9 84.5001Z" fill="#DCDEE1"/>
<path d="M29.6 88.0001C30.1 88.3001 30.5 88.0001 30.5 87.5001C30.5 86.9001 30.1 86.3001 29.6 86.0001L13.1 76.5001C12.6 76.2001 12.2 76.5001 12.2 77.0001C12.2 77.6001 12.6 78.2001 13.1 78.5001L29.6 88.0001Z" fill="#DCDEE1"/>
<path d="M20.9 59.0001C21.4 59.3001 21.8 59.0001 21.8 58.5001C21.8 57.9001 21.4 57.3001 20.9 57.0001L13.1 52.5001C12.6 52.2001 12.2 52.5001 12.2 53.0001C12.2 53.6001 12.6 54.2001 13.1 54.5001L20.9 59.0001Z" fill="#DCDEE1"/>
<path d="M29.6 58.0001C30.1 58.3001 30.5 58.0001 30.5 57.5001C30.5 56.9001 30.1 56.3001 29.6 56.0001L13.1 46.5001C12.6 46.2001 12.2 46.5001 12.2 47.0001C12.2 47.6001 12.6 48.2001 13.1 48.5001L29.6 58.0001Z" fill="#DCDEE1"/>
<path d="M35 186.6C35 187.6 33.2 191.6 30.2 193.3C23.6 197.1 13 197.1 6.39998 193.3C3.39998 191.6 1.39998 189.3 1.09998 188V162C1.39998 159.8 2.99998 157.6 5.99998 155.9C12.6 152.2 23.4 152.2 30.1 155.9C33.1 157.6 34.8 159.9 35 161.7C35 161.6 35 186 35 186.6Z" fill="#CBCFD5"/>
<path d="M6.09997 155.2C12.7 151.4 23.5 151.4 30.2 155.2C36.9 159 36.8 165.2 30.2 169C23.6 172.8 12.8 172.8 6.19997 169C-0.600029 165.2 -0.600028 159 6.09997 155.2Z" fill="#EAEEF3"/>
<path d="M8.19996 156.6C13.7 153.6 22.5 153.6 28 156.6C33.5 159.6 33.5 164.5 28 167.5C22.5 170.5 13.7 170.5 8.19996 167.5C2.79996 164.6 2.79996 159.7 8.19996 156.6Z" fill="#1F5C3A"/>
<path d="M10.9 159.8C10.9 159.8 -1.2 152.6 2.2 146.3C6.3 138.6 6.5 140.2 2.2 130.8C-0.700004 124.4 3 117.8 7.6 115.3C15.8 110.8 11.4 117.4 9.9 123.3C8.4 129.4 13.4 128.9 13.7 136.8C14 145 18.1 144.8 17.6 149.8C17.3 154.2 14.7 157.9 10.9 159.8Z" fill="#5BD682"/>
<path d="M18.8 161.2C18.8 161.2 13.7 148.1 20.1 145.2C28.1 141.6 22.3 140.1 28.6 131.9C33.4 125.8 39 127.5 41 122.8C43.5 116.9 47.5 131.8 41.7 134.2C34.7 137.2 36.8 138.8 32.6 145.5C28.4 152.2 33.5 153.7 30 157.5C27.3 160.7 23 162.1 18.8 161.2Z" fill="#35B65E"/>
<path d="M17.5999 165.8C10.6999 165.8 8.09995 155.9 10.1999 146.3C12.1999 137.3 19.1999 137.4 19.5999 129.5C20.0999 118.9 36.1999 139.1 28.8999 144.2C21.7999 149.2 31.3999 153 27.6999 157.7C25.8999 159.9 27.1999 165.8 17.5999 165.8Z" fill="#31854C"/>
<path d="M375.4 272.1C375.8 272.7 376 273.3 376 274V324L324 294V244C323.9 243.5 324.2 243 324.6 242.8L348.9 234.4C349.3 234.3 349.7 234.4 350 234.6C350.4 234.9 350.8 235.2 351.1 235.7L375.4 272.1Z" fill="#F9A000"/>
<path d="M372.3 274.1C372.2 273.8 371.9 273.6 371.7 273.5L328.4 248.5C328.2 248.4 328 248.3 327.8 248.4C327.6 248.5 327.5 248.7 327.5 249V291C327.5 291.3 327.6 291.6 327.8 291.9C327.9 292.2 328.2 292.4 328.4 292.5L371.7 317.5C371.9 317.6 372.1 317.7 372.3 317.6C372.5 317.5 372.6 317.3 372.6 317V275C372.5 274.7 372.4 274.4 372.3 274.1Z" fill="white"/>
<path d="M324 294L376 324V276L324 294Z" fill="#FFD251"/>
<path d="M352 284.3L376 324L346.2 286.3L352 284.3Z" fill="#FBB900"/>
<path d="M376 324L324 294V246L376 324Z" fill="#FFD251"/>
<path d="M313.6 288L261.7 258V210L313.6 240V288Z" fill="#DCDEE1"/>
<path d="M289.6 248.3L313.6 288L283.9 250.3L289.6 248.3Z" fill="#CBCFD5"/>
<path d="M313.6 288L261.7 258V210L313.6 288Z" fill="#DCDEE1"/>
<path d="M313 243.2C313.5 243 313.7 242.5 313.6 242V240L261.6 210V212C261.6 212.7 261.9 213.4 262.2 213.9L286.5 250.3C286.8 250.7 287.2 251.1 287.6 251.4C287.9 251.6 288.3 251.7 288.7 251.6L313 243.2Z" fill="#E9EBEE"/>
<path d="M313.6 228L261.7 198V150L313.6 180V228Z" fill="#DCDEE1"/>
<path d="M289.6 188.3L313.6 228L283.9 190.3L289.6 188.3Z" fill="#CBCFD5"/>
<path d="M313.6 228L261.7 198V150L313.6 228Z" fill="#DCDEE1"/>
<path d="M313 183.2C313.5 183 313.7 182.5 313.6 182V180L261.6 150V152C261.6 152.7 261.9 153.4 262.2 153.9L286.5 190.3C286.8 190.7 287.2 191.1 287.6 191.4C287.9 191.6 288.3 191.7 288.7 191.6L313 183.2Z" fill="#E9EBEE"/>
<path d="M286.4 289.7C286.4 289.7 286.4 291.8 286.4 292.4C286.4 293.2 285.8 294.1 284.6 294.7L251.8 313.5C249.7 314.7 246.4 314.9 244.6 313.8L227.8 304.2C227.1 303.9 226.6 303.1 226.6 302.3C226.6 301.5 226.6 299.7 226.6 299.7L286.4 289.7Z" fill="#CBCFD5"/>
<path d="M268.4 278.9L285.2 288.5C287.1 289.6 286.8 291.4 284.7 292.6L251.9 311.4C249.8 312.6 246.5 312.8 244.7 311.7L227.9 302.1C226.1 301 226.3 299.2 228.4 298L261.2 279.2C263.3 278 266.5 277.9 268.4 278.9Z" fill="#E9EBEE"/>
<path d="M265.8 281.6L280.6 290.1C282.2 291 282 292.7 280.1 293.8L253.8 309.1C251.9 310.2 249 310.3 247.4 309.4L232.6 300.9C231 300 231.2 298.3 233.1 297.2L259.4 281.9C261.3 280.8 264.1 280.7 265.8 281.6Z" fill="#393E41"/>
<path d="M255.5 289C255.5 289 253.8 289.8 251.5 291C250.1 291.7 250.2 293.7 250.2 295.7C250.2 296.8 250.5 298 250.9 299.1C252.7 299.5 254.5 299.7 256.3 299.8C258.4 299.7 259.9 299.8 261 299.1C262.8 298 266.4 295.7 266.4 295.7L263 290.3L255.5 289Z" fill="white"/>
<path d="M260.2 295.7H254.8C254.4 295.7 254.1 295.4 254.1 295V293C254.1 292.6 254.4 292.3 254.8 292.3C255.2 292.3 255.5 292.6 255.5 293V294.3H260.2C260.6 294.3 260.9 294.6 260.9 295C260.9 295.4 260.6 295.7 260.2 295.7Z" fill="#393E41"/>
<path d="M35.1 235V237C35.2 237.9 35.7 238.6 36.5 239L154.3 307C156.5 308.1 159.1 308.1 161.2 307L251.3 255V253L35.1 235Z" fill="#CBCFD5"/>
<path d="M36.5 232C35.4 232.4 34.8 233.6 35.2 234.7C35.4 235.3 35.9 235.8 36.5 236L154.3 304C156.5 305.1 159.1 305.1 161.2 304L251.3 252L246.1 243L131.8 177L126.6 180L36.5 232Z" fill="#EBEDF0"/>
<path d="M83.3 251C82.7 250.8 82.5 250.2 82.7 249.6C82.8 249.3 83 249.1 83.3 249L114.5 231C115.6 230.5 116.9 230.5 118 231L164.8 258C165.4 258.2 165.7 258.8 165.5 259.3C165.4 259.6 165.1 259.9 164.8 260L133.6 278C132.5 278.5 131.2 278.5 130.1 278L83.3 251Z" fill="#DADCDE"/>
<path d="M83.3 252C82.7 251.8 82.5 251.2 82.7 250.6C82.8 250.3 83 250.1 83.3 250L114.5 232C115.6 231.5 116.9 231.5 118 232L164.8 259C165.4 259.2 165.7 259.8 165.5 260.3C165.4 260.6 165.1 260.9 164.8 261L133.6 279C132.5 279.5 131.2 279.5 130.1 279L83.3 252Z" fill="#CBCFD5"/>
<g opacity="0.48">
<path opacity="0.48" d="M121.9 226V227C121.9 227.2 122.1 227.4 122.2 227.5L170.7 255.5C171 255.6 171.3 255.7 171.6 255.7C171.9 255.7 172.2 255.6 172.5 255.5L177.7 252.5C177.9 252.4 178 252.2 178.1 252V251L121.9 226Z" fill="#CBCFD5"/>
<path opacity="0.48" d="M104.6 216V217C104.6 217.2 104.8 217.4 104.9 217.5L110.1 220.5C110.6 220.8 111.3 220.8 111.8 220.5L117 217.5C117.2 217.4 117.3 217.2 117.4 217V216H104.6Z" fill="#CBCFD5"/>
<path opacity="0.48" d="M113.2 211V212C113.2 212.2 113.4 212.4 113.5 212.5L118.7 215.5C119 215.6 119.3 215.7 119.6 215.7C119.9 215.7 120.2 215.6 120.5 215.5L125.7 212.5C125.9 212.4 126 212.2 126.1 212V211H113.2Z" fill="#CBCFD5"/>
<path opacity="0.48" d="M121.9 216V217C121.9 217.2 122.1 217.4 122.2 217.5L127.4 220.5C127.7 220.6 128 220.7 128.3 220.7C128.6 220.7 128.9 220.6 129.2 220.5L134.4 217.5C134.6 217.4 134.7 217.2 134.8 217V216H121.9Z" fill="#CBCFD5"/>
<path opacity="0.48" d="M130.6 221V222C130.6 222.2 130.8 222.4 131 222.5L136.2 225.5C136.5 225.6 136.8 225.7 137.1 225.7C137.4 225.7 137.7 225.6 138 225.5L143.2 222.5C143.4 222.4 143.5 222.2 143.6 222V221H130.6Z" fill="#CBCFD5"/>
<path opacity="0.48" d="M142.7 218V219C142.7 219.2 142.9 219.4 143.1 219.5L148.3 222.5C148.6 222.6 148.9 222.7 149.2 222.7C149.5 222.7 149.8 222.6 150.1 222.5L155.3 219.5C155.5 219.4 155.6 219.2 155.7 219V218H142.7Z" fill="#CBCFD5"/>
<path opacity="0.48" d="M139.2 226V227C139.2 227.2 139.4 227.4 139.6 227.5L144.8 230.5C145.1 230.6 145.4 230.7 145.7 230.7C146 230.7 146.3 230.6 146.6 230.5L151.8 227.5C152 227.4 152.1 227.2 152.2 227V226H139.2Z" fill="#CBCFD5"/>
<path opacity="0.48" d="M147.9 231V232C147.9 232.2 148.1 232.4 148.3 232.5L153.5 235.5C153.8 235.6 154.1 235.7 154.4 235.7C154.7 235.7 155 235.6 155.3 235.5L160.5 232.5C160.7 232.4 160.8 232.2 160.9 232V231H147.9Z" fill="#CBCFD5"/>
<path opacity="0.48" d="M151.3 223V224C151.3 224.2 151.5 224.4 151.7 224.5L156.9 227.5C157.2 227.6 157.5 227.7 157.8 227.7C158.1 227.7 158.4 227.6 158.7 227.5L163.9 224.5C164.1 224.4 164.2 224.2 164.3 224V223H151.3Z" fill="#CBCFD5"/>
<path opacity="0.48" d="M160 228V229C160 229.2 160.2 229.4 160.4 229.5L165.6 232.5C165.9 232.6 166.2 232.7 166.5 232.7C166.8 232.7 167.1 232.6 167.4 232.5L172.6 229.5C172.8 229.4 172.9 229.2 173 229V228H160Z" fill="#CBCFD5"/>
<path opacity="0.48" d="M168.7 233V234C168.7 234.2 168.9 234.4 169.1 234.5L174.3 237.5C174.6 237.6 174.9 237.7 175.2 237.7C175.5 237.7 175.8 237.6 176.1 237.5L181.3 234.5C181.5 234.4 181.6 234.2 181.7 234V233H168.7Z" fill="#CBCFD5"/>
<path opacity="0.48" d="M173.9 226V227C173.9 227.2 174.1 227.4 174.3 227.5L179.5 230.5C179.8 230.6 180.1 230.7 180.4 230.7C180.7 230.7 181 230.6 181.3 230.5L186.5 227.5C186.7 227.4 186.8 227.2 186.9 227V226H173.9Z" fill="#CBCFD5"/>
<path opacity="0.48" d="M156.5 236V237C156.5 237.2 156.7 237.4 156.9 237.5L162.1 240.5C162.4 240.6 162.7 240.7 163 240.7C163.3 240.7 163.6 240.6 163.9 240.5L169.1 237.5C169.3 237.4 169.4 237.2 169.5 237V236H156.5Z" fill="#CBCFD5"/>
<path opacity="0.48" d="M165.2 241V242C165.2 242.2 165.4 242.4 165.6 242.5L170.8 245.5C171.1 245.6 171.4 245.7 171.7 245.7C172 245.7 172.3 245.6 172.6 245.5L177.8 242.5C178 242.4 178.1 242.2 178.2 242V241H165.2Z" fill="#CBCFD5"/>
<path opacity="0.48" d="M177.3 238V239C177.3 239.2 177.5 239.4 177.7 239.5L182.9 242.5C183.2 242.6 183.5 242.7 183.8 242.7C184.1 242.7 184.4 242.6 184.7 242.5L189.9 239.5C190.1 239.4 190.2 239.2 190.3 239V238H177.3Z" fill="#CBCFD5"/>
<path opacity="0.48" d="M182.5 231V232C182.5 232.2 182.7 232.4 182.9 232.5L188.1 235.5C188.4 235.6 188.7 235.7 189 235.7C189.3 235.7 189.6 235.6 189.9 235.5L195.1 232.5C195.3 232.4 195.4 232.2 195.5 232V231H182.5Z" fill="#CBCFD5"/>
<path opacity="0.48" d="M191.2 236V237C191.2 237.2 191.4 237.4 191.6 237.5L196.8 240.5C197.1 240.6 197.4 240.7 197.7 240.7C198 240.7 198.3 240.6 198.6 240.5L203.8 237.5C204 237.4 204.1 237.2 204.2 237V236H191.2Z" fill="#CBCFD5"/>
<path opacity="0.48" d="M186 243V244C186 244.2 186.2 244.4 186.4 244.5L191.6 247.5C191.9 247.6 192.2 247.7 192.5 247.7C192.8 247.7 193.1 247.6 193.4 247.5L198.6 244.5C198.8 244.4 198.9 244.2 199 244V243H186Z" fill="#CBCFD5"/>
<path opacity="0.48" d="M182.5 251V252C182.5 252.2 182.7 252.4 182.9 252.5L188.1 255.5C188.4 255.6 188.7 255.7 189 255.7C189.3 255.7 189.6 255.6 189.9 255.5L195.1 252.5C195.3 252.4 195.4 252.2 195.5 252V251H182.5Z" fill="#CBCFD5"/>
<path opacity="0.48" d="M194.6 248V249C194.6 249.2 194.8 249.4 195 249.5L200.2 252.5C200.5 252.6 200.8 252.7 201.1 252.7C201.4 252.7 201.7 252.6 202 252.5L207.2 249.5C207.4 249.4 207.5 249.2 207.6 249V248H194.6Z" fill="#CBCFD5"/>
<path opacity="0.48" d="M199.8 241V242C199.8 242.2 200 242.4 200.2 242.5L205.4 245.5C205.7 245.6 206 245.7 206.3 245.7C206.6 245.7 206.9 245.6 207.2 245.5L212.4 242.5C212.6 242.4 212.7 242.2 212.8 242V241H199.8Z" fill="#CBCFD5"/>
<path opacity="0.48" d="M208.5 246V247C208.5 247.2 208.7 247.4 208.9 247.5L214.1 250.5C214.6 250.8 215.3 250.8 215.8 250.5L221 247.5C221.2 247.4 221.3 247.2 221.4 247V246H208.5Z" fill="#CBCFD5"/>
<path opacity="0.48" d="M217.2 251V252C217.2 252.2 217.4 252.4 217.6 252.5L222.8 255.5C223.3 255.8 224 255.8 224.5 255.5L229.7 252.5C229.9 252.4 230 252.2 230.1 252V251H217.2Z" fill="#CBCFD5"/>
<path opacity="0.48" d="M191.2 256V257C191.2 257.2 191.4 257.4 191.6 257.5L196.8 260.5C197.1 260.6 197.4 260.7 197.7 260.7C198 260.7 198.3 260.6 198.6 260.5L203.8 257.5C204 257.4 204.1 257.2 204.2 257V256H191.2Z" fill="#CBCFD5"/>
<path opacity="0.48" d="M191.2 266V267C191.2 267.2 191.4 267.4 191.6 267.5L196.8 270.5C197.1 270.6 197.4 270.7 197.7 270.7C198 270.7 198.3 270.6 198.6 270.5L203.8 267.5C204 267.4 204.1 267.2 204.2 267V266H191.2Z" fill="#CBCFD5"/>
<path opacity="0.48" d="M173.9 256V257C173.9 257.2 174.1 257.4 174.3 257.5L179.5 260.5C179.8 260.6 180.1 260.7 180.4 260.7C180.7 260.7 181 260.6 181.3 260.5L186.5 257.5C186.7 257.4 186.8 257.2 186.9 257V256H173.9Z" fill="#CBCFD5"/>
<path opacity="0.48" d="M182.5 261V262C182.5 262.2 182.7 262.4 182.9 262.5L188.1 265.5C188.4 265.6 188.7 265.7 189 265.7C189.3 265.7 189.6 265.6 189.9 265.5L195.1 262.5C195.3 262.4 195.4 262.2 195.5 262V261H182.5Z" fill="#CBCFD5"/>
<path opacity="0.48" d="M173.9 246V247C173.9 247.2 174.1 247.4 174.3 247.5L179.5 250.5C179.8 250.6 180.1 250.7 180.4 250.7C180.7 250.7 181 250.6 181.3 250.5L186.5 247.5C186.7 247.4 186.8 247.2 186.9 247V246H173.9Z" fill="#CBCFD5"/>
<path opacity="0.48" d="M156.5 216V217C156.5 217.2 156.7 217.4 156.9 217.5L162.1 220.5C162.4 220.6 162.7 220.7 163 220.7C163.3 220.7 163.6 220.6 163.9 220.5L169.1 217.5C169.3 217.4 169.4 217.2 169.5 217V216H156.5Z" fill="#CBCFD5"/>
<path opacity="0.48" d="M165.2 221V222C165.2 222.2 165.4 222.4 165.6 222.5L170.8 225.5C171.1 225.6 171.4 225.7 171.7 225.7C172 225.7 172.3 225.6 172.6 225.5L177.8 222.5C178 222.4 178.1 222.2 178.2 222V221H165.2Z" fill="#CBCFD5"/>
<path opacity="0.48" d="M147.9 211V212C147.9 212.2 148.1 212.4 148.3 212.5L153.5 215.5C153.8 215.6 154.1 215.7 154.4 215.7C154.7 215.7 155 215.6 155.3 215.5L160.5 212.5C160.7 212.4 160.8 212.2 160.9 212V211H147.9Z" fill="#CBCFD5"/>
<path opacity="0.48" d="M113.2 221V222C113.2 222.2 113.4 222.4 113.5 222.5L118.7 225.5C119 225.6 119.3 225.7 119.6 225.7C119.9 225.7 120.2 225.6 120.5 225.5L125.7 222.5C125.9 222.4 126 222.2 126.1 222V221H113.2Z" fill="#CBCFD5"/>
<path opacity="0.48" d="M125.4 208V209C125.4 209.2 125.6 209.4 125.8 209.5L131 212.5C131.3 212.6 131.6 212.7 131.9 212.7C132.2 212.7 132.5 212.6 132.8 212.5L138 209.5C138.2 209.4 138.3 209.2 138.4 209V208H125.4Z" fill="#CBCFD5"/>
<path opacity="0.48" d="M130.6 201V202C130.6 202.2 130.8 202.4 131 202.5L136.2 205.5C136.5 205.6 136.8 205.7 137.1 205.7C137.4 205.7 137.7 205.6 138 205.5L143.2 202.5C143.4 202.4 143.5 202.2 143.6 202V201H130.6Z" fill="#CBCFD5"/>
<path opacity="0.48" d="M139.2 206V207C139.2 207.2 139.4 207.4 139.6 207.5L144.8 210.5C145.1 210.6 145.4 210.7 145.7 210.7C146 210.7 146.3 210.6 146.6 210.5L151.8 207.5C152 207.4 152.1 207.2 152.2 207V206H139.2Z" fill="#CBCFD5"/>
<path opacity="0.48" d="M134 213V214C134 214.2 134.2 214.4 134.4 214.5L139.6 217.5C139.9 217.6 140.2 217.7 140.5 217.7C140.8 217.7 141.1 217.6 141.4 217.5L146.6 214.5C146.8 214.4 146.9 214.2 147 214V213H134Z" fill="#CBCFD5"/>
<path opacity="0.48" d="M94.2 210V211C94.2 211.2 94.4 211.4 94.6 211.5L101.5 215.5C102 215.8 102.7 215.8 103.2 215.5L108.4 212.5C108.6 212.4 108.7 212.2 108.8 212V211L94.2 210Z" fill="#CBCFD5"/>
<path opacity="0.48" d="M102.8 205V206C102.8 206.2 103 206.4 103.2 206.5L110.1 210.5C110.6 210.8 111.3 210.8 111.8 210.5L117 207.5C117.2 207.4 117.3 207.2 117.4 207V206L102.8 205Z" fill="#CBCFD5"/>
<path opacity="0.48" d="M221.3 257V256L203.3 253V254C203.3 254.2 203.5 254.4 203.7 254.5L208 257L199.9 261V262C199.9 262.2 200.1 262.4 200.3 262.5L205.5 265.5C206 265.8 206.7 265.8 207.2 265.5L221.1 257.5C221.2 257.4 221.3 257.2 221.3 257Z" fill="#CBCFD5"/>
<path opacity="0.48" d="M111.5 200V201C111.5 201.2 111.7 201.4 111.9 201.5L122.3 207.5C122.8 207.8 123.5 207.8 124 207.5L129.2 204.5C129.4 204.4 129.5 204.2 129.6 204V203L111.5 200Z" fill="#CBCFD5"/>
<path opacity="0.48" d="M120.2 195V196C120.2 196.2 120.4 196.4 120.6 196.5L127.5 200.5C127.8 200.6 128.1 200.7 128.4 200.7C128.7 200.7 129 200.6 129.3 200.5L134.5 197.5C134.7 197.4 134.8 197.2 134.9 197V196L120.2 195Z" fill="#CBCFD5"/>
</g>
<path d="M191.5 265.5C191.2 265.6 191.1 265.9 191.2 266.2C191.3 266.4 191.4 266.5 191.5 266.5L196.7 269.5C197 269.6 197.3 269.7 197.6 269.7C197.9 269.7 198.2 269.6 198.5 269.5L203.7 266.5C204 266.4 204.1 266.1 204 265.8C203.9 265.6 203.8 265.5 203.7 265.5L198.5 262.5C198.2 262.4 197.9 262.3 197.6 262.3C197.3 262.3 197 262.4 196.7 262.5L191.5 265.5Z" fill="white"/>
<path d="M182.9 260.5C182.6 260.6 182.5 260.9 182.6 261.2C182.7 261.4 182.8 261.5 182.9 261.5L188.1 264.5C188.4 264.6 188.7 264.7 189 264.7C189.3 264.7 189.6 264.6 189.9 264.5L195.1 261.5C195.4 261.4 195.5 261.1 195.4 260.8C195.3 260.6 195.2 260.5 195.1 260.5L189.9 257.5C189.6 257.4 189.3 257.3 189 257.3C188.7 257.3 188.4 257.4 188.1 257.5L182.9 260.5Z" fill="white"/>
<path d="M174.2 255.5C173.9 255.6 173.8 255.9 173.9 256.2C174 256.4 174.1 256.5 174.2 256.5L179.4 259.5C179.7 259.6 180 259.7 180.3 259.7C180.6 259.7 180.9 259.6 181.2 259.5L186.4 256.5C186.7 256.4 186.8 256.1 186.7 255.8C186.6 255.6 186.5 255.5 186.4 255.5L181.2 252.5C180.9 252.4 180.6 252.3 180.3 252.3C180 252.3 179.7 252.4 179.4 252.5L174.2 255.5Z" fill="white"/>
<path d="M122.3 225.5C122 225.6 121.9 225.9 122 226.2C122.1 226.4 122.2 226.5 122.3 226.5L170.8 254.5C171.1 254.6 171.4 254.7 171.7 254.7C172 254.7 172.3 254.6 172.6 254.5L177.8 251.5C178.1 251.4 178.2 251.1 178.1 250.8C178 250.6 177.9 250.5 177.8 250.5L129.3 222.5C129 222.4 128.7 222.3 128.4 222.3C128.1 222.3 127.8 222.4 127.5 222.5L122.3 225.5Z" fill="white"/>
<path d="M113.6 220.5C113.3 220.6 113.2 220.9 113.3 221.2C113.4 221.4 113.5 221.5 113.6 221.5L118.8 224.5C119.1 224.6 119.4 224.7 119.7 224.7C120 224.7 120.3 224.6 120.6 224.5L125.8 221.5C126.1 221.4 126.2 221.1 126.1 220.8C126 220.6 125.9 220.5 125.8 220.5L120.6 217.5C120.3 217.4 120 217.3 119.7 217.3C119.4 217.3 119.1 217.4 118.8 217.5L113.6 220.5Z" fill="white"/>
<path d="M104.9 215.5C104.6 215.6 104.5 215.9 104.6 216.2C104.7 216.4 104.8 216.5 104.9 216.5L110.1 219.5C110.6 219.8 111.3 219.8 111.8 219.5L117 216.5C117.3 216.4 117.4 216.1 117.3 215.8C117.2 215.6 117.1 215.5 117 215.5L111.8 212.5C111.3 212.2 110.6 212.2 110.1 212.5L104.9 215.5Z" fill="white"/>
<path d="M94.5 209.5C94.2 209.6 94.1 209.9 94.2 210.2C94.3 210.4 94.4 210.5 94.5 210.5L101.4 214.5C101.9 214.8 102.6 214.8 103.1 214.5L108.3 211.5C108.6 211.4 108.7 211.1 108.6 210.8C108.5 210.6 108.4 210.5 108.3 210.5L101.4 206.5C100.9 206.2 100.2 206.2 99.7 206.5L94.5 209.5Z" fill="white"/>
<path d="M191.5 255.5C191.2 255.6 191.1 255.9 191.2 256.2C191.3 256.4 191.4 256.5 191.5 256.5L196.7 259.5C197 259.6 197.3 259.7 197.6 259.7C197.9 259.7 198.2 259.6 198.5 259.5L203.7 256.5C204 256.4 204.1 256.1 204 255.8C203.9 255.6 203.8 255.5 203.7 255.5L198.5 252.5C198.2 252.4 197.9 252.3 197.6 252.3C197.3 252.3 197 252.4 196.7 252.5L191.5 255.5Z" fill="white"/>
<path d="M182.9 250.5C182.6 250.6 182.5 250.9 182.6 251.2C182.7 251.4 182.8 251.5 182.9 251.5L188.1 254.5C188.4 254.6 188.7 254.7 189 254.7C189.3 254.7 189.6 254.6 189.9 254.5L195.1 251.5C195.4 251.4 195.5 251.1 195.4 250.8C195.3 250.6 195.2 250.5 195.1 250.5L189.9 247.5C189.6 247.4 189.3 247.3 189 247.3C188.7 247.3 188.4 247.4 188.1 247.5L182.9 250.5Z" fill="white"/>
<path d="M174.2 245.5C173.9 245.6 173.8 245.9 173.9 246.2C174 246.4 174.1 246.5 174.2 246.5L179.4 249.5C179.7 249.6 180 249.7 180.3 249.7C180.6 249.7 180.9 249.6 181.2 249.5L186.4 246.5C186.7 246.4 186.8 246.1 186.7 245.8C186.6 245.6 186.5 245.5 186.4 245.5L181.2 242.5C180.9 242.4 180.6 242.3 180.3 242.3C180 242.3 179.7 242.4 179.4 242.5L174.2 245.5Z" fill="white"/>
<path d="M165.6 240.5C165.3 240.6 165.2 240.9 165.3 241.2C165.4 241.4 165.5 241.5 165.6 241.5L170.8 244.5C171.1 244.6 171.4 244.7 171.7 244.7C172 244.7 172.3 244.6 172.6 244.5L177.8 241.5C178.1 241.4 178.2 241.1 178.1 240.8C178 240.6 177.9 240.5 177.8 240.5L172.6 237.5C172.3 237.4 172 237.3 171.7 237.3C171.4 237.3 171.1 237.4 170.8 237.5L165.6 240.5Z" fill="white"/>
<path d="M156.9 235.5C156.6 235.6 156.5 235.9 156.6 236.2C156.7 236.4 156.8 236.5 156.9 236.5L162.1 239.5C162.4 239.6 162.7 239.7 163 239.7C163.3 239.7 163.6 239.6 163.9 239.5L169.1 236.5C169.4 236.4 169.5 236.1 169.4 235.8C169.3 235.6 169.2 235.5 169.1 235.5L163.9 232.5C163.6 232.4 163.3 232.3 163 232.3C162.7 232.3 162.4 232.4 162.1 232.5L156.9 235.5Z" fill="white"/>
<path d="M148.2 230.5C147.9 230.6 147.8 230.9 147.9 231.2C148 231.4 148.1 231.5 148.2 231.5L153.4 234.5C153.7 234.6 154 234.7 154.3 234.7C154.6 234.7 154.9 234.6 155.2 234.5L160.4 231.5C160.7 231.4 160.8 231.1 160.7 230.8C160.6 230.6 160.5 230.5 160.4 230.5L155.2 227.5C154.9 227.4 154.6 227.3 154.3 227.3C154 227.3 153.7 227.4 153.4 227.5L148.2 230.5Z" fill="white"/>
<path d="M139.6 225.5C139.3 225.6 139.2 225.9 139.3 226.2C139.4 226.4 139.5 226.5 139.6 226.5L144.8 229.5C145.1 229.6 145.4 229.7 145.7 229.7C146 229.7 146.3 229.6 146.6 229.5L151.8 226.5C152.1 226.4 152.2 226.1 152.1 225.8C152 225.6 151.9 225.5 151.8 225.5L146.6 222.5C146.3 222.4 146 222.3 145.7 222.3C145.4 222.3 145.1 222.4 144.8 222.5L139.6 225.5Z" fill="white"/>
<path d="M130.9 220.5C130.6 220.6 130.5 220.9 130.6 221.2C130.7 221.4 130.8 221.5 130.9 221.5L136.1 224.5C136.4 224.6 136.7 224.7 137 224.7C137.3 224.7 137.6 224.6 137.9 224.5L143.1 221.5C143.4 221.4 143.5 221.1 143.4 220.8C143.3 220.6 143.2 220.5 143.1 220.5L137.9 217.5C137.6 217.4 137.3 217.3 137 217.3C136.7 217.3 136.4 217.4 136.1 217.5L130.9 220.5Z" fill="white"/>
<path d="M122.3 215.5C122 215.6 121.9 215.9 122 216.2C122.1 216.4 122.2 216.5 122.3 216.5L127.5 219.5C127.8 219.6 128.1 219.7 128.4 219.7C128.7 219.7 129 219.6 129.3 219.5L134.5 216.5C134.8 216.4 134.9 216.1 134.8 215.8C134.7 215.6 134.6 215.5 134.5 215.5L129.3 212.5C129 212.4 128.7 212.3 128.4 212.3C128.1 212.3 127.8 212.4 127.5 212.5L122.3 215.5Z" fill="white"/>
<path d="M113.6 210.5C113.3 210.6 113.2 210.9 113.3 211.2C113.4 211.4 113.5 211.5 113.6 211.5L118.8 214.5C119.1 214.6 119.4 214.7 119.7 214.7C120 214.7 120.3 214.6 120.6 214.5L125.8 211.5C126.1 211.4 126.2 211.1 126.1 210.8C126 210.6 125.9 210.5 125.8 210.5L120.6 207.5C120.3 207.4 120 207.3 119.7 207.3C119.4 207.3 119.1 207.4 118.8 207.5L113.6 210.5Z" fill="white"/>
<path d="M103.2 204.5C102.9 204.6 102.8 204.9 102.9 205.2C103 205.4 103.1 205.5 103.2 205.5L110.1 209.5C110.6 209.8 111.3 209.8 111.8 209.5L117 206.5C117.3 206.4 117.4 206.1 117.3 205.8C117.2 205.6 117.1 205.5 117 205.5L110.1 201.5C109.6 201.2 108.9 201.2 108.4 201.5L103.2 204.5Z" fill="white"/>
<path d="M195 247.5C194.7 247.6 194.6 247.9 194.7 248.2C194.8 248.4 194.9 248.5 195 248.5L200.2 251.5C200.5 251.6 200.8 251.7 201.1 251.7C201.4 251.7 201.7 251.6 202 251.5L207.2 248.5C207.5 248.4 207.6 248.1 207.5 247.8C207.4 247.6 207.3 247.5 207.2 247.5L202 244.5C201.7 244.4 201.4 244.3 201.1 244.3C200.8 244.3 200.5 244.4 200.2 244.5L195 247.5Z" fill="white"/>
<path d="M221.3 256C221.3 255.8 221.1 255.6 220.9 255.5L210.5 249.5C210.2 249.4 209.9 249.3 209.6 249.3C209.3 249.3 209 249.4 208.7 249.5L203.5 252.5C203.2 252.6 203.1 252.9 203.2 253.2C203.3 253.4 203.4 253.5 203.5 253.5L207.8 256L200 260.5C199.7 260.6 199.6 260.9 199.7 261.2C199.8 261.4 199.9 261.5 200 261.5L205.2 264.5C205.7 264.8 206.4 264.8 206.9 264.5L220.8 256.5C221.2 256.4 221.3 256.2 221.3 256Z" fill="white"/>
<path d="M186.3 242.5C186 242.6 185.9 242.9 186 243.2C186.1 243.4 186.2 243.5 186.3 243.5L191.5 246.5C191.8 246.6 192.1 246.7 192.4 246.7C192.7 246.7 193 246.6 193.3 246.5L198.5 243.5C198.8 243.4 198.9 243.1 198.8 242.8C198.7 242.6 198.6 242.5 198.5 242.5L193.3 239.5C193 239.4 192.7 239.3 192.4 239.3C192.1 239.3 191.8 239.4 191.5 239.5L186.3 242.5Z" fill="white"/>
<path d="M177.7 237.5C177.4 237.6 177.3 237.9 177.4 238.2C177.5 238.4 177.6 238.5 177.7 238.5L182.9 241.5C183.2 241.6 183.5 241.7 183.8 241.7C184.1 241.7 184.4 241.6 184.7 241.5L189.9 238.5C190.2 238.4 190.3 238.1 190.2 237.8C190.1 237.6 190 237.5 189.9 237.5L184.7 234.5C184.4 234.4 184.1 234.3 183.8 234.3C183.5 234.3 183.2 234.4 182.9 234.5L177.7 237.5Z" fill="white"/>
<path d="M169 232.5C168.7 232.6 168.6 232.9 168.7 233.2C168.8 233.4 168.9 233.5 169 233.5L174.2 236.5C174.5 236.6 174.8 236.7 175.1 236.7C175.4 236.7 175.7 236.6 176 236.5L181.2 233.5C181.5 233.4 181.6 233.1 181.5 232.8C181.4 232.6 181.3 232.5 181.2 232.5L176 229.5C175.7 229.4 175.4 229.3 175.1 229.3C174.8 229.3 174.5 229.4 174.2 229.5L169 232.5Z" fill="white"/>
<path d="M160.4 227.5C160.1 227.6 160 227.9 160.1 228.2C160.2 228.4 160.3 228.5 160.4 228.5L165.6 231.5C165.9 231.6 166.2 231.7 166.5 231.7C166.8 231.7 167.1 231.6 167.4 231.5L172.6 228.5C172.9 228.4 173 228.1 172.9 227.8C172.8 227.6 172.7 227.5 172.6 227.5L167.4 224.5C167.1 224.4 166.8 224.3 166.5 224.3C166.2 224.3 165.9 224.4 165.6 224.5L160.4 227.5Z" fill="white"/>
<path d="M151.7 222.5C151.4 222.6 151.3 222.9 151.4 223.2C151.5 223.4 151.6 223.5 151.7 223.5L156.9 226.5C157.2 226.6 157.5 226.7 157.8 226.7C158.1 226.7 158.4 226.6 158.7 226.5L163.9 223.5C164.2 223.4 164.3 223.1 164.2 222.8C164.1 222.6 164 222.5 163.9 222.5L158.7 219.5C158.4 219.4 158.1 219.3 157.8 219.3C157.5 219.3 157.2 219.4 156.9 219.5L151.7 222.5Z" fill="white"/>
<path d="M143 217.5C142.7 217.6 142.6 217.9 142.7 218.2C142.8 218.4 142.9 218.5 143 218.5L148.2 221.5C148.5 221.6 148.8 221.7 149.1 221.7C149.4 221.7 149.7 221.6 150 221.5L155.2 218.5C155.5 218.4 155.6 218.1 155.5 217.8C155.4 217.6 155.3 217.5 155.2 217.5L150 214.5C149.7 214.4 149.4 214.3 149.1 214.3C148.8 214.3 148.5 214.4 148.2 214.5L143 217.5Z" fill="white"/>
<path d="M134.4 212.5C134.1 212.6 134 212.9 134.1 213.2C134.2 213.4 134.3 213.5 134.4 213.5L139.6 216.5C139.9 216.6 140.2 216.7 140.5 216.7C140.8 216.7 141.1 216.6 141.4 216.5L146.6 213.5C146.9 213.4 147 213.1 146.9 212.8C146.8 212.6 146.7 212.5 146.6 212.5L141.4 209.5C141.1 209.4 140.8 209.3 140.5 209.3C140.2 209.3 139.9 209.4 139.6 209.5L134.4 212.5Z" fill="white"/>
<path d="M125.7 207.5C125.4 207.6 125.3 207.9 125.4 208.2C125.5 208.4 125.6 208.5 125.7 208.5L130.9 211.5C131.2 211.6 131.5 211.7 131.8 211.7C132.1 211.7 132.4 211.6 132.7 211.5L137.9 208.5C138.2 208.4 138.3 208.1 138.2 207.8C138.1 207.6 138 207.5 137.9 207.5L132.7 204.5C132.4 204.4 132.1 204.3 131.8 204.3C131.5 204.3 131.2 204.4 130.9 204.5L125.7 207.5Z" fill="white"/>
<path d="M111.9 199.5C111.6 199.6 111.5 199.9 111.6 200.2C111.7 200.4 111.8 200.5 111.9 200.5L122.3 206.5C122.8 206.8 123.5 206.8 124 206.5L129.2 203.5C129.5 203.4 129.6 203.1 129.5 202.8C129.4 202.6 129.3 202.5 129.2 202.5L118.8 196.5C118.3 196.2 117.6 196.2 117.1 196.5L111.9 199.5Z" fill="white"/>
<path d="M217.5 250.5C217.2 250.6 217.1 250.9 217.2 251.2C217.3 251.4 217.4 251.5 217.5 251.5L222.7 254.5C223.2 254.8 223.9 254.8 224.4 254.5L229.6 251.5C229.9 251.4 230 251.1 229.9 250.8C229.8 250.6 229.7 250.5 229.6 250.5L224.4 247.5C223.9 247.2 223.2 247.2 222.7 247.5L217.5 250.5Z" fill="white"/>
<path d="M208.9 245.5C208.6 245.6 208.5 245.9 208.6 246.2C208.7 246.4 208.8 246.5 208.9 246.5L214.1 249.5C214.6 249.8 215.3 249.8 215.8 249.5L221 246.5C221.3 246.4 221.4 246.1 221.3 245.8C221.2 245.6 221.1 245.5 221 245.5L215.8 242.5C215.3 242.2 214.6 242.2 214.1 242.5L208.9 245.5Z" fill="white"/>
<path d="M200.2 240.5C199.9 240.6 199.8 240.9 199.9 241.2C200 241.4 200.1 241.5 200.2 241.5L205.4 244.5C205.7 244.6 206 244.7 206.3 244.7C206.6 244.7 206.9 244.6 207.2 244.5L212.4 241.5C212.7 241.4 212.8 241.1 212.7 240.8C212.6 240.6 212.5 240.5 212.4 240.5L207.2 237.5C206.9 237.4 206.6 237.3 206.3 237.3C206 237.3 205.7 237.4 205.4 237.5L200.2 240.5Z" fill="white"/>
<path d="M191.5 235.5C191.2 235.6 191.1 235.9 191.2 236.2C191.3 236.4 191.4 236.5 191.5 236.5L196.7 239.5C197 239.6 197.3 239.7 197.6 239.7C197.9 239.7 198.2 239.6 198.5 239.5L203.7 236.5C204 236.4 204.1 236.1 204 235.8C203.9 235.6 203.8 235.5 203.7 235.5L198.5 232.5C198.2 232.4 197.9 232.3 197.6 232.3C197.3 232.3 197 232.4 196.7 232.5L191.5 235.5Z" fill="white"/>
<path d="M182.9 230.5C182.6 230.6 182.5 230.9 182.6 231.2C182.7 231.4 182.8 231.5 182.9 231.5L188.1 234.5C188.4 234.6 188.7 234.7 189 234.7C189.3 234.7 189.6 234.6 189.9 234.5L195.1 231.5C195.4 231.4 195.5 231.1 195.4 230.8C195.3 230.6 195.2 230.5 195.1 230.5L189.9 227.5C189.6 227.4 189.3 227.3 189 227.3C188.7 227.3 188.4 227.4 188.1 227.5L182.9 230.5Z" fill="white"/>
<path d="M174.2 225.5C173.9 225.6 173.8 225.9 173.9 226.2C174 226.4 174.1 226.5 174.2 226.5L179.4 229.5C179.7 229.6 180 229.7 180.3 229.7C180.6 229.7 180.9 229.6 181.2 229.5L186.4 226.5C186.7 226.4 186.8 226.1 186.7 225.8C186.6 225.6 186.5 225.5 186.4 225.5L181.2 222.5C180.9 222.4 180.6 222.3 180.3 222.3C180 222.3 179.7 222.4 179.4 222.5L174.2 225.5Z" fill="white"/>
<path d="M165.6 220.5C165.3 220.6 165.2 220.9 165.3 221.2C165.4 221.4 165.5 221.5 165.6 221.5L170.8 224.5C171.1 224.6 171.4 224.7 171.7 224.7C172 224.7 172.3 224.6 172.6 224.5L177.8 221.5C178.1 221.4 178.2 221.1 178.1 220.8C178 220.6 177.9 220.5 177.8 220.5L172.6 217.5C172.3 217.4 172 217.3 171.7 217.3C171.4 217.3 171.1 217.4 170.8 217.5L165.6 220.5Z" fill="white"/>
<path d="M156.9 215.5C156.6 215.6 156.5 215.9 156.6 216.2C156.7 216.4 156.8 216.5 156.9 216.5L162.1 219.5C162.4 219.6 162.7 219.7 163 219.7C163.3 219.7 163.6 219.6 163.9 219.5L169.1 216.5C169.4 216.4 169.5 216.1 169.4 215.8C169.3 215.6 169.2 215.5 169.1 215.5L163.9 212.5C163.6 212.4 163.3 212.3 163 212.3C162.7 212.3 162.4 212.4 162.1 212.5L156.9 215.5Z" fill="white"/>
<path d="M148.2 210.5C147.9 210.6 147.8 210.9 147.9 211.2C148 211.4 148.1 211.5 148.2 211.5L153.4 214.5C153.7 214.6 154 214.7 154.3 214.7C154.6 214.7 154.9 214.6 155.2 214.5L160.4 211.5C160.7 211.4 160.8 211.1 160.7 210.8C160.6 210.6 160.5 210.5 160.4 210.5L155.2 207.5C154.9 207.4 154.6 207.3 154.3 207.3C154 207.3 153.7 207.4 153.4 207.5L148.2 210.5Z" fill="white"/>
<path d="M139.6 205.5C139.3 205.6 139.2 205.9 139.3 206.2C139.4 206.4 139.5 206.5 139.6 206.5L144.8 209.5C145.1 209.6 145.4 209.7 145.7 209.7C146 209.7 146.3 209.6 146.6 209.5L151.8 206.5C152.1 206.4 152.2 206.1 152.1 205.8C152 205.6 151.9 205.5 151.8 205.5L146.6 202.5C146.3 202.4 146 202.3 145.7 202.3C145.4 202.3 145.1 202.4 144.8 202.5L139.6 205.5Z" fill="white"/>
<path d="M130.9 200.5C130.6 200.6 130.5 200.9 130.6 201.2C130.7 201.4 130.8 201.5 130.9 201.5L136.1 204.5C136.4 204.6 136.7 204.7 137 204.7C137.3 204.7 137.6 204.6 137.9 204.5L143.1 201.5C143.4 201.4 143.5 201.1 143.4 200.8C143.3 200.6 143.2 200.5 143.1 200.5L137.9 197.5C137.6 197.4 137.3 197.3 137 197.3C136.7 197.3 136.4 197.4 136.1 197.5L130.9 200.5Z" fill="white"/>
<path d="M120.5 194.5C120.2 194.6 120.1 194.9 120.2 195.2C120.3 195.4 120.4 195.5 120.5 195.5L127.4 199.5C127.7 199.6 128 199.7 128.3 199.7C128.6 199.7 128.9 199.6 129.2 199.5L134.4 196.5C134.7 196.4 134.8 196.1 134.7 195.8C134.6 195.6 134.5 195.5 134.4 195.5L127.5 191.5C127 191.2 126.3 191.2 125.8 191.5L120.5 194.5Z" fill="white"/>
<path d="M127.6 73.8L129.3 72.8C130.1 72.4 131 72.5 131.7 73L249.5 141C250.5 141.6 251.4 142.5 251.9 143.6C252.5 144.6 252.9 145.8 252.9 147V251L251.2 252L127.6 73.8Z" fill="#393E41"/>
<path d="M126.6 76.0001C126.4 74.8001 127.1 73.7001 128.3 73.5001C128.9 73.4001 129.6 73.6001 130.1 74.0001L247.9 142C249.9 143.3 251.2 145.6 251.4 148V252L126.7 180V76.0001H126.6Z" fill="#4F5357"/>
<path d="M246.1 243L131.8 177V81L246.1 147V243Z" fill="#0367E4"/>
<path d="M188.8 156.6C188.8 152.2 185.7 146.8 181.9 144.6L162.4 133.3C158.6 131.1 155.5 132.9 155.5 137.3V149.1C155.5 153.5 158.6 158.9 162.4 161.1L181.9 172.4C185.7 174.6 188.8 172.8 188.8 168.4V156.6ZM181.6 166.9C181.4 166.6 181.2 166.3 180.9 166.2L163.1 156C162.9 155.9 162.6 155.8 162.4 155.9C162.6 155.8 162.7 155.6 162.7 155.3V139.9C162.7 139.6 162.6 139.3 162.4 139C162.6 139.3 162.8 139.6 163.1 139.7L180.9 149.9C181.1 150 181.4 150.1 181.6 150C181.4 150.1 181.3 150.3 181.3 150.6V166C181.4 166.2 181.4 166.6 181.6 166.9ZM210.2 174.3C210.5 174.5 210.7 174.5 210.9 174.4L222.2 167.9L212 162L205.8 165.6C205.6 165.7 205.5 165.9 205.5 166.2C205.5 165.9 205.4 165.5 205.2 165.2L199 154.5L188.8 148.6L200.1 168.2C200.3 168.5 200.5 168.8 200.8 168.9C200.5 168.7 200.3 168.7 200.1 168.8L187.8 175.9L197.2 181.3C197.7 181.6 198.2 181.6 198.6 181.4L205.2 177.6C205.4 177.5 205.5 177.3 205.5 177C205.5 177.3 205.6 177.7 205.8 178L212.4 189.4C212.7 190 213.2 190.6 213.8 190.9L223.2 196.3L210.8 175C210.7 174.7 210.4 174.5 210.2 174.3ZM226.5 171.1C226.5 170.9 226.4 170.6 226.3 170.4C226.2 170.2 225.9 170 225.7 169.8L225.1 169.4V171.9L225.6 172.2V171.3L225.8 171.4L226.3 172.6L226.8 172.9C226.7 172.7 226.5 172.2 226.2 171.5C226.3 171.5 226.4 171.5 226.5 171.4C226.5 171.4 226.5 171.2 226.5 171.1ZM226 171C225.9 171 225.8 171 225.7 170.9L225.6 170.8V170.1L225.7 170.2C225.8 170.3 226 170.4 226 170.5C226.1 170.6 226.1 170.7 226.1 170.8C226.1 171 226 171 226 171ZM225.8 168.9C224.7 168.3 223.8 168.8 223.8 170C223.8 171.3 224.7 172.8 225.8 173.4C226.9 174 227.8 173.5 227.8 172.3C227.8 171.1 226.9 169.6 225.8 168.9ZM225.8 173C224.9 172.5 224.2 171.3 224.2 170.3C224.2 169.3 224.9 168.9 225.8 169.4C226.7 169.9 227.4 171.1 227.4 172.1C227.4 173.1 226.7 173.5 225.8 173Z" fill="white"/>
</g>
<defs>
<linearGradient id="paint0_linear_698_20313" x1="11.1181" y1="195.673" x2="26.8102" y2="238.772" gradientUnits="userSpaceOnUse">
<stop stop-opacity="0.04"/>
<stop offset="0.671875" stop-opacity="0"/>
</linearGradient>
<linearGradient id="paint1_linear_698_20313" x1="142.976" y1="298.668" x2="179.358" y2="361.816" gradientUnits="userSpaceOnUse">
<stop offset="0.107575"/>
<stop offset="0.568412" stop-opacity="0"/>
</linearGradient>
<clipPath id="clip0_698_20313">
<rect width="376" height="324" fill="white"/>
</clipPath>
</defs>
</svg>
