<svg width="376" height="324" viewBox="0 0 376 324" fill="none" xmlns="http://www.w3.org/2000/svg">
<g clip-path="url(#clip0_7163_201057)">
<path d="M116.2 206L83.3 187V161L116.2 180V206Z" fill="#0367E4"/>
<path d="M104.9 191.5C104.6 191.3 104.4 191.1 104.3 190.9C104 190.3 104 189.7 104.3 189.5L107.1 187.9L104.3 183C104 182.4 104 181.8 104.3 181.6C104.6 181.4 105.2 181.7 105.5 182.3L109 188.3C109.3 188.9 109.3 189.5 109 189.7L105.5 191.7C105.3 191.7 105.1 191.6 104.9 191.5Z" fill="white"/>
<path d="M98 187.5C97.9 187.4 97.7 187.3 97.6 187.2C97.2 186.8 97 186.2 97.2 185.6L100.7 179.6C100.9 179.2 101.4 179.3 101.9 179.8C102.3 180.2 102.5 180.8 102.3 181.4L98.8 187.4C98.6 187.7 98.3 187.7 98 187.5Z" fill="white"/>
<path d="M94.5 185.5C94.2 185.3 94 185.1 93.9 184.9L90.4 178.9C90.1 178.3 90.1 177.7 90.4 177.5L93.9 175.5C94.2 175.3 94.8 175.6 95.1 176.2C95.4 176.8 95.4 177.4 95.1 177.6L92.3001 179.2L95.1 184.1C95.4 184.7 95.4 185.3 95.1 185.5C95 185.7 94.7 185.6 94.5 185.5Z" fill="white"/>
<path d="M1.90002 11V108L116.2 174V77L1.90002 11Z" fill="#E9EBEE"/>
<path d="M116.2 78L1.90002 12V0L116.2 66V78Z" fill="#CBCFD5"/>
<path d="M8.80002 10.0001C8.80002 11.1001 8.00002 11.6001 7.10002 11.0001C6.10002 10.3001 5.40002 9.20009 5.40002 8.00009C5.40002 6.90009 6.20002 6.40009 7.10002 7.00009C8.10002 7.70009 8.70002 8.80009 8.80002 10.0001Z" fill="white"/>
<path d="M15.7 14.0001C15.7 15.1001 14.9 15.6001 14 15.0001C13 14.3001 12.3 13.2001 12.3 12.0001C12.3 10.9001 13.1 10.4001 14 11.0001C15 11.7001 15.7 12.8001 15.7 14.0001Z" fill="white"/>
<path d="M22.7001 18.0001C22.7001 19.1001 21.9 19.5001 21 19.0001C20 18.3001 19.3 17.2001 19.3 16.0001C19.3 14.9001 20.1 14.4001 21 15.0001C22 15.7001 22.6001 16.8001 22.7001 18.0001Z" fill="white"/>
<path d="M106 159.226C106 159.829 105.598 160.03 105.095 159.728L45.904 125.56C45.4015 125.259 45.1 124.656 44.9995 124.053V114.003C44.9995 113.4 45.4015 113.199 45.904 113.501L105.095 147.669C105.598 147.97 105.899 148.573 106 149.176V159.226Z" fill="#CBCFD5"/>
<path d="M40.0001 57.0001C40.0001 57.5001 39.6001 57.8001 39.1001 57.5001L13.1001 42.5001C12.6001 42.2001 12.3001 41.6001 12.2001 41.0001V31.0001C12.2001 30.5001 12.6001 30.2001 13.1001 30.5001L39.1001 45.5001C39.6001 45.8001 39.9001 46.4001 40.0001 47.0001V57.0001Z" fill="#DCDEE1"/>
<path d="M72.0001 120.5C72.5001 120.8 72.9001 120.5 72.9001 120C72.9001 119.4 72.5001 118.8 72.0001 118.5L46.0001 103.5C45.5001 103.2 45.1001 103.5 45.1001 104C45.1001 104.6 45.5001 105.2 46.0001 105.5L72.0001 120.5Z" fill="#CBCFD5"/>
<path d="M104.9 133.5C105.4 133.8 105.8 133.5 105.8 133C105.8 132.4 105.4 131.8 104.9 131.5L46.0001 97.4999C45.5001 97.1999 45.1001 97.4999 45.1001 97.9999C45.1001 98.5999 45.5001 99.1999 46.0001 99.4999L104.9 133.5Z" fill="#CBCFD5"/>
<path d="M20.9001 65.0001C21.4001 65.3001 21.8001 65.0001 21.8001 64.5001C21.8001 63.9001 21.4001 63.3001 20.9001 63.0001L13.1001 58.5001C12.6001 58.2001 12.2001 58.5001 12.2001 59.0001C12.2001 59.6001 12.6001 60.2001 13.1001 60.5001L20.9001 65.0001Z" fill="#DCDEE1"/>
<path d="M25.3 73.4999C25.8 73.7999 26.2 73.4999 26.2 72.9999C26.2 72.3999 25.8 71.7999 25.3 71.4999L13.2 64.4999C12.7 64.1999 12.3 64.4999 12.3 64.9999C12.3 65.5999 12.7 66.1999 13.2 66.4999L25.3 73.4999Z" fill="#DCDEE1"/>
<path d="M33.9001 84.4999C34.4001 84.7999 34.8001 84.4999 34.8001 83.9999C34.8001 83.3999 34.4001 82.7999 33.9001 82.4999L13.1001 70.4999C12.6001 70.1999 12.2001 70.4999 12.2001 70.9999C12.2001 71.5999 12.6001 72.1999 13.1001 72.4999L33.9001 84.4999Z" fill="#DCDEE1"/>
<path d="M29.6001 87.9999C30.1001 88.2999 30.5001 87.9999 30.5001 87.4999C30.5001 86.8999 30.1001 86.2999 29.6001 85.9999L13.1001 76.4999C12.6001 76.1999 12.2001 76.4999 12.2001 76.9999C12.2001 77.5999 12.6001 78.1999 13.1001 78.4999L29.6001 87.9999Z" fill="#DCDEE1"/>
<path d="M20.9001 59.0001C21.4001 59.3001 21.8001 59.0001 21.8001 58.5001C21.8001 57.9001 21.4001 57.3001 20.9001 57.0001L13.1001 52.5001C12.6001 52.2001 12.2001 52.5001 12.2001 53.0001C12.2001 53.6001 12.6001 54.2001 13.1001 54.5001L20.9001 59.0001Z" fill="#DCDEE1"/>
<path d="M29.6001 58.0001C30.1001 58.3001 30.5001 58.0001 30.5001 57.5001C30.5001 56.9001 30.1001 56.3001 29.6001 56.0001L13.1001 46.5001C12.6001 46.2001 12.2001 46.5001 12.2001 47.0001C12.2001 47.6001 12.6001 48.2001 13.1001 48.5001L29.6001 58.0001Z" fill="#DCDEE1"/>
<path fill-rule="evenodd" clip-rule="evenodd" d="M103 109.777C103 115.15 99.2134 117.336 94.5347 114.676L60.372 95.0809C55.196 92.1121 51 84.8914 51 78.9517C51 73.012 55.196 70.6054 60.372 73.5753C60.9814 73.9283 61.5639 74.3254 62.1147 74.7633C62.1147 74.6998 62.1105 74.6356 62.1105 74.5725C62.1105 70.1184 65.2574 68.313 69.1396 70.5395C70.9667 71.5874 72.6298 73.3422 73.8807 75.3703C76.0601 72.4958 80.0096 72.0057 84.5205 74.5919C91.3869 78.5306 96.9535 88.11 96.9535 95.9883C96.9535 96.314 96.9406 96.6286 96.9217 96.9384C100.436 100.153 103 105.356 103 109.777Z" fill="white"/>
<path d="M82.4582 88.8725C82.3035 88.8024 82.1238 88.8158 81.9811 88.9079C81.8384 88.9999 81.7521 89.1582 81.7521 89.328V94.6539L79.2711 93.2067C79.1165 93.1165 78.9254 93.1158 78.7701 93.205C78.6149 93.2941 78.5192 93.4595 78.5192 93.6385V94.6444C78.5192 94.7321 78.5422 94.8183 78.5861 94.8942L82.3579 101.432C82.4951 101.67 82.7985 101.753 83.0375 101.617L86.8093 99.4798C86.966 99.391 87.0628 99.2249 87.0628 99.0448V98.039C87.0628 97.8612 86.9683 97.6967 86.8147 97.6071L84.3686 96.1802V90.0593C84.3686 89.8629 84.2537 89.6847 84.0747 89.6037L82.4582 88.8725Z" fill="#E9EBEE"/>
<path d="M77.6896 89.76C77.8443 89.8502 78.0354 89.8509 78.1906 89.7617C78.3459 89.6725 78.4416 89.5072 78.4416 89.3281V88.3223C78.4416 88.2346 78.4185 88.1484 78.3747 88.0725L74.6029 81.5346C74.4656 81.2968 74.1622 81.2141 73.9233 81.3495L70.1514 83.4869C69.9948 83.5756 69.8979 83.7418 69.8979 83.9219V84.9277C69.8979 85.1055 69.9924 85.27 70.146 85.3596L72.5921 86.7865V92.9074C72.5921 93.1038 72.7071 93.282 72.886 93.363L74.5025 94.0942C74.6573 94.1642 74.837 94.1509 74.9797 94.0588C75.1224 93.9667 75.2086 93.8085 75.2086 93.6387V88.3128L77.6896 89.76Z" fill="#CBCFD5"/>
<path d="M226.093 229.017L289.855 268.477L222.21 308.004L159.16 268.477L226.093 229.017Z" fill="url(#paint0_linear_7163_201057)" fill-opacity="0.05"/>
<circle cx="120.952" cy="152.995" r="2.95221" fill="#4F5357"/>
<circle cx="255.573" cy="152.995" r="2.95221" fill="#4F5357"/>
<path d="M144.628 126.601C168.912 113.186 207.768 113.186 232.053 126.601C256.338 140.017 256.338 161.929 232.053 175.344C207.768 188.76 168.912 188.76 144.628 175.344C120.784 162.376 120.784 140.464 144.628 126.601Z" fill="#0367E4"/>
<path fill-rule="evenodd" clip-rule="evenodd" d="M235.912 122.378C209.319 107.306 166.453 107.306 140.257 122.378C113.664 137.449 113.664 162.04 140.654 177.111C166.85 192.183 209.716 192.183 235.912 177.111C262.108 162.04 262.505 137.449 235.912 122.378ZM230.512 126.282C207.086 113.292 169.606 113.292 146.181 126.282C123.181 139.705 123.181 160.921 146.181 173.478C169.606 186.467 207.086 186.467 230.512 173.478C253.937 160.488 253.937 139.272 230.512 126.282Z" fill="#428BF0"/>
<path fill-rule="evenodd" clip-rule="evenodd" d="M247.095 158.038L247.095 158.038C247.095 157.216 246.548 156.394 245.471 155.788L221.988 142.226C220.912 141.6 219.483 141.287 218.074 141.287C216.665 141.287 215.236 141.6 214.16 142.226L190.677 155.788C189.6 156.394 189.053 157.216 189.053 158.038L189.053 158.038L189.052 158.038V159.76C189.052 160.582 189.6 161.404 190.677 162.011L214.16 175.572C215.236 176.199 216.665 176.512 218.074 176.512C219.483 176.512 220.912 176.199 221.988 175.572L245.471 162.011C246.548 161.385 247.095 160.563 247.095 159.76V158.038Z" fill="#FFD251"/>
<path d="M245.471 160.289L221.988 173.85C220.912 174.477 219.483 174.79 218.074 174.79C216.665 174.79 215.236 174.477 214.16 173.85L190.677 160.289C189.6 159.663 189.052 158.841 189.052 158.038V162.559C189.052 163.381 189.6 164.203 190.677 164.809L214.16 178.371C215.236 178.997 216.665 179.31 218.074 179.31C219.483 179.31 220.912 178.997 221.988 178.371L245.471 164.809C246.548 164.183 247.095 163.361 247.095 162.559V158.038C247.095 158.86 246.548 159.663 245.471 160.289Z" fill="#F9A000"/>
<path opacity="0.2" d="M245.471 160.289L221.988 173.85C220.912 174.477 219.483 174.79 218.074 174.79C216.665 174.79 215.236 174.477 214.16 173.85L190.677 160.289C189.6 159.663 189.052 158.841 189.052 158.038V214.292C189.052 215.114 189.6 215.936 190.677 216.542L214.16 230.104C215.236 230.73 216.665 231.043 218.074 231.043C219.483 231.043 220.912 230.73 221.988 230.104L245.471 216.542C246.548 215.916 247.095 215.094 247.095 214.292V158.038C247.095 158.86 246.548 159.663 245.471 160.289Z" fill="#F9A000"/>
<path fill-rule="evenodd" clip-rule="evenodd" d="M208.647 157.24L203.01 160.455C202.855 160.509 202.74 160.625 202.67 160.746C202.595 160.877 202.551 161.052 202.598 161.226C202.635 161.361 202.762 161.588 203.024 161.637C203.45 161.854 203.99 161.804 204.373 161.59L210.01 158.375C210.165 158.321 210.28 158.205 210.35 158.084C210.425 157.953 210.469 157.778 210.422 157.604C210.386 157.468 210.258 157.242 209.996 157.193C209.57 156.976 209.03 157.026 208.647 157.24ZM218.832 155.347L206.371 162.389C206.216 162.443 206.1 162.559 206.03 162.68C205.955 162.811 205.912 162.986 205.958 163.16C205.995 163.295 206.122 163.522 206.385 163.57C206.81 163.788 207.35 163.737 207.733 163.524L207.735 163.523L220.194 156.483C220.349 156.429 220.465 156.313 220.535 156.192C220.61 156.06 220.653 155.886 220.607 155.712C220.57 155.576 220.443 155.35 220.18 155.301C219.755 155.083 219.215 155.134 218.832 155.347ZM222.184 149.523L212.028 155.281C211.711 155.386 211.586 155.697 211.606 155.999L211.608 156.026L211.615 156.052C211.651 156.188 211.778 156.414 212.041 156.463C212.467 156.681 213.007 156.63 213.389 156.417L213.391 156.416L223.547 150.658C223.701 150.605 223.817 150.488 223.887 150.367C223.962 150.236 224.006 150.061 223.959 149.887C223.922 149.752 223.795 149.526 223.533 149.477C223.107 149.259 222.567 149.31 222.184 149.523ZM209.564 164.529C209.605 164.476 209.676 164.399 209.782 164.357L212.012 163.053C212.399 162.837 212.948 162.787 213.376 163.015C213.709 163.111 213.911 163.491 213.719 163.825L213.715 163.831C213.685 163.882 213.645 163.953 213.597 164.014C213.556 164.066 213.487 164.142 213.383 164.184L211.205 165.523C210.818 165.738 210.27 165.788 209.842 165.561C209.49 165.463 209.351 165.096 209.411 164.8L209.42 164.757L209.446 164.712C209.476 164.661 209.516 164.59 209.564 164.529ZM215.28 161.333C215.322 161.279 215.393 161.202 215.5 161.16L229.016 153.455C229.404 153.24 229.952 153.19 230.38 153.417C230.731 153.515 230.87 153.882 230.81 154.178L230.802 154.221L230.776 154.266C230.746 154.317 230.705 154.388 230.658 154.449C230.616 154.502 230.545 154.58 230.438 154.621L216.867 162.293L216.866 162.294C216.478 162.51 215.93 162.559 215.502 162.332C215.168 162.235 214.967 161.856 215.159 161.522L215.163 161.515C215.192 161.464 215.233 161.394 215.28 161.333ZM226.772 158.65L213.259 166.353C213.104 166.407 212.988 166.524 212.919 166.645C212.843 166.776 212.8 166.95 212.847 167.124C212.883 167.26 213.01 167.486 213.273 167.535C213.699 167.753 214.239 167.702 214.622 167.489L214.624 167.487L228.135 159.785C228.29 159.731 228.405 159.615 228.475 159.494C228.55 159.363 228.594 159.188 228.547 159.014C228.511 158.879 228.383 158.652 228.121 158.604C227.695 158.386 227.155 158.437 226.772 158.65ZM232.433 155.421L230.206 156.724C230.052 156.779 229.937 156.894 229.868 157.015C229.792 157.146 229.749 157.321 229.796 157.495C229.832 157.63 229.959 157.857 230.222 157.905C230.648 158.123 231.188 158.072 231.57 157.859L233.797 156.556C233.951 156.502 234.066 156.386 234.135 156.265C234.211 156.134 234.254 155.96 234.207 155.786C234.171 155.65 234.044 155.424 233.781 155.375C233.355 155.157 232.815 155.208 232.433 155.421Z" fill="white"/>
<path fill-rule="evenodd" clip-rule="evenodd" d="M247.095 109.409L247.095 109.409C247.095 108.587 246.548 107.765 245.471 107.159L221.988 93.5972C220.912 92.9709 219.483 92.6578 218.074 92.6578C216.665 92.6578 215.236 92.9709 214.16 93.5972L190.677 107.159C189.6 107.765 189.053 108.587 189.053 109.409L189.053 109.409L189.052 109.409V111.132C189.052 111.953 189.6 112.775 190.677 113.382L214.16 126.944C215.236 127.57 216.665 127.883 218.074 127.883C219.483 127.883 220.912 127.57 221.988 126.944L245.471 113.382C246.548 112.756 247.095 111.934 247.095 111.132V109.409L247.095 109.409Z" fill="#FFD251"/>
<path fill-rule="evenodd" clip-rule="evenodd" d="M212.608 102.777C212.432 102.775 212.258 102.82 212.105 102.908L203.212 108.003C202.906 108.178 202.717 108.503 202.716 108.855C202.714 109.208 202.901 109.534 203.205 109.712L218.976 118.918C219.28 119.095 219.657 119.097 219.963 118.922L232.825 111.572C233.131 111.397 233.321 111.073 233.323 110.72C233.325 110.368 233.138 110.041 232.834 109.863L221.133 103.013C221.046 102.962 220.953 102.925 220.856 102.903C220.768 102.876 220.675 102.862 220.581 102.861L215.793 102.817L215.792 102.817L212.608 102.777ZM219.479 116.925L205.674 108.867L212.591 104.904L216.122 106.965C216.427 107.143 216.803 107.145 217.11 106.969L220.584 104.979L230.364 110.705L219.479 116.925Z" fill="white"/>
<path d="M215.388 111.71C215.43 111.656 215.5 111.579 215.606 111.538L217.836 110.233C218.223 110.017 218.772 109.968 219.2 110.195C219.533 110.292 219.735 110.671 219.543 111.005L219.539 111.012C219.51 111.063 219.469 111.133 219.421 111.194C219.38 111.247 219.311 111.323 219.207 111.364L217.03 112.703C216.642 112.919 216.094 112.968 215.666 112.741C215.315 112.643 215.176 112.276 215.236 111.981L215.244 111.937L215.27 111.892C215.3 111.841 215.34 111.77 215.388 111.71Z" fill="white"/>
<path d="M220.82 111.994L218.593 113.297C218.44 113.351 218.325 113.467 218.255 113.588C218.18 113.719 218.137 113.893 218.184 114.067C218.22 114.203 218.347 114.429 218.61 114.478C219.035 114.696 219.575 114.645 219.958 114.432L222.185 113.129C222.339 113.074 222.454 112.959 222.523 112.838C222.599 112.707 222.642 112.532 222.595 112.358C222.559 112.223 222.432 111.996 222.169 111.948C221.743 111.73 221.203 111.781 220.82 111.994Z" fill="white"/>
<path d="M245.471 111.66L221.988 125.222C220.912 125.848 219.483 126.161 218.074 126.161C216.665 126.161 215.236 125.848 214.16 125.222L190.677 111.66C189.6 111.034 189.052 110.212 189.052 109.409V113.93C189.052 114.752 189.6 115.574 190.677 116.18L214.16 129.742C215.236 130.368 216.665 130.681 218.074 130.681C219.483 130.681 220.912 130.368 221.988 129.742L245.471 116.18C246.548 115.554 247.095 114.732 247.095 113.93V109.409C247.095 110.231 246.548 111.034 245.471 111.66Z" fill="#F9A000"/>
<path opacity="0.2" d="M245.471 111.66L221.988 125.222C220.912 125.848 219.483 126.161 218.074 126.161C216.665 126.161 215.236 125.848 214.16 125.222L190.677 111.66C189.6 111.034 189.052 110.212 189.052 109.409V185.321C189.052 186.143 189.6 186.965 190.677 187.572L214.16 201.133C215.236 201.76 216.665 202.073 218.074 202.073C219.483 202.073 220.912 201.76 221.988 201.133L245.471 187.572C246.548 186.946 247.095 186.124 247.095 185.321V109.409C247.095 110.231 246.548 111.034 245.471 111.66Z" fill="#F9A000"/>
<path fill-rule="evenodd" clip-rule="evenodd" d="M131.117 179.9C131.117 179.079 131.665 178.257 132.742 177.65L156.225 164.088C157.301 163.462 158.73 163.149 160.139 163.149C161.548 163.149 162.977 163.462 164.053 164.088L187.536 177.65C188.612 178.257 189.16 179.079 189.16 179.9L189.16 181.623C189.16 182.425 188.612 183.247 187.536 183.873L164.053 197.435C162.976 198.061 161.548 198.374 160.139 198.374C158.73 198.374 157.301 198.061 156.225 197.435L132.742 183.873C131.665 183.266 131.117 182.445 131.117 181.623V179.9Z" fill="#FFD251"/>
<path d="M187.536 182.151L164.053 195.713C162.976 196.339 161.548 196.652 160.139 196.652C158.73 196.652 157.301 196.339 156.225 195.713L132.742 182.151C131.665 181.525 131.117 180.703 131.117 179.901V184.421C131.117 185.243 131.665 186.065 132.742 186.672L156.225 200.233C157.301 200.859 158.73 201.173 160.139 201.173C161.548 201.173 162.976 200.859 164.053 200.233L187.536 186.672C188.612 186.045 189.16 185.223 189.16 184.421V179.901C189.16 180.722 188.612 181.525 187.536 182.151Z" fill="#F9A000"/>
<path opacity="0.2" d="M187.536 182.151L164.053 195.713C162.976 196.339 161.548 196.652 160.139 196.652C158.73 196.652 157.301 196.339 156.225 195.713L132.742 182.151C131.665 181.525 131.117 180.703 131.117 179.901V236.154C131.117 236.976 131.665 237.798 132.742 238.404L156.225 251.966C157.301 252.592 158.73 252.905 160.139 252.905C161.548 252.905 162.976 252.592 164.053 251.966L187.536 238.404C188.612 237.778 189.16 236.956 189.16 236.154V179.901C189.16 180.722 188.612 181.525 187.536 182.151Z" fill="#F9A000"/>
<path fill-rule="evenodd" clip-rule="evenodd" d="M131.117 131.271L131.117 131.271C131.117 130.45 131.665 129.628 132.742 129.021L156.225 115.459C157.301 114.833 158.73 114.52 160.139 114.52C161.548 114.52 162.977 114.833 164.053 115.459L187.536 129.021C188.612 129.628 189.16 130.45 189.16 131.271L189.16 132.994C189.16 133.796 188.612 134.618 187.536 135.244L164.053 148.806C162.976 149.432 161.548 149.745 160.139 149.745C158.73 149.745 157.301 149.432 156.225 148.806L132.742 135.244C131.665 134.637 131.117 133.816 131.117 132.994V131.272L131.117 131.271Z" fill="#FFD251"/>
<path d="M170.743 130.731C170.391 130.908 170.093 130.99 169.849 130.976C169.116 130.937 168.547 130.613 168.519 130.219L168.513 126.694L162.344 126.704C161.612 126.665 161.042 126.34 161.014 125.947C160.986 125.554 161.596 125.146 162.328 125.186L169.921 125.106C170.653 125.145 171.223 125.47 171.251 125.863L171.258 130.269C171.149 130.459 170.946 130.595 170.743 130.731Z" fill="white"/>
<path d="M163.212 135.122C163.063 135.163 162.86 135.299 162.711 135.34C162.114 135.504 161.436 135.369 160.974 134.855L157.167 128.285C156.896 127.879 157.261 127.458 158.006 127.253C158.603 127.09 159.281 127.224 159.743 127.739L163.549 134.308C163.726 134.661 163.564 134.946 163.212 135.122Z" fill="white"/>
<path d="M159.419 137.366C159.067 137.542 158.769 137.624 158.524 137.611L150.932 137.691C150.2 137.652 149.63 137.327 149.602 136.934L149.595 132.527C149.567 132.134 150.177 131.727 150.909 131.766C151.641 131.806 152.211 132.13 152.239 132.523L152.244 136.048L158.414 136.039C159.146 136.078 159.716 136.402 159.743 136.796C159.879 136.999 159.622 137.23 159.419 137.366Z" fill="white"/>
<path d="M187.536 133.522L164.053 147.084C162.976 147.71 161.548 148.023 160.139 148.023C158.73 148.023 157.301 147.71 156.225 147.084L132.742 133.522C131.665 132.896 131.117 132.074 131.117 131.272V135.792C131.117 136.614 131.665 137.436 132.742 138.043L156.225 151.604C157.301 152.23 158.73 152.544 160.139 152.544C161.548 152.544 162.976 152.23 164.053 151.604L187.536 138.043C188.612 137.416 189.16 136.594 189.16 135.792V131.272C189.16 132.094 188.612 132.896 187.536 133.522Z" fill="#F9A000"/>
<path opacity="0.2" d="M187.536 133.522L164.053 147.084C162.976 147.71 161.548 148.023 160.139 148.023C158.73 148.023 157.301 147.71 156.225 147.084L132.742 133.522C131.665 132.896 131.117 132.074 131.117 131.272V207.184C131.117 208.005 131.665 208.827 132.742 209.434L156.225 222.996C157.301 223.622 158.73 223.935 160.139 223.935C161.548 223.935 162.976 223.622 164.053 222.996L187.536 209.434C188.612 208.808 189.16 207.986 189.16 207.184V131.272C189.16 132.094 188.612 132.896 187.536 133.522Z" fill="#F9A000"/>
<path d="M243.132 244.298C243.218 243.971 243.261 243.649 243.261 243.333C243.261 241.365 252.225 173.859 254.939 153.705H251.231C247.783 160.675 242.789 171.907 234.963 175.568C201.077 191.418 174.295 187.045 155.712 181.033C130.024 171.742 126.745 160.811 124.8 153.705H120.974L133.264 243.333C133.272 243.368 133.281 243.403 133.29 243.439C133.713 251.28 139.232 257.773 149.847 263.538C172.367 275.96 203.851 275.96 226.371 263.538C236.646 257.871 242.233 251.746 243.132 244.298Z" fill="#0367E4"/>
<path d="M243.132 244.298C243.218 243.971 243.261 243.649 243.261 243.333C243.261 241.014 255.708 147.695 255.708 148.082C248.081 165.73 241.32 168.442 240.975 172.835C236.603 228.584 204.903 260.284 191.239 272.799C203.684 272.356 215.982 269.269 226.371 263.538C236.646 257.871 242.233 251.747 243.132 244.298Z" fill="#347BE9"/>
<path d="M121.548 152.405C120.987 185.201 160.512 218.485 192.628 218.485C225.48 218.485 254.982 181.763 254.982 152.405" stroke="#4F5357" stroke-width="2"/>
<path fill-rule="evenodd" clip-rule="evenodd" d="M167.781 212.86C168.632 210.6 171.154 209.458 173.414 210.309C179.971 212.779 186.511 214.113 192.628 214.113C198.563 214.113 204.443 212.781 210.086 210.378C212.307 209.432 214.875 210.466 215.822 212.688C216.768 214.91 215.734 217.478 213.512 218.424C206.926 221.228 199.885 222.858 192.628 222.858C185.268 222.858 177.679 221.261 170.331 218.493C168.071 217.642 166.929 215.12 167.781 212.86Z" fill="white"/>
<path d="M140.654 177.111C166.85 192.183 209.716 192.183 235.912 177.111C249.191 169.471 255.841 159.385 255.706 149.333H248.073C248.327 158.066 242.474 166.844 230.512 173.477C207.086 186.467 169.606 186.467 146.181 173.477C134.291 166.986 128.547 158.18 128.951 149.333H120.364C120.226 159.385 126.973 169.471 140.654 177.111Z" fill="#428BF0"/>
<path d="M146.987 295.367L165.629 306.295L133.416 324.651L114.82 314.106L146.987 295.367Z" fill="url(#paint1_linear_7163_201057)" fill-opacity="0.1"/>
<path fill-rule="evenodd" clip-rule="evenodd" d="M157.018 300.523V297.51L41 267.095V270.241C41.0199 270.438 41.0901 270.626 41.2038 270.787C41.3175 270.948 41.4706 271.076 41.6482 271.159L44.2619 272.682L123.368 318.875C123.855 319.123 124.392 319.252 124.937 319.252C125.482 319.252 126.02 319.123 126.507 318.875L156.374 301.44C156.551 301.357 156.704 301.229 156.818 301.068C156.932 300.907 157.002 300.719 157.022 300.523" fill="#CBCFD5"/>
<path fill-rule="evenodd" clip-rule="evenodd" d="M157.018 297.517C156.998 297.323 156.928 297.137 156.814 296.977C156.7 296.818 156.547 296.691 156.37 296.609L74.6548 249.374C74.1681 249.128 73.6306 249 73.0856 249C72.5405 249 72.003 249.128 71.5163 249.374L41.6623 266.633C41.47 266.694 41.3022 266.816 41.1832 266.979C41.0641 267.142 41 267.339 41 267.541C41 267.743 41.0641 267.94 41.1832 268.103C41.3022 268.267 41.47 268.388 41.6623 268.45L123.371 315.685C123.858 315.931 124.395 316.059 124.94 316.059C125.485 316.059 126.023 315.931 126.509 315.685L156.374 298.426C156.551 298.344 156.704 298.217 156.818 298.058C156.932 297.898 157.002 297.712 157.022 297.517" fill="#EBEDF0"/>
<path fill-rule="evenodd" clip-rule="evenodd" d="M105.234 280.09C105.131 280.138 105.043 280.212 104.978 280.306C104.913 280.399 104.874 280.508 104.865 280.622C104.875 280.735 104.914 280.844 104.979 280.938C105.044 281.031 105.132 281.106 105.234 281.154L137.429 299.776C137.712 299.922 138.026 299.998 138.344 299.998C138.662 299.998 138.976 299.922 139.259 299.776L142.929 297.647C143.031 297.599 143.12 297.525 143.185 297.431C143.25 297.338 143.289 297.229 143.299 297.115C143.29 297.001 143.251 296.892 143.186 296.798C143.121 296.705 143.032 296.631 142.929 296.583L110.734 277.962C110.451 277.816 110.137 277.739 109.819 277.739C109.501 277.739 109.188 277.816 108.905 277.962L105.234 280.09Z" fill="#CBCFD5"/>
<path fill-rule="evenodd" clip-rule="evenodd" d="M105.234 280.09C105.131 280.138 105.043 280.212 104.978 280.306C104.913 280.399 104.874 280.508 104.865 280.622C104.875 280.735 104.914 280.844 104.979 280.938C105.044 281.031 105.132 281.106 105.234 281.154L111.252 284.635L116.253 281.154L110.734 277.962C110.451 277.816 110.137 277.739 109.819 277.739C109.501 277.739 109.188 277.816 108.905 277.962L105.234 280.09Z" fill="#31854C"/>
<path fill-rule="evenodd" clip-rule="evenodd" d="M108.672 284.049C108.503 284.123 108.166 284.413 108.059 284.562C108.059 284.562 108.076 284.713 108.059 284.896C108.079 285.077 108.146 285.251 108.254 285.399C108.361 285.547 108.505 285.666 108.672 285.742L111.444 287.436C111.899 287.681 112.41 287.804 112.927 287.792C113.437 287.803 113.941 287.68 114.388 287.436L120.299 284.049C120.466 283.972 120.61 283.853 120.718 283.705C120.825 283.557 120.892 283.383 120.913 283.202C120.896 283.019 120.913 281.73 120.913 281.688C120.805 281.539 120.468 281.365 120.299 281.29L117.51 279.596C117.063 279.352 116.56 279.23 116.05 279.241C115.533 279.229 115.022 279.352 114.567 279.596L108.672 284.049Z" fill="#4F5357"/>
<path fill-rule="evenodd" clip-rule="evenodd" d="M108.672 283.612C108.503 283.687 108.358 283.804 108.25 283.953C108.142 284.102 108.076 284.277 108.059 284.459C108.079 284.641 108.146 284.815 108.254 284.963C108.361 285.111 108.505 285.23 108.672 285.306L111.444 287C111.899 287.245 112.41 287.367 112.927 287.356C113.437 287.367 113.941 287.244 114.388 287L120.299 282.548C120.466 282.471 120.61 282.353 120.718 282.204C120.825 282.056 120.892 281.883 120.913 281.701C120.896 281.518 120.83 281.344 120.722 281.195C120.614 281.046 120.468 280.928 120.299 280.854L117.51 279.16C117.063 278.916 116.56 278.794 116.05 278.804C115.533 278.793 115.022 278.916 114.567 279.16L108.672 283.612Z" fill="white"/>
<path fill-rule="evenodd" clip-rule="evenodd" d="M92.461 288.605C92.358 288.653 92.2695 288.728 92.2047 288.821C92.1399 288.915 92.1011 289.024 92.0923 289.138C92.1021 289.251 92.1413 289.36 92.2061 289.453C92.2708 289.547 92.3587 289.621 92.461 289.67L124.656 308.291C124.939 308.437 125.253 308.513 125.571 308.513C125.889 308.513 126.203 308.437 126.486 308.291L130.155 306.163C130.258 306.115 130.346 306.04 130.411 305.947C130.476 305.853 130.516 305.744 130.526 305.631C130.517 305.517 130.478 305.407 130.413 305.314C130.348 305.22 130.259 305.146 130.155 305.099L97.9607 286.477C97.6778 286.331 97.3644 286.255 97.0464 286.255C96.7284 286.255 96.4149 286.331 96.132 286.477L92.461 288.605Z" fill="#CBCFD5"/>
<path fill-rule="evenodd" clip-rule="evenodd" d="M92.461 288.605C92.358 288.653 92.2695 288.728 92.2047 288.821C92.1399 288.915 92.1011 289.024 92.0923 289.138C92.1021 289.251 92.1413 289.36 92.2061 289.453C92.2708 289.547 92.3587 289.621 92.461 289.67L110.187 299.923L115.51 296.627L97.9607 286.477C97.6778 286.331 97.3644 286.255 97.0464 286.255C96.7284 286.255 96.4149 286.331 96.132 286.477L92.461 288.605Z" fill="#35B65E"/>
<path fill-rule="evenodd" clip-rule="evenodd" d="M107.608 298.95C107.439 299.025 107.102 299.315 106.994 299.464C106.994 299.464 107.012 299.615 106.994 299.797C107.014 299.979 107.082 300.153 107.189 300.301C107.297 300.449 107.441 300.568 107.608 300.644L110.38 302.338C110.834 302.583 111.345 302.705 111.862 302.694C112.372 302.705 112.876 302.582 113.323 302.338L119.235 298.95C119.402 298.873 119.546 298.755 119.653 298.607C119.761 298.458 119.828 298.285 119.849 298.103C119.831 297.921 119.849 296.631 119.849 296.59C119.741 296.441 119.404 296.266 119.235 296.192L116.446 294.498C115.999 294.254 115.495 294.132 114.985 294.142C114.468 294.131 113.957 294.254 113.502 294.498L107.608 298.95Z" fill="#4F5357"/>
<path fill-rule="evenodd" clip-rule="evenodd" d="M107.608 298.514C107.439 298.589 107.293 298.706 107.185 298.855C107.078 299.004 107.012 299.179 106.994 299.361C107.014 299.543 107.082 299.716 107.189 299.865C107.297 300.013 107.441 300.132 107.608 300.208L110.38 301.902C110.834 302.147 111.345 302.269 111.862 302.258C112.372 302.269 112.876 302.146 113.323 301.902L119.235 297.45C119.402 297.373 119.546 297.255 119.653 297.106C119.761 296.958 119.828 296.785 119.849 296.603C119.831 296.42 119.765 296.246 119.657 296.097C119.549 295.948 119.404 295.83 119.235 295.756L116.446 294.062C115.999 293.818 115.495 293.696 114.985 293.706C114.468 293.695 113.957 293.818 113.502 294.062L107.608 298.514Z" fill="white"/>
<path fill-rule="evenodd" clip-rule="evenodd" d="M55.1418 266.351C55.0388 266.398 54.9503 266.473 54.8855 266.566C54.8207 266.66 54.7818 266.769 54.7731 266.883C54.7829 266.996 54.8221 267.105 54.8868 267.198C54.9516 267.292 55.0395 267.366 55.1418 267.415L87.3365 286.036C87.6197 286.182 87.9334 286.259 88.2516 286.259C88.5699 286.259 88.8836 286.182 89.1667 286.036L92.8362 283.908C92.939 283.86 93.0273 283.785 93.0923 283.692C93.1573 283.598 93.1967 283.489 93.2065 283.376C93.1976 283.262 93.1585 283.153 93.0934 283.059C93.0283 282.965 92.9395 282.891 92.8362 282.844L60.6415 264.222C60.3586 264.076 60.0452 264 59.7272 264C59.4092 264 59.0957 264.076 58.8128 264.222L55.1418 266.351Z" fill="#CBCFD5"/>
<path fill-rule="evenodd" clip-rule="evenodd" d="M55.1418 266.351C55.0388 266.398 54.9503 266.473 54.8855 266.566C54.8207 266.66 54.7818 266.769 54.7731 266.883C54.7829 266.996 54.8221 267.105 54.8868 267.198C54.9516 267.292 55.0395 267.366 55.1418 267.415L69.7473 275.863L74.5 272.238L60.6415 264.222C60.3586 264.076 60.0452 264 59.7272 264C59.4092 264 59.0957 264.076 58.8128 264.222L55.1418 266.351Z" fill="#31854C"/>
<path fill-rule="evenodd" clip-rule="evenodd" d="M66.6136 274.245C66.4449 274.319 66.1078 274.609 66 274.758C66 274.758 66.0174 274.909 66 275.092C66.0203 275.274 66.0874 275.447 66.1949 275.595C66.3024 275.744 66.4466 275.862 66.6136 275.939L69.3855 277.633C69.8403 277.877 70.3513 278 70.8683 277.988C71.3782 277.999 71.882 277.877 72.3292 277.633L78.2409 274.245C78.4077 274.168 78.5517 274.05 78.6592 273.901C78.7667 273.753 78.8339 273.58 78.8544 273.398C78.837 273.215 78.8544 271.926 78.8544 271.884C78.7466 271.735 78.4096 271.561 78.2409 271.487L75.4519 269.793C75.0048 269.549 74.5009 269.426 73.991 269.437C73.474 269.425 72.963 269.548 72.5082 269.793L66.6136 274.245Z" fill="#4F5357"/>
<path fill-rule="evenodd" clip-rule="evenodd" d="M66.6136 273.809C66.4449 273.883 66.2991 274.001 66.1913 274.15C66.0835 274.298 66.0174 274.473 66 274.656C66.0203 274.837 66.0874 275.011 66.1949 275.159C66.3024 275.308 66.4466 275.426 66.6136 275.503L69.3855 277.197C69.8403 277.441 70.3513 277.564 70.8683 277.552C71.3782 277.563 71.882 277.44 72.3292 277.197L78.2409 272.744C78.4077 272.667 78.5517 272.549 78.6592 272.401C78.7667 272.252 78.8339 272.079 78.8544 271.897C78.837 271.715 78.771 271.54 78.6631 271.391C78.5553 271.242 78.4096 271.125 78.2409 271.05L75.4519 269.356C75.0048 269.113 74.5009 268.99 73.991 269.001C73.474 268.989 72.963 269.112 72.5082 269.356L66.6136 273.809Z" fill="white"/>
<path fill-rule="evenodd" clip-rule="evenodd" d="M67.3688 258.351C67.2657 258.398 67.1772 258.473 67.1124 258.566C67.0476 258.66 67.0088 258.769 67 258.883C67.0098 258.996 67.0491 259.105 67.1138 259.198C67.1785 259.292 67.2664 259.366 67.3688 259.415L99.5635 278.036C99.8466 278.182 100.16 278.259 100.479 278.259C100.797 278.259 101.11 278.182 101.394 278.036L105.063 275.908C105.166 275.86 105.254 275.785 105.319 275.692C105.384 275.598 105.424 275.489 105.433 275.376C105.424 275.262 105.385 275.153 105.32 275.059C105.255 274.965 105.166 274.891 105.063 274.844L72.8684 256.222C72.5855 256.076 72.2721 256 71.9541 256C71.6361 256 71.3227 256.076 71.0397 256.222L67.3688 258.351Z" fill="#CBCFD5"/>
<path fill-rule="evenodd" clip-rule="evenodd" d="M67.3688 258.351C67.2657 258.398 67.1772 258.473 67.1124 258.566C67.0476 258.66 67.0088 258.769 67 258.883C67.0098 258.996 67.0491 259.105 67.1138 259.198C67.1785 259.292 67.2664 259.366 67.3688 259.415L85.0952 269.668L90.4173 266.373L72.8684 256.222C72.5855 256.076 72.2721 256 71.9541 256C71.6361 256 71.3227 256.076 71.0397 256.222L67.3688 258.351Z" fill="#35B65E"/>
<path fill-rule="evenodd" clip-rule="evenodd" d="M82.5154 268.696C82.3467 268.77 82.0097 269.06 81.9019 269.209C81.9019 269.209 81.9193 269.36 81.9019 269.542C81.9221 269.724 81.9893 269.898 82.0968 270.046C82.2043 270.194 82.3485 270.313 82.5154 270.389L85.2874 272.083C85.7421 272.328 86.2532 272.451 86.7701 272.439C87.2801 272.45 87.7839 272.327 88.231 272.083L94.1427 268.696C94.3095 268.619 94.4536 268.5 94.5611 268.352C94.6685 268.204 94.7357 268.03 94.7563 267.849C94.7388 267.666 94.7563 266.377 94.7563 266.335C94.6484 266.186 94.3114 266.012 94.1427 265.937L91.3537 264.243C90.9066 263.999 90.4028 263.877 89.8928 263.888C89.3759 263.876 88.8648 263.999 88.4101 264.243L82.5154 268.696Z" fill="#4F5357"/>
<path fill-rule="evenodd" clip-rule="evenodd" d="M82.5154 268.26C82.3467 268.334 82.201 268.451 82.0932 268.6C81.9853 268.749 81.9193 268.924 81.9019 269.106C81.9221 269.288 81.9893 269.462 82.0968 269.61C82.2043 269.758 82.3485 269.877 82.5154 269.953L85.2874 271.647C85.7421 271.892 86.2532 272.015 86.7701 272.003C87.2801 272.014 87.7839 271.891 88.231 271.647L94.1427 267.195C94.3095 267.118 94.4536 267 94.5611 266.851C94.6685 266.703 94.7357 266.53 94.7563 266.348C94.7388 266.166 94.6728 265.991 94.565 265.842C94.4571 265.693 94.3114 265.576 94.1427 265.501L91.3537 263.807C90.9066 263.563 90.4028 263.441 89.8928 263.452C89.3759 263.44 88.8648 263.563 88.4101 263.807L82.5154 268.26Z" fill="white"/>
<path d="M220.15 288.884L237.817 299.24L207.289 316.637L189.665 306.643L220.15 288.884Z" fill="url(#paint2_linear_7163_201057)" fill-opacity="0.1"/>
<path fill-rule="evenodd" clip-rule="evenodd" d="M230.043 290.751L230.043 290.751C230.043 289.93 229.495 289.108 228.419 288.501L204.935 274.939C203.859 274.313 202.431 274 201.022 274C199.613 274 198.184 274.313 197.108 274.939L173.624 288.501C172.548 289.108 172 289.93 172 290.751L172 290.751L172 290.752V292.474C172 293.296 172.548 294.118 173.624 294.724L197.108 308.286C198.184 308.912 199.612 309.225 201.021 309.225C202.43 309.225 203.859 308.912 204.935 308.286L228.419 294.724C229.495 294.098 230.043 293.276 230.043 292.474V290.752L230.043 290.751Z" fill="#EBEDF0"/>
<path d="M228.419 293.002L204.935 306.564C203.859 307.19 202.43 307.503 201.021 307.503C199.612 307.503 198.184 307.19 197.108 306.564L173.624 293.002C172.548 292.376 172 291.554 172 290.752V295.272C172 296.094 172.548 296.916 173.624 297.523L197.108 311.084C198.184 311.71 199.612 312.024 201.021 312.024C202.43 312.024 203.859 311.71 204.935 311.084L228.419 297.523C229.495 296.896 230.043 296.074 230.043 295.272V290.752C230.043 291.574 229.495 292.376 228.419 293.002Z" fill="#CBCFD5"/>
<path fill-rule="evenodd" clip-rule="evenodd" d="M230.043 282.751L230.043 282.751C230.043 281.93 229.495 281.108 228.419 280.501L204.935 266.939C203.859 266.313 202.431 266 201.022 266C199.613 266 198.184 266.313 197.108 266.939L173.624 280.501C172.548 281.108 172 281.93 172 282.751L172 282.751L172 282.752V284.474C172 285.296 172.548 286.118 173.624 286.724L197.108 300.286C198.184 300.912 199.612 301.225 201.021 301.225C202.43 301.225 203.859 300.912 204.935 300.286L228.419 286.724C229.495 286.098 230.043 285.276 230.043 284.474V282.752L230.043 282.751Z" fill="#EBEDF0"/>
<path d="M228.419 285.002L204.935 298.564C203.859 299.19 202.43 299.503 201.021 299.503C199.612 299.503 198.184 299.19 197.108 298.564L173.624 285.002C172.548 284.376 172 283.554 172 282.752V287.272C172 288.094 172.548 288.916 173.624 289.523L197.108 303.084C198.184 303.71 199.612 304.024 201.021 304.024C202.43 304.024 203.859 303.71 204.935 303.084L228.419 289.523C229.495 288.896 230.043 288.074 230.043 287.272V282.752C230.043 283.574 229.495 284.376 228.419 285.002Z" fill="#CBCFD5"/>
<path fill-rule="evenodd" clip-rule="evenodd" d="M230.043 274.751L230.043 274.751C230.043 273.93 229.495 273.108 228.419 272.501L204.935 258.939C203.859 258.313 202.431 258 201.022 258C199.613 258 198.184 258.313 197.108 258.939L173.624 272.501C172.548 273.108 172 273.93 172 274.751L172 274.751L172 274.752V276.474C172 277.296 172.548 278.118 173.624 278.724L197.108 292.286C198.184 292.912 199.612 293.225 201.021 293.225C202.43 293.225 203.859 292.912 204.935 292.286L228.419 278.724C229.495 278.098 230.043 277.276 230.043 276.474V274.752L230.043 274.751Z" fill="#EBEDF0"/>
<path d="M210 269.202L219 274.404L210 279.597M205.5 266.601L203.002 265.157C201.763 264.441 200.237 264.441 198.998 265.157L185.998 272.671C184.666 273.441 184.666 275.365 186 276.135L199.001 283.637C200.238 284.35 201.762 284.35 202.999 283.637L205.5 282.193M217.65 274.404H201.45" stroke="#CBCFD5" stroke-linecap="round" stroke-linejoin="round"/>
<path d="M228.419 277.002L204.935 290.564C203.859 291.19 202.43 291.503 201.021 291.503C199.612 291.503 198.184 291.19 197.108 290.564L173.624 277.002C172.548 276.376 172 275.554 172 274.752V279.272C172 280.094 172.548 280.916 173.624 281.523L197.108 295.084C198.184 295.71 199.612 296.024 201.021 296.024C202.43 296.024 203.859 295.71 204.935 295.084L228.419 281.523C229.495 280.896 230.043 280.074 230.043 279.272V274.752C230.043 275.574 229.495 276.376 228.419 277.002Z" fill="#CBCFD5"/>
<path fill-rule="evenodd" clip-rule="evenodd" d="M313.999 287.806L261.999 257.59V209.245L313.999 239.461V287.806ZM375.446 263.819L324.347 233.605L323.999 185.257L375.446 215.475V263.821V263.819ZM262 196.989V149L313.999 178.993V226.982L262 196.989ZM266.968 274.463C266.719 274.298 266.512 274.076 266.364 273.816C266.216 273.555 266.131 273.263 266.116 272.963C266.094 272.856 266.105 272.744 266.15 272.644C266.194 272.544 266.269 272.46 266.363 272.404C266.457 272.349 266.566 272.325 266.675 272.336C266.784 272.346 266.886 272.391 266.968 272.464L270.417 274.463C270.666 274.628 270.874 274.85 271.022 275.11C271.17 275.371 271.255 275.663 271.27 275.963C271.292 276.07 271.28 276.182 271.236 276.282C271.191 276.382 271.117 276.465 271.023 276.521C270.929 276.576 270.82 276.6 270.712 276.59C270.603 276.58 270.501 276.536 270.418 276.464L266.968 274.463ZM275.629 279.462C275.38 279.297 275.173 279.076 275.025 278.815C274.877 278.555 274.792 278.263 274.777 277.964C274.755 277.856 274.767 277.745 274.812 277.645C274.856 277.545 274.931 277.461 275.025 277.406C275.119 277.351 275.227 277.326 275.336 277.336C275.444 277.347 275.547 277.391 275.629 277.462L306.609 295.458C306.851 295.628 307.05 295.852 307.191 296.112C307.332 296.372 307.411 296.662 307.422 296.958C307.444 297.067 307.431 297.179 307.386 297.28C307.34 297.381 307.264 297.465 307.169 297.52C307.073 297.576 306.962 297.599 306.853 297.588C306.743 297.576 306.64 297.53 306.558 297.456L275.629 279.462ZM291.069 294.459C291.151 294.532 291.254 294.577 291.364 294.588C291.473 294.599 291.583 294.575 291.679 294.52C291.774 294.465 291.85 294.381 291.896 294.28C291.941 294.18 291.954 294.067 291.933 293.959C291.916 293.658 291.829 293.365 291.679 293.105C291.529 292.844 291.32 292.623 291.069 292.459L287.631 290.459C287.549 290.386 287.445 290.341 287.336 290.33C287.226 290.319 287.116 290.343 287.021 290.398C286.926 290.453 286.85 290.537 286.804 290.638C286.758 290.738 286.745 290.851 286.766 290.959C286.784 291.26 286.871 291.552 287.021 291.813C287.171 292.073 287.38 292.295 287.631 292.459L291.069 294.459ZM282.464 289.46C282.547 289.533 282.65 289.578 282.759 289.589C282.868 289.6 282.978 289.576 283.074 289.521C283.169 289.466 283.245 289.383 283.291 289.282C283.336 289.182 283.35 289.07 283.329 288.961C283.312 288.66 283.225 288.368 283.075 288.107C282.925 287.846 282.716 287.624 282.464 287.46L266.974 278.462C266.892 278.39 266.79 278.345 266.681 278.335C266.573 278.324 266.464 278.348 266.37 278.403C266.275 278.458 266.201 278.542 266.156 278.642C266.112 278.742 266.1 278.853 266.122 278.961C266.137 279.26 266.222 279.552 266.37 279.813C266.518 280.073 266.725 280.295 266.974 280.46L282.464 289.46Z" fill="#EAEEF3"/>
<path fill-rule="evenodd" clip-rule="evenodd" d="M261.999 257.495V247.255L273.623 240.714C273.72 240.669 273.828 240.65 273.935 240.661C274.041 240.671 274.143 240.709 274.231 240.772C274.482 240.929 274.689 241.15 274.83 241.412L294.678 276.758L261.999 257.495ZM294.678 276.758L271.008 262.663L282.195 254.529L294.678 276.758ZM313.999 287.806V265.518L302.211 245.684C302.072 245.42 301.866 245.197 301.615 245.037C301.531 244.973 301.431 244.934 301.326 244.923C301.221 244.913 301.115 244.931 301.02 244.977L271.008 262.663L313.999 287.806ZM332.812 230.48C332.894 230.55 332.997 230.592 333.104 230.601C333.212 230.611 333.32 230.586 333.413 230.531C333.507 230.476 333.581 230.394 333.625 230.295C333.67 230.196 333.684 230.085 333.663 229.978C333.648 229.679 333.563 229.387 333.415 229.126C333.267 228.866 333.06 228.644 332.812 228.479L329.404 226.479C329.321 226.409 329.219 226.367 329.112 226.358C329.004 226.349 328.896 226.373 328.803 226.428C328.71 226.482 328.636 226.565 328.591 226.663C328.546 226.762 328.532 226.872 328.552 226.979C328.567 227.279 328.652 227.571 328.8 227.831C328.948 228.092 329.155 228.314 329.404 228.479L332.812 230.48ZM302.139 188.491C302.222 188.557 302.324 188.597 302.43 188.605C302.537 188.612 302.643 188.587 302.735 188.533C302.827 188.479 302.901 188.398 302.946 188.301C302.992 188.204 303.007 188.095 302.991 187.99C302.974 187.69 302.889 187.399 302.741 187.138C302.593 186.878 302.387 186.656 302.139 186.49L286.811 177.492C286.73 177.416 286.627 177.369 286.517 177.357C286.408 177.345 286.297 177.368 286.201 177.424C286.106 177.48 286.031 177.566 285.987 177.668C285.944 177.77 285.934 177.884 285.959 177.992C285.974 178.291 286.059 178.583 286.207 178.844C286.355 179.105 286.562 179.326 286.811 179.491L302.139 188.491ZM291.916 188.491C291.998 188.561 292.101 188.603 292.208 188.613C292.316 188.622 292.424 188.597 292.517 188.542C292.611 188.487 292.685 188.405 292.73 188.306C292.774 188.207 292.788 188.096 292.768 187.99C292.752 187.69 292.667 187.398 292.519 187.138C292.371 186.877 292.165 186.655 291.916 186.49L273.223 175.492C273.141 175.422 273.039 175.378 272.93 175.369C272.822 175.359 272.714 175.383 272.62 175.438C272.527 175.494 272.452 175.577 272.408 175.676C272.363 175.776 272.351 175.887 272.372 175.994C272.387 176.293 272.473 176.585 272.621 176.845C272.769 177.105 272.975 177.327 273.223 177.493L291.916 188.491ZM281.693 176.494C281.774 176.568 281.877 176.615 281.986 176.626C282.096 176.638 282.206 176.614 282.301 176.558C282.396 176.502 282.471 176.418 282.515 176.316C282.559 176.215 282.569 176.102 282.545 175.994C282.527 175.694 282.441 175.403 282.294 175.143C282.146 174.882 281.94 174.66 281.693 174.493L273.174 169.494C273.091 169.423 272.989 169.38 272.881 169.37C272.773 169.361 272.665 169.385 272.572 169.44C272.478 169.495 272.404 169.577 272.359 169.677C272.314 169.776 272.301 169.887 272.322 169.994C272.338 170.293 272.423 170.585 272.571 170.845C272.719 171.105 272.925 171.327 273.174 171.493L281.693 176.494ZM273.174 183.492C272.925 183.326 272.719 183.104 272.571 182.844C272.423 182.583 272.338 182.292 272.322 181.992C272.3 181.885 272.313 181.774 272.357 181.674C272.402 181.574 272.476 181.491 272.57 181.436C272.664 181.381 272.773 181.357 272.881 181.367C272.989 181.377 273.092 181.421 273.174 181.492L276.581 183.492C276.83 183.658 277.036 183.88 277.184 184.14C277.332 184.401 277.417 184.692 277.433 184.992C277.454 185.099 277.441 185.209 277.396 185.309C277.351 185.408 277.277 185.491 277.184 185.545C277.09 185.6 276.982 185.625 276.874 185.615C276.766 185.605 276.664 185.562 276.581 185.492L273.174 183.492ZM281.693 188.491C281.444 188.325 281.238 188.102 281.09 187.842C280.942 187.581 280.857 187.289 280.841 186.99C280.819 186.883 280.832 186.771 280.876 186.671C280.921 186.572 280.995 186.488 281.089 186.433C281.183 186.378 281.292 186.354 281.4 186.364C281.508 186.374 281.611 186.418 281.693 186.49L302.139 198.487C302.387 198.653 302.593 198.876 302.741 199.136C302.889 199.397 302.974 199.689 302.991 199.988C303.012 200.095 302.999 200.206 302.954 200.306C302.91 200.405 302.835 200.488 302.741 200.543C302.648 200.598 302.539 200.622 302.431 200.612C302.323 200.602 302.221 200.558 302.139 200.487L281.693 188.491ZM302.139 206.487C302.222 206.553 302.324 206.593 302.43 206.6C302.536 206.608 302.642 206.583 302.734 206.529C302.826 206.475 302.9 206.395 302.945 206.298C302.991 206.201 303.007 206.093 302.991 205.987C302.975 205.687 302.889 205.396 302.741 205.135C302.593 204.875 302.387 204.653 302.139 204.487L298.731 202.488C298.647 202.421 298.546 202.381 298.439 202.374C298.333 202.366 298.227 202.391 298.135 202.445C298.043 202.5 297.969 202.58 297.923 202.677C297.878 202.774 297.862 202.883 297.879 202.989C297.895 203.288 297.981 203.58 298.128 203.84C298.276 204.101 298.483 204.323 298.731 204.489L302.139 206.487ZM293.62 201.488C293.703 201.554 293.805 201.594 293.911 201.602C294.018 201.609 294.124 201.584 294.216 201.53C294.308 201.476 294.382 201.395 294.427 201.298C294.473 201.201 294.488 201.092 294.471 200.987C294.455 200.687 294.37 200.396 294.222 200.135C294.074 199.875 293.868 199.653 293.62 199.487L273.174 187.49C273.09 187.423 272.989 187.384 272.882 187.376C272.776 187.368 272.67 187.393 272.578 187.447C272.486 187.501 272.413 187.582 272.367 187.679C272.321 187.775 272.305 187.884 272.322 187.99C272.338 188.289 272.423 188.581 272.571 188.841C272.719 189.101 272.925 189.323 273.174 189.489L293.62 201.488Z" fill="#CBCFD5"/>
<path d="M369.194 251.75C369.674 252.03 370.064 251.75 370.064 251.25C370.047 250.949 369.959 250.657 369.808 250.396C369.657 250.135 369.447 249.914 369.194 249.75L339.754 232.75C339.274 232.47 338.884 232.75 338.884 233.25C338.901 233.55 338.989 233.843 339.14 234.104C339.291 234.364 339.502 234.585 339.754 234.75L369.194 251.75Z" fill="#CBCFD5"/>
<path d="M351.449 240.512C351.449 242.172 350.289 242.842 348.849 242.012C348.093 241.519 347.464 240.854 347.013 240.072C346.561 239.291 346.3 238.414 346.249 237.512C346.249 235.852 347.419 235.182 348.849 236.012C349.607 236.504 350.237 237.169 350.689 237.951C351.141 238.733 351.401 239.61 351.449 240.512Z" fill="#CBCFD5"/>
<path fill-rule="evenodd" clip-rule="evenodd" d="M345.59 223.981C345.608 224.28 345.694 224.571 345.841 224.832C345.989 225.092 346.195 225.314 346.442 225.481C346.575 225.569 346.735 225.608 346.894 225.591L353.709 224.591C353.776 224.579 353.839 224.553 353.896 224.516C353.953 224.478 354.001 224.43 354.039 224.373C354.076 224.316 354.102 224.252 354.115 224.185C354.128 224.118 354.127 224.049 354.112 223.983C354.095 223.589 353.954 223.211 353.709 222.903L346.894 213.905C346.774 213.736 346.62 213.593 346.442 213.487C346.359 213.417 346.257 213.374 346.15 213.365C346.042 213.356 345.935 213.38 345.841 213.435C345.748 213.49 345.674 213.572 345.629 213.671C345.584 213.769 345.571 213.88 345.59 213.986V223.984V223.981Z" fill="#0367E4"/>
</g>
<defs>
<linearGradient id="paint0_linear_7163_201057" x1="187.338" y1="284.42" x2="199.008" y2="304.197" gradientUnits="userSpaceOnUse">
<stop/>
<stop offset="0.894792" stop-opacity="0"/>
</linearGradient>
<linearGradient id="paint1_linear_7163_201057" x1="122.461" y1="318.089" x2="130.863" y2="331.558" gradientUnits="userSpaceOnUse">
<stop/>
<stop offset="0.739583" stop-opacity="0"/>
</linearGradient>
<linearGradient id="paint2_linear_7163_201057" x1="196.906" y1="310.418" x2="204.869" y2="323.183" gradientUnits="userSpaceOnUse">
<stop/>
<stop offset="0.739583" stop-opacity="0"/>
</linearGradient>
<clipPath id="clip0_7163_201057">
<rect width="376" height="324" fill="white"/>
</clipPath>
</defs>
</svg>
