<svg width="376" height="324" viewBox="0 0 376 324" fill="none" xmlns="http://www.w3.org/2000/svg">
<g clip-path="url(#clip0_7092_155478)">
<path d="M62 38.8887L114 68.8089V172.532L62 142.612V38.8887Z" fill="#EAEEF3"/>
<path d="M100.008 138.5V136.5L106 140V142L100.008 138.5ZM100.008 130.5L106 134V136L100.008 132.5V130.5ZM100.008 124.5L106 128V130L100.008 126.5V124.5ZM100.008 118.5L106 122V124L100.008 120.5V118.5ZM100.008 112.5L106 116V118L100.008 114.5V112.5ZM100.008 106.5L106 110V112L100.008 108.5V106.5ZM100.008 100.5L106 104V106L100.008 102.5V100.5ZM100.008 94.5L106 98V100L100.008 96.5V94.5ZM100.008 88.5L106 92V94L100.008 90.5V88.5ZM100.008 82.5L106 86V88L100.008 84.5V82.5ZM100.008 76.5L106 80V82L100.008 78.5V76.5ZM91.008 131.5L97 134.9V136.9L91.008 133.5V131.5ZM91.008 125.5L97 128.9V130.9L91.008 127.5V125.5ZM91.008 119.5L97 122.9V124.9L91.008 121.5V119.5ZM91.008 113.5L97 116.9V118.9L91.008 115.5V113.5ZM91.008 107.5L97 110.9V112.9L91.008 109.5V107.5ZM91.008 101.5L97 104.9V106.9L91.008 103.5V101.5ZM91.008 95.5L97 98.9V100.9L91.008 97.5V95.5ZM91.008 89.5L97 92.9V94.9L91.008 91.5V89.5ZM91.008 83.5L97 86.9V88.9L91.008 85.5V83.5ZM91.008 77.5L97 80.9V82.9L91.008 79.5V77.5ZM91.008 71.5L97 74.9V76.9L91.008 73.5V71.5ZM88 71.8L70 61.5V59.5L88 69.8V71.8ZM88 77.8L70 67.5V65.5L88 75.8V77.8ZM88 83.8L70 73.5V71.5L88 81.8V83.8ZM88 89.8L70 79.5V77.5L88 87.8V89.8ZM88 95.8L70 85.5V83.5L88 93.8V95.8ZM88 101.8L70 91.5V89.5L88 99.8V101.8ZM88 107.8L70 97.5V95.5L88 105.8V107.8ZM88 113.8L70 103.5V101.5L88 111.8V113.8ZM88 119.8L70 109.5V107.5L88 117.8V119.8ZM88 125.8L70 115.5V113.5L88 123.8V125.8ZM88 131.8L70 121.5V119.5L88 129.8V131.8Z" fill="#CBCFD5"/>
<path d="M79.5 135.088L94.5 143.865C95.4 144.363 95.9 145.261 96 146.258V150.946C96 151.843 95.3 152.043 94.5 151.644L79.5 142.867C78.6 142.369 78.1 141.471 78 140.474V135.786C78 134.889 78.7 134.689 79.5 135.088Z" fill="white"/>
<path d="M50.2 83.599L23.5 68.4394L18.3 59.563L2 50.2878C1.5 49.8888 0.700018 49.8888 0.300018 50.3875C0.100018 50.6867 0 50.9859 0 51.3849V66.8436L52 96.5644V86.8902C52 85.5936 51.3 84.2971 50.2 83.599Z" fill="#CBCFD5"/>
<path d="M50.6032 84.8383L1.31635 56.6782C1.01703 56.3797 0.518204 56.3797 0.218891 56.7777C0.019349 56.9768 0.0193368 57.1758 0.0193368 57.4743V55.4842C-0.0804341 55.0862 0.218885 54.6881 0.617968 54.5886C0.81751 54.5886 1.1168 54.5886 1.31635 54.7876L22.4678 66.8278L23.3657 68.3204L50.0046 83.4452C51.1021 84.1418 51.9002 85.4354 52 86.8284V87.0275C51.9002 86.2314 51.4014 85.3359 50.6032 84.8383Z" fill="#DADCDE"/>
<path d="M50.7 83.9126L1.29999 55.6879C0.999988 55.3887 0.500012 55.3887 0.200012 55.7876C1.22041e-05 55.9871 0 56.1866 0 56.4858V95.0828C0.1 95.9804 0.499988 96.7783 1.29999 97.277L50.7 125.502C51 125.801 51.5 125.801 51.8 125.402C52 125.202 52 125.003 52 124.704V86.1068C52 85.3089 51.5 84.4113 50.7 83.9126Z" fill="#E9EBEE"/>
<path d="M26.671 103.589C21.4571 100.589 17.1456 93.1887 17.1456 87.1887C17.1456 84.2887 18.1483 82.0887 19.9531 81.0887L18.6496 80.2887C18.048 79.8887 17.647 79.2887 17.647 78.5887C17.5467 78.2887 17.8475 77.8887 18.1483 77.8887C18.3488 77.8887 18.5494 77.8887 18.6496 77.9887L23.2619 80.6887V85.9887C23.3622 86.2887 23.0614 86.6887 22.7606 86.6887C22.56 86.6887 22.3595 86.6887 22.2592 86.5887C21.6576 86.1887 21.2566 85.5887 21.2566 84.8887V83.6887C19.9531 84.4887 19.2512 86.1887 19.2512 88.3887C19.552 93.5887 22.3595 98.3887 26.7712 101.289C30.8822 103.689 34.2912 101.689 34.2912 96.9887C33.9904 91.7887 31.183 86.9887 26.7712 84.0887C26.1696 83.6887 25.7686 83.0887 25.7686 82.3887C25.6683 82.0887 25.9691 81.6887 26.2699 81.6887C26.4704 81.6887 26.671 81.6887 26.7712 81.7887C31.9851 84.7887 36.2966 92.1887 36.2966 98.1887C36.2966 104.189 31.8848 106.589 26.671 103.589Z" fill="#CBCFD5"/>
<path d="M29.3782 94.5887C29.3782 96.3887 28.175 97.0887 26.671 96.1887C25.0667 95.0887 24.064 93.2887 23.9637 91.3887C23.9637 89.5887 25.167 88.8887 26.671 89.7887C28.2752 90.8887 29.2779 92.5887 29.3782 94.5887Z" fill="white"/>
<path fill-rule="evenodd" clip-rule="evenodd" d="M52 56.7769C52 62.1502 48.2134 64.3362 43.5347 61.6761L9.37204 42.0809C4.19599 39.1121 0 31.8914 0 25.9517C0 20.012 4.19599 17.6054 9.37204 20.5753C9.98142 20.9283 10.5639 21.3254 11.1147 21.7633C11.1147 21.6998 11.1105 21.6356 11.1105 21.5725C11.1105 17.1184 14.2574 15.313 18.1396 17.5395C19.9667 18.5874 21.6298 20.3422 22.8807 22.3703C25.0601 19.4958 29.0096 19.0057 33.5205 21.5919C40.3869 25.5306 45.9535 35.11 45.9535 42.9883C45.9535 43.314 45.9406 43.6286 45.9217 43.9384C49.4361 47.1535 52 52.3561 52 56.7769Z" fill="#CBCFD5"/>
<path d="M31.4582 35.8726C31.3035 35.8026 31.1238 35.8159 30.9811 35.908C30.8384 36.0001 30.7521 36.1583 30.7521 36.3281V41.6541L28.2711 40.2068C28.1165 40.1166 27.9254 40.1159 27.7701 40.2051C27.6149 40.2943 27.5192 40.4596 27.5192 40.6387V41.6445C27.5192 41.7322 27.5422 41.8184 27.5861 41.8943L31.3579 48.4322C31.4951 48.67 31.7985 48.7527 32.0375 48.6173L35.8093 46.4799C35.966 46.3912 36.0628 46.225 36.0628 46.0449V45.0391C36.0628 44.8613 35.9683 44.6968 35.8147 44.6072L33.3686 43.1803V37.0594C33.3686 36.863 33.2537 36.6848 33.0747 36.6038L31.4582 35.8726Z" fill="white"/>
<path d="M26.6896 36.76C26.8442 36.8502 27.0353 36.8509 27.1905 36.7617C27.3458 36.6725 27.4415 36.5072 27.4415 36.3281V35.3223C27.4415 35.2346 27.4184 35.1484 27.3746 35.0725L23.6028 28.5346C23.4656 28.2968 23.1621 28.2141 22.9232 28.3495L19.1514 30.4869C18.9947 30.5756 18.8979 30.7418 18.8979 30.9219V31.9277C18.8979 32.1055 18.9923 32.27 19.146 32.3596L21.5921 33.7865V39.9074C21.5921 40.1038 21.707 40.282 21.886 40.363L23.5025 41.0942C23.6572 41.1642 23.8369 41.1509 23.9796 41.0588C24.1223 40.9667 24.2085 40.8085 24.2085 40.6387V35.3128L26.6896 36.76Z" fill="white"/>
<path d="M210.287 204.509L293.5 256.006L205.218 307.592L122.934 256.006L210.287 204.509Z" fill="url(#paint0_linear_7092_155478)" fill-opacity="0.05"/>
<path d="M236.237 205.224C236.237 205.224 236.003 229.606 236.003 231.011C235.769 240.377 229.213 249.743 216.804 257.002C191.283 271.753 149.84 271.753 124.319 257.002C111.676 249.743 105.354 240.143 105.12 230.777C105.12 228.67 105.12 205.458 105.12 205.458H236.237V205.224Z" fill="#0367E4"/>
<path d="M124.319 177.709C149.84 162.958 191.283 162.958 217.038 177.709C242.559 192.461 242.559 216.344 217.038 231.095C191.517 245.847 150.074 245.847 124.319 231.095C98.7981 216.578 98.7981 192.461 124.319 177.709Z" fill="#428BF0"/>
<path d="M236.237 169.333C236.237 169.333 236.003 193.715 236.003 195.12C235.769 204.486 229.213 213.852 216.804 221.111C191.283 235.862 149.84 235.862 124.319 221.111C111.676 213.852 105.354 204.252 105.12 194.886C105.12 192.779 105.12 169.567 105.12 169.567H236.237V169.333Z" fill="#0367E4"/>
<path d="M124.319 141.819C149.84 127.067 191.283 127.067 217.038 141.819C242.559 156.57 242.559 180.453 217.038 195.205C191.517 209.956 150.074 209.956 124.319 195.205C98.7981 180.687 98.7981 156.57 124.319 141.819Z" fill="#428BF0"/>
<path d="M236.237 133.442C236.237 133.442 236.003 157.825 236.003 159.23C235.769 168.596 229.213 177.962 216.804 185.22C191.283 199.972 149.84 199.972 124.319 185.22C111.676 177.962 105.354 168.362 105.12 158.996C105.12 156.888 105.12 133.676 105.12 133.676H236.237V133.442Z" fill="#0367E4"/>
<path d="M124.319 105.928C149.84 91.1765 191.283 91.1765 217.038 105.928C242.559 120.679 242.559 144.563 217.038 159.314C191.517 174.066 150.074 174.066 124.319 159.314C98.7981 144.797 98.7981 120.679 124.319 105.928Z" fill="#428BF0"/>
<path fill-rule="evenodd" clip-rule="evenodd" d="M151.082 122.063C155.516 119.023 161.847 117.256 168.565 116.984C175.279 116.712 182.156 117.943 187.606 120.66C188.595 121.153 189.796 120.751 190.289 119.763C190.782 118.774 190.38 117.573 189.391 117.081C183.225 114.006 175.652 112.694 168.403 112.987C161.167 113.28 154.029 115.184 148.798 118.779C148.786 118.787 148.774 118.795 148.763 118.804C145.101 121.439 142.748 124.632 142.009 128.139C141.602 130.067 141.703 131.995 142.26 133.86L136.243 131.284C135.227 130.849 134.052 131.32 133.617 132.335C133.182 133.351 133.653 134.526 134.668 134.961L145.409 139.559C146.193 139.895 147.104 139.696 147.677 139.065L153.777 132.345C154.519 131.528 154.458 130.263 153.64 129.52C152.823 128.778 151.558 128.839 150.815 129.657L146.686 134.205C145.79 132.414 145.568 130.643 145.922 128.965C146.4 126.703 147.99 124.293 151.082 122.063ZM192.901 122.715C193.474 122.084 194.385 121.885 195.169 122.221L205.909 126.819C206.925 127.254 207.396 128.429 206.961 129.445C206.526 130.46 205.351 130.931 204.335 130.496L198.296 127.911C198.824 129.737 198.914 131.637 198.514 133.532C197.774 137.043 195.415 140.248 191.664 142.788C186.433 146.38 179.298 148.282 172.065 148.575C164.815 148.869 157.243 147.556 151.077 144.482C150.088 143.989 149.686 142.788 150.179 141.8C150.672 140.811 151.873 140.41 152.861 140.902C158.311 143.62 165.189 144.851 171.903 144.579C178.63 144.306 184.969 142.535 189.404 139.487L189.416 139.479C192.536 137.368 194.123 134.968 194.6 132.707C194.952 131.041 194.735 129.293 193.891 127.575L189.763 132.123C189.021 132.941 187.756 133.002 186.938 132.26C186.12 131.518 186.059 130.253 186.801 129.435L192.901 122.715Z" fill="white"/>
<path d="M115.4 297.612L147.1 315.948L140.835 319.787L109.084 301.428L115.4 297.612Z" fill="url(#paint1_linear_7092_155478)" fill-opacity="0.1"/>
<path d="M92.5523 230.531L115.448 243.531C115.627 243.644 115.798 243.77 115.96 243.906L116.253 244.073C117.328 244.743 118 245.949 118 247.021V298.879C118 299.359 117.891 299.771 117.485 300.059C117.14 300.304 113.449 302.371 112.53 302.885C112.53 302.885 56.9623 266.676 49.8806 262.029C48.8058 261.359 48.2683 260.287 48.134 259.081V221.095L48 221.019V200.249C48 199.713 48.1344 199.311 48.4031 198.909C48.9405 198.239 50.0154 198.239 50.6872 198.775L72.5875 211.237L79.5332 223.093L92.5523 230.531Z" fill="#F9A000"/>
<path opacity="0.1" d="M117.98 299.163C117.96 299.56 117.748 299.87 117.452 300.08C117.058 300.36 112.3 303 112.3 303L49.977 262.142C48.9042 261.474 48.3678 260.404 48.2337 259.2L48.1 259.211L117.98 299.163Z" fill="black"/>
<path d="M58 182L100 206.166L110 223.22V286L58 256V182Z" fill="#DCDEE1"/>
<path d="M100 207.164L110 223.3V225.231L100 217.462V207.164Z" fill="#CBCFD5"/>
<path d="M100 206.164L110 223.231L100 217.462V206.164Z" fill="#E9EBEE"/>
<path d="M101.917 225L66.2219 205V203L101.917 223V225ZM101.917 231L66.2219 211V209L101.917 229V231ZM101.917 237L66.2219 217V215L101.917 235V237ZM101.917 243L66.2219 223V221L101.917 241V243ZM101.917 249L66.2219 229V227L101.917 247V249ZM101.917 255L66.2219 235V233L101.917 253V255ZM101.917 261L66.2219 241V239L101.917 259V261ZM84.0694 257L66.2219 247V245L84.0694 255V257Z" fill="#E9EBEE"/>
<path d="M49 187L91 211.166L101 228.22V291L49 261V187Z" fill="#EAEEF3"/>
<path d="M91 212.164L101 228.3V230.231L91 222.462V212.164Z" fill="#CBCFD5"/>
<path d="M91 211.164L101 228.231L91 222.462V211.164Z" fill="white"/>
<path d="M92.9168 230L57.2219 210V208L92.9168 228V230ZM92.9168 236L57.2219 216V214L92.9168 234V236ZM92.9168 242L57.2219 222V220L92.9168 240V242ZM92.9168 248L57.2219 228V226L92.9168 246V248ZM92.9168 254L57.2219 234V232L92.9168 252V254ZM92.9168 260L57.2219 240V238L92.9168 258V260ZM92.9168 266L57.2219 246V244L92.9168 264V266ZM75.0694 262L57.2219 252V250L75.0694 260V262Z" fill="white"/>
<path d="M43.3337 261.977C43.4678 263.181 44.0042 264.251 45.077 264.919L111.323 302.769C112.5 303.5 113.2 302.5 113.066 301.699L100.066 255.94C100.066 254.87 99.3953 253.666 98.3225 252.998L61.5496 231.987L54.7404 220.364L32.882 207.926C32.2115 207.391 31.1387 207.391 30.6023 208.06C30.3341 208.461 30.2 208.862 30.2 209.397L43.3337 261.977Z" fill="#FFD251"/>
<path fill-rule="evenodd" clip-rule="evenodd" d="M346.061 191.488C348.949 193.205 350.205 196.529 350.145 200.168C350.085 203.813 348.768 207.644 346.817 210.92C344.866 214.195 342.124 217.179 338.939 218.959C337.575 219.722 335.851 219.234 335.088 217.87C334.326 216.507 334.813 214.783 336.177 214.02C338.288 212.84 340.376 210.675 341.955 208.024C343.534 205.373 344.447 202.5 344.487 200.075C344.527 197.643 343.706 196.671 343.168 196.351C342.627 196.029 341.372 195.773 339.246 196.961C337.882 197.723 336.159 197.236 335.396 195.872C334.633 194.508 335.121 192.784 336.485 192.022C339.656 190.249 343.176 189.772 346.061 191.488Z" fill="#E9EBEE"/>
<path fill-rule="evenodd" clip-rule="evenodd" d="M296.91 163.131C299.798 164.849 301.054 168.173 300.994 171.812C300.934 175.457 299.617 179.288 297.666 182.563C295.715 185.839 292.973 188.823 289.788 190.603C288.424 191.366 286.7 190.878 285.938 189.514C285.175 188.15 285.663 186.426 287.027 185.664C289.137 184.484 291.225 182.319 292.804 179.668C294.383 177.017 295.296 174.144 295.336 171.718C295.376 169.286 294.555 168.315 294.017 167.995C293.476 167.673 292.221 167.416 290.096 168.605C288.732 169.367 287.008 168.88 286.245 167.516C285.483 166.152 285.97 164.428 287.334 163.665C290.505 161.893 294.025 161.416 296.91 163.131Z" fill="#E9EBEE"/>
<path d="M263.5 154L255.452 158.726L263.963 256.082L364 323L372 318.466V216.384L263.5 154Z" fill="#CBCFD5"/>
<path d="M263.51 153.774L255 158.34L363.518 221.28L372 216.384L263.51 153.774Z" fill="#DCDEE1"/>
<path d="M255.456 169.123V260.808L364 323V232L255.456 169.123Z" fill="#DCDEE1"/>
<path d="M364 277.261C364 289.982 355.082 305.428 344.125 311.788C338.95 314.817 334.283 315.221 330.732 313.505L330.631 313.606L224 254.445C227.348 255.556 231.406 254.95 235.972 252.325C246.625 246.066 255 230.923 255 218.404C255 198.382 255 178 255 158.338L364 221C364 239.5 364 258.508 364 277.261Z" fill="#EBEDF0"/>
<path d="M364 243L255 180.5V158.35L364 221V243Z" fill="#DCDEE1"/>
<path fill-rule="evenodd" clip-rule="evenodd" d="M274.68 204.542L294.32 215.873C294.698 216.1 295 216.553 295 217.006V240.424C295 240.877 294.698 241.028 294.32 240.801L274.68 229.471C274.302 229.244 274 228.791 274 228.337V204.92C274 204.467 274.302 204.316 274.68 204.542ZM324.68 232.504L344.32 243.835C344.773 244.062 345 244.515 345 244.968V268.385C345 268.763 344.698 268.99 344.32 268.763L324.68 257.432C324.302 257.206 324 256.752 324 256.299V232.882C324 232.429 324.302 232.277 324.68 232.504Z" fill="white"/>
<path d="M285.107 266.56C284.967 266.712 284.731 266.753 284.532 266.643L265.167 255.963C265.167 255.963 265.167 255.963 265.167 255.962C265.166 255.96 265.167 255.958 265.167 255.956C265.167 255.955 265.168 255.954 265.169 255.952C273.258 245.301 274.363 237.643 274.486 233.877C274.486 233.874 274.487 233.872 274.487 233.872L274.487 233.871C274.488 233.87 274.49 233.867 274.494 233.865C274.496 233.864 274.497 233.864 274.498 233.863C274.498 233.864 274.499 233.864 274.5 233.864L294.288 245.248C294.448 245.34 294.532 245.5 294.524 245.655C294.389 248.328 293.316 252.173 291.619 256.063C289.925 259.948 287.635 263.821 285.107 266.56Z" fill="white" stroke="white"/>
<path d="M310.433 281.299C310.131 281.626 309.644 281.695 309.253 281.482L290.015 270.996C289.745 270.849 289.674 270.491 289.86 270.246C297.887 259.676 298.956 252.118 299.074 248.454C299.087 248.071 299.502 247.834 299.835 248.023L319.495 259.212C319.807 259.39 320.003 259.721 319.985 260.08C319.704 265.596 315.589 275.713 310.433 281.299Z" fill="white"/>
<path d="M335.437 295.294C335.133 295.623 334.643 295.691 334.251 295.473L315.008 284.772C314.741 284.624 314.672 284.267 314.857 284.024C322.881 273.46 323.954 265.903 324.074 262.236C324.087 261.851 324.505 261.614 324.838 261.807L344.502 273.211C344.81 273.39 345.003 273.719 344.985 274.075C344.706 279.588 340.593 289.705 335.437 295.294Z" fill="white"/>
<path d="M319.32 230.035L299.68 218.704C299.302 218.477 299 218.629 299 219.082V242.499C299 242.952 299.302 243.406 299.68 243.632L319.32 254.963C319.698 255.19 320 254.963 320 254.585V231.168C320 230.715 319.773 230.262 319.32 230.035Z" fill="#35B65E"/>
<path d="M289.422 187.458C288.82 186.651 288.45 185.682 288.333 184.691C288.261 183.82 288.473 183.135 289.014 182.757C289.555 182.379 290.271 182.415 291.064 182.782C292.856 183.754 294.081 185.507 294.378 187.523C294.449 188.394 294.237 189.079 293.696 189.457C293.155 189.835 292.421 189.773 291.646 189.432C290.755 188.981 289.973 188.3 289.422 187.458Z" fill="#393E41"/>
<path d="M290.425 186.757C290.074 186.255 289.838 185.676 289.746 185.064C289.703 184.598 289.839 184.325 290.021 184.198C290.193 184.077 290.466 184.046 290.939 184.243C292.021 184.838 292.763 185.903 292.947 187.125C292.99 187.591 292.853 187.864 292.671 187.991C292.499 188.112 292.225 188.143 291.749 187.944C291.235 187.675 290.775 187.259 290.425 186.757Z" fill="#E9EBEE" stroke="#E9EBEE"/>
<path d="M287.333 188.918C286.982 188.416 286.745 187.836 286.653 187.224C286.61 186.758 286.747 186.486 286.928 186.359L289.611 184.484L292.28 188.303L289.597 190.177C289.446 190.283 289.145 190.326 288.679 190.133C288.141 189.836 287.681 189.417 287.333 188.918Z" fill="#E9EBEE" stroke="#E9EBEE"/>
<path fill-rule="evenodd" clip-rule="evenodd" d="M279.892 191.36C277.004 189.642 275.748 186.318 275.808 182.679C275.868 179.034 277.185 175.203 279.136 171.927C281.087 168.652 283.829 165.668 287.014 163.888C288.378 163.125 290.102 163.613 290.864 164.977C291.627 166.341 291.139 168.064 289.775 168.827C287.665 170.007 285.577 172.172 283.998 174.823C282.419 177.474 281.506 180.347 281.466 182.772C281.426 185.205 282.247 186.176 282.785 186.496C283.326 186.818 284.581 187.074 286.706 185.886C288.07 185.124 289.794 185.611 290.557 186.975C291.319 188.339 290.832 190.063 289.468 190.825C286.297 192.598 282.777 193.075 279.892 191.36Z" fill="#E9EBEE"/>
<path d="M338.573 215.814C337.971 215.007 337.601 214.038 337.483 213.047C337.412 212.176 337.624 211.491 338.165 211.113C338.706 210.735 339.422 210.772 340.215 211.138C342.007 212.11 343.231 213.863 343.528 215.88C343.6 216.75 343.388 217.435 342.847 217.813C342.306 218.191 341.572 218.129 340.797 217.788C339.906 217.337 339.124 216.656 338.573 215.814Z" fill="#393E41"/>
<path d="M339.576 215.113C339.225 214.612 338.989 214.032 338.897 213.42C338.854 212.954 338.99 212.681 339.172 212.554C339.344 212.434 339.616 212.402 340.09 212.599C341.172 213.195 341.913 214.259 342.097 215.481C342.14 215.947 342.004 216.22 341.822 216.347C341.649 216.468 341.376 216.499 340.9 216.3C340.385 216.031 339.926 215.615 339.576 215.113Z" fill="#E9EBEE" stroke="#E9EBEE"/>
<path d="M336.483 217.274C336.133 216.772 335.896 216.193 335.804 215.581C335.761 215.115 335.897 214.842 336.079 214.715L338.762 212.84L341.43 216.659L338.748 218.534C338.596 218.639 338.296 218.682 337.83 218.489C337.291 218.192 336.832 217.773 336.483 217.274Z" fill="#E9EBEE" stroke="#E9EBEE"/>
<path fill-rule="evenodd" clip-rule="evenodd" d="M329.043 219.716C326.154 217.998 324.899 214.674 324.958 211.036C325.018 207.391 326.336 203.559 328.287 200.284C330.238 197.008 332.98 194.025 336.165 192.244C337.529 191.481 339.253 191.969 340.015 193.333C340.778 194.697 340.29 196.421 338.926 197.183C336.815 198.363 334.728 200.528 333.149 203.179C331.57 205.83 330.656 208.703 330.616 211.129C330.576 213.561 331.398 214.532 331.935 214.852C332.477 215.174 333.732 215.431 335.857 214.242C337.221 213.48 338.945 213.967 339.708 215.331C340.47 216.695 339.983 218.419 338.619 219.182C335.448 220.954 331.928 221.431 329.043 219.716Z" fill="#E9EBEE"/>
<path fill-rule="evenodd" clip-rule="evenodd" d="M306.496 232.304C306.236 231.915 305.888 231.692 305.513 231.617C305.151 231.545 304.801 231.618 304.527 231.755L304.499 231.769L304.474 231.786C304.085 232.046 303.861 232.394 303.786 232.769C303.714 233.13 303.787 233.481 303.924 233.755L303.93 233.766L307.917 240.791C308.174 241.296 308.593 241.585 309.022 241.668L309.026 241.669L309.049 241.673C309.066 241.676 309.09 241.68 309.12 241.684C309.178 241.692 309.258 241.7 309.352 241.703C309.532 241.708 309.8 241.694 310.063 241.588L310.093 241.575L319.293 236.401L319.341 236.352C319.587 236.107 319.774 235.798 319.87 235.478C319.964 235.163 319.984 234.785 319.814 234.446L319.778 234.374L319.721 234.316C319.475 234.071 319.167 233.884 318.846 233.788C318.531 233.693 318.154 233.673 317.815 233.843L317.807 233.847L309.876 238.173L306.505 232.318L306.496 232.304Z" fill="white"/>
</g>
<defs>
<linearGradient id="paint0_linear_7092_155478" x1="159.709" y1="276.814" x2="174.938" y2="302.624" gradientUnits="userSpaceOnUse">
<stop/>
<stop offset="0.894792" stop-opacity="0"/>
</linearGradient>
<linearGradient id="paint1_linear_7092_155478" x1="109.847" y1="301.966" x2="120.157" y2="319.818" gradientUnits="userSpaceOnUse">
<stop/>
<stop offset="0.894792" stop-opacity="0"/>
</linearGradient>
<clipPath id="clip0_7092_155478">
<rect width="376" height="324" fill="white"/>
</clipPath>
</defs>
</svg>
