<svg width="376" height="324" viewBox="0 0 376 324" fill="none" xmlns="http://www.w3.org/2000/svg">
<g clip-path="url(#clip0_698_20314)">
<path d="M14.9189 268.398L151.719 277.598C151.719 277.598 151.719 280.298 151.719 280.898C151.719 281.598 151.319 282.198 150.819 282.498L94.2189 315.198C92.8189 315.998 90.3189 315.898 88.7189 314.998L16.4189 273.298C15.6189 272.998 15.1189 272.198 15.0189 271.298C14.9189 270.798 14.9189 268.398 14.9189 268.398Z" fill="#CBCFD5"/>
<path d="M15.8189 267.498L72.4189 234.798C73.8189 233.998 76.3189 234.098 77.9189 234.998L150.219 276.698C151.819 277.598 152.019 279.098 150.619 279.898L94.0189 312.598C92.6189 313.398 90.1189 313.298 88.5189 312.398L16.2189 270.698C14.6189 269.698 14.4189 268.298 15.8189 267.498Z" fill="#EAEEF3"/>
<path d="M22.8863 268.202L74.3863 238.502C75.6863 237.802 77.9863 237.802 79.3863 238.702L143.086 275.202C144.586 276.102 144.786 277.402 143.486 278.102L91.3863 307.802C90.0863 308.502 87.7863 308.502 86.3863 307.602L23.3863 271.102C21.6863 270.202 21.5863 268.902 22.8863 268.202Z" fill="white"/>
<path d="M84.6519 262.995C79.7664 262.317 74.8946 264.35 73.8105 267.474C72.7263 270.597 75.7416 273.728 80.627 274.405C85.5124 275.083 90.3842 273.05 91.4684 269.927C92.5525 266.803 89.5576 263.672 84.6519 262.995ZM86.2848 269.208C86.1561 269.581 86.5152 269.947 87.0912 270.021L89.1239 270.299C88.0127 272.108 85.2007 273.267 82.1922 273.159L82.6462 271.871C82.7749 271.499 82.4158 271.133 81.8466 271.051C81.6047 270.995 81.3513 271.016 81.1217 271.111C80.8921 271.205 80.6978 271.369 80.566 271.58L80.0714 272.867C77.2662 272.19 75.4976 270.381 75.7077 268.443L77.7405 268.721C77.9817 268.777 78.2346 268.758 78.4641 268.664C78.6936 268.571 78.8883 268.408 79.0211 268.199C79.1498 267.826 78.7907 267.46 78.2148 267.379L76.2159 267.101C77.3271 265.292 80.1391 264.133 83.1476 264.248L82.6936 265.536C82.5581 265.902 82.924 266.268 83.4932 266.349C83.7351 266.407 83.9893 266.388 84.2193 266.293C84.4494 266.198 84.6435 266.032 84.7738 265.82L85.2278 264.533C88.0262 265.211 89.8015 267.027 89.5915 268.958L87.5926 268.68C87.3467 268.617 87.0874 268.635 86.8522 268.73C86.617 268.825 86.4183 268.993 86.2848 269.208Z" fill="#FBC666"/>
<path opacity="0.2" d="M62.519 258.698C73.419 252.398 91.119 252.398 102.019 258.698C112.919 264.998 112.919 275.198 102.019 281.498C91.119 287.798 73.419 287.798 62.519 281.498C51.619 275.198 51.619 264.998 62.519 258.698Z" fill="#FBC666"/>
<path opacity="0.2" d="M110.319 248.093C110.319 248.093 110.119 265.698 110.219 269.698C110.319 273.898 107.619 278.198 102.019 281.398C91.119 287.698 73.419 287.698 62.519 281.398C59.519 279.698 54.319 275.698 54.319 269.998C54.319 266.098 54.319 248.628 54.319 248.628C54.319 248.628 70.3715 254.32 81.4645 254.423C93.2568 254.533 110.319 248.093 110.319 248.093Z" fill="#FBC666"/>
<path opacity="0.2" d="M91.7763 238.035C91.7763 238.035 91.7109 267.856 91.7436 269.164C91.7763 270.537 90.8934 271.944 89.0621 272.99C85.4977 275.05 79.7096 275.05 76.1451 272.99C75.1641 272.434 73.4636 271.126 73.4636 269.262C73.4636 267.987 73.4636 238.21 73.4636 238.21C73.4636 238.21 78.713 240.071 82.3406 240.105C86.1968 240.141 91.7763 238.035 91.7763 238.035Z" fill="#FBC666"/>
<path d="M205.199 257.471L289.656 306.762L260.351 323.875L175.748 274.482L205.199 257.471Z" fill="url(#paint0_linear_698_20314)" fill-opacity="0.1"/>
<path d="M143.9 190L1.90002 108V0L143.9 82V190Z" fill="#E9EBEE"/>
<path d="M53 43.5001C53.5 43.8001 53.9 43.5001 53.9 43.0001C53.9 42.4001 53.5 41.8001 53 41.5001L27 26.5001C26.5 26.2001 26.1 26.5001 26.1 27.0001C26.1 27.6001 26.5 28.2001 27 28.5001L53 43.5001Z" fill="#DCDEE1"/>
<path d="M39.0999 41.5001C39.5999 41.8001 40 41.5001 40 41.0001C40 40.4001 39.5999 39.8001 39.0999 39.5001L13.1 24.5001C12.6 24.2001 12.2 24.5001 12.2 25.0001C12.2 25.6001 12.6 26.2001 13.1 26.5001L39.0999 41.5001Z" fill="#DCDEE1"/>
<path d="M77.2 63.5001C77.7 63.8001 78.1 63.5001 78.1 63.0001C78.1 62.4001 77.7 61.8001 77.2 61.5001L44.3 42.5001C43.8 42.2001 43.4 42.5001 43.4 43.0001C43.4 43.6001 43.8 44.2001 44.3 44.5001L77.2 63.5001Z" fill="#CBCFD5"/>
<path d="M21.8 25.5001C22.3 25.8001 22.7 25.5001 22.7 25.0001C22.7 24.4001 22.3 23.8001 21.8 23.5001L13.1 18.5001C12.6 18.2001 12.2 18.5001 12.2 19.0001C12.2 19.6001 12.6 20.2001 13.1 20.5001L21.8 25.5001Z" fill="#CBCFD5"/>
<path d="M132.6 89.5001C133.1 89.8001 133.5 89.5001 133.5 89.0001C133.5 88.4001 133.1 87.8001 132.6 87.5001L58.0999 44.5001C57.5999 44.2001 57.2 44.5001 57.2 45.0001C57.2 45.6001 57.5999 46.2001 58.0999 46.5001L132.6 89.5001Z" fill="#DCDEE1"/>
<path d="M13.1 32.5001C12.6 32.2001 12.3 31.6001 12.2 31.0001C12.2 30.5001 12.6 30.2001 13.1 30.5001L21.8 35.5001C22.3 35.8001 22.6 36.4001 22.7 37.0001C22.7 37.5001 22.3 37.8001 21.8 37.5001L13.1 32.5001Z" fill="#CBCFD5"/>
<path d="M82.4 66.4999C81.9 66.1999 81.6 65.5999 81.5 64.9999C81.5 64.3999 81.9 64.1999 82.4 64.4999L91.1 69.4999C91.6 69.7999 91.9 70.3999 92 70.9999C92 71.5999 91.6 71.7999 91.1 71.4999L82.4 66.4999Z" fill="#DCDEE1"/>
<path d="M120.5 94.4999C120 94.1999 119.7 93.5999 119.6 92.9999C119.6 92.3999 120 92.1999 120.5 92.4999L125.7 95.4999C126.2 95.7999 126.5 96.3999 126.6 96.9999C126.6 97.5999 126.2 97.7999 125.7 97.4999L120.5 94.4999Z" fill="#CBCFD5"/>
<path d="M120.5 146.5C120 146.2 119.7 145.6 119.6 145C119.6 144.4 120 144.2 120.5 144.5L125.7 147.5C126.2 147.8 126.5 148.4 126.6 149C126.6 149.6 126.2 149.8 125.7 149.5L120.5 146.5Z" fill="#CBCFD5"/>
<path d="M110.1 140.5C109.6 140.2 109.3 139.6 109.2 139C109.2 138.4 109.6 138.2 110.1 138.5L115.3 141.5C115.8 141.8 116.1 142.4 116.2 143C116.2 143.6 115.8 143.8 115.3 143.5L110.1 140.5Z" fill="#DCDEE1"/>
<path d="M96.3 80.4999C95.8 80.1999 95.5 79.5999 95.4 78.9999C95.4 78.3999 95.8 78.1999 96.3 78.4999L115.4 89.4999C115.9 89.7999 116.2 90.3999 116.3 90.9999C116.3 91.5999 115.9 91.7999 115.4 91.4999L96.3 80.4999Z" fill="#DCDEE1"/>
<path d="M23.5 56.5001C23 56.2001 22.7 55.6001 22.6 55.0001C22.6 54.5001 23 54.2001 23.5 54.5001L39.1 63.5001C39.6 63.8001 39.9 64.4001 40 65.0001C40 65.6001 39.6 65.8001 39.1 65.5001L23.5 56.5001Z" fill="#DCDEE1"/>
<path d="M120.5 152.5C120 152.2 119.7 151.6 119.6 151C119.6 150.4 120 150.2 120.5 150.5L132.6 157.5C133.1 157.8 133.4 158.4 133.5 159C133.5 159.6 133.1 159.8 132.6 159.5L120.5 152.5Z" fill="#DCDEE1"/>
<path d="M33.9 90.4999C33.4 90.1999 33.1 89.5999 33 88.9999C33 88.3999 33.4 88.1999 33.9 88.4999L39.1 91.4999C39.6 91.7999 39.9 92.3999 40 92.9999C40 93.5999 39.6 93.7999 39.1 93.4999L33.9 90.4999Z" fill="#CBCFD5"/>
<path d="M27 40.5001C26.5 40.2001 26.2 39.6001 26.1 39.0001C26.1 38.5001 26.5 38.2001 27 38.5001L91.1 75.5001C91.6 75.8001 91.9 76.4001 92 77.0001C92 77.6001 91.6 77.8001 91.1 77.5001L27 40.5001Z" fill="#DCDEE1"/>
<path d="M44.3 108.5C43.8 108.2 43.5 107.6 43.4 107C43.4 106.4 43.8 106.2 44.3 106.5L115.3 147.5C115.8 147.8 116.1 148.4 116.2 149C116.2 149.6 115.8 149.8 115.3 149.5L44.3 108.5Z" fill="#DCDEE1"/>
<path d="M39.0999 53.5001C39.5999 53.8001 40 53.5001 40 53.0001C40 52.4001 39.5999 51.8001 39.0999 51.5001L13.1 36.5001C12.6 36.2001 12.2 36.5001 12.2 37.0001C12.2 37.6001 12.6 38.2001 13.1 38.5001L39.0999 53.5001Z" fill="#DCDEE1"/>
<path d="M77.2 75.5001C77.7 75.8001 78.1 75.5001 78.1 75.0001C78.1 74.4001 77.7 73.8001 77.2 73.5001L44.3 54.5001C43.8 54.2001 43.4 54.5001 43.4 55.0001C43.4 55.6001 43.8 56.2001 44.3 56.5001L77.2 75.5001Z" fill="#DCDEE1"/>
<path d="M53 67.5001C53.5 67.8001 53.9 67.5001 53.9 67.0001C53.9 66.4001 53.5 65.8001 53 65.5001L23.6 48.5001C23.1 48.2001 22.7 48.5001 22.7 49.0001C22.7 49.6001 23.1 50.2001 23.6 50.5001L53 67.5001Z" fill="#DCDEE1"/>
<path d="M53 119.5C53.5 119.8 53.9 119.5 53.9 119C53.9 118.4 53.5 117.8 53 117.5L23.6 100.5C23.1 100.2 22.7 100.5 22.7 101C22.7 101.6 23.1 102.2 23.6 102.5L53 119.5Z" fill="#DCDEE1"/>
<path d="M33.9 78.4999C33.4 78.1999 33.1 77.5999 33 76.9999C33 76.3999 33.4 76.1999 33.9 76.4999L52.9 87.4999C53.4 87.7999 53.7 88.3999 53.8 88.9999C53.8 89.5999 53.4 89.7999 52.9 89.4999L33.9 78.4999Z" fill="#DCDEE1"/>
<path d="M13.1 96.4999C12.6 96.1999 12.3 95.5999 12.2 94.9999C12.2 94.3999 12.6 94.1999 13.1 94.4999L18.3 97.4999C18.8 97.7999 19.1 98.3999 19.2 98.9999C19.2 99.5999 18.8 99.7999 18.3 99.4999L13.1 96.4999Z" fill="#CBCFD5"/>
<path d="M23.5 96.4999C23 96.1999 22.7 95.5999 22.6 94.9999C22.6 94.3999 23 94.1999 23.5 94.4999L39.1 103.5C39.6 103.8 39.9 104.4 40 105C40 105.6 39.6 105.8 39.1 105.5L23.5 96.4999Z" fill="#DCDEE1"/>
<path d="M77.2 109.5C77.7 109.8 78.1 109.5 78.1 109C78.1 108.4 77.7 107.8 77.2 107.5L44.3 88.5001C43.8 88.2001 43.4 88.5001 43.4 89.0001C43.4 89.6001 43.8 90.2001 44.3 90.5001L77.2 109.5Z" fill="#DCDEE1"/>
<path d="M104.9 137.5C105.4 137.8 105.8 137.6 105.8 137C105.8 136.4 105.4 135.8 104.9 135.5L82.4 122.5C81.9 122.2 81.5 122.5 81.5 123C81.5 123.6 81.9 124.2 82.4 124.5L104.9 137.5Z" fill="#DCDEE1"/>
<path d="M77.2 121.5C77.7 121.8 78.1 121.5 78.1 121C78.1 120.4 77.7 119.8 77.2 119.5L33.9 94.5001C33.4 94.2001 33 94.5001 33 95.0001C33 95.6001 33.4 96.2001 33.9 96.5001L77.2 121.5Z" fill="#DCDEE1"/>
<path d="M53 101.5C53.5 101.8 53.9 101.5 53.9 101C53.9 100.4 53.5 99.8001 53 99.5001L44.3 94.5001C43.8 94.2001 43.4 94.5001 43.4 95.0001C43.4 95.6001 43.8 96.2001 44.3 96.5001L53 101.5Z" fill="#DCDEE1"/>
<path d="M77.2 139.5C77.7 139.8 78.1 139.6 78.1 139C78.1 138.4 77.7 137.8 77.2 137.5L44.3 118.5C43.8 118.2 43.4 118.5 43.4 119C43.4 119.6 43.8 120.2 44.3 120.5L77.2 139.5Z" fill="#CBCFD5"/>
<path d="M39.0999 117.5C39.5999 117.8 40 117.5 40 117C40 116.4 39.5999 115.8 39.0999 115.5L13.1 100.5C12.6 100.2 12.2 100.5 12.2 101C12.2 101.6 12.6 102.2 13.1 102.5L39.0999 117.5Z" fill="#DCDEE1"/>
<path d="M116.2 206L83.3 187V161L116.2 180V206Z" fill="#0367E4"/>
<path d="M104.9 191.5C104.6 191.3 104.4 191.1 104.3 190.9C104 190.3 104 189.7 104.3 189.5L107.1 187.9L104.3 183C104 182.4 104 181.8 104.3 181.6C104.6 181.4 105.2 181.7 105.5 182.3L109 188.3C109.3 188.9 109.3 189.5 109 189.7L105.5 191.7C105.3 191.7 105.1 191.6 104.9 191.5Z" fill="white"/>
<path d="M98 187.5C97.9 187.4 97.7 187.3 97.6 187.2C97.2 186.8 97 186.2 97.2 185.6L100.7 179.6C100.9 179.2 101.4 179.3 101.9 179.8C102.3 180.2 102.5 180.8 102.3 181.4L98.8 187.4C98.6 187.7 98.3 187.7 98 187.5Z" fill="white"/>
<path d="M94.5 185.5C94.2 185.3 94 185.1 93.9 184.9L90.4 178.9C90.1 178.3 90.1 177.7 90.4 177.5L93.9 175.5C94.2 175.3 94.8 175.6 95.1 176.2C95.4 176.8 95.4 177.4 95.1 177.6L92.3001 179.2L95.1 184.1C95.4 184.7 95.4 185.3 95.1 185.5C95 185.7 94.7 185.6 94.5 185.5Z" fill="white"/>
<path opacity="0.48" d="M202.6 255.2C203.1 255.9 203.8 256.5 204.5 257C205.1 257.4 205.7 257.5 206.4 257.4L251.4 249.4C251.6 249.4 251.8 249.3 252 249.2C252.7 248.7 253.1 247.8 253 247V147C253 145.8 252.6 144.6 252 143.6C251.6 142.8 251 142.2 250.3 141.6L205.3 103.6C205.1 103.4 204.8 103.2 204.5 103C204.3 102.9 204 102.7 203.7 102.7L158.7 88.6999C158.2 88.4999 157.5 88.4999 157 88.7999C156.3 89.2999 155.9 90.0999 155.9 90.9999V191C155.9 192.2 156.3 193.4 156.9 194.4C157.1 194.7 157.3 195 157.5 195.2L202.6 255.2Z" fill="#6B9DE3"/>
<path opacity="0.48" d="M252 143.6C251.6 142.8 251 142.2 250.3 141.6L205.3 103.6C205.1 103.4 204.8 103.2 204.5 103C204.3 102.9 204 102.7 203.7 102.7L158.7 88.6999C158.2 88.4999 157.5 88.4999 157 88.7999L134.5 101.8C133.8 102.3 133.4 103.2 133.5 104V204C133.5 205.2 133.9 206.4 134.5 207.4C134.7 207.7 134.8 208 135.1 208.2L180.1 268.2C180.6 268.9 181.2 269.5 182 270C182.6 270.4 183.2 270.5 183.9 270.4L228.9 262.4C229.1 262.4 229.3 262.3 229.5 262.2L252 249.2C252.7 248.7 253.1 247.8 253 247V147C252.9 145.8 252.6 144.6 252 143.6Z" fill="#6B9DE3"/>
<path d="M229.5 156.6C230.1 157.6 230.5 158.8 230.5 160V260C230.6 260.9 230.2 261.7 229.5 262.2L222.6 266.2V160.6L220.9 158.6L227.8 154.6L229.5 156.6Z" fill="#347BE9"/>
<path d="M222.6 160.6L229.5 156.6C229.1 155.8 228.5 155.2 227.8 154.6L182.8 116.6C182.5 116.4 182.3 116.2 182 116C181.8 115.9 181.5 115.7 181.2 115.7L136.2 101.7C135.7 101.5 135 101.5 134.5 101.8L127.6 105.8L222.6 160.6Z" fill="#428BF0"/>
<path d="M173.2 272.3C173.7 273 174.3 273.6 175.1 274.1C175.7 274.5 176.3 274.6 177 274.5L222 266.5C222.2 266.5 222.4 266.4 222.6 266.3C223.3 265.8 223.7 264.9 223.6 264.1V164C223.6 162.8 223.2 161.6 222.6 160.6C222.2 159.8 221.6 159.2 220.9 158.6L175.9 120.6C175.7 120.4 175.4 120.2 175.1 120C174.9 119.9 174.6 119.7 174.3 119.7L129.3 105.7C128.8 105.5 128.1 105.5 127.6 105.8C126.9 106.3 126.5 107.2 126.6 108V208C126.6 209.2 127 210.4 127.6 211.4C127.8 211.7 127.9 212 128.2 212.2L173.2 272.3Z" fill="#0367E4"/>
<path d="M261.7 161V258L376 324V227L261.7 161Z" fill="#EAEEF3"/>
<path d="M376 228L261.7 162V150L376 216V228Z" fill="#CBCFD5"/>
<path d="M268.6 160C268.6 161.1 267.8 161.6 266.9 161C265.9 160.3 265.2 159.2 265.2 158C265.2 156.9 266 156.4 266.9 157C267.9 157.7 268.5 158.8 268.6 160Z" fill="white"/>
<path d="M275.5 164C275.5 165.1 274.7 165.6 273.8 165C272.8 164.3 272.1 163.2 272.1 162C272.1 160.9 272.9 160.4 273.8 161C274.8 161.7 275.5 162.8 275.5 164Z" fill="white"/>
<path d="M282.5 168C282.5 169.1 281.7 169.6 280.8 169C279.8 168.3 279.1 167.2 279.1 166C279.1 164.9 279.9 164.4 280.8 165C281.8 165.7 282.4 166.8 282.5 168Z" fill="white"/>
<path d="M337.9 246C338.4 246.3 338.8 246.1 338.8 245.5C338.8 244.9 338.4 244.3 337.9 244L334.4 242C333.9 241.7 333.5 241.9 333.5 242.5C333.5 243.1 333.9 243.7 334.4 244L337.9 246Z" fill="#CBCFD5"/>
<path d="M329.2 241C329.7 241.3 330.1 241.1 330.1 240.5C330.1 239.9 329.7 239.3 329.2 239L325.7 237C325.2 236.7 324.8 236.9 324.8 237.5C324.8 238.1 325.2 238.7 325.7 239L329.2 241Z" fill="#CBCFD5"/>
<path d="M320.6 236C321.1 236.3 321.5 236.1 321.5 235.5C321.5 234.9 321.1 234.3 320.6 234L317.1 232C316.6 231.7 316.2 231.9 316.2 232.5C316.2 233.1 316.6 233.7 317.1 234L320.6 236Z" fill="#CBCFD5"/>
<path d="M311.9 231C312.4 231.3 312.8 231.1 312.8 230.5C312.8 229.9 312.4 229.3 311.9 229L308.4 227C307.9 226.7 307.5 226.9 307.5 227.5C307.5 228.1 307.9 228.7 308.4 229L311.9 231Z" fill="#CBCFD5"/>
<path d="M303.3 226C303.8 226.3 304.2 226.1 304.2 225.5C304.2 224.9 303.8 224.3 303.3 224L299.8 222C299.3 221.7 298.9 221.9 298.9 222.5C298.9 223.1 299.3 223.7 299.8 224L303.3 226Z" fill="#CBCFD5"/>
<path d="M364.7 267.5L338.7 252.5C338.2 252.2 337.8 252.4 337.8 253V289C337.8 289.6 338.2 290.2 338.7 290.5L364.7 305.5C365.2 305.8 365.6 305.5 365.6 305V269C365.6 268.4 365.3 267.8 364.7 267.5Z" fill="#CBCFD5"/>
<path d="M331.8 248.5L272.9 214.5C272.4 214.2 272 214.4 272 215V251C272 251.6 272.4 252.2 272.9 252.5L331.8 286.5C332.3 286.8 332.7 286.5 332.7 286V250C332.7 249.4 332.3 248.8 331.8 248.5Z" fill="#CBCFD5"/>
<path d="M326.6 221.5C326.6 226.5 323.1 228.5 318.8 226C314.2 223 311.3 218 311 212.5C311 207.5 314.5 205.5 318.8 208C323.4 211 326.3 216 326.6 221.5Z" fill="#35B65E"/>
<path d="M321.4 216.5C321.4 218.2 320.2 218.8 318.8 218C317.3 217 316.3 215.3 316.2 213.5C316.2 211.8 317.4 211.2 318.8 212C320.4 213 321.3 214.7 321.4 216.5Z" fill="white"/>
<path d="M323.2 225.5C323.1 223.7 322.1 222 320.6 221L317.1 219C315.7 218.2 314.5 218.8 314.5 220.5V223.5L323.2 228.5V225.5Z" fill="white"/>
<path d="M318.8 207C314 204.2 310.1 206.5 310.1 212C310.1 217.5 314 224.2 318.8 227C323.6 229.8 327.5 227.5 327.5 222C327.5 216.5 323.6 209.8 318.8 207ZM318.8 225C314.7 222.3 312.1 217.9 311.9 213C311.9 208.6 315 206.8 318.8 209C322.9 211.7 325.5 216.1 325.7 221C325.8 225.4 322.7 227.2 318.8 225Z" fill="#35B65E"/>
<path d="M275.5 298L234 274V240L275.5 264V298Z" fill="#0367E4"/>
<path d="M241.8 263.5V259.5L239.2 258V262L241.8 263.5Z" fill="white"/>
<path d="M241.8 258.5V256.5L240.1 255.5C239.6 255.2 239.2 255.4 239.2 256V257L241.8 258.5Z" fill="white"/>
<path d="M239.2 263V264C239.2 264.6 239.6 265.2 240.1 265.5L241.8 266.5V264.5L239.2 263Z" fill="white"/>
<path d="M246.1 266L249.6 268V262C249.6 261.4 249.2 260.8 248.7 260.5L242.6 257V267L246.1 269V266Z" fill="white"/>
<path d="M247 267.5V269.5L248.7 270.5C249.2 270.8 249.6 270.5 249.6 270V269L247 267.5Z" fill="white"/>
<path d="M257.4 271.5C257.9 271.8 258.3 271.5 258.3 271C258.3 270.4 257.9 269.8 257.4 269.5L253.9 267.5C253.4 267.2 253 267.5 253 268C253 268.6 253.4 269.2 253.9 269.5L257.4 271.5Z" fill="white"/>
<path d="M263.4 275C263.9 275.3 264.3 275 264.3 274.5C264.3 273.9 263.9 273.3 263.4 273L260 271C259.5 270.7 259.1 271 259.1 271.5C259.1 272.1 259.5 272.7 260 273L263.4 275Z" fill="white"/>
<path d="M269.5 278.5C270 278.8 270.4 278.5 270.4 278C270.4 277.4 270 276.8 269.5 276.5L266 274.5C265.5 274.2 265.1 274.5 265.1 275C265.1 275.6 265.5 276.2 266 276.5L269.5 278.5Z" fill="white"/>
<path d="M269.5 268.5C270 268.8 270.4 268.5 270.4 268C270.4 267.4 270 266.8 269.5 266.5L264.3 263.5C263.8 263.2 263.4 263.5 263.4 264C263.4 264.6 263.8 265.2 264.3 265.5L269.5 268.5Z" fill="white"/>
<path d="M269.5 288.5C270 288.8 270.4 288.5 270.4 288C270.4 287.4 270 286.8 269.5 286.5L264.3 283.5C263.8 283.2 263.4 283.5 263.4 284C263.4 284.6 263.8 285.2 264.3 285.5L269.5 288.5Z" fill="white"/>
<path d="M189.4 188L186.8 186.5V185.5C186.8 176.1 180.2 164.7 172.1 160C164 155.3 157.4 159.1 157.4 168.5V169.5L154.8 168C153.4 167.2 152.2 167.8 152.2 169.5V207.5C152.2 209.2 153.4 211.2 154.8 212L189.4 232C190.8 232.8 192 232.2 192 230.5V192.5C192 190.8 190.8 188.8 189.4 188ZM162.6 171.5C162.6 165.4 166.9 163 172.1 166C177.3 169 181.6 176.4 181.6 182.5V183.5L162.5 172.5L162.6 171.5ZM157.4 207.5V175.5L185.6 191.8L172.1 199.6L166.5 189.9C166.3 189.6 166.1 189.5 165.9 189.5L162.7 191.4C162.5 191.5 162.5 191.8 162.7 192.1L171.6 207.5C171.7 207.6 171.8 207.8 171.9 207.8L172.3 208C172.4 208.1 172.5 208.1 172.6 208L186.8 199.8V224.4L157.4 207.5Z" fill="white"/>
<path d="M140.387 264.853H140.287V261.953L115.187 250.653C116.124 249.95 117.012 249.185 117.847 248.363C121.847 244.473 123.707 240.053 123.467 235.663C123.157 229.923 119.207 224.233 111.597 219.853C107.743 217.659 103.603 216.01 99.2968 214.953C95.0935 213.906 90.7949 213.286 86.4668 213.103C84.0419 212.973 81.6118 212.973 79.1868 213.103H79.0368C74.0625 213.359 69.1353 214.198 64.3568 215.603C60.8088 216.625 57.3949 218.065 54.1868 219.893C47.5168 223.733 43.6468 228.613 42.5868 233.653C41.1468 240.543 44.9968 247.733 54.1868 253.103C68.4868 261.303 90.8868 262.103 106.787 255.403C111.287 258.203 125.487 266.903 130.887 270.103C131.516 270.458 132.229 270.636 132.951 270.619C133.672 270.601 134.376 270.388 134.987 270.003C136.187 269.203 137.387 268.403 138.787 267.603C139.31 267.373 139.747 266.983 140.035 266.489C140.322 265.995 140.446 265.422 140.387 264.853ZM50.0868 232.153C50.4868 227.653 53.6868 223.253 59.5868 219.853C72.2868 212.553 92.9868 212.553 105.687 219.853C111.587 223.253 114.787 227.653 115.187 232.153C115.187 232.103 115.187 232.053 115.187 231.993C115.277 236.873 112.097 241.763 105.677 245.453C92.9768 252.853 72.2768 252.853 59.5768 245.453C53.0268 241.633 49.8468 236.603 50.0468 231.633C50.0568 231.803 50.0668 231.973 50.0868 232.153Z" fill="#F9A000"/>
<path d="M138.785 260.554C133.975 257.724 123.635 251.714 117.785 248.364L115.335 246.954C119.855 243.584 122.535 239.674 123.405 235.664C124.875 228.824 121.035 221.664 111.835 216.454C96.035 207.354 70.335 207.354 54.435 216.454C46.195 221.194 42.225 227.464 42.585 233.654C42.915 239.334 46.875 244.944 54.485 249.254C68.785 257.354 91.185 258.154 107.085 251.554C111.785 254.454 126.385 263.554 131.885 266.754C132.76 267.054 133.71 267.054 134.585 266.754C135.985 265.754 138.085 264.354 139.585 263.254C139.868 263.08 140.107 262.844 140.285 262.564C140.575 262.044 140.285 261.434 138.785 260.554ZM106.585 245.954C93.485 253.454 72.285 253.554 59.185 245.954C49.365 240.254 46.905 231.954 51.815 224.954C53.7772 222.314 56.2882 220.13 59.175 218.554C65.305 215.277 72.0911 213.415 79.035 213.104H79.185C81.609 212.944 84.0409 212.944 86.465 213.104C93.845 213.494 100.945 215.324 106.585 218.554C107.552 219.109 108.484 219.723 109.375 220.394C119.605 228.014 118.675 239.034 106.585 245.954Z" fill="#FFD251"/>
<path opacity="0.6" d="M115.198 231.994C115.288 236.874 112.108 241.764 105.688 245.454C92.9879 252.854 72.2879 252.854 59.5879 245.454C53.0279 241.634 49.8479 236.604 50.0479 231.634C50.0479 231.804 50.0479 231.974 50.0479 232.154C50.4479 227.654 53.6479 223.254 59.5479 219.854C72.2479 212.554 92.9479 212.554 105.648 219.854C111.548 223.254 114.748 227.654 115.148 232.154C115.188 232.104 115.198 232.104 115.198 231.994Z" fill="#FBC666"/>
<path d="M115.198 231.993C115.198 232.053 115.198 232.103 115.198 232.153C114.798 227.653 111.598 223.253 105.698 219.853C92.9977 212.553 72.2977 212.553 59.5977 219.853C53.6977 223.253 50.4977 227.653 50.0977 232.153C50.0977 231.973 50.0977 231.803 50.0977 231.633C50.2777 226.983 53.4477 222.383 59.6377 218.853C72.3377 211.453 93.0377 211.453 105.738 218.853C111.968 222.463 115.138 227.223 115.198 231.993Z" fill="#FBB900"/>
<path opacity="0.1" d="M115.196 231.993C115.196 232.053 115.196 232.103 115.196 232.153C114.796 227.653 111.596 223.253 105.696 219.853C92.9965 212.553 72.2965 212.553 59.5965 219.853C53.6965 223.253 50.4965 227.653 50.0965 232.153C50.0965 231.973 50.0965 231.803 50.0965 231.633C49.9967 229.287 50.6066 226.966 51.8465 224.973C53.7934 221.99 56.4627 219.548 59.6065 217.873C61.1354 216.988 62.7301 216.223 64.3765 215.583C74.8465 211.433 88.5165 211.233 99.2865 214.953C101.509 215.71 103.652 216.681 105.686 217.853C106.988 218.59 108.223 219.44 109.376 220.393C113.576 223.843 115.536 227.973 115.196 231.993Z" fill="black"/>
<path d="M85.6086 224.263C78.3986 223.263 71.2086 226.263 69.6086 230.873C68.0086 235.483 72.4586 240.103 79.6686 241.103C86.8786 242.103 94.0686 239.103 95.6686 234.493C97.2686 229.883 92.8486 225.263 85.6086 224.263ZM88.0186 233.433C87.8286 233.983 88.3586 234.523 89.2086 234.633L92.2086 235.043C90.5686 237.713 86.4186 239.423 81.9786 239.263L82.6486 237.363C82.8386 236.813 82.3086 236.273 81.4686 236.153C81.1116 236.071 80.7375 236.101 80.3987 236.241C80.0599 236.381 79.7732 236.623 79.5786 236.933L78.8486 238.833C74.7086 237.833 72.0986 235.163 72.4086 232.303L75.4086 232.713C75.7646 232.797 76.1379 232.768 76.4766 232.63C76.8153 232.492 77.1026 232.252 77.2986 231.943C77.4886 231.393 76.9586 230.853 76.1086 230.733L73.1586 230.323C74.7986 227.653 78.9486 225.943 83.3886 226.113L82.7186 228.013C82.5186 228.553 83.0586 229.093 83.8986 229.213C84.2556 229.3 84.6308 229.27 84.9703 229.13C85.3098 228.99 85.5962 228.746 85.7886 228.433L86.4586 226.533C90.5886 227.533 93.2086 230.213 92.8986 233.063L89.9486 232.653C89.5858 232.561 89.203 232.587 88.8559 232.728C88.5088 232.868 88.2155 233.115 88.0186 233.433Z" fill="white"/>
</g>
<path d="M182.958 295.924C182.958 295.924 182.958 298.024 182.958 298.624C182.958 299.424 182.358 300.324 181.158 300.924L148.358 319.724C146.258 320.924 142.958 321.124 141.158 320.024L124.358 310.424C123.658 310.124 123.158 309.324 123.158 308.524C123.158 307.724 123.158 305.924 123.158 305.924L182.958 295.924Z" fill="#CBCFD5"/>
<path d="M164.958 285.124L181.758 294.724C183.658 295.824 183.358 297.624 181.258 298.824L148.458 317.624C146.358 318.824 143.058 319.024 141.258 317.924L124.458 308.324C122.658 307.224 122.858 305.424 124.958 304.224L157.758 285.424C159.858 284.224 163.058 284.124 164.958 285.124Z" fill="#E9EBEE"/>
<path d="M162.358 287.824L177.158 296.324C178.758 297.224 178.558 298.924 176.658 300.024L150.358 315.324C148.458 316.424 145.558 316.524 143.958 315.624L129.158 307.124C127.558 306.224 127.758 304.524 129.658 303.424L155.958 288.124C157.858 287.024 160.658 286.924 162.358 287.824Z" fill="#393E41"/>
<path d="M152.058 295.224C152.058 295.224 150.358 296.024 148.058 297.224C146.658 297.924 146.758 299.924 146.758 301.924C146.758 303.024 147.058 304.224 147.458 305.324C149.258 305.724 151.058 305.924 152.858 306.024C154.958 305.924 156.458 306.024 157.558 305.324C159.358 304.224 162.958 301.924 162.958 301.924L159.558 296.524L152.058 295.224Z" fill="white"/>
<path d="M156.758 301.924H151.358C150.958 301.924 150.658 301.624 150.658 301.224V299.224C150.658 298.824 150.958 298.524 151.358 298.524C151.758 298.524 152.058 298.824 152.058 299.224V300.524H156.758C157.158 300.524 157.458 300.824 157.458 301.224C157.458 301.624 157.158 301.924 156.758 301.924Z" fill="#393E41"/>
<defs>
<linearGradient id="paint0_linear_698_20314" x1="183.334" y1="278.953" x2="227.94" y2="356.186" gradientUnits="userSpaceOnUse">
<stop/>
<stop offset="0.894792" stop-opacity="0"/>
</linearGradient>
<clipPath id="clip0_698_20314">
<rect width="376" height="324" fill="white"/>
</clipPath>
</defs>
</svg>
