<svg width="376" height="324" viewBox="0 0 376 324" fill="none" xmlns="http://www.w3.org/2000/svg">
<g clip-path="url(#clip0_2633_269)">
<path d="M218.879 250.282L313.012 305.221L281.574 323.544L187.199 268.783L218.879 250.282Z" fill="url(#paint0_linear_2633_269)" fill-opacity="0.1"/>
<path fill-rule="evenodd" clip-rule="evenodd" d="M228.786 249.599C228.745 249.164 228.59 248.747 228.338 248.391C228.086 248.035 227.746 247.751 227.351 247.569L196.382 228.902C195.316 228.324 194.12 228.034 192.909 228.06C191.874 228.054 190.849 228.265 189.899 228.68L169.505 238.729L168.16 245.451C168.16 245.451 156.431 245.331 156.431 246.121V249.599C156.472 250.035 156.628 250.452 156.881 250.808C157.135 251.164 157.478 251.446 157.875 251.626L194.365 272.922C195.442 273.476 196.634 273.765 197.843 273.765C199.053 273.765 200.245 273.476 201.322 272.922C201.453 272.841 201.583 272.759 201.702 272.669L227.792 253.401C228.096 253.211 228.35 252.951 228.533 252.642C228.717 252.333 228.824 251.985 228.846 251.626L228.785 249.599" fill="#CBCFD5"/>
<path fill-rule="evenodd" clip-rule="evenodd" d="M201.555 269.004L210.371 262.509L169.465 238.693L158.294 243.825C158.147 243.89 158.005 243.964 157.868 244.046C157.449 244.189 157.085 244.461 156.827 244.822C156.569 245.184 156.431 245.618 156.431 246.063C156.431 246.508 156.569 246.942 156.827 247.304C157.085 247.665 157.449 247.937 157.868 248.08L194.243 269.256C195.316 269.806 196.504 270.093 197.709 270.093C198.913 270.093 200.101 269.806 201.174 269.256C201.305 269.176 201.436 269.095 201.555 269.004Z" fill="#EAEEF3"/>
<path fill-rule="evenodd" clip-rule="evenodd" d="M254.794 141.907C254.216 140.847 253.375 139.956 252.353 139.32L135.047 71.4255C134.696 71.1744 134.287 71.0202 133.859 70.9784C133.431 70.9365 132.999 71.0085 132.607 71.187L128.673 74.0862L253.08 269.499L254.802 268.499C255.15 268.248 255.425 267.909 255.6 267.516C255.775 267.123 255.842 266.69 255.796 266.262V145.312C255.76 144.109 255.414 142.935 254.794 141.907Z" fill="#393E41"/>
<path fill-rule="evenodd" clip-rule="evenodd" d="M251.554 252.328L255.814 250.9V269.271C255.814 272.208 255.839 272.785 252.974 273.555C250.011 274.351 249.67 274.421 249.67 274.421L251.554 252.328Z" fill="#CBCFD5"/>
<path fill-rule="evenodd" clip-rule="evenodd" d="M128.007 200.161V179.5L251.56 251.583V270.457C251.56 274.027 250.261 275.851 245.739 273.219C223.791 260.445 146.776 215.538 130.885 206.209C128.703 204.933 128.007 203.084 128.007 200.161Z" fill="#EBEDF0"/>
<path fill-rule="evenodd" clip-rule="evenodd" d="M188.962 223.886C187.826 223.886 187.051 224.789 187.051 226.356C187.116 227.558 187.463 228.728 188.062 229.771C188.661 230.813 189.496 231.699 190.5 232.356C190.962 232.645 191.491 232.807 192.034 232.827C193.163 232.827 193.938 231.923 193.938 230.356C193.874 229.155 193.53 227.985 192.932 226.943C192.335 225.901 191.501 225.015 190.5 224.358C190.037 224.069 189.507 223.907 188.963 223.888" fill="#CBCFD5"/>
<path fill-rule="evenodd" clip-rule="evenodd" d="M132.303 74.8964C157.389 89.5973 232.476 133.307 248.714 142.718C249.649 143.158 250.426 143.88 250.935 144.784C251.444 145.688 251.66 146.729 251.553 147.763V252.352L128.007 180.368V76.5646C128.007 73.2768 129.447 73.2253 132.303 74.8964Z" fill="#4F5357"/>
<path fill-rule="evenodd" clip-rule="evenodd" d="M247.294 243.354L133.706 177.369V81.3906L247.294 147.376V243.354Z" fill="#0367E4"/>
<path d="M154.976 138.53V145.53" stroke="white" stroke-linecap="round" stroke-linejoin="round"/>
<path d="M157.976 144.03L151.976 140.53" stroke="white" stroke-linecap="round" stroke-linejoin="round"/>
<path d="M241.502 165.071C241.502 166.079 240.829 166.415 239.989 165.911L141.011 108.776C140.171 108.272 139.666 107.264 139.498 106.255V96.2918C139.498 95.2835 140.171 94.9475 141.011 95.4516L239.989 152.587C240.829 153.091 241.334 154.099 241.502 155.108V165.071Z" fill="white"/>
<path d="M169.516 184.768C169.516 185.777 168.844 186.113 168.004 185.609L141.011 170.016C140.171 169.512 139.666 168.504 139.498 167.495V159.587C139.498 158.579 140.171 158.243 141.011 158.747L168.004 174.339C168.844 174.843 169.348 175.852 169.516 176.86V184.768Z" fill="white"/>
<path d="M205.504 205.479C205.504 206.488 204.831 206.824 203.991 206.319L176.998 190.727C176.158 190.223 175.654 189.214 175.486 188.206V180.298C175.486 179.29 176.158 178.954 176.998 179.458L203.991 195.05C204.831 195.554 205.336 196.563 205.504 197.571V205.479Z" fill="white"/>
<path d="M241.502 226.452C241.502 227.461 240.829 227.797 239.989 227.293L212.996 211.7C212.156 211.196 211.652 210.188 211.484 209.179V201.271C211.484 200.263 212.156 199.927 212.996 200.431L239.989 216.023C240.829 216.528 241.334 217.536 241.502 218.544V226.452Z" stroke="white" stroke-linecap="round" stroke-linejoin="round" stroke-dasharray="4 4"/>
<path d="M170.069 165.58C170.069 165.95 169.822 166.074 169.513 165.889L140.439 149.134C140.13 148.949 139.945 148.579 139.883 148.208V118.479C139.883 118.109 140.13 117.985 140.439 118.171L169.513 134.925C169.822 135.11 170.007 135.48 170.069 135.851V165.58Z" stroke="white" stroke-linecap="round" stroke-linejoin="round" stroke-dasharray="4 4"/>
<path fill-rule="evenodd" clip-rule="evenodd" d="M205.313 162.035C205.396 162.102 205.498 162.142 205.604 162.149C205.711 162.157 205.817 162.132 205.909 162.078C206.001 162.024 206.075 161.943 206.12 161.846C206.166 161.749 206.181 161.64 206.165 161.534C206.149 161.235 206.063 160.943 205.915 160.683C205.767 160.423 205.561 160.2 205.313 160.035L189.985 151.037C189.904 150.961 189.801 150.914 189.691 150.901C189.582 150.889 189.471 150.913 189.375 150.969C189.28 151.025 189.205 151.11 189.161 151.213C189.118 151.315 189.108 151.428 189.134 151.536C189.149 151.836 189.233 152.128 189.381 152.389C189.529 152.649 189.736 152.871 189.985 153.036L205.313 162.035ZM195.09 162.035C195.173 162.105 195.275 162.148 195.383 162.157C195.49 162.166 195.598 162.142 195.691 162.087C195.785 162.032 195.859 161.949 195.904 161.85C195.949 161.752 195.962 161.641 195.942 161.534C195.927 161.235 195.841 160.943 195.694 160.682C195.546 160.422 195.339 160.2 195.09 160.035L176.398 149.037C176.315 148.966 176.213 148.923 176.105 148.913C175.996 148.904 175.888 148.928 175.794 148.983C175.701 149.038 175.627 149.121 175.582 149.221C175.537 149.32 175.525 149.431 175.546 149.538C175.562 149.838 175.647 150.129 175.795 150.39C175.943 150.65 176.149 150.872 176.398 151.038L195.09 162.035ZM184.867 150.038C184.948 150.113 185.051 150.159 185.161 150.171C185.27 150.183 185.38 150.159 185.475 150.103C185.57 150.047 185.645 149.962 185.689 149.861C185.733 149.759 185.743 149.646 185.719 149.538C185.701 149.239 185.615 148.948 185.468 148.687C185.32 148.427 185.114 148.205 184.867 148.037L176.348 143.038C176.265 142.968 176.163 142.925 176.055 142.915C175.947 142.905 175.839 142.93 175.746 142.984C175.652 143.039 175.578 143.122 175.533 143.221C175.488 143.321 175.475 143.431 175.496 143.538C175.512 143.838 175.597 144.129 175.745 144.39C175.893 144.65 176.1 144.872 176.348 145.038L184.867 150.038ZM176.348 157.037C176.1 156.871 175.893 156.649 175.745 156.388C175.597 156.128 175.512 155.836 175.496 155.537C175.474 155.43 175.487 155.319 175.531 155.219C175.576 155.119 175.65 155.036 175.744 154.981C175.838 154.925 175.947 154.901 176.055 154.911C176.163 154.922 176.266 154.966 176.348 155.037L179.755 157.037C180.004 157.203 180.21 157.425 180.358 157.685C180.506 157.945 180.591 158.237 180.607 158.536C180.628 158.643 180.615 158.754 180.57 158.853C180.525 158.952 180.451 159.035 180.358 159.09C180.264 159.145 180.156 159.169 180.048 159.16C179.94 159.15 179.838 159.107 179.755 159.036L176.348 157.037ZM184.867 162.035C184.619 161.869 184.412 161.647 184.264 161.386C184.116 161.126 184.031 160.834 184.015 160.534C183.993 160.427 184.006 160.316 184.05 160.216C184.095 160.116 184.169 160.033 184.263 159.978C184.357 159.923 184.466 159.899 184.574 159.909C184.682 159.919 184.785 159.963 184.867 160.035L205.313 172.032C205.561 172.198 205.767 172.42 205.915 172.681C206.063 172.942 206.149 173.233 206.165 173.533C206.186 173.64 206.173 173.751 206.128 173.851C206.084 173.95 206.009 174.033 205.915 174.088C205.822 174.143 205.713 174.167 205.605 174.157C205.497 174.147 205.395 174.103 205.313 174.031L184.867 162.035ZM205.313 180.031C205.396 180.098 205.498 180.137 205.604 180.145C205.71 180.153 205.816 180.128 205.908 180.074C206 180.02 206.074 179.939 206.12 179.842C206.165 179.746 206.181 179.637 206.165 179.531C206.149 179.232 206.063 178.94 205.916 178.68C205.768 178.42 205.561 178.198 205.313 178.032L201.905 176.032C201.821 175.966 201.72 175.926 201.613 175.918C201.507 175.911 201.401 175.936 201.309 175.99C201.217 176.044 201.143 176.125 201.097 176.222C201.052 176.319 201.036 176.428 201.053 176.534C201.069 176.833 201.155 177.125 201.303 177.385C201.45 177.645 201.657 177.867 201.905 178.033L205.313 180.031ZM196.794 175.033C196.877 175.099 196.979 175.139 197.085 175.146C197.192 175.154 197.298 175.129 197.39 175.075C197.482 175.021 197.556 174.94 197.601 174.843C197.647 174.746 197.662 174.637 197.646 174.531C197.63 174.232 197.544 173.94 197.396 173.68C197.248 173.419 197.042 173.197 196.794 173.032L176.348 161.034C176.264 160.968 176.163 160.928 176.057 160.921C175.95 160.913 175.844 160.938 175.752 160.992C175.66 161.046 175.587 161.126 175.541 161.223C175.495 161.32 175.479 161.428 175.496 161.534C175.512 161.834 175.597 162.125 175.745 162.386C175.893 162.646 176.099 162.868 176.348 163.034L196.794 175.033Z" fill="white"/>
<path fill-rule="evenodd" clip-rule="evenodd" d="M375.984 260.198L324.885 229.982V181.638L375.984 211.854V260.198Z" fill="#EAEEF3"/>
<path fill-rule="evenodd" clip-rule="evenodd" d="M363.336 216.245C363.419 216.315 363.521 216.357 363.629 216.366C363.737 216.376 363.844 216.351 363.938 216.296C364.031 216.241 364.105 216.159 364.15 216.06C364.195 215.961 364.208 215.85 364.188 215.743C364.173 215.444 364.088 215.152 363.94 214.891C363.792 214.631 363.585 214.409 363.336 214.244L344.644 203.246C344.561 203.175 344.459 203.132 344.351 203.122C344.243 203.113 344.134 203.137 344.041 203.192C343.947 203.247 343.873 203.33 343.828 203.43C343.784 203.529 343.771 203.64 343.792 203.748C343.808 204.047 343.893 204.339 344.041 204.599C344.189 204.859 344.395 205.081 344.644 205.247L363.336 216.245ZM344.594 211.246C344.346 211.08 344.14 210.858 343.992 210.597C343.844 210.337 343.758 210.046 343.742 209.746C343.721 209.639 343.733 209.528 343.778 209.428C343.822 209.328 343.897 209.245 343.99 209.19C344.084 209.135 344.193 209.11 344.301 209.121C344.41 209.131 344.512 209.175 344.594 209.246L348.002 211.246C348.25 211.412 348.457 211.634 348.604 211.894C348.752 212.154 348.838 212.446 348.854 212.745C348.874 212.852 348.861 212.963 348.817 213.062C348.772 213.162 348.698 213.244 348.604 213.299C348.51 213.354 348.402 213.379 348.294 213.369C348.186 213.359 348.084 213.316 348.002 213.245L344.594 211.246ZM353.113 216.245C352.865 216.078 352.658 215.856 352.511 215.596C352.363 215.335 352.277 215.043 352.261 214.744C352.24 214.636 352.252 214.525 352.297 214.425C352.341 214.326 352.416 214.242 352.51 214.187C352.603 214.132 352.712 214.108 352.82 214.118C352.929 214.128 353.031 214.172 353.113 214.244L369.645 223.935C369.893 224.101 370.099 224.323 370.247 224.584C370.395 224.844 370.48 225.136 370.496 225.436C370.518 225.543 370.505 225.654 370.46 225.753C370.416 225.853 370.341 225.936 370.247 225.991C370.153 226.046 370.045 226.07 369.937 226.06C369.829 226.049 369.727 226.006 369.645 225.934L353.113 216.245ZM365.04 229.242C365.124 229.308 365.225 229.348 365.332 229.356C365.438 229.363 365.544 229.338 365.636 229.284C365.728 229.23 365.802 229.149 365.848 229.052C365.893 228.955 365.909 228.846 365.892 228.74C365.876 228.441 365.791 228.149 365.643 227.889C365.495 227.629 365.288 227.407 365.04 227.241L344.594 215.243C344.511 215.177 344.409 215.137 344.303 215.13C344.197 215.122 344.091 215.147 343.999 215.201C343.907 215.255 343.833 215.336 343.787 215.432C343.741 215.529 343.726 215.638 343.742 215.743C343.758 216.043 343.843 216.334 343.991 216.595C344.139 216.855 344.346 217.077 344.594 217.243L365.04 229.242Z" fill="#35B65E"/>
<path fill-rule="evenodd" clip-rule="evenodd" d="M331.358 220.82C331.11 220.654 330.903 220.432 330.755 220.172C330.608 219.911 330.522 219.62 330.506 219.32C330.485 219.213 330.497 219.102 330.541 219.002C330.586 218.902 330.66 218.819 330.754 218.764C330.848 218.709 330.957 218.685 331.065 218.695C331.173 218.705 331.276 218.749 331.358 218.821L334.766 220.82C335.014 220.986 335.22 221.208 335.368 221.468C335.516 221.729 335.601 222.02 335.617 222.32C335.638 222.427 335.625 222.537 335.58 222.637C335.536 222.736 335.461 222.819 335.368 222.874C335.274 222.929 335.166 222.953 335.058 222.943C334.95 222.933 334.848 222.89 334.766 222.82L331.358 220.82ZM339.877 225.819C339.629 225.653 339.422 225.431 339.274 225.17C339.126 224.909 339.041 224.618 339.025 224.318C339.004 224.211 339.016 224.099 339.06 224C339.105 223.9 339.179 223.817 339.273 223.761C339.367 223.706 339.476 223.682 339.584 223.692C339.692 223.702 339.795 223.746 339.877 223.818L368.066 240.343C368.315 240.509 368.521 240.731 368.669 240.992C368.817 241.252 368.902 241.544 368.918 241.844C368.939 241.951 368.927 242.062 368.882 242.161C368.837 242.261 368.763 242.344 368.669 242.399C368.575 242.454 368.467 242.478 368.359 242.467C368.251 242.457 368.149 242.414 368.066 242.342L339.877 225.819ZM357.188 241.93C357.272 241.997 357.374 242.036 357.48 242.044C357.586 242.051 357.693 242.027 357.785 241.972C357.877 241.918 357.95 241.837 357.996 241.74C358.042 241.643 358.057 241.535 358.04 241.429C358.024 241.129 357.939 240.838 357.791 240.577C357.643 240.317 357.437 240.095 357.188 239.929L331.358 224.818C331.274 224.751 331.173 224.712 331.067 224.704C330.96 224.697 330.854 224.721 330.762 224.775C330.67 224.829 330.597 224.91 330.551 225.007C330.505 225.103 330.49 225.212 330.506 225.318C330.522 225.617 330.607 225.909 330.755 226.169C330.903 226.43 331.109 226.651 331.358 226.817L357.188 241.93Z" fill="#DCDEE1"/>
<path d="M337.907 208.844L333.647 206.309L332.879 208.756L330.892 207.574L334.517 197.26L336.232 198.28L340.923 213.542L338.929 212.356L337.907 208.844ZM334.109 204.837L337.296 206.733L335.483 200.481L334.109 204.837Z" fill="#35B65E"/>
<path fill-rule="evenodd" clip-rule="evenodd" d="M313.984 286.198L262.885 255.982V207.638L313.984 237.854V286.198Z" fill="#EAEEF3"/>
<path d="M293.104 249.452L287.691 246.232V239.933L285.886 238.859V245.158L280.473 241.937V244.037L285.886 247.258V253.557L287.691 254.63V248.331L293.104 251.552V249.452Z" fill="#CBCFD5"/>
<path fill-rule="evenodd" clip-rule="evenodd" d="M313.984 224.198L262.885 193.982V145.638L313.984 175.854V224.198Z" fill="#EAEEF3"/>
<path fill-rule="evenodd" clip-rule="evenodd" d="M262.869 193.888V183.647L274.161 177.106C274.258 177.061 274.366 177.043 274.473 177.053C274.579 177.063 274.682 177.102 274.769 177.164C275.02 177.322 275.227 177.542 275.368 177.804L295.216 213.151L262.869 193.888ZM295.216 213.151L271.546 199.055L282.733 190.921L295.216 213.151ZM313.983 224.198V201.91L302.75 182.076C302.61 181.812 302.404 181.589 302.153 181.429C302.069 181.366 301.969 181.326 301.864 181.316C301.759 181.305 301.654 181.324 301.558 181.369L271.546 199.055L313.983 224.198Z" fill="#CBCFD5"/>
<path d="M218.679 298.544C218.679 298.544 218.679 299.944 218.679 300.644C218.679 301.444 218.079 302.244 216.979 302.944L184.76 321.396C182.66 322.596 179.46 322.696 177.66 321.696L161.16 312.196C160.46 311.896 159.96 311.096 159.96 310.296C159.96 309.596 159.96 308.596 159.96 308.596L218.679 298.544Z" fill="#CBCFD5"/>
<path d="M200.96 287.296L217.46 296.796C219.26 297.796 219.06 299.696 216.96 300.896L184.66 319.396C182.56 320.596 179.36 320.696 177.56 319.696L161.06 310.196C159.26 309.196 159.46 307.296 161.56 306.096L193.86 287.596C195.96 286.396 199.16 286.296 200.96 287.296Z" fill="#E9EBEE"/>
<path d="M198.36 289.996L212.96 298.396C214.56 299.296 214.36 300.896 212.46 301.996L186.56 317.096C184.66 318.196 181.86 318.296 180.26 317.396L165.76 308.896C164.16 307.996 164.36 306.396 166.26 305.296L192.16 290.196C193.96 289.096 196.76 288.996 198.36 289.996Z" fill="#393E41"/>
<path d="M169.754 308.455C169.154 308.255 168.954 307.655 169.154 307.055C169.254 306.755 169.454 306.555 169.754 306.455L172.885 304.668C173.985 304.168 175.285 304.168 176.385 304.668L187.211 310.857C187.811 311.057 188.111 311.657 187.911 312.157C187.811 312.457 187.511 312.757 187.211 312.857L184.081 314.644C182.981 315.144 181.681 315.144 180.581 314.644L169.754 308.455Z" fill="#FBB900"/>
<path d="M179.649 302.501C179.049 302.301 178.849 301.701 179.049 301.101C179.149 300.801 179.349 300.601 179.649 300.501L193.206 292.613C194.306 292.113 195.606 292.113 196.706 292.613L207.533 298.802C208.133 299.002 208.433 299.602 208.233 300.102C208.133 300.402 207.833 300.702 207.533 300.802L193.975 308.69C192.875 309.19 191.575 309.19 190.475 308.69L179.649 302.501Z" stroke="#FBB900" stroke-linecap="round" stroke-linejoin="round" stroke-dasharray="4 4"/>
<path d="M38.8494 275.036L175.472 285.168C175.472 285.168 175.472 287.026 175.472 287.626C175.472 288.326 175.072 288.926 174.572 289.226L118.149 321.836C116.749 322.636 114.249 322.536 112.649 321.636L40.3494 279.936C39.5494 279.636 39.0494 278.836 38.9494 277.936C38.8494 277.436 38.8494 275.036 38.8494 275.036Z" fill="#CBCFD5"/>
<path d="M39.7494 274.136L96.3494 241.436C97.7494 240.636 100.249 240.736 101.849 241.636L174.149 283.336C175.749 284.236 175.949 285.736 174.549 286.536L117.949 319.236C116.549 320.036 114.049 319.936 112.449 319.036L40.1494 277.336C38.5494 276.336 38.3494 274.936 39.7494 274.136Z" fill="#EAEEF3"/>
<path d="M46.9494 275.036L98.4494 245.336C99.7494 244.636 102.049 244.636 103.449 245.536L167.149 282.036C168.649 282.936 168.849 284.236 167.549 284.936L115.449 314.636C114.149 315.336 111.849 315.336 110.449 314.436L47.4494 277.936C45.7494 277.036 45.6494 275.736 46.9494 275.036Z" fill="white"/>
<path d="M54.3671 275.818L67.3048 268.357C67.6314 268.181 68.2092 268.181 68.5609 268.407L84.5634 277.577C84.9403 277.803 84.9905 278.129 84.6639 278.305L71.5755 285.766C71.2489 285.942 70.6711 285.942 70.3194 285.716L54.4927 276.547C54.0657 276.32 54.0405 275.994 54.3671 275.818Z" fill="#CBCFD5"/>
<path fill-rule="evenodd" clip-rule="evenodd" d="M90.0001 260.088C90.0734 260.061 90.1364 260.012 90.1804 259.948C90.2245 259.883 90.2474 259.807 90.246 259.729C90.2446 259.65 90.219 259.575 90.1727 259.511C90.1264 259.448 90.0617 259.4 89.9875 259.375C89.7938 259.278 89.5802 259.228 89.364 259.229C89.1478 259.229 88.9349 259.28 88.7427 259.378L75.197 267.22C75.1232 267.247 75.0597 267.296 75.0152 267.36C74.9708 267.425 74.9477 267.502 74.9491 267.58C74.9504 267.658 74.9763 267.735 75.023 267.798C75.0697 267.861 75.1349 267.909 75.2096 267.933C75.4035 268.03 75.617 268.08 75.8331 268.079C76.0492 268.079 76.262 268.028 76.4544 267.93L90.0001 260.088ZM80.2062 270.091C80.0137 270.188 79.801 270.239 79.5849 270.239C79.3688 270.24 79.1553 270.19 78.9614 270.094C78.8864 270.069 78.8209 270.022 78.774 269.959C78.7271 269.895 78.7012 269.819 78.6999 269.741C78.6986 269.662 78.722 269.585 78.7668 269.521C78.8116 269.456 78.8755 269.407 78.9497 269.381L81.4157 267.95C81.6081 267.853 81.8209 267.802 82.037 267.801C82.2531 267.801 82.4666 267.85 82.6605 267.947C82.735 267.972 82.8 268.019 82.8465 268.083C82.8929 268.146 82.9186 268.222 82.9199 268.3C82.9212 268.379 82.898 268.455 82.8537 268.52C82.8093 268.584 82.7459 268.633 82.6722 268.66L80.2062 270.091ZM86.3713 266.512C86.1787 266.609 85.9658 266.66 85.7495 266.661C85.5333 266.661 85.3196 266.611 85.1257 266.515C85.0507 266.49 84.9851 266.443 84.9382 266.38C84.8913 266.316 84.8654 266.24 84.8641 266.161C84.8629 266.083 84.8862 266.006 84.931 265.941C84.9758 265.877 85.0398 265.828 85.1139 265.802L97.0715 258.854C97.2642 258.757 97.4771 258.706 97.6933 258.706C97.9096 258.705 98.1232 258.755 98.3172 258.852C98.392 258.876 98.4573 258.924 98.5039 258.987C98.5506 259.05 98.5763 259.127 98.5775 259.205C98.5787 259.284 98.5553 259.36 98.5106 259.425C98.4658 259.489 98.402 259.538 98.328 259.564L86.3713 266.512ZM98.7719 263.631C98.8435 263.602 98.9045 263.553 98.947 263.488C98.9895 263.424 99.0115 263.349 99.0101 263.272C99.0088 263.194 98.9841 263.119 98.9393 263.056C98.8946 262.993 98.8318 262.945 98.7593 262.918C98.5654 262.822 98.3519 262.772 98.1358 262.772C97.9197 262.773 97.7069 262.824 97.5146 262.921L82.7182 271.51C82.6468 271.539 82.5859 271.589 82.5434 271.653C82.5009 271.717 82.4789 271.792 82.4802 271.869C82.4814 271.946 82.5059 272.021 82.5505 272.084C82.595 272.147 82.6576 272.196 82.7299 272.223C82.9237 272.319 83.1372 272.369 83.3534 272.369C83.5695 272.368 83.7823 272.317 83.9747 272.22L98.7719 263.631Z" fill="#CBCFD5"/>
<path d="M95.6667 299.674L108.604 292.212C108.931 292.037 109.509 292.037 109.86 292.263L125.863 301.432C126.24 301.658 126.29 301.985 125.963 302.161L112.875 309.622C112.548 309.798 111.971 309.798 111.619 309.571L95.7923 300.402C95.3652 300.176 95.3401 299.849 95.6667 299.674Z" fill="#CBCFD5"/>
<path fill-rule="evenodd" clip-rule="evenodd" d="M131.3 283.944C131.373 283.917 131.436 283.868 131.48 283.803C131.524 283.739 131.547 283.662 131.546 283.584C131.544 283.506 131.519 283.43 131.472 283.367C131.426 283.303 131.361 283.256 131.287 283.231C131.093 283.134 130.88 283.084 130.664 283.084C130.447 283.085 130.235 283.136 130.042 283.234L116.497 291.076C116.423 291.102 116.359 291.151 116.315 291.216C116.27 291.28 116.247 291.357 116.249 291.435C116.25 291.514 116.276 291.59 116.323 291.653C116.369 291.717 116.434 291.764 116.509 291.789C116.703 291.885 116.917 291.935 117.133 291.935C117.349 291.934 117.562 291.883 117.754 291.786L131.3 283.944ZM121.506 293.946C121.313 294.044 121.101 294.094 120.884 294.095C120.668 294.095 120.455 294.046 120.261 293.949C120.186 293.925 120.12 293.878 120.074 293.814C120.027 293.751 120.001 293.675 119.999 293.596C119.998 293.517 120.022 293.441 120.066 293.376C120.111 293.312 120.175 293.263 120.249 293.237L122.715 291.805C122.908 291.708 123.12 291.657 123.337 291.657C123.553 291.656 123.766 291.706 123.96 291.802C124.035 291.827 124.1 291.875 124.146 291.938C124.193 292.001 124.218 292.077 124.219 292.156C124.221 292.234 124.198 292.311 124.153 292.375C124.109 292.439 124.045 292.488 123.972 292.515L121.506 293.946ZM127.671 290.368C127.478 290.465 127.265 290.516 127.049 290.516C126.833 290.516 126.619 290.467 126.425 290.37C126.35 290.346 126.285 290.298 126.238 290.235C126.191 290.172 126.165 290.095 126.164 290.017C126.162 289.938 126.186 289.861 126.231 289.797C126.275 289.732 126.339 289.684 126.414 289.657L138.371 282.709C138.564 282.612 138.777 282.562 138.993 282.561C139.209 282.561 139.423 282.611 139.617 282.707C139.692 282.732 139.757 282.779 139.803 282.843C139.85 282.906 139.876 282.982 139.877 283.061C139.878 283.139 139.855 283.216 139.81 283.28C139.765 283.344 139.702 283.393 139.628 283.419L127.671 290.368ZM140.071 287.487C140.143 287.458 140.204 287.408 140.247 287.344C140.289 287.28 140.311 287.204 140.31 287.127C140.308 287.05 140.284 286.975 140.239 286.912C140.194 286.849 140.131 286.801 140.059 286.773C139.865 286.677 139.652 286.627 139.435 286.628C139.219 286.628 139.007 286.679 138.814 286.776L124.018 295.366C123.946 295.394 123.885 295.444 123.843 295.508C123.801 295.572 123.778 295.648 123.78 295.725C123.781 295.802 123.806 295.877 123.85 295.94C123.895 296.003 123.957 296.051 124.029 296.078C124.223 296.175 124.437 296.225 124.653 296.224C124.869 296.223 125.082 296.173 125.274 296.075L140.071 287.487Z" fill="#CBCFD5"/>
<path d="M74.9631 287.718L87.9008 280.257C88.2274 280.081 88.8052 280.081 89.1569 280.307L105.159 289.477C105.536 289.703 105.587 290.029 105.26 290.205L92.1715 297.666C91.8449 297.842 91.2671 297.842 90.9154 297.616L75.0887 288.447C74.6617 288.221 74.6365 287.894 74.9631 287.718Z" stroke="#FBB900" stroke-linecap="round" stroke-linejoin="round" stroke-dasharray="4 4"/>
<path fill-rule="evenodd" clip-rule="evenodd" d="M110.596 271.989C110.669 271.961 110.732 271.912 110.776 271.848C110.82 271.783 110.843 271.707 110.842 271.629C110.841 271.551 110.815 271.475 110.769 271.411C110.722 271.348 110.658 271.301 110.583 271.275C110.39 271.178 110.176 271.128 109.96 271.129C109.744 271.129 109.531 271.181 109.339 271.278L95.793 279.12C95.7192 279.147 95.6557 279.196 95.6112 279.261C95.5668 279.325 95.5437 279.402 95.5451 279.48C95.5465 279.559 95.5723 279.635 95.619 279.698C95.6657 279.761 95.7309 279.809 95.8057 279.834C95.9995 279.93 96.213 279.98 96.4291 279.979C96.6452 279.979 96.858 279.928 97.0504 279.831L110.596 271.989ZM100.802 281.991C100.61 282.088 100.397 282.139 100.181 282.14C99.9648 282.14 99.7513 282.09 99.5574 281.994C99.4824 281.97 99.4169 281.922 99.37 281.859C99.3231 281.796 99.2972 281.719 99.2959 281.641C99.2946 281.562 99.318 281.485 99.3628 281.421C99.4076 281.356 99.4715 281.308 99.5457 281.281L102.012 279.85C102.204 279.753 102.417 279.702 102.633 279.701C102.849 279.701 103.063 279.751 103.257 279.847C103.331 279.872 103.396 279.919 103.442 279.983C103.489 280.046 103.515 280.122 103.516 280.2C103.517 280.279 103.494 280.355 103.45 280.42C103.405 280.484 103.342 280.533 103.268 280.56L100.802 281.991ZM106.967 278.412C106.775 278.509 106.562 278.56 106.346 278.561C106.129 278.561 105.916 278.511 105.722 278.415C105.647 278.39 105.581 278.343 105.534 278.28C105.487 278.216 105.461 278.14 105.46 278.061C105.459 277.983 105.482 277.906 105.527 277.842C105.572 277.777 105.636 277.728 105.71 277.702L117.668 270.754C117.86 270.657 118.073 270.606 118.289 270.606C118.506 270.606 118.719 270.655 118.913 270.752C118.988 270.776 119.053 270.824 119.1 270.887C119.147 270.951 119.172 271.027 119.174 271.105C119.175 271.184 119.151 271.26 119.107 271.325C119.062 271.389 118.998 271.438 118.924 271.464L106.967 278.412ZM119.368 275.531C119.439 275.503 119.5 275.453 119.543 275.389C119.586 275.324 119.608 275.249 119.606 275.172C119.605 275.095 119.58 275.02 119.535 274.957C119.491 274.893 119.428 274.845 119.355 274.818C119.161 274.722 118.948 274.672 118.732 274.673C118.516 274.673 118.303 274.724 118.111 274.821L103.314 283.41C103.243 283.439 103.182 283.489 103.139 283.553C103.097 283.617 103.075 283.692 103.076 283.769C103.077 283.846 103.102 283.921 103.146 283.984C103.191 284.047 103.254 284.096 103.326 284.123C103.52 284.219 103.733 284.269 103.949 284.269C104.166 284.268 104.378 284.217 104.571 284.12L119.368 275.531Z" fill="#FFD251"/>
<path d="M87.9034 287.775L92.3539 290.344" stroke="#FBB900" stroke-linecap="round" stroke-linejoin="round"/>
<path d="M92.3538 287.848L87.9262 290.378" stroke="#FBB900" stroke-linecap="round" stroke-linejoin="round"/>
<path d="M5.26489 14.5071V111.507L119.565 177.507V80.5071L5.26489 14.5071Z" fill="#E9EBEE"/>
<path d="M119.565 81.5071L5.26489 15.5071V3.50708L119.565 69.5071V81.5071Z" fill="#CBCFD5"/>
<path d="M12.1649 13.5072C12.1649 14.6072 11.3649 15.1072 10.4649 14.5072C9.46489 13.8072 8.76489 12.7072 8.76489 11.5072C8.76489 10.4072 9.56489 9.90717 10.4649 10.5072C11.4649 11.2072 12.0649 12.3072 12.1649 13.5072Z" fill="white"/>
<path d="M19.0649 17.5072C19.0649 18.6072 18.2649 19.1072 17.3649 18.5072C16.3649 17.8072 15.6649 16.7072 15.6649 15.5072C15.6649 14.4072 16.4649 13.9072 17.3649 14.5072C18.3649 15.2072 19.0649 16.3072 19.0649 17.5072Z" fill="white"/>
<path d="M26.0649 21.5072C26.0649 22.6072 25.2649 23.0072 24.3649 22.5072C23.3649 21.8072 22.6649 20.7072 22.6649 19.5072C22.6649 18.4072 23.4649 17.9072 24.3649 18.5072C25.3649 19.2072 25.9649 20.3072 26.0649 21.5072Z" fill="white"/>
<path d="M57.2206 99.6764C57.2206 100.104 56.9357 100.246 56.5796 100.032L14.6339 75.8193C14.2778 75.6057 14.0642 75.1784 13.993 74.7511L13.993 29.9862C13.993 29.5589 14.2778 29.4165 14.6339 29.6301L56.5796 53.8433C56.9357 54.0569 57.1493 54.4842 57.2206 54.9115V99.6764Z" fill="white"/>
<path d="M57.2206 139.516C57.2206 139.943 56.9357 140.086 56.5796 139.872L14.6339 115.659C14.2778 115.445 14.0642 115.018 13.993 114.591L13.993 98.0846C13.993 97.6573 14.2778 97.5149 14.6339 97.7285L56.5796 121.942C56.9357 122.155 57.1493 122.583 57.2206 123.01V139.516Z" fill="white"/>
<path d="M110.48 170.229C110.48 170.656 110.195 170.798 109.839 170.585L67.8935 146.372C67.5374 146.158 67.3238 145.731 67.2526 145.303L67.2526 128.797C67.2526 128.37 67.5374 128.228 67.8935 128.441L109.839 152.655C110.195 152.868 110.409 153.295 110.48 153.723V170.229Z" fill="white"/>
<path d="M110.48 129.949C110.48 130.377 110.195 130.519 109.839 130.305L67.8935 106.092C67.5374 105.879 67.3238 105.451 67.2526 105.024L67.2526 60.2592C67.2526 59.8319 67.5374 59.6894 67.8935 59.9031L109.839 84.1162C110.195 84.3299 110.409 84.7572 110.48 85.1845V129.949Z" fill="white"/>
<path d="M53.0475 68.1823L53.0475 68.1822L53.0398 68.1778L18.3637 48.1999C18.0445 48.0064 17.8015 47.5858 17.7098 47.0873V37.1307C17.7098 37.061 17.7245 37.0262 17.7334 37.0114C17.7498 37.0132 17.7897 37.0217 17.8526 37.0594L17.8526 37.0595L17.8602 37.0639L52.5363 57.0418C52.8556 57.2352 53.0986 57.6559 53.1902 58.1544V68.111C53.1902 68.172 53.1837 68.2143 53.1769 68.2417C53.1477 68.2335 53.1043 68.2164 53.0475 68.1823Z" stroke="#CBCFD5"/>
<path d="M106.307 98.4552L106.307 98.4552L106.299 98.4508L71.6233 78.4728C71.3041 78.2794 71.0611 77.8588 70.9695 77.3603V67.4036C70.9695 67.334 70.9841 67.2992 70.9931 67.2844C71.0095 67.2862 71.0493 67.2946 71.1122 67.3324L71.1122 67.3324L71.1199 67.3369L105.796 87.3148C106.115 87.5082 106.358 87.9288 106.45 88.4274V98.384C106.45 98.4449 106.443 98.4873 106.437 98.5146C106.407 98.5064 106.364 98.4893 106.307 98.4552Z" stroke="#CBCFD5"/>
<path d="M106.307 114.275L106.307 114.275L106.299 114.27L85.9732 102.611C85.6542 102.418 85.4113 101.997 85.3197 101.499V91.5423C85.3197 91.4727 85.3343 91.4378 85.3433 91.4231C85.3597 91.4248 85.3996 91.4333 85.4625 91.471L85.4624 91.4711L85.4709 91.476L105.796 103.135C106.115 103.328 106.358 103.749 106.45 104.247V114.204C106.45 114.265 106.443 114.307 106.436 114.334C106.407 114.326 106.364 114.309 106.307 114.275Z" stroke="#CBCFD5"/>
<path d="M106.95 122.672C106.95 123.272 106.55 123.472 106.05 123.172L85.7197 111.511C85.2197 111.211 84.9197 110.611 84.8197 110.011L84.8197 105.725C84.8197 105.225 85.2197 104.925 85.7197 105.225L106.05 116.886C106.55 117.186 106.85 117.786 106.95 118.386V122.672Z" fill="#CBCFD5"/>
<path d="M27.2985 64.9779C27.2985 65.5779 26.8985 65.7779 26.3985 65.4779L18.1098 60.7271C17.6098 60.4271 17.3098 59.8271 17.2098 59.2271L17.2098 52.845C17.2098 52.345 17.6098 52.045 18.1098 52.345L26.3985 57.0958C26.8985 57.3958 27.1985 57.9958 27.2985 58.5958V64.9779Z" fill="#CBCFD5"/>
<path d="M81.1961 108.143C81.1961 108.743 80.7961 108.943 80.2961 108.643L71.3695 103.573C70.8695 103.273 70.5695 102.673 70.4695 102.073L70.4695 83.2247C70.4695 82.7247 70.8695 82.4247 71.3695 82.7247L80.2961 87.7945C80.7961 88.0945 81.0961 88.6945 81.1961 89.2945V108.143Z" fill="#CBCFD5"/>
<path d="M42.225 99.9774C42.225 100.577 41.825 100.777 41.325 100.477L25.8137 91.542C25.3137 91.242 25.0137 90.642 24.9137 90.042V86.4158C24.9137 85.9158 25.3137 85.6158 25.8137 85.9158L41.325 94.8513C41.825 95.1513 42.125 95.7513 42.225 96.3513V99.9774Z" fill="#0367E4"/>
<path d="M95.8847 130.844C95.8847 131.444 95.4847 131.644 94.9847 131.344L79.4735 122.409C78.9735 122.109 78.6735 121.509 78.5735 120.909V117.283C78.5735 116.783 78.9735 116.483 79.4735 116.783L94.9847 125.718C95.4847 126.018 95.7847 126.618 95.8847 127.218V130.844Z" fill="#0367E4"/>
<path d="M32.3672 81.0222L32.3672 81.0221L32.3586 81.0171L18.9225 73.316C18.2943 72.9368 17.864 72.1449 17.7098 71.2722V65.4348C17.7098 65.1553 17.8184 65.0175 17.8976 64.9688C17.9621 64.929 18.122 64.8788 18.412 65.0528L18.412 65.0529L18.4206 65.0578L31.8567 72.7589C32.4849 73.1381 32.9151 73.93 33.0693 74.8027V80.6401C33.0693 81.0331 32.9417 81.1337 32.9066 81.1526C32.8634 81.1758 32.6978 81.2205 32.3672 81.0222Z" stroke="#CBCFD5"/>
<path d="M52.4881 92.5534L52.4881 92.5533L52.4795 92.5484L39.0434 84.8472C38.4152 84.468 37.985 83.6762 37.8307 82.8035V76.9661C37.8307 76.6866 37.9394 76.5487 38.0185 76.5C38.083 76.4603 38.2429 76.41 38.5329 76.584L38.5329 76.5841L38.5415 76.5891L51.9776 84.2902C52.6058 84.6694 53.036 85.4612 53.1902 86.334V92.1714C53.1902 92.5643 53.0626 92.6649 53.0275 92.6838C52.9843 92.7071 52.8187 92.7518 52.4881 92.5534Z" stroke="#CBCFD5"/>
<path d="M40.4944 72.5386C40.4944 73.1386 40.0944 73.3386 39.5944 73.0386L31.3057 68.2878C30.8057 67.9878 30.5057 67.3878 30.4057 66.7878L30.4057 60.4246C30.4057 59.9246 30.8057 59.6246 31.3057 59.9246L39.5944 64.6754C40.0944 64.9754 40.3944 65.5754 40.4944 66.1754V72.5386Z" fill="#CBCFD5"/>
<path d="M53.6902 80.0729C53.6902 80.6729 53.2902 80.8729 52.7902 80.5729L44.5016 75.8221C44.0016 75.5221 43.7016 74.9221 43.6016 74.3221V68.0919C43.6016 67.5919 44.0016 67.2919 44.5016 67.5919L52.7902 72.3427C53.2902 72.6427 53.5902 73.2427 53.6902 73.8427V80.0729Z" fill="#CBCFD5"/>
<path d="M104.805 223.997L68.3546 202.975C67.3693 202.445 65.6259 202.445 64.5648 203.127L16.2824 230.793C15.1455 231.475 14.9939 232.46 15.9792 232.991L52.8841 254.012C53.8695 254.543 55.6128 254.543 56.674 253.861L104.426 226.195C105.714 225.513 105.79 224.528 104.805 223.997Z" fill="#CBCFD5"/>
<path d="M98.5755 224.565L20.6941 230.667C20.6941 230.667 20.6941 231.4 20.6941 231.742C20.6941 232.141 20.9221 232.483 21.2071 232.654L53.3708 251.243C54.1688 251.699 55.5939 251.642 56.506 251.129L97.7205 227.358C98.1765 227.187 98.4615 226.731 98.5185 226.218C98.5755 225.933 98.5755 224.565 98.5755 224.565Z" fill="#EBEDF0"/>
<path d="M97.9952 223.702L66.5041 205.541C65.6528 205.082 64.1467 205.082 63.2299 205.672L21.5164 229.573C20.5341 230.163 20.4031 231.014 21.2544 231.472L53.1384 249.634C53.9897 250.093 55.4958 250.093 56.4126 249.503L97.6677 225.601C98.781 225.012 98.8465 224.161 97.9952 223.702Z" fill="white"/>
<path d="M28.8217 229.8L56.0049 245.466" stroke="#CBCFD5" stroke-linecap="round" stroke-linejoin="round"/>
<path d="M33.1747 227.282L60.358 242.949" stroke="#CBCFD5" stroke-linecap="round" stroke-linejoin="round"/>
<path d="M37.5275 224.764L64.7108 240.431" stroke="#CBCFD5" stroke-linecap="round" stroke-linejoin="round"/>
<path d="M41.8804 222.247L69.0637 237.914" stroke="#CBCFD5" stroke-linecap="round" stroke-linejoin="round"/>
<path d="M46.2332 219.729L73.4164 235.396" stroke="#CBCFD5" stroke-linecap="round" stroke-linejoin="round"/>
<path d="M50.5862 217.212L77.7695 232.878" stroke="#CBCFD5" stroke-linecap="round" stroke-linejoin="round"/>
<path d="M54.939 214.694L82.1223 230.361" stroke="#CBCFD5" stroke-linecap="round" stroke-linejoin="round"/>
<path d="M59.2918 212.177L86.475 227.843" stroke="#CBCFD5" stroke-linecap="round" stroke-linejoin="round"/>
<path d="M88.7558 225.326L92.5865 227.356L60.6645 241.893L56.0481 239.994L88.7558 225.326Z" fill="url(#paint1_linear_2633_269)" fill-opacity="0.1"/>
<path d="M89.5782 225.163L88.7305 225.608L87.9107 223.987L88.8024 223.612C89.0471 223.494 89.5472 223.369 89.8707 223.999C90.1941 224.628 89.819 225.072 89.5782 225.163Z" fill="#31854C"/>
<path d="M55.6864 238.184L87.3899 224.006C87.8156 223.784 88.5362 223.799 88.9098 224.514C89.2833 225.23 88.9356 225.734 88.4445 225.962L56.3687 240.18L53.2659 240.375L55.6864 238.184Z" fill="#35B65E"/>
<path d="M86.153 225.517C86.0736 225.185 85.6585 224.971 85.3984 224.88L86.2702 224.421C86.4268 224.343 87.1042 224.586 87.5248 225.245C87.9455 225.904 87.847 226.826 87.229 227.072C84.7591 228.057 80.6889 230.096 80.2214 230.264C79.7538 230.433 79.3804 230.675 79.1024 230.273C78.8244 229.871 79.1607 229.383 79.8229 229.098C80.0491 229.001 85.2888 226.662 85.7054 226.423C86.122 226.185 86.2324 225.849 86.153 225.517Z" fill="#1F5C3A"/>
<path d="M53.2659 240.375L53.9791 239.718C54.1309 239.684 54.2627 239.763 54.3511 239.909C54.4394 240.056 54.3598 240.255 54.3563 240.302L53.2659 240.375Z" fill="#EAEEF3"/>
<path d="M61.3167 209.787L64.6779 210.871L41.3174 234.785L37.5533 233.315L61.3167 209.787Z" fill="url(#paint2_linear_2633_269)" fill-opacity="0.1"/>
<path d="M61.1943 210.105C60.8762 210.406 60.1784 211.123 60.1784 211.123C60.1784 211.123 60.0297 210.533 59.596 210.176C59.1623 209.819 58.6601 209.678 58.6601 209.678C58.6601 209.678 59.2493 209.057 59.6181 208.715C59.9869 208.373 60.1408 208.275 60.8673 208.893C61.5939 209.511 61.5125 209.805 61.1943 210.105Z" fill="#FFD251"/>
<path d="M36.9661 231.591L58.229 210.119C58.5305 209.775 59.1964 209.491 59.7746 209.997C60.3528 210.504 60.1157 211.181 59.7579 211.552L38.2597 233.129L35.571 234.371L36.9661 231.591Z" fill="#F9A000"/>
<path d="M60.4566 210.837L59.4506 211.851C59.4506 211.851 59.3018 211.26 58.8681 210.903C58.4344 210.546 57.9322 210.406 57.9322 210.406L58.8902 209.443C59.0426 209.268 59.603 209.583 59.9116 209.842C60.2202 210.101 60.6183 210.663 60.4566 210.837Z" fill="#4F5357"/>
<path d="M35.571 234.371L35.9876 233.523C36.1135 233.438 36.2611 233.463 36.393 233.565C36.5249 233.667 36.5228 233.877 36.5362 233.921L35.571 234.371Z" fill="#393E41"/>
<path d="M66.2847 207.961C66.2863 208.046 66.231 208.131 66.1192 208.195C65.8982 208.324 65.538 208.324 65.317 208.195C65.2029 208.129 65.1475 208.041 65.151 207.955C65.151 207.958 65.151 207.96 65.151 207.964C65.158 207.885 65.2136 207.809 65.3163 207.75C65.5373 207.623 65.8975 207.623 66.1185 207.75C66.2212 207.809 66.2769 207.885 66.2839 207.964C66.2846 207.963 66.2847 207.963 66.2847 207.961Z" fill="#CBCFD5"/>
<path d="M68.9981 209.526C68.9997 209.611 68.9444 209.696 68.8326 209.76C68.6116 209.889 68.2514 209.889 68.0304 209.76C67.9163 209.694 67.8609 209.606 67.8644 209.52C67.8644 209.523 67.8644 209.526 67.8644 209.529C67.8714 209.45 67.9271 209.374 68.0297 209.315C68.2507 209.188 68.6109 209.188 68.832 209.315C68.9346 209.374 68.9903 209.45 68.9973 209.529C68.998 209.528 68.9981 209.528 68.9981 209.526Z" fill="#CBCFD5"/>
<path d="M71.7116 211.091C71.7131 211.176 71.6578 211.261 71.5461 211.325C71.3251 211.454 70.9649 211.454 70.7439 211.325C70.6297 211.259 70.5744 211.171 70.5779 211.085C70.5779 211.088 70.5779 211.091 70.5779 211.094C70.5848 211.016 70.6405 210.939 70.7432 210.88C70.9642 210.753 71.3244 210.753 71.5454 210.88C71.6481 210.939 71.7037 211.016 71.7107 211.094C71.7114 211.093 71.7116 211.093 71.7116 211.091Z" fill="#CBCFD5"/>
<path d="M74.425 212.656C74.4266 212.741 74.3712 212.826 74.2595 212.89C74.0385 213.019 73.6783 213.019 73.4573 212.89C73.3431 212.824 73.2878 212.736 73.2913 212.65C73.2913 212.653 73.2913 212.656 73.2913 212.659C73.2982 212.581 73.3539 212.504 73.4566 212.445C73.6776 212.318 74.0378 212.318 74.2588 212.445C74.3615 212.504 74.4172 212.581 74.4241 212.659C74.4248 212.658 74.425 212.658 74.425 212.656Z" fill="#CBCFD5"/>
<path d="M77.1384 214.221C77.14 214.306 77.0846 214.391 76.9729 214.456C76.7519 214.584 76.3917 214.584 76.1707 214.456C76.0565 214.389 76.0012 214.302 76.0047 214.215C76.0047 214.218 76.0047 214.221 76.0047 214.224C76.0116 214.146 76.0673 214.069 76.17 214.01C76.391 213.883 76.7512 213.883 76.9722 214.01C77.0749 214.069 77.1306 214.146 77.1375 214.224C77.1382 214.223 77.1384 214.223 77.1384 214.221Z" fill="#CBCFD5"/>
<path d="M79.8518 215.787C79.8534 215.871 79.798 215.957 79.6863 216.021C79.4653 216.15 79.1051 216.15 78.8841 216.021C78.7699 215.954 78.7146 215.867 78.7181 215.78C78.7181 215.783 78.7181 215.786 78.7181 215.789C78.725 215.711 78.7807 215.634 78.8834 215.575C79.1044 215.448 79.4646 215.448 79.6856 215.575C79.7883 215.634 79.844 215.711 79.8509 215.789C79.8516 215.788 79.8518 215.788 79.8518 215.787Z" fill="#CBCFD5"/>
<path d="M82.5652 217.352C82.5668 217.437 82.5114 217.522 82.3997 217.586C82.1787 217.715 81.8185 217.715 81.5975 217.586C81.4833 217.519 81.428 217.432 81.4315 217.345C81.4315 217.348 81.4315 217.351 81.4315 217.354C81.4385 217.276 81.4941 217.2 81.5968 217.14C81.8178 217.013 82.178 217.013 82.399 217.14C82.5017 217.2 82.5574 217.276 82.5643 217.354C82.565 217.354 82.5652 217.354 82.5652 217.352Z" fill="#CBCFD5"/>
<path d="M85.2787 218.917C85.2802 219.002 85.2249 219.087 85.1132 219.151C84.8922 219.28 84.5319 219.28 84.3109 219.151C84.1968 219.085 84.1414 218.997 84.1449 218.911C84.1449 218.914 84.1449 218.917 84.1449 218.92C84.1519 218.841 84.2076 218.765 84.3102 218.706C84.5312 218.579 84.8915 218.579 85.1125 218.706C85.2151 218.765 85.2708 218.841 85.2778 218.92C85.2785 218.919 85.2787 218.919 85.2787 218.917Z" fill="#CBCFD5"/>
<path d="M87.9921 220.482C87.9936 220.567 87.9383 220.652 87.8266 220.716C87.6056 220.845 87.2454 220.845 87.0244 220.716C86.9102 220.65 86.8549 220.562 86.8583 220.476C86.8583 220.479 86.8583 220.482 86.8583 220.485C86.8653 220.407 86.921 220.33 87.0237 220.271C87.2447 220.144 87.6049 220.144 87.8259 220.271C87.9285 220.33 87.9842 220.407 87.9912 220.485C87.9919 220.484 87.9921 220.484 87.9921 220.482Z" fill="#CBCFD5"/>
<path d="M90.7055 222.047C90.707 222.132 90.6517 222.217 90.54 222.281C90.319 222.41 89.9588 222.41 89.7378 222.281C89.6236 222.215 89.5683 222.127 89.5717 222.041C89.5717 222.044 89.5717 222.047 89.5717 222.05C89.5787 221.971 89.6344 221.895 89.7371 221.836C89.9581 221.709 90.3183 221.709 90.5393 221.836C90.642 221.895 90.6976 221.971 90.7046 222.05C90.7053 222.049 90.7055 222.049 90.7055 222.047Z" fill="#CBCFD5"/>
<path d="M93.4189 223.612C93.4205 223.697 93.3651 223.782 93.2534 223.846C93.0324 223.975 92.6722 223.975 92.4512 223.846C92.337 223.78 92.2817 223.692 92.2852 223.606C92.2852 223.609 92.2852 223.612 92.2852 223.615C92.2921 223.537 92.3478 223.46 92.4505 223.401C92.6715 223.274 93.0317 223.274 93.2527 223.401C93.3554 223.46 93.4111 223.537 93.418 223.615C93.4187 223.614 93.4189 223.614 93.4189 223.612Z" fill="#CBCFD5"/>
</g>
<defs>
<linearGradient id="paint0_linear_2633_269" x1="195.741" y1="273.499" x2="207.781" y2="352.507" gradientUnits="userSpaceOnUse">
<stop/>
<stop offset="0.671875" stop-opacity="0"/>
</linearGradient>
<linearGradient id="paint1_linear_2633_269" x1="67.9891" y1="234.966" x2="69.9484" y2="239.092" gradientUnits="userSpaceOnUse">
<stop/>
<stop offset="0.671875" stop-opacity="0"/>
</linearGradient>
<linearGradient id="paint2_linear_2633_269" x1="45.5525" y1="225.835" x2="47.2898" y2="227.644" gradientUnits="userSpaceOnUse">
<stop/>
<stop offset="0.671875" stop-opacity="0"/>
</linearGradient>
<clipPath id="clip0_2633_269">
<rect width="376" height="324" fill="white"/>
</clipPath>
</defs>
</svg>
