<svg width="376" height="324" viewBox="0 0 376 324" fill="none" xmlns="http://www.w3.org/2000/svg">
<g clip-path="url(#clip0_698_20316)">
<path fill-rule="evenodd" clip-rule="evenodd" d="M262.903 160.924V257.824L376.491 323.754V226.856L262.903 160.924Z" fill="#EAEEF3"/>
<path fill-rule="evenodd" clip-rule="evenodd" d="M364.29 241.129L273.689 188.195C273.607 188.121 273.505 188.076 273.396 188.065C273.287 188.054 273.177 188.077 273.082 188.133C272.988 188.189 272.913 188.273 272.869 188.374C272.825 188.475 272.814 188.587 272.837 188.695V220.655C272.852 220.954 272.938 221.246 273.086 221.506C273.234 221.766 273.44 221.988 273.689 222.153L364.29 275.085C364.372 275.156 364.474 275.199 364.582 275.208C364.689 275.218 364.797 275.194 364.891 275.139C364.984 275.084 365.059 275.002 365.103 274.903C365.148 274.804 365.162 274.693 365.141 274.587V242.627C365.126 242.327 365.04 242.036 364.892 241.776C364.745 241.516 364.538 241.294 364.29 241.129Z" fill="white"/>
<path fill-rule="evenodd" clip-rule="evenodd" d="M341.213 270.95C341.296 271.021 341.399 271.063 341.507 271.072C341.615 271.082 341.723 271.057 341.816 271.002C341.909 270.947 341.984 270.864 342.028 270.765C342.073 270.665 342.086 270.555 342.065 270.448C342.05 270.147 341.964 269.855 341.816 269.594C341.669 269.332 341.462 269.109 341.213 268.942L308.733 249.865C308.65 249.795 308.548 249.753 308.44 249.743C308.332 249.734 308.224 249.759 308.131 249.814C308.037 249.869 307.963 249.952 307.918 250.051C307.874 250.15 307.861 250.261 307.881 250.368C307.897 250.668 307.982 250.961 308.13 251.222C308.278 251.484 308.484 251.707 308.733 251.873L341.213 270.95ZM336.081 273.961C336.163 274.034 336.266 274.079 336.375 274.09C336.485 274.1 336.594 274.076 336.689 274.021C336.784 273.966 336.859 273.882 336.904 273.781C336.949 273.68 336.962 273.568 336.94 273.46C336.923 273.159 336.837 272.866 336.688 272.604C336.539 272.342 336.331 272.12 336.081 271.953L300.186 250.869C300.103 250.797 300 250.752 299.891 250.741C299.782 250.73 299.672 250.754 299.577 250.81C299.482 250.865 299.407 250.949 299.362 251.05C299.317 251.15 299.305 251.263 299.327 251.371C299.343 251.672 299.429 251.965 299.578 252.227C299.728 252.488 299.936 252.711 300.186 252.877L336.081 273.961ZM303.6 248.861C303.683 248.931 303.785 248.974 303.893 248.983C304.001 248.992 304.109 248.968 304.202 248.913C304.295 248.858 304.369 248.775 304.414 248.676C304.459 248.577 304.472 248.467 304.452 248.36C304.437 248.059 304.352 247.767 304.204 247.505C304.056 247.243 303.849 247.02 303.6 246.853L295.054 241.833C294.973 241.759 294.87 241.713 294.76 241.702C294.651 241.691 294.541 241.715 294.447 241.771C294.352 241.827 294.277 241.911 294.233 242.013C294.189 242.114 294.178 242.226 294.202 242.334C294.217 242.635 294.301 242.928 294.449 243.191C294.597 243.453 294.805 243.676 295.054 243.842L303.6 248.861ZM330.099 276.471L307.874 263.419C307.792 263.346 307.689 263.3 307.58 263.289C307.471 263.278 307.361 263.302 307.266 263.357C307.172 263.413 307.097 263.498 307.053 263.599C307.009 263.7 306.998 263.813 307.022 263.921V271.953C307.039 272.253 307.125 272.545 307.273 272.807C307.421 273.068 307.626 273.292 307.874 273.46L330.099 286.511C330.181 286.584 330.284 286.629 330.394 286.64C330.503 286.65 330.613 286.626 330.707 286.571C330.802 286.516 330.878 286.432 330.923 286.331C330.967 286.23 330.98 286.118 330.958 286.01V277.979C330.942 277.677 330.856 277.384 330.707 277.122C330.558 276.86 330.349 276.637 330.099 276.471ZM364.289 233.455C364.372 233.525 364.474 233.568 364.582 233.577C364.69 233.586 364.798 233.561 364.891 233.506C364.985 233.451 365.059 233.368 365.104 233.269C365.148 233.17 365.161 233.059 365.141 232.952C365.125 232.652 365.04 232.359 364.892 232.098C364.745 231.836 364.538 231.613 364.289 231.447L360.874 229.439C360.791 229.369 360.689 229.326 360.581 229.317C360.474 229.308 360.366 229.332 360.272 229.387C360.179 229.442 360.105 229.525 360.06 229.624C360.015 229.723 360.002 229.833 360.022 229.94C360.038 230.24 360.123 230.533 360.271 230.795C360.419 231.056 360.625 231.279 360.874 231.447L364.289 233.455ZM355.743 228.434C355.825 228.506 355.928 228.549 356.036 228.559C356.144 228.568 356.253 228.544 356.347 228.488C356.441 228.433 356.515 228.35 356.559 228.25C356.604 228.15 356.616 228.039 356.595 227.932C356.579 227.631 356.494 227.339 356.346 227.078C356.198 226.816 355.991 226.593 355.743 226.426L352.327 224.418C352.244 224.348 352.141 224.306 352.034 224.296C351.926 224.287 351.818 224.312 351.724 224.367C351.631 224.422 351.557 224.505 351.512 224.604C351.467 224.703 351.454 224.814 351.475 224.921C351.491 225.221 351.576 225.514 351.724 225.775C351.872 226.036 352.078 226.259 352.327 226.426L355.743 228.434ZM347.194 223.416C347.277 223.486 347.379 223.528 347.487 223.538C347.595 223.547 347.703 223.522 347.796 223.467C347.89 223.412 347.964 223.329 348.009 223.23C348.053 223.131 348.066 223.02 348.046 222.913C348.03 222.613 347.945 222.32 347.797 222.059C347.649 221.797 347.443 221.574 347.194 221.408L343.786 219.398C343.704 219.325 343.601 219.28 343.492 219.27C343.382 219.259 343.273 219.283 343.178 219.338C343.083 219.394 343.008 219.477 342.963 219.578C342.918 219.679 342.905 219.791 342.927 219.899C342.943 220.201 343.029 220.494 343.179 220.756C343.328 221.018 343.536 221.241 343.786 221.408L347.194 223.416ZM338.648 218.394C338.73 218.465 338.833 218.508 338.941 218.518C339.049 218.527 339.157 218.503 339.251 218.448C339.345 218.393 339.419 218.31 339.463 218.21C339.508 218.111 339.521 218 339.5 217.893C339.485 217.592 339.4 217.3 339.252 217.038C339.104 216.777 338.897 216.554 338.648 216.387L335.233 214.379C335.15 214.309 335.048 214.267 334.94 214.257C334.833 214.248 334.725 214.273 334.631 214.328C334.538 214.383 334.464 214.465 334.419 214.564C334.374 214.663 334.361 214.774 334.381 214.88C334.398 215.181 334.483 215.473 334.631 215.735C334.779 215.996 334.985 216.22 335.233 216.387L338.648 218.394ZM330.1 213.375C330.183 213.448 330.286 213.493 330.395 213.504C330.505 213.515 330.615 213.49 330.71 213.435C330.805 213.379 330.88 213.295 330.925 213.194C330.97 213.093 330.982 212.981 330.959 212.872C330.943 212.571 330.857 212.278 330.708 212.017C330.559 211.755 330.351 211.533 330.1 211.367L326.686 209.359C326.603 209.288 326.501 209.245 326.393 209.235C326.285 209.225 326.176 209.25 326.083 209.305C325.989 209.36 325.915 209.443 325.87 209.543C325.825 209.642 325.813 209.753 325.834 209.86C325.849 210.161 325.934 210.453 326.082 210.715C326.23 210.977 326.437 211.2 326.686 211.367L330.1 213.375ZM277.11 182.249C277.192 182.324 277.295 182.371 277.404 182.382C277.514 182.394 277.624 182.37 277.72 182.314C277.815 182.258 277.89 182.173 277.933 182.071C277.977 181.969 277.987 181.856 277.962 181.748C277.948 181.447 277.863 181.154 277.715 180.893C277.567 180.631 277.36 180.409 277.11 180.243L273.686 178.235C273.604 178.16 273.501 178.113 273.391 178.102C273.282 178.09 273.171 178.114 273.076 178.17C272.981 178.226 272.906 178.311 272.863 178.413C272.819 178.515 272.809 178.628 272.834 178.736C272.849 179.036 272.934 179.329 273.082 179.591C273.23 179.853 273.436 180.076 273.686 180.243L277.11 182.249Z" fill="#CBCFD5"/>
<path fill-rule="evenodd" clip-rule="evenodd" d="M376.49 229.516L262.912 163.04V150.954L376.487 217.43V229.516H376.49Z" fill="#CBCFD5"/>
<path fill-rule="evenodd" clip-rule="evenodd" d="M269.657 160.373C269.701 160.59 269.676 160.814 269.586 161.016C269.496 161.217 269.345 161.385 269.155 161.496C268.965 161.606 268.746 161.654 268.527 161.632C268.309 161.61 268.103 161.519 267.939 161.373C267.437 161.045 267.019 160.603 266.721 160.081C266.422 159.56 266.25 158.975 266.219 158.374C266.177 158.158 266.202 157.934 266.293 157.733C266.383 157.533 266.534 157.366 266.723 157.255C266.913 157.145 267.132 157.097 267.35 157.119C267.568 157.14 267.774 157.229 267.939 157.374C268.439 157.703 268.856 158.146 269.154 158.667C269.453 159.188 269.625 159.773 269.657 160.373ZM276.543 164.373C276.586 164.589 276.561 164.813 276.471 165.015C276.381 165.216 276.23 165.383 276.04 165.494C275.85 165.604 275.631 165.652 275.412 165.63C275.194 165.608 274.988 165.518 274.823 165.372C274.322 165.044 273.905 164.601 273.607 164.08C273.308 163.559 273.136 162.974 273.105 162.373C273.062 162.157 273.088 161.933 273.178 161.732C273.268 161.531 273.419 161.364 273.608 161.254C273.798 161.143 274.017 161.096 274.235 161.117C274.453 161.138 274.659 161.228 274.823 161.373C275.325 161.702 275.742 162.144 276.04 162.666C276.339 163.187 276.511 163.772 276.543 164.373ZM283.428 168.372C283.471 168.588 283.445 168.812 283.355 169.013C283.265 169.213 283.115 169.381 282.925 169.491C282.735 169.601 282.516 169.649 282.298 169.628C282.08 169.606 281.874 169.517 281.71 169.371C281.208 169.044 280.79 168.601 280.492 168.08C280.193 167.558 280.021 166.973 279.99 166.372C279.947 166.156 279.972 165.931 280.062 165.73C280.152 165.529 280.303 165.361 280.493 165.251C280.683 165.141 280.902 165.093 281.121 165.115C281.339 165.136 281.545 165.227 281.71 165.372C282.209 165.702 282.625 166.146 282.923 166.667C283.222 167.187 283.394 167.771 283.428 168.372Z" fill="white"/>
<path fill-rule="evenodd" clip-rule="evenodd" d="M118.087 175.215L66.9885 144.999V96.6548L118.087 126.871V175.215ZM118.087 115.229L66.9885 85.0146V36.6671L118.087 66.8845V115.231V115.229ZM56.2658 78.3918L4.6416 48.3987V0.409668L56.2687 30.4028V78.3918H56.2658ZM72.6097 161.873C72.3606 161.708 72.1537 161.486 72.0057 161.225C71.8577 160.965 71.7728 160.673 71.7578 160.373C71.7353 160.266 71.7471 160.154 71.7914 160.054C71.8357 159.953 71.9102 159.869 72.0045 159.814C72.0988 159.759 72.208 159.735 72.3166 159.745C72.4252 159.756 72.5278 159.801 72.6097 159.873L76.0585 161.873C76.308 162.038 76.5153 162.259 76.6636 162.52C76.8119 162.78 76.8969 163.073 76.9118 163.372C76.9337 163.48 76.9216 163.591 76.8773 163.691C76.8329 163.791 76.7585 163.875 76.6645 163.93C76.5705 163.986 76.4616 164.01 76.3532 164C76.2448 163.99 76.1422 163.946 76.0599 163.874L72.6097 161.873ZM81.2708 166.872C81.0216 166.707 80.8147 166.485 80.6666 166.225C80.5186 165.965 80.4337 165.673 80.4189 165.373C80.397 165.266 80.409 165.155 80.4534 165.055C80.4978 164.954 80.5722 164.871 80.6662 164.816C80.7602 164.76 80.8691 164.736 80.9775 164.746C81.0859 164.756 81.1885 164.8 81.2708 164.872L112.25 182.868C112.492 183.038 112.691 183.261 112.833 183.521C112.974 183.782 113.053 184.071 113.064 184.368C113.086 184.476 113.073 184.589 113.027 184.69C112.982 184.791 112.906 184.875 112.81 184.93C112.715 184.985 112.604 185.009 112.494 184.997C112.385 184.986 112.282 184.94 112.199 184.866L81.2708 166.872ZM96.7102 181.868C96.7928 181.941 96.8961 181.986 97.0055 181.997C97.1149 182.008 97.2251 181.985 97.3204 181.93C97.4158 181.874 97.4916 181.791 97.5372 181.69C97.5828 181.589 97.596 181.477 97.5749 181.368C97.5579 181.068 97.4708 180.775 97.3206 180.515C97.1703 180.254 96.9612 180.033 96.7102 179.869L93.2727 177.869C93.1901 177.796 93.0869 177.751 92.9774 177.74C92.868 177.729 92.7579 177.753 92.6625 177.808C92.5671 177.863 92.4913 177.947 92.4457 178.047C92.4001 178.148 92.3869 178.26 92.408 178.369C92.4251 178.67 92.5123 178.962 92.6625 179.223C92.8127 179.483 93.0218 179.704 93.2727 179.869L96.7102 181.868ZM88.1059 176.869C88.1884 176.942 88.2915 176.987 88.4008 176.998C88.51 177.009 88.62 176.986 88.7152 176.931C88.8105 176.876 88.8863 176.792 88.9321 176.692C88.9779 176.592 88.9913 176.479 88.9706 176.371C88.9538 176.07 88.8668 175.777 88.7166 175.516C88.5664 175.256 88.3572 175.034 88.1059 174.87L72.6154 165.872C72.5335 165.8 72.4312 165.755 72.3227 165.744C72.2143 165.734 72.1053 165.758 72.0111 165.813C71.9169 165.868 71.8423 165.951 71.7979 166.051C71.7535 166.151 71.7414 166.263 71.7635 166.37C71.7784 166.67 71.8634 166.962 72.0114 167.222C72.1594 167.483 72.3663 167.705 72.6154 167.87L88.1059 176.869Z" fill="#EAEEF3"/>
<path fill-rule="evenodd" clip-rule="evenodd" d="M66.9724 144.905V134.665L78.2645 128.123C78.3619 128.078 78.4694 128.06 78.5761 128.07C78.6828 128.081 78.7849 128.119 78.8722 128.182C79.1238 128.339 79.3303 128.56 79.4713 128.822L99.3193 164.168L66.9724 144.905ZM99.3193 164.168L75.6498 150.073L86.8369 141.939L99.3193 164.168ZM118.087 175.215V152.928L106.853 133.093C106.713 132.829 106.508 132.606 106.257 132.446C106.172 132.383 106.072 132.344 105.968 132.333C105.863 132.322 105.757 132.341 105.662 132.386L75.6498 150.073L118.087 175.215ZM75.4532 81.8895C75.5359 81.9594 75.6382 82.0019 75.7459 82.0111C75.8536 82.0204 75.9615 81.9958 76.0548 81.9409C76.1481 81.886 76.2223 81.8034 76.2671 81.7044C76.3119 81.6055 76.3251 81.495 76.3051 81.3881C76.2899 81.0885 76.2048 80.7966 76.0569 80.5361C75.9089 80.2756 75.7021 80.0538 75.4532 79.8885L72.0455 77.8889C71.9629 77.8192 71.8608 77.7768 71.7532 77.7675C71.6457 77.7583 71.538 77.7827 71.4448 77.8374C71.3515 77.8921 71.2774 77.9745 71.2324 78.0731C71.1875 78.1718 71.1739 78.2821 71.1936 78.3888C71.2086 78.6885 71.2935 78.9805 71.4415 79.241C71.5895 79.5015 71.7964 79.7234 72.0455 79.8885L75.4532 81.8895ZM88.2318 75.3909C88.2493 75.6901 88.3353 75.981 88.483 76.2412C88.6308 76.5013 88.8364 76.7236 89.0837 76.8906C89.217 76.9786 89.3766 77.0175 89.5352 77.0006L96.3505 76.0008C96.4172 75.9886 96.4808 75.9629 96.5375 75.9255C96.5942 75.888 96.6428 75.8394 96.6804 75.7826C96.718 75.7259 96.7439 75.662 96.7565 75.595C96.7691 75.528 96.7681 75.459 96.7537 75.3924C96.7366 74.9985 96.5954 74.6203 96.3505 74.3126L89.5352 65.3147C89.4151 65.1452 89.2614 65.0027 89.0837 64.8962C89.001 64.8264 88.8989 64.784 88.7914 64.7748C88.6839 64.7656 88.5761 64.79 88.4829 64.8447C88.3897 64.8994 88.3155 64.9817 88.2706 65.0804C88.2256 65.1791 88.2121 65.2894 88.2318 65.3961V75.3938V75.3909ZM44.7802 39.9005C44.8638 39.9671 44.9655 40.0068 45.0719 40.0143C45.1783 40.0219 45.2844 39.9969 45.3765 39.9428C45.4686 39.8886 45.5422 39.8077 45.5878 39.7107C45.6334 39.6137 45.6489 39.5051 45.6321 39.3992C45.616 39.0997 45.5306 38.8082 45.3827 38.5479C45.2348 38.2875 45.0285 38.0655 44.7802 37.8995L29.453 28.9016C29.3719 28.826 29.2688 28.7786 29.159 28.7664C29.0491 28.7542 28.9383 28.7779 28.8428 28.8339C28.7474 28.8899 28.6723 28.9754 28.6288 29.0775C28.5852 29.1797 28.5755 29.2933 28.601 29.4015C28.616 29.7012 28.7009 29.9931 28.849 30.2536C28.997 30.5142 29.2039 30.736 29.453 30.9011L44.7802 39.9005ZM34.5573 39.9005C34.6401 39.9705 34.7423 40.013 34.85 40.0222C34.9577 40.0314 35.0656 40.0069 35.159 39.9519C35.2523 39.897 35.3264 39.8144 35.3712 39.7155C35.416 39.6165 35.4293 39.506 35.4092 39.3992C35.394 39.0995 35.309 38.8077 35.161 38.5472C35.013 38.2867 34.8062 38.0648 34.5573 37.8995L15.865 26.902C15.7825 26.8312 15.6801 26.7879 15.572 26.7782C15.464 26.7686 15.3556 26.793 15.2619 26.8481C15.1683 26.9032 15.094 26.9863 15.0494 27.0858C15.0048 27.1853 14.9921 27.2963 15.0131 27.4033C15.0291 27.7028 15.1144 27.9944 15.2623 28.2548C15.4103 28.5151 15.6166 28.7371 15.865 28.903L34.5573 39.9005ZM24.3344 27.9032C24.4158 27.9778 24.5186 28.0242 24.6281 28.0359C24.7375 28.0475 24.8478 28.0237 24.9428 27.9679C25.0379 27.9122 25.1127 27.8273 25.1565 27.7258C25.2003 27.6242 25.2108 27.5113 25.1863 27.4033C25.1689 27.104 25.083 26.8128 24.9352 26.5524C24.7874 26.292 24.5818 26.0695 24.3344 25.9023L15.8153 20.9034C15.7329 20.8327 15.6307 20.7896 15.5228 20.7799C15.4149 20.7702 15.3067 20.7945 15.2131 20.8494C15.1196 20.9043 15.0453 20.9871 15.0005 21.0863C14.9558 21.1856 14.9428 21.2963 14.9634 21.4033C14.9795 21.7027 15.0649 21.9942 15.2128 22.2546C15.3607 22.515 15.567 22.737 15.8153 22.9029L24.3344 27.9032ZM15.8153 34.9016C15.567 34.7357 15.3607 34.5137 15.2128 34.2533C15.0649 33.9929 14.9795 33.7014 14.9634 33.402C14.9419 33.2948 14.9543 33.1835 14.9988 33.0837C15.0433 32.9839 15.1177 32.9007 15.2117 32.8456C15.3056 32.7905 15.4142 32.7663 15.5225 32.7764C15.6307 32.7866 15.7331 32.8305 15.8153 32.9021L19.223 34.9016C19.4713 35.0675 19.6777 35.2895 19.8256 35.5499C19.9735 35.8103 20.0589 36.1018 20.0749 36.4013C20.0954 36.5083 20.0825 36.619 20.0377 36.7182C19.993 36.8175 19.9187 36.9003 19.8252 36.9552C19.7316 37.01 19.6234 37.0343 19.5155 37.0247C19.4076 37.015 19.3054 36.9718 19.223 36.9012L15.8153 34.9016ZM24.3344 39.9005C24.086 39.7343 23.8796 39.512 23.7317 39.2514C23.5838 38.9908 23.4985 38.6991 23.4825 38.3994C23.461 38.2922 23.4734 38.1809 23.5179 38.0812C23.5624 37.9814 23.6368 37.8981 23.7307 37.843C23.8246 37.7879 23.9333 37.7637 24.0416 37.7739C24.1498 37.784 24.2522 37.8279 24.3344 37.8995L44.7802 49.8968C45.0285 50.063 45.2348 50.2853 45.3827 50.5459C45.5306 50.8065 45.616 51.0982 45.6321 51.3979C45.6532 51.5049 45.6405 51.616 45.5959 51.7155C45.5512 51.815 45.4768 51.898 45.383 51.9529C45.2892 52.0078 45.1806 52.0318 45.0726 52.0217C44.9645 52.0115 44.8623 51.9677 44.7802 51.8963L24.3344 39.9005ZM44.7802 57.8964C44.8637 57.9628 44.9652 58.0025 45.0714 58.01C45.1777 58.0176 45.2837 57.9928 45.3757 57.9388C45.4677 57.8848 45.5414 57.8042 45.5871 57.7074C45.6328 57.6107 45.6485 57.5023 45.6321 57.3965C45.6162 57.097 45.5309 56.8054 45.383 56.545C45.2351 56.2846 45.0287 56.0626 44.7802 55.8968L41.3726 53.8973C41.289 53.8307 41.1873 53.791 41.0809 53.7834C40.9745 53.7759 40.8683 53.8008 40.7763 53.855C40.6842 53.9092 40.6105 53.9901 40.5649 54.0871C40.5193 54.1841 40.5039 54.2926 40.5207 54.3986C40.5367 54.698 40.6221 54.9896 40.77 55.2499C40.918 55.5103 41.1243 55.7323 41.3726 55.8983L44.7802 57.8964ZM36.2611 52.8975C36.3447 52.9641 36.4464 53.0038 36.5528 53.0114C36.6592 53.0189 36.7654 52.994 36.8574 52.9398C36.9495 52.8856 37.0232 52.8047 37.0688 52.7077C37.1144 52.6107 37.1298 52.5022 37.113 52.3962C37.097 52.0967 37.0117 51.8052 36.8638 51.5448C36.7159 51.2844 36.5095 51.0624 36.2611 50.8966L15.8153 38.8993C15.7318 38.8328 15.6303 38.7932 15.5241 38.7856C15.4179 38.7781 15.3118 38.8029 15.2198 38.8569C15.1278 38.9109 15.0542 38.9915 15.0084 39.0882C14.9627 39.185 14.947 39.2933 14.9634 39.3992C14.9793 39.6987 15.0646 39.9903 15.2125 40.2507C15.3604 40.5111 15.5669 40.733 15.8153 40.8988L36.2611 52.8975Z" fill="#CBCFD5"/>
<path d="M111.836 103.159C112.316 103.439 112.706 103.159 112.706 102.659C112.689 102.359 112.601 102.066 112.45 101.806C112.299 101.545 112.088 101.324 111.836 101.159L82.3958 84.1594C81.9158 83.8794 81.5258 84.1594 81.5258 84.6594C81.543 84.9602 81.6307 85.2526 81.7818 85.5132C81.933 85.7738 82.1433 85.9952 82.3958 86.1594L111.836 103.159Z" fill="#CBCFD5"/>
<path d="M94.0907 91.922C94.0907 93.582 92.9307 94.252 91.4907 93.422C90.735 92.9282 90.106 92.2636 89.6544 91.4819C89.2027 90.7003 88.9412 89.8234 88.8907 88.922C88.8907 87.262 90.0607 86.592 91.4907 87.422C92.2481 87.9141 92.8784 88.5783 93.3303 89.3603C93.7821 90.1423 94.0427 91.0201 94.0907 91.922Z" fill="#CBCFD5"/>
<path d="M24.0001 231.135L119.094 285.723L96.0002 298.5L3.50003 241L24.0001 231.135Z" fill="url(#paint0_linear_698_20316)" fill-opacity="0.1"/>
<path d="M34.9994 235.456C34.9994 236.455 33.141 240.453 30.0436 242.152C23.2295 245.949 12.2855 245.949 5.47137 242.152C2.37402 240.453 0.309124 238.154 -0.000610352 236.855V210.87C0.309124 208.671 1.96104 206.472 5.05839 204.773C11.8725 201.076 23.023 201.076 29.9404 204.773C33.0377 206.472 34.7929 208.771 34.9994 210.57C34.9994 210.47 34.9994 234.856 34.9994 235.456Z" fill="#CBCFD5"/>
<path d="M5.14423 203.923C11.9184 200.026 23.0034 200.026 29.8802 203.923C36.757 207.821 36.6544 214.179 29.8802 218.077C23.106 221.974 12.021 221.974 5.24687 218.077C-1.73257 214.179 -1.73257 207.821 5.14423 203.923Z" fill="#EAEEF3"/>
<path d="M7.90873 205.192C13.217 202.269 21.7103 202.269 27.0186 205.192C32.327 208.114 32.327 212.886 27.0186 215.808C21.7103 218.731 13.217 218.731 7.90873 215.808C2.69693 212.984 2.69693 208.211 7.90873 205.192Z" fill="#CBCFD5"/>
<path d="M218.879 250.282L313.013 305.221L281.575 323.544L187.2 268.783L218.879 250.282Z" fill="url(#paint1_linear_698_20316)" fill-opacity="0.1"/>
<path fill-rule="evenodd" clip-rule="evenodd" d="M228.786 249.599C228.745 249.164 228.59 248.747 228.338 248.391C228.086 248.035 227.746 247.751 227.351 247.569L196.382 228.902C195.316 228.324 194.12 228.034 192.909 228.06C191.874 228.054 190.849 228.265 189.899 228.68L169.505 238.729L168.16 245.451C168.16 245.451 156.431 245.331 156.431 246.121V249.599C156.472 250.035 156.628 250.452 156.881 250.808C157.135 251.164 157.478 251.446 157.875 251.626L194.365 272.922C195.442 273.476 196.634 273.765 197.843 273.765C199.053 273.765 200.245 273.476 201.322 272.922C201.453 272.841 201.583 272.759 201.702 272.669L227.792 253.401C228.096 253.211 228.35 252.951 228.533 252.642C228.717 252.333 228.824 251.985 228.846 251.626L228.785 249.599" fill="#CBCFD5"/>
<path fill-rule="evenodd" clip-rule="evenodd" d="M201.555 269.004L210.371 262.509L169.465 238.693L158.294 243.825C158.147 243.89 158.005 243.964 157.868 244.046C157.449 244.189 157.085 244.461 156.827 244.822C156.569 245.184 156.431 245.618 156.431 246.063C156.431 246.508 156.569 246.942 156.827 247.304C157.085 247.665 157.449 247.937 157.868 248.08L194.243 269.256C195.316 269.806 196.504 270.093 197.709 270.093C198.913 270.093 200.101 269.806 201.174 269.256C201.305 269.176 201.436 269.095 201.555 269.004Z" fill="#EAEEF3"/>
<path fill-rule="evenodd" clip-rule="evenodd" d="M254.794 141.907C254.216 140.847 253.375 139.956 252.353 139.32L135.047 71.4255C134.696 71.1744 134.287 71.0202 133.859 70.9784C133.431 70.9365 132.999 71.0085 132.607 71.187L128.673 74.0862L253.08 269.499L254.802 268.499C255.15 268.248 255.425 267.909 255.6 267.516C255.775 267.123 255.842 266.69 255.796 266.262V145.312C255.76 144.109 255.414 142.935 254.794 141.907Z" fill="#393E41"/>
<path fill-rule="evenodd" clip-rule="evenodd" d="M251.554 252.328L255.814 250.9V269.271C255.814 272.208 255.84 272.785 252.974 273.555C250.011 274.351 249.67 274.421 249.67 274.421L251.554 252.328Z" fill="#CBCFD5"/>
<path fill-rule="evenodd" clip-rule="evenodd" d="M128.007 200.161V179.5L251.561 251.583V270.457C251.561 274.027 250.261 275.851 245.739 273.219C223.791 260.445 146.776 215.538 130.885 206.209C128.703 204.933 128.007 203.084 128.007 200.161Z" fill="#EBEDF0"/>
<path fill-rule="evenodd" clip-rule="evenodd" d="M188.962 223.886C187.826 223.886 187.051 224.789 187.051 226.356C187.116 227.558 187.463 228.728 188.062 229.771C188.661 230.813 189.496 231.699 190.5 232.356C190.962 232.645 191.491 232.807 192.034 232.827C193.163 232.827 193.938 231.923 193.938 230.356C193.874 229.155 193.53 227.985 192.932 226.943C192.335 225.901 191.501 225.015 190.5 224.358C190.037 224.069 189.507 223.907 188.963 223.888" fill="#CBCFD5"/>
<path fill-rule="evenodd" clip-rule="evenodd" d="M132.303 74.8964C157.389 89.5973 232.476 133.307 248.714 142.718C249.65 143.158 250.426 143.88 250.935 144.784C251.444 145.688 251.66 146.729 251.553 147.763V252.352L128.007 180.368V76.5646C128.007 73.2768 129.447 73.2253 132.303 74.8964Z" fill="#4F5357"/>
<path fill-rule="evenodd" clip-rule="evenodd" d="M247.294 243.354L133.706 177.369V81.3906L247.294 147.376V243.354Z" fill="#0367E4"/>
<path fill-rule="evenodd" clip-rule="evenodd" d="M176.727 138.377C178.358 139.45 179.525 141.104 179.993 143.006L183.599 157.717L187.217 147.21C187.684 145.85 189.005 145.51 190.483 146.37C192.111 147.445 193.276 149.098 193.748 150.999L197.366 165.71L200.983 155.202C201.46 153.802 202.81 153.532 204.248 154.362C204.641 154.598 205.005 154.88 205.332 155.202C207.14 156.942 208.113 159.772 207.508 161.521L200.622 181.516C200.155 182.876 198.843 183.216 197.363 182.356C195.732 181.284 194.566 179.63 194.098 177.727L190.481 163.016L186.865 173.524C186.398 174.882 185.076 175.223 183.599 174.363C181.972 173.287 180.807 171.635 180.334 169.734L173.462 141.745C172.855 139.296 173.829 137.603 175.638 137.946C176.02 138.027 176.386 138.172 176.72 138.374L176.727 138.377ZM176.72 132.376C175.882 131.869 174.964 131.508 174.007 131.306C169.497 130.436 167.05 134.694 168.563 140.794L175.438 168.788C176.608 173.546 179.526 177.682 183.605 180.365C186.368 181.975 188.901 181.915 190.491 180.365C191.961 183.65 194.355 186.431 197.378 188.363C201.082 190.523 204.335 189.673 205.535 186.274L212.419 166.278C213.92 161.919 211.475 154.821 206.974 150.472C206.16 149.662 205.249 148.956 204.262 148.372C201.501 146.773 198.966 146.823 197.378 148.372C195.904 145.089 193.511 142.31 190.491 140.374C187.73 138.764 185.195 138.824 183.605 140.374C182.136 137.089 179.741 134.309 176.717 132.379L176.72 132.376Z" fill="white"/>
<path fill-rule="evenodd" clip-rule="evenodd" d="M108.341 232.705C108.369 232.51 108.34 232.312 108.257 232.134C108.174 231.956 108.041 231.807 107.874 231.705L96.1602 222.707C95.6874 222.379 95.1336 222.189 94.56 222.157C93.9435 222.106 93.3238 222.204 92.7525 222.443L53.8828 239.355C53.657 239.422 53.4497 239.54 53.2773 239.701C53.1048 239.862 52.9719 240.062 52.8889 240.283C52.8527 240.498 52.8876 240.719 52.9881 240.913C53.0886 241.106 53.2492 241.261 53.4455 241.354L65.1692 250.352C65.6388 250.687 66.1945 250.877 66.7693 250.901C67.3846 250.963 68.0057 250.871 68.5768 250.632L107.439 233.642C107.649 233.562 107.839 233.437 107.995 233.275C108.151 233.113 108.269 232.918 108.341 232.705Z" fill="#F9A000"/>
<path fill-rule="evenodd" clip-rule="evenodd" d="M45.9441 242.354C45.7335 242.286 45.5498 242.153 45.4194 241.973C45.289 241.793 45.2188 241.576 45.2188 241.354C45.2188 241.132 45.289 240.915 45.4194 240.735C45.5498 240.555 45.7335 240.422 45.9441 240.354L80.3612 220.359C80.8945 220.088 81.4834 219.947 82.0807 219.947C82.6779 219.947 83.2669 220.088 83.8001 220.359L97.5726 228.357C97.7833 228.425 97.967 228.558 98.0974 228.738C98.2278 228.918 98.298 229.134 98.298 229.357C98.298 229.579 98.2278 229.796 98.0974 229.976C97.967 230.155 97.7833 230.289 97.5726 230.356L63.1555 250.352C62.6276 250.635 62.0358 250.777 61.4375 250.762C60.8356 250.777 60.2401 250.635 59.7081 250.352L45.9441 242.354Z" fill="#FBB900"/>
<path fill-rule="evenodd" clip-rule="evenodd" d="M48.5267 240.852C48.4272 240.895 48.3411 240.964 48.278 241.052C48.2149 241.14 48.1772 241.244 48.1689 241.352C48.1795 241.46 48.2182 241.563 48.281 241.651C48.3439 241.738 48.4286 241.808 48.5267 241.852L60.5685 248.851C60.8343 248.989 61.1291 249.061 61.4282 249.061C61.7273 249.061 62.0221 248.989 62.2879 248.851L70.8922 243.852C70.9892 243.806 71.073 243.736 71.1356 243.648C71.1983 243.561 71.2376 243.459 71.25 243.352C71.24 243.244 71.2015 243.141 71.1386 243.053C71.0757 242.965 70.9906 242.896 70.8922 242.852L58.849 235.853C58.5839 235.709 58.2858 235.636 57.9843 235.644C57.687 235.637 57.3932 235.709 57.1324 235.853L48.5267 240.852Z" fill="#F9A000"/>
<path fill-rule="evenodd" clip-rule="evenodd" d="M60.5687 233.854C60.4704 233.898 60.3854 233.967 60.3225 234.055C60.2596 234.143 60.2211 234.246 60.2109 234.354C60.2229 234.461 60.2621 234.563 60.3248 234.651C60.3874 234.739 60.4715 234.808 60.5687 234.854L72.6105 241.852C72.8782 241.99 73.1745 242.061 73.4751 242.061C73.7757 242.061 74.0721 241.99 74.3398 241.852L82.9441 236.853C83.0411 236.808 83.1249 236.738 83.1876 236.65C83.2502 236.563 83.2895 236.461 83.3019 236.353C83.2917 236.246 83.2532 236.143 83.1904 236.055C83.1275 235.967 83.0425 235.897 82.9441 235.854L70.8924 228.855C70.6268 228.717 70.3323 228.646 70.0334 228.646C69.7346 228.646 69.4401 228.717 69.1744 228.855L60.5687 233.854Z" fill="#FFD251"/>
<path fill-rule="evenodd" clip-rule="evenodd" d="M72.6106 226.856C72.5134 226.9 72.4299 226.97 72.3687 227.058C72.3075 227.146 72.2709 227.249 72.2627 227.356C72.2721 227.463 72.3091 227.565 72.3702 227.653C72.4312 227.74 72.5141 227.81 72.6106 227.856L84.6622 234.854C84.928 234.992 85.2228 235.064 85.5219 235.064C85.8211 235.064 86.1159 234.992 86.3817 234.854L94.9859 229.855C95.0828 229.809 95.1665 229.739 95.2291 229.652C95.2916 229.564 95.3311 229.462 95.3437 229.355C95.3336 229.248 95.2951 229.145 95.2322 229.057C95.1693 228.969 95.0843 228.899 94.9859 228.856L82.9428 221.857C82.6752 221.72 82.3791 221.648 82.0788 221.648C81.7785 221.648 81.4824 221.72 81.2148 221.857L72.6106 226.856Z" fill="white"/>
<path d="M199.419 291.888L219.874 303.88L184.528 324.022L164.122 312.45L199.419 291.888Z" fill="url(#paint2_linear_698_20316)" fill-opacity="0.1"/>
<path fill-rule="evenodd" clip-rule="evenodd" d="M210.142 297.77V294.274L83.084 261.35V264.777C83.1058 264.992 83.1827 265.197 83.3072 265.372C83.4317 265.547 83.5994 265.687 83.7939 265.777L86.6563 267.437L173.29 317.765C173.823 318.035 174.412 318.176 175.008 318.176C175.605 318.176 176.194 318.035 176.727 317.765L209.436 298.77C209.631 298.679 209.798 298.54 209.923 298.364C210.047 298.189 210.124 297.984 210.146 297.77" fill="#CBCFD5"/>
<path fill-rule="evenodd" clip-rule="evenodd" d="M210.142 294.342C210.12 294.128 210.043 293.923 209.919 293.748C209.794 293.572 209.627 293.433 209.432 293.342L119.934 241.354C119.401 241.084 118.812 240.943 118.215 240.943C117.618 240.943 117.029 241.084 116.496 241.354L83.7986 260.35C83.588 260.418 83.4043 260.551 83.2739 260.731C83.1435 260.91 83.0732 261.127 83.0732 261.35C83.0732 261.572 83.1435 261.789 83.2739 261.968C83.4043 262.148 83.588 262.282 83.7986 262.349L173.29 314.338C173.823 314.608 174.412 314.749 175.009 314.749C175.606 314.749 176.195 314.608 176.728 314.338L209.437 295.342C209.631 295.252 209.799 295.112 209.923 294.937C210.048 294.761 210.125 294.556 210.147 294.342" fill="#EBEDF0"/>
<path fill-rule="evenodd" clip-rule="evenodd" d="M115.286 273.347V274.347C115.295 274.453 115.332 274.555 115.392 274.643C115.453 274.731 115.536 274.801 115.632 274.846L153.496 296.841C153.763 296.978 154.057 297.05 154.356 297.05C154.655 297.05 154.95 296.978 155.216 296.841L158.663 294.842C158.76 294.797 158.843 294.727 158.904 294.639C158.965 294.551 159.002 294.449 159.011 294.342V293.342L115.28 273.347H115.286ZM110.827 265.349H101.514V266.348C101.527 266.456 101.566 266.558 101.628 266.645C101.691 266.733 101.775 266.803 101.872 266.848L105.31 268.848C105.563 268.986 105.847 269.058 106.135 269.058H106.213C106.498 269.058 106.778 268.986 107.028 268.848L110.475 266.848C110.572 266.803 110.657 266.733 110.719 266.646C110.782 266.558 110.821 266.456 110.833 266.348V265.349H110.827ZM117.719 261.35H108.401V262.349C108.413 262.456 108.452 262.559 108.515 262.646C108.578 262.734 108.661 262.803 108.758 262.849L112.196 264.849C112.462 264.986 112.756 265.057 113.055 265.057C113.354 265.057 113.648 264.986 113.914 264.849L117.361 262.849C117.458 262.803 117.542 262.734 117.605 262.646C117.667 262.559 117.707 262.456 117.719 262.349V261.35ZM128.043 259.35H118.723V260.35C118.735 260.457 118.775 260.559 118.837 260.647C118.9 260.734 118.984 260.804 119.081 260.85L122.518 262.849C122.772 262.987 123.056 263.059 123.345 263.059H123.423C123.708 263.059 123.989 262.987 124.239 262.849L127.686 260.85C127.784 260.804 127.868 260.734 127.93 260.647C127.993 260.559 128.032 260.457 128.044 260.35V259.35H128.043ZM131.482 253.351H122.162V254.351C122.174 254.458 122.213 254.561 122.276 254.648C122.339 254.736 122.422 254.806 122.52 254.851L125.967 256.851C126.217 256.989 126.497 257.061 126.782 257.061H126.86C127.148 257.061 127.432 256.989 127.685 256.851L131.123 254.851C131.22 254.805 131.303 254.735 131.366 254.648C131.429 254.56 131.468 254.458 131.48 254.351V253.351H131.482ZM138.367 257.35H129.047V258.35C129.059 258.458 129.098 258.56 129.161 258.647C129.224 258.735 129.308 258.805 129.406 258.85L132.853 260.85C133.103 260.988 133.383 261.06 133.668 261.06H133.746C134.034 261.06 134.318 260.988 134.571 260.85L138.009 258.85C138.106 258.805 138.19 258.735 138.253 258.647C138.316 258.56 138.356 258.458 138.368 258.35V257.35H138.367ZM145.233 261.35H135.912V262.349C135.924 262.456 135.963 262.559 136.026 262.646C136.089 262.734 136.172 262.803 136.269 262.849L139.707 264.849C139.96 264.987 140.244 265.059 140.532 265.059H140.6C140.892 265.059 141.179 264.987 141.436 264.849L144.874 262.849C144.971 262.804 145.055 262.734 145.117 262.646C145.18 262.559 145.219 262.456 145.232 262.349V261.35H145.233ZM152.189 265.349H142.867V266.348C142.88 266.456 142.919 266.558 142.982 266.645C143.044 266.733 143.128 266.803 143.225 266.848L146.663 268.848C146.916 268.986 147.2 269.058 147.488 269.058H147.566C147.851 269.058 148.131 268.986 148.381 268.848L151.83 266.848C151.927 266.803 152.011 266.733 152.074 266.646C152.136 266.558 152.175 266.456 152.187 266.348V265.349H152.189ZM148.689 271.347H139.369V272.347C139.381 272.454 139.421 272.556 139.483 272.644C139.546 272.731 139.63 272.801 139.727 272.847L143.174 274.846C143.424 274.984 143.704 275.057 143.989 275.056H144.072C144.36 275.057 144.644 274.985 144.898 274.846L148.334 272.847C148.433 272.803 148.518 272.734 148.581 272.646C148.644 272.558 148.682 272.455 148.692 272.347V271.347H148.689ZM155.578 275.346H146.255V276.346C146.267 276.453 146.307 276.555 146.369 276.643C146.432 276.73 146.516 276.8 146.613 276.846L150.062 278.846C150.312 278.982 150.592 279.054 150.877 279.054H150.954C151.242 279.054 151.526 278.983 151.78 278.846L155.217 276.846C155.314 276.8 155.398 276.73 155.461 276.643C155.524 276.555 155.563 276.453 155.575 276.346V275.346H155.578ZM159.013 269.348H149.703V270.348C149.713 270.455 149.751 270.559 149.815 270.647C149.878 270.735 149.963 270.804 150.062 270.847L153.498 272.847C153.764 272.985 154.058 273.057 154.358 273.057C154.657 273.057 154.951 272.985 155.217 272.847L158.665 270.847C158.761 270.802 158.844 270.732 158.905 270.644C158.966 270.557 159.003 270.454 159.013 270.348V269.348ZM165.899 273.347H156.579V274.347C156.591 274.454 156.63 274.556 156.692 274.644C156.755 274.732 156.839 274.801 156.937 274.846L160.384 276.846C160.65 276.983 160.945 277.054 161.244 277.054C161.543 277.054 161.837 276.983 162.104 276.846L165.54 274.846C165.638 274.802 165.723 274.733 165.786 274.645C165.849 274.557 165.888 274.454 165.899 274.347V273.347ZM152.187 281.345H142.867V282.345C142.88 282.452 142.919 282.554 142.982 282.641C143.044 282.729 143.128 282.799 143.225 282.845L146.663 284.844C146.916 284.982 147.2 285.054 147.488 285.054H147.566C147.851 285.055 148.131 284.982 148.381 284.844L151.83 282.845C151.927 282.799 152.011 282.729 152.073 282.642C152.136 282.554 152.175 282.452 152.187 282.345V281.345ZM162.46 279.345H153.141V280.345C153.153 280.452 153.192 280.555 153.255 280.642C153.317 280.73 153.401 280.8 153.498 280.845L156.937 282.845C157.204 282.983 157.5 283.055 157.801 283.055C158.101 283.055 158.397 282.983 158.665 282.845L162.104 280.845C162.201 280.8 162.284 280.73 162.347 280.642C162.409 280.555 162.448 280.452 162.46 280.345V279.345ZM159.013 285.344H149.703V286.344C149.713 286.452 149.752 286.555 149.815 286.643C149.878 286.73 149.963 286.8 150.062 286.844L153.498 288.843C153.763 288.982 154.058 289.055 154.358 289.055C154.657 289.055 154.952 288.982 155.217 288.843L158.665 286.844C158.761 286.798 158.844 286.728 158.905 286.641C158.966 286.553 159.003 286.451 159.013 286.344V285.344ZM165.899 289.343H156.579V290.343C156.591 290.45 156.63 290.553 156.692 290.64C156.755 290.728 156.839 290.798 156.937 290.843L160.384 292.842C160.65 292.98 160.945 293.052 161.244 293.052C161.543 293.052 161.838 292.98 162.104 292.842L165.54 290.843C165.638 290.799 165.723 290.73 165.786 290.642C165.849 290.554 165.888 290.451 165.899 290.343V289.343ZM169.346 283.345H160.026V284.344C160.038 284.452 160.078 284.554 160.14 284.641C160.203 284.729 160.287 284.799 160.384 284.844L163.822 286.844C164.075 286.982 164.358 287.054 164.647 287.054H164.725C165.01 287.054 165.29 286.982 165.54 286.844L168.988 284.844C169.086 284.799 169.17 284.729 169.232 284.641C169.295 284.554 169.334 284.452 169.346 284.344V283.345ZM172.784 277.346H163.464V278.346C163.477 278.453 163.516 278.555 163.579 278.642C163.641 278.729 163.725 278.799 163.822 278.846L167.27 280.845C167.52 280.984 167.8 281.057 168.085 281.057H168.163C168.452 281.056 168.735 280.984 168.988 280.845L172.426 278.846C172.523 278.8 172.607 278.73 172.669 278.642C172.732 278.555 172.771 278.453 172.784 278.346V277.346ZM179.669 281.345H170.35V282.345C170.362 282.452 170.401 282.554 170.463 282.641C170.526 282.729 170.609 282.799 170.706 282.845L174.145 284.844C174.413 284.982 174.709 285.054 175.01 285.054C175.311 285.054 175.607 284.982 175.875 284.844L179.312 282.845C179.409 282.799 179.493 282.729 179.555 282.641C179.617 282.554 179.657 282.452 179.669 282.345V281.345ZM176.232 287.344H166.913V288.343C166.922 288.451 166.96 288.555 167.023 288.643C167.086 288.731 167.172 288.8 167.27 288.843L170.706 290.843C170.973 290.98 171.267 291.051 171.566 291.051C171.865 291.051 172.16 290.98 172.426 290.843L175.875 288.843C175.972 288.798 176.056 288.728 176.118 288.64C176.181 288.553 176.22 288.451 176.232 288.343V287.344ZM186.555 285.344H177.235V286.344C177.247 286.451 177.286 286.553 177.349 286.641C177.412 286.728 177.496 286.798 177.593 286.844L181.03 288.843C181.283 288.982 181.567 289.055 181.855 289.055H181.933C182.219 289.055 182.5 288.983 182.75 288.843L186.197 286.844C186.294 286.799 186.379 286.729 186.441 286.641C186.504 286.554 186.543 286.451 186.555 286.344V285.344ZM183.107 291.343H173.797V292.342C173.806 292.449 173.843 292.552 173.904 292.64C173.965 292.727 174.049 292.797 174.145 292.842L177.593 294.842C177.859 294.98 178.153 295.052 178.452 295.052C178.752 295.052 179.046 294.98 179.312 294.842L182.75 292.842C182.848 292.798 182.933 292.729 182.996 292.641C183.059 292.553 183.097 292.45 183.107 292.342V291.343ZM193.441 289.343H184.121V290.343C184.133 290.45 184.172 290.553 184.235 290.64C184.297 290.728 184.382 290.798 184.479 290.843L187.916 292.842C188.182 292.98 188.477 293.052 188.775 293.052C189.074 293.052 189.369 292.98 189.634 292.842L193.083 290.843C193.18 290.797 193.264 290.727 193.327 290.64C193.389 290.552 193.429 290.45 193.441 290.343V289.343ZM200.316 293.342H191.006V294.342C191.015 294.449 191.052 294.551 191.113 294.639C191.174 294.727 191.257 294.797 191.354 294.842L194.801 296.841C195.067 296.978 195.362 297.05 195.66 297.05C195.959 297.05 196.253 296.978 196.519 296.841L199.958 294.842C200.056 294.798 200.141 294.728 200.204 294.641C200.267 294.553 200.306 294.45 200.316 294.342V293.342ZM179.669 297.341H170.35V298.341C170.362 298.448 170.4 298.551 170.463 298.638C170.525 298.726 170.609 298.796 170.706 298.841L174.145 300.841C174.403 300.978 174.69 301.049 174.982 301.049H175.048C175.337 301.049 175.621 300.978 175.875 300.841L179.312 298.841C179.409 298.796 179.493 298.726 179.556 298.638C179.618 298.551 179.657 298.448 179.669 298.341V297.341ZM172.784 301.34H163.464V302.34C163.476 302.447 163.515 302.55 163.578 302.637C163.64 302.725 163.724 302.795 163.822 302.84L167.27 304.84C167.52 304.977 167.801 305.049 168.085 305.05H168.163C168.451 305.049 168.735 304.977 168.988 304.84L172.426 302.84C172.523 302.795 172.607 302.725 172.67 302.637C172.733 302.55 172.772 302.447 172.784 302.34V301.34ZM179.669 305.34H170.35V306.339C170.362 306.446 170.401 306.548 170.463 306.636C170.526 306.723 170.609 306.793 170.706 306.839L174.145 308.839C174.403 308.977 174.69 309.049 174.982 309.049H175.048C175.337 309.049 175.621 308.977 175.875 308.839L179.312 306.839C179.409 306.793 179.493 306.723 179.555 306.636C179.617 306.548 179.657 306.446 179.669 306.339V305.34ZM172.784 293.342H163.464V294.342C163.476 294.449 163.516 294.551 163.578 294.639C163.641 294.726 163.725 294.796 163.822 294.842L167.27 296.841C167.52 296.979 167.801 297.051 168.085 297.051H168.163C168.451 297.051 168.735 296.979 168.988 296.841L172.426 294.842C172.523 294.796 172.607 294.726 172.669 294.639C172.732 294.551 172.771 294.449 172.784 294.342V293.342ZM165.899 297.341H156.579V298.341C156.591 298.448 156.63 298.551 156.692 298.639C156.755 298.726 156.839 298.796 156.937 298.841L160.384 300.841C160.65 300.978 160.945 301.049 161.244 301.049C161.543 301.049 161.837 300.978 162.104 300.841L165.54 298.841C165.638 298.797 165.724 298.728 165.787 298.64C165.85 298.552 165.889 298.449 165.899 298.341V297.341ZM145.232 277.346H135.912V278.346C135.924 278.453 135.964 278.555 136.026 278.642C136.089 278.73 136.173 278.8 136.269 278.846L139.707 280.845C139.975 280.982 140.271 281.054 140.572 281.054C140.872 281.054 141.168 280.982 141.436 280.845L144.874 278.846C144.971 278.8 145.055 278.73 145.117 278.642C145.18 278.555 145.219 278.453 145.232 278.346V277.346ZM141.804 267.348H132.494V268.348C132.504 268.455 132.543 268.558 132.606 268.646C132.669 268.733 132.754 268.803 132.852 268.846L136.289 270.846C136.555 270.984 136.849 271.056 137.148 271.056C137.447 271.056 137.742 270.984 138.007 270.846L141.455 268.846C141.551 268.801 141.633 268.731 141.693 268.644C141.754 268.556 141.791 268.454 141.8 268.348V267.348H141.804ZM134.923 263.349H125.614V264.349C125.626 264.456 125.665 264.558 125.728 264.646C125.79 264.733 125.874 264.803 125.971 264.849L129.41 266.848C129.663 266.986 129.947 267.059 130.235 267.058H130.313C130.598 267.059 130.878 266.986 131.128 266.848L134.576 264.849C134.673 264.803 134.756 264.733 134.819 264.646C134.882 264.558 134.921 264.456 134.933 264.349V263.349H134.923ZM131.486 269.348H122.162V270.348C122.174 270.455 122.213 270.557 122.276 270.645C122.338 270.732 122.422 270.802 122.52 270.847L125.967 272.847C126.217 272.984 126.497 273.057 126.782 273.057H126.86C127.148 273.056 127.432 272.984 127.685 272.847L131.123 270.847C131.22 270.802 131.304 270.732 131.366 270.644C131.429 270.557 131.468 270.455 131.48 270.348V269.348H131.486ZM124.595 265.349H115.286V266.348C115.294 266.455 115.331 266.557 115.392 266.645C115.453 266.733 115.536 266.803 115.632 266.848L119.081 268.848C119.346 268.986 119.641 269.058 119.94 269.058C120.239 269.058 120.533 268.986 120.799 268.848L124.236 266.848C124.335 266.804 124.419 266.735 124.482 266.647C124.545 266.559 124.584 266.456 124.594 266.348V265.349H124.595ZM117.718 269.348H108.401V270.348C108.413 270.455 108.452 270.557 108.515 270.644C108.578 270.732 108.661 270.802 108.758 270.847L112.196 272.847C112.462 272.985 112.756 273.057 113.055 273.057C113.354 273.057 113.648 272.985 113.914 272.847L117.361 270.847C117.458 270.802 117.542 270.732 117.605 270.644C117.668 270.557 117.707 270.455 117.719 270.348V269.348H117.718ZM92.9102 260.35V261.35C92.9223 261.457 92.9615 261.559 93.0242 261.647C93.0868 261.734 93.1708 261.804 93.268 261.849L98.4248 264.849C98.6925 264.986 98.9885 265.057 99.2888 265.057C99.5891 265.057 99.8852 264.986 100.153 264.849L103.592 262.849C103.689 262.803 103.772 262.733 103.834 262.646C103.897 262.558 103.936 262.456 103.948 262.349V261.35L92.9102 260.35ZM99.795 256.351V257.35C99.8052 257.458 99.8437 257.561 99.9065 257.649C99.9694 257.737 100.054 257.807 100.153 257.85L105.31 260.85C105.563 260.988 105.847 261.06 106.135 261.06H106.213C106.498 261.06 106.778 260.988 107.028 260.85L110.475 258.85C110.572 258.805 110.657 258.735 110.719 258.647C110.782 258.56 110.821 258.458 110.833 258.35V257.35L99.795 256.351ZM180.671 295.342V296.342C180.683 296.449 180.723 296.551 180.785 296.638C180.848 296.726 180.932 296.796 181.029 296.841L183.601 298.34L177.224 301.339V302.34C177.236 302.447 177.275 302.55 177.338 302.637C177.4 302.725 177.484 302.795 177.581 302.84L181.019 304.84C181.272 304.977 181.556 305.049 181.844 305.05H181.922C182.207 305.049 182.488 304.977 182.738 304.84L193.072 298.841C193.171 298.797 193.257 298.728 193.321 298.64C193.386 298.552 193.427 298.449 193.44 298.341V297.341L180.671 295.342ZM106.681 252.352V253.351C106.691 253.458 106.728 253.56 106.789 253.648C106.85 253.736 106.933 253.806 107.029 253.851L115.633 258.85C115.891 258.988 116.178 259.06 116.47 259.06H116.538C116.826 259.06 117.109 258.988 117.363 258.85L120.8 256.851C120.897 256.805 120.981 256.735 121.044 256.648C121.106 256.56 121.146 256.458 121.158 256.351V255.351L106.676 252.352H106.681ZM113.55 248.353V249.352C113.563 249.459 113.602 249.562 113.665 249.649C113.727 249.737 113.811 249.806 113.908 249.852L119.075 252.852C119.341 252.989 119.635 253.06 119.934 253.06C120.233 253.06 120.527 252.989 120.793 252.852L124.231 250.852C124.329 250.808 124.414 250.739 124.477 250.651C124.539 250.563 124.578 250.46 124.588 250.352V249.352L113.549 248.353H113.55ZM129.397 272.847C129.299 272.891 129.214 272.96 129.151 273.048C129.087 273.136 129.049 273.239 129.038 273.347C129.051 273.454 129.09 273.556 129.153 273.644C129.216 273.731 129.3 273.801 129.397 273.847L132.845 275.846C133.106 275.99 133.399 276.062 133.697 276.055C133.998 276.062 134.296 275.99 134.561 275.846L137.999 273.847C138.096 273.801 138.18 273.731 138.243 273.644C138.305 273.556 138.345 273.454 138.357 273.347C138.347 273.239 138.308 273.136 138.245 273.048C138.182 272.96 138.097 272.891 137.999 272.847L134.561 270.847C134.3 270.703 134.005 270.629 133.707 270.633C133.409 270.627 133.115 270.699 132.855 270.843L129.397 272.847Z" fill="#CBCFD5"/>
<path fill-rule="evenodd" clip-rule="evenodd" d="M163.822 300.84C163.723 300.884 163.639 300.953 163.576 301.041C163.513 301.129 163.474 301.231 163.464 301.339C163.476 301.446 163.515 301.548 163.578 301.636C163.641 301.723 163.724 301.793 163.822 301.839L167.27 303.838C167.531 303.982 167.825 304.055 168.122 304.05C168.424 304.055 168.722 303.982 168.987 303.838L172.424 301.839C172.522 301.793 172.606 301.723 172.668 301.636C172.731 301.548 172.77 301.446 172.782 301.339C172.772 301.231 172.734 301.128 172.671 301.041C172.608 300.953 172.523 300.884 172.424 300.84L168.987 298.841C168.721 298.698 168.424 298.626 168.122 298.632C167.825 298.626 167.531 298.698 167.27 298.841L163.822 300.84ZM156.937 296.841C156.838 296.885 156.753 296.955 156.69 297.042C156.628 297.13 156.589 297.233 156.579 297.341C156.591 297.448 156.63 297.551 156.692 297.638C156.755 297.726 156.839 297.796 156.937 297.841L160.384 299.841C160.65 299.978 160.945 300.049 161.244 300.049C161.543 300.049 161.838 299.978 162.104 299.841L165.54 297.841C165.638 297.797 165.723 297.727 165.786 297.64C165.849 297.552 165.888 297.449 165.899 297.341C165.891 297.233 165.853 297.128 165.789 297.04C165.726 296.952 165.639 296.883 165.54 296.841L162.104 294.842C161.838 294.704 161.543 294.632 161.244 294.632C160.945 294.632 160.65 294.704 160.384 294.842L156.937 296.841ZM115.632 272.847C115.535 272.892 115.452 272.961 115.391 273.049C115.33 273.137 115.294 273.24 115.286 273.347C115.295 273.453 115.332 273.555 115.392 273.643C115.453 273.731 115.536 273.801 115.632 273.847L153.496 295.842C153.763 295.979 154.057 296.05 154.356 296.05C154.655 296.05 154.95 295.979 155.216 295.842L158.663 293.842C158.76 293.797 158.843 293.727 158.904 293.639C158.965 293.551 159.002 293.449 159.011 293.342C159.003 293.235 158.966 293.132 158.905 293.044C158.844 292.957 158.76 292.887 158.663 292.842L120.799 270.847C120.533 270.71 120.239 270.638 119.94 270.638C119.641 270.638 119.347 270.71 119.081 270.847L115.632 272.847ZM108.757 268.848C108.659 268.892 108.574 268.961 108.511 269.049C108.448 269.137 108.409 269.24 108.399 269.348C108.412 269.455 108.451 269.557 108.513 269.644C108.576 269.732 108.66 269.802 108.757 269.847L112.195 271.847C112.46 271.985 112.755 272.057 113.054 272.057C113.352 272.057 113.647 271.985 113.913 271.847L117.36 269.847C117.457 269.802 117.541 269.732 117.604 269.644C117.666 269.557 117.705 269.455 117.718 269.348C117.708 269.24 117.669 269.137 117.606 269.049C117.543 268.961 117.458 268.892 117.36 268.848L113.913 266.848C113.647 266.71 113.352 266.638 113.054 266.638C112.755 266.638 112.46 266.71 112.195 266.848L108.757 268.848ZM101.872 264.849C101.774 264.892 101.689 264.962 101.626 265.05C101.563 265.137 101.524 265.241 101.514 265.349C101.527 265.456 101.566 265.558 101.628 265.645C101.691 265.732 101.775 265.802 101.872 265.847L105.31 267.847C105.575 267.991 105.873 268.063 106.174 268.056C106.472 268.062 106.765 267.99 107.026 267.847L110.474 265.847C110.571 265.802 110.655 265.732 110.718 265.645C110.78 265.558 110.82 265.456 110.831 265.349C110.822 265.241 110.783 265.137 110.72 265.049C110.658 264.961 110.572 264.892 110.474 264.849L107.026 262.849C106.765 262.706 106.472 262.633 106.174 262.639C105.873 262.632 105.575 262.705 105.31 262.849L101.872 264.849ZM93.268 259.85C93.1696 259.894 93.0846 259.963 93.0217 260.051C92.9588 260.139 92.9203 260.242 92.9102 260.35C92.9223 260.457 92.9615 260.559 93.0242 260.647C93.0868 260.734 93.1708 260.804 93.268 260.85L98.4248 263.849C98.6924 263.986 98.9885 264.058 99.2888 264.058C99.5892 264.058 99.8852 263.986 100.153 263.849L103.592 261.849C103.689 261.803 103.772 261.733 103.834 261.646C103.897 261.558 103.936 261.456 103.948 261.349C103.938 261.242 103.9 261.139 103.837 261.051C103.774 260.963 103.69 260.894 103.592 260.85L98.4248 257.85C98.164 257.707 97.8703 257.634 97.5729 257.64C97.2715 257.633 96.9734 257.706 96.7083 257.85L93.268 259.85ZM170.687 296.841C170.588 296.885 170.503 296.955 170.44 297.042C170.377 297.13 170.339 297.233 170.329 297.341C170.341 297.448 170.38 297.551 170.443 297.638C170.506 297.726 170.589 297.795 170.687 297.841L174.125 299.841C174.391 299.983 174.689 300.055 174.99 300.051C175.291 300.057 175.589 299.985 175.853 299.841L179.292 297.841C179.389 297.795 179.473 297.726 179.536 297.638C179.599 297.551 179.638 297.448 179.65 297.341C179.64 297.233 179.601 297.13 179.538 297.042C179.476 296.955 179.391 296.885 179.292 296.841L175.853 294.842C175.589 294.697 175.291 294.625 174.99 294.632C174.689 294.627 174.391 294.699 174.125 294.842L170.687 296.841ZM163.822 292.842C163.723 292.886 163.638 292.956 163.576 293.044C163.513 293.131 163.474 293.234 163.464 293.342C163.476 293.449 163.516 293.551 163.578 293.639C163.641 293.726 163.725 293.796 163.822 293.842L167.27 295.842C167.531 295.986 167.825 296.058 168.122 296.051C168.424 296.058 168.722 295.986 168.987 295.842L172.424 293.842C172.522 293.796 172.605 293.726 172.668 293.639C172.731 293.551 172.77 293.449 172.782 293.342C172.772 293.234 172.734 293.131 172.671 293.043C172.608 292.955 172.523 292.886 172.424 292.842L168.987 290.843C168.722 290.699 168.424 290.627 168.122 290.634C167.825 290.627 167.531 290.699 167.27 290.843L163.822 292.842ZM156.937 288.843C156.839 288.888 156.754 288.957 156.691 289.045C156.628 289.133 156.589 289.237 156.579 289.344C156.591 289.452 156.63 289.554 156.692 289.642C156.755 289.729 156.839 289.799 156.937 289.844L160.384 291.844C160.65 291.981 160.945 292.053 161.244 292.053C161.543 292.053 161.838 291.981 162.104 291.844L165.54 289.844C165.638 289.8 165.723 289.731 165.786 289.643C165.849 289.555 165.888 289.452 165.899 289.344C165.89 289.236 165.852 289.132 165.789 289.043C165.726 288.955 165.639 288.886 165.54 288.843L162.104 286.844C161.838 286.706 161.543 286.634 161.244 286.634C160.945 286.634 160.65 286.706 160.384 286.844L156.937 288.843ZM150.062 284.844C149.962 284.886 149.876 284.955 149.812 285.043C149.749 285.131 149.711 285.235 149.703 285.344C149.713 285.452 149.752 285.555 149.815 285.643C149.878 285.731 149.963 285.8 150.062 285.844L153.498 287.843C153.764 287.981 154.058 288.053 154.358 288.053C154.657 288.053 154.951 287.981 155.217 287.843L158.665 285.844C158.761 285.798 158.844 285.728 158.905 285.641C158.966 285.553 159.003 285.451 159.013 285.344C159.005 285.237 158.969 285.134 158.907 285.046C158.846 284.958 158.762 284.888 158.665 284.844L155.217 282.845C154.951 282.707 154.657 282.635 154.358 282.635C154.058 282.635 153.764 282.707 153.498 282.845L150.062 284.844ZM143.176 280.845C143.077 280.889 142.992 280.958 142.929 281.046C142.866 281.134 142.828 281.237 142.818 281.345C142.83 281.452 142.869 281.554 142.932 281.642C142.994 281.729 143.078 281.799 143.176 281.845L146.613 283.844C146.878 283.988 147.176 284.06 147.478 284.054C147.775 284.06 148.069 283.988 148.33 283.844L151.778 281.845C151.875 281.799 151.959 281.729 152.022 281.641C152.084 281.554 152.124 281.452 152.136 281.345C152.126 281.237 152.087 281.134 152.025 281.046C151.962 280.958 151.877 280.889 151.778 280.845L148.33 278.845C148.069 278.7 147.775 278.627 147.478 278.634C147.176 278.627 146.878 278.7 146.613 278.845L143.176 280.845ZM136.291 276.846C136.192 276.889 136.107 276.959 136.044 277.046C135.982 277.134 135.943 277.237 135.933 277.344C135.945 277.452 135.984 277.554 136.047 277.642C136.109 277.73 136.193 277.8 136.291 277.846L139.728 279.845C139.996 279.983 140.292 280.055 140.593 280.055C140.894 280.055 141.19 279.983 141.458 279.845L144.895 277.846C144.992 277.8 145.076 277.73 145.139 277.642C145.202 277.554 145.241 277.452 145.253 277.344C145.243 277.237 145.204 277.134 145.141 277.046C145.078 276.959 144.993 276.889 144.895 276.846L141.458 274.846C141.19 274.708 140.894 274.636 140.593 274.636C140.292 274.636 139.996 274.708 139.728 274.846L136.291 276.846ZM129.406 272.847C129.307 272.891 129.222 272.96 129.159 273.048C129.096 273.136 129.057 273.239 129.047 273.347C129.059 273.454 129.099 273.556 129.161 273.644C129.224 273.731 129.309 273.801 129.406 273.847L132.853 275.846C133.114 275.99 133.408 276.062 133.705 276.055C134.007 276.062 134.305 275.99 134.57 275.846L138.007 273.847C138.105 273.801 138.188 273.731 138.251 273.644C138.314 273.556 138.353 273.454 138.365 273.347C138.355 273.239 138.317 273.136 138.254 273.048C138.191 272.96 138.106 272.891 138.007 272.847L134.57 270.847C134.306 270.701 134.008 270.628 133.707 270.633C133.409 270.627 133.115 270.699 132.855 270.843L129.406 272.847ZM122.52 268.848C122.421 268.891 122.336 268.961 122.273 269.049C122.21 269.137 122.172 269.24 122.162 269.348C122.174 269.455 122.213 269.557 122.276 269.645C122.338 269.732 122.422 269.802 122.52 269.847L125.967 271.847C126.228 271.991 126.522 272.063 126.819 272.057C127.12 272.064 127.419 271.992 127.684 271.847L131.121 269.847C131.218 269.802 131.302 269.732 131.365 269.645C131.428 269.557 131.467 269.455 131.479 269.348C131.469 269.24 131.43 269.137 131.367 269.049C131.304 268.961 131.219 268.892 131.121 268.848L127.684 266.848C127.42 266.703 127.123 266.629 126.822 266.634C126.524 266.627 126.231 266.7 125.97 266.844L122.52 268.848ZM115.633 264.849C115.537 264.893 115.453 264.963 115.393 265.051C115.332 265.139 115.295 265.242 115.287 265.349C115.296 265.455 115.333 265.557 115.394 265.645C115.454 265.732 115.537 265.802 115.633 265.847L119.082 267.847C119.348 267.984 119.642 268.056 119.941 268.056C120.24 268.056 120.535 267.984 120.8 267.847L124.238 265.847C124.336 265.803 124.421 265.734 124.484 265.647C124.547 265.559 124.585 265.456 124.595 265.349C124.587 265.24 124.55 265.136 124.487 265.048C124.423 264.96 124.337 264.891 124.238 264.849L120.8 262.849C120.535 262.711 120.24 262.639 119.941 262.639C119.642 262.639 119.348 262.711 119.082 262.849L115.633 264.849ZM108.758 260.85C108.66 260.893 108.575 260.963 108.512 261.051C108.449 261.139 108.411 261.242 108.401 261.349C108.413 261.457 108.452 261.559 108.515 261.646C108.578 261.734 108.661 261.804 108.758 261.849L112.196 263.849C112.462 263.986 112.756 264.057 113.055 264.057C113.354 264.057 113.648 263.986 113.914 263.849L117.361 261.849C117.458 261.804 117.542 261.734 117.605 261.646C117.667 261.559 117.707 261.457 117.719 261.349C117.709 261.242 117.67 261.139 117.608 261.051C117.545 260.963 117.46 260.893 117.361 260.85L113.914 258.85C113.648 258.713 113.354 258.641 113.055 258.641C112.756 258.641 112.462 258.713 112.196 258.85L108.758 260.85ZM100.144 255.851C100.045 255.893 99.959 255.962 99.896 256.05C99.8329 256.138 99.795 256.242 99.7865 256.351C99.7966 256.458 99.8352 256.561 99.898 256.649C99.9609 256.737 100.046 256.807 100.144 256.85L105.301 259.85C105.566 259.994 105.864 260.067 106.166 260.06C106.463 260.066 106.757 259.994 107.018 259.85L110.465 257.85C110.562 257.805 110.646 257.735 110.709 257.647C110.772 257.56 110.811 257.458 110.823 257.35C110.813 257.243 110.774 257.139 110.711 257.052C110.649 256.964 110.564 256.894 110.465 256.85L105.298 253.851C105.033 253.713 104.738 253.641 104.439 253.641C104.14 253.641 103.846 253.713 103.58 253.851L100.144 255.851ZM174.145 290.843C174.048 290.887 173.964 290.957 173.903 291.045C173.842 291.133 173.806 291.236 173.797 291.343C173.806 291.449 173.843 291.552 173.904 291.64C173.965 291.727 174.049 291.797 174.145 291.842L177.593 293.842C177.859 293.98 178.153 294.052 178.452 294.052C178.752 294.052 179.046 293.98 179.312 293.842L182.75 291.842C182.848 291.798 182.933 291.729 182.996 291.641C183.059 291.553 183.097 291.45 183.107 291.343C183.099 291.234 183.061 291.13 182.998 291.042C182.935 290.954 182.849 290.885 182.75 290.843L179.312 288.843C179.046 288.706 178.751 288.634 178.452 288.634C178.153 288.634 177.859 288.706 177.593 288.843L174.145 290.843ZM193.441 297.341C193.431 297.234 193.392 297.131 193.329 297.043C193.266 296.955 193.181 296.885 193.083 296.841L186.197 292.842C185.932 292.699 185.635 292.626 185.334 292.632C185.036 292.626 184.743 292.699 184.482 292.842L181.033 294.842C180.935 294.886 180.85 294.955 180.787 295.043C180.724 295.131 180.685 295.234 180.675 295.342C180.688 295.449 180.727 295.551 180.79 295.638C180.852 295.726 180.936 295.796 181.033 295.842L183.606 297.341L177.642 300.842C177.544 300.885 177.459 300.954 177.396 301.042C177.333 301.13 177.295 301.233 177.285 301.34C177.297 301.447 177.336 301.55 177.398 301.637C177.461 301.725 177.545 301.795 177.642 301.84L181.08 303.84C181.345 303.984 181.643 304.057 181.945 304.051C182.242 304.056 182.535 303.983 182.796 303.84L193.129 297.841C193.217 297.79 193.292 297.717 193.346 297.63C193.401 297.543 193.433 297.444 193.441 297.341ZM167.27 286.844C167.171 286.885 167.084 286.954 167.021 287.042C166.958 287.13 166.92 287.234 166.913 287.342C166.922 287.45 166.96 287.553 167.023 287.641C167.086 287.729 167.172 287.799 167.27 287.842L170.706 289.841C170.972 289.979 171.267 290.05 171.566 290.05C171.865 290.05 172.16 289.979 172.426 289.841L175.875 287.842C175.972 287.796 176.056 287.727 176.118 287.639C176.181 287.551 176.22 287.449 176.232 287.342C176.222 287.235 176.183 287.132 176.12 287.044C176.058 286.957 175.973 286.887 175.875 286.844L172.426 284.844C172.16 284.706 171.865 284.634 171.566 284.634C171.267 284.634 170.972 284.706 170.706 284.844L167.27 286.844ZM160.384 282.845C160.286 282.889 160.201 282.958 160.138 283.046C160.075 283.134 160.037 283.237 160.026 283.344C160.039 283.451 160.078 283.554 160.141 283.641C160.203 283.729 160.287 283.799 160.384 283.844L163.822 285.844C164.087 285.988 164.385 286.061 164.686 286.054C164.984 286.061 165.278 285.988 165.538 285.844L168.987 283.844C169.084 283.799 169.168 283.729 169.23 283.641C169.293 283.554 169.332 283.451 169.345 283.344C169.335 283.237 169.296 283.133 169.233 283.046C169.171 282.958 169.085 282.888 168.987 282.845L165.538 280.845C165.277 280.701 164.984 280.629 164.686 280.635C164.385 280.629 164.087 280.701 163.822 280.845L160.384 282.845ZM153.498 278.845C153.4 278.889 153.315 278.958 153.252 279.046C153.189 279.133 153.151 279.236 153.141 279.344C153.153 279.451 153.192 279.553 153.254 279.641C153.317 279.729 153.401 279.798 153.498 279.844L156.937 281.843C157.204 281.981 157.5 282.053 157.801 282.053C158.101 282.053 158.397 281.981 158.665 281.843L162.104 279.844C162.201 279.798 162.285 279.729 162.347 279.641C162.41 279.553 162.448 279.451 162.46 279.344C162.45 279.236 162.412 279.133 162.35 279.046C162.287 278.958 162.202 278.889 162.104 278.845L158.665 276.846C158.397 276.708 158.101 276.636 157.801 276.636C157.5 276.636 157.204 276.708 156.937 276.846L153.498 278.845ZM146.613 274.846C146.515 274.89 146.43 274.959 146.367 275.047C146.304 275.135 146.265 275.238 146.255 275.346C146.267 275.453 146.307 275.556 146.369 275.643C146.432 275.731 146.516 275.8 146.613 275.846L150.062 277.846C150.322 277.99 150.616 278.062 150.914 278.056C151.215 278.062 151.513 277.99 151.778 277.846L155.216 275.846C155.313 275.8 155.397 275.731 155.46 275.643C155.522 275.556 155.561 275.453 155.574 275.346C155.564 275.238 155.525 275.135 155.462 275.047C155.399 274.959 155.314 274.89 155.216 274.846L151.778 272.847C151.513 272.702 151.215 272.63 150.914 272.637C150.616 272.63 150.322 272.702 150.062 272.847L146.613 274.846ZM139.727 270.847C139.628 270.891 139.544 270.961 139.481 271.049C139.418 271.136 139.379 271.239 139.369 271.347C139.381 271.454 139.421 271.556 139.483 271.644C139.546 271.731 139.63 271.801 139.727 271.847L143.174 273.847C143.435 273.99 143.729 274.063 144.026 274.057C144.327 274.063 144.625 273.99 144.891 273.847L148.327 271.847C148.425 271.804 148.511 271.734 148.574 271.646C148.637 271.558 148.675 271.455 148.685 271.347C148.677 271.239 148.639 271.134 148.576 271.046C148.513 270.958 148.427 270.889 148.327 270.847L144.891 268.848C144.626 268.703 144.328 268.631 144.026 268.638C143.729 268.631 143.435 268.704 143.174 268.848L139.727 270.847ZM132.852 266.848C132.752 266.891 132.666 266.96 132.603 267.048C132.54 267.137 132.502 267.241 132.494 267.349C132.504 267.457 132.543 267.56 132.606 267.647C132.669 267.735 132.754 267.804 132.852 267.848L136.289 269.847C136.555 269.985 136.849 270.057 137.148 270.057C137.447 270.057 137.742 269.985 138.007 269.847L141.455 267.848C141.556 267.81 141.644 267.742 141.706 267.653C141.768 267.563 141.801 267.457 141.801 267.348C141.801 267.239 141.768 267.133 141.706 267.043C141.644 266.954 141.556 266.886 141.455 266.848L138.007 264.849C137.742 264.711 137.447 264.639 137.148 264.639C136.849 264.639 136.555 264.711 136.289 264.849L132.852 266.848ZM125.976 262.849C125.877 262.893 125.793 262.963 125.73 263.05C125.667 263.138 125.629 263.241 125.619 263.349C125.631 263.456 125.67 263.558 125.733 263.646C125.795 263.733 125.879 263.803 125.976 263.849L129.413 265.848C129.678 265.994 129.976 266.066 130.278 266.058C130.575 266.065 130.869 265.993 131.13 265.848L134.577 263.849C134.674 263.803 134.758 263.733 134.82 263.646C134.883 263.558 134.922 263.456 134.935 263.349C134.925 263.241 134.886 263.138 134.823 263.05C134.76 262.962 134.675 262.893 134.577 262.849L131.13 260.85C130.869 260.706 130.575 260.634 130.278 260.64C129.976 260.633 129.678 260.705 129.413 260.85L125.976 262.849ZM119.081 258.85C118.982 258.894 118.897 258.963 118.835 259.051C118.772 259.139 118.733 259.242 118.723 259.35C118.735 259.457 118.774 259.559 118.837 259.647C118.899 259.735 118.983 259.804 119.081 259.85L122.518 261.849C122.783 261.994 123.081 262.066 123.383 262.059C123.68 262.066 123.974 261.993 124.235 261.849L127.682 259.85C127.779 259.804 127.864 259.734 127.926 259.647C127.989 259.559 128.028 259.457 128.04 259.35C128.03 259.242 127.991 259.139 127.928 259.051C127.866 258.963 127.781 258.894 127.682 258.85L124.235 256.85C123.974 256.706 123.68 256.634 123.383 256.641C123.081 256.634 122.783 256.706 122.518 256.85L119.081 258.85ZM107.029 251.852C106.932 251.896 106.849 251.966 106.787 252.054C106.726 252.142 106.69 252.245 106.681 252.351C106.691 252.458 106.728 252.56 106.789 252.648C106.85 252.736 106.933 252.806 107.029 252.851L115.632 257.85C115.898 257.993 116.195 258.065 116.497 258.06C116.798 258.067 117.096 257.995 117.361 257.85L120.799 255.851C120.896 255.805 120.98 255.735 121.042 255.648C121.105 255.56 121.144 255.458 121.157 255.351C121.147 255.243 121.108 255.14 121.045 255.052C120.982 254.964 120.897 254.895 120.799 254.851L112.195 249.852C111.929 249.714 111.634 249.642 111.335 249.642C111.036 249.642 110.741 249.714 110.475 249.852L107.029 251.852ZM191.354 292.842C191.252 292.879 191.163 292.947 191.101 293.037C191.038 293.126 191.005 293.233 191.005 293.342C191.005 293.451 191.038 293.558 191.101 293.648C191.163 293.737 191.252 293.805 191.354 293.842L194.801 295.842C195.067 295.979 195.361 296.051 195.66 296.051C195.959 296.051 196.253 295.979 196.519 295.842L199.958 293.842C200.056 293.798 200.141 293.729 200.204 293.641C200.267 293.553 200.306 293.45 200.316 293.342C200.308 293.234 200.27 293.13 200.207 293.042C200.144 292.954 200.058 292.885 199.958 292.842L196.519 290.843C196.253 290.705 195.959 290.634 195.66 290.634C195.361 290.634 195.067 290.705 194.801 290.843L191.354 292.842ZM184.479 288.843C184.381 288.887 184.296 288.957 184.233 289.045C184.17 289.133 184.131 289.237 184.121 289.344C184.133 289.452 184.172 289.554 184.235 289.642C184.298 289.729 184.382 289.799 184.479 289.844L187.916 291.844C188.182 291.981 188.477 292.053 188.775 292.053C189.074 292.053 189.369 291.981 189.634 291.844L193.083 289.844C193.18 289.799 193.264 289.729 193.327 289.641C193.389 289.554 193.429 289.452 193.441 289.344C193.43 289.237 193.392 289.134 193.329 289.046C193.266 288.958 193.181 288.888 193.083 288.843L189.634 286.844C189.369 286.706 189.074 286.634 188.775 286.634C188.477 286.634 188.182 286.706 187.916 286.844L184.479 288.843ZM177.642 284.844C177.544 284.888 177.459 284.957 177.396 285.045C177.333 285.133 177.294 285.236 177.285 285.344C177.297 285.451 177.336 285.553 177.399 285.641C177.461 285.728 177.545 285.798 177.642 285.844L181.08 287.843C181.345 287.989 181.643 288.062 181.945 288.055C182.242 288.061 182.536 287.988 182.796 287.843L186.244 285.844C186.341 285.798 186.425 285.728 186.487 285.641C186.55 285.553 186.589 285.451 186.602 285.344C186.591 285.236 186.553 285.133 186.49 285.045C186.427 284.957 186.342 284.888 186.244 284.844L182.796 282.845C182.535 282.701 182.242 282.629 181.945 282.635C181.643 282.628 181.345 282.701 181.08 282.845L177.642 284.844ZM170.685 280.845C170.587 280.889 170.502 280.958 170.439 281.046C170.376 281.134 170.338 281.237 170.327 281.345C170.34 281.452 170.379 281.554 170.442 281.641C170.504 281.729 170.588 281.799 170.685 281.845L174.124 283.844C174.391 283.982 174.688 284.054 174.988 284.054C175.288 284.054 175.585 283.982 175.852 283.844L179.291 281.845C179.388 281.799 179.472 281.729 179.534 281.641C179.597 281.554 179.636 281.452 179.649 281.345C179.638 281.237 179.6 281.134 179.537 281.046C179.474 280.958 179.389 280.889 179.291 280.845L175.852 278.845C175.585 278.707 175.288 278.635 174.988 278.635C174.688 278.635 174.391 278.707 174.124 278.845L170.685 280.845ZM163.82 276.846C163.722 276.89 163.637 276.959 163.574 277.046C163.511 277.134 163.473 277.237 163.462 277.344C163.475 277.452 163.514 277.554 163.577 277.642C163.639 277.729 163.723 277.8 163.82 277.846L167.269 279.845C167.529 279.99 167.823 280.063 168.121 280.055C168.422 280.063 168.721 279.99 168.986 279.845L172.423 277.846C172.52 277.8 172.604 277.73 172.667 277.642C172.73 277.554 172.769 277.452 172.781 277.344C172.771 277.237 172.732 277.134 172.669 277.046C172.606 276.959 172.521 276.889 172.423 276.846L168.986 274.846C168.721 274.701 168.422 274.629 168.121 274.636C167.823 274.629 167.529 274.701 167.269 274.846L163.82 276.846ZM156.935 272.847C156.837 272.891 156.752 272.96 156.689 273.048C156.626 273.136 156.588 273.239 156.578 273.347C156.589 273.454 156.629 273.556 156.691 273.644C156.754 273.731 156.838 273.801 156.935 273.847L160.383 275.846C160.649 275.983 160.943 276.055 161.242 276.055C161.541 276.055 161.836 275.983 162.102 275.846L165.538 273.847C165.636 273.802 165.721 273.733 165.785 273.645C165.848 273.557 165.887 273.454 165.897 273.347C165.889 273.238 165.851 273.134 165.788 273.046C165.724 272.958 165.638 272.889 165.538 272.847L162.102 270.847C161.836 270.71 161.541 270.638 161.242 270.638C160.943 270.638 160.649 270.71 160.383 270.847L156.935 272.847ZM150.06 268.848C149.961 268.89 149.874 268.958 149.811 269.047C149.747 269.135 149.709 269.239 149.701 269.348C149.711 269.456 149.75 269.559 149.813 269.647C149.876 269.735 149.962 269.804 150.06 269.847L153.496 271.847C153.762 271.985 154.057 272.057 154.356 272.057C154.655 272.057 154.95 271.985 155.216 271.847L158.663 269.847C158.76 269.802 158.843 269.732 158.904 269.644C158.965 269.557 159.002 269.454 159.011 269.348C159.003 269.24 158.967 269.138 158.906 269.05C158.844 268.962 158.761 268.892 158.663 268.848L155.216 266.848C154.95 266.71 154.655 266.638 154.356 266.638C154.057 266.638 153.762 266.71 153.496 266.848L150.06 268.848ZM143.174 264.849C143.076 264.892 142.99 264.961 142.927 265.049C142.864 265.137 142.826 265.241 142.816 265.349C142.828 265.456 142.868 265.558 142.93 265.645C142.993 265.732 143.077 265.802 143.174 265.847L146.612 267.847C146.877 267.991 147.175 268.063 147.476 268.056C147.774 268.063 148.068 267.991 148.328 267.847L151.777 265.847C151.874 265.802 151.958 265.732 152.02 265.645C152.083 265.557 152.122 265.455 152.135 265.349C152.125 265.241 152.086 265.138 152.023 265.05C151.96 264.962 151.875 264.893 151.777 264.849L148.328 262.849C148.068 262.705 147.774 262.632 147.476 262.639C147.175 262.632 146.877 262.705 146.612 262.849L143.174 264.849ZM136.289 260.85C136.191 260.893 136.106 260.963 136.043 261.051C135.98 261.139 135.942 261.242 135.932 261.349C135.944 261.457 135.983 261.559 136.046 261.646C136.108 261.734 136.192 261.804 136.289 261.849L139.727 263.849C139.992 263.993 140.29 264.065 140.591 264.057C140.893 264.063 141.19 263.992 141.456 263.849L144.894 261.849C144.991 261.804 145.075 261.734 145.137 261.646C145.2 261.559 145.239 261.457 145.251 261.349C145.241 261.242 145.203 261.138 145.14 261.051C145.077 260.963 144.992 260.893 144.894 260.85L141.456 258.85C141.19 258.707 140.893 258.635 140.591 258.64C140.29 258.633 139.992 258.706 139.727 258.85L136.289 260.85ZM129.404 256.85C129.306 256.894 129.221 256.964 129.158 257.051C129.094 257.139 129.056 257.242 129.045 257.35C129.058 257.458 129.097 257.56 129.16 257.648C129.223 257.735 129.307 257.805 129.404 257.85L132.852 259.85C133.113 259.994 133.406 260.066 133.704 260.06C134.005 260.067 134.303 259.994 134.568 259.85L138.006 257.85C138.103 257.805 138.187 257.735 138.25 257.647C138.313 257.56 138.352 257.458 138.364 257.35C138.354 257.243 138.315 257.139 138.252 257.051C138.189 256.964 138.104 256.894 138.006 256.85L134.568 254.851C134.305 254.705 134.008 254.631 133.707 254.637C133.409 254.63 133.115 254.703 132.855 254.847L129.404 256.85ZM122.518 252.851C122.42 252.895 122.335 252.964 122.272 253.052C122.209 253.14 122.17 253.243 122.16 253.351C122.173 253.458 122.212 253.561 122.274 253.648C122.337 253.736 122.421 253.806 122.518 253.851L125.966 255.851C126.226 255.995 126.52 256.067 126.818 256.061C127.119 256.068 127.417 255.995 127.682 255.851L131.12 253.851C131.217 253.805 131.3 253.735 131.363 253.648C131.426 253.56 131.465 253.458 131.477 253.351C131.467 253.243 131.429 253.14 131.366 253.053C131.303 252.965 131.218 252.895 131.12 252.851L127.682 250.852C127.417 250.707 127.119 250.635 126.818 250.642C126.52 250.635 126.226 250.708 125.966 250.852L122.518 252.851ZM113.914 247.853C113.816 247.897 113.731 247.966 113.668 248.054C113.605 248.142 113.566 248.245 113.556 248.352C113.568 248.46 113.608 248.562 113.67 248.649C113.733 248.737 113.817 248.807 113.914 248.852L119.081 251.852C119.346 251.989 119.641 252.061 119.94 252.061C120.239 252.061 120.533 251.989 120.799 251.852L124.236 249.852C124.335 249.808 124.42 249.739 124.483 249.651C124.546 249.563 124.584 249.46 124.594 249.352C124.586 249.244 124.548 249.14 124.485 249.052C124.422 248.963 124.336 248.894 124.236 248.852L119.079 245.853C118.814 245.709 118.516 245.636 118.215 245.643C117.917 245.636 117.623 245.709 117.363 245.853L113.914 247.853ZM170.687 304.839C170.588 304.883 170.503 304.953 170.44 305.041C170.378 305.129 170.339 305.232 170.329 305.339C170.341 305.446 170.381 305.548 170.443 305.636C170.506 305.723 170.59 305.793 170.687 305.839L174.125 307.839C174.391 307.981 174.689 308.054 174.99 308.049C175.291 308.055 175.588 307.983 175.853 307.839L179.292 305.839C179.389 305.793 179.473 305.723 179.536 305.636C179.598 305.548 179.638 305.446 179.65 305.339C179.64 305.232 179.601 305.129 179.538 305.041C179.475 304.953 179.391 304.883 179.292 304.839L175.853 302.84C175.589 302.696 175.291 302.623 174.99 302.63C174.689 302.624 174.391 302.697 174.125 302.84L170.687 304.839Z" fill="white"/>
</g>
<defs>
<linearGradient id="paint0_linear_698_20316" x1="7.38476" y1="242.076" x2="62.8166" y2="311.656" gradientUnits="userSpaceOnUse">
<stop/>
<stop offset="0.739583" stop-opacity="0"/>
</linearGradient>
<linearGradient id="paint1_linear_698_20316" x1="195.741" y1="273.499" x2="207.781" y2="352.507" gradientUnits="userSpaceOnUse">
<stop/>
<stop offset="0.671875" stop-opacity="0"/>
</linearGradient>
<linearGradient id="paint2_linear_698_20316" x1="172.507" y1="316.821" x2="181.726" y2="331.601" gradientUnits="userSpaceOnUse">
<stop/>
<stop offset="0.739583" stop-opacity="0"/>
</linearGradient>
<clipPath id="clip0_698_20316">
<rect width="376" height="324" fill="white"/>
</clipPath>
</defs>
</svg>
