<svg width="376" height="324" viewBox="0 0 376 324" fill="none" xmlns="http://www.w3.org/2000/svg">
<g clip-path="url(#clip0_7126_199574)">
<path d="M22 82.5896L24.1212 100.936L54.9935 121.737L58.0023 120.159V100.403L24.55 81.1399L22 82.5896Z" fill="#DADCDE"/>
<path d="M22.0003 82.5896V102.879L55.0002 121.74V101.71L22.0003 82.5896Z" fill="#E9EBEE"/>
<path d="M60 104.29L62.1212 122.636L92.9935 143.437L96.0023 141.859V122.103L62.55 102.84L60 104.29Z" fill="#CBCFD5"/>
<path d="M60.0003 104.29V124.58L93.0002 143.44V123.41L60.0003 104.29Z" fill="#DCDEE1"/>
<path d="M98 126.09L100.121 144.436L130.993 165.237L134.002 163.659V143.903L100.55 124.64L98 126.09Z" fill="#DADCDE"/>
<path d="M98.0003 126.09V146.38L131 165.24V145.21L98.0003 126.09Z" fill="#E9EBEE"/>
<path d="M0 47.1097L2.12122 65.456L32.9935 86.257L36.0023 84.6786V64.9233L2.55004 45.6599L0 47.1097Z" fill="#DADCDE"/>
<path d="M0.000274658 47.1096V67.3995L33.0002 86.2597V66.2296L0.000274658 47.1096Z" fill="#E9EBEE"/>
<path d="M38 68.8497L40.1212 87.196L70.9935 107.997L74.0023 106.419V86.6633L40.55 67.3999L38 68.8497Z" fill="#CBCFD5"/>
<path d="M38.0003 68.8496V89.1395L71.0002 108V87.9696L38.0003 68.8496Z" fill="#DCDEE1"/>
<path d="M76 90.5499L78.1212 108.896L108.993 129.697L112.002 128.119V108.363L78.55 89.1001L76 90.5499Z" fill="#DADCDE"/>
<path d="M76.0003 90.5499V110.84L109 129.7V109.67L76.0003 90.5499Z" fill="#E9EBEE"/>
<path d="M22 36.8497L24.1212 55.196L54.9935 75.997L58.0023 74.4186V54.6633L24.55 35.3999L22 36.8497Z" fill="#DADCDE"/>
<path d="M22.0003 36.8496V57.1395L55.0002 75.9997V55.9696L22.0003 36.8496Z" fill="#E9EBEE"/>
<path d="M60 58.5499L62.1212 76.8962L92.9935 97.6972L96.0023 96.1188V76.3635L62.55 57.1001L60 58.5499Z" fill="#CBCFD5"/>
<path d="M60.0003 58.5498V78.8397L93.0002 97.6999V77.6698L60.0003 58.5498Z" fill="#DCDEE1"/>
<path d="M98 80.3497L100.121 98.696L130.993 119.497L134.002 117.919V98.1633L100.55 78.8999L98 80.3497Z" fill="#DADCDE"/>
<path d="M98.0003 80.3496V100.64L131 119.5V99.4696L98.0003 80.3496Z" fill="#E9EBEE"/>
<path d="M0 1.64971L2.12122 19.9961L32.9935 40.7971L36.0023 39.2186V19.4633L2.55004 0.199951L0 1.64971Z" fill="#DADCDE"/>
<path d="M0.000274658 1.64966V21.9396L33.0002 40.7997V20.7697L0.000274658 1.64966Z" fill="#E9EBEE"/>
<path d="M38 23.3897L40.1212 41.736L70.9935 62.537L74.0023 60.9586V41.2033L40.55 21.9399L38 23.3897Z" fill="#CBCFD5"/>
<path d="M38.0003 23.3896V43.6795L71.0002 62.5397V42.5096L38.0003 23.3896Z" fill="#DCDEE1"/>
<path d="M76 45.0899L78.1212 63.4362L108.993 84.2372L112.002 82.6588V62.9035L78.55 43.6401L76 45.0899Z" fill="#DADCDE"/>
<path d="M76.0003 45.0898V65.3797L109 84.2399V64.2098L76.0003 45.0898Z" fill="#E9EBEE"/>
<path d="M14.9189 268.398L151.719 277.598C151.719 277.598 151.719 280.298 151.719 280.898C151.719 281.598 151.319 282.198 150.819 282.498L94.2189 315.198C92.8189 315.998 90.3189 315.898 88.7189 314.998L16.4189 273.298C15.6189 272.998 15.1189 272.198 15.0189 271.298C14.9189 270.798 14.9189 268.398 14.9189 268.398Z" fill="#CBCFD5"/>
<path d="M15.8189 267.498L72.4189 234.798C73.8189 233.998 76.3189 234.098 77.9189 234.998L150.219 276.698C151.819 277.598 152.019 279.098 150.619 279.898L94.0189 312.598C92.6189 313.398 90.1189 313.298 88.5189 312.398L16.2189 270.698C14.6189 269.698 14.4189 268.298 15.8189 267.498Z" fill="#EAEEF3"/>
<path d="M22.8863 268.202L74.3863 238.502C75.6863 237.802 77.9863 237.802 79.3863 238.702L143.086 275.202C144.586 276.102 144.786 277.402 143.486 278.102L91.3863 307.802C90.0863 308.502 87.7863 308.502 86.3863 307.602L23.3863 271.102C21.6863 270.202 21.5863 268.902 22.8863 268.202Z" fill="white"/>
<path d="M205.199 257.471L289.656 306.762L260.351 323.875L175.748 274.482L205.199 257.471Z" fill="url(#paint0_linear_7126_199574)" fill-opacity="0.1"/>
<path opacity="0.48" d="M202.6 255.2C203.1 255.9 203.8 256.5 204.5 257C205.1 257.4 205.7 257.5 206.4 257.4L251.4 249.4C251.6 249.4 251.8 249.3 252 249.2C252.7 248.7 253.1 247.8 253 247V147C253 145.8 252.6 144.6 252 143.6C251.6 142.8 251 142.2 250.3 141.6L205.3 103.6C205.1 103.4 204.8 103.2 204.5 103C204.3 102.9 204 102.7 203.7 102.7L158.7 88.7001C158.2 88.5001 157.5 88.5001 157 88.8001C156.3 89.3001 155.9 90.1001 155.9 91.0001V191C155.9 192.2 156.3 193.4 156.9 194.4C157.1 194.7 157.3 195 157.5 195.2L202.6 255.2Z" fill="#6B9DE3"/>
<path opacity="0.48" d="M252 143.6C251.6 142.8 251 142.2 250.3 141.6L205.3 103.6C205.1 103.4 204.8 103.2 204.5 103C204.3 102.9 204 102.7 203.7 102.7L158.7 88.7001C158.2 88.5001 157.5 88.5001 157 88.8001L134.5 101.8C133.8 102.3 133.4 103.2 133.5 104V204C133.5 205.2 133.9 206.4 134.5 207.4C134.7 207.7 134.8 208 135.1 208.2L180.1 268.2C180.6 268.9 181.2 269.5 182 270C182.6 270.4 183.2 270.5 183.9 270.4L228.9 262.4C229.1 262.4 229.3 262.3 229.5 262.2L252 249.2C252.7 248.7 253.1 247.8 253 247V147C252.9 145.8 252.6 144.6 252 143.6Z" fill="#6B9DE3"/>
<path d="M229.5 156.6C230.1 157.6 230.5 158.8 230.5 160V260C230.6 260.9 230.2 261.7 229.5 262.2L222.6 266.2V160.6L220.9 158.6L227.8 154.6L229.5 156.6Z" fill="#347BE9"/>
<path d="M222.6 160.6L229.5 156.6C229.1 155.8 228.5 155.2 227.8 154.6L182.8 116.6C182.5 116.4 182.3 116.2 182 116C181.8 115.9 181.5 115.7 181.2 115.7L136.2 101.7C135.7 101.5 135 101.5 134.5 101.8L127.6 105.8L222.6 160.6Z" fill="#428BF0"/>
<path d="M173.2 272.3C173.7 273 174.3 273.6 175.1 274.1C175.7 274.5 176.3 274.6 177 274.5L222 266.5C222.2 266.5 222.4 266.4 222.6 266.3C223.3 265.8 223.7 264.9 223.6 264.1V164C223.6 162.8 223.2 161.6 222.6 160.6C222.2 159.8 221.6 159.2 220.9 158.6L175.9 120.6C175.7 120.4 175.4 120.2 175.1 120C174.9 119.9 174.6 119.7 174.3 119.7L129.3 105.7C128.8 105.5 128.1 105.5 127.6 105.8C126.9 106.3 126.5 107.2 126.6 108V208C126.6 209.2 127 210.4 127.6 211.4C127.8 211.7 127.9 212 128.2 212.2L173.2 272.3Z" fill="#0367E4"/>
<path fill-rule="evenodd" clip-rule="evenodd" d="M177 255.693C176.39 255.311 175.932 254.853 175.551 254.318L139.232 206.427C139.067 206.317 138.981 206.168 138.889 206.007C138.854 205.945 138.817 205.881 138.774 205.816C138.317 205.053 138.012 204.137 138.012 203.22V126.863C137.935 126.252 138.24 125.565 138.774 125.183C139.156 124.954 139.689 124.954 140.071 125.106L174.39 135.796C174.576 135.796 174.762 135.898 174.907 135.976C174.941 135.994 174.972 136.011 175 136.026C175.229 136.178 175.458 136.331 175.61 136.484L212.929 167.5C213.463 167.958 213.921 168.416 214.226 169.027C214.683 169.79 214.988 170.707 214.988 171.623V248.057C215.065 248.668 214.76 249.355 214.226 249.737C214.073 249.813 213.921 249.889 213.768 249.889L178.449 255.998C177.915 256.074 177.458 255.998 177 255.693Z" stroke="#428BF0" stroke-width="2"/>
<path d="M158.918 187.336L167.999 204.502L195.244 184.343" stroke="white" stroke-width="6" stroke-miterlimit="10" stroke-linecap="round" stroke-linejoin="round"/>
<path d="M51.5258 208.036C51.5258 203.066 51.5194 195.98 51.5129 189.925C51.5102 187.407 51.5075 185.068 51.5053 183.133C51.5029 180.99 51.501 179.343 51.5003 178.5H89.4999L89.4999 179.06L89.4995 181.9L89.4984 190.882C89.4977 197.657 89.4969 205.1 89.4969 207.775C89.4969 209.58 88.8157 211.957 87.624 214.543C86.4372 217.118 84.7646 219.856 82.8296 222.374C80.8938 224.892 78.7063 227.174 76.4958 228.847C74.2805 230.522 72.0909 231.549 70.1373 231.645C68.3122 231.641 66.2341 230.664 64.1055 228.995C61.9843 227.332 59.8734 225.029 57.9995 222.489C56.1268 219.95 54.5025 217.192 53.3484 214.63C52.1885 212.055 51.5258 209.727 51.5258 208.036Z" fill="#F9A000" stroke="#F9A000"/>
<path opacity="0.2" d="M56.7086 248.214C64.3201 243.861 76.6799 243.861 84.2914 248.214C91.9029 252.568 91.9029 259.616 84.2914 263.97C76.6799 268.323 64.3201 268.323 56.7086 263.97C49.0971 259.616 49.0971 252.568 56.7086 248.214Z" fill="#FBC666"/>
<path d="M72.4866 250.628C67.9607 250.001 63.4473 251.884 62.4429 254.778C61.4386 257.671 64.232 260.572 68.7579 261.199C73.2838 261.827 77.7972 259.944 78.8015 257.05C79.8059 254.156 77.0313 251.256 72.4866 250.628ZM73.9994 256.385C73.8801 256.73 74.2128 257.069 74.7464 257.138L76.6296 257.395C75.6001 259.071 72.995 260.145 70.2079 260.044L70.6285 258.852C70.7478 258.506 70.4151 258.167 69.8878 258.092C69.6637 258.04 69.4289 258.059 69.2162 258.147C69.0035 258.235 68.8235 258.387 68.7014 258.582L68.2431 259.774C65.6444 259.147 64.006 257.471 64.2006 255.675L66.0838 255.933C66.3072 255.985 66.5416 255.967 66.7542 255.881C66.9668 255.794 67.1472 255.643 67.2702 255.449C67.3894 255.104 67.0567 254.765 66.5232 254.69L64.6714 254.432C65.7008 252.756 68.3059 251.683 71.093 251.79L70.6724 252.982C70.5469 253.321 70.8859 253.66 71.4132 253.736C71.6373 253.79 71.8728 253.771 72.0859 253.683C72.299 253.596 72.4788 253.442 72.5996 253.246L73.0201 252.053C75.6127 252.681 77.2573 254.363 77.0627 256.152L75.2109 255.895C74.9832 255.837 74.7429 255.853 74.525 255.942C74.3071 256.03 74.123 256.185 73.9994 256.385Z" fill="#FBC666"/>
<path opacity="0.2" d="M90 178C90 178 90 253.5 90 256C90.0696 258.927 88.1196 261.867 84.2196 264.097C76.6286 268.488 64.3018 268.488 56.7107 264.097C54.6214 262.912 51 259.972 51 256C51 253.282 51 178 51 178H90Z" fill="#FBC666"/>
<path d="M51.1116 176.646C49.9696 182.924 57.7232 188.598 68.411 189.334C79.0987 190.071 88.746 185.49 89.888 179.212C91.03 172.933 83.3112 167.329 72.5553 166.628C61.7994 165.927 52.2535 170.368 51.1116 176.646Z" fill="#FFD251"/>
<path d="M70.9198 176.714L89.544 180.523C89.544 180.523 88.2742 183.91 84.4647 186.026C80.6552 188.142 75.9992 188.989 75.9992 188.989L69.2267 179.677L70.9198 176.714Z" fill="url(#paint1_linear_7126_199574)" fill-opacity="0.1"/>
<path d="M76.5129 177.988L88.6946 170.99C90.4311 169.922 90.4311 166.582 88.6946 163.51L56.6361 144.809C55.3264 145.37 51.4491 146.069 51.3645 147.694C51.3645 151.558 66.1337 168.86 68.791 173.496C72.3982 175.866 70.3279 181.042 76.5129 177.988Z" fill="#FFD251"/>
<path d="M71.6972 179.864L84.0194 172.86C85.7559 171.792 85.7559 168.452 84.0194 165.38L51.961 146.679C50.2245 147.748 50.2245 151.087 51.961 154.159L64.2847 175.66C64.1164 176.901 68.2573 177.936 71.6972 179.864Z" fill="#FBB900"/>
<path d="M64.1427 177.988L51.961 170.99C50.2245 169.922 50.2245 166.582 51.961 163.51L84.0195 144.809C84.198 144.886 84.5029 144.986 84.8787 145.111C86.4717 145.637 89.544 146.492 89.544 147.931C89.544 152.505 64.1427 177.56 64.1427 177.988Z" fill="#FFD251"/>
<path d="M70 180L56.6362 172.86C54.8997 171.792 54.8997 168.452 56.6362 165.38L88.6947 146.679C90.4312 147.748 90.4312 151.087 88.6947 154.159L76.3709 175.66C74.4078 177.027 75.5103 178.072 70 180Z" fill="#F9A000"/>
<path d="M76.5127 177.988L88.6944 170.99C90.4309 169.921 90.4309 166.582 88.6944 163.51L72.4313 154.159L70 157.59C70 157.59 72.0211 174.819 71.9135 178.274C71.9135 178.274 75.4471 178.482 76.5127 177.988Z" fill="#FFD251"/>
<path d="M71.6972 179.864L84.0194 172.86C85.7559 171.791 85.7559 168.452 84.0194 165.379L70 157.58V180C70.7984 180.188 71.5 180 71.6972 179.864Z" fill="#FBB900"/>
<path d="M62.1902 200.311L62.1902 196.83L60.014 195.563L60.014 199.151L57.8377 197.884L57.872 194.219" stroke="white" stroke-linecap="round" stroke-linejoin="round"/>
<path d="M62.162 213.239L62.1898 215.713L57.9084 213.198" stroke="white" stroke-linecap="round" stroke-linejoin="round"/>
<path d="M61.4546 212.016L58.4738 210.265L57.8793 210.609L57.9084 213.198" stroke="white" stroke-linecap="round" stroke-linejoin="round"/>
<path d="M62.1268 207.964L62.1545 210.437L57.8732 207.923" stroke="white" stroke-linecap="round" stroke-linejoin="round"/>
<path d="M61.4194 206.741L58.4386 204.99L57.8441 205.334L57.8732 207.923" stroke="white" stroke-linecap="round" stroke-linejoin="round"/>
<path d="M62.1011 202.433L62.1288 204.907L59.2802 203.239" stroke="white" stroke-linecap="round" stroke-linejoin="round"/>
<path d="M59.2511 200.651L59.2802 203.239Z" stroke="white" stroke-linecap="round" stroke-linejoin="round"/>
<path d="M63.3209 135.737L61.3169 131" stroke="#FBC666" stroke-width="4" stroke-miterlimit="10" stroke-linecap="round" stroke-linejoin="round"/>
<path d="M47.8356 143.57L45.1 141.991" stroke="#FBC666" stroke-width="4" stroke-miterlimit="10" stroke-linecap="round" stroke-linejoin="round"/>
<path d="M90.9208 144.535L94.2 142.44" stroke="#FBC666" stroke-width="4" stroke-miterlimit="10" stroke-linecap="round" stroke-linejoin="round"/>
<path d="M76.6198 140.2L78.4416 135.646" stroke="#FBC666" stroke-width="4" stroke-miterlimit="10" stroke-linecap="round" stroke-linejoin="round"/>
<path opacity="0.2" d="M94.7086 277.98C102.32 273.627 114.68 273.627 122.291 277.98C129.903 282.334 129.903 289.382 122.291 293.736C114.68 298.089 102.32 298.089 94.7086 293.736C87.0971 289.382 87.0971 282.334 94.7086 277.98Z" fill="#FBC666"/>
<path d="M110.487 280.394C105.961 279.767 101.447 281.65 100.443 284.544C99.4386 287.437 102.232 290.338 106.758 290.965C111.284 291.593 115.797 289.71 116.802 286.816C117.806 283.922 115.031 281.022 110.487 280.394ZM111.999 286.151C111.88 286.496 112.213 286.835 112.746 286.904L114.63 287.161C113.6 288.837 110.995 289.911 108.208 289.81L108.629 288.618C108.748 288.272 108.415 287.933 107.888 287.858C107.664 287.806 107.429 287.825 107.216 287.913C107.004 288.001 106.824 288.153 106.701 288.348L106.243 289.54C103.644 288.913 102.006 287.237 102.201 285.441L104.084 285.699C104.307 285.751 104.542 285.733 104.754 285.647C104.967 285.56 105.147 285.409 105.27 285.215C105.389 284.87 105.057 284.531 104.523 284.456L102.671 284.198C103.701 282.522 106.306 281.449 109.093 281.556L108.672 282.748C108.547 283.087 108.886 283.426 109.413 283.502C109.637 283.556 109.873 283.537 110.086 283.449C110.299 283.361 110.479 283.208 110.6 283.012L111.02 281.819C113.613 282.447 115.257 284.129 115.063 285.918L113.211 285.661C112.983 285.603 112.743 285.619 112.525 285.707C112.307 285.796 112.123 285.951 111.999 286.151Z" fill="#FBC666"/>
<path d="M89.5258 260.036C89.5258 255.065 89.5194 247.979 89.5129 241.925C89.5102 239.407 89.5075 237.068 89.5053 235.133C89.5029 232.99 89.501 231.343 89.5003 230.5H127.5L127.5 231.06L127.5 233.9L127.498 242.882C127.498 249.657 127.497 257.1 127.497 259.774C127.497 261.58 126.816 263.957 125.624 266.542C124.437 269.118 122.765 271.856 120.83 274.373C118.894 276.892 116.706 279.174 114.496 280.846C112.281 282.522 110.091 283.549 108.137 283.645C106.312 283.64 104.234 282.664 102.105 280.995C99.9843 279.332 97.8734 277.028 95.9995 274.488C94.1268 271.95 92.5025 269.192 91.3484 266.629C90.1885 264.054 89.5258 261.727 89.5258 260.036Z" fill="#F9A000" stroke="#F9A000"/>
<path opacity="0.2" d="M128 230C128 230 127.988 285 128 285.5C128.07 288.427 126.12 291.581 122.22 293.811C114.629 298.202 102.302 298.202 94.7107 293.811C92.6214 292.626 89 289.839 89 285.866C89 283.148 89 230 89 230H128Z" fill="#FBC666"/>
<path d="M89.1116 228.646C87.9696 234.924 95.7232 240.598 106.411 241.334C117.099 242.071 126.746 237.49 127.888 231.212C129.03 224.933 121.311 219.329 110.555 218.628C99.7994 217.927 90.2535 222.368 89.1116 228.646Z" fill="#FFD251"/>
<path d="M108.92 228.714L127.544 232.523C127.544 232.523 126.274 235.91 122.465 238.026C118.655 240.142 113.999 240.989 113.999 240.989L107.227 231.677L108.92 228.714Z" fill="url(#paint2_linear_7126_199574)" fill-opacity="0.1"/>
<path d="M114.513 229.988L126.695 222.99C128.431 221.921 128.431 218.582 126.695 215.51L94.6361 196.809C93.3264 197.37 89.4491 198.069 89.3645 199.694C89.3645 203.558 104.134 220.86 106.791 225.496C110.398 227.866 108.328 233.042 114.513 229.988Z" fill="#FFD251"/>
<path d="M109.697 231.864L122.019 224.86C123.756 223.792 123.756 220.452 122.019 217.38L89.961 198.679C88.2245 199.748 88.2245 203.087 89.961 206.159L102.285 227.66C102.116 228.901 106.257 229.936 109.697 231.864Z" fill="#FBB900"/>
<path d="M102.143 229.988L89.961 222.99C88.2245 221.921 88.2245 218.582 89.961 215.51L122.019 196.809C122.198 196.885 122.503 196.986 122.879 197.11C124.472 197.637 127.544 198.492 127.544 199.931C127.544 204.505 102.143 229.56 102.143 229.988Z" fill="#FFD251"/>
<path d="M108 232.14L94.6362 224.86C92.8997 223.792 92.8997 220.452 94.6362 217.38L126.695 198.679C128.431 199.748 128.431 203.087 126.695 206.159L114.371 227.66C112.408 229.027 113.51 230.212 108 232.14Z" fill="#F9A000"/>
<path d="M114.513 229.988L126.694 222.99C128.431 221.921 128.431 218.582 126.694 215.51L110.431 206.159C110.253 206.236 108 209.5 108 209.5C108 209.5 110.021 226.819 109.914 230.274C109.914 230.274 113.447 230.482 114.513 229.988Z" fill="#FFD251"/>
<path d="M109.697 231.864L122.019 224.86C123.756 223.791 123.756 220.452 122.019 217.379L108 209.578V232.141C108.798 232.328 109.156 232.141 109.697 231.864Z" fill="#FBB900"/>
<path d="M100.19 252.311L100.19 248.83L98.014 247.563L98.014 251.151L95.8377 249.884L95.872 246.219" stroke="white" stroke-linecap="round" stroke-linejoin="round"/>
<path d="M100.162 265.239L100.19 267.713L95.9084 265.198" stroke="white" stroke-linecap="round" stroke-linejoin="round"/>
<path d="M99.4546 264.016L96.4738 262.265L95.8793 262.609L95.9084 265.198" stroke="white" stroke-linecap="round" stroke-linejoin="round"/>
<path d="M100.127 259.964L100.155 262.437L95.8732 259.923" stroke="white" stroke-linecap="round" stroke-linejoin="round"/>
<path d="M99.4194 258.741L96.4386 256.99L95.8441 257.334L95.8732 259.923" stroke="white" stroke-linecap="round" stroke-linejoin="round"/>
<path d="M100.101 254.434L100.129 256.907L97.2802 255.24" stroke="white" stroke-linecap="round" stroke-linejoin="round"/>
<path d="M97.2512 252.651L97.2802 255.24Z" stroke="white" stroke-linecap="round" stroke-linejoin="round"/>
<path d="M101.321 187.737L99.3169 183" stroke="#FBC666" stroke-width="4" stroke-miterlimit="10" stroke-linecap="round" stroke-linejoin="round"/>
<path d="M85.8356 195.57L83.1 193.991" stroke="#FBC666" stroke-width="4" stroke-miterlimit="10" stroke-linecap="round" stroke-linejoin="round"/>
<path d="M128.921 196.535L132.2 194.44" stroke="#FBC666" stroke-width="4" stroke-miterlimit="10" stroke-linecap="round" stroke-linejoin="round"/>
<path d="M114.62 192.2L116.442 187.646" stroke="#FBC666" stroke-width="4" stroke-miterlimit="10" stroke-linecap="round" stroke-linejoin="round"/>
<path d="M182.958 295.924C182.958 295.924 182.958 298.024 182.958 298.624C182.958 299.424 182.358 300.324 181.158 300.924L148.358 319.724C146.258 320.924 142.958 321.124 141.158 320.024L124.358 310.424C123.658 310.124 123.158 309.324 123.158 308.524C123.158 307.724 123.158 305.924 123.158 305.924L182.958 295.924Z" fill="#CBCFD5"/>
<path d="M164.958 285.124L181.758 294.724C183.658 295.824 183.358 297.624 181.258 298.824L148.458 317.624C146.358 318.824 143.058 319.024 141.258 317.924L124.458 308.324C122.658 307.224 122.858 305.424 124.958 304.224L157.758 285.424C159.858 284.224 163.058 284.124 164.958 285.124Z" fill="#E9EBEE"/>
<path d="M162.358 287.824L177.158 296.324C178.758 297.224 178.558 298.924 176.658 300.024L150.358 315.324C148.458 316.424 145.558 316.524 143.958 315.624L129.158 307.124C127.558 306.224 127.758 304.524 129.658 303.424L155.958 288.124C157.858 287.024 160.658 286.924 162.358 287.824Z" fill="#393E41"/>
<path d="M152.058 295.224C152.058 295.224 150.358 296.024 148.058 297.224C146.658 297.924 146.758 299.924 146.758 301.924C146.758 303.024 147.058 304.224 147.458 305.324C149.258 305.724 151.058 305.924 152.858 306.024C154.958 305.924 156.458 306.024 157.558 305.324C159.358 304.224 162.958 301.924 162.958 301.924L159.558 296.524L152.058 295.224Z" fill="white"/>
<path d="M156.758 301.924H151.358C150.958 301.924 150.658 301.624 150.658 301.224V299.224C150.658 298.824 150.958 298.524 151.358 298.524C151.758 298.524 152.058 298.824 152.058 299.224V300.524H156.758C157.158 300.524 157.458 300.824 157.458 301.224C157.458 301.624 157.158 301.924 156.758 301.924Z" fill="#393E41"/>
<path d="M262 258L376.304 324V217L262 150V258Z" fill="#E9EBEE"/>
<path d="M273.029 220.3V181L364.272 234.5V273L273.029 220.3ZM281.051 238.1C285.462 240.7 289.072 247 289.072 252.2C289.072 257.4 285.462 259.5 281.051 256.9C276.639 254.3 273.029 248 273.029 242.8C273.029 237.6 276.639 235.5 281.051 238.1ZM281.051 254.1C284.159 255.9 286.666 254.4 286.666 250.8C286.465 246.8 284.359 243.2 281.051 240.9C277.942 239.1 275.436 240.6 275.436 244.2C275.636 248.2 277.742 251.8 281.051 254.1ZM301.906 261L291.278 255V253L301.906 259V261ZM315.141 256.1C319.553 258.7 323.163 265 323.163 270.2C323.163 275.4 319.553 277.5 315.141 274.9C310.73 272.3 307.12 266 307.12 260.8C307.12 255.6 310.73 253.5 315.141 256.1ZM315.141 272.1C318.25 273.9 320.756 272.4 320.756 268.8C320.556 264.8 318.45 261.2 315.141 258.9C312.033 257.1 309.526 258.6 309.526 262.2C309.727 266.2 311.833 269.8 315.141 272.1ZM335.997 279L325.369 273V271L335.997 277V279ZM351.237 275.1C355.649 277.7 359.259 284 359.259 289.2C359.259 294.4 355.649 296.5 351.237 293.9C346.826 291.3 343.216 285 343.216 279.8C343.216 274.6 346.826 272.5 351.237 275.1ZM351.237 291.1C354.346 292.9 356.852 291.4 356.852 287.8C356.652 283.8 354.546 280.2 351.237 277.9C348.129 276.1 345.622 277.6 345.622 281.2C345.823 285.2 347.929 288.8 351.237 291.1Z" fill="white"/>
<path d="M347.373 236.273C346.853 235.973 346.48 236.22 346.49 236.803L346.486 255.842C346.497 256.425 346.817 257.071 347.337 257.371C347.857 257.67 348.23 257.424 348.219 256.841L348.223 237.801C348.213 237.218 347.893 236.572 347.373 236.273Z" fill="#CBCFD5"/>
<path d="M330.913 232.792C330.902 232.209 331.275 231.962 331.795 232.262C332.315 232.561 332.635 233.208 332.646 233.791L332.672 247.769C332.682 248.352 332.309 248.599 331.789 248.3C331.269 248 330.949 247.354 330.939 246.771L330.913 232.792Z" fill="#CBCFD5"/>
<path d="M320.495 221.829C320.484 221.246 320.857 220.999 321.377 221.298C321.897 221.598 322.217 222.244 322.228 222.827L322.224 241.866C322.234 242.449 321.861 242.696 321.341 242.397C320.821 242.097 320.501 241.451 320.491 240.868L320.495 221.829Z" fill="#CBCFD5"/>
<path d="M305.373 212.273C304.853 211.973 304.48 212.22 304.49 212.803L304.486 231.842C304.497 232.425 304.817 233.071 305.337 233.371C305.857 233.67 306.23 233.424 306.219 232.841L306.223 213.801C306.213 213.218 305.893 212.572 305.373 212.273Z" fill="#CBCFD5"/>
<path d="M294.082 216.848C294.072 216.265 294.445 216.018 294.964 216.317C295.484 216.617 295.805 217.263 295.815 217.846L295.821 226.851C295.831 227.434 295.458 227.681 294.939 227.381C294.419 227.082 294.098 226.436 294.088 225.853L294.082 216.848Z" fill="#CBCFD5"/>
<path d="M341.281 243.842C341.271 243.259 341.644 243.013 342.164 243.312C342.684 243.612 343.004 244.258 343.014 244.841L343.02 253.846C343.031 254.429 342.658 254.676 342.138 254.376C341.618 254.077 341.298 253.43 341.287 252.847L341.281 243.842Z" fill="#E9EBEE"/>
<path d="M336.082 240.848C336.072 240.265 336.445 240.018 336.964 240.317C337.484 240.617 337.805 241.263 337.815 241.846L337.821 250.851C337.831 251.434 337.458 251.681 336.939 251.381C336.419 251.082 336.098 250.436 336.088 249.853L336.082 240.848Z" fill="#E9EBEE"/>
<path d="M310.086 225.873C310.076 225.29 310.449 225.044 310.969 225.343C311.489 225.643 311.809 226.289 311.819 226.872L311.825 235.877C311.836 236.46 311.463 236.706 310.943 236.407C310.423 236.107 310.103 235.461 310.092 234.878L310.086 225.873Z" fill="#E9EBEE"/>
<path d="M326.556 219.319C326.036 219.02 325.663 219.267 325.674 219.85L325.69 243.863C325.7 244.446 326.02 245.092 326.54 245.392C327.06 245.691 327.433 245.444 327.423 244.861L327.407 220.848C327.396 220.265 327.076 219.619 326.556 219.319Z" fill="#E9EBEE"/>
<path d="M316.178 218.304C315.658 218.004 315.285 218.251 315.295 218.834L315.292 237.873C315.302 238.456 315.622 239.102 316.142 239.402C316.662 239.701 317.035 239.455 317.025 238.872L317.028 219.832C317.018 219.249 316.698 218.603 316.178 218.304Z" fill="#E9EBEE"/>
<path d="M299.281 219.843C299.271 219.26 299.644 219.013 300.164 219.312C300.684 219.612 301.004 220.258 301.014 220.841L301.02 229.846C301.031 230.429 300.658 230.676 300.138 230.376C299.618 230.077 299.298 229.431 299.287 228.848L299.281 219.843Z" fill="#E9EBEE"/>
<path d="M288.913 208.792C288.902 208.209 289.275 207.963 289.795 208.262C290.315 208.561 290.635 209.208 290.646 209.791L290.672 223.769C290.682 224.352 290.309 224.599 289.789 224.3C289.269 224 288.949 223.354 288.939 222.771L288.913 208.792Z" fill="#E9EBEE"/>
<path d="M281.051 238.1C285.462 240.7 289.072 247 289.072 252.2C289.072 257.4 285.462 259.5 281.051 256.9C276.639 254.3 273.029 248 273.029 242.8C273.029 237.6 276.639 235.5 281.051 238.1ZM281.051 254.1C284.159 255.9 286.666 254.4 286.666 250.8C286.465 246.8 284.359 243.2 281.051 240.9C277.942 239.1 275.436 240.6 275.436 244.2C275.636 248.2 277.742 251.8 281.051 254.1ZM315.141 256.1C319.553 258.7 323.163 265 323.163 270.2C323.163 275.4 319.553 277.5 315.141 274.9C310.73 272.3 307.12 266 307.12 260.8C307.12 255.6 310.73 253.5 315.141 256.1ZM315.141 272.1C318.25 273.9 320.756 272.4 320.756 268.8C320.556 264.8 318.45 261.2 315.141 258.9C312.033 257.1 309.526 258.6 309.526 262.2C309.727 266.2 311.833 269.8 315.141 272.1ZM351.237 275.1C355.649 277.7 359.259 284 359.259 289.2C359.259 294.4 355.649 296.5 351.237 293.9C346.826 291.3 343.216 285 343.216 279.8C343.216 274.6 346.826 272.5 351.237 275.1ZM351.237 291.1C354.346 292.9 356.852 291.4 356.852 287.8C356.652 283.8 354.546 280.2 351.237 277.9C348.129 276.1 345.622 277.6 345.622 281.2C345.823 285.2 347.929 288.8 351.237 291.1Z" fill="white"/>
<path d="M262 163L376.304 229V216L262 149V163Z" fill="#CBCFD5"/>
<path d="M281.351 241.1C281.251 241 281.151 241 281.051 240.9C277.942 239.1 275.436 240.6 275.436 244.2C275.636 248.2 277.742 251.8 281.051 254.1C281.953 254.7 283.056 255 284.159 254.8L285.362 257.9C283.858 258 282.354 257.7 281.051 256.9C276.639 254.3 273.029 248 273.029 242.8C273.029 237.6 276.639 235.5 281.051 238.1C281.151 238.2 281.251 238.2 281.351 238.3V241.1Z" fill="#35B65E"/>
<path d="M315.442 259.1C315.342 259 315.242 259 315.141 258.9C312.033 257.1 309.526 258.6 309.526 262.2C309.727 266.2 311.833 269.8 315.141 272.1C318.25 273.9 320.756 272.4 320.756 268.8C320.756 267.3 320.355 265.8 319.754 264.5L321.659 264C322.561 266 323.062 268.1 323.163 270.3C323.163 275.5 319.553 277.6 315.141 275C310.73 272.4 307.12 266.1 307.12 260.9C307.12 255.7 310.73 253.6 315.141 256.2C315.242 256.3 315.342 256.3 315.442 256.4V259.1Z" fill="#393E41"/>
<path d="M351.538 278.1C351.438 278 351.338 278 351.237 277.9C348.129 276.1 345.622 277.6 345.622 281.2C345.823 285.2 347.929 288.8 351.237 291.1C352.14 291.7 353.243 292 354.346 291.8L355.549 294.9C354.045 295 352.541 294.7 351.237 293.9C346.826 291.3 343.216 285 343.216 279.8C343.216 274.6 346.826 272.5 351.237 275.1C351.338 275.2 351.438 275.2 351.538 275.3V278.1Z" fill="#35B65E"/>
<path d="M268.6 160C268.6 161.1 267.8 161.6 266.9 161C265.9 160.3 265.2 159.2 265.2 158C265.2 156.9 266 156.4 266.9 157C267.9 157.7 268.5 158.8 268.6 160Z" fill="white"/>
<path d="M275.5 164C275.5 165.1 274.7 165.6 273.8 165C272.8 164.3 272.1 163.2 272.1 162C272.1 160.9 272.9 160.4 273.8 161C274.8 161.7 275.5 162.8 275.5 164Z" fill="white"/>
<path d="M282.5 168C282.5 169.1 281.7 169.6 280.8 169C279.8 168.3 279.1 167.2 279.1 166C279.1 164.9 279.9 164.4 280.8 165C281.8 165.7 282.4 166.8 282.5 168Z" fill="white"/>
</g>
<defs>
<linearGradient id="paint0_linear_7126_199574" x1="183.334" y1="278.953" x2="227.94" y2="356.186" gradientUnits="userSpaceOnUse">
<stop/>
<stop offset="0.894792" stop-opacity="0"/>
</linearGradient>
<linearGradient id="paint1_linear_7126_199574" x1="68.7762" y1="179.731" x2="80.5764" y2="200.162" gradientUnits="userSpaceOnUse">
<stop/>
<stop offset="0.894792" stop-opacity="0"/>
</linearGradient>
<linearGradient id="paint2_linear_7126_199574" x1="106.776" y1="231.731" x2="118.576" y2="252.162" gradientUnits="userSpaceOnUse">
<stop/>
<stop offset="0.894792" stop-opacity="0"/>
</linearGradient>
<clipPath id="clip0_7126_199574">
<rect width="376" height="324" fill="white"/>
</clipPath>
</defs>
</svg>
