<svg id="Capa_1" enable-background="new 0 0 512 512" height="512" viewBox="0 0 512 512" width="512" xmlns="http://www.w3.org/2000/svg">
	<path d="m256 60.671c-68.383 0-123.819 55.436-123.819 123.819 0 68.384 55.436 123.819 123.819 123.819s123.819-55.436 123.819-123.819-55.436-123.819-123.819-123.819zm0 138.82c-8.284 0-15-6.716-15-15s6.716-15 15-15 15 6.716 15 15-6.716 15-15 15z" fill="#d5f1fe"/>
	<path d="m256 60.671c-6.81 0-13.489.559-20 1.616 58.872 9.562 103.819 60.63 103.819 122.203 0 61.574-44.947 112.641-103.819 122.203 6.511 1.058 13.19 1.616 20 1.616 68.383 0 123.819-55.436 123.819-123.819s-55.436-123.819-123.819-123.819z" fill="#b4e7fd"/>
	<path d="m256 144.491c-22.091 0-40 17.909-40 40s17.909 40 40 40 40-17.909 40-40-17.909-40-40-40zm0 55c-8.284 0-15-6.716-15-15s6.716-15 15-15 15 6.716 15 15-6.716 15-15 15z" fill="#b7afb9"/>
	<path d="m256 144.491c-5.306 0-10.367 1.042-15 2.919 10.772 4.362 19.205 13.276 22.922 24.361 4.244 2.649 7.078 7.348 7.078 12.721 0 5.372-2.833 10.071-7.078 12.72-3.717 11.085-12.15 19.999-22.922 24.361 4.633 1.876 9.694 2.919 15 2.919 22.091 0 40-17.909 40-40s-17.909-40.001-40-40.001z" fill="#a79fa9"/>
	<path d="m217.969 196.891-79.688 25.983c5.258 16.126 13.774 31 25.018 43.699 11.244 12.698 24.978 22.952 40.349 30.124l35.44-75.958c-9.957-4.652-17.675-13.282-21.119-23.848z" fill="#b4e7fd"/>
	<path d="m471.579 293.468h-431.158c-5.523 0-10 4.477-10 10v23.543h451.157v-23.543c.001-5.523-4.476-10-9.999-10z" fill="#e5646e"/>
	<path d="m471.579 293.468h-40c5.523 0 10 4.477 10 10v23.542h40v-23.542c0-5.523-4.477-10-10-10z" fill="#e04955"/>
	<path d="m122.915 451.328h-82.471c-5.523 0-10-4.477-10-10v-25.464h102.471v25.464c0 5.523-4.477 10-10 10z" fill="#887f89"/>
	<path d="m92.915 415.864v25.464c0 5.523-4.477 10-10 10h40c5.523 0 10-4.477 10-10v-25.464z" fill="#777078"/>
	<path d="m471.556 451.328h-82.471c-5.523 0-10-4.477-10-10v-25.464h102.471v25.464c0 5.523-4.477 10-10 10z" fill="#887f89"/>
	<path d="m441.557 415.864v25.464c0 5.523-4.477 10-10 10h40c5.523 0 10-4.477 10-10v-25.464z" fill="#777078"/>
	<path d="m502 421.871h-492c-5.523 0-10-4.477-10-10v-80c0-5.523 4.477-10 10-10h492c5.523 0 10 4.477 10 10v80c0 5.523-4.477 10-10 10z" fill="#e5e2e6"/>
	<path d="m502 321.871h-40c5.523 0 10 4.477 10 10v80c0 5.523-4.477 10-10 10h40c5.523 0 10-4.477 10-10v-80c0-5.523-4.477-10-10-10z" fill="#d6d1d7"/>
	<path d="m260.466 389.371h-220c-5.523 0-10-4.477-10-10v-15c0-5.523 4.477-10 10-10h220c5.523 0 10 4.477 10 10v15c0 5.523-4.477 10-10 10z" fill="#e5646e"/>
	<path d="m260.466 354.371h-40c5.523 0 10 4.477 10 10v15c0 5.523-4.477 10-10 10h40c5.523 0 10-4.477 10-10v-15c0-5.523-4.477-10-10-10z" fill="#e04955"/>
	<circle cx="461.534" cy="371.871" fill="#82cd64" r="20"/>
	<path d="m461.534 351.871c-2.654 0-5.182.528-7.5 1.467 7.327 2.968 12.5 10.141 12.5 18.533 0 8.391-5.173 15.564-12.5 18.532 2.318.939 4.846 1.468 7.5 1.468 11.046 0 20-8.955 20-20 0-11.046-8.954-20-20-20z" fill="#6dc54a"/>
	<circle cx="391.534" cy="371.871" fill="#e5646e" r="20"/>
	<path d="m391.534 351.871c-2.654 0-5.182.528-7.5 1.467 7.327 2.968 12.5 10.141 12.5 18.533 0 8.391-5.173 15.564-12.5 18.532 2.318.939 4.846 1.468 7.5 1.468 11.046 0 20-8.955 20-20 0-11.046-8.954-20-20-20z" fill="#e04955"/>
</svg>
