<?xml version="1.0" encoding="UTF-8" standalone="no"?>
<!-- Created with Inkscape (http://www.inkscape.org/) -->
<svg xmlns:dc="http://purl.org/dc/elements/1.1/" xmlns:cc="http://creativecommons.org/ns#" xmlns:rdf="http://www.w3.org/1999/02/22-rdf-syntax-ns#" xmlns:svg="http://www.w3.org/2000/svg" xmlns="http://www.w3.org/2000/svg" xmlns:xlink="http://www.w3.org/1999/xlink" xmlns:sodipodi="http://sodipodi.sourceforge.net/DTD/sodipodi-0.dtd" xmlns:inkscape="http://www.inkscape.org/namespaces/inkscape" width="299.06451mm" height="128.17043mm" viewBox="0 0 299.06451 128.17043" version="1.1" id="svg8" inkscape:version="0.92.2 (5c3e80d, 2017-08-06)" sodipodi:docname="lamp-logo.svg">
  <defs id="defs2">
    <clipPath clipPathUnits="userSpaceOnUse" id="clipPath837">
      <use x="0" y="0" xlink:href="#g833" id="use839" width="100%" height="100%"/>
    </clipPath>
  </defs>
  <sodipodi:namedview id="base" pagecolor="#ffffff" bordercolor="#666666" borderopacity="1.0" inkscape:pageopacity="0.0" inkscape:pageshadow="2" inkscape:zoom="0.7" inkscape:cx="644.8634" inkscape:cy="480.5628" inkscape:document-units="mm" inkscape:current-layer="layer1" showgrid="false" inkscape:window-width="1920" inkscape:window-height="1017" inkscape:window-x="-8" inkscape:window-y="-8" inkscape:window-maximized="1" fit-margin-top="0" fit-margin-left="0" fit-margin-right="0" fit-margin-bottom="0"/>
  <metadata id="metadata5">
    <rdf:RDF>
      <cc:Work rdf:about="">
        <dc:format>image/svg+xml</dc:format>
        <dc:type rdf:resource="http://purl.org/dc/dcmitype/StillImage"/>
        <dc:title/>
      </cc:Work>
    </rdf:RDF>
  </metadata>
  <g inkscape:label="Layer 1" inkscape:groupmode="layer" id="layer1" transform="translate(25.962076,-259.34935)">
    <path style="fill:#094080;fill-opacity:1;stroke-width:0.94074523" d="m -19.109562,386.85957 c -1.146511,-0.22191 -3.157354,-1.67842 -4.46854,-3.23667 l -2.383974,-2.8332 v -20.15385 -20.15384 h 7.507252 7.507253 l 0.253895,19.99084 0.253895,19.99084 16.6982274,0.25689 16.6982266,0.2569 v 3.27089 3.27091 L 2.9658383,387.39117 c -10.9949593,-0.0705 -20.9288903,-0.30969 -22.0754003,-0.5316 z" id="path4571" inkscape:connector-curvature="0"/>
    <path id="path4567" style="fill:#094080;fill-opacity:1;stroke-width:0.94074523" d="m 68.112442,357.01225 c 0,-9.61847 -0.419224,-9.94502 -12.767256,-9.94502 h -9.810628 v 8.46671 8.46671 H 56.8235 68.112442 Z m -36.689062,6.9884 v -23.51864 l 20.93158,0.002 c 31.27133,0.002 30.962935,-0.28238 30.583334,28.2209 l -0.244302,18.34453 h -7.055589 -7.055588 l -0.270493,-8.70189 -0.270483,-8.70194 H 56.788197 45.534558 v 8.93708 8.93708 H 38.478969 31.42338 Z" inkscape:connector-curvature="0"/>
    <path id="path4563" style="fill:#094080;fill-opacity:1;stroke-width:0.94074523" d="m 197.38797,360.60739 c 1.15777,-0.44428 1.48806,-2.01034 1.48806,-7.05559 v -6.48457 h -9.87783 -9.87782 v 7.05559 7.05559 h 8.38976 c 4.61438,0 9.0594,-0.25695 9.87783,-0.57102 z m -32.65506,26.32202 c -0.36545,-0.36545 -0.66445,-10.96562 -0.66445,-23.55593 v -22.89147 h 21.21348 c 23.4335,0 25.54354,0.42561 27.67987,5.58318 0.72195,1.74293 1.033,5.4578 0.80091,9.56523 -0.3351,5.93062 -0.68364,6.97721 -2.98181,8.95402 -2.49721,2.14801 -3.18803,2.23844 -17.09961,2.23844 h -14.49727 l -0.26701,10.11301 -0.26701,10.11302 -6.62632,0.27248 c -3.64448,0.14986 -6.92533,-0.0265 -7.29078,-0.39198 z" inkscape:connector-curvature="0"/>
    <path style="fill:#094080;fill-opacity:1;stroke-width:0.94074523" d="m 222.57305,384.07619 0.29198,-3.44309 7.52596,-2.00186 c 24.26704,-6.45487 36.57159,-23.01112 34.9944,-47.08631 -0.89589,-13.67516 -5.96775,-25.18112 -16.74226,-37.98124 -5.13761,-6.10347 -18.35702,-17.73143 -19.19995,-16.8885 -0.2323,0.2323 -0.0252,2.86237 0.46012,5.84458 0.8812,5.41434 0.0645,12.98938 -1.76366,16.35958 -1.13456,2.09147 -5.68061,6.30049 -8.09685,7.49657 -1.03482,0.51226 -4.09459,1.45062 -6.7995,2.08525 -6.20157,1.45504 -11.52728,6.15331 -15.0587,13.28459 -2.56139,5.1724 -2.64794,5.24034 -5.65859,4.44164 -1.68158,-0.44611 -3.05329,-1.32817 -3.04823,-1.96014 0.0236,-2.94744 5.06376,-11.48568 9.25306,-15.67498 3.83175,-3.83176 5.85153,-5.00291 11.5661,-6.7065 7.83075,-2.33445 10.63032,-4.42512 12.16909,-9.08763 1.8144,-5.49768 -0.46953,-16.54798 -6.15233,-29.76672 l -1.56575,-3.64208 7.35115,3.96398 c 10.7444,5.79373 18.72253,12.04669 28.64953,22.45441 9.24412,9.69177 13.58826,16.06739 17.43234,25.58439 6.76957,16.75977 6.55373,32.88491 -0.63717,47.60033 -6.32836,12.95036 -17.12619,21.20295 -34.22591,26.15825 -10.96749,3.17826 -11.10098,3.1654 -10.74483,-1.03452 z" id="path4561" inkscape:connector-curvature="0"/>
    <path style="fill:#ff7f00;fill-opacity:1;stroke-width:0.94074523" d="m 91.631072,363.53027 v -23.04826 l 26.105688,0.002 c 37.12377,0.002 35.97971,-0.88774 35.98204,27.98571 l 0.001,18.1093 h -7.05559 -7.05559 v -17.91691 c 0,-17.89333 -0.003,-17.92005 -2.36985,-20.28678 -1.62466,-1.62466 -3.17769,-2.2768 -4.93891,-2.07392 l -2.56906,0.29594 -0.2539,19.99084 -0.2539,19.99083 h -7.03688 -7.03687 v -20.22651 -20.22602 h -4.70373 -4.70373 v 20.22602 20.22602 h -7.055585 -7.055593 z" id="path4559" inkscape:connector-curvature="0"/>
    <path style="fill:#ff7f00;fill-opacity:1;stroke-width:0.94074523" d="m 221.07245,369.8803 c 0.41832,-0.90546 0.92268,-6.88918 1.12081,-13.29713 0.53435,-17.28217 -2.33572,-22.95772 -12.88986,-25.48961 l -4.73458,-1.13581 1.39963,-3.43976 c 1.78467,-4.38604 7.27386,-9.55461 10.14729,-9.55461 3.40381,0 13.42809,-5.3967 16.26502,-8.75648 1.39454,-1.65156 3.47887,-5.03284 4.63184,-7.51395 l 2.0963,-4.51112 3.86958,4.51112 c 4.72074,5.50336 10.25198,15.78993 11.98,22.27945 1.69667,6.37182 1.64683,18.83256 -0.0988,24.71088 -3.08478,10.38756 -12.3225,18.24681 -25.6853,21.85248 -8.92056,2.40703 -9.05743,2.41285 -8.10189,0.34454 z" id="path850" inkscape:connector-curvature="0"/>
    <g id="g835" clip-path="url(#clipPath837)">
      <g inkscape:label="Clip" id="g833"/>
    </g>
  </g>
</svg>