<?xml version="1.0" encoding="utf-8"?>
<!-- Generator: Adobe Illustrator 23.0.3, SVG Export Plug-In . SVG Version: 6.00 Build 0)  -->
<svg version="1.1" id="Layer_1" xmlns="http://www.w3.org/2000/svg" xmlns:xlink="http://www.w3.org/1999/xlink" x="0px" y="0px"
	 viewBox="0 0 150.5 150.5" style="enable-background:new 0 0 150.5 150.5;" xml:space="preserve">
<style type="text/css">
	.st0{fill:#0D2C40;}
	.st1{fill:#73BA25;}
</style>
<path class="st0" d="M48.8,90.6l-11-1.6c-1.9-0.3-2.9-1.2-2.9-2.8c0-0.6,0.3-1.3,0.7-1.7c0.5-0.5,1.1-0.7,1.7-0.7h17.9v-6.6H37.4
	c-5.1-0.2-9.4,3.8-9.5,8.9c0,0.1,0,0.1,0,0.2c0,4.2,2.5,8.5,8.3,9.4l11,1.6c1.9,0.3,2.9,1.2,2.9,2.8c0,0.6-0.3,1.3-0.7,1.7
	c-0.5,0.5-1.1,0.7-1.7,0.7h-13c-2.6,0.1-5.4,2.1-5.4,6.1v0.6h18.4c2.5,0.1,4.9-0.8,6.7-2.6c1.8-1.7,2.8-4.1,2.9-6.6
	C57.1,95.8,54.6,91.5,48.8,90.6L48.8,90.6z M120.1,86.2V100c0.1,5.1,4.3,9.2,9.4,9.1c0.1,0,0.1,0,0.2,0H149v-0.6c0-4-2.8-6-5.4-6.1
	h-13.9c-0.6,0-1.3-0.3-1.7-0.7c-0.5-0.5-0.7-1.1-0.7-1.7c-0.1-1.5,1.1-2.7,2.5-2.8c0.1,0,0.2,0,0.3,0h6c5.3,0,8.4-3.3,9.3-7h-14.5
	c-1.5,0-2.9,0.8-3.7,2.1v-6.1c0-0.6,0.3-1.3,0.7-1.7c0.5-0.5,1.1-0.7,1.7-0.7h13.9c2.6-0.1,5.4-2.1,5.4-6.1v-0.6h-19.3
	c-5.1-0.2-9.4,3.8-9.5,8.9C120.1,86.1,120.1,86.2,120.1,86.2L120.1,86.2z M110,90.6L99,89c-1.9-0.3-2.9-1.2-2.9-2.8
	c0-0.6,0.3-1.3,0.7-1.7c0.5-0.5,1.1-0.7,1.7-0.7h17.9v-6.6H98.6c-5.1-0.2-9.4,3.8-9.5,8.9c0,0.1,0,0.1,0,0.2c0,4.2,2.5,8.5,8.3,9.4
	l11,1.6c1.9,0.3,2.9,1.2,2.9,2.8c0,0.6-0.3,1.3-0.7,1.7c-0.5,0.5-1.1,0.7-1.7,0.7H90.9v6.7h17.8c5.1,0.2,9.4-3.8,9.5-8.9
	c0-0.1,0-0.1,0-0.2C118.3,95.8,115.8,91.5,110,90.6L110,90.6z M80.1,96.1c0.1,4-3,7.3-6.9,7.4c-4,0.1-7.3-3-7.4-6.9
	c0-0.2,0-0.3,0-0.5v-19h-6.9v18.6c-0.1,5.1,2.5,9.9,7,12.5c4.4,2.6,9.9,2.6,14.3,0c4.4-2.6,7.1-7.4,7-12.5V77.1h-6.9V96.1z"/>
<path class="st1" d="M80.3,53.4c1.3,0,2.5-0.6,3.2-1.7c0.7-1.1,0.7-2.5,0.1-3.7c-0.6-1.2-1.8-1.9-3.1-1.9c-2-0.1-3.7,1.5-3.8,3.5
	c0,0,0,0,0,0C76.7,51.6,78.2,53.3,80.3,53.4C80.3,53.4,80.3,53.4,80.3,53.4L80.3,53.4z M81.1,48c0.9,0,1.6,0.5,1.6,1.1
	s-0.7,1.1-1.6,1.1s-1.6-0.5-1.6-1.1S80.2,48,81.1,48L81.1,48z M89.1,54.8c0.1-0.1,0.6-0.4,0.5-0.8c-0.5-1.6-2.1-7.1-3.4-8.5
	c-0.4-0.5-0.8-0.8-1.3-1.2c-5.1-3-17.4-4.8-17.9-4.9c0,0-0.1,0-0.1,0c0,0,0,0.1,0,0.1l0,2.8c-1.2-0.4-10.3-3.4-18.8-3.7
	c-7.2-0.3-17.1-0.6-31,8l-0.4,0.3C9.9,51,5.4,56,3,61.9c-1.2,3.2-1.5,6.6-0.8,9.9c0.5,1.8,1.2,3.5,2.3,5c2.5,3.5,6.5,5.8,10.8,6.2
	c6.2,0.6,10.8-2.2,12.5-7.4c1.3-4.4-0.5-9.1-4.4-11.5c-2.9-1.9-6.6-2-9.6-0.2c-1.9,1.2-3,3.2-3,5.4c0,3.2,2.6,5.8,5.8,5.9
	c0.8,0,1.5-0.1,2.2-0.4c0.3-0.1,0.6-0.2,0.8-0.4l0.1-0.1h0.1c0.8-0.5,1.1-1.5,0.7-2.4s-1.3-1.4-2.2-1.2h-0.1l-0.2,0.1L17.8,71
	c-0.3,0.1-0.7,0.1-1.1,0.1c-1-0.1-1.7-1-1.7-1.9c0-0.4,0.1-0.8,0.4-1.2c0.8-0.9,2-1.4,3.2-1.2c2,0.1,3.8,1.4,4.6,3.3
	c0.9,1.9,0.7,4.2-0.6,5.9c-1.3,1.7-3.6,2.4-6.7,2.1c-5.1-0.6-8.8-5.2-8.2-10.4c0.1-1,0.4-2,0.8-2.9c3.1-5.9,9-5.8,12.3-5.3
	c4.6,0.8,11.6,4.9,14.2,14.5h6.4c-0.8-2.4-1.2-9.5,5.9-9.5c7.9,0,8.9,5.5,11.1,9.5h6.7c-1.8-2.5-3-5.4-2.6-7.7
	c0.6-3.5,3.4-3.2,7.2-2.8c1.3,0.1,2.7,0.3,4.2,0.3c3.7,0.1,7.3-0.6,10.7-1.9c1.3-0.5,2.5-1.1,3.6-1.9c0.3-0.3,0.4-0.6,0.5-0.9
	l0.1-0.3c0.1-0.3,0.3-0.9,0.4-1.3c0.2-0.7-0.4-0.3-0.4-0.3c-2.2,1.3-4.6,2-7.1,2.2c-3.5,0.1-10.6-3.5-11.3-3.9l-0.1-0.1l-1.5-3.5
	c5.1,3.3,9.3,5.2,12.6,5.5C85.1,57.6,87.9,55.6,89.1,54.8L89.1,54.8z M75.2,49.6c0.1-2.1,1.4-4,3.4-4.7c2-0.7,4.2-0.2,5.7,1.3
	c1.4,1.6,1.8,3.8,0.9,5.7s-2.8,3.1-5,3.1C77.3,54.9,75.1,52.5,75.2,49.6L75.2,49.6z"/>
</svg>
