<svg xmlns="http://www.w3.org/2000/svg" viewBox="0 0 64 64">
<path fill="#85cbf8" d="M31 3A28 28 0 1 0 31 59A28 28 0 1 0 31 3Z"></path>
<path fill="#7bbeeb" d="M31 9A22 22 0 1 0 31 53A22 22 0 1 0 31 9Z"></path>
<path fill="#8d6c9f" d="M31,2C15.009,2,2,15.009,2,31s13.009,29,29,29s29-13.009,29-29S46.991,2,31,2z M31,58 C17.115,58,5.649,47.463,4.166,33.966C4.636,33.884,5,33.493,5,33v-2c0-0.543-0.435-0.981-0.975-0.995C4.551,15.577,16.446,4,31,4 s26.449,11.577,26.975,26.005C57.435,30.019,57,30.457,57,31v2c0,0.493,0.364,0.884,0.834,0.966C56.351,47.463,44.885,58,31,58z"></path>
<path fill="#8d6c9f" d="M9 30c-.552 0-1 .448-1 1v2c0 .552.448 1 1 1s1-.448 1-1v-2C10 30.448 9.552 30 9 30zM14 30c-.552 0-1 .448-1 1v2c0 .552.448 1 1 1s1-.448 1-1v-2C15 30.448 14.552 30 14 30zM48 30c-.552 0-1 .448-1 1v2c0 .552.448 1 1 1s1-.448 1-1v-2C49 30.448 48.552 30 48 30zM53 30c-.552 0-1 .448-1 1v2c0 .552.448 1 1 1s1-.448 1-1v-2C54 30.448 53.552 30 53 30zM38.351 11.322c.712.267 1.419.576 2.099.919.145.073.298.107.45.107.366 0 .718-.201.894-.549.249-.493.051-1.095-.442-1.343-.746-.376-1.52-.715-2.3-1.007-.515-.195-1.094.069-1.287.586C37.571 10.553 37.833 11.128 38.351 11.322zM35.483 9.436c.087-.545-.284-1.058-.829-1.146-4.135-.663-8.369-.19-12.243 1.367-.512.206-.761.788-.555 1.301.157.39.532.627.928.627.124 0 .25-.023.373-.073 3.537-1.421 7.403-1.853 11.18-1.248C34.891 10.356 35.396 9.981 35.483 9.436z"></path>
<path fill="#fff" d="M24 20.055c-3.309 0-6 2.691-6 6v10c0 3.309 2.691 6 6 6s6-2.691 6-6v-10C30 22.746 27.309 20.055 24 20.055zM28 36.055c0 2.206-1.794 4-4 4s-4-1.794-4-4v-10c0-2.206 1.794-4 4-4s4 1.794 4 4V36.055zM37 22h2c1.654 0 3 1.346 3 3 0 .552.448 1 1 1s1-.448 1-1c0-2.757-2.243-5-5-5h-2c-2.757 0-5 2.243-5 5v2c0 2.757 2.243 5 5 5h2c1.654 0 3 1.346 3 3v2c0 1.654-1.346 3-3 3h-2c-1.654 0-3-1.346-3-3 0-.552-.448-1-1-1s-1 .448-1 1c0 2.757 2.243 5 5 5h2c2.757 0 5-2.243 5-5v-2c0-2.757-2.243-5-5-5h-2c-1.654 0-3-1.346-3-3v-2C34 23.346 35.346 22 37 22z"></path>
</svg>