<svg xmlns="http://www.w3.org/2000/svg" width="11" height="13" viewBox="0 0 11 13">
  <metadata><?xpacket begin="﻿" id="W5M0MpCehiHzreSzNTczkc9d"?>
<x:xmpmeta xmlns:x="adobe:ns:meta/" x:xmptk="Adobe XMP Core 5.6-c142 79.160924, 2017/07/13-01:06:39        ">
   <rdf:RDF xmlns:rdf="http://www.w3.org/1999/02/22-rdf-syntax-ns#">
      <rdf:Description rdf:about=""/>
   </rdf:RDF>
</x:xmpmeta>
                                                                                                    
                                                                                                    
                                                                                                    
                                                                                                    
                                                                                                    
                                                                                                    
                                                                                                    
                                                                                                    
                                                                                                    
                                                                                                    
                                                                                                    
                                                                                                    
                                                                                                    
                                                                                                    
                                                                                                    
                                                                                                    
                                                                                                    
                                                                                                    
                                                                                                    
                                                                                                    
                           
<?xpacket end="w"?></metadata>
<defs>
    <style>
      .cls-1 {
        fill: #e7c470;
        fill-rule: evenodd;
      }
    </style>
  </defs>
  <path id="Forma_1" data-name="Forma 1" class="cls-1" d="M899.073,398.387q-0.287.009-.573,0.009c-0.191,0-.383,0-0.575-0.009a12.753,12.753,0,0,1-3.829-.607,4.5,4.5,0,0,1-1.1-.526v2.1c0.626,0.664,2.727,1.276,5.5,1.276s4.874-.612,5.5-1.276v-2.1a4.488,4.488,0,0,1-1.106.529A12.755,12.755,0,0,1,899.073,398.387ZM893,394.325v2.1c0.58,0.615,2.427,1.186,4.9,1.266l0.077,0,0.216,0c0.1,0,.2,0,0.3,0s0.2,0,.3,0l0.216,0,0.077,0c2.476-.08,4.323-0.651,4.9-1.266v-2.1c-1.071.747-3.334,1.142-5.5,1.142S894.071,395.072,893,394.325Zm10.97-1.418c-0.247-.96-2.145-1.908-5.47-1.908s-5.213.943-5.468,1.9a0.228,0.228,0,0,0-.032.11v0.515c0.624,0.661,2.71,1.272,5.5,1.272s4.876-.611,5.5-1.272V393.01A0.2,0.2,0,0,0,903.97,392.907ZM893,400.158v1.832a0.208,0.208,0,0,0,.026.1c0.26,1.093,2.584,1.91,5.474,1.91s5.2-.813,5.472-1.9A0.22,0.22,0,0,0,904,401.99v-1.831c-0.91.65-2.784,1.161-5.5,1.161S893.909,400.808,893,400.158Z" transform="translate(-893 -391)"/>
</svg>
