<svg xmlns="http://www.w3.org/2000/svg" width="12.25" height="12.25" viewBox="0 0 12.25 12.25">
  <metadata><?xpacket begin="﻿" id="W5M0MpCehiHzreSzNTczkc9d"?>
<x:xmpmeta xmlns:x="adobe:ns:meta/" x:xmptk="Adobe XMP Core 5.6-c142 79.160924, 2017/07/13-01:06:39        ">
   <rdf:RDF xmlns:rdf="http://www.w3.org/1999/02/22-rdf-syntax-ns#">
      <rdf:Description rdf:about=""/>
   </rdf:RDF>
</x:xmpmeta>
                                                                                                    
                                                                                                    
                                                                                                    
                                                                                                    
                                                                                                    
                                                                                                    
                                                                                                    
                                                                                                    
                                                                                                    
                                                                                                    
                                                                                                    
                                                                                                    
                                                                                                    
                                                                                                    
                                                                                                    
                                                                                                    
                                                                                                    
                                                                                                    
                                                                                                    
                                                                                                    
                           
<?xpacket end="w"?></metadata>
<defs>
    <style>
      .cls-1 {
        fill: #75b2ee;
        fill-rule: evenodd;
      }
    </style>
  </defs>
  <path id="Forma_1" data-name="Forma 1" class="cls-1" d="M1321.51,398.315l-1.57-5.809a1.645,1.645,0,0,0-.51-0.825,1.2,1.2,0,0,0-.81-0.316h-6.24a1.2,1.2,0,0,0-.81.316,1.645,1.645,0,0,0-.51.825l-1.57,5.809a3.43,3.43,0,0,0-.13.719V402.1a1.64,1.64,0,0,0,.38,1.083,1.137,1.137,0,0,0,.9.451h9.72a1.137,1.137,0,0,0,.9-0.451,1.64,1.64,0,0,0,.38-1.083v-3.067A3.43,3.43,0,0,0,1321.51,398.315Zm-9.47-5.435a0.35,0.35,0,0,1,.13-0.206,0.3,0.3,0,0,1,.21-0.082h6.24a0.3,0.3,0,0,1,.21.082,0.35,0.35,0,0,1,.13.206l1.25,4.62h-9.42Zm8.57,9.221a0.326,0.326,0,0,1-.07.216,0.227,0.227,0,0,1-.18.09h-9.72a0.227,0.227,0,0,1-.18-0.09,0.326,0.326,0,0,1-.07-0.216v-3.067a0.325,0.325,0,0,1,.07-0.216,0.225,0.225,0,0,1,.18-0.091h9.72a0.225,0.225,0,0,1,.18.091,0.325,0.325,0,0,1,.07.216V402.1h0Zm-3.58-2.3a0.58,0.58,0,0,0-.45.226,0.867,0.867,0,0,0,0,1.083,0.573,0.573,0,0,0,.91,0,0.9,0.9,0,0,0,0-1.083A0.588,0.588,0,0,0,1317.03,399.8Zm2.05,0a0.555,0.555,0,0,0-.45.226,0.867,0.867,0,0,0,0,1.083,0.563,0.563,0,0,0,.9,0,0.867,0.867,0,0,0,0-1.083A0.555,0.555,0,0,0,1319.08,399.8Z" transform="translate(-1309.38 -391.375)"/>
</svg>
