<svg id="logo-collaboration-with-lagom" xmlns="http://www.w3.org/2000/svg" width="150" height="44" viewBox="0 0 150 44">
  <defs>
    <style>
      .cls-1 {
        fill: #737880;
      }

      .cls-1, .cls-2, .cls-3, .cls-4, .cls-5 {
        fill-rule: evenodd;
      }

      .cls-2 {
        fill: #1062fe;
      }

      .cls-3 {
        fill: #121720;
      }

      .cls-4 {
        fill: #004a95;
      }

      .cls-5 {
        fill: #5bc758;
      }
    </style>
  </defs>
  <path id="in_collaboration_with" data-name="in collaboration with" class="cls-1" d="M3276.68,2420.78h-1.19v5.28h1.19v-5.28Zm-1.09-.92a0.7,0.7,0,0,0,.5.17,0.677,0.677,0,0,0,.49-0.17,0.611,0.611,0,0,0,.18-0.45,0.634,0.634,0,0,0-.18-0.46,0.642,0.642,0,0,0-.49-0.18,0.605,0.605,0,0,0-.67.64A0.644,0.644,0,0,0,3275.59,2419.86Zm2.36,0.92v5.28h1.19v-3.76a1.144,1.144,0,0,1,1.07-.65,0.925,0.925,0,0,1,.71.25,1.107,1.107,0,0,1,.22.74v3.42h1.18v-3.49q-0.03-1.89-1.68-1.89a1.93,1.93,0,0,0-1.54.71l-0.03-.61h-1.12Zm9.35,4.01a2.138,2.138,0,0,1-.31-1.28v-0.19a2.1,2.1,0,0,1,.31-1.27,1.051,1.051,0,0,1,.89-0.42,0.98,0.98,0,0,1,.74.3,1.067,1.067,0,0,1,.31.74h1.12a2,2,0,0,0-.62-1.44,2.461,2.461,0,0,0-3.3.18,2.794,2.794,0,0,0-.64,1.93v0.12a2.845,2.845,0,0,0,.65,1.98,2.46,2.46,0,0,0,2.82.47,1.967,1.967,0,0,0,.78-0.67,1.777,1.777,0,0,0,.31-0.92h-1.12a0.911,0.911,0,0,1-.31.64,1.088,1.088,0,0,1-.74.25A1.027,1.027,0,0,1,3287.3,2424.79Zm3.73-1.36a2.9,2.9,0,0,0,.67,1.99,2.323,2.323,0,0,0,1.79.74,2.449,2.449,0,0,0,1.3-.34,2.185,2.185,0,0,0,.85-0.95,2.993,2.993,0,0,0,.31-1.39l-0.01-.28a2.758,2.758,0,0,0-.72-1.83,2.3,2.3,0,0,0-1.74-.69,2.344,2.344,0,0,0-1.27.34,2.227,2.227,0,0,0-.87.95,3.23,3.23,0,0,0-.31,1.4v0.06Zm1.53-1.33a1.155,1.155,0,0,1,1.86,0,2.122,2.122,0,0,1,.34,1.27,2.4,2.4,0,0,1-.33,1.38,1.088,1.088,0,0,1-.94.46,1.07,1.07,0,0,1-.93-0.46,2.082,2.082,0,0,1-.34-1.27A2.263,2.263,0,0,1,3292.56,2422.1Zm5.65-3.54h-1.19v7.5h1.19v-7.5Zm2.55,0h-1.18v7.5h1.18v-7.5Zm5.66,7.5v-0.08a2.742,2.742,0,0,1-.2-1.14v-2.38a1.653,1.653,0,0,0-.56-1.31,2.225,2.225,0,0,0-1.48-.47,2.651,2.651,0,0,0-1.11.22,1.882,1.882,0,0,0-.78.59,1.318,1.318,0,0,0-.29.81h1.19a0.6,0.6,0,0,1,.26-0.51,1,1,0,0,1,.66-0.2,0.943,0.943,0,0,1,.7.24,0.964,0.964,0,0,1,.23.66v0.35h-0.73a3.012,3.012,0,0,0-1.79.45,1.584,1.584,0,0,0-.13,2.42,1.887,1.887,0,0,0,1.3.45,1.866,1.866,0,0,0,1.39-.59,1.935,1.935,0,0,0,.13.49h1.21Zm-3.12-1.05a0.716,0.716,0,0,1-.23-0.55,0.74,0.74,0,0,1,.34-0.65,1.765,1.765,0,0,1,.99-0.23h0.64v1a1.223,1.223,0,0,1-.47.46,1.409,1.409,0,0,1-.66.17A0.914,0.914,0,0,1,3303.3,2425.01Zm8.8-1.6a3.224,3.224,0,0,0-.55-2.01,1.806,1.806,0,0,0-1.52-.72,1.7,1.7,0,0,0-1.38.61v-2.73h-1.19v7.5h1.08l0.06-.57a1.7,1.7,0,0,0,1.44.67,1.771,1.771,0,0,0,1.51-.73,3.115,3.115,0,0,0,.55-1.95v-0.07Zm-1.18.11a2.159,2.159,0,0,1-.32,1.26,0.977,0.977,0,0,1-.86.41,1.1,1.1,0,0,1-1.09-.68v-2.18a1.106,1.106,0,0,1,1.08-.68,1.016,1.016,0,0,1,.88.43,2.194,2.194,0,0,1,.31,1.29v0.15Zm1.95-.09a2.859,2.859,0,0,0,.68,1.99,2.286,2.286,0,0,0,1.78.74,2.449,2.449,0,0,0,1.3-.34,2.206,2.206,0,0,0,.86-0.95,3.119,3.119,0,0,0,.3-1.39l-0.01-.28a2.663,2.663,0,0,0-.72-1.83,2.29,2.29,0,0,0-1.73-.69,2.355,2.355,0,0,0-1.28.34,2.227,2.227,0,0,0-.87.95,3.23,3.23,0,0,0-.31,1.4v0.06Zm1.53-1.33a1.155,1.155,0,0,1,1.86,0,2.122,2.122,0,0,1,.34,1.27,2.4,2.4,0,0,1-.33,1.38,1.18,1.18,0,0,1-1.87,0,2.082,2.082,0,0,1-.34-1.27A2.263,2.263,0,0,1,3314.4,2422.1Zm7.16-1.35a1.224,1.224,0,0,0-.42-0.07,1.336,1.336,0,0,0-1.19.69l-0.03-.59h-1.13v5.28h1.18v-3.61a1.086,1.086,0,0,1,1.1-.62,3.908,3.908,0,0,1,.49.03v-1.11Zm4.97,5.31v-0.08a2.59,2.59,0,0,1-.2-1.14v-2.38a1.66,1.66,0,0,0-.57-1.31,2.225,2.225,0,0,0-1.48-.47,2.651,2.651,0,0,0-1.11.22,1.882,1.882,0,0,0-.78.59,1.318,1.318,0,0,0-.29.81h1.19a0.63,0.63,0,0,1,.26-0.51,1,1,0,0,1,.66-0.2,0.928,0.928,0,0,1,.7.24,0.964,0.964,0,0,1,.23.66v0.35h-0.73a3.033,3.033,0,0,0-1.79.45,1.584,1.584,0,0,0-.13,2.42,1.887,1.887,0,0,0,1.3.45,1.866,1.866,0,0,0,1.39-.59,1.538,1.538,0,0,0,.14.49h1.21Zm-3.13-1.05a0.709,0.709,0,0,1-.22-0.55,0.754,0.754,0,0,1,.33-0.65,1.765,1.765,0,0,1,.99-0.23h0.64v1a1.158,1.158,0,0,1-.47.46,1.351,1.351,0,0,1-.66.17A0.932,0.932,0,0,1,3323.4,2425.01Zm4.47-5.51v1.28H3327v0.88h0.87v2.99a1.272,1.272,0,0,0,1.37,1.51,3.119,3.119,0,0,0,.78-0.11v-0.92a2.007,2.007,0,0,1-.42.05,0.528,0.528,0,0,1-.42-0.13,0.661,0.661,0,0,1-.12-0.44v-2.95h0.93v-0.88h-0.93v-1.28h-1.19Zm4.29,1.28h-1.19v5.28h1.19v-5.28Zm-1.09-.92a0.7,0.7,0,0,0,.5.17,0.677,0.677,0,0,0,.49-0.17,0.611,0.611,0,0,0,.18-0.45,0.634,0.634,0,0,0-.18-0.46,0.642,0.642,0,0,0-.49-0.18,0.666,0.666,0,0,0-.5.18,0.626,0.626,0,0,0-.17.46A0.6,0.6,0,0,0,3331.07,2419.86Zm2.16,3.57a2.854,2.854,0,0,0,.67,1.99,2.293,2.293,0,0,0,1.79.74,2.414,2.414,0,0,0,1.29-.34,2.206,2.206,0,0,0,.86-0.95,3.119,3.119,0,0,0,.3-1.39l-0.01-.28a2.663,2.663,0,0,0-.72-1.83,2.29,2.29,0,0,0-1.73-.69,2.355,2.355,0,0,0-1.28.34,2.291,2.291,0,0,0-.87.95,3.225,3.225,0,0,0-.3,1.4v0.06Zm1.52-1.33a1.155,1.155,0,0,1,1.86,0,2.124,2.124,0,0,1,.35,1.27,2.4,2.4,0,0,1-.34,1.38,1.07,1.07,0,0,1-.93.46,1.088,1.088,0,0,1-.94-0.46,2.082,2.082,0,0,1-.34-1.27A2.334,2.334,0,0,1,3334.75,2422.1Zm4.37-1.32v5.28h1.19v-3.76a1.144,1.144,0,0,1,1.07-.65,0.91,0.91,0,0,1,.71.25,1.056,1.056,0,0,1,.22.74v3.42h1.18v-3.49q-0.03-1.89-1.68-1.89a1.9,1.9,0,0,0-1.53.71l-0.04-.61h-1.12Zm11.62,0h-0.9l-1.08,3.61-0.86-3.61h-1.15l1.44,5.28h0.98l1.11-3.62,1.13,3.62h0.98l1.44-5.28h-1.16l-0.84,3.65Zm5.15,0h-1.19v5.28h1.19v-5.28Zm-1.09-.92a0.7,0.7,0,0,0,.5.17,0.677,0.677,0,0,0,.49-0.17,0.611,0.611,0,0,0,.18-0.45,0.634,0.634,0,0,0-.18-0.46,0.642,0.642,0,0,0-.49-0.18,0.666,0.666,0,0,0-.5.18,0.626,0.626,0,0,0-.17.46A0.6,0.6,0,0,0,3354.8,2419.86Zm2.68-.36v1.28h-0.87v0.88h0.87v2.99a1.272,1.272,0,0,0,1.37,1.51,3.119,3.119,0,0,0,.78-0.11v-0.92a2.007,2.007,0,0,1-.42.05,0.568,0.568,0,0,1-.43-0.13,0.664,0.664,0,0,1-.11-0.44v-2.95h0.93v-0.88h-0.93v-1.28h-1.19Zm4.19-.94h-1.18v7.5h1.18v-3.77a1.162,1.162,0,0,1,1.07-.64,0.957,0.957,0,0,1,.69.23,1.04,1.04,0,0,1,.24.78v3.4h1.19v-3.45c-0.02-1.28-.59-1.93-1.72-1.93a1.868,1.868,0,0,0-1.47.68v-2.8Z" transform="translate(-3275 -2387)"/>
  <path id="Kształt_1078" data-name="Kształt 1078" class="cls-2" d="M3375.83,2427.18l6.57,3.64c0.05,0.02.09,0.04,0.14,0.06a1.884,1.884,0,0,0,.69.13,1.772,1.772,0,0,0,.82-0.19l6.57-3.64a0.553,0.553,0,0,0,0-1.05l-5.09-2.82a0.74,0.74,0,0,0-.36-0.09,0.72,0.72,0,0,0-.71.57l-1.1,5.9v-13.57a1.635,1.635,0,0,0-.24-0.78,1.751,1.751,0,0,0-.59-0.59l-6.57-3.63a0.706,0.706,0,0,0-.67-0.05,0.644,0.644,0,0,0-.29.58v14.17a1.635,1.635,0,0,0,.24.78A1.715,1.715,0,0,0,3375.83,2427.18Z" transform="translate(-3275 -2387)"/>
  <path id="Kształt_1078_kopia" data-name="Kształt 1078 kopia" class="cls-3" d="M3396.41,2424.14c-0.05.01-.11,0.02-0.19,0.03a1.653,1.653,0,0,1-.46-0.02,0.267,0.267,0,0,1-.14-0.07,0.526,0.526,0,0,1-.11-0.2,1.449,1.449,0,0,1-.05-0.42v-6.26a0.162,0.162,0,0,0-.14-0.16,2.429,2.429,0,0,0-.3-0.04,5.61,5.61,0,0,0-.58,0,2.429,2.429,0,0,0-.3.04,0.162,0.162,0,0,0-.14.16v6.5a1.988,1.988,0,0,0,.13.78,1.468,1.468,0,0,0,.4.54,1.553,1.553,0,0,0,.56.28,2.84,2.84,0,0,0,.66.08c0.14,0,.28-0.01.44-0.02a1.733,1.733,0,0,0,.43-0.08,0.162,0.162,0,0,0,.12-0.16,3.434,3.434,0,0,0-.11-0.86A0.18,0.18,0,0,0,3396.41,2424.14Zm3.39-4.86a7.547,7.547,0,0,0-.92.07,6.43,6.43,0,0,0-.88.19,0.169,0.169,0,0,0-.13.16,1.776,1.776,0,0,0,.24.94,0.19,0.19,0,0,0,.21.08c0.21-.06.43-0.11,0.65-0.15a4.032,4.032,0,0,1,.72-0.06,1.524,1.524,0,0,1,.88.21,0.909,0.909,0,0,1,.27.76v0.01c-0.06,0-.13-0.01-0.2-0.01-0.16-.01-0.37-0.02-0.61-0.02a3.927,3.927,0,0,0-.98.12,2.559,2.559,0,0,0-.84.37,1.894,1.894,0,0,0-.59.64,1.766,1.766,0,0,0-.22.9,2.049,2.049,0,0,0,.18.89,1.754,1.754,0,0,0,.54.61,2.3,2.3,0,0,0,.83.34,4.769,4.769,0,0,0,1.04.1,7.655,7.655,0,0,0,1.19-.09c0.38-.06.71-0.12,0.98-0.18a0.181,0.181,0,0,0,.14-0.17v-3.47a2.1,2.1,0,0,0-.65-1.7A2.815,2.815,0,0,0,3399.8,2419.28Zm1.04,3.4v1.48a2.9,2.9,0,0,1-.34.04,4.132,4.132,0,0,1-.93.01,1.013,1.013,0,0,1-.35-0.1,0.751,0.751,0,0,1-.25-0.22,0.819,0.819,0,0,1-.09-0.42,0.682,0.682,0,0,1,.29-0.62,1.72,1.72,0,0,1,.97-0.22c0.12,0,.26.01,0.43,0.02Q3400.72,2422.665,3400.84,2422.68Zm8.28-3.3a3.284,3.284,0,0,0-.91.12,2.688,2.688,0,0,0-.56.24,3.562,3.562,0,0,0-.65-0.31,3.072,3.072,0,0,0-.99-0.15,3.289,3.289,0,0,0-1.07.17,2.313,2.313,0,0,0-.8.45,1.85,1.85,0,0,0-.5.68,1.968,1.968,0,0,0-.18.83,2.01,2.01,0,0,0,.25.98,0.5,0.5,0,0,1,.1.99,1.422,1.422,0,0,0-.21.78,1.055,1.055,0,0,0,.18.62,1.7,1.7,0,0,0,.22.24,1.826,1.826,0,0,0-.48.48,1.481,1.481,0,0,0-.29.89,1.326,1.326,0,0,0,.71,1.24,3.913,3.913,0,0,0,1.87.37,5.862,5.862,0,0,0,1.29-.14,3.643,3.643,0,0,0,1.04-.41,2.419,2.419,0,0,0,.72-0.66,1.6,1.6,0,0,0,.26-0.89,1.486,1.486,0,0,0-.51-1.19,2.5,2.5,0,0,0-1.58-.46h0l-1.51-.02a0.969,0.969,0,0,1-.54-0.1,0.334,0.334,0,0,1-.09-0.23,0.4,0.4,0,0,1,.11-0.28,1.7,1.7,0,0,1,.2-0.19,3.465,3.465,0,0,0,.81.09,3.179,3.179,0,0,0,1-.15,2.232,2.232,0,0,0,.81-0.42,1.89,1.89,0,0,0,.71-1.54,1.812,1.812,0,0,0-.07-0.54c-0.02-.07-0.05-0.13-0.07-0.19h0.73a0.172,0.172,0,0,0,.17-0.14,2.512,2.512,0,0,0,.04-0.27,2.348,2.348,0,0,0,.01-0.26,2.384,2.384,0,0,0-.05-0.49A0.181,0.181,0,0,0,3409.12,2419.38Zm-3.63,6.07,1.29,0.02a1.158,1.158,0,0,1,.69.14,0.441,0.441,0,0,1,.15.37,0.669,0.669,0,0,1-.42.57,2.7,2.7,0,0,1-1.33.27,4.26,4.26,0,0,1-.54-0.04,1.381,1.381,0,0,1-.39-0.11,0.518,0.518,0,0,1-.22-0.19,0.5,0.5,0,0,1-.07-0.29,0.747,0.747,0,0,1,.21-0.54,0.758,0.758,0,0,1,.59-0.21,0.06,0.06,0,0,1,.04.01h0Zm-0.24-4.78a0.963,0.963,0,0,1,.76-0.27,1,1,0,0,1,.78.27,1.054,1.054,0,0,1,.25.74,1.087,1.087,0,0,1-1.79.73A1.205,1.205,0,0,1,3405.25,2420.67Zm9.54-.48a2.544,2.544,0,0,0-.91-0.66,3.126,3.126,0,0,0-1.27-.25,3.161,3.161,0,0,0-1.27.25,2.544,2.544,0,0,0-.91.66,2.837,2.837,0,0,0-.54.98,4.285,4.285,0,0,0,0,2.39,2.837,2.837,0,0,0,.54.98,2.5,2.5,0,0,0,.92.66,3.256,3.256,0,0,0,1.26.23,3.309,3.309,0,0,0,1.27-.23,2.571,2.571,0,0,0,1.45-1.64,4.057,4.057,0,0,0,0-2.39A2.474,2.474,0,0,0,3414.79,2420.19Zm-2.18,4.05a1.114,1.114,0,0,1-1-.46,2.485,2.485,0,0,1-.34-1.42,2.436,2.436,0,0,1,.34-1.4,1.328,1.328,0,0,1,2.01,0,2.433,2.433,0,0,1,.35,1.4,2.5,2.5,0,0,1-.35,1.42A1.121,1.121,0,0,1,3412.61,2424.24Zm11.88-4.35a2.009,2.009,0,0,0-1.61-.61,2.146,2.146,0,0,0-.64.1,2.088,2.088,0,0,0-.52.25,2.641,2.641,0,0,0-.4.35,1.344,1.344,0,0,0-.11.14,1.7,1.7,0,0,0-.49-0.54,1.918,1.918,0,0,0-1.15-.3,2.284,2.284,0,0,0-.66.1,2,2,0,0,0-.53.25,1.7,1.7,0,0,0-.38.33,2.63,2.63,0,0,0-.07-0.41,0.159,0.159,0,0,0-.14-0.13c-0.09-.02-0.17-0.03-0.24-0.04a4.509,4.509,0,0,0-.52,0c-0.08.01-.17,0.02-0.26,0.04a0.162,0.162,0,0,0-.14.16v5.56a0.162,0.162,0,0,0,.14.16,2.607,2.607,0,0,0,.31.04,5.609,5.609,0,0,0,.58,0,2.429,2.429,0,0,0,.3-0.04,0.162,0.162,0,0,0,.15-0.16v-2.84a2.662,2.662,0,0,1,.1-0.79,1.417,1.417,0,0,1,.27-0.55,0.993,0.993,0,0,1,.37-0.31,1.148,1.148,0,0,1,.46-0.1,0.611,0.611,0,0,1,.57.28,2,2,0,0,1,.2,1v3.31a0.162,0.162,0,0,0,.15.16,2.429,2.429,0,0,0,.3.04,5.609,5.609,0,0,0,.58,0,2.258,2.258,0,0,0,.29-0.04,0.162,0.162,0,0,0,.15-0.16V2422a1.554,1.554,0,0,1,.32-1.07,0.994,0.994,0,0,1,.8-0.34,0.668,0.668,0,0,1,.63.29,1.982,1.982,0,0,1,.21,1.03v3.23a0.171,0.171,0,0,0,.15.16,2.429,2.429,0,0,0,.3.04c0.1,0,.2.01,0.29,0.01s0.18-.01.29-0.01a2.359,2.359,0,0,0,.31-0.04,0.162,0.162,0,0,0,.14-0.16v-3.54A2.53,2.53,0,0,0,3424.49,2419.89Z" transform="translate(-3275 -2387)"/>
  <path id="Kształt_1076" data-name="Kształt 1076" class="cls-4" d="M3289.63,2406.55h-3.65v-8.24l-3.63,4.87-3.68-4.93v8.3H3275v-14.1h3.67v0.02h0.26l3.4,4.52,3.44-4.54h3.86A13.6,13.6,0,0,0,3289.63,2406.55Zm30.88-9.71a2.87,2.87,0,0,0-2.41-1.23h-1.95v7.65h1.44a3.56,3.56,0,0,0,2.85-1.06,4.051,4.051,0,0,0,.96-2.74A4.173,4.173,0,0,0,3320.51,2396.84Zm-2.41,9.72h-5.62v-0.02a13.623,13.623,0,0,0,0-14.08v-0.03h5.62a6.67,6.67,0,0,1,4.92,2.08,7.122,7.122,0,0,1,0,10A6.654,6.654,0,0,1,3318.1,2406.56Zm13.95-.07a5.688,5.688,0,0,1-4.2-1.78,5.761,5.761,0,0,1-1.72-4.24v-8h3.69v8.17a2.24,2.24,0,1,0,4.48,0v-8.17h3.69v8A5.992,5.992,0,0,1,3332.05,2406.49Zm7.06-14.04h3.67v10.75h4.74v3.35h-8.41v-14.1Zm13.18,5.53h6.01v2.81h-5.99v2.47h6.08v3.26h-9.8l0.02-14.07h9.8v3.16h-6.12v2.37Zm13.09,0.31a8.038,8.038,0,0,1,3.24,2.17,3.706,3.706,0,0,1,.58,3,3.4,3.4,0,0,1-1.8,2.44,8.6,8.6,0,0,1-3.1.61h-4.88v-3.25h4.18c1.3,0,1.68-.14,1.83-0.44a0.717,0.717,0,0,0,.08-0.72c-0.21-.61-1.12-0.92-2.24-1.39a8.611,8.611,0,0,1-3.4-2.26,3.669,3.669,0,0,1-.52-2.94,3.731,3.731,0,0,1,1.96-2.42,6.9,6.9,0,0,1,3.08-.64h0.51a27.935,27.935,0,0,1,3.66.23l0.04,3.09a17,17,0,0,0-3.37-.3c-1.37,0-1.8.06-2.14,0.62a0.735,0.735,0,0,0-.08.67C3363.24,2397.41,3364.18,2397.77,3365.38,2398.29Z" transform="translate(-3275 -2387)"/>
  <path id="Kształt_1076_kopia" data-name="Kształt 1076 kopia" class="cls-5" d="M3376.37,2400.55a1.653,1.653,0,0,1,.79-0.54,23.957,23.957,0,0,1,3.57.34,2.041,2.041,0,0,1,.29,1.03c-0.05.75-.09,3.92-0.09,3.92s-0.71.74-.84,0.29a12.912,12.912,0,0,1-.18-2.14c0.02,0-.77,3.28-5.29,3.19-4.73-.09-5.14-5.92-4.08-9.07,0.88-2.63,2.81-5.44,6.98-5.18a3.676,3.676,0,0,1,2.72,1.2,2.852,2.852,0,0,1,.67,1.93,3.372,3.372,0,0,1-1.43.47c0.26-.69.3-2.42-2.31-2.67a4.658,4.658,0,0,0-3.27,1.03,7.963,7.963,0,0,0-2.87,6.86c0.06,2.73,1.66,4.32,3.49,4.34,4.94,0.05,5.21-4.13,5.21-4.13S3376.2,2400.75,3376.37,2400.55Zm9.04,0.42a2.428,2.428,0,0,0-2.58,2.83,2.381,2.381,0,0,0,2.73,1.92,4.092,4.092,0,0,0,2.87-2,8.709,8.709,0,0,1,.06-1.14A2.9,2.9,0,0,0,3385.41,2400.97Zm3.2,4.13a4.471,4.471,0,0,1-.09-0.45,4.349,4.349,0,0,1-2.9,1.87c-1.5.15-3.51-.16-3.69-2.78-0.2-2.92,2.25-3.87,4.05-3.61a3.4,3.4,0,0,1,2.62,1.61c0.06-.46.13-0.94,0.18-1.49,0.15-1.64-1.43-2.72-3.18-2.79a2.568,2.568,0,0,0-2.6,1.23,0.723,0.723,0,0,1-.6.37,3,3,0,0,1,3.13-2.52c2.48-.04,4.23,1.35,4.1,3.7-0.08,1.63-.54,2.45-0.32,4.31a1.5,1.5,0,0,0,1.64,1.5A1.509,1.509,0,0,1,3388.61,2405.1Zm9.46-5.95a9.332,9.332,0,0,0-.85-0.88,2.034,2.034,0,0,0-2.44.16c-1.75,1.12-2.32,4.44-2.64,5.59a8.266,8.266,0,0,0-.26,2.32,0.289,0.289,0,0,1-.17.14,0.97,0.97,0,0,1-.54-1.25c0.16-.57-0.03-1.87.04-3.21a27.79,27.79,0,0,0-.28-5.46c-0.17-.37,1.02-0.96,1.14-0.45a36.575,36.575,0,0,1-.15,6.11c0.46-2.4,1.88-5.23,4.16-5.4a2.5,2.5,0,0,1,2.65,2.39C3398.68,2399.4,3398.34,2399.33,3398.07,2399.15Zm4.31-1.25c-1.85.25-3.38,2.4-3.26,5.37,0.11,2.73,2.44,2.77,3.96,2.22a3.7,3.7,0,0,0,1.99-1.69,19.767,19.767,0,0,1,0-3.69A2.125,2.125,0,0,0,3402.38,2397.9Zm3.49,6.06c0.19,1.09,1.18,1.65,2.59,1.17-1.9,1.86-2.83,1.22-3.22-.34a5.592,5.592,0,0,1-4.33,1.94c-2.2-.06-2.92-2.15-2.92-3.76,0.01-1.88,1.21-5.52,4.38-5.86a3.314,3.314,0,0,1,2.72.87,1.394,1.394,0,0,1,.17.3c0.08-.6.16-1.08,0.22-1.38,0.57-2.76.62-3.91,1-4.23a2.484,2.484,0,0,1,1.27-.42c0.18,0-1.1,4-1.51,6.1A17.379,17.379,0,0,0,3405.87,2403.96Zm1.37-3.17c0.05,0.05.1,0.11,0.16,0.17C3407.23,2400.8,3407.17,2400.75,3407.24,2400.79Zm1.59,0a16.137,16.137,0,0,0,3.87.61c2.02,0.04,2.79-1.25,2.57-2.36-0.25-1.32-1.91-1.81-3.37-1.55-1.26.23-2.41,1.4-3.12,3.31A0.044,0.044,0,0,1,3408.83,2400.79Zm-1.12,2a6.49,6.49,0,0,1,.04-1.71c0.01-.02,0-0.01,0-0.02-0.28-.14-0.44-0.23-0.51-0.27a0.508,0.508,0,0,1,.04-0.68,3.819,3.819,0,0,0,.72.39c0.01,0,.03-0.01.02-0.01a4.946,4.946,0,0,1,3.53-3.8c2.21-.44,4.22.72,4.46,1.97s-0.1,3.58-3.2,3.6a11.025,11.025,0,0,1-4.21-.81,3.584,3.584,0,0,0-.01,1.4c0.29,2.36,4.45,4.15,7.37,1.63,0.23,0.03.49,0.01,0.44,0.19C3412.81,2408.06,3408.14,2406.32,3407.71,2402.79Zm16.6,2.99a1.312,1.312,0,0,1-.95.81l-0.09-.37s2.76-7.82-1.34-8.04c-2.4-.08-3.75,2.5-4.23,4.84-0.05,1.04-.06,2.25-0.03,3.62-0.32-.08-0.77-0.18-0.77-0.18s-0.63-6.53.73-9.66a1.442,1.442,0,0,1,1.04.08,13.6,13.6,0,0,0-.78,3.72c0.58-1.48,1.88-3.76,4.3-3.72C3425.77,2396.95,3425.24,2402.61,3424.31,2405.78Zm-123.26-15.09a8.811,8.811,0,1,0,8.71,8.81A8.771,8.771,0,0,0,3301.05,2390.69Zm0,21.31a12.5,12.5,0,1,1,12.35-12.5A12.441,12.441,0,0,1,3301.05,2412Zm2.65-17.45a2.168,2.168,0,0,0,2.96.86,2.325,2.325,0,0,0,.54-0.43,7.181,7.181,0,0,1,.74,1.26l0.17,0.67a0.062,0.062,0,0,1-.04.07l-0.83.47a0.075,0.075,0,0,1-.09,0l-0.61-.65a3.443,3.443,0,0,1-1.1.12l-0.45.78a0.09,0.09,0,0,1-.09.02l-0.91-.26a0.073,0.073,0,0,1-.06-0.06l0.02-.9a3.479,3.479,0,0,1-.88-0.71l-0.86.23a0.067,0.067,0,0,1-.07-0.04l-0.46-.84a0.075,0.075,0,0,1,0-.09l0.65-.61a3.421,3.421,0,0,1-.13-1.14l-0.76-.45a0.072,0.072,0,0,1-.02-0.08l0.26-.93v-0.01a7.515,7.515,0,0,1,2.08.48A2.215,2.215,0,0,0,3303.7,2394.55Zm-7.04-.72a0.127,0.127,0,0,1,.07.04l0.45,0.77a0.06,0.06,0,0,1,0,.08l-0.54.54a2.342,2.342,0,0,1,.01,1.02l0.55,0.53a0.085,0.085,0,0,1,0,.07l-0.44.78a0.051,0.051,0,0,1-.06.04l-0.73-.2a2.149,2.149,0,0,1-.41.32,2.183,2.183,0,0,1-.47.21l-0.17.73a0.084,0.084,0,0,1-.07.04l-0.88.01a0.063,0.063,0,0,1-.07-0.04l-0.19-.73a0.564,0.564,0,0,1-.12-0.04,5.934,5.934,0,0,1,.21-0.83,1.459,1.459,0,0,0,1.33-.08,1.518,1.518,0,0,0,.53-2.06,1.653,1.653,0,0,0-.44-0.47,6.761,6.761,0,0,1,.58-0.62,1.267,1.267,0,0,1,.13.11Zm-2.14,2.2a0.268,0.268,0,0,1-.26.01c0.08-.16.16-0.32,0.26-0.48a0.293,0.293,0,0,1,.09.1A0.262,0.262,0,0,1,3294.52,2396.03Zm1.03-.94a1.39,1.39,0,0,1-.48,1.89,1.342,1.342,0,0,1-1.23.07c0.06-.17.12-0.35,0.19-0.52a0.8,0.8,0,0,0,.75-0.03,0.825,0.825,0,0,0,.29-1.11,0.775,0.775,0,0,0-.27-0.27c0.11-.16.22-0.31,0.34-0.46A1.3,1.3,0,0,1,3295.55,2395.09Zm6.21,4.46,0.76,0.78a6.136,6.136,0,0,1,1.29-.35l0.27-1.06a0.094,0.094,0,0,1,.09-0.05h1.18a0.094,0.094,0,0,1,.09.05l0.27,1.06a6.227,6.227,0,0,1,1.3.35l0.75-.78a0.107,0.107,0,0,1,.11,0l0.77,0.45a7.644,7.644,0,0,1-1.03,3.39,3.926,3.926,0,0,0-2.84-1.21,3.98,3.98,0,0,0-3.97,4,4.17,4.17,0,0,0,.12,1.01,7.522,7.522,0,0,1-3.4-.87v-0.75a0.094,0.094,0,0,1,.05-0.09l1.06-.27a6.21,6.21,0,0,1,.34-1.3l-0.77-.77a0.074,0.074,0,0,1-.01-0.1l0.6-1.04a0.081,0.081,0,0,1,.09-0.05l1.05,0.29a6.425,6.425,0,0,1,.94-0.94l-0.29-1.06a0.081,0.081,0,0,1,.05-0.09l1.03-.6A0.09,0.09,0,0,1,3301.76,2399.55Zm3,2.95a3.632,3.632,0,0,1,2.67,1.18,8.044,8.044,0,0,1-.95,1.21,2.135,2.135,0,0,0-3.84,1.3,2.073,2.073,0,0,0,.15.8,7.047,7.047,0,0,1-1.53.2,3.733,3.733,0,0,1-.14-1.01A3.662,3.662,0,0,1,3304.76,2402.5Zm0.01,2.95a0.715,0.715,0,0,1,.62.37,8.218,8.218,0,0,1-1.26.72,0.74,0.74,0,0,1-.09-0.36A0.728,0.728,0,0,1,3304.77,2405.45Zm1.03-11.61a0.4,0.4,0,0,1-.43-0.67,6.8,6.8,0,0,1,.6.46A0.392,0.392,0,0,1,3305.8,2393.84Zm0.77,1.41a1.989,1.989,0,0,1-2.72-.79,2.014,2.014,0,0,1,.08-2.08,7.76,7.76,0,0,1,.77.37,1.2,1.2,0,0,0-.12,1.31,1.167,1.167,0,0,0,1.97.13,8.143,8.143,0,0,1,.54.63A2.169,2.169,0,0,1,3306.57,2395.25Z" transform="translate(-3275 -2387)"/>
</svg>
